<?xml version="1.0" encoding="iso-8859-1"?>
<!-- Generator: Adobe Illustrator 16.0.0, SVG Export Plug-In . SVG Version: 6.00 Build 0)  -->
<!DOCTYPE svg PUBLIC "-//W3C//DTD SVG 1.1//EN" "http://www.w3.org/Graphics/SVG/1.1/DTD/svg11.dtd">
<svg version="1.1" id="Layer_1" xmlns="http://www.w3.org/2000/svg" xmlns:xlink="http://www.w3.org/1999/xlink" x="0px" y="0px"
	 width="67.2px" height="67.2px" viewBox="0 0 67.2 67.2" style="enable-background:new 0 0 67.2 67.2;" xml:space="preserve">
<path style="fill-rule:evenodd;clip-rule:evenodd;fill:#FFFFFF;" d="M33.6,67.2c-11.421,0-21.509-5.7-27.58-14.408
	c0.117,0.08,0.222,0.175,0.559,0.31c0.587,0.235,0.587-0.94,1.175-0.235s4.699,1.175,4.699,1.175l0.47-0.47c0,0,0.47-0.235,1.645,0
	s1.175,0.822,1.88,1.175c0.705,0.353,1.645-0.47,2.584-0.235c0.94,0.235,1.175-0.705,1.645-1.175c0.47-0.47,0.353-0.823,0.705-1.175
	c0.353-0.352,0.235-0.587,0.94-0.47s-0.705-1.057-1.175-0.94c-0.47,0.118-1.175-0.47-1.175-0.47s0.47-1.058,0.94-0.705
	c0.337,0.253,2.064,1.052,1.594,0.817c-0.47-0.235,0.286,0.123,0.286,0.123s1.175-0.235,2.115-0.47
	c0.94-0.235-0.587-0.822-0.94-0.705c-0.352,0.117-1.645-0.235-1.645-0.235s-1.997-1.41-2.584-1.645s-0.822-0.117-1.175-0.235
	c-0.353-0.117-1.292,0.118-1.645,0.47c-0.353,0.353-1.645,0.94-1.645,0.94s-1.175,0.235-1.645,0.705c-0.47,0.47-1.879,0-1.879,0
	l-1.645-0.705c0,0,0.118-2.114,0.94-1.645s1.057,0.47,1.645,0.47s1.175-1.645,1.175-1.645l-0.939-0.94c0,0-1.058-0.353-1.41-0.235
	c-0.352,0.117-1.879,0.94-1.879,0.94H7.989c0,0-1.292-1.41-1.645-1.41s-0.94-1.175-0.94-1.175l0.235-1.175v-1.645l-0.94-1.88
	l-0.235-1.175l0.94-1.41l0.94,0.705c0,0,0.117,1.175,0.47,1.879c0.353,0.705,1.292,0.705,1.88,0.705s0.822-0.822,1.41-0.47
	c0.587,0.353,0.47-0.822,0.47-1.175c0-0.352,0.47-1.41,0.939-1.879c0.47-0.47,2.35-1.645,2.35-1.645l1.41,0.235l0.235-0.705
	c0,0,0.235-0.822,0.47-1.175c0.235-0.353-0.235-0.94-0.235-0.94l-0.705,0.235l-0.235-0.94l0.47-1.41c0,0,0.705-0.587,1.41-0.47
	c0.705,0.117,0.235,2.114,0.235,2.114l-0.235,2.82c0,0,0.235,0,1.41,0s0.705,0.235,0.705,0.235s0.705-0.353,1.41-0.705
	c0.705-0.353,0.94-0.94,1.645-1.41c0.705-0.47,1.763-1.762,2.35-1.879c0.587-0.118,1.175-0.705,1.175-0.705s0.822-1.41,0.705-1.88
	c-0.117-0.47,0.47-1.175,0.47-1.175s0-0.47,0.47-0.939c0.47-0.47,1.88-1.175,1.88-1.175s1.879-1.057,2.584-1.175
	c0.705-0.117,0.118-1.879,0.235-2.35c0.118-0.47,0.118-1.057,0.235-1.645c0.118-0.587,0.823-1.527,1.41-2.115
	s0.705-0.705,0.705-0.705s0-1.057,0-1.645s0.705-1.175,0.705-1.175s0.705-0.587,1.41-0.47c0.705,0.118,0.94-1.41,0.94-1.41v-0.94
	c0,0-0.235-0.47-0.94,0.235c-0.123,0.123-0.232,0.203-0.333,0.253c-0.476,0.234-0.771-0.212-1.547-0.018
	c-0.94,0.235-2.82-0.353-3.29-0.235c-0.47,0.117-2.115,0.822-2.35,1.41c-0.235,0.587-0.47,0.94-0.705,2.115s-0.47,0.94-0.47,0.94
	l-0.705,1.175l-0.705,0.939l0.47,1.175v1.41l-1.645-0.235l0.47-0.705v-1.41v-1.175c0,0,0.47-0.823,0.94-0.94
	c0.47-0.118,0-0.705,0-0.705s-0.823-1.175-1.175-1.175c-0.353,0-1.88,0-1.88,0s0.105-0.336,0.291-0.686
	c0.161-0.303,0.383-0.615,0.649-0.724l-1.175,0.235c0,0-0.201,0.04-0.438,0.19c-0.169,0.107-0.356,0.27-0.502,0.515
	c-0.353,0.587-0.94,0.47-0.94,0.47h-1.41l-1.175,0.235c0,0-0.94-0.94-0.47-1.175c0.47-0.235,1.527,0.235,2.115,0.235
	s2.35-1.762,1.41-1.175s-2.584,0-3.289,0c-0.705,0-1.88,0.705-2.585,1.41c-0.705,0.705-1.645,1.645-1.645,1.645
	s-0.94,0.47-1.41,0.94c-0.47,0.47-0.705-0.118-1.175,0c-0.47,0.118-1.645,0.235-2.35,0.235c-0.705,0,0-1.175,0-1.175l1.41-0.94
	c0,0,1.057,0.353,1.41,0s0.47-1.879,0.47-1.879s-0.587-0.823-0.94-0.705c-0.352,0.118-0.939-0.705-0.939-0.705
	s-0.118-0.822,0.705-1.645c-0.255,0.152-0.502,0.313-0.746,0.478C16.551,3.487,24.668,0,33.6,0c8.57,0,16.39,3.211,22.326,8.493
	c-0.324,0.033-0.474,0.201-0.474,0.201s0.353,1.292,0.235,1.41c-0.118,0.118-0.94,0.235-0.94,0.235s-0.353-0.47-0.94-0.705
	s-0.118,0.705,0,0.94c0.118,0.235-0.235,0.705-0.235,0.705l0.94,1.175v-0.94l0.939-0.47c0,0,0.47,0.94,0.705,1.41
	c0.235,0.47-0.235,1.41-0.235,1.41s0.052,0.288,0.108,0.531c-0.256,0.019-0.813,0.645-0.813,0.645s1.175,1.175,1.645,0.939
	c0.47-0.235,0.939,0.118,0.939,0.705s0.823,2.467,1.175,2.584c0.353,0.118,2.467,0.47,3.055,0.47s0.587-1.527,1.175-1.175
	s0.823,2.114,1.175,2.584c0.341,0.454,1.011,3.104,1.161,2.006c1.075,3.289,1.659,6.8,1.659,10.447
	C67.2,52.157,52.157,67.2,33.6,67.2z M19.032,59.681c0,0-0.587-0.587-0.94-1.175c-0.352-0.587,0.705-0.353,0.705-0.705
	c0-0.352-0.235-0.705-0.235-0.705l-1.645-0.235l-1.41-0.94l-0.705-0.47l-0.47-0.939l-0.94-0.235l-0.705,0.47l-0.47,1.175l0.235,0.94
	l-0.47,0.705c0,0,0.117,0.705,0.47,1.175c0.353,0.47,0.353,0.353,0.94,0.705s0.47,0.353,1.175,0.705
	c0.705,0.353,0.705,0.47,0.705,0.47s0.94-0.235,0.705-0.705c-0.235-0.47-1.175-0.705-1.645-0.705c-0.47,0-1.41-0.94-1.41-0.94
	l0.47-0.47l0.705-0.705c0,0,0.94,0.587,1.645,0.47c0.705-0.117,1.645,0.235,1.645,0.235l-0.705,0.235v0.939c0,0,0,0.118,0.94,0.705
	s0.587,0.47,1.175,0.705C19.385,60.621,19.032,59.681,19.032,59.681z M21.617,46.288c-0.94-0.235-1.41-0.47-1.41-0.47
	s-0.235-0.587-0.94-0.705c-0.705-0.117-1.175,0.47-1.175,0.47l-1.41,0.94c0,0-0.235,0.47,0.47,0.235
	c0.705-0.235,0.94-0.353,1.41-0.235c0.47,0.117,0.94-0.118,1.41,0.235s0.822,0.705,1.175,0.705s0.94-0.47,0.94-0.47
	S22.557,46.523,21.617,46.288z M56.626,51.927c-0.117-0.47,1.058-1.292,0.235-1.41c-0.823-0.118-1.175,0.705-1.175,0.705
	s-0.118,0.117,0,0.705c0.117,0.587,0.705,1.175,0.705,1.175S56.744,52.397,56.626,51.927z M53.102,58.976
	c0.587,0.823,0.47-0.47,0.47-0.47l0.235-0.94c0,0,0.118-0.353,1.175-0.47c1.057-0.118,0.94-0.705,0.94-0.705
	s-0.587-0.822,0.235-0.94c0.822-0.117-0.94-2.584-0.94-2.584s-0.449,0.296-0.302,0.702c0.549,1.508-0.407,3.78-0.873,2.118
	c0,0-0.587,0.117-1.175,0.47s-1.41,0.47-1.41,0.47s-0.822,0.94-1.175,1.41c-0.353,0.47,0,0.705,0.47,0.705
	c0.47,0,0.353-0.47,1.175-0.47S52.515,58.154,53.102,58.976z M51.927,59.211c0-0.353-0.705,0-0.705,0l-1.175,0.47l-0.705,0.235
	l0.705,0.47c0,0,0.823-0.118,1.41-0.235C52.045,60.034,51.927,59.563,51.927,59.211z M45.348,64.146c0,0,0.588,0,1.175-0.235
	s0.939-0.705,0.939-0.705s0-0.117,0.235-0.47c0.235-0.353,0.587-0.705,1.41-0.94c0.822-0.235,0.822-0.353,1.41-0.705
	c0.587-0.352-0.118-0.235-0.47,0c-0.352,0.235-1.175-0.47-1.175-0.47l-0.705-0.235c0,0-0.118-0.705,0.235-1.175
	c0.353-0.47,0.822-0.94,1.175-1.41c0.353-0.47-0.94,0.353-1.41,0.705c-0.47,0.353-1.175,0.47-1.175,0.47l-0.47,0.94l-0.235,1.175
	l0.94-0.47c0,0,0.235,0.118,0.47,0.705c0.235,0.587-0.47,0.705-0.47,0.705l-1.175,0.94l-1.41,0.94L45.348,64.146z M31.016,53.572
	c0,0,0.587-0.118,0.705-0.705c0.118-0.587,1.175-0.94,1.175-0.94l0.705,0.705c0,0,0,1.41-0.47,1.645
	c-0.47,0.235-1.058,0.353-1.645,0.47c-0.587,0.117-1.527,0.705-1.41,1.175c0.117,0.47,1.057,1.175,1.879,0.705
	c0.823-0.47,1.175-1.41,1.175-1.41l0.705-0.47v0.94l0.705,0.235v-1.41l0.705,0.47l0.235,0.94l-0.47,0.94l-0.47,1.175
	c0,0-0.027,0.006-0.071,0.018c-0.219,0.055-0.869,0.217-0.869,0.217v0.705l0.94-0.235l0.705-0.47l1.879-1.41l-0.235-0.705
	l-0.235-1.175h1.41l1.41,0.705c0,0-0.235,1.41,0.47,1.175c0.705-0.235,0.705-1.88,1.41-2.35c0.705-0.47,0.705-1.645,0.705-1.645
	l-1.41,0.235l-0.705,1.175l0.47-3.054l1.41-0.705c0,0,1.645-2.35,2.115-2.82c0.47-0.47,0.94-1.41,0.94-1.41l-1.645,0.705
	l-1.88,1.175c0,0-0.118-0.47-0.705-0.94s-1.527-0.587-2.115-0.705c-0.587-0.118,0-2.115,0-2.115s1.058,0,1.41,0
	c0.352,0,0-0.94,0-0.94v-1.41c0,0,0.235-0.939,0.705-1.41c0.47-0.47,1.762-1.645,1.645-2.35c-0.118-0.705,0.235-1.879,0.235-1.879
	s0.47-0.47,0.94-0.705c0.47-0.235,1.527-0.353,1.879-0.47c0.353-0.118,1.41-0.47,1.41-0.47s0.235-1.645-0.94-1.41
	s-1.88-0.118-2.115,0.47s-0.47,0.47-0.94,0.235c-0.47-0.235-1.41,0.353-1.645-0.47c-0.235-0.822-0.94-1.88-1.41-2.115
	c-0.47-0.235,0,0.822,0.235,1.41c0.235,0.587,0.939,1.292,0.47,1.645s0,1.41,0,1.41s-0.118,1.058,0.47,0.94s0,1.527-0.939,1.645
	c-0.94,0.118-2.35,1.175-2.35,1.175l-0.94,0.705c0,0-0.822-0.587-0.94-1.175s0.47-1.645,0.47-1.645s-0.705-0.705-0.939-1.41
	c-0.235-0.705-0.823-0.117-0.705,0.47c0.117,0.587,0,2.35,0,2.35s-0.705,1.645-1.175,2.115c-0.47,0.47-1.058,1.41-0.47,2.115
	c0.587,0.705,0.235,2.232,0,3.29c-0.235,1.057,0.235,2.232-0.705,3.054s-1.292,1.997-1.41,2.584
	C30.663,52.75,31.016,53.572,31.016,53.572z M32.895,23.262c-0.102,0.408-0.749,1.42-0.301,1.211
	c-0.447,0.244-0.874,0.668-0.874,0.668l-0.47,0.705c0,0,3.524-1.41,3.524-2.35s-0.235-1.175-0.235-1.175s-0.587-0.822-1.175-0.47
	C32.778,22.204,33.013,22.792,32.895,23.262z M33.6,20.442l0.94,0.235c0,0,1.41-0.235,0.94-0.939c-0.47-0.705-0.94-0.705-0.94-0.705
	s0.47,0.705-0.235,0.94C33.6,20.207,33.6,20.442,33.6,20.442z M35.95,19.502c0.587,0.352,0.235-0.705,0.235-0.705l-0.705-0.235
	C35.48,18.563,35.362,19.15,35.95,19.502z M36.89,15.508c0,0-1.175,0-1.175,0.47c0,0.47-0.94,0.705-0.94,0.705s-0.47,0.47-0.47,0.94
	c0,0.47-0.47,0.705-0.47,0.705l0.94,0.235c0,0,0.235-0.353,0.705-0.47c0.47-0.117,0.235-0.94,0.235-0.94s0.118-0.352,0.705-0.705
	S36.89,15.508,36.89,15.508z M59.211,21.147c-0.705,0-0.94,0.235-0.94,0.235s-0.705-1.527-0.705-2.115s-1.645-1.41-1.645-1.41
	s-0.118-0.822-0.94-1.175s-1.175-0.118-0.705,0.235c0.47,0.353-0.235,1.175-0.235,1.175s-0.822-0.117-1.41,0.47
	s-1.175,2.584-1.175,2.584s-1.527-0.705-1.88-0.705s-0.235-1.41-0.705-1.175c-0.47,0.235-1.645-0.117-1.175-0.939
	c0.47-0.823,0.94-1.175,0-0.705c-0.939,0.47-1.645,3.054-1.645,3.054l-0.705,1.175l-0.705,1.175c0,0-0.822,0.587-0.94,1.41
	s-0.94,1.645-0.94,1.645l-0.94,0.47l-1.175-1.41c0,0-0.117-1.058,0.47-1.645s0.822-0.587,1.175-1.41
	c0.353-0.823,0.235-2.35,0.235-2.35s-0.822,0.587-1.175,1.41c-0.022,0.052-0.311,0.856-0.076,0.151s-1.488,1.163-2.039,1.493
	c-0.587,0.353-0.587,0.705-0.705,1.175c-0.117,0.47-0.705,1.763-0.939,2.35c-0.235,0.587-0.94,0.939-1.175,1.645
	c-0.235,0.705-0.705,0-0.705-0.47c0-0.47-0.705,0.47-0.47,1.175c0.235,0.705,0.587,1.057,1.41,1.41s2.584,0,3.054,0.47
	c0.47,0.47,0.587,1.645,1.175,2.115c0.587,0.47,2.115,0.47,2.115,0.47s4.464-0.587,5.169-0.47c0.705,0.118,0.94,1.41,0.47,2.115
	c-0.47,0.705,0,2.115,0,2.115s-0.235,0.822-0.705,0.94c-0.47,0.117-0.94-0.94-0.94-0.94s-1.645-0.353-2.115,0s-1.41,1.292-1.41,1.88
	s-0.94,1.175-0.94,1.175s-1.645,1.879-1.88,2.35c-0.235,0.47,0.705,1.645,0.705,1.645s1.41-0.47,1.88-0.94
	c0.47-0.47,2.114-0.235,2.114-0.235l1.175,0.705l1.174-1.175c0,0,0.235-0.94,0.705-0.94s0.47,0.94,0.47,0.94
	s-1.057,1.645-1.175,2.35c-0.117,0.705-0.352,2.937-0.235,3.524c0.118,0.587,1.645,0,1.645,0s0.939-1.057,0.47-0.94
	c-0.47,0.118-0.94-0.235-0.94-0.235l0.235-1.88l0.705-1.41l1.175-1.175v1.175l1.175,0.94c0,0,0.235-1.645,0.47-2.115
	c0.235-0.47,1.527-2.35,2.35-2.82c0.822-0.47,1.41-1.879,1.41-1.879s0.235-1.527,0-2.115s-1.41,0-1.41,0s-1.058-3.055-0.94-3.524
	c0.118-0.47,0.47-1.058,0.705-1.41c0.235-0.352,1.41-1.175,1.41-1.175s0.235-1.527,0.47-2.114s1.292-2.35,1.41-1.645
	c0.118,0.705-0.705,1.645-0.705,1.645l-0.47,2.584c0,0,0,1.41-0.235,2.115c-0.235,0.705,0.705,0,0.705,0s0.235-0.705,0.235-1.175
	c0-0.47,0-1.175,0.47-1.88c0.47-0.705,0.705-1.88,0.94-2.35s0.118-1.41,0-2.35c-0.117-0.94,0-2.232,0.235-1.41
	c0.235,0.822,0.94,1.762,0.705,1.175s0.705-2.35,0.705-2.35S59.916,21.147,59.211,21.147z M32.732,24.395
	c-0.056,0.037-0.1,0.061-0.138,0.079c0.022-0.012,0.044-0.026,0.066-0.037C32.687,24.423,33.437,23.924,32.732,24.395z
	 M56.157,14.568c0,0.31-0.065,0.096-0.127-0.174C56.106,14.388,56.157,14.433,56.157,14.568z M9.634,27.491
	c0,0,0.587-0.705,0.705-1.175c0.118-0.47-0.939,0-0.939,0v-0.705c0,0,0.822-1.292,1.645-0.47c0.822,0.822,0.705,1.645,0,2.35
	c-0.705,0.705-1.88,1.645-1.88,1.645s-1.292,1.057-1.645,1.41s-0.705-0.235-0.94-0.705c-0.235-0.47-0.353-0.705,0-1.175
	c0.353-0.47-2.35,1.175-2.35,1.175s0,0.352,0.235,1.175c0.235,0.822-0.235,0.822-0.235,1.41s-0.47,0.47-0.94,0.94
	c-0.47,0.47-1.175,1.175-1.175,1.175s-1.41,1.292-0.94,1.41c0.47,0.118,0.47,0,1.175,0c0.705,0,0.353-0.353,0.94-0.47
	c0.587-0.118,0.118-0.235,0.705-0.705c0.587-0.47,1.175-1.175,1.175-1.175l0.235,0.47c0,0-0.587,1.058-0.705,1.645
	c-0.117,0.587-0.94,1.175-0.94,1.175l-0.47,0.235l-0.94,0.94L1.41,37.83c0,0-0.589,0.935-0.878,1.754C0.183,37.642,0,35.642,0,33.6
	c0-1.656,0.122-3.283,0.353-4.874c0.176,0.41,0.352,0.645,0.352,0.645l0.47-0.47c0,0,0.235-0.822,0.47-1.41
	c0.235-0.587-0.235-0.705-0.235-0.705s0.353-0.822,0.94-1.175s1.058-0.822,1.41-0.235c0.353,0.587-0.117,0.705-0.235,1.41
	c-0.117,0.705-0.117,1.175,0,2.115c0.118,0.94,0.705,0,0.705,0s0.822-0.353,1.41-0.705s0.353-0.705,0.94-0.705s0.587-0.47,1.41-0.47
	c0.823,0,0.705,0.235,0.705,0.235L9.634,27.491z M1.175,40.649l0.47-0.47l0.705-0.47l0.705,0.47v1.645c0,0-0.587,1.058-0.705,1.645
	c-0.117,0.587-0.47,0.587-0.235,1.645c0.034,0.154,0.085,0.371,0.146,0.623c-0.604-1.559-1.094-3.174-1.462-4.835
	C1.049,40.961,1.175,40.649,1.175,40.649z"/>
</svg>
