<?xml version="1.0" encoding="iso-8859-1"?>
<!-- Generator: Adobe Illustrator 16.0.0, SVG Export Plug-In . SVG Version: 6.00 Build 0)  -->
<!DOCTYPE svg PUBLIC "-//W3C//DTD SVG 1.1//EN" "http://www.w3.org/Graphics/SVG/1.1/DTD/svg11.dtd">
<svg version="1.1" id="Layer_1" xmlns="http://www.w3.org/2000/svg" xmlns:xlink="http://www.w3.org/1999/xlink" x="0px" y="0px"
	 width="67.198px" height="40.57px" viewBox="0 0 67.198 40.57" style="enable-background:new 0 0 67.198 40.57;"
	 xml:space="preserve">
<path style="fill-rule:evenodd;clip-rule:evenodd;fill:#FFFFFF;" d="M61.571,10.552c0.015,0.024,0.032,0.047,0.046,0.072
	c0.766,1.342,0.297,3.05-1.047,3.815c-1.028,0.585-2.269,0.447-3.139-0.25c-3.996,3.266-9.028,6.809-14.74,10.31
	c-0.844,1.766-2.215,3.303-4.047,4.345c-1.827,1.039-3.843,1.435-5.79,1.263c-16.43,8.685-30.541,12.758-32.601,9.148
	c-1.019-1.785,1.088-5.146,5.394-9.256c-0.098-0.133-0.19-0.271-0.273-0.417c-1.187-2.081-0.46-4.728,1.623-5.913
	c1.757-1,3.913-0.636,5.259,0.748c3.589-2.749,7.818-5.639,12.502-8.499c0.845-1.76,2.214-3.29,4.041-4.329
	c1.831-1.042,3.853-1.437,5.803-1.262c16.32-8.591,30.295-12.602,32.344-9.011C67.962,3.097,65.86,6.451,61.571,10.552z
	 M12.415,24.582c0.188,0.214,0.357,0.45,0.503,0.707c0.083,0.145,0.153,0.292,0.217,0.441c3.048-2.307,6.715-4.812,10.815-7.358
	c0.131-0.689,0.333-1.363,0.606-2.01C20.013,19.143,15.906,21.937,12.415,24.582z M25.08,25.131
	c-1.153-2.02-1.515-4.272-1.189-6.404c-4.053,2.513-7.673,4.973-10.67,7.223c0.716,1.952-0.057,4.189-1.925,5.252
	c-1.382,0.786-3.011,0.728-4.3-0.005c-2.107,2.107-3.09,3.723-2.603,4.576c1.212,2.125,11.124-1.145,23.531-7.49
	C26.792,27.475,25.813,26.417,25.08,25.131z M28.442,28.633c-12.824,6.548-23.149,9.849-24.467,7.539
	c-0.546-0.958,0.53-2.755,2.844-5.077c-0.397-0.251-0.754-0.572-1.059-0.953c-4.079,3.855-6.086,6.968-5.159,8.593
	c1.878,3.293,15.148-0.634,30.873-8.847C30.406,29.64,29.379,29.218,28.442,28.633z M56.902,13.632
	c-0.055-0.076-0.105-0.156-0.153-0.239c-0.527-0.924-0.469-2.021,0.057-2.865c-3.287,2.796-7.819,6.063-13.143,9.431
	c0.027,1.104-0.131,2.201-0.46,3.245C48.486,19.93,53.155,16.65,56.902,13.632z M42.361,15.3c0.729,1.277,1.14,2.647,1.263,4.021
	C55.148,12.018,62.787,5.33,61.592,3.234c-1.231-2.158-11.436,1.247-24.116,7.79C39.468,11.833,41.214,13.289,42.361,15.3z
	 M66.32,1.349c-1.893-3.318-15.35,0.692-31.229,9.033c0.695,0.097,1.378,0.267,2.038,0.507C50.318,4.071,61.046,0.583,62.391,2.94
	c0.656,1.149-1.026,3.506-4.375,6.527c1.057-0.485,2.285-0.259,3.1,0.518C65.227,6.11,67.25,2.98,66.32,1.349z M10.911,19.51
	c-0.306-0.537-0.119-1.22,0.419-1.526c0.538-0.306,1.222-0.119,1.528,0.418c0.306,0.537,0.119,1.22-0.419,1.526
	C11.901,20.234,11.217,20.047,10.911,19.51z"/>
</svg>
