<?xml version="1.0" encoding="iso-8859-1"?>
<!-- Generator: Adobe Illustrator 16.0.0, SVG Export Plug-In . SVG Version: 6.00 Build 0)  -->
<!DOCTYPE svg PUBLIC "-//W3C//DTD SVG 1.1//EN" "http://www.w3.org/Graphics/SVG/1.1/DTD/svg11.dtd">
<svg version="1.1" id="Layer_1" xmlns="http://www.w3.org/2000/svg" xmlns:xlink="http://www.w3.org/1999/xlink" x="0px" y="0px"
	 width="46.32px" height="67.2px" viewBox="0 0 46.32 67.2" style="enable-background:new 0 0 46.32 67.2;" xml:space="preserve">
<path style="fill-rule:evenodd;clip-rule:evenodd;fill:#FFFFFF;" d="M46.32,44.037C46.32,56.83,35.951,67.2,23.16,67.2
	S0,56.83,0,44.037c0-3.715,0.879-7.223,2.434-10.335c-0.257-1.31-0.397-2.662-0.397-4.047c0-10.311,7.432-18.88,17.229-20.656
	c-0.897-0.956-1.45-2.239-1.45-3.653C17.815,2.393,20.208,0,23.16,0s5.345,2.393,5.345,5.346c0,1.433-0.567,2.732-1.486,3.692
	C36.708,10.901,44.03,19.42,44.03,29.655c0,1.257-0.117,2.486-0.33,3.683C45.371,36.539,46.32,40.176,46.32,44.037z M23.288,65.927
	c10.05,0,18.197-8.148,18.197-18.2c0-10.052-8.147-18.2-18.197-18.2c-10.05,0-18.197,8.148-18.197,18.2
	C5.09,57.779,13.237,65.927,23.288,65.927z M22.906,14.254c-10.391,0-18.912,7.987-19.774,18.156
	c4.011-6.897,11.476-11.538,20.029-11.538c8.13,0,15.276,4.193,19.409,10.531C41.249,21.719,32.951,14.254,22.906,14.254z"/>
</svg>
