<?xml version="1.0" encoding="iso-8859-1"?>
<!-- Generator: Adobe Illustrator 16.0.0, SVG Export Plug-In . SVG Version: 6.00 Build 0)  -->
<!DOCTYPE svg PUBLIC "-//W3C//DTD SVG 1.1//EN" "http://www.w3.org/Graphics/SVG/1.1/DTD/svg11.dtd">
<svg version="1.1" id="Layer_1" xmlns="http://www.w3.org/2000/svg" xmlns:xlink="http://www.w3.org/1999/xlink" x="0px" y="0px"
	 width="69.6px" height="69.6px" viewBox="0 0 69.6 69.6" style="enable-background:new 0 0 69.6 69.6;" xml:space="preserve">
<path style="fill-rule:evenodd;clip-rule:evenodd;fill:#FFFFFF;" d="M39.09,43.857c-0.013,0.01-0.026,0.021-0.04,0.032
	c-3.585,0.343-6.396,3.559-6.396,7.476c0,4.146,3.148,7.508,7.032,7.508c1.938,0,3.689-0.842,4.961-2.197
	c-10.673,2.027-10.498-7.695-6.987-9.959c6.114-3.941,10.369-8.223,13.11-12.395c1.847,1.028,2.704,1.616,4.291,2.622
	c-3.099,6.078-10.101,10.304-13.825,12.156c-2.874,1.429-1.185,4.789,3.099,3.575c8.489-2.407,16.878-9.117,19.545-12.395
	c1.192,0.477,1.997,0.529,4.291,1.192c-0.833,1.979-8.675,9.874-18.355,13.663c-1.887,5.767-7.307,9.935-13.704,9.935
	c-7.964,0-14.421-6.457-14.421-14.42c0-7.964,6.457-14.421,14.421-14.421c3.135,0,6.035,1.004,8.401,2.704
	C43.535,40.276,40.964,42.484,39.09,43.857z M25.027,65.905c0,2.041-1.654,3.695-3.694,3.695s-3.694-1.654-3.694-3.695
	c0-2.04,1.654-3.694,3.694-3.694S25.027,63.865,25.027,65.905z M7.247,45.999c-0.032,0-0.063,0.004-0.096,0.004
	C3.202,46.003,0,42.801,0,38.852s3.202-7.151,7.151-7.151s7.15,3.202,7.15,7.151c0,2.002-0.823,3.811-2.149,5.109
	c-1.274-0.706-2.361-1.586-3.113-2.644c-0.136-1.12-1.089-1.989-2.246-1.989c-1.25,0-2.264,1.014-2.264,2.265
	c0,1.039,0.7,1.912,1.654,2.179c-0.17-0.438-0.328-0.884-0.462-1.345c-0.686-1.355,0.715-2.907,1.907-1.907
	c1.756,2.238,5.879,6.833,12.156,7.151c-0.263,1.355-0.397,2.304-0.238,3.099c-2.811-0.814-8.009-3.465-11.203-6.913
	c-0.934-1.008-1.49-1.251-0.954-0.238c0.536,1.013,4.648,6.913,12.395,9.772c0.179,1.062,0.596,2.682,1.192,3.814
	C18.124,55.9,10.887,52.389,7.247,45.999z M2.622,32.178c-0.238-1.549,0.22-3.948,0.953-6.674c-0.298,1.311-0.179,4.231,0.239,5.959
	C3.434,31.62,3.017,31.735,2.622,32.178z M69.6,38.482C51.548,35.934,37.66,20.424,37.66,1.668c0-0.559,0.015-1.115,0.039-1.668
	H69.6V38.482z"/>
</svg>
