<?xml version="1.0" encoding="iso-8859-1"?>
<!-- Generator: Adobe Illustrator 16.0.0, SVG Export Plug-In . SVG Version: 6.00 Build 0)  -->
<!DOCTYPE svg PUBLIC "-//W3C//DTD SVG 1.1//EN" "http://www.w3.org/Graphics/SVG/1.1/DTD/svg11.dtd">
<svg version="1.1" id="Layer_1" xmlns="http://www.w3.org/2000/svg" xmlns:xlink="http://www.w3.org/1999/xlink" x="0px" y="0px"
	 width="67.2px" height="45.358px" viewBox="0 0 67.2 45.358" style="enable-background:new 0 0 67.2 45.358;" xml:space="preserve"
	>
<path style="fill-rule:evenodd;clip-rule:evenodd;fill:#FFFFFF;" d="M62.277,27.321c-2.204,0-4.069-1.445-4.697-3.438H47.379l0,0
	c-0.017,0.115-0.039,0.228-0.059,0.341c-0.012,0.067-0.023,0.134-0.036,0.201c-0.021,0.106-0.045,0.21-0.069,0.315
	c-0.017,0.073-0.032,0.146-0.05,0.217c-0.025,0.102-0.053,0.202-0.082,0.303c-0.021,0.074-0.041,0.147-0.063,0.221
	c-0.03,0.098-0.062,0.196-0.093,0.293c-0.024,0.073-0.049,0.146-0.075,0.219c-0.034,0.096-0.069,0.191-0.105,0.286
	c-0.028,0.072-0.056,0.145-0.085,0.216c-0.038,0.093-0.077,0.186-0.117,0.278c-0.031,0.071-0.063,0.141-0.096,0.211
	c-0.042,0.091-0.084,0.182-0.128,0.272c-0.034,0.069-0.07,0.137-0.105,0.205c-0.046,0.089-0.092,0.178-0.141,0.266
	c-0.037,0.066-0.075,0.131-0.113,0.196c-0.051,0.087-0.101,0.176-0.154,0.262c-0.036,0.059-0.075,0.116-0.112,0.175
	c-0.112,0.176-0.229,0.348-0.351,0.518c-0.039,0.053-0.075,0.108-0.115,0.161c-0.057,0.076-0.116,0.15-0.175,0.225
	c-0.05,0.064-0.1,0.13-0.152,0.193c-0.058,0.071-0.119,0.14-0.179,0.21c-0.055,0.064-0.11,0.129-0.167,0.192
	c-0.061,0.067-0.123,0.133-0.185,0.199c-0.059,0.063-0.119,0.126-0.179,0.188c-0.063,0.064-0.126,0.126-0.19,0.188
	c-0.063,0.061-0.127,0.122-0.191,0.182c-0.064,0.06-0.13,0.119-0.196,0.177c-0.067,0.06-0.135,0.118-0.203,0.176
	c-0.066,0.056-0.133,0.112-0.2,0.166c-0.071,0.058-0.144,0.114-0.217,0.17c-0.067,0.052-0.134,0.104-0.202,0.153
	c-0.077,0.057-0.156,0.111-0.234,0.166c-0.067,0.046-0.133,0.094-0.2,0.139c-0.086,0.058-0.174,0.112-0.262,0.167
	c-0.062,0.039-0.124,0.08-0.187,0.118c-0.118,0.071-0.238,0.139-0.359,0.206c-0.045,0.025-0.089,0.05-0.134,0.075
	c-0.145,0.078-0.291,0.153-0.439,0.225c-0.059,0.028-0.119,0.054-0.178,0.082c-0.104,0.048-0.207,0.096-0.312,0.141
	c-0.068,0.029-0.137,0.056-0.206,0.084c-0.098,0.04-0.197,0.079-0.296,0.116c-0.072,0.027-0.146,0.052-0.219,0.078
	c-0.098,0.034-0.196,0.068-0.295,0.099c-0.075,0.024-0.151,0.047-0.227,0.069c-0.099,0.03-0.199,0.058-0.299,0.085
	c-0.077,0.021-0.154,0.04-0.232,0.059c-0.101,0.025-0.203,0.048-0.306,0.07c-0.078,0.017-0.155,0.034-0.233,0.049
	c-0.105,0.021-0.211,0.039-0.317,0.057c-0.077,0.013-0.153,0.026-0.23,0.037c-0.111,0.016-0.224,0.029-0.335,0.042
	c-0.073,0.009-0.146,0.018-0.22,0.025c-0.125,0.012-0.25,0.021-0.376,0.028c-0.062,0.004-0.124,0.01-0.187,0.013
	c-0.189,0.009-0.379,0.014-0.57,0.014c-0.572,0-1.134-0.042-1.684-0.122c-6.889,7.808-12.544,12.676-13.879,11.636
	c-1.275-0.994,1.739-7.105,7.178-15.106c-1.598-1.677-2.697-3.832-3.056-6.229H16.08c-0.737,3.505-3.854,6.138-7.588,6.138
	c-4.282,0-7.753-3.463-7.753-7.734c0-0.309,0.02-0.613,0.056-0.913C0.304,20.886,0,20.211,0,19.464c0-1.492,1.212-2.701,2.708-2.701
	c0.114,0,0.226,0.009,0.336,0.023c1.4-1.38,3.324-2.232,5.448-2.232c3.646,0,6.703,2.51,7.531,5.892h8.474
	c0.833-5.558,5.637-9.821,11.441-9.821c2.035,0,3.947,0.526,5.608,1.446c7.006-7.98,12.788-12.986,14.14-11.932
	c1.412,1.1-2.435,8.472-9.006,17.736c0.244,0.606,0.438,1.238,0.576,1.89c0.007,0.032,0.012,0.065,0.019,0.097
	c0.036,0.177,0.069,0.356,0.097,0.536c0.002,0.016,0.006,0.031,0.008,0.047h10.387c0.76-1.733,2.493-2.946,4.511-2.946
	c2.719,0,4.923,2.199,4.923,4.911S64.996,27.321,62.277,27.321z M5.532,17.032c-0.511-0.215-1.077-0.193-1.62,0.016
	c0.891,0.442,1.504,1.357,1.504,2.417c0,1.492-1.212,2.701-2.708,2.701c-0.382,0-0.745-0.08-1.075-0.222
	c0.209,0.66,0.625,1.183,1.217,1.432c1.303,0.548,2.96-0.428,3.7-2.179C7.291,19.443,6.834,17.58,5.532,17.032z M25.075,39.249
	c0.821,0.642,3.871-1.773,7.812-5.956c-1.137-0.31-2.207-0.782-3.176-1.4c0.403-3.089,1.735-5.584,3.027-8.008
	c0.285-0.535,0.634-1.122,1.039-1.733C27.23,30.808,23.835,38.279,25.075,39.249z M50.987,6.064
	c-1.229-0.96-8.315,5.023-15.14,13.444c0.475-0.513,0.997-1.022,1.569-1.517c2.461-2.128,4.262-3.331,6.301-4.369
	c0.95,0.861,1.752,1.879,2.374,3.01C49.845,11.016,51.893,6.772,50.987,6.064z"/>
</svg>
