<?xml version="1.0" encoding="iso-8859-1"?>
<!-- Generator: Adobe Illustrator 16.0.0, SVG Export Plug-In . SVG Version: 6.00 Build 0)  -->
<!DOCTYPE svg PUBLIC "-//W3C//DTD SVG 1.1//EN" "http://www.w3.org/Graphics/SVG/1.1/DTD/svg11.dtd">
<svg version="1.1" id="Layer_1" xmlns="http://www.w3.org/2000/svg" xmlns:xlink="http://www.w3.org/1999/xlink" x="0px" y="0px"
	 width="71.757px" height="72px" viewBox="0 0 71.757 72" style="enable-background:new 0 0 71.757 72;" xml:space="preserve">
<path style="fill-rule:evenodd;clip-rule:evenodd;fill:#FFFFFF;" d="M71.757,72H58.708c0.084-0.078,0.17-0.152,0.254-0.232
	c6.03-5.707,7.41-14.052,3.081-18.641s-12.726-3.682-18.756,2.025C37.977,60.178,36.275,67.249,38.901,72H13.247
	c2.274-2.229,4.21-5.21,5.642-7.428c4.146,0.559,7.177-3.928,8.373-6.708c-4.067,6.469-8.069,5.431-8.852,4.552
	c-3.429,5.29-6.681,8.686-9.3,9.584H6.591c-1.475-0.724-1.378-2.957-0.86-5.032C5.083,67.935,4.493,70.13,4.571,72H0
	C14.592,40.289,40.127,14.67,71.757,0V72z M25.847,51.785c-1.184-0.85-3.596,0.479-5.485,2.977c0.219-1.124,0.107-1.956-0.397-2.332
	c-1.415-1.054-5.368,1.87-8.83,6.531c-3.461,4.661-5.121,9.294-3.706,10.348s5.368-1.87,8.83-6.531
	c0.758-1.021,1.43-2.04,2.001-3.021c-0.019,0.776,0.19,1.387,0.649,1.717c1.227,0.881,3.774-0.574,5.69-3.25
	C26.515,55.549,27.074,52.666,25.847,51.785z M33.003,38.935c-1.834,3.274-1.994,9.504,6.698,8.625
	c8.692-0.878,14.832-7.108,19.616-12.459c-4.595,4.278-11.243,9.344-19.855,10.542C30.85,46.841,33.018,40.133,33.003,38.935z
	 M46.907,23.337c-8.414,6.825-13.272,14.783-10.853,17.776c2.42,2.993,11.202-0.113,19.616-6.938
	c8.414-6.824,13.272-14.783,10.853-17.775C64.103,13.407,55.32,16.513,46.907,23.337z M61.949,56.186
	c1.418,5.311,0.957,10.422-5.742,15.574c-2.706,0-5.741,0-8.133,0C54.055,69.364,60.274,66.249,61.949,56.186z"/>
</svg>
