<?xml version="1.0" encoding="iso-8859-1"?>
<!-- Generator: Adobe Illustrator 16.0.0, SVG Export Plug-In . SVG Version: 6.00 Build 0)  -->
<!DOCTYPE svg PUBLIC "-//W3C//DTD SVG 1.1//EN" "http://www.w3.org/Graphics/SVG/1.1/DTD/svg11.dtd">
<svg version="1.1" id="Layer_1" xmlns="http://www.w3.org/2000/svg" xmlns:xlink="http://www.w3.org/1999/xlink" x="0px" y="0px"
	 width="67.2px" height="67.2px" viewBox="0 0 67.2 67.2" style="enable-background:new 0 0 67.2 67.2;" xml:space="preserve">
<path style="fill-rule:evenodd;clip-rule:evenodd;fill:#FFFFFF;" d="M33.6,67.2C15.043,67.2,0,52.157,0,33.6S15.043,0,33.6,0
	s33.6,15.043,33.6,33.6S52.157,67.2,33.6,67.2z M5.572,42.989c-1.95,1.603-1.196,5.741,1.683,9.245
	c2.879,3.503,6.793,5.044,8.743,3.442c1.95-1.603,1.196-5.741-1.683-9.245C11.436,42.928,7.521,41.387,5.572,42.989z M16.913,10.169
	c-1.166-1.233-4.063-0.387-6.471,1.889c-2.408,2.276-3.415,5.121-2.25,6.354c1.166,1.233,4.063,0.387,6.471-1.889
	C17.071,14.248,18.078,11.402,16.913,10.169z M23.916,5.922c-0.435-0.837-1.866-0.957-3.197-0.266
	c-1.331,0.69-2.057,1.929-1.623,2.767c0.435,0.838,1.866,0.957,3.196,0.266C23.624,7.998,24.35,6.759,23.916,5.922z M25.413,18.235
	c-6.306-2.243-13.431,1.604-15.917,8.592c-2.485,6.987,0.612,14.47,6.917,16.712c4.45,1.583,9.308,0.129,12.655-3.318
	c-0.009,0.108-0.017,0.216-0.017,0.327c0,2.163,1.753,3.916,3.916,3.916s3.916-1.753,3.916-3.916s-1.753-3.916-3.916-3.916
	c-0.537,0-1.048,0.108-1.514,0.304c0.333-0.63,0.629-1.293,0.876-1.989C34.815,27.96,31.718,20.478,25.413,18.235z M38.528,2.628
	c-2.558-0.354-4.8,0.567-5.006,2.058c-0.207,1.491,1.699,2.987,4.258,3.342c2.558,0.354,4.8-0.567,5.006-2.058
	C42.993,4.479,41.086,2.983,38.528,2.628z M40.896,10.08c-4.631-1.048-9.046,1.023-9.861,4.625c-0.815,3.602,2.278,7.372,6.909,8.42
	c4.63,1.048,9.045-1.022,9.86-4.625S45.527,11.128,40.896,10.08z M54.971,15.17c-1.747,0.791-1.977,4.052-0.513,7.285
	c1.463,3.233,4.065,5.213,5.812,4.422s1.977-4.052,0.513-7.285C59.319,16.36,56.717,14.38,54.971,15.17z M42.113,14.151
	c-1.674,0.08-2.997,1.218-2.955,2.542s1.434,2.332,3.107,2.252c1.47-0.07,2.668-0.956,2.911-2.067
	c0.006,0.066,0.018,0.131,0.02,0.198c0.081,2.44-2.463,4.539-5.683,4.686c-3.22,0.147-5.895-1.712-5.976-4.152
	c-0.081-2.441,2.463-4.539,5.683-4.686c2.002-0.091,3.794,0.594,4.882,1.712C43.56,14.301,42.866,14.116,42.113,14.151z"/>
</svg>
