<?xml version="1.0" encoding="iso-8859-1"?>
<!-- Generator: Adobe Illustrator 16.0.0, SVG Export Plug-In . SVG Version: 6.00 Build 0)  -->
<!DOCTYPE svg PUBLIC "-//W3C//DTD SVG 1.1//EN" "http://www.w3.org/Graphics/SVG/1.1/DTD/svg11.dtd">
<svg version="1.1" id="Layer_1" xmlns="http://www.w3.org/2000/svg" xmlns:xlink="http://www.w3.org/1999/xlink" x="0px" y="0px"
	 width="67.199px" height="63.604px" viewBox="0 0 67.199 63.604" style="enable-background:new 0 0 67.199 63.604;"
	 xml:space="preserve">
<path style="fill-rule:evenodd;clip-rule:evenodd;fill:#FFFFFF;" d="M42.887,38.952c0.058,0.59,0.117,1.711-0.468,1.889
	c-0.584,0.177-0.935,0.472-0.935,0.472s0.059,0.708-0.467,0.944c-0.526,0.236-0.701-0.236-0.701-0.236s-0.643-0.413-0.935-0.708
	c-0.292-0.295-0.526-0.354-0.702,0.236c-0.175,0.59-0.876,0.59-1.168,1.181c-0.292,0.59-0.936,0.885-1.169,0.472
	c-0.234-0.414-0.234-0.177-0.935-0.236s-0.117-0.649-0.468-0.708s-0.701,0.531-0.935,0c-0.233-0.531,0.409-0.59,0.234-0.944
	s-0.409-0.354-0.467-0.944c-0.059-0.59,0.643-0.826,1.168-0.708c0.526,0.118,0.234-0.708,0.234-0.708s0.409-2.184,0.468-3.305
	c0.058-1.121,0.584-1.003,0.701-1.652c0.117-0.649,0.643-0.885,1.169-0.708c0.409-0.31,26.32-23.641,28.519-25.732
	c0.643,1.18,0.234,2.597,0.234,2.597S44.845,36.458,42.887,38.952z M33.303,32.342c0.117,1.417,0.526,2.184,0,2.833
	c-0.526,0.649-0.292,0.354-0.467,1.653c-0.175,1.298-1.169,1.947-1.87,2.125c-0.702,0.177-0.676,0.41-0.935,0.944
	c-0.117,0.708-0.292,1.771-0.468,2.361c-0.175,0.59-1.344,1.062-1.87,0.944c-0.526-0.118-0.482-0.365-0.701,0.472
	c-0.117,1.357-0.526,0.649-0.468,1.652c0.059,1.003-0.292,1.357-0.467,1.652c-0.175,0.295-0.76,1.181,0,1.417
	c0.76,0.236,1.318,1.291,2.571,2.833c-0.117,0.472-0.522,0.292-0.701,0.472c0.643,0.59,0.643,1.328,0.234,2.361
	c-0.877,0-2.9,1.664-4.208,2.125c-1.052-0.118-0.701,0.354-1.636,0.472s-2.571-0.118-3.273-0.472
	c-0.701-0.354-1.121-1.483-1.168-2.361c1.344-1.417,1.578-0.708,1.87-0.708c0.292,0,0.467-0.236,1.168-1.653
	c0.702-1.417,1.228-0.767,1.403-1.417c0.175-0.649,0.876-1.416,1.402-1.652c0.526-0.236,0.117-1.534-0.233-3.069
	c-0.307-1.344-0.614-2.688-0.686-3.001c-0.007-0.093-0.016-0.068-0.016-0.068s0.006,0.024,0.016,0.068
	c0.012,0.153,0.021,0.625-0.016,2.057c-0.058,2.302-0.409,2.302-1.168,3.069c-0.76,0.768-1.461,1.83-2.104,2.833
	c-0.643,1.003-0.935,0.472-1.636,0.944c-0.702,0.472-1.169,0.059-1.87,0c-0.702-0.059-1.871,0.236-2.805,0.944
	c-0.935,0.708-1.531,0.542-1.87-0.236c-0.468,0-0.442,0.085-0.935-0.236c-2.513-2.125-2.572-5.489-2.338-6.138
	c0.234-0.649,0.946-1.597,0.935-2.833c-0.409,0-0.467-0.826-0.234-1.417c0.234-0.59,0.877-1.239,1.403-2.833
	c0.526-1.593,1.498-1.892,2.805-2.597c0.526-0.826,1.227-1.003,2.337-2.361c1.111-1.357,1.111-4.544,1.403-5.194
	c0.292-0.649,0.76-1.534,1.636-1.652s1.169-0.177,2.338-0.708c1.168-0.531,1.694-0.236,3.039-0.472
	C23.97,26.149,58.717,5.525,63.926,2.36c1.929,0.472,1.87,2.597,1.87,2.597S36.221,29.561,33.303,32.342z M20.658,19.81
	c-0.56,0.302-1.116,0.603-1.662,0.902c-2.436,0.891-4.796,2.22-6.951,4.004c-9.17,7.591-11.168,20.436-4.463,28.69
	s19.575,8.792,28.744,1.201c2.454-2.031,4.389-4.441,5.786-7.036c1.186-1.749,3.851-5.569,6.903-9.878
	c-0.002,0.048-0.008,0.096-0.01,0.144L67.199,12.04L46.394,47.923l-0.025-0.032c-1.688,3.45-4.157,6.659-7.374,9.323
	c-10.931,9.053-26.273,8.411-34.266-1.433c-7.993-9.844-5.611-25.163,5.32-34.215c2.377-1.968,4.964-3.47,7.637-4.526l-0.044-0.042
	L58.315,0L20.68,19.83L20.658,19.81z M21.848,8.971C25.647,7.908,48.03,2.125,48.03,2.125S19.529,12.563,18.342,12.984
	C17.812,12.207,18.05,10.033,21.848,8.971z"/>
</svg>
