<?xml version="1.0" encoding="iso-8859-1"?>
<!-- Generator: Adobe Illustrator 16.0.0, SVG Export Plug-In . SVG Version: 6.00 Build 0)  -->
<!DOCTYPE svg PUBLIC "-//W3C//DTD SVG 1.1//EN" "http://www.w3.org/Graphics/SVG/1.1/DTD/svg11.dtd">
<svg version="1.1" id="Layer_1" xmlns="http://www.w3.org/2000/svg" xmlns:xlink="http://www.w3.org/1999/xlink" x="0px" y="0px"
	 width="67.2px" height="66.958px" viewBox="0 0 67.2 66.958" style="enable-background:new 0 0 67.2 66.958;" xml:space="preserve"
	>
<path style="fill-rule:evenodd;clip-rule:evenodd;fill:#FFFFFF;" d="M66.724,15.975l-0.953,0.714h-0.715l-1.43,0.715l-0.009-0.032
	c-0.001,0.014-0.002,0.027-0.003,0.041l-1.656,1.183h-1.906l-3.098-1.668l0.238,0.715l2.145,1.667l0.953,0.715v0.715l1.906-0.477
	l0.715,0.477l0.254-0.127c-0.834,4.286-2.624,8.967-5.284,13.704l0.026-0.235l-0.715-1.906l-1.906-1.43l-1.906,0.953l-3.336-0.477
	l-1.191,0.238l3.336,1.906l2.383-0.238L56,34.796l0.715,0.238l0.166,0.664c0.035,0.006,0.062,0.02,0.072,0.051
	c0.238,0.715,0.318,1.588,0.238,1.906c-0.079,0.317,0,0.238,0,0.238l-0.238,1.667c0,0,0.397,1.191,0,1.906
	c-0.397,0.715-0.079,2.224-0.477,2.382c-0.397,0.159-2.145,1.43-2.145,1.43s-1.35,1.827-2.145,2.144
	c-0.794,0.318-1.668-0.238-1.668-0.238h-0.953l-0.238,0.477l-0.715-0.477h-0.138c-0.01,0.011-0.02,0.022-0.03,0.034l-2.215,0.443
	l-0.953-0.238l-1.43,0.477l-1.43-1.429l-0.715-0.953l-0.238-1.668l-0.238-1.191l-0.477-1.191l2.145-2.859l0.238-1.906v-1.429
	l-1.43,3.335l-2.383,2.383v3.097l0.238,0.715l0.238,2.621l2.145,1.906l1.191-0.238l2.145,0.714h0.674
	c-2.781,2.752-5.672,5.171-8.584,7.238l0.046-0.091l-1.668-1.191l-0.953,0.238l-1.43-0.953l-1.668-0.238l1.906,1.43l1.191,1.191
	l0.617,0.529l0.098-0.052l0.953,1.191l1.192,0.477l1.43,0.477l1.191,2.144l-0.715,1.429l-1.43,1.191h-1.191l-0.239-0.715
	l-0.715,0.477l-1.43-0.238l-1.668,0.238l-1.43,0.953l-1.668,0.238l-0.715-0.476l-0.715,0.476l-2.621-0.238l-0.715-1.191
	l-0.212-0.636c-0.008,0.003-0.018,0.006-0.026,0.009v-1.517h-0.715l-0.477-1.906l-0.238-1.429l1.43-2.144l-0.238-0.477l0.953-1.667
	l-2.86,3.335l-0.953,1.668l0.953,3.097l-0.477,1.667l0.093,0.139c-1.03,0.268-2.038,0.473-3.023,0.621l-0.167,0.669l-0.477,0.477
	l-0.477-0.477l-0.128-0.513c-0.021,0.002-0.044,0.005-0.065,0.007c-0.013-0.064-0.027-0.133-0.044-0.209
	c-0.238-1.033-0.953-1.906-0.953-1.906l0.715-2.382v-0.953h0.715l1.43-0.477v-0.953l0.238-0.953l-0.953-0.714l-1.191,0.714h-1.192
	l-0.238,0.715l-0.715,1.191l0.715,0.953l-0.477,2.145l0.477,1.191l0.18,1.625l0.058,0.043v1.191l-0.953,0.238l-0.477-0.477
	l-0.477,0.715l-1.43-0.477l-0.715-0.953l-0.208-0.519c-1.544-0.324-2.958-0.878-4.207-1.677l-0.352,0.527l-0.715,1.906l-0.953,0.477
	l-0.477-0.714l-0.715,0.476H4.051L3.575,66.72l-1.191-0.238L1.43,65.767l-0.238-0.714l-0.953-0.715L0,62.67l0.953-1.191l0.715,0.238
	l0.954-0.715l1.191,0.238l0.477,0.715l0.953,0.477l0.477-0.238l1.247,0.208c-0.1-0.085-0.2-0.169-0.297-0.258
	c-3.619-3.341-4.706-8.826-3.583-15.259l-0.703-0.176l-0.715-0.476L1.43,45.04l1.668-2.859l1.191-0.238l-0.053,0.278
	c0.458-1.457,1.011-2.943,1.661-4.45L5.481,36.94l0.477-0.715l0.238-1.191l1.191-0.715v0.291c2.585-5.063,6.185-10.245,10.688-15.12
	c0.433-0.469,0.87-0.929,1.309-1.381l-0.559,0.249v-1.43l0.953-0.715l1.906-0.476l-0.075,0.175
	C33.535,4.633,47.221-0.69,55.762,2.38V1.204L56,0.489c0,0,0.794-0.397,1.191-0.477c0.397-0.079,1.907,0.238,1.907,0.238
	s0.874,0.159,0.953,0.715c0.079,0.556-0.477,1.191-0.477,1.191s0.079,0.874-0.477,0.714c-0.556-0.159-1.033,0-1.191,0.477
	c-0.005,0.015-0.017,0.023-0.026,0.035c0.647,0.389,1.258,0.833,1.817,1.35c0.909,0.839,1.654,1.816,2.248,2.906l-1.418,0.237
	l-0.477,0.476h-0.953l-2.383,2.145v1.429l0.715,1.43l-0.238-1.191l1.43-1.43l1.43-1.667l2.168,0.197l-0.024-0.197h0.375
	l-0.575-1.342c0.229,0.429,0.433,0.878,0.616,1.342h0.538l0.953,1.191l0.715-0.238l0.477,0.477l1.192,0.477v2.144l-0.238,1.429
	l0.715,0.715L66.724,15.975z M44.324,26.219c0.596,0.477,1.311,1.072,2.383,0.953c1.072-0.119,1.072-1.072,1.43-1.906
	c0.357-0.833,3.314-6.254,3.098-9.291c-0.625-8.796-5.838-8.1-8.817-6.909c11.379-1.422,5.697,12.083,3.813,14.533
	c-0.596,0-0.715-0.119-1.191,0.714C44.562,25.147,43.728,25.743,44.324,26.219z M39.319,31.699h0.715l0.715-0.477v-0.953
	l-0.477-0.476l-0.953,0.714V31.699z M30.264,48.375h1.43l0.477-0.477l0.715,0.715l0.715-1.43v-0.953l0.953-1.43l0.953-0.238
	l-1.43-1.906h-0.953l-0.477-0.477l-0.715,0.715l-0.715,0.238l-2.145,3.097L30.264,48.375z M19.302,52.425l1.668,0.238l0.477,0.953
	v-0.953l0.477-0.714l0.238-0.715l0.477-0.715l-1.191-1.429l-1.43,0.714l-0.238,1.191l-0.477,0.238V52.425z M16.919,48.375
	l0.238,0.715l0.715-0.715l0.477-0.477l-0.715-0.715l-0.477,0.238h-0.477l-0.238,0.477L16.919,48.375z M9.771,47.899l-0.477-1.191
	l-1.191,1.43l0.477,0.238l0.238,0.715l1.192-0.238l0.477-0.477L9.771,47.899z M10.247,57.19c-0.715-0.596-0.834-0.596-0.715-2.145
	c-0.611-1.064-0.954-1.429-1.907-2.621c-0.953-1.191-2.628-3.194-0.238-10.959c-1.549,3.335-2.979,9.53-1.906,13.341
	c0.387,1.191,0.953,1.311,0.715,2.145c-0.238,0.833-0.119,2.144,0.715,2.382s1.191,0.596,1.668,1.191
	c0.477,0.596,1.668,0.238,2.622,0s0.357-0.833,1.43-1.667s1.43-0.953,0.715-1.43c-0.715-0.476-1.191-0.119-1.668-0.714
	S10.962,57.786,10.247,57.19z M13.702,28.84c-0.855,0-1.549,0.693-1.549,1.548c0,0.855,0.693,1.549,1.549,1.549
	s1.549-0.693,1.549-1.549C15.251,29.533,14.558,28.84,13.702,28.84z M36.794,12.637l-0.096,0.479l-0.477,1.191h-0.477l-0.715,0.238
	v0.715l-0.715,0.477l-0.477-0.477h-1.191l-0.242-0.242c-1.953,1.28-4.024,2.894-6.103,4.749l0.388,0.258l0.477,0.953l-1.191,0.953
	l-1.43-0.238h-0.316c-0.577,0.558-1.15,1.133-1.72,1.722l0.368,0.184l1.192,0.238l0.238,0.476l-0.953,0.953L22.4,26.219
	l-0.953-0.238l-0.477-0.238l-0.477,0.477l-1.191,1.429h-0.578c-0.208,0.253-0.413,0.506-0.613,0.758v0.91v0.715l0.477,0.953
	l-0.715,0.715v0.715l-0.477,0.714l-0.238,0.715l-0.953-0.238l-0.477,0.477l-0.954,0.238l-1.191,1.191l-0.162-0.082
	c-0.555,1.048-1.007,2.047-1.36,2.989l0.569,0.189l0.477,0.477l0.238-0.715l1.668,0.238l0.477,0.715l-0.715,0.953l0.477,0.953
	l-0.477,0.953h-0.953l-0.477-0.715l-0.238-0.953l-0.477,0.714l-0.715,0.953l-0.618,1.44c0.145,0.666,0.426,1.225,0.856,1.657
	c2.339,2.356,7.905,0.859,13.712-3.045l-0.129-0.052l0.477-1.429l-0.238-0.715l1.43-0.953l0.953,0.238l0.953,0.238l-0.186,0.241
	c1.876-1.54,3.72-3.304,5.428-5.244h-0.238c0,0-0.556-1.112-0.477-1.668c0.08-0.556-0.477-0.714-0.477-0.714v-1.43l0.953-0.953
	l0.715,0.476l0.715,0.953l0.477,0.238l0.699,0.233c0.259-0.335,0.513-0.669,0.76-1.003c0.011-0.058,0.012-0.176-0.029-0.421
	c-0.08-0.476,0-1.191,0-1.191l0.238-1.43l0.715-0.953l1.43-0.477l0.953-0.715v0.081c1.152-2.072,2.011-4.048,2.522-5.828
	l-0.14-0.209l-0.715-0.953v-0.715l0.477-0.715l-0.238-0.714l0.477-0.477l0.637-0.637c-0.165-1.269-0.68-2.278-1.59-2.937
	C41.167,11.495,39.187,11.66,36.794,12.637z M45.039,4.063l-1.192,0.715l-1.43,0.476l-0.238,0.715l1.906-0.477h1.43l0.238-0.953
	L45.039,4.063z M50.519,5.016l-0.715-0.238l-0.238,0.714l-0.953,0.715l0.238,0.715h1.668l0.953,0.953l-0.238-1.191l0.477-0.953
	l0.715-0.477L50.519,5.016z M54.332,11.687l-0.715,0.238l-0.477-0.477v1.191l-0.715,0.715l0.953,0.476l0.953,0.477l0.477-1.429
	h0.715L54.332,11.687z M55.047,21.693v1.906l-0.238,1.191h0.477l0.477,1.43l0.477-0.238l0.477,0.477l0.477-0.238l0.954,0.238
	l-0.238-1.668l0.715-1.191v-1.43l-0.954-0.714V20.74L55.047,21.693z M39.438,16.689c-0.592,0-1.072-0.48-1.072-1.072
	c0-0.592,0.48-1.072,1.072-1.072s1.072,0.48,1.072,1.072C40.511,16.209,40.031,16.689,39.438,16.689z M28.715,33.366
	c-2.171,0-3.932-1.76-3.932-3.931s1.76-3.931,3.932-3.931c2.172,0,3.932,1.76,3.932,3.931S30.887,33.366,28.715,33.366z
	 M35.983,5.016V3.825l0.715-0.953l1.192-0.238h0.953v0.715l-1.906,1.668H35.983z M25.021,8.351c-0.658,0-1.191-0.533-1.191-1.191
	s0.533-1.191,1.191-1.191c0.658,0,1.191,0.534,1.191,1.191S25.679,8.351,25.021,8.351z M10.724,24.79l-0.953,2.145l-0.715,0.238
	l-0.477-0.715l-0.477,0.238l-0.477-0.715l0.238-1.429l0.477-1.906l2.622-0.953l1.43,1.667v1.191l-0.715-0.239L10.724,24.79z
	 M46.945,60.764l0.238-1.191l0.715-0.477l0.238-2.144l0.238-1.43l0.477-0.715l-0.477-0.238l0.953-0.953l0.953-0.238l0.715-0.953
	l0.954-0.714h1.191l-1.43,2.382l-0.239,1.667l1.192-1.429l0.953-0.238c0,0-0.238-0.874,0-1.43c0.238-0.556,0.556-0.477,0.715-0.953
	c0.159-0.477,0.477-1.271,0.953-0.953c0.477,0.317,1.033,0.238,1.906,0.477c0.874,0.238,0.556,0.635,1.192,0.715
	c0.635,0.079,0.491,0.491,0.715,1.429c0.317-0.397,0.953-0.556,1.668-0.715c0.715-0.159,1.906-0.714,1.906-0.714l0.238,0.714h1.191
	c0,0,1.112,0.953,0.477,1.668c-0.635,0.714-1.191,3.335-1.191,3.335l-1.668,1.906l-1.191,2.621l-3.098,1.906L56,64.337l-1.191,0.477
	l-1.668-0.238l-1.191,0.238l-1.907,0.953l-1.191-0.238l-0.477-0.715l-1.191-0.715l-0.238-0.953l-0.715-0.714l-0.238-0.953
	l0.238-0.715H46.945z M64.34,38.607c-0.317-0.317-0.715-0.953-0.715-0.953l-0.715-1.191c0,0-0.318-0.397-0.953-0.477
	c-0.635-0.079-1.191-0.238-1.191-0.238l0.715-3.097l0.715-0.238l0.953-0.715l1.191,0.238v0.715l-0.715,0.714l0.238,0.715
	l0.715-0.477l0.715-0.477v-0.714l0.954-0.238l0.477,0.714l0.477,1.191c0,0-0.159,0.794-0.477,1.191
	c-0.318,0.397-1.191,1.191-1.191,1.191l0.238,1.191l-0.477,0.714C65.293,38.369,64.658,38.925,64.34,38.607z"/>
</svg>
