<?xml version="1.0" encoding="iso-8859-1"?>
<!-- Generator: Adobe Illustrator 16.0.0, SVG Export Plug-In . SVG Version: 6.00 Build 0)  -->
<!DOCTYPE svg PUBLIC "-//W3C//DTD SVG 1.1//EN" "http://www.w3.org/Graphics/SVG/1.1/DTD/svg11.dtd">
<svg version="1.1" id="Layer_1" xmlns="http://www.w3.org/2000/svg" xmlns:xlink="http://www.w3.org/1999/xlink" x="0px" y="0px"
	 width="67.196px" height="67.196px" viewBox="0 0 67.196 67.196" style="enable-background:new 0 0 67.196 67.196;"
	 xml:space="preserve">
<path style="fill-rule:evenodd;clip-rule:evenodd;fill:#FFFFFF;" d="M63.585,21.051c-2.407,2.407-5.562,3.609-8.717,3.609
	c-0.001,0.002-0.002,0.004-0.003,0.006c-0.745,1.382,0.213,1.276-2.126,2.552c-2.34,1.276-2.765,1.914-3.19,3.19
	c-0.425,1.276,0.213,1.489-1.063,1.914c-1.276,0.425-1.17,1.169-2.552,3.403c-1.382,2.233-3.935,3.934-6.806,5.955
	c-2.871,2.02,1.702,0.425-1.701,4.253c-0.806,0.906-2.446,0.106-3.19,0.638c-0.745,0.531-2.978,0-1.702,1.701
	c1.276,1.701-0.744,1.595-2.765,3.615c-1.943,1.943-3.395,1.036-5.111,2.95c0.008,3.165-1.193,6.332-3.608,8.747
	c-4.816,4.816-12.624,4.816-17.439,0c-4.816-4.815-4.816-12.623,0-17.439c1.923-1.923,4.324-3.076,6.821-3.463
	c0.445-1.892,1.995-3.674,1.048-4.831c-0.957-1.17,1.063-1.276,1.914-1.063c0.851,0.213,1.276-1.489,1.701-2.126
	c0.426-0.638,2.127-0.425,2.127-0.425l1.701-1.276c0,0,1.595,0.532,2.339,0.213c0.745-0.319,0.745-1.808,1.063-4.892
	c0.319-3.083,0.319-2.658,2.552-4.253c2.233-1.595,2.765-4.891,5.316-4.041c2.552,0.851,3.722,1.169,5.742-0.213
	c2.021-1.382,0.106-1.808,0.213-2.765c0.106-0.957,2.871-1.169,4.041-4.466c1.147-3.232-0.564-4.418,3.175-4.665
	c0.601-1.555,1.525-3.013,2.78-4.268c4.816-4.816,12.624-4.816,17.439,0C68.4,8.427,68.4,16.235,63.585,21.051z M24.598,53.647
	c1.476-1.192,2.812-0.675,4.534-2.397c2.02-2.02,4.041-1.914,2.765-3.615c-1.276-1.701,0.957-1.169,1.701-1.701
	c0.745-0.532,2.385,0.268,3.19-0.638c3.403-3.828-1.169-2.233,1.702-4.253c2.871-2.02,5.423-3.722,6.805-5.955
	c1.382-2.233,1.276-2.978,2.552-3.403s0.638-0.638,1.063-1.914s0.851-1.914,3.19-3.19c1.935-1.055,1.615-1.166,1.868-1.954
	c-1.134-0.083-2.259-0.32-3.339-0.715c0.327,1.015-3.59,0.987-2.569,3.307c1.17,2.658-1.246-0.03-3.402,2.126
	c-1.489,1.489-2.339-2.978-4.253,0s0,3.403-1.702,5.955c-1.701,2.552-2.552,2.127-3.615,1.489c-1.063-0.638-1.169,0.532-1.701,1.276
	c-0.532,0.744,0.957,1.595,1.063,2.765c0.106,1.169,0.106,2.658-1.276,3.402c-1.382,0.745-3.615-2.126-4.679-0.851
	s-1.489-0.425-2.765-1.063c-1.276-0.638-0.957,3.722,3.615,5.316c4.573,1.595-2.977,2.765-3.828,3.403
	c-0.851,0.638-1.489-3.19-2.339-3.615c-0.829-0.415-0.347-0.523-0.618,0.556C23.723,49.702,24.401,51.655,24.598,53.647z
	 M32.322,39.127c-0.638-1.063-1.063-1.276-1.702,0.425c-0.638,1.702-1.701,0.851-2.765,1.063c-0.482,0.097-1.093,0.323-1.54,0.503
	c-0.088,0.009-0.205,0.05-0.374,0.135c-0.465,0.232-0.165,0.083,0.374-0.135c0.357-0.037,0.22,0.474,0.902,0.985
	c0.851,0.638,1.382-0.319,2.977,0.425c1.595,0.744,2.552,1.489,2.978,0S32.96,40.191,32.322,39.127z M22.474,45.866
	c0.347-0.385,0.911,0.544,1.554,1.556c0.745,1.169,0.957,2.658,2.127,2.126c1.169-0.532,5.21-0.106,0.851-2.126
	c-4.36-2.021-2.765-2.552-2.978-3.828C23.875,42.672,22.889,44.911,22.474,45.866c-0.054,0.06-0.104,0.15-0.147,0.279
	C22.238,46.412,22.314,46.233,22.474,45.866z M23.177,42.743c1.063-0.425,1.702-1.914,1.914-2.34
	c0.213-0.425,1.17-0.531,2.552-0.851c-1.276-0.212-2.978-0.425-3.616,0.638c-0.638,1.063-1.276,1.914-2.339,2.339
	c-1.063,0.425-1.914,2.339-1.914,2.339s0.319,0.532,0.638,0.638C21.157,44.338,22.114,43.168,23.177,42.743z M30.833,26.58
	c-0.213,1.489,1.169,0.319,1.914-0.213c0.744-0.532,1.489-1.914,0.851-1.701c-0.638,0.212-2.021-0.957-2.978-1.276
	C29.132,24.453,31.046,25.091,30.833,26.58z M31.897,29.345c-2.339,1.914-3.722,1.382-4.466,1.914
	c-0.744,0.532-2.233,0.319-2.552,0.851c-0.319,0.532,0.744,1.17-0.213,1.489s-1.063,1.276-1.701,2.127
	c-0.638,0.851-2.339,0.425-3.19,0.638c-0.851,0.213-0.425,1.276-0.425,2.552c0,1.276-2.765,2.126-3.19,2.765
	s-1.063,1.063-1.063,1.063s0.106,0.106,0.851,0.425c0.744-0.957,3.509-2.021,4.041-2.765c0.532-0.744-0.957-3.934,0.638-3.615
	c1.595,0.319,3.083,0.319,3.19-0.638c0.106-0.957,0.851-0.851,1.063-1.489c0.212-0.638,0.319-1.595,1.276-2.127
	s3.615-1.063,4.679-1.276s2.552-1.914,3.403-2.978c0.851-1.063,1.276-2.552,0.638-2.339C34.236,26.155,34.236,27.431,31.897,29.345z
	 M6.589,49.123c-3.171,3.171-3.171,8.313,0,11.484c3.171,3.171,8.313,3.171,11.484,0c3.171-3.171,3.171-8.313,0-11.484
	S9.76,45.952,6.589,49.123z M40.829,13.182c-1.17,3.296-3.935,3.509-4.041,4.466c-0.106,0.957,1.808,1.382-0.212,2.765
	s-3.19,1.063-5.742,0.213c-2.552-0.851-3.084,2.445-5.317,4.041s-2.233,1.169-2.552,4.253c-0.319,3.083-0.319,4.572-1.063,4.892
	c-0.745,0.319-2.339-0.213-2.339-0.213l-1.701,1.276c0,0-1.702-0.212-2.127,0.425c-0.425,0.638-0.851,2.339-1.701,2.127
	c-0.851-0.213-2.871-0.106-1.914,1.063c0.822,1.004-0.238,2.48-0.823,4.09c0.494-0.042,0.989-0.05,1.483-0.032
	c1.93-1.571,4.894-2.399,5.507-3.42c0.638-1.063,0.106-3.083,1.276-3.402c1.169-0.319,3.083-0.319,3.403-1.276
	c0.319-0.957,1.595-1.595,1.276-2.552c-0.319-0.957-0.213-0.425,1.276-0.851c1.489-0.425,2.871-1.382,3.403-2.126
	s-1.063-2.978,0-5.104c1.063-2.127,0.532-0.957,2.127-0.851c1.595,0.106,3.083,1.808,3.828,0.425
	c0.745-1.383,2.233-2.659,3.403-3.403c1.17-0.745-0.425-1.276,0.638-2.339s1.489-1.489,2.126-2.552
	c0.556-0.926,1.111-0.885,1.526-1.983c-0.095-1.515,0.081-3.043,0.542-4.503C40.554,8.997,41.871,10.245,40.829,13.182z
	 M42.956,15.309c-0.106-0.106-0.106-0.319-0.212-1.063c-1.063,1.063-1.595,1.808-2.127,2.552c-0.532,0.744-2.126,1.063-0.851,2.977
	s-1.169,0.745-1.701,1.276c-0.532,0.531-2.127,1.701-2.127,2.552s0.957-0.106,1.702-0.851c0.744-0.745,2.02-1.382,3.19-1.063
	c1.169,0.319-0.213-2.339-0.213-3.19S42.424,15.84,42.956,15.309z M44.019,18.073c-0.957,0.319-1.808,0.319-1.701,1.701
	c0.106,1.382,1.701,2.978-0.851,3.403c-2.552,0.425-4.679,4.892-5.53,6.38c-0.851,1.489-5.423,3.722-5.955,4.254
	c-0.532,0.531,0.638,1.488-0.638,1.914c-1.276,0.425-3.083,0.744-4.466,2.339c-1.382,1.595,3.615-0.851,4.891-1.063
	c1.276-0.213,0.425-1.489,1.489-2.765c1.063-1.276,4.041-1.276,5.104-2.552s1.063-3.19,1.914-5.317
	c0.851-2.126,1.808-1.595,3.828-2.552s2.127-2.127,1.276-3.403c-0.851-1.276,0.851-1.701,0.851-1.701L44.019,18.073z M44.444,26.58
	c-1.17-0.106-2.021,0.319-1.489,1.063c0.532,0.744,0.745,1.808,1.276,0.851c0.531-0.957,1.488-1.276,2.552-0.851
	s0.851-0.851,0.638-1.914c-0.213-1.063,0.744-1.382,2.126-2.127c-0.425-0.212-0.638-0.425-1.276-0.851
	c-1.382,0.319-1.701,0.425-1.701,2.126C46.571,26.58,45.614,26.687,44.444,26.58z M45.933,20.838
	c-0.851,1.063-0.213,1.276-0.425,2.552c-0.213,1.276,1.063-0.851,1.489-1.489C46.784,21.688,46.571,21.688,45.933,20.838z
	 M60.607,6.589c-3.171-3.171-8.313-3.171-11.484,0c-3.171,3.171-3.171,8.313,0,11.484s8.313,3.171,11.484,0
	S63.779,9.76,60.607,6.589z M55.716,11.48c-1.057-1.057-1.057-2.771,0-3.828s2.771-1.057,3.828,0s1.057,2.771,0,3.828
	S56.773,12.538,55.716,11.48z M50.187,17.01c-1.057-1.057-1.057-2.771,0-3.828s2.771-1.057,3.828,0s1.057,2.771,0,3.828
	S51.244,18.067,50.187,17.01z M7.652,54.015c-1.057-1.057-1.057-2.771,0-3.828s2.771-1.057,3.828,0s1.057,2.771,0,3.828
	S8.709,55.072,7.652,54.015z M17.01,55.716c1.057,1.057,1.057,2.771,0,3.828s-2.771,1.057-3.828,0s-1.057-2.771,0-3.828
	S15.953,54.659,17.01,55.716z"/>
</svg>
