<?xml version="1.0" encoding="iso-8859-1"?>
<!-- Generator: Adobe Illustrator 16.0.0, SVG Export Plug-In . SVG Version: 6.00 Build 0)  -->
<!DOCTYPE svg PUBLIC "-//W3C//DTD SVG 1.1//EN" "http://www.w3.org/Graphics/SVG/1.1/DTD/svg11.dtd">
<svg version="1.1" id="Layer_1" xmlns="http://www.w3.org/2000/svg" xmlns:xlink="http://www.w3.org/1999/xlink" x="0px" y="0px"
	 width="67.2px" height="43.2px" viewBox="0 0 67.2 43.2" style="enable-background:new 0 0 67.2 43.2;" xml:space="preserve">
<path style="fill-rule:evenodd;clip-rule:evenodd;fill:#FFFFFF;" d="M54,43.2c-5.965,0-16.8,0-16.8,0c-1.326,0-2.4-1.075-2.4-2.4
	V2.4c0-1.325,1.074-2.4,2.4-2.4c0,0,10.835,0,16.8,0s13.2,9.671,13.2,21.6S59.965,43.2,54,43.2z M44.52,35.04
	c0.464,0,0.84-0.376,0.84-0.84s-0.376-0.84-0.84-0.84s-0.84,0.376-0.84,0.84S44.056,35.04,44.52,35.04z M45.24,8.88
	c-0.862,0-1.56,0.699-1.56,1.56c0,0.862,0.698,1.56,1.56,1.56c0.861,0,1.56-0.698,1.56-1.56C46.8,9.579,46.102,8.88,45.24,8.88z
	 M59.28,14.4c-0.398,0-0.72,0.322-0.72,0.72c0,0.397,0.322,0.72,0.72,0.72c0.397,0,0.72-0.323,0.72-0.72
	C60,14.722,59.678,14.4,59.28,14.4z M29.76,43.2c0,0-10.835,0-16.8,0C6.996,43.2,0,33.529,0,21.6S6.996,0,12.96,0
	c5.965,0,16.8,0,16.8,0c1.325,0,2.4,1.075,2.4,2.4v38.4C32.16,42.125,31.085,43.2,29.76,43.2z M25.08,34.8
	c0.729,0,1.32-0.591,1.32-1.32s-0.591-1.32-1.32-1.32s-1.32,0.591-1.32,1.32S24.351,34.8,25.08,34.8z M24,24.6
	c0-0.729-0.591-1.32-1.32-1.32s-1.32,0.591-1.32,1.32s0.591,1.32,1.32,1.32S24,25.329,24,24.6z M21.36,41.52
	c1.193,0,2.16-0.967,2.16-2.16c0-1.193-0.967-2.16-2.16-2.16c-1.193,0-2.16,0.967-2.16,2.16C19.2,40.553,20.167,41.52,21.36,41.52z
	 M15.6,39.36c0.397,0,0.72-0.322,0.72-0.72c0-0.398-0.323-0.72-0.72-0.72s-0.72,0.322-0.72,0.72
	C14.88,39.038,15.203,39.36,15.6,39.36z M16.92,36.48c2.717,0,4.92-2.203,4.92-4.92s-2.203-4.92-4.92-4.92
	c-2.717,0-4.92,2.203-4.92,4.92S14.203,36.48,16.92,36.48z M14.4,22.2c0-0.464-0.376-0.84-0.84-0.84s-0.84,0.376-0.84,0.84
	s0.376,0.84,0.84,0.84S14.4,22.664,14.4,22.2z M10.32,24.24c-0.928,0-1.68,0.752-1.68,1.68s0.752,1.68,1.68,1.68
	c0.928,0,1.68-0.752,1.68-1.68S11.248,24.24,10.32,24.24z M12,18.48c0-0.928-0.752-1.68-1.68-1.68c-0.928,0-1.68,0.752-1.68,1.68
	s0.752,1.68,1.68,1.68C11.248,20.16,12,19.408,12,18.48z M10.56,40.32c0.397,0,0.72-0.323,0.72-0.72s-0.323-0.72-0.72-0.72
	s-0.72,0.323-0.72,0.72S10.163,40.32,10.56,40.32z M8.04,35.28c0.994,0,1.8-0.806,1.8-1.8s-0.806-1.8-1.8-1.8s-1.8,0.806-1.8,1.8
	S7.046,35.28,8.04,35.28z M4.68,30.96c0.464,0,0.84-0.376,0.84-0.84s-0.376-0.84-0.84-0.84s-0.84,0.376-0.84,0.84
	S4.216,30.96,4.68,30.96z M3.96,26.64c1.657,0,3-1.343,3-3s-1.343-3-3-3s-3,1.343-3,3S2.303,26.64,3.96,26.64z M2.16,16.2
	c0,1.392,1.128,2.52,2.52,2.52c1.392,0,2.52-1.128,2.52-2.52c0-1.392-1.128-2.52-2.52-2.52C3.288,13.68,2.16,14.808,2.16,16.2z
	 M9,6.48c-1.922,0-3.48,1.558-3.48,3.48S7.078,13.44,9,13.44s3.48-1.558,3.48-3.48S10.922,6.48,9,6.48z M14.04,2.4
	c-0.861,0-1.56,0.699-1.56,1.56c0,0.862,0.699,1.56,1.56,1.56c0.862,0,1.56-0.698,1.56-1.56C15.6,3.099,14.902,2.4,14.04,2.4z
	 M14.28,12.24c-0.729,0-1.32,0.591-1.32,1.32s0.591,1.32,1.32,1.32s1.32-0.591,1.32-1.32S15.009,12.24,14.28,12.24z M15.12,18.72
	c0,1.723,1.397,3.12,3.12,3.12s3.12-1.397,3.12-3.12s-1.396-3.12-3.12-3.12S15.12,16.997,15.12,18.72z M18,9.84
	c0,0.397,0.322,0.72,0.72,0.72c0.397,0,0.72-0.322,0.72-0.72c0-0.398-0.322-0.72-0.72-0.72C18.322,9.12,18,9.442,18,9.84z
	 M20.88,1.44c-1.193,0-2.16,0.967-2.16,2.16s0.967,2.16,2.16,2.16s2.16-0.967,2.16-2.16S22.073,1.44,20.88,1.44z M21.6,13.92
	c0,0.795,0.645,1.44,1.44,1.44s1.44-0.645,1.44-1.44c0-0.795-0.645-1.44-1.44-1.44S21.6,13.125,21.6,13.92z M25.44,6.96
	c-0.928,0-1.68,0.752-1.68,1.68s0.752,1.68,1.68,1.68s1.68-0.752,1.68-1.68S26.368,6.96,25.44,6.96z M28.56,2.88
	c-0.397,0-0.72,0.323-0.72,0.72s0.322,0.72,0.72,0.72s0.72-0.323,0.72-0.72S28.958,2.88,28.56,2.88z M28.44,12.72
	c-0.464,0-0.84,0.376-0.84,0.84s0.376,0.84,0.84,0.84s0.84-0.376,0.84-0.84S28.904,12.72,28.44,12.72z M27.24,17.76
	c-1.392,0-2.52,1.128-2.52,2.52c0,1.392,1.128,2.52,2.52,2.52c1.392,0,2.52-1.128,2.52-2.52C29.76,18.888,28.632,17.76,27.24,17.76z
	 M26.88,27.72c0,0.464,0.376,0.84,0.84,0.84s0.84-0.376,0.84-0.84s-0.376-0.84-0.84-0.84S26.88,27.256,26.88,27.72z M28.56,35.28
	c-0.928,0-1.68,0.752-1.68,1.68s0.752,1.68,1.68,1.68s1.68-0.752,1.68-1.68S29.488,35.28,28.56,35.28z"/>
</svg>
