<?xml version="1.0" encoding="iso-8859-1"?>
<!-- Generator: Adobe Illustrator 16.0.0, SVG Export Plug-In . SVG Version: 6.00 Build 0)  -->
<!DOCTYPE svg PUBLIC "-//W3C//DTD SVG 1.1//EN" "http://www.w3.org/Graphics/SVG/1.1/DTD/svg11.dtd">
<svg version="1.1" id="Layer_1" xmlns="http://www.w3.org/2000/svg" xmlns:xlink="http://www.w3.org/1999/xlink" x="0px" y="0px"
	 width="67.204px" height="67.204px" viewBox="0 0 67.204 67.204" style="enable-background:new 0 0 67.204 67.204;"
	 xml:space="preserve">
<path style="fill-rule:evenodd;clip-rule:evenodd;fill:#FFFFFF;" d="M67.204,30.662l-12.017,2.362
	c0.005,0.192,0.015,0.384,0.015,0.578c0,0.313-0.01,0.623-0.024,0.933l12.026,2.007l-12.233,0.211l0,0
	c-0.073,0.499-0.165,0.991-0.271,1.478l11.483,4.101l-12.074-1.948c-0.157,0.475-0.329,0.943-0.517,1.402l10.58,6.07l-11.532-4.048
	c-0.235,0.438-0.488,0.865-0.752,1.285l9.344,7.855l-10.634-6.026l0,0c-0.306,0.39-0.621,0.771-0.953,1.139l7.808,9.391
	l-9.391-7.808c-0.367,0.332-0.749,0.647-1.139,0.953l0,0l6.026,10.634l-7.855-9.344c-0.419,0.264-0.846,0.517-1.285,0.752
	l4.048,11.532l-6.07-10.58c-0.459,0.188-0.928,0.36-1.402,0.517l1.948,12.074L38.231,54.7c-0.487,0.106-0.979,0.198-1.478,0.271l0,0
	l-0.211,12.233l-2.007-12.026c-0.31,0.014-0.62,0.024-0.933,0.024c-0.194,0-0.385-0.01-0.578-0.015l-2.362,12.017l0.145-12.188
	c-0.507-0.065-1.01-0.144-1.505-0.243l-4.43,11.41l2.284-11.96l0,0c-0.492-0.153-0.974-0.33-1.45-0.517l0,0l-6.359,10.466
	l4.348-11.378c-0.461-0.238-0.915-0.489-1.355-0.759l0,0l-8.085,9.197l6.27-10.442l0,0c-0.416-0.317-0.819-0.65-1.21-0.996
	l-9.563,7.659l7.993-9.191c-0.358-0.387-0.701-0.789-1.03-1.201L5.972,52.949l9.467-7.664l0,0c-0.289-0.448-0.565-0.903-0.821-1.373
	L3.032,47.857l10.644-5.907c-0.208-0.495-0.392-1-0.563-1.512l0,0L1.021,42.332l11.51-3.986c-0.118-0.526-0.219-1.059-0.298-1.598
	L0,36.542l12.027-1.95c-0.015-0.328-0.025-0.658-0.025-0.99c0-0.216,0.01-0.431,0.017-0.646l0,0L0,30.662l12.188,0.141l0,0
	c0.071-0.548,0.158-1.091,0.269-1.625l0,0L1.021,24.872l11.981,2.222l0,0c0.167-0.529,0.357-1.046,0.563-1.557l-10.533-6.19
	l11.435,4.237c0.258-0.491,0.533-0.971,0.827-1.438l0,0l-9.321-7.891l10.553,6.129c0.34-0.438,0.692-0.866,1.064-1.276L9.751,9.751
	l9.356,7.837c0.411-0.372,0.838-0.724,1.276-1.064L14.255,5.972l7.891,9.321l0,0c0.468-0.293,0.947-0.569,1.438-0.827L19.347,3.032
	l6.19,10.533c0.51-0.206,1.028-0.396,1.557-0.563l0,0L24.872,1.021l4.306,11.436l0,0c0.534-0.111,1.077-0.197,1.625-0.269l0,0
	L30.662,0l2.294,12.019l0,0c0.215-0.006,0.429-0.017,0.646-0.017c0.332,0,0.662,0.01,0.99,0.025L36.542,0l0.206,12.232
	c0.54,0.079,1.072,0.181,1.598,0.298l3.986-11.51l-1.895,12.092l0,0c0.512,0.171,1.018,0.355,1.512,0.563l5.907-10.644
	l-3.944,11.586c0.469,0.255,0.925,0.532,1.373,0.821l0,0l7.664-9.467l-5.888,10.742c0.413,0.329,0.814,0.672,1.201,1.03l9.191-7.993
	l-7.659,9.563c0.346,0.392,0.679,0.794,0.996,1.21l0,0l10.442-6.27l-9.197,8.085l0,0c0.27,0.44,0.521,0.894,0.759,1.355
	l11.378-4.348l-10.466,6.359l0,0c0.187,0.476,0.363,0.958,0.517,1.45l0,0l11.96-2.284l-11.41,4.43
	c0.1,0.495,0.178,0.998,0.243,1.505L67.204,30.662z M33.602,12.962c-11.399,0-20.64,9.241-20.64,20.64
	c0,11.399,9.241,20.64,20.64,20.64c11.399,0,20.64-9.241,20.64-20.64C54.242,22.203,45.001,12.962,33.602,12.962z M33.602,52.322
	c-10.339,0-18.72-8.381-18.72-18.72s8.381-18.72,18.72-18.72s18.72,8.381,18.72,18.72S43.941,52.322,33.602,52.322z M33.602,18.242
	c-8.483,0-15.36,6.877-15.36,15.36s6.877,15.36,15.36,15.36s15.36-6.877,15.36-15.36S42.085,18.242,33.602,18.242z M33.602,45.122
	c-6.362,0-11.52-5.158-11.52-11.52s5.158-11.52,11.52-11.52s11.52,5.158,11.52,11.52S39.964,45.122,33.602,45.122z"/>
</svg>
