<?xml version="1.0" encoding="iso-8859-1"?>
<!-- Generator: Adobe Illustrator 16.0.0, SVG Export Plug-In . SVG Version: 6.00 Build 0)  -->
<!DOCTYPE svg PUBLIC "-//W3C//DTD SVG 1.1//EN" "http://www.w3.org/Graphics/SVG/1.1/DTD/svg11.dtd">
<svg version="1.1" id="Layer_1" xmlns="http://www.w3.org/2000/svg" xmlns:xlink="http://www.w3.org/1999/xlink" x="0px" y="0px"
	 width="67.198px" height="64.796px" viewBox="0 0 67.198 64.796" style="enable-background:new 0 0 67.198 64.796;"
	 xml:space="preserve">
<path style="fill-rule:evenodd;clip-rule:evenodd;fill:#FFFFFF;" d="M62.322,40.312c-4.246,1.796-6.501,1.218-14.035-3.135
	c-7.533-4.353-8.621-4.981-9.562-3.349c-0.942,1.632,0.146,2.261,7.679,6.614c7.533,4.353,9.161,6.019,9.73,10.597
	c0.544,4.376-4.604,8.776-10.393,11.505c-7.998,3.082-16.66,2.928-24.316-0.015c-5.776-2.729-10.904-7.122-10.361-11.49
	c0.569-4.578,2.197-6.244,9.73-10.597s8.621-4.981,7.679-6.614c-0.942-1.632-2.029-1.004-9.563,3.349s-9.789,4.931-14.035,3.135
	c-4.051-1.713-5.288-8.354-4.762-14.726C1.461,17.063,6.031,9.115,13.303,3.689c5.023-3.212,10.787-5.007,14.062-2.529
	c3.677,2.782,4.304,5.026,4.304,13.732s0,9.963,1.883,9.963s1.883-1.257,1.883-9.963S36.063,3.942,39.74,1.16
	c3.429-2.595,9.587-0.505,14.767,2.991c3.321,2.602,6.211,5.871,8.449,9.751c2.128,3.689,3.483,7.611,4.119,11.581
	C67.623,31.886,66.395,38.589,62.322,40.312z M17.922,4.487C9.079,9.749,3.829,18.787,3.036,28.354
	c-0.428,8.667,4.252,11.089,8.288,8.85c-2.893-9.995,1.253-21.044,10.661-26.48c1.899-1.097,3.89-1.887,5.915-2.399
	C27.837,4.094,24.127,1.338,17.922,4.487z M35.884,29.434c-0.743-1.288-2.388-1.729-3.675-0.985
	c-1.287,0.743-1.728,2.39-0.984,3.678c0.743,1.288,2.388,1.729,3.675,0.985S36.627,30.721,35.884,29.434z M17.016,46.98
	c-3.993,2.367-4.263,7.657,3.475,11.632c8.059,3.805,17.646,4.048,26.162,0.028c7.833-3.999,7.53-9.342,3.47-11.697
	c-1.446,1.485-3.118,2.799-5.001,3.888C35.774,56.232,24.228,54.364,17.016,46.98z M64.156,28.222
	c-0.373-4.344-1.674-8.678-3.996-12.704c-2.547-4.416-6.025-7.958-10.043-10.521C43.348,1.07,39.265,3.888,39.205,8.331
	c5.854,1.475,11.128,5.223,14.385,10.869c3.267,5.663,3.866,12.132,2.198,17.958C59.863,39.491,64.641,37.058,64.156,28.222z"/>
</svg>
