<?xml version="1.0" encoding="iso-8859-1"?>
<!-- Generator: Adobe Illustrator 16.0.0, SVG Export Plug-In . SVG Version: 6.00 Build 0)  -->
<!DOCTYPE svg PUBLIC "-//W3C//DTD SVG 1.1//EN" "http://www.w3.org/Graphics/SVG/1.1/DTD/svg11.dtd">
<svg version="1.1" id="Layer_1" xmlns="http://www.w3.org/2000/svg" xmlns:xlink="http://www.w3.org/1999/xlink" x="0px" y="0px"
	 width="59.035px" height="67.204px" viewBox="0 0 59.035 67.204" style="enable-background:new 0 0 59.035 67.204;"
	 xml:space="preserve">
<path style="fill-rule:evenodd;clip-rule:evenodd;fill:#FFFFFF;" d="M22.864,65.965c-8.223-2.696-13.906-9.082-17.123-15.699
	l18.287,3.741v-0.036c9.711,1.317,19.201-7.646,19.201-20.646c0-12.998-9.487-21.928-19.201-20.574v-0.036L5.955,16.48
	c3.241-6.44,8.855-12.617,16.91-15.25c17.862-5.84,36.171,9.792,36.171,32.385C59.035,56.208,40.727,71.823,22.864,65.965z
	 M22.884,16.993c7.467-0.733,14.759,6.319,14.759,16.637c0,10.318-7.292,17.36-14.759,16.617v0.029c0,0-19.503-3.398-20.627-3.587
	C0.808,42.688,0,38.246,0,33.604c0-4.695,0.827-9.185,2.308-13.222c1.144-0.192,20.577-3.418,20.577-3.418V16.993z M13.993,24.141
	c-0.014,1.227,0.012,18.32,0.021,19.372c0.007,0.944,0.743,1.622,1.371,1.22c0.981-0.628,9.379-9.147,10.096-9.634
	c0.872-0.592,0.76-1.89,0.018-2.397c-0.595-0.406-9.474-9.331-10.146-9.768C14.699,22.508,14.002,23.242,13.993,24.141z
	 M21.471,25.672c-0.001,0.145-0.003,0.552-0.003,1.148c2.362,2.26,6.088,5.91,6.405,6.123c0.602,0.405,0.692,1.439-0.015,1.912
	c-0.391,0.262-4.031,3.851-6.372,6.069c0.001,0.584,0.003,0.977,0.004,1.102c0.007,0.797,0.675,1.356,1.244,1.007
	c0.875-0.537,8.343-7.719,8.979-8.13c0.761-0.491,0.664-1.563,0.016-1.983c-0.531-0.344-8.428-7.873-9.024-8.245
	C22.113,24.306,21.48,24.913,21.471,25.672z"/>
</svg>
