<?xml version="1.0" encoding="iso-8859-1"?>
<!-- Generator: Adobe Illustrator 16.0.0, SVG Export Plug-In . SVG Version: 6.00 Build 0)  -->
<!DOCTYPE svg PUBLIC "-//W3C//DTD SVG 1.1//EN" "http://www.w3.org/Graphics/SVG/1.1/DTD/svg11.dtd">
<svg version="1.1" id="Layer_1" xmlns="http://www.w3.org/2000/svg" xmlns:xlink="http://www.w3.org/1999/xlink" x="0px" y="0px"
	 width="58.8px" height="67.205px" viewBox="0 0 58.8 67.205" style="enable-background:new 0 0 58.8 67.205;" xml:space="preserve"
	>
<path style="fill-rule:evenodd;clip-rule:evenodd;fill:#FFFFFF;" d="M22.225,65.797c-8.101-2.849-13.611-9.268-16.707-15.793
	l17.857,3.915v-0.037c9.751,1.461,19.223-7.587,19.223-20.564c0-12.974-9.469-21.978-19.223-20.467v-0.036L5.724,16.774
	c3.12-6.358,8.567-12.575,16.501-15.366C40.218-4.92,58.8,10.837,58.8,33.603S40.218,72.126,22.225,65.797z M22.245,17.086
	c7.471-0.826,14.709,6.268,14.709,16.542s-7.238,17.364-14.709,16.535v0.029c0,0-19.127-3.563-20.081-3.734
	C0.774,42.523,0,38.167,0,33.619c0-4.6,0.792-9.004,2.212-12.975c0.973-0.176,20.033-3.587,20.033-3.587V17.086z M3.594,25.325
	c0-0.558-0.291-0.973-0.646-0.927c-0.352,0.045-0.635,0.525-0.635,1.073v16.662c0,0.548,0.283,1.029,0.635,1.076
	c0.355,0.047,0.646-0.366,0.646-0.923V25.325z M13.542,32.815c-0.471-0.367-7.317-8.236-7.83-8.619
	c-0.507-0.378-1.049,0.266-1.057,1.06c-0.011,1.083,0.01,16.176,0.016,17.105c0.006,0.834,0.577,1.427,1.065,1.068
	c0.754-0.555,7.228-8.073,7.791-8.512C14.197,34.397,14.111,33.259,13.542,32.815z"/>
</svg>
