<?xml version="1.0" encoding="iso-8859-1"?>
<!-- Generator: Adobe Illustrator 16.0.0, SVG Export Plug-In . SVG Version: 6.00 Build 0)  -->
<!DOCTYPE svg PUBLIC "-//W3C//DTD SVG 1.1//EN" "http://www.w3.org/Graphics/SVG/1.1/DTD/svg11.dtd">
<svg version="1.1" id="Layer_1" xmlns="http://www.w3.org/2000/svg" xmlns:xlink="http://www.w3.org/1999/xlink" x="0px" y="0px"
	 width="57.12px" height="67.208px" viewBox="0 0 57.12 67.208" style="enable-background:new 0 0 57.12 67.208;"
	 xml:space="preserve">
<path style="fill-rule:evenodd;clip-rule:evenodd;fill:#FFFFFF;" d="M20.343,65.82C6.804,61.101,0,46.646,0,33.705
	c0-7.75,2.251-15.289,6.5-21.406v22.559h0.021c0.339,8.675,5.47,17.447,14.012,19.328c9.697,2.136,19.502-6.191,20.224-18.987
	l0.044,0V3.082C49.655,7.991,57.12,18.93,57.12,33.395C57.12,56.378,38.342,72.093,20.343,65.82z M20.325,42.903
	c-6.656-0.645-6.848-6.935-6.848-10.583c0,0,0.036-22.073,0.036-27.282C14.684,4.634,26.032,0.825,28.43,0
	c0,6.155-0.038,32.007-0.038,32.007C28.392,36.563,27.955,43.642,20.325,42.903z"/>
</svg>
