<?xml version="1.0" encoding="iso-8859-1"?>
<!-- Generator: Adobe Illustrator 16.0.0, SVG Export Plug-In . SVG Version: 6.00 Build 0)  -->
<!DOCTYPE svg PUBLIC "-//W3C//DTD SVG 1.1//EN" "http://www.w3.org/Graphics/SVG/1.1/DTD/svg11.dtd">
<svg version="1.1" id="Layer_1" xmlns="http://www.w3.org/2000/svg" xmlns:xlink="http://www.w3.org/1999/xlink" x="0px" y="0px"
	 width="53.039px" height="67.199px" viewBox="0 0 53.039 67.199" style="enable-background:new 0 0 53.039 67.199;"
	 xml:space="preserve">
<path style="fill-rule:evenodd;clip-rule:evenodd;fill:#FFFFFF;" d="M11.044,20.068c0.611,0.375,15.683,10.517,17.392,11.578
	c1.361,0.846,1.567,3.046-0.033,4.042c-1.93,1.203-16.14,10.732-17.307,11.44c-1.008,0.612-2.178-0.482-2.189-1.965
	c-0.013-1.653-0.055-21.211-0.033-23.138C8.89,20.613,9.998,19.426,11.044,20.068z M17.09,66.009
	C8.939,63.387,3.256,57.116,0,50.561l18.255,3.707v-0.037c9.773,1.311,19.138-7.743,19.138-20.625
	c0-12.882-9.365-21.945-19.138-20.644v-0.037L0,16.614C3.256,10.062,8.939,3.796,17.09,1.182
	c17.791-5.706,35.949,9.914,35.949,32.432C53.039,56.131,34.881,71.734,17.09,66.009z"/>
</svg>
