<?xml version="1.0" encoding="iso-8859-1"?>
<!-- Generator: Adobe Illustrator 16.0.0, SVG Export Plug-In . SVG Version: 6.00 Build 0)  -->
<!DOCTYPE svg PUBLIC "-//W3C//DTD SVG 1.1//EN" "http://www.w3.org/Graphics/SVG/1.1/DTD/svg11.dtd">
<svg version="1.1" id="Layer_1" xmlns="http://www.w3.org/2000/svg" xmlns:xlink="http://www.w3.org/1999/xlink" x="0px" y="0px"
	 width="60.48px" height="67.206px" viewBox="0 0 60.48 67.206" style="enable-background:new 0 0 60.48 67.206;"
	 xml:space="preserve">
<path style="fill-rule:evenodd;clip-rule:evenodd;fill:#FFFFFF;" d="M22.545,66.039C7.829,61.509,0,46.035,0,31.752
	C0,23.352,2.518,15.257,7.18,8.8v24.231l0.023,0c0.38,9.437,6.118,18.769,15.342,20.577c10.21,2.001,20.446-6.719,21.192-20.117
	l0.044,0V0C52.974,5.403,60.48,16.885,60.48,31.703C60.48,55.473,41.322,71.819,22.545,66.039z M25.461,44.502V4.355
	c3.078-0.741,6.052-1.457,8.099-1.95v30.333C33.266,38.412,29.816,43.301,25.461,44.502z M13.353,32.587V7.271
	c1.574-0.379,3.866-0.931,6.422-1.547V43.87C16.115,41.974,13.558,37.347,13.353,32.587z"/>
</svg>
