<?xml version="1.0" encoding="iso-8859-1"?>
<!-- Generator: Adobe Illustrator 16.0.0, SVG Export Plug-In . SVG Version: 6.00 Build 0)  -->
<!DOCTYPE svg PUBLIC "-//W3C//DTD SVG 1.1//EN" "http://www.w3.org/Graphics/SVG/1.1/DTD/svg11.dtd">
<svg version="1.1" id="Layer_1" xmlns="http://www.w3.org/2000/svg" xmlns:xlink="http://www.w3.org/1999/xlink" x="0px" y="0px"
	 width="56.64px" height="67.197px" viewBox="0 0 56.64 67.197" style="enable-background:new 0 0 56.64 67.197;"
	 xml:space="preserve">
<path style="fill-rule:evenodd;clip-rule:evenodd;fill:#FFFFFF;" d="M41.197,63.254V31.832h-0.041
	c-0.694-12.576-10.238-20.878-19.813-19.109C12.639,14.332,7.21,23.121,6.849,32.061H6.827v22.975C2.396,48.908,0,41.216,0,33.236
	C0,19.681,7.428,5.075,21.344,0.991C38.923-4.168,56.64,11.429,56.64,33.597C56.64,47.438,49.709,58.172,41.197,63.254z
	 M12.146,34.196l20.284,0.31c1.423,0.022,2.603,1.325,2.603,2.911v27.564c0,1.585-1.179,2.53-2.603,2.119l-20.284-5.863
	c-0.959-0.277-1.723-1.523-1.723-2.788V36.46C10.423,35.195,11.187,34.182,12.146,34.196z"/>
</svg>
