<?xml version="1.0" encoding="iso-8859-1"?>
<!-- Generator: Adobe Illustrator 16.0.0, SVG Export Plug-In . SVG Version: 6.00 Build 0)  -->
<!DOCTYPE svg PUBLIC "-//W3C//DTD SVG 1.1//EN" "http://www.w3.org/Graphics/SVG/1.1/DTD/svg11.dtd">
<svg version="1.1" id="Layer_1" xmlns="http://www.w3.org/2000/svg" xmlns:xlink="http://www.w3.org/1999/xlink" x="0px" y="0px"
	 width="67.2px" height="66.24px" viewBox="0 0 67.2 66.24" style="enable-background:new 0 0 67.2 66.24;" xml:space="preserve">
<path style="fill-rule:evenodd;clip-rule:evenodd;fill:#FFFFFF;" d="M62.436,29.858c-1.675,0-3.146-0.867-3.995-2.175l-2.447,0.703
	c2.298,8.318,0.209,17.187-6.009,23.006c-2.511,2.351-5.408,3.977-8.483,4.94l0.941,2.146c0.102-0.008,0.205-0.016,0.309-0.016
	c2.146,0,3.886,1.741,3.886,3.889s-1.74,3.889-3.886,3.889s-3.887-1.741-3.887-3.889c0-1.328,0.667-2.5,1.682-3.201l-1.008-2.298
	c-2.988,0.651-6.099,0.705-9.16,0.208c-2.181,3.65-6.292,5.898-11.228,5.6c-7.814-0.472-14.729-7.142-15.445-14.899
	c-0.059-0.632-0.069-1.251-0.044-1.856C1.621,45.788,0,44.099,0,42.027c0-2.148,1.74-3.889,3.887-3.889
	c0.87,0,1.671,0.288,2.318,0.772c0.62-0.775,1.337-1.467,2.142-2.057c-1.639-6.518-0.698-13.506,3.484-19.246
	c2.04-2.8,4.666-4.978,7.635-6.499l-0.731-1.667c-0.301,0.06-0.612,0.092-0.931,0.092c-2.631,0-4.764-2.134-4.764-4.767
	S15.172,0,17.803,0c2.631,0,4.764,2.135,4.764,4.768c0,1.598-0.789,3.008-1.995,3.874l0.715,1.629
	c8.222-3.325,18.541-1.909,26.501,5.14c3.618,3.203,6.141,7.032,7.602,11.061l2.339-0.671c-0.035-0.232-0.058-0.467-0.058-0.708
	c0-2.633,2.133-4.767,4.764-4.767c2.631,0,4.764,2.134,4.764,4.767C67.2,27.724,65.067,29.858,62.436,29.858z M38.309,38.331
	l0.118,0.1l-2.61,6.25c0.165-0.059,0.328-0.121,0.49-0.188l0,0c0,0,0,0,0,0c0.307-0.127,0.609-0.27,0.903-0.428
	c0.001,0,0.001,0,0.002-0.001c0.146-0.078,0.29-0.16,0.431-0.245c0.008-0.005,0.017-0.011,0.025-0.016
	c0.134-0.081,0.266-0.165,0.396-0.253c0.021-0.014,0.041-0.029,0.062-0.043c0.117-0.081,0.234-0.163,0.349-0.249
	c0.038-0.029,0.075-0.06,0.112-0.089c0.097-0.075,0.193-0.149,0.287-0.228c0.063-0.053,0.124-0.109,0.185-0.163
	c0.068-0.06,0.137-0.118,0.203-0.179c0.128-0.119,0.253-0.242,0.375-0.369c0.147-0.152,0.286-0.309,0.421-0.467
	c0.042-0.05,0.083-0.101,0.124-0.152c0.091-0.112,0.181-0.225,0.267-0.34c0.043-0.059,0.086-0.118,0.128-0.177
	c0.081-0.114,0.159-0.229,0.235-0.346c0.037-0.057,0.074-0.114,0.11-0.171c0.084-0.137,0.165-0.275,0.243-0.415
	c0.021-0.038,0.043-0.074,0.063-0.112c0.099-0.184,0.192-0.371,0.278-0.56c0.006-0.012,0.011-0.025,0.016-0.037
	c0.079-0.175,0.152-0.352,0.221-0.53c0.017-0.044,0.032-0.088,0.048-0.132c0.056-0.152,0.109-0.305,0.158-0.46
	c0.015-0.046,0.029-0.092,0.042-0.138c0.05-0.165,0.095-0.332,0.136-0.499c0.007-0.031,0.016-0.061,0.023-0.091
	c0.146-0.621,0.235-1.257,0.267-1.899c0-0.015,0.001-0.029,0.002-0.043c0.009-0.204,0.013-0.409,0.011-0.614
	c0-0.011,0-0.022,0-0.034c-0.023-1.718-0.448-3.462-1.272-5.085c-0.03-0.059-0.063-0.116-0.093-0.175
	c-0.065-0.124-0.131-0.247-0.201-0.369c-0.04-0.069-0.082-0.137-0.123-0.206c-0.066-0.11-0.133-0.22-0.203-0.329
	c-0.046-0.071-0.093-0.142-0.141-0.213c-0.07-0.104-0.142-0.208-0.215-0.311c-0.051-0.071-0.103-0.142-0.156-0.212
	c-0.076-0.102-0.154-0.202-0.233-0.302c-0.055-0.068-0.109-0.137-0.166-0.205c-0.084-0.101-0.172-0.201-0.26-0.3
	c-0.056-0.063-0.111-0.127-0.168-0.189c-0.099-0.107-0.203-0.213-0.306-0.318c-0.051-0.051-0.1-0.104-0.151-0.154
	c-0.157-0.154-0.319-0.306-0.486-0.455c-0.186-0.165-0.376-0.321-0.568-0.472c-0.058-0.046-0.116-0.089-0.175-0.134
	c-0.141-0.107-0.283-0.211-0.426-0.312c-0.062-0.043-0.123-0.086-0.185-0.128c-0.172-0.116-0.346-0.227-0.521-0.333
	c-0.028-0.017-0.055-0.035-0.083-0.052c-0.203-0.121-0.408-0.234-0.615-0.342c-0.058-0.03-0.116-0.058-0.174-0.087
	c-0.154-0.077-0.309-0.151-0.465-0.222c-0.067-0.03-0.133-0.06-0.201-0.088c-0.169-0.073-0.339-0.141-0.51-0.206
	c-0.044-0.017-0.088-0.035-0.132-0.051c-0.214-0.078-0.429-0.149-0.645-0.214c-0.053-0.016-0.105-0.029-0.158-0.044
	c-0.167-0.048-0.334-0.092-0.501-0.132c-0.069-0.017-0.137-0.032-0.206-0.047c-0.167-0.037-0.334-0.07-0.502-0.099
	c-0.054-0.009-0.107-0.021-0.162-0.029c-0.219-0.036-0.438-0.065-0.657-0.087c-0.041-0.004-0.081-0.006-0.122-0.01
	c-0.18-0.017-0.359-0.029-0.539-0.037c-0.067-0.003-0.134-0.005-0.201-0.006c-0.164-0.004-0.327-0.005-0.49-0.003
	c-0.059,0.001-0.117,0.001-0.175,0.003c-0.218,0.007-0.435,0.019-0.651,0.039c-0.02,0.001-0.04,0.004-0.059,0.006
	c-0.195,0.019-0.39,0.043-0.583,0.073c-0.063,0.009-0.125,0.021-0.187,0.031c-0.158,0.027-0.314,0.057-0.471,0.09
	c-0.06,0.013-0.12,0.025-0.179,0.039c-1.011,0.236-1.979,0.619-2.872,1.145c-0.016,0.01-0.033,0.019-0.049,0.029
	c-0.119,0.071-0.236,0.145-0.352,0.221c-0.029,0.019-0.057,0.038-0.086,0.057c-0.105,0.071-0.21,0.144-0.313,0.219
	c-0.039,0.029-0.078,0.058-0.117,0.086c-0.093,0.07-0.186,0.141-0.276,0.215c-0.049,0.039-0.097,0.08-0.146,0.121
	c-0.08,0.068-0.161,0.135-0.239,0.206c-0.059,0.053-0.117,0.108-0.175,0.163c-0.066,0.063-0.133,0.125-0.199,0.189
	c-0.073,0.073-0.144,0.149-0.215,0.225c-0.049,0.052-0.099,0.102-0.146,0.154c-0.119,0.132-0.235,0.267-0.348,0.406
	c-0.141,0.173-0.271,0.351-0.398,0.531c-0.036,0.051-0.07,0.102-0.104,0.153c-0.097,0.143-0.189,0.288-0.278,0.435
	c-0.026,0.044-0.054,0.087-0.08,0.132c-0.109,0.188-0.212,0.379-0.309,0.573c-0.016,0.032-0.029,0.064-0.045,0.096
	c-0.081,0.167-0.156,0.336-0.227,0.506c-0.021,0.05-0.041,0.1-0.061,0.15c-0.075,0.189-0.145,0.379-0.208,0.572
	c-0.004,0.012-0.009,0.023-0.013,0.035c-0.06,0.185-0.11,0.373-0.159,0.561l5.515-2.77l0.105,0.09
	c1.025-0.435,2.194-0.644,3.455-0.567c4.585,0.277,8.643,4.191,9.063,8.742C38.51,36.822,38.462,37.601,38.309,38.331z
	 M39.295,56.296l-1.666-3.794c-1.711,0.378-3.478,0.503-5.247,0.4l-1.385,3.317l-0.111-0.107c-0.06,0.125-0.123,0.248-0.187,0.37
	C33.574,56.93,36.489,56.886,39.295,56.296z M33.542,45.984c0.195,2.115-0.151,4.075-0.921,5.766
	c0.146-0.232,0.282-0.471,0.409-0.716c0.081-0.156,0.151-0.319,0.225-0.481c0.041-0.09,0.087-0.178,0.125-0.27
	c0.094-0.226,0.178-0.457,0.256-0.692c0.01-0.031,0.023-0.06,0.033-0.091c0.434-1.336,0.612-2.812,0.485-4.376l0,0
	c-0.004-0.048-0.003-0.094-0.007-0.142c-0.622-6.731-6.622-12.519-13.403-12.929c-0.246-0.015-0.487-0.016-0.729-0.016l0,0
	c-0.263,0-0.523,0.01-0.78,0.026c-0.033,0.002-0.065,0.003-0.098,0.006c-0.236,0.017-0.469,0.042-0.699,0.073
	c-0.055,0.007-0.11,0.015-0.165,0.022c-0.211,0.031-0.42,0.069-0.626,0.111c-0.074,0.016-0.148,0.032-0.221,0.048
	c-0.188,0.043-0.373,0.089-0.555,0.142c-0.093,0.026-0.184,0.055-0.275,0.084c-0.162,0.051-0.324,0.104-0.481,0.161
	c-0.113,0.042-0.224,0.088-0.334,0.134c-0.134,0.054-0.269,0.108-0.4,0.167c-0.142,0.065-0.279,0.137-0.416,0.208
	c-0.097,0.05-0.197,0.097-0.292,0.149c-0.232,0.13-0.46,0.266-0.68,0.413c1.466-0.716,3.148-1.116,4.973-1.119
	c0.261,0,0.524,0.007,0.791,0.023C26.731,33.108,32.903,39.062,33.542,45.984z M5.495,47.949c0.621,6.748,6.627,12.55,13.416,12.96
	c6.788,0.41,11.787-4.728,11.165-11.476c-0.622-6.748-6.628-12.55-13.416-12.96C9.872,36.063,4.874,41.201,5.495,47.949z
	 M19.801,11.875c-2.811,1.466-5.299,3.544-7.246,6.198c-4.001,5.456-4.979,12.089-3.529,18.323c0.289-0.182,0.586-0.353,0.894-0.51
	L9.81,35.78l2.544-1.278c-0.663-4.677,0.344-9.486,3.357-13.459c1.607-2.12,3.648-3.776,5.947-4.937L19.801,11.875z M47.49,15.985
	c-7.766-6.876-17.852-8.239-25.869-4.954l1.875,4.273c6.449-2.4,14.411-1.208,20.604,4.276c2.772,2.455,4.73,5.367,5.91,8.435
	l4.825-1.385C53.411,22.752,50.973,19.07,47.49,15.985z M50.64,29.922c1.792,6.506,0.206,13.424-4.535,18.034
	c-1.917,1.864-4.144,3.184-6.524,3.998l1.684,3.835c3.044-0.938,5.91-2.542,8.386-4.87c6.036-5.673,8.047-14.297,5.797-22.377
	L50.64,29.922z M17.004,38.745c5.485,0.331,10.339,4.998,10.843,10.424c0.503,5.426-3.536,9.557-9.021,9.226
	c-5.485-0.331-10.339-4.998-10.842-10.424C7.48,42.545,11.519,38.415,17.004,38.745z"/>
</svg>
