<?xml version="1.0" encoding="iso-8859-1"?>
<!-- Generator: Adobe Illustrator 16.0.0, SVG Export Plug-In . SVG Version: 6.00 Build 0)  -->
<!DOCTYPE svg PUBLIC "-//W3C//DTD SVG 1.1//EN" "http://www.w3.org/Graphics/SVG/1.1/DTD/svg11.dtd">
<svg version="1.1" id="Layer_1" xmlns="http://www.w3.org/2000/svg" xmlns:xlink="http://www.w3.org/1999/xlink" x="0px" y="0px"
	 width="60.482px" height="67.2px" viewBox="0 0 60.482 67.2" style="enable-background:new 0 0 60.482 67.2;" xml:space="preserve"
	>
<path style="fill-rule:evenodd;clip-rule:evenodd;fill:#FFFFFF;" d="M23.056,66.219C8.245,62.05,0.119,46.683,0.001,32.167
	c-0.069-8.538,2.452-16.811,7.206-23.415l0.162,24.654h0.024c0.451,9.549,6.342,18.819,15.623,20.462
	c10.18,1.801,20.306-6.98,21.058-20.307l0.044,0L44.157,0c9.111,5.505,16.393,17.005,16.325,31.654
	C60.374,54.972,41.743,71.479,23.056,66.219z M13.985,43.362l19.453,1.853c-2.855,2.751-6.524,4.114-10.328,3.604
	C18.576,48.21,15.767,45.951,13.985,43.362z"/>
</svg>
