<?xml version="1.0" encoding="iso-8859-1"?>
<!-- Generator: Adobe Illustrator 16.0.0, SVG Export Plug-In . SVG Version: 6.00 Build 0)  -->
<!DOCTYPE svg PUBLIC "-//W3C//DTD SVG 1.1//EN" "http://www.w3.org/Graphics/SVG/1.1/DTD/svg11.dtd">
<svg version="1.1" id="Layer_1" xmlns="http://www.w3.org/2000/svg" xmlns:xlink="http://www.w3.org/1999/xlink" x="0px" y="0px"
	 width="57.36px" height="67.203px" viewBox="0 0 57.36 67.203" style="enable-background:new 0 0 57.36 67.203;"
	 xml:space="preserve">
<path style="fill-rule:evenodd;clip-rule:evenodd;fill:#FFFFFF;" d="M21.589,66.171C7.505,61.992,0,47.254,0,33.617
	c0-8.03,2.421-15.763,6.902-21.918v23.126h0.022c0.364,8.999,5.853,17.871,14.664,19.53c9.695,1.826,19.366-6.502,20.068-19.171
	l0.042,0V3.517C50.327,8.661,57.36,19.504,57.36,33.463C57.36,55.806,39.4,71.458,21.589,66.171z M9.975,8.652
	c0-0.17,0-0.332,0-0.476c3.176-3.217,7.095-5.75,11.614-7.111c4.797-1.444,9.964-1.472,15.032,0.239c0,0.139,0,0.289,0,0.447
	L9.975,8.652z M9.979,12.564L36.61,6.738c-0.004,1.525-0.009,3.225-0.015,5.016L9.987,16.499
	C9.984,15.096,9.981,13.763,9.979,12.564z M9.995,20.411l26.583-3.671c-0.006,1.685-0.012,3.377-0.018,5.014l-26.556,2.593
	C10.001,23.063,9.998,21.734,9.995,20.411z M10.013,28.261l26.528-1.524c-0.007,1.944-0.014,3.667-0.02,5.011l-26.5,0.45
	C10.02,31.142,10.016,29.789,10.013,28.261z M13.079,44.283l18.44,1.917c-2.722,2.597-6.214,3.864-9.825,3.344
	C17.398,48.925,14.75,46.754,13.079,44.283z M10.179,36.116l26.12,0.607c-0.28,1.758-0.798,3.408-1.512,4.905l-23.699-1.51
	C10.583,38.576,10.318,37.142,10.179,36.116z"/>
</svg>
