<?xml version="1.0" encoding="iso-8859-1"?>
<!-- Generator: Adobe Illustrator 16.0.0, SVG Export Plug-In . SVG Version: 6.00 Build 0)  -->
<!DOCTYPE svg PUBLIC "-//W3C//DTD SVG 1.1//EN" "http://www.w3.org/Graphics/SVG/1.1/DTD/svg11.dtd">
<svg version="1.1" id="Layer_1" xmlns="http://www.w3.org/2000/svg" xmlns:xlink="http://www.w3.org/1999/xlink" x="0px" y="0px"
	 width="57.36px" height="67.204px" viewBox="0 0 57.36 67.204" style="enable-background:new 0 0 57.36 67.204;"
	 xml:space="preserve">
<path style="fill-rule:evenodd;clip-rule:evenodd;fill:#FFFFFF;" d="M21.563,66.191C7.49,62.053,0,47.351,0,33.728
	c0-8.022,2.417-15.758,6.891-21.929v23.11l0.022,0c0.364,8.99,5.845,17.839,14.65,19.469c9.692,1.794,19.369-6.565,20.072-19.243
	l0.042,0V3.454C50.313,8.559,57.36,19.379,57.36,33.353C57.36,55.71,39.379,71.43,21.563,66.191z M21.669,49.566
	c-11.472-1.613-11.657-14.934-11.657-14.934S9.959,13.224,9.959,8.264c3.173-3.23,7.088-5.782,11.604-7.164
	c4.795-1.467,9.962-1.521,15.033,0.166c0,6.367-0.112,33.459-0.112,33.459C35.977,44.252,28.876,50.58,21.669,49.566z
	 M13.811,29.788c0.302,0.692,6.418,14.137,6.942,15.266c0.369,0.793,1.255,0.901,1.632,0.163c0.44-0.865,7.68-15.104,8.203-16.141
	c0.482-0.958-0.131-1.869-0.945-1.82c-1.166,0.071-14.925,0.902-15.131,0.914C13.841,28.21,13.519,29.122,13.811,29.788z
	 M29.893,2.376l-15.549,4.25C13.887,6.75,13.519,7.33,13.519,7.92s0.368,0.976,0.824,0.861l15.549-3.919
	c0.614-0.154,1.117-0.843,1.117-1.536C31.009,2.633,30.507,2.208,29.893,2.376z M29.893,7.349l-15.549,3.587
	c-0.457,0.105-0.824,0.669-0.824,1.259s0.368,0.992,0.824,0.896l15.549-3.257c0.614-0.128,1.117-0.796,1.117-1.489
	C31.009,7.653,30.507,7.208,29.893,7.349z M29.893,12.322l-15.549,2.925c-0.457,0.086-0.824,0.634-0.824,1.224
	s0.368,1.008,0.824,0.931l15.549-2.594c0.614-0.103,1.117-0.748,1.117-1.441S30.507,12.207,29.893,12.322z M29.893,17.295
	l-15.549,2.263c-0.457,0.066-0.824,0.599-0.824,1.189s0.368,1.023,0.824,0.966l15.549-1.932c0.614-0.076,1.117-0.701,1.117-1.394
	S30.507,17.206,29.893,17.295z M29.893,22.268L14.343,23.87c-0.457,0.047-0.824,0.563-0.824,1.154s0.368,1.039,0.824,1.001
	l15.549-1.27c0.614-0.05,1.117-0.653,1.117-1.346C31.009,22.715,30.507,22.205,29.893,22.268z"/>
</svg>
