<?xml version="1.0" encoding="iso-8859-1"?>
<!-- Generator: Adobe Illustrator 16.0.0, SVG Export Plug-In . SVG Version: 6.00 Build 0)  -->
<!DOCTYPE svg PUBLIC "-//W3C//DTD SVG 1.1//EN" "http://www.w3.org/Graphics/SVG/1.1/DTD/svg11.dtd">
<svg version="1.1" id="Layer_1" xmlns="http://www.w3.org/2000/svg" xmlns:xlink="http://www.w3.org/1999/xlink" x="0px" y="0px"
	 width="57.36px" height="67.198px" viewBox="0 0 57.36 67.198" style="enable-background:new 0 0 57.36 67.198;"
	 xml:space="preserve">
<path style="fill-rule:evenodd;clip-rule:evenodd;fill:#FFFFFF;" d="M21.472,66.146C7.429,61.933,0,47.232,0,33.672
	c0-7.993,2.399-15.702,6.85-21.858v23.048l0.022,0c0.362,8.961,5.813,17.814,14.6,19.481c9.688,1.837,19.381-6.495,20.086-19.184
	l0.042,0V3.432C50.263,8.531,57.36,19.378,57.36,33.404C57.36,55.804,39.311,71.498,21.472,66.146z M21.578,49.537
	C10.137,47.884,9.957,34.593,9.957,34.593S9.903,13.234,9.903,8.286c3.16-3.228,7.063-5.781,11.569-7.17
	c4.786-1.476,9.954-1.542,15.034,0.136c0,6.373-0.112,33.487-0.112,33.487C35.886,44.272,28.777,50.578,21.578,49.537z
	 M30.489,17.819c-0.524-0.944-7.76-13.836-8.198-14.615c-0.376-0.668-1.261-0.395-1.629,0.467
	c-0.523,1.227-6.624,15.788-6.923,16.529c-0.29,0.719,0.031,1.569,0.698,1.486c0.199-0.024,13.935-1.728,15.107-1.873
	C30.359,19.712,30.972,18.688,30.489,17.819z M29.795,22.268l-15.525,1.59c-0.456,0.046-0.821,0.562-0.821,1.151
	s0.366,1.038,0.821,1l15.525-1.255c0.614-0.05,1.117-0.652,1.117-1.346S30.41,22.205,29.795,22.268z M29.795,27.241l-15.525,0.92
	c-0.456,0.027-0.821,0.526-0.821,1.116s0.366,1.053,0.821,1.036l15.525-0.585c0.614-0.023,1.117-0.604,1.117-1.297
	S30.41,27.205,29.795,27.241z M29.795,32.215l-15.525,0.25c-0.456,0.007-0.821,0.491-0.821,1.08s0.366,1.069,0.821,1.072
	l15.525,0.085c0.614,0.003,1.117-0.556,1.117-1.25S30.41,32.205,29.795,32.215z M29.795,37.188l-15.525-0.42
	c-0.456-0.012-0.821,0.456-0.821,1.045s0.366,1.085,0.821,1.107l15.525,0.755c0.614,0.03,1.117-0.508,1.117-1.201
	S30.41,37.205,29.795,37.188z M29.795,42.162l-15.525-1.09c-0.456-0.032-0.821,0.42-0.821,1.009c0,0.589,0.366,1.1,0.821,1.142
	l15.525,1.425c0.614,0.056,1.117-0.459,1.117-1.153S30.41,42.205,29.795,42.162z"/>
</svg>
