<?xml version="1.0" encoding="iso-8859-1"?>
<!-- Generator: Adobe Illustrator 16.0.0, SVG Export Plug-In . SVG Version: 6.00 Build 0)  -->
<!DOCTYPE svg PUBLIC "-//W3C//DTD SVG 1.1//EN" "http://www.w3.org/Graphics/SVG/1.1/DTD/svg11.dtd">
<svg version="1.1" id="Layer_1" xmlns="http://www.w3.org/2000/svg" xmlns:xlink="http://www.w3.org/1999/xlink" x="0px" y="0px"
	 width="67.2px" height="49.909px" viewBox="0 0 67.2 49.909" style="enable-background:new 0 0 67.2 49.909;" xml:space="preserve"
	>
<path style="fill-rule:evenodd;clip-rule:evenodd;fill:#FFFFFF;" d="M65.721,43.503L53.4,45.477V7.439l12.321,1.973
	c0.822,0.132,1.479,1.144,1.479,2.262v29.567C67.2,42.36,66.543,43.372,65.721,43.503z M48.6,49.909h-30c-1.657,0-3-1.346-3-3.006
	V3.006c0-1.66,1.343-3.006,3-3.006h30c1.657,0,3,1.346,3,3.006v43.896C51.6,48.563,50.257,49.909,48.6,49.909z M48.9,6.913
	c0-1.41-1.142-2.554-2.55-2.554h-25.5c-1.408,0-2.55,1.144-2.55,2.554v36.083c0,1.41,1.142,2.554,2.55,2.554h25.5
	c1.408,0,2.55-1.144,2.55-2.554V6.913z M45.1,43.896h-23c-1.271,0-2.3-1.021-2.3-2.282V8.295c0-1.261,1.029-2.282,2.3-2.282h23
	c1.271,0,2.3,1.021,2.3,2.282v33.318C47.4,42.875,46.371,43.896,45.1,43.896z M0,41.242V11.674c0-1.119,0.657-2.13,1.479-2.262
	L13.8,7.439v38.038L1.479,43.503C0.657,43.372,0,42.36,0,41.242z"/>
</svg>
