<?xml version="1.0" encoding="iso-8859-1"?>
<!-- Generator: Adobe Illustrator 16.0.0, SVG Export Plug-In . SVG Version: 6.00 Build 0)  -->
<!DOCTYPE svg PUBLIC "-//W3C//DTD SVG 1.1//EN" "http://www.w3.org/Graphics/SVG/1.1/DTD/svg11.dtd">
<svg version="1.1" id="Layer_1" xmlns="http://www.w3.org/2000/svg" xmlns:xlink="http://www.w3.org/1999/xlink" x="0px" y="0px"
	 width="53.28px" height="67.199px" viewBox="0 0 53.28 67.199" style="enable-background:new 0 0 53.28 67.199;"
	 xml:space="preserve">
<path style="fill-rule:evenodd;clip-rule:evenodd;fill:#FFFFFF;" d="M0.055,21.904L26.579,0l26.523,21.904L26.579,43.808
	L0.055,21.904z M11.866,20.364c-1.03-0.851-2.7-0.851-3.73,0c-1.03,0.851-1.03,2.229,0,3.08c1.03,0.851,2.7,0.851,3.73,0
	C12.896,22.594,12.896,21.215,11.866,20.364z M28.443,6.674c-1.03-0.851-2.7-0.851-3.73,0c-1.03,0.851-1.03,2.23,0,3.081
	c1.03,0.851,2.7,0.851,3.73,0S29.473,7.524,28.443,6.674z M28.443,20.364c-1.03-0.851-2.7-0.851-3.73,0
	c-1.03,0.851-1.03,2.229,0,3.08c1.03,0.851,2.7,0.851,3.73,0S29.473,21.215,28.443,20.364z M41.291,23.444
	c1.03,0.851,2.7,0.851,3.73,0c1.03-0.851,1.03-2.229,0-3.08c-1.03-0.851-2.7-0.851-3.73,0
	C40.261,21.215,40.261,22.594,41.291,23.444z M28.443,34.054c-1.03-0.85-2.7-0.85-3.73,0c-1.03,0.851-1.03,2.23,0,3.081
	c1.03,0.851,2.7,0.851,3.73,0S29.473,34.904,28.443,34.054z M25.793,67.082L0.159,45.959L0,24.859l25.635,21.122L25.793,67.082z
	 M4.924,44.48c-0.996-0.82-1.797-0.821-1.792-0.001c0.006,0.819,0.818,2.148,1.814,2.969c0.995,0.82,1.797,0.821,1.791,0.001
	S5.92,45.3,4.924,44.48z M12.886,44.487c-0.996-0.82-1.798-0.821-1.792-0.001s0.818,2.148,1.813,2.969
	c0.996,0.82,1.797,0.821,1.792,0.001C14.693,46.636,13.881,45.307,12.886,44.487z M20.847,44.494
	c-0.995-0.82-1.797-0.821-1.791-0.001s0.818,2.148,1.813,2.969s1.797,0.821,1.792,0.001C22.654,46.643,21.842,45.314,20.847,44.494z
	 M53.28,24.62l-0.008,21.362L27.862,67.199l0.008-21.362L53.28,24.62z M48.515,31.102c-0.986,0.824-1.787,2.165-1.787,2.994
	c0,0.83,0.799,0.834,1.786,0.01c0.987-0.824,1.787-2.164,1.787-2.994C50.301,30.282,49.501,30.278,48.515,31.102z M48.509,47.457
	c0.987-0.824,1.787-2.164,1.787-2.994s-0.799-0.834-1.786-0.01c-0.987,0.824-1.787,2.164-1.787,2.994
	C46.722,48.276,47.522,48.281,48.509,47.457z M32.633,44.362c-0.987,0.824-1.787,2.165-1.787,2.994c0,0.83,0.799,0.834,1.786,0.01
	c0.987-0.824,1.787-2.165,1.788-2.994C34.419,43.543,33.62,43.539,32.633,44.362z M32.627,60.718
	c0.987-0.824,1.787-2.165,1.787-2.994c0-0.83-0.799-0.834-1.786-0.01c-0.987,0.824-1.787,2.164-1.788,2.994
	C30.841,61.537,31.64,61.542,32.627,60.718z"/>
</svg>
