<?xml version="1.0" encoding="iso-8859-1"?>
<!-- Generator: Adobe Illustrator 16.0.0, SVG Export Plug-In . SVG Version: 6.00 Build 0)  -->
<!DOCTYPE svg PUBLIC "-//W3C//DTD SVG 1.1//EN" "http://www.w3.org/Graphics/SVG/1.1/DTD/svg11.dtd">
<svg version="1.1" id="Layer_1" xmlns="http://www.w3.org/2000/svg" xmlns:xlink="http://www.w3.org/1999/xlink" x="0px" y="0px"
	 width="67.2px" height="55.2px" viewBox="0 0 67.2 55.2" style="enable-background:new 0 0 67.2 55.2;" xml:space="preserve">
<path style="fill-rule:evenodd;clip-rule:evenodd;fill:#FFFFFF;" d="M63.506,31.407c-2.04,0-3.693-1.651-3.693-3.688
	c0-2.037,1.653-3.688,3.693-3.688s3.694,1.651,3.694,3.688C67.2,29.756,65.546,31.407,63.506,31.407z M50.757,27.719
	c0-2.037,1.654-3.688,3.694-3.688s3.694,1.651,3.694,3.688c0,2.037-1.654,3.688-3.694,3.688S50.757,29.756,50.757,27.719z
	 M16.443,27.719c0,2.037-1.654,3.688-3.694,3.688s-3.694-1.651-3.694-3.688c0-2.037,1.654-3.688,3.694-3.688
	S16.443,25.682,16.443,27.719z M48.613,27.6c0,3.219,2.634,5.829,5.883,5.829h6.127C57.943,45.873,46.863,55.2,33.6,55.2
	S9.257,45.873,6.577,33.429h6.127c3.249,0,5.883-2.61,5.883-5.829s-2.634-5.829-5.883-5.829H6.577C9.257,9.328,20.337,0,33.6,0
	s24.343,9.328,27.022,21.771h-6.127C51.247,21.771,48.613,24.381,48.613,27.6z M33.6,16.536c-6.12,0-11.081,4.954-11.081,11.064
	S27.48,38.664,33.6,38.664S44.681,33.71,44.681,27.6S39.72,16.536,33.6,16.536z M33.6,33.548c-3.29,0-5.958-2.663-5.958-5.948
	s2.667-5.948,5.958-5.948s5.958,2.663,5.958,5.948S36.89,33.548,33.6,33.548z M3.694,31.407C1.654,31.407,0,29.756,0,27.719
	c0-2.037,1.654-3.688,3.694-3.688c2.04,0,3.693,1.651,3.693,3.688C7.387,29.756,5.733,31.407,3.694,31.407z"/>
</svg>
