<?xml version="1.0" encoding="iso-8859-1"?>
<!-- Generator: Adobe Illustrator 16.0.0, SVG Export Plug-In . SVG Version: 6.00 Build 0)  -->
<!DOCTYPE svg PUBLIC "-//W3C//DTD SVG 1.1//EN" "http://www.w3.org/Graphics/SVG/1.1/DTD/svg11.dtd">
<svg version="1.1" id="Layer_1" xmlns="http://www.w3.org/2000/svg" xmlns:xlink="http://www.w3.org/1999/xlink" x="0px" y="0px"
	 width="67.195px" height="67.194px" viewBox="0 0 67.195 67.194" style="enable-background:new 0 0 67.195 67.194;"
	 xml:space="preserve">
<path style="fill-rule:evenodd;clip-rule:evenodd;fill:#FFFFFF;" d="M66.68,39.431C63.653,56.6,48.085,68.406,31.058,67.095
	l-6.435-10.632c2.781,1.093,5.806,1.699,8.975,1.699c12.493,0,22.8-9.328,24.354-21.398l7.622-13.474
	C67.206,28.337,67.665,33.844,66.68,39.431z M33.598,9.033c-3.352,0-6.547,0.674-9.458,1.89L8.687,11.059
	C16.182,2.79,27.629-1.565,39.431,0.516c11.073,1.953,19.914,9.122,24.446,18.533L57.89,29.934
	C56.121,18.105,45.92,9.033,33.598,9.033z M18.531,34.112c0-2.356,0.525-4.588,1.459-6.589l6.151,8.797
	c0.854,2.982,3.334,5.372,6.591,5.947c1.357,0.239,2.695,0.134,3.927-0.249l-0.131,0.083l-3.517,7.551
	C24.922,49.096,18.531,42.354,18.531,34.112z M35.638,25.771c-4.414-0.779-8.629,2.062-9.608,6.392l-0.006-0.154l-4.727-6.76
	c2.809-4.059,7.491-6.718,12.796-6.718c5.185,0,9.774,2.541,12.602,6.445l-10.487,0.919C36.02,25.848,35.831,25.805,35.638,25.771z
	 M49.653,34.112c0,8.08-6.143,14.723-14.008,15.503l4.552-9.774c1.123-1.161,1.923-2.658,2.225-4.369
	c0.512-2.91-0.544-5.731-2.558-7.601l0.14,0.073l8.055-0.706C49.079,29.313,49.653,31.645,49.653,34.112z M9.034,33.598
	c0,7.954,3.784,15.021,9.646,19.51l7.852,13.328C8.95,62.664-2.632,45.62,0.516,27.765c0.857-4.86,2.719-9.29,5.334-13.115
	l12.442-0.257C12.652,18.893,9.034,25.821,9.034,33.598z"/>
</svg>
