<?xml version="1.0" encoding="iso-8859-1"?>
<!-- Generator: Adobe Illustrator 16.0.0, SVG Export Plug-In . SVG Version: 6.00 Build 0)  -->
<!DOCTYPE svg PUBLIC "-//W3C//DTD SVG 1.1//EN" "http://www.w3.org/Graphics/SVG/1.1/DTD/svg11.dtd">
<svg version="1.1" id="Layer_1" xmlns="http://www.w3.org/2000/svg" xmlns:xlink="http://www.w3.org/1999/xlink" x="0px" y="0px"
	 width="67.2px" height="67.2px" viewBox="0 0 67.2 67.2" style="enable-background:new 0 0 67.2 67.2;" xml:space="preserve">
<path style="fill-rule:evenodd;clip-rule:evenodd;fill:#FFFFFF;" d="M62.4,52.8c-2.651,0-4.8-2.149-4.8-4.8s2.149-4.8,4.8-4.8
	c2.651,0,4.8,2.149,4.8,4.8S65.051,52.8,62.4,52.8z M62.4,38.4c-0.694,0-1.353-0.15-1.949-0.416
	c0.483-1.372,0.749-2.847,0.749-4.384s-0.266-3.012-0.749-4.384c0.596-0.265,1.254-0.416,1.949-0.416c2.651,0,4.8,2.149,4.8,4.8
	S65.051,38.4,62.4,38.4z M62.4,24c-2.651,0-4.8-2.149-4.8-4.8s2.149-4.8,4.8-4.8c2.651,0,4.8,2.149,4.8,4.8S65.051,24,62.4,24z
	 M62.4,9.6c-2.651,0-4.8-2.149-4.8-4.8c0-2.651,2.149-4.8,4.8-4.8c2.651,0,4.8,2.149,4.8,4.8C67.2,7.451,65.051,9.6,62.4,9.6z
	 M48,45.6c-6.617,0-12-5.383-12-12s5.383-12,12-12c6.617,0,12,5.383,12,12S54.617,45.6,48,45.6z M48.317,22.568
	c0.048,0.066,0.083,0.144,0.083,0.232V30c0,0.221-0.179,0.4-0.4,0.4c-0.221,0-0.4-0.179-0.4-0.4v-7.2
	c0-0.088,0.034-0.166,0.083-0.232c-5.835,0.166-10.549,4.88-10.715,10.715c0.066-0.049,0.144-0.083,0.232-0.083h7.2
	c0.221,0,0.4,0.179,0.4,0.4S44.621,34,44.4,34h-7.2c-0.088,0-0.166-0.034-0.232-0.083c0.166,5.835,4.88,10.549,10.715,10.715
	C47.634,44.566,47.6,44.488,47.6,44.4v-7.2c0-0.221,0.179-0.4,0.4-0.4c0.221,0,0.4,0.179,0.4,0.4v7.2
	c0,0.088-0.034,0.166-0.083,0.232c5.835-0.166,10.549-4.879,10.715-10.715C58.966,33.966,58.889,34,58.8,34h-7.2
	c-0.221,0-0.4-0.179-0.4-0.4s0.179-0.4,0.4-0.4h7.2c0.088,0,0.166,0.034,0.232,0.083C58.866,27.448,54.153,22.734,48.317,22.568z
	 M49.6,32v-6c0-0.085-0.016-0.167-0.044-0.248c3.169,0.625,5.661,3.122,6.287,6.29C55.765,32.015,55.684,32,55.6,32H49.6z M48,35.2
	c-0.884,0-1.6-0.716-1.6-1.6S47.116,32,48,32s1.6,0.716,1.6,1.6S48.884,35.2,48,35.2z M46.4,32h-6c-0.083,0-0.165,0.015-0.243,0.042
	c0.626-3.168,3.119-5.665,6.288-6.29C46.416,25.833,46.4,25.915,46.4,26V32z M46.4,41.2c0,0.085,0.016,0.167,0.044,0.248
	c-3.169-0.625-5.662-3.122-6.288-6.29c0.079,0.027,0.16,0.042,0.243,0.042h6V41.2z M49.6,35.2h6c0.083,0,0.165-0.015,0.243-0.042
	c-0.626,3.168-3.118,5.665-6.287,6.29c0.028-0.08,0.044-0.163,0.044-0.248V35.2z M48,20.4c-1.537,0-3.012,0.266-4.384,0.749
	C43.351,20.553,43.2,19.895,43.2,19.2c0-2.651,2.149-4.8,4.8-4.8s4.8,2.149,4.8,4.8c0,0.694-0.151,1.353-0.416,1.949
	C51.012,20.666,49.538,20.4,48,20.4z M48,9.6c-2.651,0-4.8-2.149-4.8-4.8C43.2,2.149,45.349,0,48,0s4.8,2.149,4.8,4.8
	C52.8,7.451,50.651,9.6,48,9.6z M33.6,24c-2.651,0-4.8-2.149-4.8-4.8s2.149-4.8,4.8-4.8s4.8,2.149,4.8,4.8S36.251,24,33.6,24z
	 M33.6,9.6c-2.651,0-4.8-2.149-4.8-4.8c0-2.651,2.149-4.8,4.8-4.8s4.8,2.149,4.8,4.8C38.4,7.451,36.251,9.6,33.6,9.6z M19.2,67.2
	c-2.651,0-4.8-2.149-4.8-4.8c0-2.651,2.149-4.8,4.8-4.8s4.8,2.149,4.8,4.8C24,65.051,21.851,67.2,19.2,67.2z M19.2,52.8
	c-2.651,0-4.8-2.149-4.8-4.8s2.149-4.8,4.8-4.8S24,45.349,24,48S21.851,52.8,19.2,52.8z M19.2,38.4c-2.651,0-4.8-2.149-4.8-4.8
	s2.149-4.8,4.8-4.8s4.8,2.149,4.8,4.8S21.851,38.4,19.2,38.4z M19.2,24c-2.651,0-4.8-2.149-4.8-4.8s2.149-4.8,4.8-4.8
	s4.8,2.149,4.8,4.8S21.851,24,19.2,24z M19.2,9.6c-2.651,0-4.8-2.149-4.8-4.8c0-2.651,2.149-4.8,4.8-4.8S24,2.149,24,4.8
	C24,7.451,21.851,9.6,19.2,9.6z M4.8,67.2c-2.651,0-4.8-2.149-4.8-4.8c0-2.651,2.149-4.8,4.8-4.8c2.651,0,4.8,2.149,4.8,4.8
	C9.6,65.051,7.451,67.2,4.8,67.2z M4.8,52.8C2.149,52.8,0,50.651,0,48s2.149-4.8,4.8-4.8c2.651,0,4.8,2.149,4.8,4.8
	S7.451,52.8,4.8,52.8z M4.8,38.4c-2.651,0-4.8-2.149-4.8-4.8s2.149-4.8,4.8-4.8c2.651,0,4.8,2.149,4.8,4.8S7.451,38.4,4.8,38.4z
	 M4.8,24C2.149,24,0,21.851,0,19.2s2.149-4.8,4.8-4.8c2.651,0,4.8,2.149,4.8,4.8S7.451,24,4.8,24z M4.8,9.6C2.149,9.6,0,7.451,0,4.8
	C0,2.149,2.149,0,4.8,0c2.651,0,4.8,2.149,4.8,4.8C9.6,7.451,7.451,9.6,4.8,9.6z M33.6,28.8c0.694,0,1.353,0.15,1.949,0.416
	C35.066,30.588,34.8,32.063,34.8,33.6s0.266,3.012,0.749,4.384C34.953,38.25,34.294,38.4,33.6,38.4c-2.651,0-4.8-2.149-4.8-4.8
	S30.949,28.8,33.6,28.8z M33.6,43.2c2.651,0,4.8,2.149,4.8,4.8s-2.149,4.8-4.8,4.8s-4.8-2.149-4.8-4.8S30.949,43.2,33.6,43.2z
	 M33.6,57.6c2.651,0,4.8,2.149,4.8,4.8c0,2.651-2.149,4.8-4.8,4.8s-4.8-2.149-4.8-4.8C28.8,59.749,30.949,57.6,33.6,57.6z M48,46.8
	c1.538,0,3.012-0.266,4.384-0.749C52.649,46.647,52.8,47.306,52.8,48c0,2.651-2.149,4.8-4.8,4.8s-4.8-2.149-4.8-4.8
	c0-0.694,0.15-1.353,0.416-1.949C44.988,46.535,46.463,46.8,48,46.8z M48,57.6c2.651,0,4.8,2.149,4.8,4.8c0,2.651-2.149,4.8-4.8,4.8
	s-4.8-2.149-4.8-4.8C43.2,59.749,45.349,57.6,48,57.6z M62.4,57.6c2.651,0,4.8,2.149,4.8,4.8c0,2.651-2.149,4.8-4.8,4.8
	c-2.651,0-4.8-2.149-4.8-4.8C57.6,59.749,59.749,57.6,62.4,57.6z"/>
</svg>
