<?xml version="1.0" encoding="iso-8859-1"?>
<!-- Generator: Adobe Illustrator 16.0.0, SVG Export Plug-In . SVG Version: 6.00 Build 0)  -->
<!DOCTYPE svg PUBLIC "-//W3C//DTD SVG 1.1//EN" "http://www.w3.org/Graphics/SVG/1.1/DTD/svg11.dtd">
<svg version="1.1" id="Layer_1" xmlns="http://www.w3.org/2000/svg" xmlns:xlink="http://www.w3.org/1999/xlink" x="0px" y="0px"
	 width="67.2px" height="47.52px" viewBox="0 0 67.2 47.52" style="enable-background:new 0 0 67.2 47.52;" xml:space="preserve">
<path style="fill-rule:evenodd;clip-rule:evenodd;fill:#FFFFFF;" d="M60.578,13.227c-0.063,0-0.125-0.003-0.188-0.005l-3.869,8.454
	c-0.014,0.031-0.034,0.056-0.05,0.085c-0.027,0.05-0.053,0.101-0.086,0.147c-0.027,0.039-0.059,0.073-0.09,0.108
	c-0.031,0.036-0.061,0.073-0.095,0.106c-0.036,0.034-0.074,0.063-0.112,0.093c-0.037,0.028-0.072,0.058-0.111,0.083
	c-0.04,0.025-0.081,0.045-0.123,0.066c-0.043,0.022-0.085,0.045-0.131,0.063c-0.044,0.017-0.09,0.029-0.136,0.042
	s-0.089,0.028-0.136,0.036c-0.056,0.011-0.113,0.013-0.17,0.017c-0.033,0.002-0.065,0.01-0.099,0.01h-6.676
	c0.033,0.404,0.054,0.812,0.054,1.225c0,0.33-0.014,0.656-0.035,0.98h6.657c0.034,0,0.065,0.007,0.099,0.01
	c0.057,0.004,0.114,0.007,0.17,0.017c0.047,0.009,0.091,0.023,0.136,0.036c0.045,0.013,0.092,0.025,0.136,0.042
	c0.045,0.018,0.088,0.041,0.131,0.063c0.042,0.021,0.083,0.041,0.123,0.066c0.039,0.025,0.075,0.055,0.111,0.083
	c0.038,0.03,0.077,0.059,0.112,0.092c0.034,0.033,0.064,0.07,0.095,0.106c0.031,0.036,0.063,0.07,0.09,0.109
	c0.033,0.046,0.059,0.097,0.086,0.147c0.016,0.029,0.036,0.055,0.05,0.085l3.979,8.696c0.026,0,0.052-0.002,0.078-0.002
	c3.657,0,6.622,2.961,6.622,6.614c0,3.652-2.965,6.613-6.622,6.613s-6.622-2.961-6.622-6.613c0-2.579,1.479-4.811,3.634-5.901
	l-3.353-7.326h-6.2c-1.725,6.35-7.533,11.022-14.437,11.022s-12.713-4.672-14.437-11.022h-6.2L9.61,35.005
	c2.155,1.091,3.634,3.323,3.634,5.901c0,3.652-2.965,6.613-6.622,6.613S0,44.559,0,40.906c0-3.653,2.965-6.614,6.622-6.614
	c0.026,0,0.052,0.001,0.078,0.002l3.979-8.696c0.014-0.031,0.034-0.056,0.05-0.085c0.027-0.05,0.053-0.101,0.086-0.147
	c0.027-0.039,0.059-0.073,0.09-0.109c0.031-0.036,0.061-0.073,0.095-0.106c0.036-0.034,0.074-0.063,0.112-0.092
	c0.037-0.029,0.072-0.059,0.111-0.083c0.04-0.025,0.081-0.045,0.123-0.066c0.043-0.022,0.085-0.045,0.131-0.063
	c0.044-0.018,0.09-0.029,0.136-0.042c0.045-0.013,0.089-0.027,0.136-0.036c0.056-0.01,0.113-0.013,0.17-0.017
	c0.033-0.002,0.065-0.01,0.099-0.01h6.657c-0.021-0.324-0.035-0.65-0.035-0.98c0-0.413,0.021-0.82,0.054-1.225h-6.676
	c-0.034,0-0.065-0.008-0.099-0.01c-0.057-0.004-0.114-0.006-0.17-0.017c-0.047-0.008-0.091-0.023-0.136-0.036
	s-0.092-0.025-0.136-0.042c-0.045-0.018-0.088-0.042-0.131-0.063c-0.042-0.021-0.083-0.042-0.123-0.066
	c-0.039-0.025-0.075-0.055-0.111-0.083c-0.038-0.03-0.077-0.059-0.112-0.093c-0.034-0.033-0.064-0.07-0.095-0.106
	c-0.031-0.036-0.063-0.07-0.09-0.108c-0.033-0.047-0.059-0.097-0.086-0.147c-0.016-0.029-0.036-0.055-0.05-0.085l-3.869-8.454
	c-0.063,0.002-0.125,0.005-0.188,0.005C2.965,13.227,0,10.266,0,6.613C0,2.961,2.965,0,6.622,0s6.622,2.961,6.622,6.613
	c0,2.542-1.437,4.748-3.543,5.855l3.262,7.127h6.27C21.039,13.371,26.785,8.818,33.6,8.818s12.562,4.553,14.367,10.778h6.27
	l3.262-7.127c-2.106-1.107-3.543-3.313-3.543-5.855C53.956,2.961,56.921,0,60.578,0S67.2,2.961,67.2,6.613
	C67.2,10.266,64.235,13.227,60.578,13.227z M63.276,40.906c0.813,0,1.472-0.658,1.472-1.47s-0.659-1.47-1.472-1.47
	c-0.813,0-1.471,0.658-1.471,1.47S62.463,40.906,63.276,40.906z M60.824,44.825c0.813,0,1.471-0.658,1.471-1.47
	c0-0.812-0.659-1.47-1.471-1.47c-0.813,0-1.472,0.658-1.472,1.47C59.352,44.167,60.011,44.825,60.824,44.825z M56.899,39.437
	c0,0.812,0.659,1.47,1.472,1.47c0.813,0,1.471-0.658,1.471-1.47s-0.659-1.47-1.471-1.47C57.558,37.967,56.899,38.625,56.899,39.437z
	 M4.169,39.437c-0.813,0-1.472,0.658-1.472,1.47c0,0.812,0.659,1.47,1.472,1.47s1.472-0.658,1.472-1.47
	C5.641,40.094,4.982,39.437,4.169,39.437z M7.603,40.906c0,0.812,0.659,1.47,1.472,1.47c0.813,0,1.471-0.658,1.471-1.47
	c0-0.812-0.659-1.47-1.471-1.47C8.262,39.437,7.603,40.094,7.603,40.906z M6.622,5.144c-0.813,0-1.472,0.658-1.472,1.47
	c0,0.812,0.659,1.47,1.472,1.47c0.813,0,1.471-0.658,1.471-1.47C8.093,5.802,7.435,5.144,6.622,5.144z M33.6,11.512
	c-6.772,0-12.263,5.483-12.263,12.248s5.49,12.248,12.263,12.248s12.263-5.483,12.263-12.248S40.373,11.512,33.6,11.512z
	 M58.125,2.694c-0.813,0-1.471,0.658-1.471,1.47c0,0.812,0.659,1.47,1.471,1.47c0.813,0,1.472-0.658,1.472-1.47
	C59.597,3.352,58.938,2.694,58.125,2.694z M58.125,7.593c-0.813,0-1.471,0.658-1.471,1.47c0,0.812,0.659,1.47,1.471,1.47
	c0.813,0,1.472-0.658,1.472-1.47C59.597,8.251,58.938,7.593,58.125,7.593z M63.031,2.694c-0.813,0-1.472,0.658-1.472,1.47
	c0,0.812,0.659,1.47,1.472,1.47s1.472-0.658,1.472-1.47C64.502,3.352,63.843,2.694,63.031,2.694z M63.031,7.593
	c-0.813,0-1.472,0.658-1.472,1.47c0,0.812,0.659,1.47,1.472,1.47s1.472-0.658,1.472-1.47C64.502,8.251,63.843,7.593,63.031,7.593z
	 M33.6,34.047c-5.689,0-10.301-4.606-10.301-10.288S27.911,13.472,33.6,13.472s10.301,4.606,10.301,10.288
	S39.289,34.047,33.6,34.047z M26.242,19.84c-0.813,0-1.471,0.658-1.471,1.47c0,0.812,0.659,1.47,1.471,1.47
	c0.813,0,1.472-0.658,1.472-1.47C27.714,20.499,27.055,19.84,26.242,19.84z M26.242,24.74c-0.813,0-1.471,0.658-1.471,1.47
	c0,0.812,0.659,1.47,1.471,1.47c0.813,0,1.472-0.658,1.472-1.47C27.714,25.397,27.055,24.74,26.242,24.74z M31.147,19.84
	c-0.813,0-1.472,0.658-1.472,1.47c0,0.812,0.659,1.47,1.472,1.47s1.472-0.658,1.472-1.47C32.619,20.499,31.96,19.84,31.147,19.84z
	 M31.147,24.74c-0.813,0-1.472,0.658-1.472,1.47c0,0.812,0.659,1.47,1.472,1.47s1.472-0.658,1.472-1.47
	C32.619,25.397,31.96,24.74,31.147,24.74z M36.053,19.84c-0.813,0-1.472,0.658-1.472,1.47c0,0.812,0.659,1.47,1.472,1.47
	c0.813,0,1.472-0.658,1.472-1.47C37.524,20.499,36.865,19.84,36.053,19.84z M36.053,24.74c-0.813,0-1.472,0.658-1.472,1.47
	c0,0.812,0.659,1.47,1.472,1.47c0.813,0,1.472-0.658,1.472-1.47C37.524,25.397,36.865,24.74,36.053,24.74z M40.958,27.679
	c0.813,0,1.471-0.658,1.471-1.47c0-0.812-0.659-1.47-1.471-1.47c-0.813,0-1.472,0.658-1.472,1.47
	C39.486,27.021,40.145,27.679,40.958,27.679z M40.958,22.78c0.813,0,1.471-0.658,1.471-1.47c0-0.812-0.659-1.47-1.471-1.47
	c-0.813,0-1.472,0.658-1.472,1.47C39.486,22.122,40.145,22.78,40.958,22.78z"/>
</svg>
