<?xml version="1.0" encoding="iso-8859-1"?>
<!-- Generator: Adobe Illustrator 16.0.0, SVG Export Plug-In . SVG Version: 6.00 Build 0)  -->
<!DOCTYPE svg PUBLIC "-//W3C//DTD SVG 1.1//EN" "http://www.w3.org/Graphics/SVG/1.1/DTD/svg11.dtd">
<svg version="1.1" id="Layer_1" xmlns="http://www.w3.org/2000/svg" xmlns:xlink="http://www.w3.org/1999/xlink" x="0px" y="0px"
	 width="67.2px" height="65.52px" viewBox="0 0 67.2 65.52" style="enable-background:new 0 0 67.2 65.52;" xml:space="preserve">
<path style="fill-rule:evenodd;clip-rule:evenodd;fill:#FFFFFF;" d="M0,16.321c0.158-0.789,0.864-1.465,3.313-2.129
	c3.034-0.824,1.849-2.838,5.442-2.838c4.18,0,45.51,0,49.69,0c3.593,0,2.408,2.015,5.442,2.838c2.448,0.664,3.155,1.34,3.313,2.129
	C66.253,16.321,0.947,16.321,0,16.321z M52.648,7.096c2.118,0,4.023,0.913,5.344,2.365H47.304
	C48.625,8.008,50.53,7.096,52.648,7.096z M33.6,0c5.724,0,10.498,4.063,11.594,9.461H22.006C23.103,4.063,27.876,0,33.6,0z
	 M14.552,7.096c2.118,0,4.023,0.913,5.344,2.365H9.208C10.529,8.008,12.434,7.096,14.552,7.096z M61.758,21.051
	c-1.262,1.34-2.129,1.656-4.022,1.656s-46.377,0-48.271,0s-2.761-0.315-4.022-1.656c-1.262-1.34-2.707-0.803-3.076-2.129
	c0.935,0,61.41,0,62.468,0C64.464,20.248,63.02,19.711,61.758,21.051z M13.724,26.492c-1.513,0-2.85-0.748-3.665-1.892h7.329
	C16.574,25.744,15.237,26.492,13.724,26.492z M13.724,28.384c0.845,0,1.646-0.186,2.366-0.517v14.472l-5.206-7.806v-6.859h0.09
	C11.79,28.126,12.727,28.384,13.724,28.384z M15.144,50.145c0,2.419-3.313,2.435-3.313,0c0-1.971,0-10.88,0-10.88l3.313,4.967
	C15.144,44.231,15.144,48.332,15.144,50.145z M46.377,26.728c-2.687,0.971-2.228,3.253-4.969,3.548
	c-2.467,0.265-1.341,1.183-3.786,1.183c-2.445,0-5.6,0-8.045,0c-2.445,0-1.319-0.917-3.786-1.183
	c-2.741-0.295-2.282-2.578-4.969-3.548c-1.695-0.612-2.603-1.183-2.603-2.128c0.902,0,29.858,0,30.761,0
	C48.98,25.545,48.072,26.116,46.377,26.728z M21.533,30.04c0,0.902-0.021,6.453,0,7.569c0,2.849,0.204,3.548-0.237,3.548
	c0-3.548-2.603-4.238-2.603-7.806c0-1.971,0-3.469,0-5.677C19.501,27.906,21.335,28.936,21.533,30.04z M41.645,36.189
	c-1.893,1.577-0.227,4.691-3.313,6.15c-1.409,0-8.056,0-9.465,0c-3.086-1.458-1.42-4.573-3.313-6.15
	c-1.893-1.577-2.366-1.577-2.366-3.312c1.499,0,19.324,0,20.822,0C44.011,34.613,43.538,34.613,41.645,36.189z M25.082,40.684
	c0,1.735,0,4.889,0,7.569c-0.474-0.789-0.991-1.695-1.893-2.838c0-1.262,0-6.544,0-8.752C24.269,37.313,25.082,38.949,25.082,40.684
	z M24.845,54.166c0,1.326-1.42,1.34-1.42,0s0-6.386,0-6.386l1.42,2.129C24.845,49.909,24.845,52.905,24.845,54.166z M38.333,61.025
	H38.32c-0.124,2.502-2.187,4.494-4.72,4.494s-4.596-1.992-4.72-4.494h-0.012v-17.03h9.465V61.025z M43.775,36.663
	c0,2.208,0,7.49,0,8.752c-0.902,1.143-1.42,2.05-1.893,2.838c0-2.681,0-5.834,0-7.569C41.882,38.949,42.695,37.313,43.775,36.663z
	 M43.538,54.166c0,1.34-1.42,1.326-1.42,0c0-1.261,0-4.257,0-4.257l1.42-2.129C43.538,47.78,43.538,52.826,43.538,54.166z
	 M45.431,30.04c0.197-1.104,2.031-2.134,2.839-2.365c0,2.208,0,3.706,0,5.677c0,3.568-2.603,4.258-2.603,7.806
	c-0.441,0-0.236-0.699-0.236-3.548C45.451,36.492,45.431,30.942,45.431,30.04z M53.476,26.492c-1.513,0-2.85-0.748-3.665-1.892
	h7.329C56.326,25.744,54.989,26.492,53.476,26.492z M55.989,27.674h0.09v6.859l-5.206,7.806V27.867
	c0.72,0.331,1.521,0.517,2.366,0.517C54.237,28.384,55.174,28.126,55.989,27.674z M55.132,50.145c0,2.435-3.313,2.419-3.313,0
	c0-1.813,0-5.914,0-5.914l3.313-4.967C55.132,39.265,55.132,48.174,55.132,50.145z"/>
</svg>
