<?xml version="1.0" encoding="iso-8859-1"?>
<!-- Generator: Adobe Illustrator 16.0.0, SVG Export Plug-In . SVG Version: 6.00 Build 0)  -->
<!DOCTYPE svg PUBLIC "-//W3C//DTD SVG 1.1//EN" "http://www.w3.org/Graphics/SVG/1.1/DTD/svg11.dtd">
<svg version="1.1" id="Layer_1" xmlns="http://www.w3.org/2000/svg" xmlns:xlink="http://www.w3.org/1999/xlink" x="0px" y="0px"
	 width="35.28px" height="67.199px" viewBox="0 0 35.28 67.199" style="enable-background:new 0 0 35.28 67.199;"
	 xml:space="preserve">
<path style="fill-rule:evenodd;clip-rule:evenodd;fill:#FFFFFF;" d="M27.853,67.199c-2.399,0-6.285,0-10.212,0s-7.813,0-10.212,0
	C2.321,67.199,0,66.967,0,62.556s0-37.608,0-46.43C0,8.606,2.189,6.112,5.571,3.844v55.694c0,1.282,1.039,2.322,2.321,2.322h9.749
	h9.749c1.282,0,2.321-1.04,2.321-2.322V3.844c3.382,2.269,5.571,4.762,5.571,12.283c0,8.821,0,42.019,0,46.43
	S32.959,67.199,27.853,67.199z M26.574,60.002h-4.405c-0.706,0-1.279-0.573-1.279-1.279v-3.709c0-0.707,0.573-1.279,1.279-1.279
	h4.405c0.707,0,1.279,0.573,1.279,1.279v3.709C27.853,59.43,27.28,60.002,26.574,60.002z M24.604,51.645c-1.857,0-3.714,0-3.714,0
	s0.043-35.563,0.043-40.275c2.538,0.443,4.959,1.333,6.92,2.667c0,0,0,31.108,0,34.59C27.853,52.109,26.46,51.645,24.604,51.645z
	 M16.016,11.45c0-0.366,0.297-0.664,0.663-0.664h0.961h0.961c0.366,0,0.663,0.297,0.663,0.664v1.923
	c0,0.366-0.297,0.664-0.663,0.664H17.64h-0.961c-0.366,0-0.663-0.297-0.663-0.664V11.45z M16.016,16.558
	c0-0.367,0.297-0.664,0.663-0.664h0.961h0.961c0.366,0,0.663,0.297,0.663,0.664v2.62c0,0.367-0.297,0.664-0.663,0.664H17.64h-0.961
	c-0.366,0-0.663-0.297-0.663-0.664V16.558z M16.016,22.361c0-0.367,0.297-0.664,0.663-0.664h0.961h0.961
	c0.366,0,0.663,0.297,0.663,0.664v3.548c0,0.366-0.297,0.663-0.663,0.663H17.64h-0.961c-0.366,0-0.663-0.297-0.663-0.663V22.361z
	 M16.016,28.861c0-0.366,0.297-0.663,0.663-0.663h0.961h0.961c0.366,0,0.663,0.297,0.663,0.663v4.709
	c0,0.366-0.297,0.663-0.663,0.663H17.64h-0.961c-0.366,0-0.663-0.297-0.663-0.663V28.861z M16.679,44.913h0.961h0.961
	c0.366,0,0.663,0.297,0.663,0.664v13.763c0,0.366-0.297,0.663-0.663,0.663H17.64h-0.961c-0.366,0-0.663-0.297-0.663-0.663V45.576
	C16.016,45.21,16.313,44.913,16.679,44.913z M16.016,36.522c0-0.367,0.297-0.664,0.663-0.664h0.961h0.961
	c0.366,0,0.663,0.297,0.663,0.664v6.102c0,0.366-0.297,0.663-0.663,0.663H17.64h-0.961c-0.366,0-0.663-0.297-0.663-0.663V36.522z
	 M13.112,53.734c0.706,0,1.279,0.573,1.279,1.279v3.709c0,0.707-0.573,1.279-1.279,1.279H8.707c-0.707,0-1.279-0.573-1.279-1.279
	v-3.709c0-0.707,0.572-1.279,1.279-1.279H13.112z M7.428,14.037c1.961-1.334,4.382-2.224,6.919-2.667
	c0,4.711,0.043,40.275,0.043,40.275s-1.857,0-3.714,0c-1.856,0-3.249,0.464-3.249-3.018C7.428,45.145,7.428,14.037,7.428,14.037z
	 M7.428,11.483c0,0,0-6.084,0-8.822C10.19,0.949,13.912,0.068,17.64,0c3.728,0.068,7.45,0.949,10.212,2.662c0,2.738,0,8.822,0,8.822
	c-2.799-1.905-6.537-2.901-10.212-2.987C13.964,8.582,10.227,9.579,7.428,11.483z"/>
</svg>
