<?xml version="1.0" encoding="iso-8859-1"?>
<!-- Generator: Adobe Illustrator 16.0.0, SVG Export Plug-In . SVG Version: 6.00 Build 0)  -->
<!DOCTYPE svg PUBLIC "-//W3C//DTD SVG 1.1//EN" "http://www.w3.org/Graphics/SVG/1.1/DTD/svg11.dtd">
<svg version="1.1" id="Layer_1" xmlns="http://www.w3.org/2000/svg" xmlns:xlink="http://www.w3.org/1999/xlink" x="0px" y="0px"
	 width="61.445px" height="67.203px" viewBox="0 0 61.445 67.203" style="enable-background:new 0 0 61.445 67.203;"
	 xml:space="preserve">
<path style="fill-rule:evenodd;clip-rule:evenodd;fill:#FFFFFF;" d="M55.875,35.71c3.884-4.089,8.218-22.029-7.566-30.483
	c-14.623-7.832-26.677,3.371-28.55,9.014C22.674,2.421,39.169-4.255,50.993,3.033C63.733,10.885,64.082,27.574,55.875,35.71z
	 M19.758,14.242c-0.099,0.403-0.184,0.813-0.251,1.228C19.523,15.104,19.609,14.69,19.758,14.242z M47.682,7.774
	c9.759,5.487,13.49,17.358,8.333,26.514c-1.821,3.233-4.509,5.692-7.652,7.283c-0.209,0.727-0.463,1.493-0.787,2.431
	c-0.717,2.078-0.65,3.82-0.488,5.365c-0.921-2.957-3.132-6.099-3.58-6.717c-0.176-0.193-0.365-0.393-0.569-0.599
	c0.673-1.273,1.054-2.266,1.698-4.117c0.031-0.015,0.061-0.033,0.092-0.049c0.563-1.929,0.562-5.942,0.406-8.271
	c-0.163-2.438,0.687-3.271,1.708-3.414c1.533-0.213,3.173,1.463,2.685,7.316c-0.005,0.07-0.011,0.136-0.017,0.204
	c0.02-0.028,0.042-0.055,0.061-0.083c-0.074,0.799-0.168,1.657-0.279,2.503c-0.11,1.114-0.219,2.006-0.344,2.788
	c2.26-2.854,2.507-6.703,2.317-8.986c1.608-5.848-1.151-12.422-7.022-15.714c-6.852-3.842-15.34-1.76-18.961,4.651
	c-0.283,0.501-0.523,1.015-0.731,1.536c-0.955,0.816-4.229,2.8-6.191,3.278c-0.067-3.171,0.67-6.36,2.312-9.275
	C25.831,5.261,37.923,2.287,47.682,7.774z M29.026,19.128c1.22-1.544,2.604-2.683,3.905-1.951s2.115,4.146-2.929,8.048
	c-1.443,1.116-3.543,2.201-5.866,3.389c0.972,3.561,3.399,6.812,6.998,8.83c0.2,0.112,0.401,0.218,0.604,0.32
	c0.399,1.553,1.212,3.78,1.84,5.087c-1.556-0.451-3.09-1.085-4.571-1.918c-4.266-2.399-7.37-6.02-9.091-10.098
	c-4.658,2.591-9.214,5.85-10.66,10.73c-0.299,1.01-0.73,2.378-0.644,4.033c-0.03-0.052-0.06-0.098-0.088-0.131
	c-0.221,1.025-0.732,1.524-0.977,0.731s-1.647-2.134-3.173-1.707c-1.526,0.427-3.234,1.463-3.417,3.902
	C0.106,48.311,0.157,47.709,0,46.798c0.023-1.827,0.368-3.686,1.2-5.479C4.861,33.435,11.533,29.37,18.042,26.2
	C24.551,23.03,27.805,20.672,29.026,19.128z M4.374,47.416c2.152-0.675,4.007,0.216,5.073,1.406c0.908,1.92,2.674,4.074,5.91,6.397
	c2.568,1.844,5.308,5.223,0.977,9.267c-3.656,3.414-9.845-2.195-11.472-4.146c-0.745-0.893-2.34-3.303-3.502-6.409
	C0.995,51.236,1.365,48.36,4.374,47.416z M11.598,63.958c1.69,1.051,4.007,0.382,5.174-1.492s0.742-4.246-0.948-5.296
	c-1.691-1.05-4.007-0.382-5.174,1.493C9.482,60.537,9.907,62.908,11.598,63.958z M14.271,58.166c0.889,0.56,1.112,1.823,0.499,2.822
	c-0.614,0.999-1.831,1.355-2.72,0.795c-0.889-0.56-1.112-1.823-0.499-2.822C12.165,57.962,13.383,57.606,14.271,58.166z
	 M34.884,55.22c1.236-0.477,2.004-1.148,2.433-1.977c0.003,0.009,0.005,0.018,0.008,0.026c1.221-1.159,3.906-1.159,5.614,0.244
	s1.991,3.677,1.708,6.828c-0.033,0.313-0.049,0.56-0.052,0.752c-2.226,3.701-6.219,5.143-8.979,5.833
	c-4.556,1.138-11.797-1.219-10.251-7.072C26.91,54,32.341,56.2,34.884,55.22z M30.793,65.46c2.155-0.028,3.875-1.907,3.842-4.197
	c-0.033-2.289-1.806-4.122-3.961-4.094c-2.155,0.028-3.875,1.907-3.842,4.197C26.865,63.655,28.639,65.488,30.793,65.46z
	 M31.555,58.877c1.281-0.017,2.335,1.062,2.354,2.408s-1.003,2.452-2.284,2.469c-1.28,0.017-2.334-1.062-2.354-2.408
	S30.275,58.894,31.555,58.877z M43.183,50.342c-2.786-1.06-4.577,1.159-4.882,1.22c-0.201,0.04-0.4-0.159-0.549-0.455
	c-0.067-3.189-2.454-7.632-3.845-12.47c-2.197-7.641-1.058-13.087,2.197-18.046s4.977-4.979,6.59-3.902
	c1.271,0.849,0.813,2.845-0.244,4.39s-4.394,3.821-4.638,11.218c-0.079,2.401,0.671,4.779,1.742,7.024
	c1.251-0.098,2.475-0.355,3.635-0.771c-0.5,1.119-1.493,2.428-2.204,3.257c0.453,0.554,0.743,1.034,1.115,1.693
	c-0.059,0.008-0.118,0.013-0.177,0.02c1.821,2.885,3.625,5.349,3.943,7.066c0.273,1.477,0.393,2.818,0.385,4.041
	c-0.102,0.052-0.229,0.164-0.385,0.349c-0.305,0-0.748,0.03-0.732-0.488C45.501,53.147,44.914,51.001,43.183,50.342z M47.576,52.537
	c0.516,1.546,2.053,6.971,6.917,6.097c2.658-0.052,4.015,3.441,2.109,5.628c-0.839,0.388-1.803,0.716-2.924,0.957
	c-4.871,1.046-7.485-2.032-7.811-2.683C47.067,60.295,48.379,58.146,47.576,52.537z M58.56,59.365
	c-0.442-0.873-1.553-1.177-2.514-1.191c0.025-0.01,0.048-0.018,0.073-0.028c1.813-0.745,1.612-3.119,0.977-4.39
	c-0.345-0.689,1.22-2.764,2.929-1.219c1.387,1.253,3.013,7.389-1.834,10.821c0.054-0.124,0.097-0.239,0.126-0.335
	C58.079,62.517,59.773,61.76,58.56,59.365z"/>
</svg>
