<?xml version="1.0" encoding="iso-8859-1"?>
<!-- Generator: Adobe Illustrator 16.0.0, SVG Export Plug-In . SVG Version: 6.00 Build 0)  -->
<!DOCTYPE svg PUBLIC "-//W3C//DTD SVG 1.1//EN" "http://www.w3.org/Graphics/SVG/1.1/DTD/svg11.dtd">
<svg version="1.1" id="Layer_1" xmlns="http://www.w3.org/2000/svg" xmlns:xlink="http://www.w3.org/1999/xlink" x="0px" y="0px"
	 width="67.2px" height="36.238px" viewBox="0 0 67.2 36.238" style="enable-background:new 0 0 67.2 36.238;" xml:space="preserve"
	>
<path style="fill-rule:evenodd;clip-rule:evenodd;fill:#FFFFFF;" d="M66.909,33.616c-2.422,5.182-19.298,2.444-37.694-6.115
	S-2.13,7.803,0.291,2.621C1.874-0.765,9.63-0.768,19.948,2.024c3.068-1.589,11.039-0.122,19.524,3.826
	c8.539,3.973,14.813,9.162,15.5,12.527C63.596,24.409,68.477,30.262,66.909,33.616z M36.188,12.58
	C21.922,5.942,9.009,3.446,7.346,7.004s8.554,11.824,22.82,18.462s27.179,9.134,28.842,5.575
	C60.671,27.483,50.455,19.217,36.188,12.58z M30.694,24.336C18.055,18.456,8.85,11.461,10.133,8.714
	c1.284-2.747,12.571-0.207,25.21,5.674S57.188,27.263,55.904,30.01S43.333,30.217,30.694,24.336z M31.14,24.268
	c1.94,0.903,3.607,1.432,3.724,1.182s-1.361-1.184-3.301-2.086c-1.94-0.902-3.607-1.432-3.724-1.182
	C27.722,22.432,29.2,23.366,31.14,24.268z M15.466,11.47c-2.127-0.99-3.994-1.488-4.169-1.114c-0.175,0.375,1.407,1.48,3.535,2.471
	c2.127,0.99,3.994,1.488,4.169,1.114C19.176,13.566,17.593,12.46,15.466,11.47z M35.042,15.624
	c-2.503-1.165-4.721-1.704-4.955-1.204s1.606,1.849,4.109,3.013c2.503,1.165,4.721,1.704,4.955,1.205S37.544,16.789,35.042,15.624z
	 M33.985,17.885c-7.008-3.261-13.209-4.791-13.851-3.417c-0.642,1.374,4.519,5.13,11.526,8.391
	c7.008,3.261,13.209,4.791,13.852,3.417S40.993,21.146,33.985,17.885z M50.813,27.917c-2.127-0.99-3.994-1.489-4.169-1.114
	c-0.175,0.375,1.408,1.48,3.535,2.47s3.994,1.489,4.169,1.114C54.523,30.013,52.941,28.907,50.813,27.917z M31.872,22.407
	c-3.003-1.397-5.107-3.239-4.698-4.113c0.408-0.874,3.174-0.45,6.178,0.948s5.107,3.239,4.698,4.113
	C37.641,24.229,34.875,23.804,31.872,22.407z"/>
</svg>
