<?xml version="1.0" encoding="iso-8859-1"?>
<!-- Generator: Adobe Illustrator 16.0.0, SVG Export Plug-In . SVG Version: 6.00 Build 0)  -->
<!DOCTYPE svg PUBLIC "-//W3C//DTD SVG 1.1//EN" "http://www.w3.org/Graphics/SVG/1.1/DTD/svg11.dtd">
<svg version="1.1" id="Layer_1" xmlns="http://www.w3.org/2000/svg" xmlns:xlink="http://www.w3.org/1999/xlink" x="0px" y="0px"
	 width="67.197px" height="31.207px" viewBox="0 0 67.197 31.207" style="enable-background:new 0 0 67.197 31.207;"
	 xml:space="preserve">
<path style="fill-rule:evenodd;clip-rule:evenodd;fill:#FFFFFF;" d="M63.235,17.506c0,0.761,1.464,0.609,3.047,0.609
	c0.457,1.218,0.305,3.197-2.438,3.958c-2.304,0.64-4.281,1.17-5.489,1.415c-0.075-1.28-1.423-4.154-3.348-4.154
	c-2.82,0-2.667,4.11-2.743,5.48c0,0.005,0,0.01,0,0.016c-0.267,0.013-0.694,0.035-1.25,0.062c0.082-0.456,0.081-1.343,0.032-3.122
	c-0.09-3.228,0.123-8.226,3.829-10.93c0.14-0.022,0.376-0.122,0.742-0.335c1.828-1.065,4.266-0.305,5.485,0
	c-1.157-0.55-2.948-0.9-4.141-0.966c-0.085-0.524-0.881-2.071-3.478-6.95c-0.017-0.019-0.037-0.038-0.055-0.057
	c2.362,1.238,3.427,2.577,4.203,3.291c1.011,0.932,3.166,4.377,3.166,4.377c2.895,0.457,4.876,1.218,5.79,1.522
	c0.457,0.761,0.609,3.958,0.609,5.176C64.86,16.897,63.235,16.745,63.235,17.506z M50.395,24.921
	c-3.619,0.175-10.769,0.501-13.67,0.501c-1.524-1.827-1.981-2.588-3.047-3.653c-1.067-1.066-0.914-1.827-10.361-1.827
	c-6.706,0-8.075,0.152-9.447,1.827c-1.371,1.674-2.743,3.349-2.743,3.349c-3.199,0.152-8.228,0-10.36,0
	C0.069,23.517-3.057,9.821,11.432,6.85c3.047-1.979,6.704-4.567,10.36-6.089c2.895-0.609,20.417-1.827,30.473,1.218
	c0.028,0.012,0.053,0.024,0.081,0.037c1.478,1.576,3.321,6.432,3.88,7.271C54.123,9.987,49.451,13.057,50.395,24.921z M8.384,16.897
	c-0.505,0-0.914,0.409-0.914,0.914s0.409,0.913,0.914,0.913s0.914-0.409,0.914-0.913S8.889,16.897,8.384,16.897z M12.65,16.897
	c-0.505,0-0.914,0.409-0.914,0.914s0.409,0.913,0.914,0.913s0.914-0.409,0.914-0.913S13.155,16.897,12.65,16.897z M6.86,19.942
	c-2.234,0-4.193,0.002-4.266-0.914c-0.203-2.537,1.422-5.785,0-4.872c-0.711,1.929-1.219,4.053-1.219,7.003
	c0,0.812,0.609,1.522,2.743,1.522c2.133,0,4.672,0,5.79,0c1.118,0,2.789-1.873,3.657-2.74C10.924,19.942,9.095,19.942,6.86,19.942z
	 M39.162,22.378c1.422,0,4.774,0,6.704,0c1.93,0,2.743-0.203,2.743-2.131s0.305-4.073,1.219-5.785
	c0.479-0.896-0.877-0.461-1.523,1.218c-1.016,2.639-0.102,4.263-2.743,4.263c-3.25,0-7.618,0-10.97,0
	C36.826,21.871,37.74,22.378,39.162,22.378z M40.686,17.811c0-0.504-0.41-0.914-0.914-0.914c-0.505,0-0.915,0.409-0.915,0.914
	s0.41,0.913,0.915,0.913C40.276,18.724,40.686,18.315,40.686,17.811z M35.2,18.724c0.505,0,0.914-0.409,0.914-0.913
	s-0.409-0.914-0.914-0.914s-0.914,0.409-0.914,0.914S34.695,18.724,35.2,18.724z M51.046,2.588
	c-5.892-2.334-26.41-1.522-28.34-1.218c-1.93,0.304-6.907,3.755-8.533,5.176c0.406-0.102,1.016,0,1.524,0
	c1.828,1.522,5.79,0.507,7.313-0.305C31.34,4.313,37.232,5.43,40.686,6.85c1.93,1.117,5.079,0.711,6.094-0.304
	c1.219,0,2.438-0.102,5.485,0.304C52.367,5.632,51.757,2.994,51.046,2.588z M11.126,26.945H0.766v-0.914h10.36V26.945z
	 M12.346,30.903c-2.658,0-5.048-1.175-6.702-3.044h13.404C17.393,29.728,15.003,30.903,12.346,30.903z M12.65,24.813
	c1.232-1.434,2.743-3.958,4.875-3.958c2.133,0,11.072,0,12.799,0c1.727,0,3.275,2.416,4.266,3.654
	c0.406,0.507-1.828,1.218-11.58,1.218S12.089,25.467,12.65,24.813z M23,24.813c7.932,0,9.75-0.444,9.419-0.761
	c-0.806-0.773-2.065-2.283-3.47-2.283s-8.676,0-10.411,0c-1.735,0-2.963,1.577-3.966,2.474C14.115,24.651,15.067,24.813,23,24.813z
	 M51.046,25.727c1.405-0.642,1.19,0.752,0,0.913c-3.86,0.609-14.018,0.305-14.018,0.305v-0.914
	C37.029,26.031,47.593,26.234,51.046,25.727z M52.57,26.945c1.158,0,2.621,0,3.047,0c-0.427,0.792-1.097,1.583-1.829,2.131
	c-0.063,0.047-0.154,0.076-0.264,0.091c-1.752,1.279-3.928,2.04-6.288,2.04c-3.081,0-5.851-1.292-7.769-3.349h10.663
	C51.534,27.858,52.265,27.249,52.57,26.945z M52.849,26.054c0.008-0.008,0.017-0.014,0.025-0.023
	c-0.305-4.795,1.141-6.037,2.133-6.089c1.436-0.076,2.871,1.498,3.042,3.604c-0.107,0.019-0.209,0.037-0.299,0.049
	C57.75,24.939,57.6,26.429,52.849,26.054z M64.759,22.987l-6.399,1.827V23.9l6.399-1.522V22.987z"/>
</svg>
