<?xml version="1.0" encoding="iso-8859-1"?>
<!-- Generator: Adobe Illustrator 16.0.0, SVG Export Plug-In . SVG Version: 6.00 Build 0)  -->
<!DOCTYPE svg PUBLIC "-//W3C//DTD SVG 1.1//EN" "http://www.w3.org/Graphics/SVG/1.1/DTD/svg11.dtd">
<svg version="1.1" id="Layer_1" xmlns="http://www.w3.org/2000/svg" xmlns:xlink="http://www.w3.org/1999/xlink" x="0px" y="0px"
	 width="67.208px" height="48.963px" viewBox="0 0 67.208 48.963" style="enable-background:new 0 0 67.208 48.963;"
	 xml:space="preserve">
<path style="fill-rule:evenodd;clip-rule:evenodd;fill:#FFFFFF;" d="M54.587,43.032c-0.425,0.269-1.134,0.459-1.981,0.604
	c2.302-0.61,5.083-2.613,2.515-5.392c-1.915-2.072-4.451-3.213-6.931-3.973c1.931,0.186,4.14,0.125,6.664-0.282
	c9.082-1.463,10.75-5.118,12.021-6.383C67.008,27.474,70.08,41.569,54.587,43.032z M54.602,32.15l-9.899-9.596l-6.678,2.394
	c-0.134,0,17.601-19.819,17.601-19.819l4.227-2.742l5.202,3.226l-10.2,26.516C54.854,32.128,54.76,32.138,54.602,32.15z
	 M24.874,20.075l-2.61-3.638l-10.685,2.128c1.603-1.33,22.735-16.697,22.735-16.697L41.502,0l1.055,3.113l-9.875,13.324
	C32.682,16.437,28.717,18.746,24.874,20.075z M0,21.852c0.222-2.902,2.05-6.301,7.839-8.606c0.667-0.266-0.935,3.191,0.534,5.585
	c0.511,0.833,1.59,1.859,3.122,2.709c-1.683-0.784-4.552-1.535-7.931-1.645C1.707,19.833,0.511,20.787,0,21.852z M12.38,22.021
	c-0.08-0.052-0.167-0.106-0.259-0.159c2.872,1.388,7.072,2.095,12.013,0.159c8.147-3.191,9.616-5.585,11.219-5.319
	c1.603,0.266,0.134,5.718,1.335,9.574c0.827,2.653,3.429,6.22,8.88,7.56c3.201,1.247,8.127,3.278,9.018,4.94
	c1.04,1.941,0.364,4.379-2.932,5c-1.961,0.246-4.34,0.342-5.883,0.585c-2.538,0.399-14.292,5.718-19.233,1.33
	c-4.776,2.002-8.842,4.121-11.754,2.923c-0.267-2.658-0.038-4.34,1.603-6.647c1.18-1.658,2.303-3.071,2.869-3.93
	c1.29,0.333,5.034,0.234,10.221-1.655c-2.404,0.665-7.107,1.295-9.617,1.064c-1.749-0.161-4.408-3.989-4.541-7.979
	c-0.128,1.658-0.622,4.663,3.228,8.074c-1.292,1.885-2.852,3.874-4.029,6.554c-0.799,1.818-0.427,3.922,0.031,4.414
	c-0.101-0.049-0.201-0.101-0.298-0.159c-2.938-1.729-2.404-4.92-2.404-7.979c-2.805-1.729-4.541-3.856-6.144-7.181
	c-1.599-3.317-5.058-6.104-5.604-9.286C0.206,18.847,9.686,21.236,12.38,22.021z M32.415,26.543c-0.267-1.463,0-4.255-1.068-4.787
	c-1.069-0.532-5.877,1.729-7.479,2.394c2.271-0.399,6.277-1.862,6.945-1.862c0.667,0,0.667,2.394,0.801,3.989
	c0.062,0.734,0.377,2.031,0.739,3.398c-0.035,0.414-0.192,0.638-0.472,0.592c-0.01-0.002-0.014,0.001-0.022,0
	c-0.156-0.17-0.325-0.347-0.512-0.533c-2.471-2.46-7.813-5.851-14.692-2.925c2.404-0.931,11.287-2.66,16.562,6.915
	c0.053-0.074,0.103-0.165,0.142-0.272c0.047,0.193,0.09,0.377,0.125,0.538C33.884,32.793,32.682,28.006,32.415,26.543z
	 M46.96,40.983c2.352,0.728,4.564,0.389,4.94-0.756c0.376-1.145-1.226-2.664-3.578-3.391c-2.352-0.728-4.563-0.389-4.94,0.756
	C43.006,38.738,44.608,40.256,46.96,40.983z M29.209,44.894c3.606,2.66,9.483-0.266,14.158-1.596
	C40.563,43.431,33.75,43.564,29.209,44.894z M19.86,36.383c3.206,1.197,10.151-0.399,11.487-1.862
	c0.4-1.197,0.267-1.596,0.267-1.596s-2.271-3.989-6.945-5.319c-4.675-1.33-6.945-0.133-8.014,0.266
	C15.586,29.602,16.654,35.187,19.86,36.383z M11.045,37.181c-0.535-1.862-4.542-6.782-6.411-8.511
	C6.637,31.729,8.908,37.447,11.045,37.181z M7.073,26.878c2.128,0.777,4.17,0.549,4.561-0.511c0.39-1.06-1.019-2.548-3.147-3.326
	c-2.128-0.777-4.17-0.549-4.561,0.511C3.537,24.611,4.945,26.101,7.073,26.878z M8.02,24.087c0.946,0.349,1.572,1.017,1.398,1.491
	c-0.173,0.475-1.081,0.578-2.026,0.229c-0.946-0.349-1.572-1.016-1.398-1.491C6.167,23.841,7.074,23.738,8.02,24.087z
	 M47.824,37.901c1.094,0.354,1.839,1.094,1.665,1.652c-0.175,0.558-1.204,0.723-2.298,0.369s-1.839-1.094-1.664-1.652
	C45.702,37.712,46.73,37.547,47.824,37.901z"/>
</svg>
