<?xml version="1.0" encoding="iso-8859-1"?>
<!-- Generator: Adobe Illustrator 16.0.0, SVG Export Plug-In . SVG Version: 6.00 Build 0)  -->
<!DOCTYPE svg PUBLIC "-//W3C//DTD SVG 1.1//EN" "http://www.w3.org/Graphics/SVG/1.1/DTD/svg11.dtd">
<svg version="1.1" id="Layer_1" xmlns="http://www.w3.org/2000/svg" xmlns:xlink="http://www.w3.org/1999/xlink" x="0px" y="0px"
	 width="67.199px" height="66.243px" viewBox="0 0 67.199 66.243" style="enable-background:new 0 0 67.199 66.243;"
	 xml:space="preserve">
<path style="fill-rule:evenodd;clip-rule:evenodd;fill:#FFFFFF;" d="M59.285,26.929c-1.391,0.995-3.019,1.905-4.724,2.698
	c-0.191,0.017-0.418,0.047-0.626,0.08c-0.941,0.149-7.005,0.947-9.982-0.593c-5.333-2.76-5.483-6.053-6.28-7.697
	c1.773,9.701,11.379,9.948,15.16,8.948c0.038-0.01,0.071-0.019,0.107-0.029c-1.244,0.513-2.5,0.959-3.713,1.327
	c-2.161,0.08-4.795-0.049-6.462-0.912c-5.333-2.76-5.483-6.053-6.28-7.698c1.215,6.645,6.104,8.854,10.279,9.265
	c-0.945,0.212-1.83,0.364-2.616,0.443l-1.254,1.589c0.051,0.779-0.05,1.952-0.585,4.199c-3.016,12.676-19.654,17.459-24.082,9.458
	c-2.301-9.08,4.693-15.578,9.553-18.989c-1.325,0.383-3.35,1.065-5.282,1.962c3.099-2.911,6.966-4.758,9.995-5.667l1.729-2.032
	c0.002-0.056,0.007-0.114,0.01-0.17c0.034,0.013,0.064,0.031,0.099,0.042c0.612-5.287,8.505-12.572,16.245-17.78
	c-1.609,0.255-7.7,2.026-11.628,3.923c1.534-1.776,3.555-3.319,6.229-4.517c8.334-3.733,17.853-8.089,21.313-0.959
	C68.991,8.976,64.485,23.209,59.285,26.929z M40.612,40.023c1.879-2.229,1.904-2.547,1.473-2.889
	c-0.563-0.445-1.022,0.403-1.697,1.476C41.181,37.52,43.057,35.653,40.612,40.023z M33.075,45.883
	c1.153,0.952,3.366,0.188,4.943-1.705s1.921-4.201,0.769-5.153c-1.152-0.952-3.366-0.188-4.943,1.705
	C32.266,42.624,31.922,44.931,33.075,45.883z M31.081,36.161c-0.861-0.714-2.512-0.144-3.688,1.276
	c-1.176,1.419-1.432,3.149-0.571,3.863c0.861,0.715,2.512,0.144,3.688-1.275C31.686,38.605,31.941,36.875,31.081,36.161z
	 M32.165,38.463c1.919-2.356,4.024-3.534,2.749-0.918c0.762-0.905,1.238-1.705,0.644-2.033
	C34.963,35.184,34.187,35.608,32.165,38.463z M34.28,24.368c-1.74,1.965-2.397,5.696,0.596,8.355
	c3.673,3.263,7.196,1.275,8.224,0.147C38.381,32.772,34.609,29.506,34.28,24.368z M58.396,15.354
	c-0.119-0.153-0.442-0.076-0.721,0.173c-0.28,0.249-0.41,0.575-0.291,0.728c0.119,0.153,0.442,0.076,0.722-0.173
	C58.385,15.833,58.515,15.507,58.396,15.354z M61.346,16.234c-0.132-0.005-0.247,0.312-0.257,0.707s0.088,0.719,0.22,0.724
	c0.131,0.004,0.246-0.312,0.256-0.707C61.576,16.563,61.478,16.239,61.346,16.234z M62.18,17.066
	c-0.132-0.004-0.246,0.259-0.255,0.588c-0.009,0.329,0.09,0.6,0.222,0.604c0.132,0.004,0.246-0.259,0.255-0.588
	C62.411,17.341,62.312,17.07,62.18,17.066z M61.896,19.031c-0.966-1.537-3.188-2.875-8.484-1.796
	c1.412-1.752,3.231-3.972,4.605-7.488c-1.444,2.562-5.048,6.144-7.194,7.898c-0.854,0.699-0.26,1.409,2.267,0.607
	s8.437-0.607,8.05,2.106c-0.152,1.07,3.001-1.671,4.061-7.885C64.158,15.535,62.738,18.254,61.896,19.031z M56.243,15.498
	c-0.142-0.171-0.534-0.079-0.875,0.205c-0.342,0.284-0.503,0.653-0.362,0.824c0.142,0.171,0.534,0.08,0.875-0.205
	C56.223,16.038,56.385,15.669,56.243,15.498z M28.009,40.07c-0.437-0.385-0.316-1.305,0.269-2.055
	c0.585-0.75,1.414-1.046,1.85-0.662c0.437,0.385,0.316,1.305-0.269,2.055C29.274,40.159,28.446,40.455,28.009,40.07z M37.792,40.59
	c0.65,0.542,0.458,1.851-0.43,2.925c-0.888,1.074-2.135,1.506-2.786,0.965c-0.65-0.542-0.458-1.851,0.43-2.925
	C35.895,40.481,37.142,40.049,37.792,40.59z M33.425,23.537c-0.615,0.178-2.873-0.652-2.96-1.946
	c-0.618-9.155,9.042-11.973,17.632-15.103C34.204,16.251,33.863,21.215,33.425,23.537z M18.904,50.702
	c6.817,5.824,17.408-0.743,21.201-6.252c-8.726,12.858-21.574,13.039-26.379,6.814c-0.22,0.665-0.838,1.148-1.576,1.148
	c-0.921,0-1.667-0.747-1.667-1.669c0-0.089,0.013-0.174,0.026-0.259c-0.047,0.012-0.095,0.02-0.145,0.02
	c-0.329,0-0.596-0.267-0.596-0.596s0.267-0.596,0.596-0.596c0.236,0,0.438,0.139,0.535,0.339c0.306-0.351,0.75-0.577,1.252-0.577
	c0.12,0,0.236,0.014,0.349,0.038c-0.43-1.076-0.67-2.27-0.679-3.565c-0.072-10.128,10.446-14.288,13.05-15.102
	C20.82,32.292,12.036,44.835,18.904,50.702z M15.484,56.347c0,1.603-1.021,2.963-2.445,3.476c0.574,0.085,1.016,0.576,1.016,1.174
	c0,0.659-0.534,1.192-1.191,1.192s-1.191-0.534-1.191-1.192c0-0.403,0.202-0.759,0.508-0.975c-0.128,0.014-0.258,0.021-0.389,0.021
	c-0.972,0-1.853-0.378-2.512-0.993c-0.1,0.96-0.91,1.708-1.896,1.708c-1.052,0-1.906-0.854-1.906-1.908s0.854-1.908,1.906-1.908
	c0.285,0,0.554,0.064,0.797,0.176C8.129,56.87,8.1,56.612,8.1,56.347c0-2.041,1.653-3.696,3.692-3.696S15.484,54.306,15.484,56.347z
	 M6.432,54.797c-0.526,0-0.953-0.427-0.953-0.954s0.427-0.954,0.953-0.954s0.953,0.427,0.953,0.954S6.958,54.797,6.432,54.797z
	 M5.122,52.412c-0.723,0-1.31-0.587-1.31-1.312s0.587-1.312,1.31-1.312c0.724,0,1.311,0.587,1.311,1.312S5.845,52.412,5.122,52.412z
	 M2.859,58.135c-0.526,0-0.953-0.427-0.953-0.954s0.427-0.954,0.953-0.954c0.526,0,0.953,0.427,0.953,0.954
	S3.385,58.135,2.859,58.135z M0.715,64.097C0.32,64.097,0,63.776,0,63.381s0.32-0.715,0.715-0.715s0.714,0.32,0.714,0.715
	S1.109,64.097,0.715,64.097z M4.526,62.904c0.789,0,1.429,0.641,1.429,1.431c0,0.79-0.64,1.431-1.429,1.431
	c-0.79,0-1.43-0.641-1.43-1.431C3.097,63.545,3.737,62.904,4.526,62.904z M8.457,65.051c0.329,0,0.595,0.267,0.595,0.596
	c0,0.329-0.267,0.596-0.595,0.596c-0.329,0-0.596-0.267-0.596-0.596C7.861,65.317,8.128,65.051,8.457,65.051z M13.459,62.666
	c0.46,0,0.833,0.374,0.833,0.834s-0.373,0.835-0.833,0.835s-0.834-0.374-0.834-0.835S12.999,62.666,13.459,62.666z M16.318,59.328
	c0.329,0,0.596,0.267,0.596,0.596c0,0.329-0.267,0.596-0.596,0.596c-0.329,0-0.595-0.267-0.595-0.596
	C15.723,59.594,15.989,59.328,16.318,59.328z M17.867,57.301c0-0.856,0.693-1.55,1.548-1.55c0.855,0,1.548,0.694,1.548,1.55
	c0,0.624-0.371,1.159-0.902,1.405c0.661,0.222,1.141,0.839,1.141,1.576c0,0.922-0.747,1.669-1.667,1.669s-1.667-0.748-1.667-1.669
	c0-0.688,0.416-1.277,1.009-1.533C18.288,58.529,17.867,57.966,17.867,57.301z M23.346,56.943c0.526,0,0.953,0.427,0.953,0.954
	c0,0.526-0.427,0.954-0.953,0.954c-0.526,0-0.953-0.427-0.953-0.954C22.393,57.37,22.819,56.943,23.346,56.943z M41.417,42.069
	c0.491-0.963,0.933-2.24,1.201-3.087C42.808,39.676,42.362,41.437,41.417,42.069z M66.874,13.898
	c-0.333,3.996-2.412,18.328-13.025,16.788C57.374,29.082,62.745,28.474,66.874,13.898z"/>
</svg>
