<?xml version="1.0" encoding="iso-8859-1"?>
<!-- Generator: Adobe Illustrator 16.0.0, SVG Export Plug-In . SVG Version: 6.00 Build 0)  -->
<!DOCTYPE svg PUBLIC "-//W3C//DTD SVG 1.1//EN" "http://www.w3.org/Graphics/SVG/1.1/DTD/svg11.dtd">
<svg version="1.1" id="Layer_1" xmlns="http://www.w3.org/2000/svg" xmlns:xlink="http://www.w3.org/1999/xlink" x="0px" y="0px"
	 width="67.2px" height="62.64px" viewBox="0 0 67.2 62.64" style="enable-background:new 0 0 67.2 62.64;" xml:space="preserve">
<path style="fill-rule:evenodd;clip-rule:evenodd;fill:#FFFFFF;" d="M66.057,61.489c0.031-0.624,0.062-1.95-0.498-1.95
	c-0.477,0-0.487,1.313-0.485,2.04l-1.138,0.104v-7.986l3.264,0.896v6.792L66.057,61.489z M66.52,51.359c0,0-0.134-0.105-0.525-0.316
	l1.206,0.478v1.294C66.452,52.491,66.52,51.359,66.52,51.359z M54.644,6.054c0-0.292-0.401-0.403-0.773-0.445
	c0.104-0.013,0.207-0.021,0.309-0.021c9.068,5.899,10.463,6.055,10.463,7.685c0,1.439,0,23.186,0,36.676l-9.999-3.576
	C54.644,30.349,54.644,6.415,54.644,6.054z M54.179,46.207l-4.186-1.497c0,0-0.329,0.022-0.93,0.087c0-10.447,0-23.428,0-30.148
	c0.305-0.609,0.639-1.607,0.93-3.238c0.678-3.802,2.186-5.407,3.591-5.75c0.267,0.122,0.595,0.449,0.595,1.325
	C54.179,7.953,54.179,30.672,54.179,46.207z M46.74,18.092c0.003,0.517,0.011,1.425,0.023,2.633h-0.025v0.699v0.555v3.726v0.466
	v3.726v0.465v3.726v0.466v3.726v0.466v3.726v0.681V45.1c-0.223,0.034-0.456,0.07-0.698,0.109v-1.986l-2.093,0.215v2.143
	c-0.227,0.044-0.46,0.09-0.697,0.138v-2.209l-2.093,0.215v2.453c-0.154,0.036-0.309,0.073-0.465,0.11v-2.515l-1.86,0.191v2.799
	c-0.154,0.042-0.31,0.084-0.465,0.127c0-11.901,0-27.489,0-28.959c0.783,0.855,4.835,2.429,7.653,0.394l-9.513-2.722v31.832
	c-1.427,0.438-2.91,0.946-4.418,1.532c0-14.29,0-36.836,0-37.788c0-1.397,0.697-1.397,1.395-1.165
	c1.86,0.776,14.649,5.589,14.649,5.589s0.374,0.052,0.838-0.78C48.509,16.575,47.381,17.619,46.74,18.092z M40.692,22.754
	l-1.86,0.239v3.726l1.86-0.239V22.754z M40.692,26.946l-1.86,0.239v3.726l1.86-0.239V26.946z M40.692,31.138l-1.86,0.239v3.726
	l1.86-0.239V31.138z M40.692,35.329l-1.86,0.239v3.726l1.86-0.239V35.329z M40.692,39.521l-1.86,0.239v3.726l1.86-0.239V39.521z
	 M43.25,22.426l-2.093,0.269v3.726l2.093-0.269V22.426z M43.25,26.618l-2.093,0.269v3.726l2.093-0.269V26.618z M43.25,30.809
	l-2.093,0.269v3.726l2.093-0.269V30.809z M43.25,35.001l-2.093,0.269v3.726l2.093-0.269V35.001z M43.25,39.192l-2.093,0.269v3.726
	l2.093-0.269V39.192z M46.04,22.068l-2.093,0.269v3.726l2.093-0.269V22.068z M46.04,26.26l-2.093,0.269v3.726l2.093-0.269V26.26z
	 M46.04,30.451l-2.093,0.269v3.726l2.093-0.269V30.451z M46.04,34.643l-2.093,0.269v3.726l2.093-0.269V34.643z M46.04,38.834
	l-2.093,0.269v3.726l2.093-0.269V38.834z M30.996,9.667c0,1.003,0,24.355,0,39.734c-2.185,0.897-4.408,1.962-6.58,3.225
	c-0.413,0.24-0.798,0.487-1.163,0.74v-5.544c0.534-0.032,0.93,0.026,0.93,0.026V35.044c0,0-0.354-0.101-0.93-0.265V5.72V1.137
	L25.526,0l15.631,7.958v3.79c-3.697-1.401-7.66-2.913-8.663-3.332C31.745,8.167,30.996,8.167,30.996,9.667z M20.927,11.069V6.621
	l1.86-0.929v28.955c-0.526-0.15-1.165-0.332-1.86-0.53V11.069z M18.602,11.53l1.628-0.819l0.232,0.119v23.153
	c-0.604-0.172-1.236-0.351-1.86-0.528V11.53z M16.742,14.958l1.395-0.697v19.062c-0.482-0.137-0.953-0.27-1.395-0.395V14.958z
	 M14.882,23.688v-0.636V22.09v-0.617v-0.951v-0.618V19.56h-0.465v0.136l-9.102-4.094l-1.594,0.796v20.549
	c-0.999,1.386-1.163,2.97-1.163,4.887V15.07L4.3,14.205l11.08,4.961l0.897-0.451v14.083c-0.532-0.15-1.009-0.284-1.395-0.391V23.688
	z M1.86,14.372v46.172H0V11.876l1.86-0.932l12.789,6.52v0.754L3.603,13.273L1.86,14.372z M14.417,32.278
	c-0.327-0.09-0.526-0.143-0.543-0.143c-2.373,0.579-4.248,1.165-5.734,1.776V21.797l1.21-0.606l5.067,2.287V32.278z M14.417,22.84
	L8.74,20.259l-1.299,0.656v13.299c-0.422,0.192-0.81,0.388-1.163,0.586V19.586l1.447-0.725l6.691,3.019V22.84z M4.418,36.147V17.329
	l1.595-0.796l8.404,3.781v0.95L7.027,17.93l-1.447,0.725v16.57C5.13,35.523,4.746,35.83,4.418,36.147z M13.719,33.066
	c0.116,0,9.534,2.794,9.534,2.794v2.794c0,0-8.699-1.723-9.534-1.863c-5.116,1.514-9.301,1.979-9.301,6.52
	c0,5.589,0,17.931,0,17.931H3.255c0,0,0-14.554,0-18.862S4.069,35.511,13.719,33.066z M13.487,37.548v8.326
	c0,0-2.093,0.874-2.093,4.192c0,3.318,2.093,3.958,2.093,3.958v7.219H5.116c0,0,0-14.088,0-17.465
	C5.116,40.435,5.576,39.488,13.487,37.548z M20.462,51.182c-0.033-0.19-0.051-0.395-0.051-0.618c0-0.223,0.019-0.427,0.051-0.615
	V51.182z M20.927,52.307v-3.456c0.478-0.616,1.21-0.877,1.86-0.979v5.524C22.138,53.256,21.405,52.951,20.927,52.307z
	 M12.995,52.941c-1.287-1.606-1.365-4.826,0.106-6.128l8.989,0.225l-8.139-1.397c0-2.615,0-7.624,0-8.108
	c4.471,0.809,9.301,1.821,9.301,1.821v7.685c0,0-3.488,0.582-3.488,3.726c0,2.092,1.544,2.946,2.577,3.284
	c-3.003,2.427-4.014,5.226-3.426,7.195h-4.732c0-1.095,0-5.796,0-7.219h7.673L12.995,52.941z M22.09,55.421
	c12.506-8.637,27.903-9.547,27.903-9.547l1.857,0.62c-0.03,1.487-0.501,1.701-1.625,1.476c-15.695,1.746-21.974,5.472-25.113,7.218
	c-3.139,1.747-4.999,3.959-3.72,7.452c-0.53,0-0.857,0-0.93,0C19.648,62.174,18.718,57.75,22.09,55.421z M23.95,57.982
	c1.86-0.815,3.953,0.466,4.65,1.63c1.775,2.962,2.073,3.026,4.378,3.027c-3.129,0-6.113,0-8.385,0
	c0.911-0.037,1.681-0.918,1.681-2.096c0-1.275-0.902-2.205-1.91-2.089c-0.907,0.104-1.578,1.036-1.578,2.089
	c0,1.054,0.671,1.985,1.578,2.089c0.042,0.005,0.085,0.005,0.127,0.006c-0.534,0-1.028,0-1.473,0
	C21.857,61.359,22.118,58.786,23.95,57.982z M34.646,55.421c8.274-3.783,14.143-4.336,15.347-4.412V62.64c-1.449,0-9.437,0-16.742,0
	C29.531,60.428,31.438,56.888,34.646,55.421z M56.271,47.97v1.863c-1.279-0.466-1.163-2.096-1.163-2.096s-0.229-0.152-0.898-0.455
	L56.271,47.97z M56.271,62.174l-1.673,0.128c0.038-0.629,0.288-3.156-0.91-3.156c-0.981,0-0.905,2.318-0.905,3.26
	c0.166,0,0.317,0,0.465,0l-2.558,0.197v-11.5l5.581,1.29V62.174z M59.205,48.719c-0.023,1.239-0.379,1.417-1.229,1.229
	c-0.423,0.052-0.834,0.106-1.239,0.162v-1.8c0.678-0.083,1.063-0.109,1.063-0.109L59.205,48.719z M57.799,62.174
	c-0.2,0-0.566,0-1.063,0v-9.573c0.506-0.073,0.867-0.106,1.063-0.12V62.174z M62.55,49.949v1.553
	c-0.968-0.388-0.88-1.747-0.88-1.747s-0.173-0.127-0.68-0.379L62.55,49.949z M62.55,61.786l-1.184,0.1
	c0.043-0.691,0.107-2.273-0.695-2.273c-0.684,0-0.683,1.574-0.68,2.39l-1.664,0.141v-9.583l4.223,1.075V61.786z M64.614,50.496
	c-0.018,1.033-0.293,1.181-0.951,1.025c-0.22,0.029-0.435,0.06-0.649,0.09v-1.494c0.328-0.039,0.513-0.052,0.513-0.052
	L64.614,50.496z M63.528,61.708c-0.109,0-0.285,0-0.513,0v-8.022c0.232-0.031,0.405-0.046,0.513-0.055V61.708z"/>
</svg>
