<?xml version="1.0" encoding="iso-8859-1"?>
<!-- Generator: Adobe Illustrator 16.0.0, SVG Export Plug-In . SVG Version: 6.00 Build 0)  -->
<!DOCTYPE svg PUBLIC "-//W3C//DTD SVG 1.1//EN" "http://www.w3.org/Graphics/SVG/1.1/DTD/svg11.dtd">
<svg version="1.1" id="Layer_1" xmlns="http://www.w3.org/2000/svg" xmlns:xlink="http://www.w3.org/1999/xlink" x="0px" y="0px"
	 width="67.199px" height="62.88px" viewBox="0 0 67.199 62.88" style="enable-background:new 0 0 67.199 62.88;"
	 xml:space="preserve">
<path style="fill-rule:evenodd;clip-rule:evenodd;fill:#FFFFFF;" d="M66.834,53.727v-2.961c0.161,0.958,0.287,1.927,0.365,2.91
	C67.079,53.693,66.957,53.71,66.834,53.727z M64.231,60.736v-5.127c0-1.269-1.146-2.308-2.603-2.411V40.187
	c0-1.175,0.953-2.127,2.129-2.127s2.129,0.952,2.129,2.127v19.147C65.888,60.346,65.18,60.667,64.231,60.736z M62.93,15.365
	c-0.417,0-0.758-0.309-0.816-0.709h-1.906c0.662-0.729,1.583-1.182,2.604-1.182c1.02,0,1.942,0.453,2.604,1.182h-1.669
	C63.688,15.057,63.347,15.365,62.93,15.365z M56.423,8.037c-0.572,0-1.049-0.406-1.159-0.945h-2.628
	c0.963-1.021,2.304-1.655,3.788-1.655s2.825,0.634,3.788,1.655h-2.628C57.473,7.631,56.996,8.037,56.423,8.037z M49.762,17.256
	c-0.165,0.81-0.88,1.418-1.739,1.418c-0.858,0-1.575-0.609-1.739-1.418h-3.21c1.236-1.259,2.938-2.058,4.827-2.121
	c0.041-0.003,0.081-0.006,0.122-0.006c0.014,0,0.027,0.002,0.04,0.002c0.026,0,0.052-0.002,0.079-0.002
	c1.985,0,3.779,0.815,5.067,2.127H49.762z M32.998,10.165h-2.129h-30.2C1.421,9.065,2.27,8.037,3.203,7.092H3.42V0.236
	C3.42,0.106,3.526,0,3.657,0c0.131,0,0.237,0.106,0.237,0.236v6.855h0.731C4.612,7.055,4.604,7.015,4.604,6.974v-5.91
	c0-0.196,0.159-0.355,0.355-0.355c0.196,0,0.354,0.159,0.354,0.355v5.91c0,0.042-0.008,0.081-0.021,0.118h0.731V2.836
	c0-0.13,0.106-0.236,0.237-0.236c0.13,0,0.236,0.106,0.236,0.236v4.255h28.375c0.933,0.945,1.782,1.974,2.535,3.073h-2.516H32.998z
	 M25.071,3.31c3.375,0,6.466,1.155,8.872,3.073H16.199C18.604,4.464,21.697,3.31,25.071,3.31z M10.874,4.964
	c1.574,0,3.018,0.533,4.14,1.418h-8.28C7.856,5.497,9.299,4.964,10.874,4.964z M10.381,41.652c5.306-2.936,2.594-7.634-0.943-8.691
	c-0.02-0.006-0.042-0.008-0.063-0.014c0.021-0.021,0.04-0.043,0.06-0.064c7.033,1.866,15.758,2.925,24.517,2.945
	c-9.638,1.217-17.923,6.759-22.857,14.616v-1.045c0-0.256-0.425-0.463-0.949-0.463c-0.524,0-0.949,0.207-0.949,0.463v3.338
	c-0.791-0.035-1.699,0.023-2.61,0.228v-4.285c0-0.252-0.425-0.457-0.949-0.457c-0.524,0-0.949,0.205-0.949,0.457v4.962
	c-0.225,0.115-0.443,0.246-0.655,0.388C2.671,53.849,1.324,53.655,0,53.444c0.14-1.619,0.4-3.203,0.761-4.748
	C2.56,45.84,5.347,44.438,10.381,41.652z M4.872,54.486c0.063,0.125,0.225,0.229,0.441,0.292v-5.254
	c0-0.196,0.159-0.354,0.355-0.354c0.196,0,0.355,0.159,0.355,0.354v5.302c0.408-0.053,0.71-0.236,0.71-0.457
	c0-0.182-0.209-0.338-0.512-0.417c1.163-0.367,2.331-0.528,3.115-0.528c-1.15,0.181-2.39,1.106-3.313,2.218v0.027
	c0,0.11-0.051,0.133-0.129,0.133c-0.792,1.001-1.32,2.129-1.292,2.999c-0.96-0.214-1.783-0.507-2.365-0.886
	C2.237,56.304,3.417,55.198,4.872,54.486z M9.809,53.653v-3.42c0-0.196,0.159-0.354,0.355-0.354c0.196,0,0.355,0.159,0.355,0.354
	v3.331c2.277,0.47,5.442,2.146,5.442,4.825c-2.267,0.871-7.168,1.163-10.68,0.547C5.292,57.102,7.344,54.583,9.809,53.653z
	 M10.519,55.308c0.67-0.038,1.183-0.231,1.183-0.465c0-0.234-0.513-0.427-1.183-0.465V55.308z M9.809,55.287v-0.888
	c-0.55,0.065-0.947,0.238-0.947,0.444S9.259,55.221,9.809,55.287z M11.094,52.904c0.625-1.157,1.323-2.271,2.088-3.332
	c2.32,0.54,5.201,0.981,8.419,1.322c-1.754,1.818-2.998,4.13-3.499,6.708c-0.437-0.038-0.878-0.072-1.313-0.112
	c0-0.001,0-0.001,0-0.002c-1.154-2.831-3.697-4.017-5.695-4.482V52.904z M25.531,49.411c0.023,0.206,0.192,0.382,0.505,0.473
	c0.601,0.175,1.492-0.024,1.99-0.446c0.439-0.372,0.425-0.791,0.005-1.005c1.055-0.288,2.164-0.445,3.311-0.445
	c0.151,0,0.302,0.005,0.452,0.011c-2.282,1.03-4.792,3.547-5.42,7.317c-0.237,1.418-0.479,1.437-2.366,1.655
	c-1.91,0.22-2.519,1.875-2.594,3.247c-0.952-0.1-1.826-0.221-2.594-0.363C19.055,55.31,21.715,51.408,25.531,49.411z M23.375,53.188
	c0.741,0,1.676-0.529,2.09-1.182s0.149-1.182-0.591-1.182c-0.307,0-0.645,0.094-0.967,0.246c0.033-0.004,0.065-0.01,0.1-0.01
	c0.392,0,0.71,0.317,0.71,0.709s-0.318,0.709-0.71,0.709c-0.392,0-0.71-0.317-0.71-0.709c0-0.166,0.059-0.316,0.154-0.437
	c-0.272,0.191-0.508,0.422-0.667,0.673C22.37,52.659,22.635,53.188,23.375,53.188z M32.998,48.224
	c0.096-0.029,0.186-0.058,0.273-0.086c0.521,0.08,1.03,0.193,1.527,0.335c-0.055,0.083-0.1,0.171-0.119,0.27
	c-0.115,0.576,0.47,1.182,1.306,1.352c0.683,0.14,1.316-0.058,1.59-0.448c3.321,1.905,5.686,5.285,6.199,9.247
	c-2.197,0.671-5.179,1.127-8.385,1.389c-1.342-1.53-1.924-3.312-3.574-3.312c-1.742,0-2.682-0.236-3.549-0.236
	s-1.183-0.394-0.946-1.655C27.556,53.818,28.896,49.484,32.998,48.224z M33.589,53.188c0.98,0,1.774-0.529,1.774-1.182
	s-0.794-1.182-1.774-1.182s-1.775,0.529-1.775,1.182S32.609,53.188,33.589,53.188z M34.417,51.651c0,0.457-0.371,0.827-0.828,0.827
	s-0.828-0.37-0.828-0.827s0.371-0.827,0.828-0.827S34.417,51.194,34.417,51.651z M41.56,51.692c2.154-0.035,4.283-0.107,6.345-0.219
	v6.841c-1.142,0.044-2.285,0.083-3.429,0.11C44.146,55.889,43.107,53.575,41.56,51.692z M36.784,48.933
	c0,0.392-0.318,0.709-0.71,0.709s-0.71-0.317-0.71-0.709c0-0.392,0.318-0.709,0.71-0.709S36.784,48.541,36.784,48.933z
	 M27.556,48.696c0,0.392-0.318,0.709-0.71,0.709s-0.71-0.317-0.71-0.709c0-0.392,0.318-0.709,0.71-0.709
	S27.556,48.305,27.556,48.696z M46.465,44.473c-1.157,0.196-1.927,1.346-1.72,2.568c0.207,1.223,1.313,2.056,2.47,1.86
	c0.25-0.042,0.481-0.132,0.69-0.254v1.318c-2.54,0.13-5.15,0.212-7.772,0.241c-0.454-0.405-0.933-0.782-1.439-1.123
	c0.945-0.265,1.639-1.131,1.639-2.16c0-1.24-1.006-2.246-2.248-2.246c-1.241,0-2.248,1.005-2.248,2.246
	c0,0.264,0.048,0.516,0.131,0.751c-1.475-0.56-3.074-0.869-4.746-0.869c-0.002,0-0.005,0-0.007,0
	c0.078-1.132-0.666-2.15-1.748-2.333c-1.157-0.195-2.263,0.638-2.47,1.86c-0.066,0.394-0.031,0.779,0.085,1.128
	c-1.481,0.482-2.849,1.215-4.052,2.149c-3.286-0.291-6.333-0.687-8.972-1.195c0.832-1.046,1.735-2.033,2.695-2.96
	c-0.479,1.006-0.521,1.877-0.066,2.015c0.5,0.151,1.41-0.641,2.032-1.769c0.569-1.033,0.699-1.987,0.333-2.257
	c0.504-0.398,1.018-0.784,1.547-1.15c0.031,0.007,0.062,0.014,0.092,0.021c6.744,1.537,27.921,2.482,34.546,0
	c0.027-0.01,0.054-0.02,0.082-0.03c0.028,0.02,0.056,0.041,0.083,0.06c-0.632,0.415-1.052,1.05-1.103,1.772
	c-0.365-0.142-0.749-0.144-1.094,0.031c-0.731,0.371-1.042,1.4-0.783,2.421c-0.471-0.296-1.051-0.473-1.681-0.473
	c-0.674,0-1.293,0.201-1.78,0.536c-0.004-0.099-0.012-0.199-0.029-0.299C48.728,45.11,47.622,44.277,46.465,44.473z M22.725,44.148
	c-0.828-0.42-1.878,0.165-2.347,1.306c-0.469,1.142-0.178,2.407,0.65,2.827s1.879-0.165,2.348-1.306
	C23.844,45.833,23.553,44.568,22.725,44.148z M50.744,47.042c1.176,0,2.13,0.953,2.13,2.128v1.795
	c-1.103,0.333-1.893,1.227-1.893,2.28v7.503c-0.078,0.002-0.157,0.004-0.237,0.004c-1.176,0-2.129-0.243-2.129-1.418V49.169
	C48.615,47.994,49.568,47.042,50.744,47.042z M53.583,48.517c0-0.112-0.012-0.222-0.029-0.331c0.237,0.14,0.489,0.218,0.739,0.226
	v1.104c-0.236,0.021-0.471,0.043-0.71,0.063V48.517z M53.82,51.533c1.176,0,2.129,0.953,2.129,2.127v7.801
	c0,1.175-0.953,1.418-2.129,1.418s-2.129-0.243-2.129-1.418v-7.801C51.691,52.486,52.644,51.533,53.82,51.533z M56.906,41.851
	c-0.303-0.226-0.608-0.447-0.919-0.662c0.21,0.142,0.43,0.281,0.673,0.416c0.147,0.082,0.287,0.158,0.43,0.238
	C57.028,41.844,56.967,41.847,56.906,41.851z M54.057,41.605c-7.927,1.182-24.608,0.827-31.943-0.237
	c-0.027-0.004-0.051-0.007-0.078-0.011c4.638-2.841,10.093-4.48,15.932-4.48c5.987,0,11.571,1.723,16.284,4.699
	C54.184,41.585,54.125,41.595,54.057,41.605z M57.704,32.837c-0.032,0.008-0.066,0.012-0.098,0.021
	c0-0.973-6.034,1.891-23.662,1.891c-15.174,0-22.453-2.364-24.188-2.192c1.248-1.246,2.593-2.393,4.021-3.432
	c9.885,2.784,30.149,2.653,39.56-0.047C54.899,30.207,56.36,31.464,57.704,32.837z M55.714,41
	c-4.473-3.023-9.759-4.935-15.462-5.341c6.168-0.351,12.152-1.254,17.354-2.801C54.29,33.852,51.699,38.043,55.714,41z
	 M52.904,28.768c-0.102,0.023-0.194,0.047-0.267,0.072c-9.259,2.217-28.986,1.891-38.333,0c-0.034-0.007-0.066-0.014-0.1-0.021
	c2.094-1.474,4.362-2.716,6.77-3.687c5.458,1.445,18.445,1.321,25.122-0.045C48.517,26.054,50.798,27.295,52.904,28.768z
	 M21.64,17.256c-1.025,1.576-4.969,1.655-6.152,0C16.671,17.493,19.826,17.572,21.64,17.256z M9.336,10.638h3.313
	c0,0.914-0.742,1.655-1.656,1.655C10.077,12.292,9.336,11.551,9.336,10.638z M17.381,10.638h3.313c0,0.914-0.741,1.655-1.656,1.655
	C18.123,12.292,17.381,11.551,17.381,10.638z M25.426,10.638h3.313c0,0.914-0.742,1.655-1.656,1.655
	C26.167,12.292,25.426,11.551,25.426,10.638z M29.401,11.11h1.467h3.076v6.855c0,0.522-0.424,0.945-0.947,0.945
	c-0.522,0-0.946-0.423-0.946-0.945v-5.588c-0.234,0.161-0.47,0.318-0.71,0.471v7.717c0,0.131-0.106,0.236-0.236,0.236
	c-0.131,0-0.237-0.105-0.237-0.236v-7.423c-0.235,0.142-0.47,0.284-0.71,0.418v3.932c0,0.261-0.212,0.473-0.473,0.473
	s-0.473-0.212-0.473-0.473v-3.431c-3.169,1.587-6.743,2.485-10.53,2.485c-2.432,0-4.774-0.375-6.98-1.061v2.716
	c0,0.13-0.106,0.236-0.237,0.236s-0.237-0.106-0.237-0.236v-2.869c-0.237-0.08-0.475-0.159-0.709-0.246v4.297
	c0,0.13-0.106,0.236-0.237,0.236s-0.237-0.105-0.237-0.236v-4.478c-0.399-0.158-0.794-0.326-1.183-0.505v6.637
	c0,0.392-0.317,0.709-0.709,0.709s-0.71-0.317-0.71-0.709v-7.349c-0.401-0.218-0.796-0.445-1.183-0.686v5.908
	c0,0.261-0.212,0.473-0.473,0.473c-0.262,0-0.474-0.212-0.474-0.473v-6.382c0-0.046,0.009-0.089,0.021-0.13
	c-0.587-0.405-1.156-0.833-1.704-1.288h5.043c0.219,1.079,1.174,1.891,2.319,1.891c1.145,0,2.099-0.812,2.318-1.891h3.408
	c0.22,1.079,1.174,1.891,2.319,1.891s2.1-0.812,2.319-1.891h3.408c0.219,1.079,1.174,1.891,2.319,1.891
	C28.227,13.001,29.182,12.189,29.401,11.11z M55.003,44.678c0-1.175,0.953-2.127,2.129-2.127s2.13,0.953,2.13,2.127v9.333
	c-0.441,0.426-0.71,0.984-0.71,1.598v4.207c-0.377,0.174-0.874,0.228-1.42,0.228c-0.163,0-0.321-0.005-0.473-0.017v-6.782
	c0-0.977-0.68-1.816-1.656-2.199V44.678z M61.155,53.198c-0.429,0.03-0.83,0.142-1.183,0.316v-3.341
	c0.406-0.075,0.799-0.153,1.183-0.233V53.198z M59.972,44.262c0-0.332-0.079-0.648-0.221-0.937c0.498,0.282,0.962,0.552,1.404,0.817
	v1.519c-0.385-0.413-0.777-0.817-1.183-1.209V44.262z M61.155,48.701c-0.388,0.059-0.781,0.117-1.183,0.173v-2.629
	c0.408,0.423,0.8,0.861,1.183,1.308V48.701z M61.392,53.897c1.176,0,2.129,0.953,2.129,2.127v4.964c0,1.175-0.953,1.418-2.129,1.418
	s-2.129-0.243-2.129-1.418v-4.964C59.263,54.85,60.216,53.897,61.392,53.897z"/>
</svg>
