<?xml version="1.0" encoding="iso-8859-1"?>
<!-- Generator: Adobe Illustrator 16.0.0, SVG Export Plug-In . SVG Version: 6.00 Build 0)  -->
<!DOCTYPE svg PUBLIC "-//W3C//DTD SVG 1.1//EN" "http://www.w3.org/Graphics/SVG/1.1/DTD/svg11.dtd">
<svg version="1.1" id="Layer_1" xmlns="http://www.w3.org/2000/svg" xmlns:xlink="http://www.w3.org/1999/xlink" x="0px" y="0px"
	 width="67.2px" height="52.8px" viewBox="0 0 67.2 52.8" style="enable-background:new 0 0 67.2 52.8;" xml:space="preserve">
<path style="fill-rule:evenodd;clip-rule:evenodd;fill:#FFFFFF;" d="M63.888,52.8H25.801c-0.685,0-3.855-1.053-7.699-2.424
	l36.472-0.255c0.071,0.083,0.138,0.131,0.191,0.12c0.287-0.062,0.555-0.12,0.555-0.12c1.997-0.695,3.312-1.484,3.312-3.315
	c0,0,0-7.565,0-15.775c-0.452,0.114-2.945-1.011-2.945-1.011s0,10.81,0,14.205c0,3.847-1.143,4.021-1.606,4.021
	c-0.104,0-0.141,0.107-0.136,0.269l-40.248,0.263C9.471,47.219,5.23,45.606,2.96,44.74c-0.588-0.062-1.128-0.28-1.583-0.609
	c-0.469-0.2-0.625-0.354-0.525-0.473C0.324,43.071,0,42.296,0,41.444V3.315C0,1.484,1.483,0,3.312,0h38.087
	c0.218,0,0.431,0.022,0.637,0.063C42.035,0.023,42.034,0,42.034,0l12.864,4.733l-0.816-0.177c0,0,1.606,0.625,1.606,4.021
	s0,14.205,0,14.205s2.494,1.019,2.945,1.133c0-8.21,0-15.775,0-15.775c0-1.347-0.714-2.129-1.885-2.726l7.141,2.627
	c1.997,0.695,3.312,1.484,3.312,3.315v38.128C67.2,51.315,65.717,52.8,63.888,52.8z M39.892,7.713c0-1.447-1.172-2.621-2.618-2.621
	H7.169c-1.446,0-2.618,1.173-2.618,2.621V37.85c0,1.448,1.172,2.621,2.618,2.621h30.104c1.446,0,2.618-1.173,2.618-2.621V7.713z
	 M34.864,37.791H12.792c0-1.859-0.208-23.914-0.208-23.914c0-1.447,1.172-2.621,2.618-2.621h22.073
	c0,1.859,0.208,23.913,0.208,23.913C37.482,36.618,36.31,37.791,34.864,37.791z"/>
</svg>
