<?xml version="1.0" encoding="iso-8859-1"?>
<!-- Generator: Adobe Illustrator 16.0.0, SVG Export Plug-In . SVG Version: 6.00 Build 0)  -->
<!DOCTYPE svg PUBLIC "-//W3C//DTD SVG 1.1//EN" "http://www.w3.org/Graphics/SVG/1.1/DTD/svg11.dtd">
<svg version="1.1" id="Layer_1" xmlns="http://www.w3.org/2000/svg" xmlns:xlink="http://www.w3.org/1999/xlink" x="0px" y="0px"
	 width="67.2px" height="63.6px" viewBox="0 0 67.2 63.6" style="enable-background:new 0 0 67.2 63.6;" xml:space="preserve">
<path style="fill-rule:evenodd;clip-rule:evenodd;fill:#FFFFFF;" d="M55.578,12.383l-3.523-4.17l3.523-4.169h8.099L67.2,8.213
	l-3.523,4.17H55.578z M51.108,19.529h-5.399l-2.349-2.78l2.349-2.779h5.399l2.349,2.779L51.108,19.529z M48.414,22.983l1.566,1.853
	l-1.566,1.853h-3.6l-1.566-1.853l1.566-1.853H48.414z M42.653,28.879h-2.356l2.278,2.696l-2.278,2.696h2.356l1.044,1.235
	l-1.044,1.235h-2.399l-1.022-1.209l-0.832,0.985h-9.599l-0.832-0.985l-1.022,1.209h-2.399l-1.044-1.235l1.044-1.235h2.355
	l-2.278-2.696l2.278-2.696h-2.355l-1.044-1.235l1.044-1.235h2.399l1.022,1.209l0.832-0.985h9.599l0.832,0.985l1.022-1.209h2.399
	l1.044,1.235L42.653,28.879z M37.41,24.892l-1.566-1.853l1.566-1.853h3.6l1.566,1.853l-1.566,1.853H37.41z M29.775,8.339
	l-3.523-4.17L29.775,0h8.098l3.523,4.169l-3.523,4.17H29.775z M35.844,25.397L34.8,26.633H32.4l-1.044-1.236l1.044-1.235H34.8
	L35.844,25.397z M28.776,16.524l2.349-2.78h5.399l2.349,2.78l-2.349,2.78h-5.399L28.776,16.524z M31.356,23.039l-1.566,1.853h-3.6
	l-1.566-1.853l1.566-1.853h3.6L31.356,23.039z M18.787,26.689l-1.566-1.853l1.566-1.853h3.6l1.566,1.853l-1.566,1.853H18.787z
	 M16.092,19.529l-2.349-2.78l2.349-2.779h5.399l2.349,2.779l-2.349,2.78H16.092z M3.523,12.383L0,8.213l3.523-4.169h8.099
	l3.523,4.169l-3.523,4.17H3.523z M11.622,51.217l3.523,4.17l-3.523,4.169H3.523L0,55.387l3.523-4.17H11.622z M16.092,43.622h5.399
	l2.349,2.779l-2.349,2.78h-5.399l-2.349-2.78L16.092,43.622z M18.567,31.575l-1.566,1.853h-3.599l-1.566-1.853l1.566-1.853h3.599
	L18.567,31.575z M11.394,37.556l2.349,2.78l-2.349,2.78H5.995l-2.349-2.78l2.349-2.78H11.394z M5.995,20.484h5.399l2.349,2.78
	l-2.349,2.78H5.995l-2.349-2.78L5.995,20.484z M22.386,40.167h-3.6l-1.566-1.854l1.566-1.853h3.6l1.566,1.853L22.386,40.167z
	 M20.06,30.901l-1.044-1.235l1.044-1.236h2.4l1.044,1.236l-1.044,1.235H20.06z M22.459,34.72h-2.4l-1.044-1.236l1.044-1.235h2.4
	l1.044,1.235L22.459,34.72z M29.791,38.258l1.566,1.853l-1.566,1.853h-3.6l-1.566-1.853l1.566-1.853H29.791z M37.874,55.26
	l3.523,4.17L37.874,63.6h-8.098l-3.523-4.169l3.523-4.17H37.874z M41.009,38.258l1.566,1.853l-1.566,1.853h-3.6l-1.566-1.853
	l1.566-1.853H41.009z M31.356,37.752l1.044-1.235H34.8l1.044,1.235L34.8,38.988H32.4L31.356,37.752z M38.873,46.626l-2.349,2.779
	h-5.399l-2.349-2.779l2.349-2.78h5.399L38.873,46.626z M44.741,30.901l-1.044-1.235l1.044-1.236h2.4l1.044,1.236l-1.044,1.235
	H44.741z M47.141,34.72h-2.4l-1.044-1.236l1.044-1.235h2.4l1.044,1.235L47.141,34.72z M48.414,36.461l1.566,1.853l-1.566,1.854h-3.6
	l-1.566-1.854l1.566-1.853H48.414z M51.108,43.622l2.349,2.779l-2.349,2.78h-5.399l-2.349-2.78l2.349-2.779H51.108z M60.98,43.116
	h-5.399l-2.349-2.78l2.349-2.78h5.399l2.349,2.78L60.98,43.116z M53.574,33.428h-3.6l-1.566-1.853l1.566-1.853h3.6l1.566,1.853
	L53.574,33.428z M60.98,20.484l2.349,2.78l-2.349,2.78h-5.399l-2.349-2.78l2.349-2.78H60.98z M63.677,51.217l3.523,4.17
	l-3.523,4.169h-8.099l-3.523-4.169l3.523-4.17H63.677z"/>
</svg>
