<?xml version="1.0" encoding="iso-8859-1"?>
<!-- Generator: Adobe Illustrator 16.0.0, SVG Export Plug-In . SVG Version: 6.00 Build 0)  -->
<!DOCTYPE svg PUBLIC "-//W3C//DTD SVG 1.1//EN" "http://www.w3.org/Graphics/SVG/1.1/DTD/svg11.dtd">
<svg version="1.1" id="Layer_1" xmlns="http://www.w3.org/2000/svg" xmlns:xlink="http://www.w3.org/1999/xlink" x="0px" y="0px"
	 width="72px" height="72px" viewBox="0 0 72 72" style="enable-background:new 0 0 72 72;" xml:space="preserve">
<path style="fill-rule:evenodd;clip-rule:evenodd;fill:#FFFFFF;" d="M68.7,67.68l3.3-3.901v7.801L68.7,67.68z M72,53.699V61.5
	l-3.3-3.9L72,53.699z M72,43.619v7.802l-3.3-3.901L72,43.619z M72,33.539v7.802l-3.3-3.901L72,33.539z M72,23.459v7.801l-3.3-3.901
	L72,23.459z M66.9,17.28l3.769-4.455H72v8.91h-1.331L66.9,17.28z M58.789,11.655L55.02,7.2l3.769-4.455h8.663L71.22,7.2
	l-3.769,4.455H58.789z M42.949,1.575L41.617,0h11.327l-1.332,1.575H42.949z M52.931,7.785L56.7,12.24l-3.769,4.455h-8.663
	L40.5,12.24l3.769-4.455H52.931z M27.349,6.615L23.58,2.16L25.407,0h12.545l1.827,2.16l-3.769,4.455H27.349z M10.429,11.655
	L6.66,7.2l3.769-4.455h8.663L22.86,7.2l-3.769,4.455H10.429z M17.891,32.985l3.769,4.455l-3.769,4.455H9.229L5.46,37.44l3.769-4.455
	H17.891z M0,16.695v-8.91h1.691L5.46,12.24l-3.769,4.455H0z M0,63.225h0.011L3.78,67.68L0.125,72H0V63.225z M13.451,68.265
	L16.611,72H1.629l3.16-3.735H13.451z M18.469,63.225h8.663L30.9,67.68L27.245,72h-8.891L14.7,67.68L18.469,63.225z M40.571,68.265
	L43.731,72H28.749l3.16-3.735H40.571z M45.589,63.225h8.662l3.769,4.455L54.365,72h-8.891l-3.655-4.32L45.589,63.225z
	 M67.691,67.095h-8.663L55.26,62.64l3.769-4.455h8.663l3.769,4.455L67.691,67.095z M67.691,57.015h-8.663L55.26,52.56l3.769-4.455
	h8.663l3.769,4.455L67.691,57.015z M67.691,46.935h-8.663L55.26,42.48l3.769-4.455h8.663l3.769,4.455L67.691,46.935z M67.691,36.855
	h-8.663L55.26,32.4l3.769-4.455h8.663L71.46,32.4L67.691,36.855z M64.811,17.865l3.769,4.455l-3.769,4.455h-8.662L52.38,22.32
	l3.769-4.455H64.811z M53.46,27.36l-3.769,4.455h-8.663L37.26,27.36l3.769-4.455h8.663L53.46,27.36z M37.331,12.825L41.1,17.28
	l-3.769,4.455h-8.663L24.9,17.28l3.769-4.455H37.331z M27.131,43.065L30.9,47.52l-3.769,4.455h-8.663L14.7,47.52l3.769-4.455H27.131
	z M4.789,67.095L1.02,62.64l3.769-4.455h8.663l3.769,4.455l-3.769,4.455H4.789z M18.229,62.055L14.46,57.6l3.769-4.455h8.663
	L30.66,57.6l-3.769,4.455H18.229z M31.909,67.095L28.14,62.64l3.769-4.455h8.663l3.769,4.455l-3.769,4.455H31.909z M54.011,62.055
	h-8.663L41.58,57.6l3.769-4.455h8.663L57.78,57.6L54.011,62.055z M54.251,51.975h-8.662L41.82,47.52l3.769-4.455h8.662l3.769,4.455
	L54.251,51.975z M54.011,32.985l3.769,4.455l-3.769,4.455h-8.663L41.58,37.44l3.769-4.455H54.011z M44.34,52.56l-3.769,4.455h-8.663
	L28.14,52.56l3.769-4.455h8.663L44.34,52.56z M31.909,38.025h8.663l3.769,4.455l-3.769,4.455h-8.663L28.14,42.48L31.909,38.025z
	 M15.78,52.56l-3.769,4.455H3.349L0,53.057v-0.993l3.349-3.958h8.663L15.78,52.56z M5.1,27.36l-3.769,4.455H0v-8.91h1.331L5.1,27.36
	z M0,58.806v-2.411L1.02,57.6L0,58.806z M0,46.665v-8.369l3.54,4.185L0,46.665z M11.389,26.775L7.62,22.32l3.769-4.455h8.663
	l3.769,4.455l-3.769,4.455H11.389z M34.211,27.945L37.98,32.4l-3.769,4.455h-8.663L21.78,32.4l3.769-4.455H34.211z M67.691,68.265
	L70.851,72H55.869l3.16-3.735H67.691z"/>
</svg>
