<?xml version="1.0" encoding="iso-8859-1"?>
<!-- Generator: Adobe Illustrator 16.0.0, SVG Export Plug-In . SVG Version: 6.00 Build 0)  -->
<!DOCTYPE svg PUBLIC "-//W3C//DTD SVG 1.1//EN" "http://www.w3.org/Graphics/SVG/1.1/DTD/svg11.dtd">
<svg version="1.1" id="Layer_1" xmlns="http://www.w3.org/2000/svg" xmlns:xlink="http://www.w3.org/1999/xlink" x="0px" y="0px"
	 width="72px" height="72px" viewBox="0 0 72 72" style="enable-background:new 0 0 72 72;" xml:space="preserve">
<path style="fill-rule:evenodd;clip-rule:evenodd;fill:#FFFFFF;" d="M71.107,46.291l-1.197,1.216l-0.928-1.449l0.308-3.063
	l1.197-1.216l0.928,1.449L71.107,46.291z M71.368,33.481l-0.502,1.482l-1.122-1.124l-0.365-1.537l1.655-0.227L71.368,33.481z
	 M71.049,36.353l-0.037,3.019l-1.519,1.295l-1.488-1.332l0.037-3.019l1.519-1.295L71.049,36.353z M68.133,34.294l-1.275,1.536
	l-1.693-1.057l-0.299-1.852l2.979-0.409L68.133,34.294z M66.299,39.733l1.364,1.458l-0.302,3.004l-1.627,1.156l-1.364-1.458
	l0.302-3.004L66.299,39.733z M63.045,59.512l-1.008-1.078l-0.066-0.977l2.135-2.135l1.992,0.135l0.134,1.992l-2.135,2.135
	L63.045,59.512z M70.323,53.111l-0.962,2.861l-1.843,0.766l-1.006-1.724l0.962-2.861l1.844-0.766L70.323,53.111z M65.311,49.734
	l0.962-2.862l1.844-0.766l1.006,1.724l-0.962,2.862l-1.844,0.766L65.311,49.734z M64.352,50.217l0.614,1.899l-1.553,2.589
	l-1.965,0.353l-0.613-1.9l1.553-2.588L64.352,50.217z M61.997,36.464l0.134,1.992l-2.135,2.135l-1.992-0.134l-0.134-1.992
	l2.135-2.135L61.997,36.464z M48.91,42.133l-0.28-3.28l1.466-3.54l0.531-0.44l3.372-0.462l1.084,0.898l-2.995,7.231L48.91,42.133z
	 M60.529,43.494l-0.968,3.104l-3.412,1.882l-2.504-0.093l-0.892-1.779l3.412-3.408L60.529,43.494z M19.518,49.061l-2.355,1.838
	l-0.365-1.369l2.02-0.812L19.518,49.061z M16.27,37.151l0.556,0.097l1.443,1.48l2.203,5.613l-0.07,2.846l-1.987-2.039l-2.203-5.613
	L16.27,37.151z M0.479,39.773l1.168-1.619l1.761,0.94l0.682,2.941l-1.168,1.619l-1.761-0.94L0.479,39.773z M1.588,44.867
	l1.992-0.134l2.135,2.134L5.58,48.859l-1.992,0.134l-2.135-2.134L1.588,44.867z M2.53,51.926l-0.036-1.955l1.329,0.119l1.568,2.383
	l0.036,1.955l-1.329-0.119L2.53,51.926z M4.569,58.712l0.074-1.995l1.987-0.194l1.507,1.418l-2.398,1.872L4.569,58.712z
	 M6.822,54.922L5.38,52.27l0.694-1.872l1.948,0.436l1.442,2.653L8.77,55.358L6.822,54.922z M12.095,52.061l-3.119-1.645
	l-0.808-2.597l2.974-0.754l3.388,2.485l-0.18,2.071L12.095,52.061z M15.675,43.058l0.192,1.872l-1.52,1.097L9.97,43.88l-0.194-4.087
	l3.764,0.791L15.675,43.058z M11.044,36.301l-1.8,1.439l-1.443-1.708l-0.056-0.368l3.28,0.572L11.044,36.301z M2.84,36.954
	l-0.518-2.237l3.216,0.561l0.231,0.997l-1.168,1.619L2.84,36.954z M8.147,38.021l-0.188,4l-1.63,1.483l-1.02-1.782l0.287-3.062
	l1.211-1.66L8.147,38.021z M12.867,20.199l0.263-2.361l2.907,2.724l-0.22,1.091l-1.853,0.65L12.867,20.199z M11.331,30.621
	l-0.351-0.583l1.063-2.19l2.636,0.479l2.508,3.196l-0.12,0.669L11.331,30.621z M16.127,26.354l0.428-2.376l1.907-1.143l2.759,2.586
	l-2.796,1.676L16.127,26.354z M23.351,27.416l1.638,1.535l-0.204,0.187l-1.753-0.856L23.351,27.416z M26.015,34.643l-7.416-2.031
	l0.051-0.234l4.762-2.522l3.363,1.34L26.015,34.643z M1.31,27.876l1.671-1.038l1.271,1.539l-0.048,0.291L1.31,27.876z M2.718,25.761
	l-0.714-2.933l1.15-1.632l1.771,0.921L5.64,25.05l-1.15,1.632L2.718,25.761z M5.31,28.972l0.295-1.8l1.696-1.053l1.271,1.54
	l-0.346,2.112L5.31,28.972z M4.464,17.465l1.261-2.743l1.915-0.565l0.817,1.821l-1.261,2.743l-1.915,0.565L4.464,17.465z
	 M10.219,15.11l-1.268-0.547l0.142-0.507L10.219,15.11z M10.754,21.053L8.62,23.188l-1.992-0.134l-0.134-1.992l2.135-2.135
	l1.992,0.134L10.754,21.053z M43.2,35.28l-0.777-0.777C42.535,34.985,42.6,35.484,42.6,36c0,0.431-0.044,0.852-0.124,1.26
	L71.76,71.28l-6.96-3.36L42.364,37.726C41.604,40.533,39.047,42.6,36,42.6c-1.513,0-2.903-0.515-4.017-1.372L2.053,72H0v-4.979
	l31.08-26.633c-0.381-0.427-0.707-0.901-0.967-1.416L0,32.69v-3.825l29.454,7.938C29.421,36.539,29.4,36.272,29.4,36
	c0-1.31,0.386-2.527,1.044-3.553L4.08,7.2L1.166,0h10.882l21.054,30.077C33.978,29.647,34.959,29.4,36,29.4
	c2.85,0,5.27,1.81,6.194,4.339L72,26.808v3.634L43.2,35.28z M67.644,25.434l-1.586-2.568l0.588-1.907l1.969,0.327l1.587,2.568
	l-0.589,1.908L67.644,25.434z M64.123,19.969l-2.203-2.064l0.07-1.995l1.986-0.199l2.203,2.064l-0.07,1.995L64.123,19.969z
	 M45.417,4.987l-1.501,1.316l-2.993-0.4l-1.103-1.665l1.501-1.316l2.992,0.4L45.417,4.987z M39.79,8.527h-3.019l-1.313-1.503
	l1.313-1.503h3.019l1.313,1.503L39.79,8.527z M34.087,5.759l-1.23-0.929l0.936-1.363l1.903-0.941l1.651,0.083L37.339,4.15
	L34.087,5.759z M33.271,8.495l-2.936,0.703l-1.627-1.156l0.928-1.768l2.936-0.703l1.627,1.156L33.271,8.495z M26.469,8.039
	l-1.89-0.642l0.382-1.959l2.612-1.515l1.89,0.642l-0.382,1.959L26.469,8.039z M29.058,22.416l-0.741-1.135l0.439-3.266l4.189,0.98
	l4.89,4.244l1.719,4.474l-4.287,0.57L29.058,22.416z M30.963,10.486l1.878-1.489l4.095,0.122l2.117,1.53l-1.463,1.636l-4.58-0.043
	L30.963,10.486z M40.691,16.792l-3.689,1.814l-3.746-0.431l-0.536-2.009l3.689-1.814l3.746,0.431L40.691,16.792z M38.263,22.494
	l-0.63-3.042l3.217-0.361L40.8,19.2l0.952,0.745L51.817,0h8.357L45.577,22.938l0.743,0.582l0.065-0.096l0.419,0.754l-2.842,1.253
	L38.263,22.494z M50.025,18.092l0.26,0.628l-0.954,0.388L50.025,18.092z M46.585,28.747l-0.06-3.441l3.402-0.521l3.979,3.356
	l0.035,2.021l-4.338,1.132L46.585,28.747z M55.943,9.421l1.7-2.49l0.666,0.384l0.387,1.958l-1.889,0.646L55.943,9.421z
	 M61.722,10.622l-0.636-2.386l0.921-0.447l1.79,2.229l0.636,2.387l-0.921,0.446L61.722,10.622z M46.788,3.995l1.381-1.034
	l-0.878,1.936L46.788,3.995z M43.236,9.999l-1.508-1.308l1.094-1.67l2.99-0.415l0.503,0.437l-1.224,2.699L43.236,9.999z
	 M57.636,13.105l0.134-1.992l1.992-0.134l2.135,2.135l-0.134,1.992l-1.992,0.134L57.636,13.105z M67.62,26.593l-2.991,0.78
	l-0.166-0.312l0.709-1.866l1.944,0.453L67.62,26.593z M61.229,23.007l-0.656-1.886l1.78-0.903l2.8,1.128l0.656,1.885l-1.78,0.903
	L61.229,23.007z M59.929,28.599l-3.703,0.966l-0.186-0.352l0.889-2.309l2.407,0.571L59.929,28.599z M53.939,15.926l2.459-0.253
	l2.489,1.332l1.175,2.22l-1.954,2.019l-4.781-2.61L53.939,15.926z M26.713,17.558l-0.576,0.381l-2.358-3.615l0.386-0.212
	l2.739,0.877L26.713,17.558z M28.782,8.945l-0.639,1.891l-2.79,1.154l-1.788-0.888l0.639-1.891l2.79-1.153L28.782,8.945z
	 M20.573,9.412L18.928,6.89l2.184-1.613l1.95,0.429l-0.164,1.99L20.573,9.412z M13.616,64.205l-1.778,0.323l1.703-1.992
	L13.616,64.205z M15.775,60.605l-0.691,0.125l0.663-0.775L15.775,60.605z M19.377,65.627l0.481,1.938l-1.855,0.737l-2.686-1.379
	l-0.481-1.938l1.855-0.737L19.377,65.627z M17.292,58.147l2.33-2.726l0.935,1.391l-0.146,2.88l-1.935,0.216L17.292,58.147z
	 M16.458,62.646l1.45-1.372l3.005,0.287l1.165,1.621l-1.45,1.372l-3.005-0.287L16.458,62.646z M25.538,65.971l0.828,1.817
	l-1.689,1.063l-2.893-0.865l-0.827-1.817l1.689-1.064L25.538,65.971z M29.202,67.793L28.689,70.8H28.13l-1.313-1.503l1.313-1.503
	H29.202z M29.341,63.514h0.592l-0.513,3.006h-0.079l-1.313-1.503L29.341,63.514z M34.08,54L33.6,72h-4.08l3.12-18.48L34.08,54z
	 M37.629,65.393l1.313,1.503L37.629,68.4h-2.96l0.08-3.007H37.629z M41.917,67.921l1.238,0.484l-0.954,0.927l-2.519,0.508
	l-1.238-0.485l0.954-0.927L41.917,67.921z M43.988,65.708l2.988-0.435l1.516,1.298l-1.083,1.677l-2.987,0.435l-1.517-1.298
	L43.988,65.708z M49.14,64.707l2.775-1.188l1.59,0.377l-0.825,1.411l-2.775,1.188l-1.59-0.377L49.14,64.707z M53.602,54.664
	l1.689,2.526l-2.243,1.065l-1.832-0.794l0.542-1.922L53.602,54.664z M54.751,61.259l-1.313,1.503h-3.019l-1.313-1.503l1.313-1.503
	h3.019L54.751,61.259z M49.235,49.346l-2.649-4.773l-0.078-0.517l4.619,6.907L49.235,49.346z M48.168,61.635l1.313,1.503
	l-1.313,1.503h-3.019l-1.313-1.503l1.313-1.503H48.168z M40.265,66.827l-1.624-1.162l0.934-1.764l2.938-0.693l1.624,1.162
	l-0.934,1.765L40.265,66.827z M48.493,51.13l-2.868,3.177l-2.809-0.078l1.879,1.297l-1.604,2.509l-3.638,1.645l-2.943-0.453
	l0.335-2.845l5.493-2.484l0.458,0.316l-0.331-2.829l2.869-3.178l2.828,0.079L48.493,51.13z M44.187,40.586l1.874,2.801l-1.596,1.62
	l-3.813,1.363l-3.298-0.351l0.04-3.005L44.187,40.586z M37.703,61.988l-0.416,1.742l-2.492-0.071l0.126-4.759l1.621,0.876
	L37.703,61.988z M39.558,47.684l1.183,3.976l-3.788,1.692l-5.712-2.625l-1.183-3.976l3.788-1.692L39.558,47.684z M23.978,50.327
	l3.162-3.699l1.162,0.235l-0.129,1.992l-2.397,1.835L23.978,50.327z M31.121,54.364l-2.613,2.078l-3.858-0.865l0.836-1.668
	l2.009-0.818l2.364,0.036L31.121,54.364z M27.183,65.297l-1.737,0.002l-2.165-1.217l-0.901-1.484l1.433-0.62l3.155,1.774
	L27.183,65.297z M29.146,58.822l1.395,1.13l-0.136,0.795l-1.037,0.63l-5.225-1.505l-0.877-1.752l2.426-0.293L29.146,58.822z
	 M55.563,60.716l0.524-1.926l0.207-0.101l1.687,2.523l-0.58,0.282L55.563,60.716z M57.766,61.981l1.371,0.959l0.204,0.305
	L58.488,64.9l-2.931,0.724l-1.636-1.145l0.915-1.774L57.766,61.981z M59.833,63.98l-0.37-0.136l0.069-0.313L59.833,63.98z"/>
</svg>
