<?xml version="1.0" encoding="iso-8859-1"?>
<!-- Generator: Adobe Illustrator 16.0.0, SVG Export Plug-In . SVG Version: 6.00 Build 0)  -->
<!DOCTYPE svg PUBLIC "-//W3C//DTD SVG 1.1//EN" "http://www.w3.org/Graphics/SVG/1.1/DTD/svg11.dtd">
<svg version="1.1" id="Layer_1" xmlns="http://www.w3.org/2000/svg" xmlns:xlink="http://www.w3.org/1999/xlink" x="0px" y="0px"
	 width="72px" height="61.443px" viewBox="0 0 72 61.443" style="enable-background:new 0 0 72 61.443;" xml:space="preserve">
<path style="fill-rule:evenodd;clip-rule:evenodd;fill:#FFFFFF;" d="M68.729,41.083c-6.462,0-11.772-1.042-12.378-2.375h-0.059
	v-2.206H72v4.488C70.958,41.05,69.861,41.083,68.729,41.083z M53.736,34.975c0-0.375,0.305-0.679,0.681-0.679H72v1.357H54.417
	C54.042,35.654,53.736,35.35,53.736,34.975z M56.292,29.885H72v3.563H56.292V29.885z M53.736,28.358
	c0-0.375,0.305-0.679,0.681-0.679H72v1.357H54.417C54.042,29.037,53.736,28.733,53.736,28.358z M56.292,23.438H72v3.394H56.292
	V23.438z M56.036,22.165c0-0.328,0.267-0.594,0.596-0.594H72v1.188H56.632C56.303,22.759,56.036,22.493,56.036,22.165z
	 M50.67,45.834H22.048c-0.376,0-0.681-0.304-0.681-0.679c0-0.375,0.305-0.679,0.681-0.679H50.67c0.376,0,0.681,0.304,0.681,0.679
	C51.351,45.53,51.046,45.834,50.67,45.834z M23.922,43.628v-3.563h24.874v3.563H23.922z M50.67,39.217H22.048
	c-0.376,0-0.681-0.304-0.681-0.679c0-0.375,0.305-0.679,0.681-0.679H50.67c0.376,0,0.681,0.304,0.681,0.679
	C51.351,38.913,51.046,39.217,50.67,39.217z M48.795,37.011H23.922v-3.394h24.874V37.011z M48.455,32.939H24.263
	c-0.329,0-0.596-0.266-0.596-0.594c0-0.328,0.267-0.594,0.596-0.594h24.192c0.329,0,0.596,0.266,0.596,0.594
	C49.051,32.673,48.784,32.939,48.455,32.939z M46.459,17.467c0.077-0.383-0.3-0.735-0.785-1.023V2.765l1.704,0.043l0.255-2.756
	c0,0-0.063-0.02-0.164-0.052h1.326v20.593C48.795,20.593,46.642,16.555,46.459,17.467z M42.929,15.341v-3.55
	c0.487,0.009,1.227,0.117,1.569-1.36c0.222-0.957,0.547-1.415,0.588-1.796v7.508c-0.604-0.27-1.177-0.435-1.177-0.435L42.929,15.341
	z M42.929,7.299V0h2.157v0.141L44.302,1.09l0.784,1.493v5.911c-0.023-0.238-0.183-0.467-0.588-0.799
	C43.898,7.202,43.376,7.204,42.929,7.299z M46.459,20.594c-0.196,0.978-1.765,0.782-1.765,0.782l-1.373,0.391l-1.373-1.368
	l0.392-2.15l1.569,0.586C43.909,18.835,46.655,19.617,46.459,20.594z M41.163,18.052c0,0-0.215,1.955-0.718,1.955
	c-0.463,0-1.003,0-1.373,0c-0.188,0-0.432-0.993-0.556-1.563h0.294V7.694l0.785,1.759c0,0,1.569,1.629,1.765,1.955
	c0.122,0.203,0.446,0.329,0.784,0.381v3.763l-0.784,1.72L41.163,18.052z M39.636,14.305c-0.16-0.079-0.139,0.167-0.139,0.167
	l-0.222,0.268l0.219,0.416l0.551,0.014l0.063-0.689C40.109,14.481,39.795,14.384,39.636,14.305z M42.144,0v7.492
	c-0.068,0.009-0.134,0.013-0.196,0.006C41.36,7.433,42.34,3.785,40.771,3.98L38.81,7.694V0H42.144z M36.653,20.398
	c0,0-1.765-0.195-1.765-0.978c0-0.782,0.393-1.172,1.373-1.563c0.98-0.391,2.354,1.759,2.157,2.541S36.653,20.398,36.653,20.398z
	 M36.261,15.708c-0.145,0.058-0.272,0.116-0.392,0.175V5.084c0.083-0.149,0.479-0.9,0.065-1.039
	c-0.02-0.007-0.043-0.009-0.065-0.013V0h2.157v16.909C37.58,16.157,36.851,15.472,36.261,15.708z M34.591,18.052h-2.449V0h3.334
	v4.076c-0.568,0.164-1.311,0.695-1.167,1.157c0.19,0.61,0.406,0.865,0.875,0.901c0.113,0.008,0.209-0.047,0.292-0.135v9.904
	l0.125,0.125c-0.5,0.307-0.714,0.67-0.714,1.243C34.888,17.661,34.151,17.905,34.591,18.052z M33.711,22.548
	c0.392,0.195,0.392,0.977,0.392,0.977s0.392,0.326,0.588,0.586c0.196,0.261,0.588,0.912,0.588,1.368s-0.588,0.717-0.588,0.391
	s-0.458-0.717-0.785-0.782c-0.327-0.065-1.177-0.586-1.177-0.586s0.262-1.042,0.196-1.368S33.319,22.353,33.711,22.548z
	 M38.614,24.308l1.569,0.391l0.588,1.368l-1.373,0.195L38.614,24.308z M45.705,29.715h0.852l1.192,1.018l0.049,0.339h-6.761
	l0.92-0.509l1.363,0.17h1.193l0.029,0.177l0.56,0.14l-0.177-0.589l-0.412,0.103h-1.704l-1.192-0.679l1.022-0.339l0.341-0.848
	l1.022-0.17l0.511,0.679l0.838,0.139c0.166-0.585,0.572-2.081,0.52-2.497c-0.065-0.521,0-1.433,0.392-1.368
	c0.392,0.065,0.065,1.499,0.392,1.955c0.327,0.456,0,1.564,0,1.564l-1.085,0.463l0.108,0.27L45.705,29.715z M32.239,28.465
	l-1.334,1.092l0.94,0.52l0.401-0.532l1.128-0.112l-0.106-0.736l1.022-0.679l1.363-0.509l0.511,0.17l0.341,0.679l-0.17,0.509
	l0.186,0.139l0.155-0.309l0.511-0.17l1.363,0.509l1.022,0.679l-0.17,1.188l-0.341,0.17h-0.852l-0.511-0.17l-0.682,0.17h-2.419
	l0.204-0.509l1.022-0.169l0.341-0.254l-1.022-0.255l-1.022,0.339l-0.554-0.275l-0.298,0.445v0.679h-8.275l-0.023-0.16l-0.05-0.01
	l0.024-0.169l-0.024-0.17l0.05-0.01l0.121-0.838l0.757-0.646c-0.347-0.086-0.69-0.329-1.104-0.745
	c-0.744-0.748,0.7-2.851,1.498-2.977s0.691,1.622,0.691,1.622s0.345,1.151,0.064,1.729h0.139l0.852,0.509l-0.341,1.131l0.594-0.099
	l0.087-0.523h0.383l0.128-0.17l0.876,0.146l0.708-0.088l-1.788-0.512l0.74-1.5c0,0,1.051-2.65,2.006-2.358
	c0.955,0.292,0.604,1.831,0.604,1.831L32.239,28.465z M38.89,28.358l1.704,0.169l0.511,0.679l-0.17,1.018h-1.363v-0.509v-0.339
	L38.89,28.358z M29.789,23.525H28.22l-0.785-1.954l1.569-1.955l2.549,1.759c0,0-0.588,1.368-0.784,2.15
	C30.573,24.308,29.789,23.525,29.789,23.525z M28.063,18.052c0,0-0.25,0.457-0.628,0.842v-7.194l1.177,0.293
	c0,0-0.131-0.847,0.196-1.564c0.327-0.717,0.327-1.042,0.196-1.759c-0.131-0.717-1.177-1.564-1.177-1.564s-0.132,0.214-0.392,0.33V0
	h3.138v17.963l-1.569-1.083L28.063,18.052z M26.455,24.112c-0.458,0-1.177-0.586-1.177-0.586s0.196-0.912,0.392-0.977
	s0.98,0.195,0.98,0.195S26.913,24.112,26.455,24.112z M23.922,0h2.533v9.551l-0.196,0.489l0.196,0.391v9.185
	c-0.415,0.56-2.533,2.151-2.533,2.151V0z M24.494,17.076l0.393,0.586l0.588-0.391l0.588-0.977l-0.392-1.173l-0.98,0.586
	l-0.196,0.586V17.076z M18.3,56.014H0v-1.357h18.3c0.376,0,0.682,0.304,0.682,0.679C18.981,55.71,18.676,56.014,18.3,56.014z
	 M18.3,49.397H0V48.04h18.3c0.376,0,0.682,0.304,0.682,0.679S18.676,49.397,18.3,49.397z M16.085,43.119H0v-1.188h16.085
	c0.33,0,0.597,0.266,0.597,0.594C16.682,42.853,16.415,43.119,16.085,43.119z M15.398,41.093l-0.023,0.16H7.101v-0.679l-0.298-0.445
	l-0.554,0.275l-1.022-0.339l-1.022,0.254l0.341,0.255l1.022,0.169l0.205,0.509H3.353l-0.681-0.17l-0.511,0.17H1.308l-0.341-0.17
	l-0.17-1.188l1.022-0.679l1.363-0.509l0.511,0.17l0.155,0.309l0.186-0.139l-0.17-0.509l0.341-0.679l0.511-0.169l1.363,0.509
	l1.022,0.679l-0.105,0.736l1.128,0.112l0.401,0.532l0.962-0.532l1.168,0.146l0.876-0.146l0.128,0.17h0.383l0.087,0.523l0.594,0.099
	l-0.34-1.131l0.852-0.509h0.852l1.192,1.018l0.12,0.838l0.05,0.01l-0.024,0.17l0.024,0.169L15.398,41.093z M0,40.404v-1.719
	l1.479-0.147l-0.682,1.018v0.339v0.509H0z M16.426,53.808H0v-3.563h16.426V53.808z M16.426,47.191H0v-3.394h16.426V47.191z
	 M0,56.862h16.426v2.206h-0.059c-0.605,1.333-5.915,2.375-12.378,2.375c-1.396,0-2.736-0.049-3.989-0.139V56.862z M48.795,48.888
	h-0.059c-0.606,1.333-5.916,2.375-12.378,2.375s-11.772-1.042-12.378-2.375h-0.059v-2.206h24.874V48.888z"/>
</svg>
