<?xml version="1.0" encoding="iso-8859-1"?>
<!-- Generator: Adobe Illustrator 16.0.0, SVG Export Plug-In . SVG Version: 6.00 Build 0)  -->
<!DOCTYPE svg PUBLIC "-//W3C//DTD SVG 1.1//EN" "http://www.w3.org/Graphics/SVG/1.1/DTD/svg11.dtd">
<svg version="1.1" id="Layer_1" xmlns="http://www.w3.org/2000/svg" xmlns:xlink="http://www.w3.org/1999/xlink" x="0px" y="0px"
	 width="40.073px" height="69.603px" viewBox="0 0 40.073 69.603" style="enable-background:new 0 0 40.073 69.603;"
	 xml:space="preserve">
<path style="fill-rule:evenodd;clip-rule:evenodd;fill:#FFFFFF;" d="M39.162,53.472H0.911C0.408,53.472,0,53.064,0,52.563
	c0-0.501,0.408-0.909,0.911-0.909h38.251c0.503,0,0.911,0.407,0.911,0.909C40.073,53.064,39.665,53.472,39.162,53.472z
	 M36.658,50.518H3.416v-4.544h33.242V50.518z M36.202,45.065H3.871c-0.44,0-0.797-0.356-0.797-0.795
	c0-0.439,0.357-0.795,0.797-0.795h32.331c0.44,0,0.797,0.356,0.797,0.795C36.999,44.709,36.643,45.065,36.202,45.065z
	 M27.518,41.884l1.822,0.227h1.594l0.04,0.237l0.748,0.187l-0.237-0.789l-0.551,0.138h-2.277l-1.594-0.909l1.366-0.455l0.455-1.136
	l1.366-0.227l0.683,0.909l1.121,0.187c0.221-0.784,0.764-2.786,0.694-3.344c-0.087-0.698,0-1.919,0.524-1.832
	c0.524,0.087,0.087,2.006,0.524,2.617c0.437,0.611,0,2.094,0,2.094l-1.451,0.621l0.145,0.361l0.037-0.022h1.139l1.594,1.363
	l0.065,0.455h-9.036L27.518,41.884z M31.819,4.643l-1.167-2.227l1.184-1.435c0,0-0.112-1.321,0.74-0.897
	c0.852,0.424,2.528,0.942,2.528,0.942l-0.341,3.69L31.819,4.643z M33.535,28.534c-0.262,1.309-2.359,1.047-2.359,1.047l-1.834,0.523
	l-1.835-1.832l0.524-2.879l2.097,0.785C30.127,26.178,33.797,27.225,33.535,28.534z M30.914,14.924
	c-0.524,2.269-1.747,1.745-2.359,1.832c-0.611,0.087-1.572-0.087-1.834-0.523c-0.262-0.436-2.359-2.617-2.359-2.617l-1.048-2.355
	l2.621-4.973c2.097-0.262,0.787,4.624,1.573,4.711s1.922-0.959,3.407,0.262C32.399,12.481,31.438,12.656,30.914,14.924z
	 M19.469,6.374c0.615,0.206-0.108,1.428-0.108,1.428s-0.266,1.416-0.893,1.369c-0.627-0.048-0.917-0.389-1.17-1.206
	C17.044,7.147,18.854,6.168,19.469,6.374z M18.595,35.077c0,0.611-0.787,0.959-0.787,0.523c0-0.437-0.611-0.96-1.048-1.047
	c-0.437-0.087-1.572-0.785-1.572-0.785s0.349-1.396,0.262-1.832c-0.087-0.437,0.524-1.047,1.049-0.786
	c0.524,0.262,0.524,1.309,0.524,1.309s0.524,0.436,0.786,0.785C18.071,33.594,18.595,34.466,18.595,35.077z M24.411,4.063
	l-2.812-0.807l0.989-2.009c0,0,0.224-0.562,0.571-1.213h2.988c-0.023,0.297-0.071,0.506-0.071,0.506l0.339,1.878L24.411,4.063z
	 M22.789,28.272c-0.262,1.047-2.359,0-2.359,0s-2.359-0.262-2.359-1.309s0.524-1.57,1.835-2.094
	C21.216,24.346,23.051,27.225,22.789,28.272z M25.934,35.862l-1.834,0.262l-1.048-2.617l2.097,0.523L25.934,35.862z M24.417,20.113
	c0.213,0.106,0.632,0.235,0.632,0.235l-0.085,0.923l-0.736-0.019l-0.292-0.557l0.296-0.359
	C24.231,20.337,24.204,20.007,24.417,20.113z M14.54,40.521l1.507-0.15l-0.141-0.986l1.366-0.909l1.821-0.682l0.683,0.228
	l0.456,0.909l-0.228,0.682l0.249,0.186l0.207-0.414l0.683-0.227l1.821,0.682l1.366,0.909l-0.228,1.59l-0.456,0.228h-1.138
	l-0.683-0.228l-0.911,0.228h-3.233l0.273-0.682l1.366-0.227l0.456-0.341l-1.366-0.341l-1.366,0.454l-0.74-0.369l-0.398,0.597v0.909
	H4.847l-0.031-0.214L4.75,42.338l0.033-0.227L4.75,41.884l0.067-0.013l0.161-1.123l1.012-0.866c-0.464-0.115-0.922-0.44-1.476-0.998
	c-0.995-1.001,0.936-3.817,2.001-3.986c1.065-0.168,0.923,2.171,0.923,2.171s0.461,1.542,0.085,2.314h0.186l1.139,0.682
	l-0.456,1.515l0.793-0.132l0.117-0.701h0.512l0.171-0.227l1.171,0.195l0.946-0.118l-2.389-0.686l0.989-2.009
	c0,0,1.405-3.549,2.681-3.158c1.276,0.39,0.808,2.452,0.808,2.452l0.339,1.878l-1.783,1.463l1.256,0.697L14.54,40.521z
	 M23.42,38.931l2.277,0.227l0.683,0.909l-0.228,1.363h-1.822v-0.682v-0.454L23.42,38.931z M11.256,32.46H9.16l-1.048-2.618
	l2.097-2.617l3.407,2.355c0,0-0.786,1.833-1.048,2.879S11.256,32.46,11.256,32.46z M9.684,17.018l-2.097-0.523L6.539,14.4
	l1.048-2.617c0,0-0.262-0.698,0.262-0.785c0.524-0.087,0.786-0.523,0.786-0.523s1.398,1.134,1.573,2.094
	c0.175,0.96,0.175,1.396-0.262,2.355C9.509,15.884,9.684,17.018,9.684,17.018z M5.752,31.151c0.262-0.087,1.31,0.262,1.31,0.262
	s0.35,1.832-0.262,1.832c-0.612,0-1.573-0.785-1.573-0.785S5.49,31.238,5.752,31.151z M4.18,23.823v-1.047l0.262-0.785l1.311-0.785
	l0.524,1.57L5.49,24.084l-0.787,0.523L4.18,23.823z M4.139,1.218L7.68,1.061l0.924,2.513L7.006,4.843L4.139,1.218z M36.658,54.607
	v4.771H3.416v-4.771H36.658z M0.911,60.515h38.251c0.503,0,0.911,0.407,0.911,0.909c0,0.501-0.408,0.909-0.911,0.909H0.911
	C0.408,62.333,0,61.925,0,61.424C0,60.922,0.408,60.515,0.911,60.515z M36.658,66.422h-0.079c-0.809,1.785-7.905,3.181-16.542,3.181
	S4.304,68.207,3.495,66.422H3.416v-2.954h33.242V66.422z"/>
</svg>
