<?xml version="1.0" encoding="iso-8859-1"?>
<!-- Generator: Adobe Illustrator 16.0.0, SVG Export Plug-In . SVG Version: 6.00 Build 0)  -->
<!DOCTYPE svg PUBLIC "-//W3C//DTD SVG 1.1//EN" "http://www.w3.org/Graphics/SVG/1.1/DTD/svg11.dtd">
<svg version="1.1" id="Layer_1" xmlns="http://www.w3.org/2000/svg" xmlns:xlink="http://www.w3.org/1999/xlink" x="0px" y="0px"
	 width="72px" height="68.88px" viewBox="0 0 72 68.88" style="enable-background:new 0 0 72 68.88;" xml:space="preserve">
<path style="fill-rule:evenodd;clip-rule:evenodd;fill:#FFFFFF;" d="M50.64,68.88h-5.28V45.6l12.649-5.698
	c-0.108-0.28-0.169-0.583-0.169-0.902c0-1.392,1.128-2.52,2.52-2.52c0.972,0,1.814,0.551,2.234,1.357L72,33.6v35.28H50.64z
	 M66.36,35.76c-1.392,0-2.52-1.128-2.52-2.52c0-1.392,1.128-2.52,2.52-2.52s2.52,1.128,2.52,2.52
	C68.88,34.632,67.751,35.76,66.36,35.76z M62.321,30.715l-4.995-4.845c0.4-0.132,0.775-0.358,1.088-0.682s0.528-0.705,0.648-1.109
	l4.995,4.845c0.494,0.479,0.506,1.269,0.027,1.764C63.605,31.183,62.815,31.194,62.321,30.715z M56.16,24.96
	c-1.061,0-1.92-0.86-1.92-1.92c0-1.061,0.859-1.92,1.92-1.92c1.06,0,1.92,0.859,1.92,1.92C58.08,24.1,57.22,24.96,56.16,24.96z
	 M54.412,28.868l4.101,5.622c0.406,0.556,0.284,1.336-0.272,1.743c-0.557,0.406-1.337,0.284-1.743-0.272l-4.101-5.622
	c0.417-0.063,0.825-0.222,1.188-0.487C53.948,29.585,54.225,29.245,54.412,28.868z M49.92,27.36c0-1.061,0.86-1.92,1.92-1.92
	c1.061,0,1.92,0.859,1.92,1.92s-0.859,1.92-1.92,1.92C50.78,29.28,49.92,28.42,49.92,27.36z M36,27.36
	c-10.074,0-18.24-3.653-18.24-8.16c0-2.127,1.82-4.063,4.8-5.516c0.005,3.577,6.021,6.476,13.44,6.476s13.435-2.898,13.44-6.476
	c2.98,1.453,4.8,3.389,4.8,5.516C54.24,23.707,46.074,27.36,36,27.36z M36,18.24c-6.23,0-11.28-2.095-11.28-4.68
	c0-2.349,4.169-4.293,9.605-4.628C34.324,8.914,34.32,8.897,34.32,8.88c0-0.397,0.322-0.72,0.72-0.72c0.397,0,0.72,0.323,0.72,0.72
	c0,0.001,0,0.001,0,0.002c0.08,0,0.16-0.002,0.24-0.002c0.31,0,0.617,0.007,0.921,0.017C36.797,8.768,36.72,8.593,36.72,8.4
	c0-0.397,0.322-0.72,0.72-0.72s0.72,0.323,0.72,0.72c0,0.221-0.102,0.416-0.258,0.547c5.323,0.375,9.377,2.297,9.377,4.613
	C47.28,16.145,42.23,18.24,36,18.24z M35.88,16.803c1.126,0,2.039-0.431,2.039-0.963s-0.913-0.963-2.039-0.963
	c-1.125,0-2.039,0.431-2.039,0.963S34.754,16.803,35.88,16.803z M28.92,12.005c-1.125,0-2.039,0.32-2.039,0.715
	c0,0.395,0.913,0.715,2.039,0.715c1.126,0,2.039-0.32,2.039-0.715C30.958,12.325,30.046,12.005,28.92,12.005z M35.88,9.36
	c-0.106,0-0.21,0.002-0.312,0.006C35.437,9.509,35.25,9.6,35.04,9.6c-0.157,0-0.301-0.052-0.419-0.137
	c-0.474,0.088-0.779,0.224-0.779,0.377c0,0.265,0.913,0.48,2.039,0.48c1.126,0,2.039-0.215,2.039-0.48S37.006,9.36,35.88,9.36z
	 M37.827,11.538c0.06,0.143,0.093,0.298,0.093,0.462c0,0.663-0.537,1.2-1.2,1.2c-0.663,0-1.2-0.537-1.2-1.2
	c0-0.271,0.092-0.517,0.243-0.717c-0.001,0-0.002,0-0.003,0c-1.854,0-3.357,0.536-3.357,1.197c0,0.374,0.48,0.707,1.231,0.926
	C33.614,13.34,33.6,13.272,33.6,13.2c0-0.397,0.322-0.72,0.72-0.72c0.398,0,0.72,0.322,0.72,0.72c0,0.165-0.057,0.314-0.15,0.436
	c0.278,0.026,0.568,0.042,0.87,0.042c1.854,0,3.358-0.536,3.358-1.197C39.118,12.097,38.612,11.757,37.827,11.538z M43.32,12.005
	c-1.125,0-2.038,0.32-2.038,0.715c0,0.395,0.913,0.715,2.038,0.715c1.126,0,2.039-0.32,2.039-0.715
	C45.358,12.325,44.446,12.005,43.32,12.005z M38.88,4.8c-0.397,0-0.72-0.322-0.72-0.72c0-0.398,0.322-0.72,0.72-0.72
	c0.398,0,0.72,0.322,0.72,0.72C39.6,4.478,39.278,4.8,38.88,4.8z M36.72,7.68C36.322,7.68,36,7.357,36,6.96
	c0-0.398,0.322-0.72,0.72-0.72c0.397,0,0.72,0.322,0.72,0.72C37.44,7.357,37.118,7.68,36.72,7.68z M35.52,1.44
	c-0.398,0-0.72-0.322-0.72-0.72C34.8,0.322,35.122,0,35.52,0c0.397,0,0.72,0.322,0.72,0.72C36.24,1.118,35.917,1.44,35.52,1.44z
	 M33.84,6.48c-0.002,0-0.004,0-0.006,0C33.986,6.68,34.08,6.928,34.08,7.2c0,0.663-0.538,1.2-1.2,1.2s-1.2-0.537-1.2-1.2
	c0-0.663,0.537-1.2,1.2-1.2c0.002,0,0.004,0,0.006,0C32.734,5.799,32.64,5.552,32.64,5.28c0-0.663,0.537-1.2,1.2-1.2
	c0.663,0,1.2,0.537,1.2,1.2S34.503,6.48,33.84,6.48z M15.84,24.96c-1.06,0-1.92-0.86-1.92-1.92c0-1.061,0.86-1.92,1.92-1.92
	c1.061,0,1.92,0.859,1.92,1.92C17.76,24.1,16.9,24.96,15.84,24.96z M9.679,30.715c-0.494,0.479-1.284,0.468-1.764-0.027
	c-0.479-0.495-0.467-1.284,0.027-1.764l4.995-4.845c0.12,0.404,0.335,0.786,0.648,1.109s0.688,0.549,1.088,0.682L9.679,30.715z
	 M5.64,35.76c-1.392,0-2.52-1.128-2.52-2.52c0-1.392,1.128-2.52,2.52-2.52c1.392,0,2.52,1.128,2.52,2.52
	C8.16,34.632,7.032,35.76,5.64,35.76z M15.503,35.959c-0.406,0.556-1.186,0.678-1.743,0.272c-0.556-0.406-0.678-1.187-0.272-1.743
	l4.101-5.622c0.187,0.377,0.463,0.717,0.827,0.983c0.364,0.265,0.772,0.424,1.188,0.487L15.503,35.959z M20.16,25.44
	c1.06,0,1.92,0.859,1.92,1.92s-0.86,1.92-1.92,1.92c-1.061,0-1.92-0.859-1.92-1.92S19.1,25.44,20.16,25.44z M11.64,36.48
	c1.392,0,2.52,1.128,2.52,2.52c0,0.318-0.062,0.622-0.169,0.902L26.64,45.6v23.28H25.2H0V33.6l9.406,4.237
	C9.826,37.031,10.668,36.48,11.64,36.48z M41.518,64.083v4.733l-0.063,0.063h-4.681L41.518,64.083z M36,29.04
	c5.169,0,9.36,0.322,9.36,0.72c0,0.398-4.19,0.72-9.36,0.72s-9.36-0.322-9.36-0.72C26.64,29.362,30.831,29.04,36,29.04z
	 M30.48,32.021c1.548,0.087,3.455,0.139,5.52,0.139c2.064,0,3.972-0.051,5.52-0.139l-0.002,27.675L36,65.276l-5.518-5.58
	L30.48,32.021z M41.518,42.723L36,48.303l-5.518-5.58v1.613L36,49.917l5.518-5.58V42.723z M41.518,54.417v-3.053L36,56.943
	l-5.518-5.58v3.053L36,59.997L41.518,54.417z M30.482,64.083l4.743,4.797h-4.681l-0.063-0.063V64.083z"/>
</svg>
