<?xml version="1.0" encoding="iso-8859-1"?>
<!-- Generator: Adobe Illustrator 16.0.0, SVG Export Plug-In . SVG Version: 6.00 Build 0)  -->
<!DOCTYPE svg PUBLIC "-//W3C//DTD SVG 1.1//EN" "http://www.w3.org/Graphics/SVG/1.1/DTD/svg11.dtd">
<svg version="1.1" id="Layer_1" xmlns="http://www.w3.org/2000/svg" xmlns:xlink="http://www.w3.org/1999/xlink" x="0px" y="0px"
	 width="67.205px" height="63.124px" viewBox="0 0 67.205 63.124" style="enable-background:new 0 0 67.205 63.124;"
	 xml:space="preserve">
<path style="fill-rule:evenodd;clip-rule:evenodd;fill:#FFFFFF;" d="M18.536,29.491c0.701,0,1.268,0.567,1.268,1.266
	s-0.567,1.266-1.268,1.266c-0.7,0-1.268-0.567-1.268-1.266S17.835,29.491,18.536,29.491z M43.149,25.113
	c-0.627,0-1.135-0.507-1.135-1.133c0-0.625,0.508-1.133,1.135-1.133c0.626,0,1.134,0.507,1.134,1.133
	C44.284,24.606,43.776,25.113,43.149,25.113z M51.944,14.912c0-1.104,0.896-1.999,2.002-1.999c1.106,0,2.002,0.895,2.002,1.999
	c0,1.104-0.896,2-2.002,2C52.841,16.911,51.944,16.016,51.944,14.912z M51.315,34.33c10.489,7.443,16.98,13.751,15.738,15.811
	c-1.297,2.152-10.672-0.939-22.976-7.198c5.329,10.806,7.867,18.895,5.923,20.042c-1.773,1.046-6.835-3.935-12.984-12.284
	c0.284-0.117,0.533-0.301,0.729-0.531c5.331,7.489,9.498,12.016,10.736,11.285c1.49-0.879-1.682-9.116-7.477-20.11
	c-1.195-0.634-2.411-1.293-3.646-1.978c-0.754,0.241-1.515,0.481-2.285,0.718c-0.1,0.031-0.199,0.061-0.298,0.091
	c-0.739,0.799-1.475,1.586-2.202,2.35c1.041,1.61,2.062,3.146,3.054,4.602c-0.308,0.112-0.578,0.299-0.789,0.54
	c-0.978-1.396-1.975-2.861-2.983-4.392c-10.491,10.896-19.41,17.731-21.37,16.012c-1.445-1.268,1.227-6.898,6.509-14.51
	c-2.97,0.603-5.661,1.046-7.983,1.317c0.031-0.179,0.05-0.362,0.05-0.55c0-0.399-0.075-0.781-0.207-1.135
	c2.673-0.378,5.988-1.023,9.75-1.901c2.07-2.858,4.456-5.941,7.09-9.14c-0.124-0.21-0.246-0.42-0.369-0.63
	C11.32,37.486,1.244,42.261,1.803,44.079c0.079,0.256,0.367,0.44,0.84,0.559c-0.083,0.289-0.131,0.593-0.131,0.908
	c0,0.269,0.036,0.528,0.097,0.778c-1.476-0.16-2.375-0.546-2.569-1.178c-0.751-2.446,9.246-7.781,23.458-12.808
	c-1.117-0.215-2.175-0.443-3.162-0.677c0.13-0.246,0.214-0.521,0.24-0.813c1.145,0.251,2.397,0.5,3.731,0.737
	c-2.056-1.313-4.025-2.617-5.888-3.894c-2.805-0.07-4.583,0.137-4.654,0.637c-0.056,0.394,0.957,0.91,2.714,1.461
	c-0.102,0.229-0.164,0.479-0.179,0.742c-2.238-0.755-3.548-1.505-3.461-2.108c0.1-0.697,2.04-1.061,5.072-1.083
	C6.258,19.3-1.143,12.322,0.176,10.135C1.189,8.453,7.131,9.972,15.548,13.7c-3.201-7.449-4.45-12.658-2.919-13.562
	c2.394-1.413,10.783,8.159,19.749,22.181c0.653,0.373,1.311,0.752,1.971,1.137c11.739-12.7,22.202-21.051,24.345-19.171
	c1.003,0.88,0.021,3.864-2.44,8.152c-0.381-0.403-0.859-0.712-1.398-0.891c2.15-3.49,3.091-5.832,2.412-6.428
	c-1.551-1.361-11.009,6.83-22.016,18.866c0.507,0.298,1.016,0.6,1.526,0.905c0.591,0.354,1.178,0.708,1.759,1.062
	c0.934-0.483,1.848-0.937,2.738-1.362c0.053,0.134,0.119,0.262,0.199,0.38c-0.809,0.396-1.64,0.813-2.491,1.254
	c0.487,0.298,0.97,0.596,1.448,0.894c1.257-0.332,2.491-0.645,3.693-0.936c1.038-1.277,2.037-2.528,2.979-3.737
	c-0.679,0.27-1.417,0.583-2.195,0.925c-0.035-0.123-0.082-0.241-0.139-0.352c0.965-0.405,1.877-0.763,2.709-1.058
	c1.365-1.762,2.616-3.438,3.74-5.005c0.402,0.469,0.929,0.827,1.531,1.021c-0.675,0.991-1.396,2.017-2.162,3.075
	c1.184-0.238,1.95-0.2,2.146,0.168c0.326,0.611-0.979,2.012-3.343,3.776c9.941-2.059,16.907-2.382,17.492-0.476
	C67.485,26.48,61.169,30.301,51.315,34.33z M42.415,39.657c12.725,6.906,22.488,10.817,23.494,9.149
	c0.906-1.503-5.542-7.129-15.678-14.038c-2.68,1.071-5.596,2.153-8.693,3.215C41.836,38.548,42.127,39.104,42.415,39.657z
	 M38.103,31.767c0.181,0.315,0.36,0.629,0.538,0.943c0.517-0.597,1.032-1.193,1.535-1.782c-0.095-0.028-0.188-0.055-0.286-0.083
	C39.286,31.165,38.691,31.47,38.103,31.767z M38.599,30.502c-0.292-0.074-0.591-0.147-0.904-0.22
	c0.032,0.215,0.052,0.434,0.055,0.657C38.031,30.795,38.314,30.649,38.599,30.502z M37.844,37.12c0.249-0.08,0.499-0.16,0.746-0.24
	c-0.104-0.189-0.208-0.377-0.314-0.567c-0.208,0.235-0.416,0.467-0.624,0.699C37.717,37.047,37.78,37.083,37.844,37.12z
	 M35.796,35.946c0.463-0.518,0.926-1.036,1.392-1.567c-0.083-0.145-0.165-0.29-0.248-0.436c-0.054-0.002-0.105-0.003-0.16-0.005
	c-0.475,0.643-1.101,1.166-1.825,1.52C35.236,35.622,35.516,35.785,35.796,35.946z M18.258,44.517
	c-5.078,6.95-7.826,11.944-6.787,12.855c1.418,1.245,9.45-5.499,19.231-15.866c-0.021-0.033-0.043-0.067-0.064-0.101
	C26.224,42.668,22.038,43.714,18.258,44.517z M24.819,36.056c-1.741,2.135-3.356,4.189-4.822,6.124
	c2.959-0.715,6.163-1.563,9.524-2.527c-0.726-1.15-1.454-2.326-2.182-3.528C25.955,36.446,25.052,36.445,24.819,36.056z
	 M27.993,35.183c0.409-0.126,0.864-0.283,1.354-0.462c-0.726-0.439-1.444-0.879-2.154-1.318c-0.06,0.048-0.122,0.097-0.179,0.143
	c0.037,0.062,0.073,0.124,0.11,0.186C27.415,34.219,27.704,34.702,27.993,35.183z M25.475,35.254
	c-0.008,0.063-0.001,0.117,0.023,0.164c0.121,0.227,0.631,0.232,1.445,0.05c-0.195-0.325-0.391-0.651-0.586-0.98
	c-0.035-0.058-0.069-0.116-0.104-0.174C25.992,34.627,25.73,34.942,25.475,35.254z M24.379,29.009
	c1.016,0.649,2.055,1.303,3.115,1.962c0.095-0.031,0.187-0.063,0.282-0.094c0.014-0.017,0.028-0.034,0.042-0.051
	c0.028-0.805,0.246-1.561,0.613-2.224c-1.605-0.224-3.15-0.406-4.597-0.549C24.013,28.369,24.198,28.69,24.379,29.009z
	 M2.374,10.801c-1.019,1.69,7.265,8.595,19.633,16.677c0.119,0.008,0.237,0.016,0.358,0.024c-2.482-4.531-4.603-8.792-6.27-12.548
	C8.405,11.305,3.101,9.595,2.374,10.801z M29.822,22.139c-2.021-1.141-3.983-2.213-5.873-3.218c0.205-0.281,0.354-0.605,0.426-0.959
	c1.368,0.708,2.767,1.45,4.194,2.23C21.026,8.588,14.574,0.81,12.979,1.751c-1.116,0.658,0.385,5.449,3.644,12.431
	c1.116,0.506,2.276,1.054,3.466,1.63c-0.22,0.246-0.392,0.534-0.5,0.852c-0.798-0.401-1.582-0.79-2.34-1.157
	c1.725,3.598,3.868,7.705,6.329,12.09c1.608,0.139,3.328,0.333,5.114,0.585c0.743-1.074,1.898-1.84,3.238-2.072
	c0.075-0.083,0.148-0.164,0.223-0.247C31.37,24.589,30.591,23.347,29.822,22.139z M30.452,35.385
	c-0.079-0.047-0.157-0.094-0.235-0.142c-0.657,0.236-1.265,0.436-1.823,0.6c0.725,1.196,1.447,2.367,2.163,3.51
	c0.975-0.284,1.962-0.578,2.959-0.881c0.253-0.277,0.51-0.563,0.765-0.844C33.017,36.903,31.739,36.155,30.452,35.385z
	 M36.442,25.987c-0.655-0.392-1.307-0.778-1.956-1.16c-0.105,0.115-0.208,0.229-0.313,0.345c0.288,0.467,0.577,0.938,0.866,1.412
	c0.369,0.188,0.713,0.419,1.021,0.691c0.434-0.24,0.879-0.48,1.328-0.72C37.074,26.366,36.759,26.177,36.442,25.987z M37.836,26.827
	c-0.487,0.259-0.967,0.518-1.438,0.776c0.149,0.159,0.289,0.328,0.417,0.505c0.724-0.205,1.438-0.402,2.148-0.595
	C38.59,27.284,38.214,27.056,37.836,26.827z M40.09,28.204c-0.911,0.251-1.833,0.511-2.769,0.781
	c0.129,0.29,0.233,0.594,0.305,0.911c0.492,0.125,0.961,0.252,1.408,0.379c0.192-0.101,0.384-0.202,0.578-0.304
	c0.606-0.322,1.195-0.643,1.774-0.962C40.958,28.741,40.525,28.473,40.09,28.204z M40.261,30.646c0.041,0.013,0.08,0.026,0.12,0.04
	c0.055-0.064,0.109-0.128,0.164-0.193C40.45,30.544,40.356,30.595,40.261,30.646z M40.972,33.205
	c1.553-0.063,2.483-0.271,2.535-0.629c0.038-0.263-0.402-0.58-1.22-0.926C41.854,32.166,41.416,32.684,40.972,33.205z M41.536,27.81
	c0.276,0.174,0.551,0.348,0.824,0.521c0.264-0.317,0.525-0.634,0.785-0.949C42.614,27.52,42.077,27.664,41.536,27.81z
	 M42.442,31.465c1.141,0.516,1.764,1.008,1.703,1.429c-0.085,0.594-1.509,0.946-3.807,1.051c-0.201,0.233-0.407,0.469-0.61,0.703
	c0.292,0.528,0.579,1.051,0.862,1.572c2.737-0.913,5.335-1.83,7.748-2.729c-1.569-1.047-3.213-2.118-4.922-3.205
	C43.092,30.679,42.773,31.069,42.442,31.465z M52.029,21.337c-0.13-0.245-0.715-0.232-1.648-0.003
	c-0.966,1.327-1.998,2.701-3.091,4.112c0.041-0.009,0.081-0.018,0.122-0.027C50.469,23.424,52.306,21.858,52.029,21.337z
	 M65.303,24.483c-0.447-1.454-7.579-0.637-17.705,1.781c-0.607,0.411-1.255,0.833-1.943,1.264c-0.506,0.635-1.022,1.276-1.549,1.922
	c1.88,1.218,3.682,2.423,5.391,3.605C59.32,29.32,65.752,25.945,65.303,24.483z M22.053,19.043c-0.811,0-1.468-0.656-1.468-1.466
	c0-0.81,0.657-1.466,1.468-1.466s1.468,0.656,1.468,1.466C23.521,18.387,22.864,19.043,22.053,19.043z M5.937,43.762
	c1.069,0,1.936,0.865,1.936,1.933s-0.867,1.933-1.936,1.933c-1.069,0-1.936-0.865-1.936-1.933S4.867,43.762,5.937,43.762z
	 M36.372,47.884c0.626,0,1.135,0.507,1.135,1.133s-0.508,1.133-1.135,1.133s-1.135-0.507-1.135-1.133S35.746,47.884,36.372,47.884z"
	/>
</svg>
