<?xml version="1.0" encoding="iso-8859-1"?>
<!-- Generator: Adobe Illustrator 16.0.0, SVG Export Plug-In . SVG Version: 6.00 Build 0)  -->
<!DOCTYPE svg PUBLIC "-//W3C//DTD SVG 1.1//EN" "http://www.w3.org/Graphics/SVG/1.1/DTD/svg11.dtd">
<svg version="1.1" id="Layer_1" xmlns="http://www.w3.org/2000/svg" xmlns:xlink="http://www.w3.org/1999/xlink" x="0px" y="0px"
	 width="67.199px" height="66.247px" viewBox="0 0 67.199 66.247" style="enable-background:new 0 0 67.199 66.247;"
	 xml:space="preserve">
<path style="fill-rule:evenodd;clip-rule:evenodd;fill:#FFFFFF;" d="M65.52,38.14c-1.112,0.229-2.197-0.473-2.463-1.574
	c-0.006,0.021-0.012,0.041-0.018,0.063c-1.274-1.285-2.004-1.497-3.199-0.926c-0.16,0.284-0.355,0.546-0.589,0.772
	c-0.11,1.192,0.345,1.807,1.869,2.598c-0.021,0.013-0.038,0.025-0.058,0.038c1.105-0.121,2.125,0.647,2.304,1.764
	c0.186,1.153-0.593,2.239-1.738,2.424c-1.146,0.186-2.226-0.599-2.411-1.752c-0.085-0.527,0.033-1.039,0.294-1.458
	c-0.151-1.762-0.577-2.389-1.842-2.728c0.027-0.019,0.049-0.035,0.075-0.053c-0.087,0.021-0.175,0.042-0.265,0.057
	c-0.188,0.031-0.375,0.041-0.56,0.039c-0.972,0.653-1.181,1.368-0.864,2.939c0.352,0.313,0.603,0.746,0.684,1.248
	c0.186,1.153-0.593,2.238-1.739,2.424c-1.146,0.186-2.225-0.599-2.411-1.752c-0.186-1.153,0.593-2.238,1.738-2.424
	c0.018-0.003,0.035-0.003,0.052-0.006c1.102-1.114,1.33-1.821,0.906-2.874c-0.837-0.487-1.459-1.333-1.626-2.368
	c-0.179-1.11,0.209-2.178,0.946-2.913c-0.103,0.063-0.21,0.127-0.33,0.199c-0.061-1.808-0.45-2.464-1.703-2.869
	c-0.162,0.053-0.329,0.098-0.502,0.126c-1.544,0.25-3.009-0.615-3.593-2.003c-1.654-0.53-2.39-0.374-3.183,0.664
	c-0.008-0.038-0.015-0.068-0.022-0.104c-0.057,0.331-0.164,0.659-0.325,0.972c-0.846,1.641-2.855,2.279-4.487,1.425
	c-1.631-0.854-2.268-2.875-1.422-4.516c0.68-1.318,2.109-1.987,3.492-1.758c1.119-0.569,1.397-1.281,1.207-3.04
	c0.013,0.005,0.023,0.01,0.035,0.015c-1.128-0.994-1.485-2.664-0.765-4.061c0.082-0.157,0.176-0.303,0.277-0.441
	c0.011-1.322-0.487-1.9-2.174-2.525c0.105-0.092,0.2-0.174,0.291-0.253c-0.924,0.474-2.055,0.509-3.046-0.01
	c-0.925-0.484-1.529-1.343-1.726-2.295c-0.861-0.735-1.604-0.733-3-0.032c-0.007,0.014-0.012,0.029-0.02,0.044
	c-0.534,1.036-1.803,1.439-2.833,0.9c-1.031-0.539-1.433-1.816-0.898-2.853c0.535-1.036,1.803-1.439,2.834-0.9
	c0.449,0.235,0.779,0.61,0.964,1.045c1.384,0.795,2.124,0.82,3.045,0.097c0.056-0.177,0.125-0.352,0.212-0.522
	c0.042-0.082,0.089-0.159,0.137-0.235c-0.025,0.019-0.046,0.035-0.073,0.055c0.077-1.314-0.381-1.918-1.997-2.615
	c-0.478,0.118-0.999,0.07-1.47-0.176c-1.03-0.539-1.433-1.816-0.898-2.853c0.534-1.036,1.803-1.439,2.833-0.9
	c0.999,0.522,1.404,1.736,0.943,2.754c0.019-0.015,0.035-0.027,0.054-0.042c0.268,1.704,0.706,2.331,1.866,2.6
	c0.287-0.153,0.596-0.257,0.915-0.32c0.913-0.962,0.942-1.726,0.129-3.345c0.023,0,0.043,0.001,0.066,0.002
	c-0.956-0.6-1.278-1.856-0.714-2.846c0.578-1.012,1.862-1.361,2.869-0.779s1.355,1.875,0.778,2.888
	c-0.266,0.467-0.684,0.79-1.154,0.949c-0.855,1.458-0.861,2.208-0.049,3.21c-0.13-0.002-0.242-0.004-0.346-0.006
	c0.203,0.06,0.404,0.134,0.599,0.236c1.632,0.854,2.269,2.875,1.422,4.516c-0.079,0.154-0.172,0.296-0.271,0.432
	c0.367,1.77,0.863,2.347,2.172,2.529c-0.108,0.098-0.198,0.18-0.283,0.256c0.425-0.215,0.89-0.343,1.368-0.362
	c0.913-0.806,1.009-1.562,0.427-3.177c-0.079-0.058-0.155-0.12-0.226-0.191c-0.831-0.817-0.846-2.156-0.035-2.991
	c0.812-0.834,2.142-0.848,2.973-0.031c0.83,0.817,0.846,2.157,0.034,2.991c-0.259,0.267-0.571,0.449-0.903,0.547
	c-1.064,1.388-1.17,2.138-0.47,3.246c-0.047-0.007-0.085-0.012-0.128-0.018c0.261,0.137,0.495,0.307,0.703,0.499
	c1.218,0.1,1.825-0.352,2.564-1.888c-0.091-0.63,0.098-1.294,0.574-1.784c0.811-0.834,2.142-0.848,2.972-0.03
	c0.83,0.817,0.846,2.156,0.034,2.991c-0.68,0.7-1.725,0.82-2.535,0.359c-1.714,0.204-2.317,0.653-2.613,1.924
	c-0.021-0.028-0.037-0.049-0.056-0.076c0.245,0.809,0.19,1.709-0.227,2.518c-0.676,1.31-2.092,1.978-3.466,1.761
	c-1.363,1.088-1.645,1.79-1.229,3.033c-0.018-0.007-0.031-0.012-0.048-0.019c0.44,0.386,0.765,0.873,0.954,1.408
	c1.033,0.542,1.77,0.349,3.066-0.749c0.014,0.072,0.027,0.139,0.04,0.206c0.158-1.46,1.262-2.694,2.773-2.938
	c0.894-0.145,1.762,0.085,2.448,0.572c-0.019-0.026-0.034-0.048-0.054-0.077c1.293,0.116,1.906-0.319,2.637-1.892
	c-0.181-0.918,0.26-1.878,1.134-2.308c1.042-0.513,2.302-0.079,2.813,0.971s0.081,2.316-0.961,2.829
	c-0.612,0.301-1.298,0.274-1.864-0.011c-1.683,0.225-2.299,0.662-2.586,1.857c0.115,0.259,0.202,0.535,0.25,0.828
	c0.008-0.043,0.015-0.081,0.024-0.128c0.826,1.016,1.567,1.15,3.211,0.569c0.197-0.286,0.467-0.527,0.8-0.691
	c1.042-0.513,2.301-0.079,2.813,0.971s0.081,2.316-0.961,2.829c-1.042,0.513-2.301,0.078-2.813-0.971
	c-0.044-0.091-0.079-0.183-0.109-0.276c-1.345-1.065-2.089-1.209-3.14-0.586c-0.167,0.443-0.421,0.847-0.751,1.182
	c0.095-0.055,0.197-0.113,0.317-0.182c-0.239,1.307,0.15,1.962,1.706,2.868c0.159-0.051,0.322-0.095,0.493-0.123
	c1.814-0.293,3.523,0.949,3.818,2.775c0.035,0.218,0.042,0.433,0.035,0.646c0.031-0.1,0.063-0.207,0.103-0.332
	c0.691,1.089,1.401,1.319,3.046,0.959c0.297-0.399,0.733-0.696,1.257-0.804c1.137-0.234,2.249,0.504,2.482,1.649
	C67.389,36.788,66.657,37.905,65.52,38.14z M32.843,27.884c0.316,0.977,0.274,1.981-0.048,2.878c0.7,1.441,1.568,2.351,3.625,3.836
	c-0.065,0.06-0.122,0.112-0.178,0.164c2.064-0.241,4.08,0.997,4.746,3.051c0.759,2.341-0.521,4.854-2.859,5.614
	c-2.338,0.76-4.849-0.522-5.608-2.863c-0.356-1.098-0.259-2.23,0.182-3.203c-1.225-2.01-2.043-2.932-3.332-3.716
	c-2.149,0.376-4.302-0.873-4.995-3.01c-0.759-2.341,0.521-4.854,2.86-5.614S32.084,25.543,32.843,27.884z M35.305,34.979
	c-1.068-1.72-1.839-2.598-2.946-3.318c-0.139,0.217-0.297,0.422-0.472,0.613c0.592,1.074,1.356,1.88,2.803,2.976
	C34.885,35.147,35.089,35.053,35.305,34.979z M30.294,33.381c0.614,1.084,1.42,1.903,2.968,3.053
	c0.204-0.259,0.438-0.497,0.698-0.707c-0.936-1.459-1.665-2.26-2.66-2.921C30.998,33.037,30.661,33.231,30.294,33.381z
	 M25.196,48.283c0.053-0.053,0.109-0.105,0.168-0.154c0.999-0.827,2.481-0.685,3.31,0.317c0.829,1.002,0.69,2.484-0.309,3.311
	c-0.021,0.018-0.044,0.032-0.066,0.049c0.057-0.011,0.112-0.022,0.173-0.034c-0.573,1.932-0.405,2.775,0.735,3.695
	c-0.089,0.02-0.167,0.037-0.244,0.054c0.411,0.133,0.791,0.379,1.087,0.737c0.829,1.002,0.69,2.484-0.309,3.311
	c-0.781,0.646-1.855,0.698-2.684,0.212c-1.83,0.195-2.514,0.678-2.93,2.019c-0.081-0.118-0.149-0.218-0.213-0.313
	c0.285,0.888,0.024,1.897-0.736,2.527c-1,0.826-2.481,0.684-3.311-0.317c-0.316-0.383-0.491-0.835-0.531-1.294
	c-0.727-1.235-1.765-1.752-3.738-1.499c0.021-0.055,0.039-0.105,0.058-0.157c-0.02,0.018-0.038,0.036-0.059,0.053
	c-1,0.827-2.481,0.685-3.31-0.317c-0.316-0.382-0.491-0.835-0.531-1.294c-0.727-1.235-1.765-1.753-3.738-1.499
	c0.021-0.057,0.04-0.108,0.06-0.162c-0.021,0.019-0.039,0.04-0.06,0.058c-1,0.827-2.481,0.685-3.311-0.317
	c-0.829-1.002-0.69-2.484,0.309-3.311c0.18-0.148,0.375-0.265,0.58-0.351c0.507-1.084,0.317-1.894-0.727-3.232
	c-0.446-0.125-0.86-0.382-1.178-0.766c-0.829-1.002-0.69-2.484,0.309-3.311c0.909-0.751,2.214-0.7,3.067,0.068
	c-0.071-0.114-0.147-0.238-0.24-0.39c1.26,0.156,1.97-0.175,2.779-1.408c-0.485-0.959-0.266-2.157,0.596-2.87
	c0.909-0.751,2.214-0.7,3.067,0.068c-0.071-0.114-0.147-0.238-0.24-0.389c1.356,0.167,2.075-0.228,2.968-1.708
	c-0.23-0.86,0.038-1.813,0.768-2.417c0.999-0.827,2.481-0.685,3.31,0.317c0.829,1.002,0.69,2.484-0.309,3.311
	c-0.114,0.094-0.235,0.172-0.36,0.241c-0.438,1.667-0.222,2.458,0.841,3.316c-0.089,0.02-0.167,0.037-0.244,0.054
	c0.411,0.133,0.792,0.379,1.088,0.737c0.39,0.472,0.563,1.051,0.536,1.618C22.893,48.218,23.897,48.711,25.196,48.283z
	 M26.521,52.267c-0.292-0.044-0.576-0.146-0.836-0.297c-1.693,0.18-2.407,0.606-2.833,1.729c0.12,0.311,0.172,0.639,0.156,0.964
	c1.262,1.367,2.267,1.861,3.566,1.433c0.053-0.054,0.108-0.105,0.168-0.154c0.18-0.148,0.375-0.265,0.58-0.351
	C27.839,54.481,27.629,53.661,26.521,52.267z M22.645,59.914c-0.089,0.02-0.167,0.037-0.244,0.054
	c0.305,0.099,0.592,0.26,0.841,0.482c-0.07-0.113-0.145-0.235-0.236-0.383c1.357,0.167,2.076-0.229,2.969-1.711
	c-0.035-0.131-0.062-0.264-0.073-0.398c-0.727-1.234-1.765-1.752-3.738-1.498c0.021-0.056,0.039-0.105,0.059-0.157
	c-0.02,0.018-0.038,0.037-0.059,0.053c-0.114,0.094-0.235,0.172-0.359,0.241C21.365,58.265,21.582,59.056,22.645,59.914z
	 M15.064,56.7c-0.089,0.02-0.167,0.037-0.244,0.054c0.305,0.099,0.592,0.261,0.841,0.483c-0.07-0.113-0.145-0.235-0.236-0.384
	c1.357,0.167,2.076-0.229,2.969-1.71c-0.035-0.131-0.062-0.264-0.073-0.398c-0.727-1.235-1.765-1.753-3.738-1.499
	c0.021-0.055,0.039-0.105,0.058-0.157c-0.02,0.018-0.038,0.036-0.058,0.053c-0.114,0.094-0.235,0.172-0.36,0.241
	C13.785,55.051,14.002,55.842,15.064,56.7z M7.004,50.033c0.021-0.057,0.04-0.108,0.06-0.162c-0.021,0.019-0.038,0.04-0.06,0.058
	c-0.114,0.094-0.235,0.174-0.36,0.244c-0.438,1.665-0.22,2.456,0.842,3.313c-0.091,0.02-0.169,0.038-0.248,0.055
	c0.308,0.1,0.598,0.262,0.849,0.488c-0.071-0.114-0.147-0.238-0.24-0.389c1.357,0.167,2.076-0.229,2.969-1.71
	c-0.035-0.131-0.062-0.264-0.074-0.398C10.015,50.297,8.977,49.779,7.004,50.033z M11.36,45.837
	c-0.178-0.027-0.353-0.07-0.521-0.137c-1.797,0.198-2.474,0.684-2.886,2.015c-0.081-0.118-0.149-0.218-0.212-0.313
	c0.086,0.27,0.116,0.551,0.104,0.829c1.264,1.371,2.27,1.866,3.57,1.438c0.053-0.053,0.108-0.105,0.168-0.154
	c0.18-0.149,0.375-0.265,0.58-0.352C12.68,48.054,12.47,47.232,11.36,45.837z M11.899,53.355c-1.83,0.195-2.515,0.678-2.93,2.019
	c-0.081-0.118-0.149-0.218-0.213-0.313c0.086,0.27,0.117,0.551,0.104,0.829c1.265,1.371,2.27,1.866,3.57,1.438
	c0.053-0.053,0.109-0.105,0.168-0.154c0.18-0.149,0.375-0.265,0.58-0.352c0.508-1.087,0.316-1.897-0.735-3.241
	C12.255,53.528,12.071,53.456,11.899,53.355z M13.206,45.33c-0.022,0.019-0.047,0.032-0.069,0.05
	c0.032-0.006,0.063-0.013,0.096-0.019c0.011-0.029,0.022-0.06,0.033-0.088C13.245,45.291,13.228,45.313,13.206,45.33z
	 M13.291,45.425c-0.543,1.875-0.366,2.708,0.758,3.616c-0.089,0.02-0.167,0.037-0.244,0.054c0.13,0.042,0.256,0.1,0.378,0.166
	c-0.042-0.069-0.085-0.139-0.134-0.219c1.357,0.167,2.076-0.229,2.969-1.711c-0.035-0.131-0.062-0.264-0.073-0.397
	C16.229,45.716,15.208,45.197,13.291,45.425z M17.629,41.323c-0.188-0.054-0.372-0.126-0.544-0.227
	c-1.83,0.195-2.514,0.677-2.93,2.019c-0.081-0.118-0.149-0.219-0.213-0.313c0.086,0.27,0.117,0.551,0.104,0.829
	c1.264,1.371,2.27,1.866,3.57,1.438c0.053-0.054,0.109-0.105,0.168-0.154c0.18-0.149,0.375-0.265,0.58-0.352
	C18.872,43.477,18.68,42.667,17.629,41.323z M18.941,49.053c-0.292-0.044-0.575-0.146-0.836-0.297
	c-1.694,0.18-2.407,0.607-2.833,1.73c0.12,0.311,0.172,0.639,0.156,0.964c1.262,1.367,2.267,1.86,3.565,1.433
	c0.053-0.053,0.109-0.105,0.168-0.154c0.18-0.148,0.375-0.265,0.58-0.352C20.26,51.268,20.05,50.447,18.941,49.053z M19.479,56.569
	c-1.83,0.195-2.515,0.677-2.93,2.019c-0.081-0.118-0.149-0.219-0.212-0.313c0.086,0.271,0.122,0.554,0.108,0.833
	c1.262,1.367,2.267,1.861,3.566,1.433c0.053-0.053,0.108-0.105,0.168-0.154c0.18-0.148,0.375-0.265,0.58-0.351
	c0.508-1.087,0.316-1.897-0.734-3.242C19.835,56.742,19.651,56.67,19.479,56.569z M20.786,48.544
	c-0.021,0.018-0.044,0.032-0.065,0.049c0.03-0.006,0.062-0.012,0.093-0.018c0.011-0.029,0.021-0.057,0.031-0.084
	C20.824,48.508,20.806,48.527,20.786,48.544z M20.871,48.638c-0.544,1.875-0.367,2.708,0.757,3.616
	c-0.089,0.02-0.167,0.037-0.244,0.054c0.131,0.042,0.256,0.101,0.379,0.166c-0.042-0.069-0.085-0.139-0.135-0.219
	c1.357,0.167,2.076-0.229,2.969-1.71c-0.035-0.131-0.062-0.264-0.074-0.398C23.808,48.929,22.788,48.41,20.871,48.638z
	 M16.868,26.719c-1.552,0-2.811-1.26-2.811-2.814c0-0.471,0.117-0.914,0.321-1.304c-0.098-1.385-0.716-2.093-2.414-2.753
	c-0.631,0.344-1.355,0.54-2.125,0.54c-0.808,0-1.563-0.219-2.216-0.596c-1.667,0.624-2.345,1.275-2.521,2.486
	c0.327,0.46,0.521,1.021,0.521,1.627c0,1.555-1.259,2.814-2.811,2.814C1.259,26.719,0,25.459,0,23.904
	c0-1.554,1.259-2.814,2.812-2.814c0.225,0,0.443,0.029,0.653,0.079c1.441-0.242,2.083-0.974,2.581-2.917
	c-0.414-0.677-0.657-1.47-0.657-2.321c0-1.95,1.253-3.604,2.996-4.208c0.959-1.198,0.92-2.2-0.114-4.104
	C7.392,7.144,6.794,6.213,6.794,5.142c0-1.554,1.259-2.814,2.812-2.814s2.811,1.26,2.811,2.814c0,1.192-0.741,2.208-1.787,2.619
	c-0.903,1.707-0.967,2.677-0.191,3.759c2.174,0.293,3.853,2.154,3.853,4.411c0,0.96-0.307,1.847-0.823,2.575
	c0.507,1.815,1.185,2.478,2.664,2.686c0.235-0.063,0.48-0.101,0.735-0.101c1.553,0,2.812,1.26,2.812,2.814
	C19.679,25.459,18.42,26.719,16.868,26.719z M43.941,50.259c1.229-0.771,2.849-0.399,3.619,0.831
	c0.112,0.178,0.197,0.365,0.261,0.556c0.906,1.021,1.803,1.166,3.586,0.597c0.33-0.664,0.835-1.249,1.509-1.672
	c1.541-0.967,3.469-0.794,4.811,0.286c1.422,0.166,2.194-0.362,3.187-2.125c-0.06-0.932,0.379-1.867,1.225-2.398
	c1.229-0.771,2.849-0.399,3.619,0.831c0.771,1.229,0.399,2.852-0.83,3.623c-0.942,0.591-2.113,0.508-2.956-0.116
	c-1.797,0.131-2.595,0.562-3.065,1.713c0.846,1.867,0.208,4.119-1.575,5.239c-0.759,0.477-1.612,0.674-2.443,0.626
	c-1.183,1.302-1.371,2.168-0.801,3.442c0.167,0.154,0.318,0.331,0.444,0.533c0.771,1.229,0.399,2.852-0.829,3.623
	c-1.229,0.771-2.849,0.399-3.619-0.831c-0.77-1.229-0.398-2.852,0.83-3.623c0.373-0.233,0.781-0.361,1.19-0.393
	c1.046-0.765,1.299-1.605,0.979-3.277c-0.585-0.33-1.098-0.806-1.48-1.415c-0.401-0.64-0.603-1.347-0.629-2.051
	c-1.319-1.011-2.171-1.225-3.215-0.763c-0.202,0.487-0.548,0.918-1.028,1.219c-1.228,0.771-2.848,0.399-3.619-0.83
	C42.342,52.652,42.713,51.03,43.941,50.259z"/>
</svg>
