<?xml version="1.0" encoding="iso-8859-1"?>
<!-- Generator: Adobe Illustrator 16.0.0, SVG Export Plug-In . SVG Version: 6.00 Build 0)  -->
<!DOCTYPE svg PUBLIC "-//W3C//DTD SVG 1.1//EN" "http://www.w3.org/Graphics/SVG/1.1/DTD/svg11.dtd">
<svg version="1.1" id="Layer_1" xmlns="http://www.w3.org/2000/svg" xmlns:xlink="http://www.w3.org/1999/xlink" x="0px" y="0px"
	 width="64.326px" height="67.2px" viewBox="0 0 64.326 67.2" style="enable-background:new 0 0 64.326 67.2;" xml:space="preserve"
	>
<path style="fill-rule:evenodd;clip-rule:evenodd;fill:#FFFFFF;" d="M59.914,49.006c-2.333-0.102-4.141-2.078-4.039-4.412
	c0.004-0.099,0.017-0.195,0.027-0.292c-1.826-0.146-3.027,0.117-4.056,2.093c-0.035,0.067-0.07,0.122-0.104,0.167
	c-0.394,2.07-1.484,3.878-3.011,5.182c0.382,0.865,1.209,1.691,2.71,2.279c3.169-0.485,6.309,1.388,7.308,4.543
	c1.105,3.49-0.825,7.216-4.312,8.323s-7.209-0.826-8.315-4.316c-0.716-2.26-0.153-4.615,1.276-6.297
	c-0.234-1.596-0.81-2.351-1.718-2.816c-0.998,0.325-2.068,0.481-3.177,0.433c-3.278-0.143-6.069-2.028-7.528-4.726
	c-1.559-0.542-4.627,0.486-5.324,1.623c-0.005,0.007-0.01,0.013-0.014,0.02c0.001,0.087,0.005,0.174,0.001,0.262
	c-0.108,2.491-2.214,4.421-4.702,4.313c-2.488-0.109-4.417-2.216-4.308-4.707s2.214-4.421,4.702-4.312
	c1.781,0.078,3.27,1.182,3.936,2.714c2.078,0.162,4.344-1.686,4.585-4.035c0.01-0.093,0.024-0.167,0.041-0.23
	c0-0.115,0.001-0.229,0.006-0.345c0.13-2.974,1.678-5.549,3.96-7.098c-0.079-2.015-0.933-4.151-1.849-5.273
	c-0.617,0.182-1.271,0.28-1.947,0.28c-1.655,0-3.173-0.585-4.364-1.559c-1.198,0.252-1.554,1.056-1.307,2.172
	c0.741,0.718,1.204,1.723,1.204,2.837c0,2.181-1.767,3.949-3.946,3.949s-3.946-1.768-3.946-3.949s1.767-3.95,3.946-3.95
	c0.405,0,0.795,0.062,1.163,0.175c1.135-0.45,1.646-1.486,1.675-2.522c-0.838-1.148-1.339-2.559-1.339-4.091
	c0-2.135,0.963-4.043,2.474-5.315c0.466-2.928-1.069-6.473-3.691-7.993c-0.003-0.002-0.006-0.004-0.009-0.006
	c-0.284,0.041-0.573,0.069-0.869,0.069c-1.346,0-2.586-0.445-3.593-1.189c-0.013-0.001-0.024,0-0.038-0.003
	c-0.751-0.167-2.537,0.461-4.018,1.466c0.184,0.409,0.31,0.853,0.355,1.324c0.048,0.495,0.004,0.976-0.11,1.431
	c0.241,0.372,0.55,0.709,0.875,0.893c0.228-0.259,0.548-0.438,0.918-0.474c0.775-0.075,1.464,0.492,1.539,1.268
	s-0.492,1.465-1.267,1.54s-1.463-0.492-1.539-1.268c-0.021-0.213,0.011-0.418,0.079-0.607c-0.254-0.255-0.53-0.483-0.834-0.676
	c-0.593,1.34-1.866,2.332-3.424,2.483c-0.609,0.059-1.199-0.019-1.743-0.204c-0.196,0.144-0.296,0.349-0.253,0.689
	c0.594,0.256,1.038,0.811,1.105,1.501c0.098,1.008-0.639,1.904-1.646,2.002c-1.007,0.098-1.903-0.64-2-1.647
	c-0.098-1.008,0.639-1.905,1.646-2.002c0.148-0.014,0.292-0.006,0.433,0.014c0.168-0.131,0.138-0.309-0.093-0.897
	c-0.006-0.016-0.007-0.027-0.012-0.042c-0.157-0.095-0.306-0.203-0.449-0.317c-0.082,0.002-0.169,0.005-0.27,0.013
	c-0.98,0.076-1.756,0.435-2.376,0.945c0.36,0.711,0.475,1.552,0.254,2.385c-0.176,0.662-0.537,1.224-1.011,1.648l0.138,0.237
	c0.194-0.125,0.436-0.173,0.676-0.109c0.453,0.12,0.723,0.583,0.603,1.035s-0.585,0.721-1.038,0.601
	c-0.453-0.12-0.723-0.583-0.603-1.035c0.015-0.056,0.035-0.108,0.06-0.158l-0.322-0.211C6.34,23.289,5.41,23.455,4.49,23.211
	c-0.49-0.13-0.922-0.365-1.287-0.67c-0.5,0.031-0.84,0.332-1.073,0.647c0.121,0.239,0.161,0.521,0.087,0.8
	c-0.16,0.605-0.777,0.966-1.378,0.805c-0.602-0.161-0.96-0.782-0.801-1.387s0.777-0.966,1.379-0.805
	c0.157,0.042,0.297,0.117,0.416,0.213c0.284-0.296,0.548-0.666,0.706-1.028c-0.422-0.656-0.617-1.456-0.507-2.27
	c-0.104-0.04-0.209-0.056-0.312-0.054c-0.003,0.014-0.003,0.028-0.007,0.042c-0.12,0.452-0.583,0.721-1.034,0.601
	c-0.451-0.12-0.72-0.583-0.6-1.035c0.12-0.452,0.583-0.721,1.034-0.601c0.308,0.082,0.527,0.324,0.6,0.613
	c0.271-0.103,0.49-0.324,0.49-0.324s0.004,0.011,0.01,0.026c0.596-1.603,2.319-2.522,4.001-2.076
	c0.662,0.176,1.224,0.539,1.646,1.018C8.806,17.313,9.563,16.718,9.809,16c-0.204-0.428-0.34-0.897-0.388-1.397
	c-0.225-2.312,1.461-4.366,3.764-4.59c1.53-0.148,2.944,0.551,3.789,1.713c1.236-1.024,2.053-2.369,2.353-3.613
	c-0.221-0.632-0.347-1.309-0.347-2.016c0-3.367,2.72-6.097,6.075-6.097c3.355,0,6.075,2.729,6.075,6.097
	c0,1.753-0.742,3.329-1.922,4.441c-0.492,2.231,1.193,6.15,3.853,8.043c0.328-0.048,0.661-0.081,1.003-0.081
	c3.818,0,6.913,3.106,6.913,6.938c0,0.694-0.104,1.363-0.293,1.995c0.548,0.631,1.347,0.976,2.465,1.056
	c0.619-0.689,1.514-1.125,2.513-1.125c1.868,0,3.382,1.516,3.382,3.385c0,1.869-1.514,3.385-3.382,3.385s-3.382-1.516-3.382-3.385
	c0-0.43,0.083-0.839,0.229-1.217c-0.658-0.485-1.473-0.811-2.254-1.021c-0.538,1.09-1.354,2.015-2.352,2.688
	c0.356,1.737,1.395,3.53,3.15,4.812c0.721-0.151,1.472-0.216,2.241-0.182c3.743,0.164,6.851,2.598,8.065,5.919
	c1.241,1.539,2.465,1.858,4.911,1.241c0.702-1.503,2.256-2.515,4.015-2.438c2.333,0.102,4.141,2.077,4.039,4.412
	C64.22,47.298,62.246,49.108,59.914,49.006z"/>
</svg>
