<?xml version="1.0" encoding="iso-8859-1"?>
<!-- Generator: Adobe Illustrator 16.0.0, SVG Export Plug-In . SVG Version: 6.00 Build 0)  -->
<!DOCTYPE svg PUBLIC "-//W3C//DTD SVG 1.1//EN" "http://www.w3.org/Graphics/SVG/1.1/DTD/svg11.dtd">
<svg version="1.1" id="Layer_1" xmlns="http://www.w3.org/2000/svg" xmlns:xlink="http://www.w3.org/1999/xlink" x="0px" y="0px"
	 width="71.522px" height="72.003px" viewBox="0 0 71.522 72.003" style="enable-background:new 0 0 71.522 72.003;"
	 xml:space="preserve">
<path style="fill-rule:evenodd;clip-rule:evenodd;fill:#FFFFFF;" d="M65.298,30.037c0.089-0.06-5.824,3.923-5.895,3.971l0,0
	c-0.846,0.57-5.433,3.66-5.339,3.597c-1.281,0.863-3.239,0.979-5.586,0.65c-0.506,2.275-1.257,3.96-2.402,4.731
	c0.063-0.042-3.731,2.514-4.433,2.986l0,0c0.002-0.001-0.023,0.016-0.068,0.046c-0.024,0.017-0.042,0.028-0.044,0.03l0,0
	c-0.677,0.456-4.219,2.842-4.146,2.792c-3.141,2.116-11.97-2.413-19.056-5.285c0.344,7.969,1.409,17.172-0.923,18.744
	c0.052-0.036-2.352,1.584-2.778,1.871l0,0c-0.035,0.023-2.743,1.848-2.705,1.822c-0.64,0.431-1.716,0.3-3.05-0.168
	c-0.118,1.458-0.417,2.503-1.008,2.901c0.044-0.03-1.972,1.329-2.314,1.559l0,0c-0.001,0.001-0.011,0.008-0.019,0.013
	c-0.022,0.015-0.037,0.025-0.036,0.024l0,0c-0.335,0.226-2.234,1.505-2.205,1.485C2.657,72.234,1.472,71.931,0,71.238v-2.592
	c2.453,1.377,4.551,2.261,5.521,1.656c0.859-0.615,1.041-2.737,0.935-5.527C4.442,63.779,2.165,62.426,0,61.186V58.18
	c1.974,1.037,4.163,2.312,6.253,3.442c-0.561-6.798-1.816-15.321,0.146-17.157c-0.038,0.035,2.615-2.449,2.649-2.481
	C6.64,44.239,8.704,55.771,8.918,62.99c2.497,1.191,4.605,1.864,5.667,1.205c2.544-1.807,0.609-13.648,0.555-21.842
	c-2.826-0.954-5.075-1.321-6.091-0.369c0.034-0.032,2.841-2.66,2.799-2.621c0.682-0.639,1.882-0.735,3.424-0.481
	c0.186-1.853,0.586-3.273,1.334-3.974c-0.046,0.043,3.209-3.005,3.251-3.044c-1.24,1.161-1.607,4.121-1.619,7.768
	c7.683,2.431,19.423,8.896,23.354,6.37c1.634-1.168,2.362-4.428,2.708-8.646c-9.272-2.523-21.316-8.418-24.442-5.491
	c0.042-0.039,3.509-3.285,3.457-3.236c2.828-2.648,12.401,1.208,21.234,3.929c0.312-10.43-0.309-23.522,3.697-27.273
	C48.14,5.381,53.812,0.07,53.77,0.11c-5.027,4.707-3.557,22.47-4.638,33.743c4.38,1.093,8.187,1.495,10.338,0.104
	c5.023-3.54,4.337-20.55,5.843-33.958h6.209C70.347,12.926,70.069,26.823,65.298,30.037z M22.839,40.338
	c-0.323,0.27-0.851,0.083-1.181-0.417l-2.205-3.343c-0.327-0.495-0.339-1.125-0.028-1.408c0.313-0.285,0.836-0.113,1.167,0.386
	l2.232,3.375C23.158,39.435,23.164,40.066,22.839,40.338z M22.933,32.403c0.333-0.302,0.883-0.133,1.226,0.38l5.738,8.589
	c0.351,0.524,0.343,1.174-0.016,1.449c-0.356,0.273-0.924,0.071-1.27-0.448l-5.664-8.508C22.608,33.357,22.602,32.704,22.933,32.403
	z M31.868,34.738l6.063,8.973c0.371,0.548,0.346,1.221-0.052,1.5c-0.396,0.277-1.012,0.06-1.377-0.483l-5.98-8.885
	c-0.357-0.53-0.35-1.208,0.019-1.515C30.91,34.02,31.506,34.203,31.868,34.738z M38.38,36.746c0.411-0.313,1.055-0.116,1.437,0.443
	l2.582,3.779c0.386,0.565,0.352,1.266-0.075,1.563c-0.424,0.295-1.074,0.079-1.455-0.48l-2.545-3.741
	C37.948,37.756,37.972,37.057,38.38,36.746z M14.708,54.447c-0.271,0.208-0.729,0.003-1.024-0.457l-4.824-7.546
	c-0.289-0.452-0.318-1.003-0.064-1.232c0.255-0.231,0.699-0.05,0.991,0.405l4.878,7.61C14.962,53.691,14.981,54.238,14.708,54.447z
	 M9.867,52.784l4.764,7.493c0.291,0.457,0.309,0.979,0.042,1.166c-0.265,0.186-0.712-0.032-1-0.485l-4.712-7.431
	c-0.282-0.445-0.311-0.972-0.063-1.178C9.148,52.141,9.582,52.335,9.867,52.784z M10.2,59.43l1.887,2.989
	c0.282,0.446,0.304,0.952,0.05,1.129c-0.252,0.175-0.682-0.042-0.961-0.484l-1.867-2.965c-0.276-0.439-0.304-0.945-0.06-1.131
	C9.495,58.781,9.92,58.987,10.2,59.43z M13.412,46.922l-2.012-3.123c-0.298-0.462-0.323-1.033-0.056-1.276
	c0.269-0.245,0.731-0.066,1.033,0.4l2.035,3.149c0.304,0.47,0.323,1.042,0.045,1.274C14.179,47.58,13.712,47.388,13.412,46.922z
	 M63.474,6.357c-0.598,0.5-1.469,0.375-1.948-0.277l-3.204-4.352C57.946,1.22,57.923,0.527,58.212,0h2.327l3.146,4.248
	C64.173,4.907,64.077,5.854,63.474,6.357z M52.617,27.577l2.901,4.107c0.434,0.614,0.366,1.405-0.149,1.764
	c-0.511,0.356-1.27,0.15-1.697-0.458l-2.856-4.062c-0.422-0.601-0.368-1.389,0.124-1.764C51.437,26.787,52.188,26.97,52.617,27.577z
	 M51.675,16.73c0.513-0.427,1.29-0.276,1.732,0.342l7.422,10.36c0.455,0.634,0.372,1.465-0.182,1.853
	c-0.55,0.385-1.355,0.186-1.802-0.441l-7.301-10.243C51.108,17.99,51.166,17.154,51.675,16.73z M62.312,17.972
	c-0.575,0.441-1.415,0.276-1.878-0.364L52.86,7.157c-0.451-0.623-0.388-1.515,0.144-1.997c0.535-0.485,1.344-0.372,1.803,0.258
	l7.703,10.573C62.981,16.64,62.891,17.528,62.312,17.972z M2.973,63.755c0.215-0.164,0.599,0.041,0.858,0.458l1.746,2.813
	c0.261,0.42,0.291,0.887,0.069,1.042c-0.221,0.154-0.609-0.06-0.867-0.477L3.05,64.799C2.794,64.385,2.759,63.918,2.973,63.755z
	 M3.275,69.415c-0.21,0.147-0.584-0.064-0.835-0.472L0,64.977v-1.764l3.2,5.189C3.454,68.813,3.487,69.267,3.275,69.415z"/>
</svg>
