<?xml version="1.0" encoding="iso-8859-1"?>
<!-- Generator: Adobe Illustrator 16.0.0, SVG Export Plug-In . SVG Version: 6.00 Build 0)  -->
<!DOCTYPE svg PUBLIC "-//W3C//DTD SVG 1.1//EN" "http://www.w3.org/Graphics/SVG/1.1/DTD/svg11.dtd">
<svg version="1.1" id="Layer_1" xmlns="http://www.w3.org/2000/svg" xmlns:xlink="http://www.w3.org/1999/xlink" x="0px" y="0px"
	 width="67.2px" height="67.2px" viewBox="0 0 67.2 67.2" style="enable-background:new 0 0 67.2 67.2;" xml:space="preserve">
<path style="fill-rule:evenodd;clip-rule:evenodd;fill:#FFFFFF;" d="M33.6,67.2C15.043,67.2,0,52.157,0,33.6S15.043,0,33.6,0
	s33.6,15.043,33.6,33.6S52.157,67.2,33.6,67.2z M56.234,10.98c-3.101-1.846-3.616-1.07-4.033-0.54
	c-0.715,0.909-1.254,1.504-0.813,3.674c0.441,2.17,2.826,4.667,1.409,5.599s-3.5,1.7-3.444,2.832
	c0.057,1.131-0.017,3.36,1.605,5.636c1.623,2.276,1.834,3.962,0.43,5.667c-1.357,1.647-1.019,2.024-0.247,3.953
	c0.952,1.671,0.209,1.527,1.031-0.694c1.012-2.735,4.939-2.542,5.519-5.805c0.618-3.478,1.417-0.623,2.033,1.542
	c0.675,2.369-0.35,2.66-1.514,3.079c-0.875,0.314-3.023,3.375-2.5,5.212s0.228,8.714-10.197,12.696
	c-16.814,6.421-27.122-9.136-30.688-10.101c-3.319-0.897-3.932-4.155-4.447-5.682c-0.57-1.692-5.461-3.172-3.211-12.6
	c2.003-8.395,8.133-11.525,17.294-10.129c4.048,0.617,7.101,5.518,6.67,9.141c-0.168,1.415-1.167,2.813-0.494,3.706
	c0.674,0.892,1.978,1.44,1.891,2.231c-0.087,0.79,0.213,0.709,0.32,1.064s-0.794,0.597-1.159,1.002
	c0.503,0.325,1.281-0.191,1.156,0.609c-0.329,2.114-0.036,2.31-1.323,2.886c-1.621,0.726-0.99,1.732-0.149,1.789
	c-0.002-0.009-0.008-0.018-0.01-0.027c-0.313-1.412,2.888-2.161,5.938-4.335c0.658-0.469-0.6-1.646-1.75-2.417
	c-1.204-0.806-1.88-1.938-1.259-2.556c0.621-0.618,1.853-2.822,2.949-0.837c1.096,1.984,0.569,2.31,2.73,3.992
	c1.594,1.24,0.405,1.801-0.767,3.37c1.548-0.112,2.911,0.371,4.146,0.454c1.235,0.083,3.753,1.545,5.814-3.255
	c1.231-2.204-3.353-9.908,0.792-12.144c2.583-1.394,0.791-5.958-0.001-8.118c-0.792-2.159-2.515-7.585-5.179-8.859
	c-0.403-0.192-0.518-0.289-0.412-0.292c-3.343-1.278-6.97-1.98-10.762-1.98c-16.646,0-30.141,13.495-30.141,30.141
	S16.954,61.023,33.6,61.023s30.141-13.495,30.141-30.141C63.741,23.254,60.906,16.289,56.234,10.98z M27.237,27.92
	c-0.497-1.228-2.519-1.143-3.666-0.961c-0.983,0.156-1.696,1.104-1.249,2.358C23.085,31.455,27.746,29.176,27.237,27.92z"/>
</svg>
