<?xml version="1.0" encoding="iso-8859-1"?>
<!-- Generator: Adobe Illustrator 16.0.0, SVG Export Plug-In . SVG Version: 6.00 Build 0)  -->
<!DOCTYPE svg PUBLIC "-//W3C//DTD SVG 1.1//EN" "http://www.w3.org/Graphics/SVG/1.1/DTD/svg11.dtd">
<svg version="1.1" id="Layer_1" xmlns="http://www.w3.org/2000/svg" xmlns:xlink="http://www.w3.org/1999/xlink" x="0px" y="0px"
	 width="67.208px" height="55.68px" viewBox="0 0 67.208 55.68" style="enable-background:new 0 0 67.208 55.68;"
	 xml:space="preserve">
<path style="fill-rule:evenodd;clip-rule:evenodd;fill:#FFFFFF;" d="M65.807,26.448c-0.498-0.597-0.398,0.795-0.398,1.193
	c0,0.397-0.398,0.099-0.598-0.597s-0.598-1.193-0.598-2.386c0-1.193-1.993-2.486-2.989-3.778c-0.997-1.292-0.997-2.088-1.793-2.983
	c-0.797-0.895-1.694-3.679-2.392-4.176c-0.697-0.497,0,1.492-0.398,2.784s-0.797,4.077-0.598,5.369s1.295,2.883,1.395,5.369
	s-0.399,7.06-0.598,9.346c-0.199,2.287,0.797,4.773,0.997,6.364s-0.997,4.971-1.395,5.966c-0.398,0.994-0.398,3.679-0.398,4.574
	c0,0.895,1.195,1.193,1.594,1.59c0.398,0.398-0.797,0.597-2.591,0.597c-0.797,0-0.598-0.497-1.195-0.397
	c-0.598,0.099-1.096-0.398-0.797-1.193s0.399-1.889,0.399-3.38c0-1.492-0.399-4.872-0.2-6.96c0.2-2.088,0.598-2.585,0.2-4.574
	c-0.399-1.989-0.299-1.392-0.2-2.585c0.1-1.193-1.096-2.784-1.195-8.551c-0.399-0.397-0.199-0.397-0.598,0
	c-0.1,5.767-1.295,7.358-1.195,8.551c0.1,1.193,0.199,0.597-0.2,2.585c-0.398,1.988,0,2.486,0.2,4.574
	c0.199,2.088-0.2,5.468-0.2,6.96c0,1.491,0.1,2.585,0.399,3.38s-0.199,1.292-0.797,1.193c-0.598-0.1-0.398,0.397-1.195,0.397
	c-1.793,0-2.989-0.199-2.591-0.597c0.399-0.397,1.594-0.696,1.594-1.59c0-0.895,0-3.58-0.398-4.574
	c-0.398-0.995-1.594-4.375-1.395-5.966s1.196-4.077,0.997-6.364c-0.199-2.287-0.698-6.86-0.598-9.346s1.196-4.077,1.395-5.369
	s-0.199-4.077-0.598-5.369s0.299-3.281-0.398-2.784c-0.698,0.498-1.594,3.281-2.392,4.176c-0.797,0.895-0.797,1.69-1.793,2.983
	c-0.996,1.292-2.989,2.585-2.989,3.778c0,1.193-0.399,1.69-0.598,2.386s-0.598,0.994-0.598,0.597c0-0.398,0.1-1.79-0.398-1.193
	s-1.495,1.989-1.395,1.392s0.299-2.188,0.997-3.182c0.697-0.994,0.797-2.088,1.793-3.977c1.019-1.932,2.292-2.884,2.79-3.58
	s1.196-3.381,1.793-4.574s1.694-2.685,2.591-2.784c0.896-0.099,2.989-0.497,3.387-0.994c0.339-0.422,0.317-1.061,0.242-1.792
	c-0.25-0.421-0.458-0.912-0.592-1.438c0-0.593-0.109-1.538-0.248-2.039C48.556,1.627,50.228,0,51.658,0s3.103,1.627,2.591,3.48
	c-0.141,0.51-0.236,1.341-0.258,2.071c-0.091,0.337-0.208,0.654-0.342,0.946c0.002,0.021,0.004,0.042,0.001,0.065
	c-0.1,0.895-0.199,1.69,0.2,2.188s2.491,0.895,3.387,0.994c0.897,0.1,1.993,1.591,2.591,2.784s1.295,3.878,1.793,4.574
	s1.771,1.647,2.79,3.58c0.996,1.889,1.096,2.983,1.793,3.977c0.698,0.994,0.897,2.585,0.997,3.182S66.305,27.044,65.807,26.448z
	 M43.366,9.946c-0.964,0-1.746-0.784-1.746-1.752s0.782-1.752,1.746-1.752s1.746,0.784,1.746,1.752S44.331,9.946,43.366,9.946z
	 M38.904,9.508c-0.724,0-1.31-0.588-1.31-1.314s0.586-1.314,1.31-1.314c0.723,0,1.31,0.588,1.31,1.314S39.627,9.508,38.904,9.508z
	 M35.799,9.18c-0.542,0-0.982-0.441-0.982-0.986s0.439-0.985,0.982-0.985s0.982,0.441,0.982,0.985S36.342,9.18,35.799,9.18z
	 M33.471,49.835c-0.407,0-0.737-0.331-0.737-0.739s0.33-0.739,0.737-0.739s0.737,0.331,0.737,0.739S33.878,49.835,33.471,49.835z
	 M33.471,29.765c-0.407,0-0.737-0.331-0.737-0.739s0.33-0.739,0.737-0.739s0.737,0.331,0.737,0.739S33.878,29.765,33.471,29.765z
	 M33.471,8.934c-0.407,0-0.737-0.331-0.737-0.739s0.33-0.739,0.737-0.739s0.737,0.331,0.737,0.739S33.878,8.934,33.471,8.934z
	 M30.949,50.082c-0.542,0-0.982-0.441-0.982-0.986c0-0.544,0.439-0.985,0.982-0.985s0.982,0.441,0.982,0.985
	C31.931,49.64,31.491,50.082,30.949,50.082z M30.949,30.011c-0.542,0-0.982-0.441-0.982-0.985c0-0.544,0.439-0.986,0.982-0.986
	s0.982,0.441,0.982,0.986C31.931,29.57,31.491,30.011,30.949,30.011z M30.949,9.18c-0.542,0-0.982-0.441-0.982-0.986
	s0.439-0.985,0.982-0.985s0.982,0.441,0.982,0.985S31.491,9.18,30.949,9.18z M29.499,26.448c-0.498-0.597-0.398,0.795-0.398,1.193
	c0,0.397-0.398,0.099-0.598-0.597s-0.598-1.193-0.598-2.386c0-1.193-1.993-2.486-2.989-3.778c-0.997-1.292-0.997-2.088-1.793-2.983
	c-0.797-0.895-1.694-3.679-2.391-4.176c-0.698-0.497,0,1.492-0.399,2.784c-0.398,1.292-0.797,4.077-0.598,5.369
	s1.295,2.883,1.395,5.369s-0.398,7.06-0.598,9.346c-0.2,2.287,0.797,4.773,0.996,6.364s-0.996,4.971-1.395,5.966
	c-0.398,0.994-0.398,3.679-0.398,4.574c0,0.895,1.196,1.193,1.594,1.59c0.398,0.398-0.797,0.597-2.591,0.597
	c-0.797,0-0.598-0.497-1.195-0.397c-0.598,0.099-1.096-0.398-0.797-1.193c0.299-0.795,0.399-1.889,0.399-3.38
	c0-1.492-0.399-4.872-0.199-6.96c0.199-2.088,0.598-2.585,0.199-4.574c-0.399-1.989-0.299-1.392-0.199-2.585
	c0.1-1.193-1.096-2.784-1.196-8.551c-0.398-0.397-0.199-0.397-0.598,0c-0.099,5.767-1.295,7.358-1.195,8.551
	c0.1,1.193,0.199,0.597-0.199,2.585c-0.398,1.988,0,2.486,0.199,4.574s-0.199,5.468-0.199,6.96c0,1.491,0.1,2.585,0.398,3.38
	s-0.199,1.292-0.797,1.193c-0.598-0.1-0.399,0.397-1.196,0.397c-1.793,0-2.989-0.199-2.591-0.597
	c0.399-0.397,1.594-0.696,1.594-1.59c0-0.895,0-3.58-0.398-4.574c-0.398-0.995-1.594-4.375-1.395-5.966s1.196-4.077,0.997-6.364
	c-0.199-2.287-0.698-6.86-0.598-9.346c0.1-2.486,1.195-4.077,1.395-5.369c0.2-1.292-0.199-4.077-0.598-5.369
	s0.299-3.281-0.398-2.784c-0.698,0.498-1.594,3.281-2.391,4.176c-0.797,0.895-0.797,1.69-1.793,2.983
	c-0.997,1.292-2.989,2.585-2.989,3.778c0,1.193-0.398,1.69-0.598,2.386C2.199,27.74,1.8,28.039,1.8,27.641
	c0-0.398,0.1-1.79-0.398-1.193s-1.495,1.989-1.395,1.392s0.299-2.188,0.997-3.182c0.697-0.994,0.797-2.088,1.793-3.977
	c1.019-1.932,2.292-2.884,2.79-3.58s1.196-3.381,1.793-4.574c0.598-1.193,1.694-2.685,2.591-2.784
	c0.896-0.099,2.989-0.497,3.388-0.994c0.338-0.422,0.317-1.061,0.242-1.792c-0.25-0.421-0.458-0.912-0.591-1.438
	c0-0.593-0.11-1.538-0.249-2.039C12.248,1.627,13.92,0,15.351,0s3.103,1.627,2.59,3.48c-0.141,0.51-0.236,1.341-0.258,2.071
	c-0.091,0.337-0.208,0.654-0.342,0.946c0.002,0.021,0.004,0.042,0.002,0.065c-0.1,0.895-0.199,1.69,0.199,2.188
	s2.491,0.895,3.388,0.994c0.896,0.1,1.993,1.591,2.59,2.784c0.598,1.193,1.295,3.878,1.793,4.574s1.771,1.647,2.79,3.58
	c0.996,1.889,1.096,2.983,1.793,3.977c0.697,0.994,0.896,2.585,0.996,3.182S29.998,27.044,29.499,26.448z M27.845,9.508
	c-0.724,0-1.31-0.588-1.31-1.314s0.586-1.314,1.31-1.314c0.723,0,1.31,0.588,1.31,1.314S28.568,9.508,27.845,9.508z M23.382,9.946
	c-0.965,0-1.747-0.784-1.747-1.752s0.782-1.752,1.747-1.752c0.964,0,1.746,0.784,1.746,1.752S24.347,9.946,23.382,9.946z
	 M23.382,27.273c0.964,0,1.746,0.785,1.746,1.752c0,0.967-0.782,1.752-1.746,1.752c-0.965,0-1.747-0.785-1.747-1.752
	C21.636,28.058,22.417,27.273,23.382,27.273z M23.382,47.344c0.964,0,1.746,0.785,1.746,1.752c0,0.968-0.782,1.752-1.746,1.752
	c-0.965,0-1.747-0.785-1.747-1.752C21.636,48.128,22.417,47.344,23.382,47.344z M27.845,27.711c0.723,0,1.31,0.588,1.31,1.314
	c0,0.726-0.586,1.314-1.31,1.314c-0.724,0-1.31-0.588-1.31-1.314C26.535,28.3,27.121,27.711,27.845,27.711z M27.845,47.782
	c0.723,0,1.31,0.588,1.31,1.314c0,0.726-0.586,1.314-1.31,1.314c-0.724,0-1.31-0.588-1.31-1.314
	C26.535,48.37,27.121,47.782,27.845,47.782z M35.799,28.04c0.542,0,0.982,0.441,0.982,0.986c0,0.544-0.44,0.985-0.982,0.985
	s-0.982-0.441-0.982-0.985C34.817,28.481,35.257,28.04,35.799,28.04z M35.799,48.11c0.542,0,0.982,0.441,0.982,0.985
	c0,0.544-0.44,0.986-0.982,0.986s-0.982-0.441-0.982-0.986C34.817,48.552,35.257,48.11,35.799,48.11z M38.904,27.711
	c0.723,0,1.31,0.588,1.31,1.314c0,0.726-0.586,1.314-1.31,1.314c-0.724,0-1.31-0.588-1.31-1.314
	C37.594,28.3,38.18,27.711,38.904,27.711z M38.904,47.782c0.723,0,1.31,0.588,1.31,1.314c0,0.726-0.586,1.314-1.31,1.314
	c-0.724,0-1.31-0.588-1.31-1.314C37.594,48.37,38.18,47.782,38.904,47.782z M43.366,27.273c0.964,0,1.746,0.785,1.746,1.752
	c0,0.967-0.782,1.752-1.746,1.752s-1.746-0.785-1.746-1.752C41.62,28.058,42.402,27.273,43.366,27.273z M43.366,47.344
	c0.964,0,1.746,0.785,1.746,1.752c0,0.968-0.782,1.752-1.746,1.752s-1.746-0.785-1.746-1.752
	C41.62,48.128,42.402,47.344,43.366,47.344z"/>
</svg>
