<?xml version="1.0" encoding="iso-8859-1"?>
<!-- Generator: Adobe Illustrator 16.0.0, SVG Export Plug-In . SVG Version: 6.00 Build 0)  -->
<!DOCTYPE svg PUBLIC "-//W3C//DTD SVG 1.1//EN" "http://www.w3.org/Graphics/SVG/1.1/DTD/svg11.dtd">
<svg version="1.1" id="Layer_1" xmlns="http://www.w3.org/2000/svg" xmlns:xlink="http://www.w3.org/1999/xlink" x="0px" y="0px"
	 width="64.067px" height="67.195px" viewBox="0 0 64.067 67.195" style="enable-background:new 0 0 64.067 67.195;"
	 xml:space="preserve">
<path style="fill-rule:evenodd;clip-rule:evenodd;fill:#FFFFFF;" d="M63.246,39.06c-0.824-0.223,0.553-1.59-0.672-3.611
	c-0.46-0.759-0.042,1.119-0.225,2.186c-0.183,1.067-0.518-0.317-0.631-1.205c-0.097-0.766-0.407-1.326-0.122-2.842
	c0.286-1.516-0.613-4.711-1.878-7.081c-0.757-1.418-0.792-3.416-0.822-4.213c-0.017-0.433-0.74-2.045-1.468-3.662
	c0.046,1.518-0.106,3.234-0.263,4.955c-0.238,2.619,0,2.857,0,5.952c0,0.261-0.029,0.507-0.08,0.742
	c0.051,0.048,0.08,0.117,0.08,0.21c0,1.428,0.209,2.356,0.238,3.333c0.357,1.786,1.776,6.355,0,11.904
	c0.573,1.503,0.238,1.786,0,2.857c-0.238,1.072-0.125,2.976-0.238,8.333c-0.119,5.615,0,5.833,1.429,6.905s2.978,1.31,4.05,1.905
	c1.072,0.595-0.918,1.285-4.765,0.476c-2.263-0.476-3.335,0.357-4.288-0.238c-0.953-0.595-0.477-1.071-0.238-2.619
	c0.238-1.548,0.596-4.047-0.477-7.619c-1.072-3.572-0.915-5.552,0.238-7.619c0.389-0.697-0.354-1.1-0.715-2.381
	c-1.039-3.693-0.737-7.494-1.151-10c-0.51,0.428-0.952,0.959-1.23,2.143c-1.939,8.235-2.978,7.5-3.335,8.571
	s-0.834,1.667-0.715,2.381c0.784,4.7-1.906,7.143-2.382,9.047c-0.477,1.905-1.43,3.452-0.953,5c0.477,1.547,0.302,2.28-0.715,2.619
	c-1.072,0.357-0.953,1.548-2.382,1.667c-2.496,0.208-5.122-0.476-3.812-0.952s2.858-1.548,3.097-2.381
	c0.238-0.833,1.429-3.095,1.191-6.19c-0.559-7.265,1.43-9.047,1.906-10c0.477-0.952,0.729-1.208,0.477-2.619
	c-0.853-4.774,2.025-10.476,2.382-11.428c-0.238-3.333,1.509-5,1.667-5.714c-0.318-0.635,0.635-2.857,0.477-5.238
	c-0.899-1.806-1.655-3.507-1.875-6.44c-0.958,0.83-1.915,1.889-3.281,2.689c-0.061,0.157-0.163,0.299-0.322,0.417
	c-1.213,0.9-1.489,1.57-2.859,1.905c-1.37,0.335-4.521-4.769-5.717-6.904c-1.288-2.299-1.027-1.153-1.191-4.286
	c-0.164,3.132-0.809,2.728-2.144,5c-2.864,4.874-4.824,6.406-5.717,6.429c-0.733,0.018-0.956-0.32-1.171-0.774
	c-0.082-0.052-0.167-0.109-0.258-0.179c-1.865-1.414-2.845-2.646-4.078-4.011c-0.192,3.81-1.558,4.795-1.878,7.821
	c-0.159,2.381,0.357,3.095,0.953,4.047c0.596,0.953,2.859,2.381,2.144,7.381c0.357,0.952,1.567,4.63,1.429,9.285
	c-0.042,1.433,0,1.667,0.477,2.619s1.988,3.211,1.429,10.476c-0.238,3.095,0.953,4.88,1.191,5.714
	c0.238,0.833,1.31,1.905,2.62,2.381s-1.316,1.16-3.812,0.952c-1.429-0.119-0.357-1.309-1.429-1.667
	c-1.017-0.339-1.191-1.071-0.715-2.619c0.477-1.548,0-3.095-0.476-5c-0.477-1.905-3.643-4.348-2.859-9.047
	c0.119-0.714-0.357-1.31-0.714-2.381c-0.357-1.071-1.396-0.336-3.335-8.571c-0.271-1.149-0.695-1.684-1.186-2.106
	c0.074,3.419-0.629,5.777-1.673,9.487c-0.36,1.281-0.627,2.16-0.238,2.857c1.153,2.067,1.953,4.102,0.715,7.619
	c-2.263,6.428-1.906,6.071-1.667,7.619c0.238,1.547,1.429,2.023,0.476,2.619c-0.953,0.595-1.31-0.238-3.573,0.238
	c-3.846,0.809-5.836,0.119-4.765-0.476c1.072-0.595,1.906-0.833,3.335-1.905c1.43-1.071,1.787-1.29,1.667-6.905
	c-0.113-5.357,0.238-7.261,0-8.333c-0.238-1.071-0.335-1.354,0.238-2.857c-1.776-5.549-1.429-8.174-1.429-10.238
	c0-1.589,0.159-2.896,0.715-5c0.023-0.09,0.071-0.156,0.137-0.202c0.025-0.238,0.056-0.484,0.101-0.75
	c0.518-3.051,2.024-3.69,1.429-7.619c-0.25-1.646-0.755-2.639-0.972-3.629c-0.709,1.725-1.456,3.539-1.473,4.002
	c-0.03,0.797-0.065,2.795-0.822,4.213c-1.265,2.369-2.164,5.564-1.878,7.081c0.285,1.517-0.025,2.077-0.122,2.842
	c-0.113,0.888-0.448,2.272-0.631,1.205c-0.183-1.067,0.235-2.945-0.225-2.186c-1.225,2.021,0.152,3.389-0.672,3.611
	c-0.404-0.581-1.034-1.889-0.751-3.493c0.283-1.604,0.555-3.124,0.55-4.338c-0.014-3.317,1.032-6.122,1.463-7.504
	c0.432-1.383,1.083-3.183,1.39-4.823s0.831-3.544,1.317-5.32c0.486-1.775,2.302-2.421,3.02-2.469
	c0.597-0.041,1.644-0.834,2.675-1.22c-0.004-0.038-0.013-0.074-0.01-0.115c0.066-0.931,0.41-2.583,0.193-3.421
	C9.721,5.646,9.13,4.527,9.331,3.291c0.327-2.014,1.336-3.378,3.367-3.286c2.031,0.092,3.761,0.866,4.224,3.381
	c-0.039,0.475-0.167,0.928-0.359,1.348c0.139,0.148,0.336,0.312,0.551,0.546c0.845,0.921-0.62,0.923-0.036,1.267
	c0.067,0.443-0.549,0.503-0.549,0.503l0.275,0.287l-0.287,0.516c0,0,0.298,0.92-0.585,1.056c-0.465,0.072-1.076,0.009-1.676-0.133
	c-0.061,0.547,0.135,0.966,0.224,1.257c1.206,0.63,3.353,1.25,4.094,1.649c1.384,0.747,1.656,1.6,2.62,2.857
	c0.791,1.031,1.427,1.585,2.14,3.086c0.405,0.391,0.663,0.412,0.719,0.723c0.677-2.537,2.836-2.746,5.002-5.952
	c0.978-1.448,1.042-2.403,1.191-3.095S30.88,7.97,31.2,5.969c0.196-1.224,0.392-0.607,0.477,0.772
	c0.085-1.379,0.281-1.997,0.477-0.772c0.32,2.001,0.804,2.641,0.953,3.333c0.149,0.692,0.213,1.647,1.191,3.095
	c2.166,3.207,4.325,2.939,5.002,5.476c0.084-0.467,0.499-1.109,0.953-1.429c0.003-0.001,0.006-0.001,0.009-0.002
	c0.687-1.248,1.562-2.121,2.373-2.616c1.353-0.826,0.998-2.111,2.382-2.857c0.816-0.44,2.436-0.476,3.475-1.128
	c0.024-0.212,0.135-0.469,0.14-0.83c-0.44,0.113-0.865,0.174-1.211,0.137c-1.28-0.136-0.823-1.294-0.823-1.294l-0.286-0.516
	l0.275-0.287c0,0-0.617-0.061-0.549-0.503c0.822-0.225-0.88-0.167,0.202-1.267c0.198-0.201,0.39-0.276,0.534-0.351
	c-0.197-0.452-0.321-0.965-0.343-1.544c0.464-2.515,2.194-3.289,4.224-3.381s3.278,1.272,3.605,3.286
	c0.206,1.268-0.511,2.412-1.569,3.119c-0.131,0.855,0.36,2.458,0.425,3.368c0.003,0.04-0.007,0.075-0.011,0.112
	c1.154,0.225,2.589,0.47,3.153,0.508c0.718,0.048,2.534,0.694,3.02,2.47c0.486,1.775,1.249,4.394,1.555,6.034
	s1.197,3.44,1.628,4.823c0.432,1.382,1.001,4.187,0.987,7.504c-0.005,1.214,0.267,2.733,0.55,4.338
	C64.28,37.17,63.65,38.479,63.246,39.06z"/>
</svg>
