<?xml version="1.0" encoding="iso-8859-1"?>
<!-- Generator: Adobe Illustrator 16.0.0, SVG Export Plug-In . SVG Version: 6.00 Build 0)  -->
<!DOCTYPE svg PUBLIC "-//W3C//DTD SVG 1.1//EN" "http://www.w3.org/Graphics/SVG/1.1/DTD/svg11.dtd">
<svg version="1.1" id="Layer_1" xmlns="http://www.w3.org/2000/svg" xmlns:xlink="http://www.w3.org/1999/xlink" x="0px" y="0px"
	 width="64.067px" height="67.195px" viewBox="0 0 64.067 67.195" style="enable-background:new 0 0 64.067 67.195;"
	 xml:space="preserve">
<path style="fill-rule:evenodd;clip-rule:evenodd;fill:#FFFFFF;" d="M63.246,39.06c-0.824-0.223,0.553-1.59-0.672-3.611
	c-0.46-0.759-0.042,1.119-0.225,2.186c-0.183,1.067-0.518-0.317-0.631-1.205c-0.097-0.766-0.407-1.326-0.122-2.842
	c0.286-1.516-0.613-4.711-1.878-7.081c-0.757-1.418-0.792-3.416-0.822-4.213c-0.017-0.433-0.74-2.045-1.468-3.662
	c0.046,1.518-0.106,3.234-0.263,4.955c-0.238,2.619,0,2.857,0,5.952c0,0.261-0.029,0.507-0.08,0.742
	c0.051,0.048,0.08,0.117,0.08,0.21c0,1.428,0.209,2.356,0.238,3.333c0.357,1.786,1.776,6.355,0,11.904
	c0.573,1.503,0.238,1.786,0,2.857c-0.238,1.072-0.125,2.976-0.238,8.333c-0.119,5.615,0,5.833,1.429,6.905s2.978,1.31,4.05,1.905
	c1.072,0.595-0.918,1.285-4.765,0.476c-2.263-0.476-3.335,0.357-4.288-0.238c-0.953-0.595-0.477-1.071-0.238-2.619
	c0.238-1.548,0.596-4.047-0.477-7.619c-1.072-3.572-0.915-5.552,0.238-7.619c0.389-0.697-0.354-1.1-0.715-2.381
	c-1.031-3.665-0.743-7.434-1.143-9.94c0.024-0.146,0.047-0.294,0.07-0.442c0.315-0.795,0.442-1.59,0.796-2.385
	c0.015-0.028,0.028-0.058,0.039-0.089c0.12-0.256,0.174-0.469,0.185-0.635c0.402-1.526,0.836-4.055,0.768-4.604
	c-0.079-0.635-0.397-2.38-0.238-3.095c0.159-0.714,0.318-1.826,0.238-2.619c-0.079-0.793-0.238-0.952,0-2.143s0.092-4.01-0.238-5
	c-0.635-1.905-0.556-1.905-0.953-2.857c-0.137-0.328,0-0.477-0.238-0.953s-0.238-0.555-0.238-3.095
	c-0.556,0-0.635,0.238-0.715,0.238c-0.079,0.794,0.238,2.857,0.477,3.571s0.648,1.602,0.953,2.857
	c0.285,1.174,0.476,2.699,0.476,3.571c0,0.659-0.269,1.448-0.301,2.169c-2.079,0.835-2.193,4.078-5.406,2.597
	c-0.003-0.081-0.004-0.161-0.009-0.242c-0.879-1.766-1.62-3.435-1.858-6.249c1.1-1.298,2.325-4.173,1.62-5.894
	c-0.001-0.004-0.004-0.007-0.005-0.01c0.634-0.146,1.295-0.317,1.813-0.642c0.024-0.212,0.135-0.469,0.14-0.83
	c-0.44,0.113-0.865,0.174-1.211,0.137c-1.28-0.136-0.823-1.294-0.823-1.294l-0.286-0.516l0.275-0.287c0,0-0.617-0.061-0.549-0.503
	c0.822-0.225-0.88-0.167,0.202-1.267c0.198-0.201,0.39-0.276,0.534-0.351c-0.197-0.452-0.321-0.965-0.343-1.544
	c0.464-2.515,2.194-3.289,4.224-3.381s3.278,1.272,3.605,3.286c0.206,1.268-0.511,2.412-1.569,3.119
	c-0.131,0.855,0.36,2.458,0.425,3.368c0.003,0.04-0.007,0.075-0.011,0.112c1.154,0.225,2.589,0.47,3.153,0.508
	c0.718,0.048,2.534,0.694,3.02,2.47c0.486,1.775,1.249,4.394,1.555,6.034s1.197,3.44,1.628,4.823
	c0.432,1.382,1.001,4.187,0.987,7.504c-0.005,1.214,0.267,2.733,0.55,4.338C64.28,37.17,63.65,38.479,63.246,39.06z M46.446,12.159
	c0,0.658-0.533,1.19-1.191,1.19c-0.658,0-1.191-0.533-1.191-1.19c0-0.657,0.533-1.19,1.191-1.19
	C45.913,10.968,46.446,11.501,46.446,12.159z M44.838,16.38c-0.891,0.799-1.805,1.761-3.073,2.504
	c-0.061,0.157-0.163,0.299-0.322,0.417c-0.326,0.242-0.583,0.466-0.813,0.672c-1.391-0.579-1.082-1.896-0.617-3.291
	c0.006-0.017,0.007-0.03,0.012-0.046c0.074-0.071,0.149-0.137,0.226-0.192c0.003-0.001,0.006-0.001,0.009-0.002
	c0.687-1.248,1.562-2.121,2.373-2.616c0.338-0.207,0.569-0.442,0.748-0.69C44.995,14.27,43.729,15.89,44.838,16.38z M38.823,21.206
	c-0.526,0-0.953-0.426-0.953-0.952s0.426-0.953,0.953-0.953s0.953,0.427,0.953,0.953S39.349,21.206,38.823,21.206z M36.739,20.016
	c-1.423-1.575-3.078-4.297-3.872-5.714c-0.161-0.287-0.297-0.521-0.414-0.715c0.848-0.008,1.605-0.183,1.605-1.189
	c0-0.092,0.003-0.222,0.003-0.368c0.073,0.119,0.149,0.241,0.235,0.368c1.535,2.271,3.065,2.8,4.068,3.817
	C39.137,18.007,37.957,20.087,36.739,20.016z M33.105,12.839c-0.244,0-0.442-0.198-0.442-0.442s0.198-0.442,0.442-0.442
	s0.442,0.198,0.442,0.442S33.35,12.839,33.105,12.839z M31.772,12.017c-0.034-0.379-0.041-0.948-0.096-2.001
	c-0.042,0.793-0.114,1.359-0.221,1.799c-0.55,0.214-1.641,0.059-1.683-0.729c0.313-0.753,0.376-1.327,0.474-1.784
	C30.396,8.61,30.88,7.97,31.2,5.969c0.196-1.224,0.392-0.607,0.477,0.772c0.085-1.379,0.281-1.997,0.477-0.772
	c0.32,2.001,0.804,2.641,0.953,3.333c0.095,0.441,0.156,0.989,0.44,1.703C33.028,11.522,32.202,12.33,31.772,12.017z M30.247,13.826
	c0.009,0.028,0.02,0.043,0.029,0.068c-0.22,0.297-0.466,0.65-0.744,1.122c-1.31,2.23-2.429,3.754-3.345,4.761
	c-1.5-0.16-1.895-0.571-1.657-1.666c0.085-0.39,0.071-0.682,0-0.888c0.834-1.382,2.321-2.016,3.89-3.965
	C29.23,12.512,29.895,12.699,30.247,13.826z M24.768,20.254c0,0.526-0.427,0.952-0.953,0.952c-0.526,0-0.953-0.426-0.953-0.952
	s0.427-0.953,0.953-0.953C24.341,19.301,24.768,19.728,24.768,20.254z M21.504,19.783c-1.236-1.054-2.059-2.031-2.995-3.078
	c0.606-0.72,0.318-2.981,2.171-2.88c0.153,0.224,0.319,0.461,0.515,0.715c0.79,1.03,1.426,1.585,2.138,3.083
	c-0.006,0.079-0.005,0.162,0.006,0.25C23.495,19.121,22.882,19.907,21.504,19.783z M18.098,13.826c-0.658,0-1.191-0.533-1.191-1.19
	c0-0.658,0.533-1.191,1.191-1.191s1.191,0.533,1.191,1.191C19.289,13.292,18.756,13.826,18.098,13.826z M17.078,6.547
	c0.067,0.443-0.549,0.503-0.549,0.503l0.275,0.287l-0.287,0.516c0,0,0.298,0.92-0.585,1.056c-0.465,0.072-1.076,0.011-1.676-0.132
	c-0.061,0.546,0.135,0.964,0.224,1.256c0.549,0.287,1.293,0.571,2.011,0.834c0.282,0.865-0.799,2.748,1.607,6.053
	c0.066-0.004,0.126-0.02,0.181-0.042c-0.239,3.14-1.298,4.291-1.73,6.627c-0.035,0.004-0.073,0.024-0.118,0.082
	c-0.556,0.714-1.906,0.635-2.382-1.19c-0.372-1.424-1.082-2.025-1.791-2.259c0.038-0.774-0.058-1.715-0.115-2.741
	c-0.079-1.429,0.556-6.905,0.477-5.714s0.317-2.777,0.238-3.571c-0.065,0-0.136-0.158-0.466-0.215
	c-0.059,1.526-0.307,2.47-0.487,3.548c-0.238,1.429-0.476,3.333-0.476,6.667c0,3.333,0.119,3.69,0,6.19s-0.357,8.214,0.714,11.428
	c0.004,0.013,0.009,0.03,0.013,0.043c-0.003-0.002-0.005-0.005-0.008-0.007c0.074,3.419-0.629,5.777-1.673,9.487
	c-0.36,1.281-0.627,2.16-0.238,2.857c1.153,2.067,1.953,4.102,0.715,7.619c-2.263,6.428-1.906,6.071-1.667,7.619
	c0.238,1.547,1.429,2.023,0.476,2.619c-0.953,0.595-1.31-0.238-3.573,0.238c-3.846,0.809-5.836,0.119-4.765-0.476
	c1.072-0.595,1.906-0.833,3.335-1.905c1.43-1.071,1.787-1.29,1.667-6.905c-0.113-5.357,0.238-7.261,0-8.333
	c-0.238-1.071-0.335-1.354,0.238-2.857c-1.776-5.549-1.429-8.174-1.429-10.238c0-1.589,0.159-2.896,0.715-5
	c0.023-0.09,0.071-0.156,0.137-0.202c0.025-0.238,0.056-0.484,0.101-0.75c0.518-3.051,2.024-3.69,1.429-7.619
	c-0.25-1.646-0.755-2.639-0.972-3.629c-0.709,1.725-1.456,3.539-1.473,4.002c-0.03,0.797-0.065,2.795-0.822,4.213
	c-1.265,2.369-2.164,5.564-1.878,7.081c0.285,1.517-0.025,2.077-0.122,2.842c-0.113,0.888-0.448,2.272-0.631,1.205
	c-0.183-1.067,0.235-2.945-0.225-2.186c-1.225,2.021,0.152,3.389-0.672,3.611c-0.404-0.581-1.034-1.889-0.751-3.493
	c0.283-1.604,0.555-3.124,0.55-4.338c-0.014-3.317,1.032-6.122,1.463-7.504c0.432-1.383,1.083-3.183,1.39-4.823
	s0.831-3.544,1.317-5.32c0.486-1.775,2.302-2.421,3.02-2.469c0.595-0.04,1.639-0.831,2.668-1.217
	c-0.004-0.038-0.006-0.076-0.003-0.117c0.066-0.925,0.405-2.563,0.197-3.406c0,0-0.001,0-0.001,0
	c-0.001-0.003-0.001-0.006-0.002-0.009C9.721,5.65,9.13,4.529,9.331,3.291c0.327-2.014,1.336-3.378,3.367-3.286
	c2.031,0.092,3.761,0.866,4.224,3.381c-0.039,0.475-0.167,0.929-0.36,1.35c0.139,0.147,0.337,0.312,0.551,0.545
	C17.958,6.201,16.494,6.203,17.078,6.547z M13.334,28.825c-0.748,1.045-0.371,2.512-1.449,2.813
	c-0.191-2.773,0.181-4.605,0.258-8.29c0.017-0.8,0.022-1.443,0.022-2c0.685,0.323,1.201,1.178,1.883,2.952
	c0.397,1.032,1.191,0.714,1.667,0.714s0.238,1.111,0.238,1.667S14.128,27.714,13.334,28.825z M14.763,32.158
	c-0.79,0-1.429-0.64-1.429-1.429s0.64-1.428,1.429-1.428c0.789,0,1.429,0.639,1.429,1.428S15.552,32.158,14.763,32.158z
	 M16.669,32.396c0.671-1.485-0.556-4.444-0.238-4.762c0.066-0.066,0.108-0.128,0.133-0.188c0.097-0.021,0.188-0.036,0.273-0.044
	c0.159,0.336,0.348,0.628,0.547,0.946c0.596,0.953,2.859,2.381,2.144,7.381c0.251,0.669,0.921,2.685,1.251,5.438
	c-0.115,1.344-0.723,2.067-1.728,2.657c-1.35,0.794-1.429,3.175-2.62,2.143c-0.027-0.024-0.053-0.042-0.079-0.059
	c-0.516-0.623-1.485-1.527-3.018-8.036c-0.15-0.637-0.349-1.082-0.579-1.427c0.033,0.001,0.066,0.006,0.102-0.001
	c-0.215-0.609-0.244-1.802-0.596-3.137C13.596,35.416,15.76,34.406,16.669,32.396z M18.098,46.919c0-0.789,0.64-1.428,1.429-1.428
	s1.429,0.639,1.429,1.428s-0.64,1.429-1.429,1.429S18.098,47.708,18.098,46.919z M17.396,48.717
	c1.323-0.389,1.873,2.576,2.846,2.726c1.032,0.159,1.191-0.476,1.191-3.81c0.477,0.952,1.988,3.211,1.429,10.476
	c-0.049,0.644-0.035,1.228,0.018,1.761c-0.007-0.032-0.014-0.063-0.018-0.094c-0.079-0.635-0.159-0.873-0.715-0.953
	c-0.409-0.058-1.033,0.872-1.397,1.176c-0.129-0.668-0.318-1.37-0.508-2.128c-0.477-1.905-3.643-4.348-2.859-9.047
	C17.389,48.788,17.393,48.752,17.396,48.717z M20.957,61.205c0-0.526,0.427-0.952,0.953-0.952s0.953,0.426,0.953,0.952
	c0,0.526-0.426,0.953-0.953,0.953S20.957,61.731,20.957,61.205z M21.91,63.109c0.606-0.808,1.212-0.815,1.673-0.459
	c0.204,0.506,0.391,0.895,0.471,1.173c0.238,0.833,1.31,1.905,2.62,2.381s-1.316,1.16-3.812,0.952
	c-1.429-0.119-0.357-1.309-1.429-1.667c-0.959-0.319-1.168-0.99-0.79-2.362C20.976,63.629,21.3,63.921,21.91,63.109z M29.805,12.397
	c0-0.244,0.198-0.442,0.442-0.442s0.442,0.198,0.442,0.442s-0.198,0.442-0.442,0.442S29.805,12.641,29.805,12.397z M35.726,66.205
	c1.31-0.476,2.858-1.548,3.097-2.381c0.036-0.127,0.096-0.291,0.168-0.481c0.018,0.09,0.041,0.172,0.07,0.243
	c0.477-1.032,1.478-1.125,1.906-0.238c0.563,1.165,1.078-0.441,1.614-0.69c0.016,0.071,0.032,0.143,0.054,0.214
	c0.477,1.547,0.302,2.28-0.715,2.619c-1.072,0.357-0.953,1.548-2.382,1.667C37.042,67.365,34.416,66.681,35.726,66.205z
	 M40.967,60.729c0.526,0,0.953,0.426,0.953,0.953c0,0.526-0.426,0.952-0.953,0.952s-0.953-0.426-0.953-0.952
	C40.014,61.155,40.44,60.729,40.967,60.729z M41.205,59.538c-1.018-0.268-1.24,0.582-1.326,0.799
	c0.14-0.803,0.211-1.709,0.135-2.704c-0.559-7.265,1.43-9.047,1.906-10c0.071-0.141,0.136-0.266,0.195-0.382
	c-0.143,1.416,0.205,3.313,1.234,3.239c1.111-0.079,1.508-1.587,2.382-1.905c0.077-0.028,0.153-0.062,0.229-0.099
	c-0.009,0.111-0.009,0.223,0.01,0.337c0.784,4.7-1.906,7.143-2.382,9.047c-0.332,1.325-0.892,2.476-1.043,3.576
	C41.781,61.46,41.977,59.741,41.205,59.538z M45.493,46.919c0,0.789-0.64,1.429-1.429,1.429c-0.789,0-1.429-0.64-1.429-1.429
	s0.64-1.428,1.429-1.428C44.853,45.491,45.493,46.13,45.493,46.919z M50.257,30.729c0,0.789-0.64,1.429-1.429,1.429
	c-0.79,0-1.43-0.64-1.43-1.429s0.64-1.428,1.43-1.428C49.617,29.301,50.257,29.94,50.257,30.729z M51.925,31.92
	c-1.068-0.467-0.397-1.746-2.144-3.571c-1.376-1.438-1.985-1.587-2.858-1.667c-0.318-0.238-0.246-3.305,0.714-2.619
	c0.556,0.397,1.906,0.318,2.382-0.476c0.728-1.211,1.906-2.46,2.62-2.381c0.08,1.508-0.476,2.937-0.476,4.286
	S52.48,29.539,51.925,31.92z M45.255,43.824c-1.627-0.542-2.431,1.2-2.828,1.378c-0.009-0.061-0.019-0.122-0.031-0.188
	c-0.853-4.774,2.025-10.476,2.382-11.428c-0.238-3.333,1.509-5,1.667-5.714c0.235-0.017,0.445,0.037,0.638,0.141
	c-1.271,2.281-1.264,5.155,0.314,6.049c1.553,0.879,2.7,0.555,3.573-0.477c0,0.864-0.458,2.104-0.559,3.174
	c-0.152,0.294-0.286,0.652-0.394,1.112c-1.939,8.235-2.978,7.5-3.335,8.571C45.572,46.761,46.838,44.352,45.255,43.824z"/>
</svg>
