<?xml version="1.0" encoding="iso-8859-1"?>
<!-- Generator: Adobe Illustrator 16.0.0, SVG Export Plug-In . SVG Version: 6.00 Build 0)  -->
<!DOCTYPE svg PUBLIC "-//W3C//DTD SVG 1.1//EN" "http://www.w3.org/Graphics/SVG/1.1/DTD/svg11.dtd">
<svg version="1.1" id="Layer_1" xmlns="http://www.w3.org/2000/svg" xmlns:xlink="http://www.w3.org/1999/xlink" x="0px" y="0px"
	 width="64.067px" height="67.195px" viewBox="0 0 64.067 67.195" style="enable-background:new 0 0 64.067 67.195;"
	 xml:space="preserve">
<path style="fill-rule:evenodd;clip-rule:evenodd;fill:#FFFFFF;" d="M63.246,39.06c-0.824-0.223,0.553-1.59-0.672-3.611
	c-0.46-0.759-0.042,1.119-0.225,2.186c-0.183,1.067-0.518-0.317-0.631-1.205c-0.097-0.766-0.407-1.326-0.122-2.842
	c0.03-0.16,0.044-0.342,0.049-0.536c0.509-0.453,1.489,0.498,2.12,1.174c0.072,0.437,0.151,0.885,0.231,1.341
	C64.28,37.17,63.65,38.479,63.246,39.06z M63.086,32.396c0,0.244-0.198,0.442-0.442,0.442s-0.442-0.198-0.442-0.442
	c0-0.244,0.198-0.442,0.442-0.442S63.086,32.152,63.086,32.396z M61.453,30.729c-0.058-0.076-0.107-0.105-0.147-0.099
	c-0.342-1.356-0.911-2.857-1.587-4.124c-0.606-1.136-0.75-2.643-0.798-3.608c0.454,0.208,0.541,1.571,2.057,1.403
	c0.829-0.092,0.301-1.362,1.185-1.428c0.11,0.295,0.214,0.583,0.298,0.851c0.432,1.382,1.001,4.187,0.987,7.504
	c0,0.093,0.003,0.192,0.006,0.289C62.681,31.87,62.014,31.458,61.453,30.729z M61.215,22.396c0,0.526-0.427,0.953-0.953,0.953
	s-0.953-0.427-0.953-0.953s0.426-0.952,0.953-0.952S61.215,21.871,61.215,22.396z M50.654,4.064c0-0.964,0.782-1.746,1.747-1.746
	c0.965,0,1.747,0.782,1.747,1.746S53.366,5.81,52.401,5.81C51.437,5.81,50.654,5.028,50.654,4.064z M53.592,4.064
	c0-0.658-0.533-1.19-1.191-1.19c-0.658,0-1.191,0.533-1.191,1.19c0,0.657,0.533,1.19,1.191,1.19
	C53.059,5.254,53.592,4.721,53.592,4.064z M60.024,20.492c-0.958,0.225-0.792,1.817-1.144,1.689
	c-0.106-0.554-0.776-2.049-1.452-3.549c0.037,1.209-0.054,2.545-0.17,3.909c-0.03,0.029-0.059,0.057-0.092,0.094
	c-0.495,0.549-1.657,0.333-2.252-0.756c-1.058-1.934-1.619-1.149-1.797-1.625c-0.02-0.054-0.041-0.096-0.062-0.131
	c0.017-0.105,0.037-0.218,0.062-0.345c0.238-1.19,0.092-4.01-0.238-5c-0.635-1.905-0.556-1.905-0.953-2.857
	c-0.137-0.328,0-0.477-0.238-0.953s-0.238-0.555-0.238-3.095c-0.556,0-0.635,0.238-0.715,0.238
	c-0.079,0.794,0.238,2.857,0.477,3.571s0.648,1.602,0.953,2.857c0.285,1.174,0.476,2.699,0.476,3.571
	c0,0.659-0.269,1.448-0.301,2.169c-2.079,0.835-2.193,4.078-5.406,2.597c-0.003-0.081-0.004-0.161-0.009-0.242
	c-0.879-1.766-1.62-3.435-1.858-6.249c1.1-1.298,2.325-4.173,1.62-5.894c-0.001-0.004-0.004-0.007-0.005-0.01
	c0.634-0.146,1.295-0.317,1.813-0.642c0.024-0.212,0.135-0.469,0.14-0.83c-0.44,0.113-0.865,0.174-1.211,0.137
	c-1.28-0.136-0.823-1.294-0.823-1.294l-0.286-0.516l0.275-0.287c0,0-0.617-0.061-0.549-0.503c0.822-0.225-0.88-0.167,0.202-1.267
	c0.198-0.201,0.39-0.276,0.534-0.351c-0.197-0.452-0.321-0.965-0.343-1.544c0.464-2.515,2.194-3.289,4.224-3.381
	c1.5-0.068,2.572,0.661,3.162,1.858c-0.408-0.263-0.894-0.417-1.416-0.417c-1.447,0-2.62,1.173-2.62,2.619s1.173,2.619,2.62,2.619
	c0.093,0,0.184-0.005,0.274-0.015c-0.023,0.89,0.382,2.282,0.441,3.109c0.003,0.04-0.007,0.075-0.011,0.112
	c0.622,0.122,1.325,0.249,1.93,0.346c-0.004,0.007-0.009,0.012-0.013,0.019c1.429,1.786,1.965,4.761,2.144,5.714
	c1.308,0.416,1.073-2.193,2.376-2.142c0.464,1.67,1.035,3.711,1.29,5.076c0.216,1.155,0.72,2.387,1.15,3.499
	c-0.019,0-0.033-0.004-0.053-0.004C61.156,22.396,61.346,20.182,60.024,20.492z M57.88,13.587c-0.658,0-1.191-0.533-1.191-1.19
	c0-0.658,0.533-1.19,1.191-1.19c0.658,0,1.191,0.533,1.191,1.19C59.071,13.054,58.538,13.587,57.88,13.587z M46.446,12.159
	c0,0.658-0.533,1.19-1.191,1.19c-0.658,0-1.191-0.533-1.191-1.19c0-0.657,0.533-1.19,1.191-1.19
	C45.913,10.968,46.446,11.501,46.446,12.159z M44.838,16.38c-0.891,0.799-1.805,1.761-3.073,2.504
	c-0.061,0.157-0.163,0.299-0.322,0.417c-0.326,0.242-0.583,0.466-0.813,0.672c-1.391-0.579-1.082-1.896-0.617-3.291
	c0.006-0.017,0.007-0.03,0.012-0.046c0.074-0.071,0.149-0.137,0.226-0.192c0.003-0.001,0.006-0.001,0.009-0.002
	c0.687-1.248,1.562-2.121,2.373-2.616c0.338-0.207,0.569-0.442,0.748-0.69C44.995,14.27,43.729,15.89,44.838,16.38z M38.823,21.206
	c-0.526,0-0.953-0.426-0.953-0.952s0.426-0.953,0.953-0.953s0.953,0.427,0.953,0.953S39.349,21.206,38.823,21.206z M36.739,20.016
	c-1.423-1.575-3.078-4.297-3.872-5.714c-0.161-0.287-0.297-0.521-0.414-0.715c0.848-0.008,1.605-0.183,1.605-1.189
	c0-0.092,0.003-0.222,0.003-0.368c0.073,0.119,0.149,0.241,0.235,0.368c1.535,2.271,3.065,2.8,4.068,3.817
	C39.137,18.007,37.957,20.087,36.739,20.016z M33.105,12.839c-0.244,0-0.442-0.198-0.442-0.442s0.198-0.442,0.442-0.442
	s0.442,0.198,0.442,0.442S33.35,12.839,33.105,12.839z M31.772,12.017c-0.034-0.379-0.041-0.948-0.096-2.001
	c-0.042,0.793-0.114,1.359-0.22,1.799c-0.55,0.214-1.642,0.059-1.683-0.729c0.313-0.753,0.376-1.327,0.474-1.784
	C30.396,8.61,30.88,7.97,31.2,5.969c0.196-1.224,0.392-0.607,0.477,0.772c0.085-1.379,0.281-1.997,0.477-0.772
	c0.32,2.001,0.804,2.641,0.953,3.333c0.095,0.441,0.156,0.989,0.44,1.703C33.028,11.522,32.202,12.33,31.772,12.017z M30.247,13.826
	c0.008,0.026,0.017,0.048,0.026,0.071c-0.219,0.296-0.465,0.65-0.741,1.119c-1.308,2.227-2.427,3.755-3.343,4.761
	c-1.501-0.16-1.897-0.571-1.659-1.666c0.085-0.39,0.068-0.677-0.003-0.883c0.834-1.385,2.322-2.019,3.893-3.969
	C29.23,12.512,29.895,12.699,30.247,13.826z M24.768,20.254c0,0.526-0.427,0.952-0.953,0.952c-0.526,0-0.953-0.426-0.953-0.952
	s0.427-0.953,0.953-0.953C24.341,19.301,24.768,19.728,24.768,20.254z M21.509,19.783c-1.235-1.054-2.064-2.032-3-3.079
	c0.606-0.72,0.318-2.981,2.171-2.88c0.153,0.224,0.319,0.461,0.515,0.715c0.791,1.03,1.426,1.585,2.139,3.085
	c-0.006,0.078-0.006,0.161,0.005,0.249C23.495,19.119,22.884,19.905,21.509,19.783z M18.098,13.826c-0.658,0-1.191-0.533-1.191-1.19
	c0-0.658,0.533-1.191,1.191-1.191s1.191,0.533,1.191,1.191C19.289,13.292,18.756,13.826,18.098,13.826z M17.078,6.547
	c0.067,0.443-0.549,0.503-0.549,0.503l0.275,0.287l-0.287,0.516c0,0,0.298,0.92-0.585,1.056c-0.465,0.072-1.076,0.009-1.676-0.133
	c-0.061,0.547,0.135,0.966,0.224,1.257c0.549,0.287,1.293,0.571,2.011,0.834c0.282,0.865-0.799,2.748,1.607,6.053
	c0.067-0.004,0.127-0.02,0.183-0.043c-0.238,3.14-1.298,4.289-1.73,6.621c-0.036,0.004-0.075,0.031-0.12,0.089
	c-0.556,0.714-1.906,0.635-2.382-1.19c-0.372-1.424-1.082-2.025-1.791-2.259c0.038-0.774-0.058-1.715-0.115-2.741
	c-0.079-1.429,0.556-6.905,0.477-5.714s0.317-2.777,0.238-3.571c-0.08,0-0.159-0.238-0.715-0.238c0,2.54,0.08,2.302,0,3.095
	c-0.079,0.794-0.907,2.449-0.714,8.81c0.002,0.092,0.005,0.176,0.008,0.257c-0.794,0.17-1.556,1.525-1.914,2.6
	c-0.491,1.471-1.413,1.889-1.787,1.422c0.036-0.599,0.01-1.288-0.119-2.137c-0.25-1.646-0.755-2.639-0.972-3.629
	c-0.542,1.318-1.104,2.686-1.348,3.465c-0.316-0.551,0.42-2.033-0.777-2.456c-0.558-0.196-1.388,1.592-1.475,1.367
	c0.169-0.592,0.321-1.188,0.429-1.766c0.241-1.291,0.618-2.744,1.003-4.17c0.747-0.888,0.824,1.815,2.187,1.951
	c-0.043-0.877-0.038-1.537,0.175-2.459c-0.129,0.048-0.267,0.078-0.414,0.078c-0.658,0-1.191-0.533-1.191-1.19
	c0-0.658,0.533-1.19,1.191-1.19c0.4,0,0.752,0.199,0.969,0.501c0.131-0.365,0.282-0.764,0.461-1.216
	c0.016-0.04,0.024-0.073,0.038-0.111c0.607-0.098,1.605-0.834,2.592-1.203c-0.004-0.038-0.013-0.074-0.01-0.115
	c0.059-0.826,0.334-2.217,0.244-3.106c0.077,0.006,0.154,0.012,0.233,0.012c1.447,0,2.62-1.173,2.62-2.619s-1.173-2.619-2.62-2.619
	c-0.413,0-0.801,0.098-1.148,0.268c0.534-1.107,1.458-1.773,2.894-1.708c2.031,0.092,3.761,0.866,4.224,3.381
	c-0.039,0.475-0.167,0.928-0.359,1.348c0.139,0.148,0.336,0.312,0.551,0.546C17.958,6.201,16.494,6.203,17.078,6.547z M12.699,4.064
	c0,0.964-0.782,1.746-1.747,1.746S9.205,5.028,9.205,4.064s0.782-1.746,1.747-1.746S12.699,3.1,12.699,4.064z M9.76,4.064
	c0,0.657,0.534,1.19,1.191,1.19s1.191-0.533,1.191-1.19c0-0.658-0.533-1.19-1.191-1.19S9.76,3.406,9.76,4.064z M4.043,22.396
	c-0.526,0-0.953-0.426-0.953-0.952s0.427-0.953,0.953-0.953s0.953,0.427,0.953,0.953S4.57,22.396,4.043,22.396z M5.167,22.434
	c-0.031,0.872-0.101,2.731-0.817,4.073c-0.607,1.137-1.128,2.463-1.476,3.704c-0.691,1.147-1.998,1.532-1.927,0.043
	c0.079-1.667,0.159-2.381,0.238-3.333c0.005-0.055,0.004-0.109-0.001-0.163c0.314-1.292,0.684-2.341,0.9-3.033
	c0.156-0.5,0.341-1.056,0.528-1.638c0.351-0.106,0.451-0.077,0.717,0.786C3.589,23.717,4.593,23.179,5.167,22.434z M1.423,32.6
	c-0.244,0-0.442-0.198-0.442-0.442s0.198-0.442,0.442-0.442s0.442,0.198,0.442,0.442S1.667,32.6,1.423,32.6z M2.446,33.4
	c0.008,0.063,0.014,0.128,0.025,0.187c0.285,1.517-0.025,2.077-0.122,2.842c-0.113,0.888-0.448,2.272-0.631,1.205
	c-0.183-1.067,0.235-2.945-0.225-2.186c-1.225,2.021,0.152,3.389-0.672,3.611c-0.404-0.581-1.034-1.889-0.751-3.493
	c0.099-0.56,0.195-1.108,0.28-1.638c0.039-0.023,0.079-0.055,0.119-0.104C1.18,32.973,1.945,32.931,2.446,33.4z M1.423,65.729
	c0.981-0.545,1.764-0.792,2.985-1.651c0.016,0.039,0.051,0.039,0.112-0.016c0.099-0.087,0.201-0.186,0.304-0.287
	c0.336-0.252,0.61-0.461,0.832-0.712c0.333-0.186,0.617-0.129,0.77,0.523c0.29,1.229,2.682,1.139,3.045,0.453
	c0.392,1.017,1.083,1.433,0.29,1.928c-0.953,0.595-1.31-0.238-3.573,0.238C2.341,67.014,0.351,66.324,1.423,65.729z M8.808,62.633
	c0,0.526-0.427,0.952-0.953,0.952c-0.526,0-0.953-0.426-0.953-0.952s0.427-0.952,0.953-0.952
	C8.381,61.681,8.808,62.107,8.808,62.633z M6.425,60.014c0-0.005,0-0.009,0-0.015c0.03-0.795,0.028-1.795,0-3.081
	c-0.062-2.942,0.016-4.841,0.06-6.134c0.324-0.138,0.722-0.476,1.37-1.722c0.877-1.687,2.329-0.792,3.037,0.343
	c0.74,1.68,1.041,3.535,0.06,6.323c-0.72,2.044-1.174,3.4-1.452,4.352C8.522,61.726,6.425,61.53,6.425,60.014z M9.046,47.158
	c0,0.789-0.64,1.428-1.429,1.428c-0.79,0-1.429-0.639-1.429-1.428s0.64-1.429,1.429-1.429C8.406,45.729,9.046,46.369,9.046,47.158z
	 M10.653,44.623c-0.712,0.99-1.71,1.717-2.56,0.869c-0.873-0.873-1.826-2.063-2.382-3.572c-0.027-0.073-0.051-0.109-0.074-0.127
	c-0.582-3-0.402-4.802-0.402-6.301c0-1.589,0.159-2.896,0.715-5c0.023-0.09,0.071-0.156,0.137-0.202
	c0.025-0.238,0.056-0.484,0.101-0.75c0.058-0.343,0.13-0.651,0.209-0.941c-0.248,2.15-0.305,5.342,1.696,5.703
	c2.112,0.381,2.261-2.396,3.323-1.459c0.005,0.011,0.007,0.02,0.013,0.031c0.365,0.782,0.491,2.15,0.782,2.95
	c-0.021-0.019-0.041-0.038-0.062-0.057C12.218,38.987,11.598,41.268,10.653,44.623z M14.763,32.158c-0.79,0-1.429-0.64-1.429-1.429
	s0.64-1.428,1.429-1.428c0.789,0,1.429,0.639,1.429,1.428S15.552,32.158,14.763,32.158z M9.999,30.729
	c0,0.789-0.64,1.429-1.43,1.429c-0.789,0-1.429-0.64-1.429-1.429s0.64-1.428,1.429-1.428C9.359,29.301,9.999,29.94,9.999,30.729z
	 M9.046,24.777c0.978-0.23,0.794-3.809,2.621-3.571c0.958,0.125,1.543,0.917,2.382,3.095c0.397,1.032,1.191,0.714,1.667,0.714
	s0.238,1.111,0.238,1.667s-1.826,1.032-2.62,2.143c-0.794,1.111-0.318,2.698-1.667,2.857c-1.35,0.159-1.35-2.143-2.382-2.857
	c-1.032-0.714-2.032-0.805-1.667-2.381C8.065,24.505,7.696,25.095,9.046,24.777z M16.669,32.396
	c0.671-1.485-0.556-4.444-0.238-4.762c0.065-0.065,0.107-0.127,0.132-0.186c0.097-0.021,0.189-0.036,0.274-0.043
	c0.159,0.334,0.348,0.626,0.546,0.943c0.596,0.953,2.859,2.381,2.144,7.381c0.251,0.669,0.921,2.685,1.251,5.438
	c-0.115,1.344-0.723,2.067-1.728,2.657c-1.35,0.794-1.429,3.175-2.62,2.143c-0.027-0.024-0.053-0.042-0.079-0.059
	c-0.516-0.623-1.485-1.527-3.018-8.036c-0.15-0.637-0.349-1.082-0.579-1.427c0.033,0.002,0.066,0.006,0.102-0.001
	c-0.214-0.605-0.243-1.79-0.591-3.116C13.602,35.42,15.762,34.402,16.669,32.396z M18.098,46.919c0-0.789,0.64-1.428,1.429-1.428
	s1.429,0.639,1.429,1.428s-0.64,1.429-1.429,1.429S18.098,47.708,18.098,46.919z M17.391,48.717
	c1.327-0.399,1.877,2.576,2.852,2.726c1.032,0.159,1.191-0.476,1.191-3.81c0.477,0.952,1.988,3.211,1.429,10.476
	c-0.048,0.628-0.036,1.2,0.014,1.723c-0.003-0.019-0.011-0.039-0.014-0.057c-0.079-0.635-0.159-0.873-0.715-0.953
	c-0.409-0.058-1.033,0.872-1.397,1.176c-0.129-0.668-0.318-1.37-0.508-2.128c-0.477-1.905-3.643-4.348-2.859-9.047
	C17.39,48.788,17.388,48.753,17.391,48.717z M20.957,61.205c0-0.526,0.427-0.952,0.953-0.952s0.953,0.426,0.953,0.952
	c0,0.526-0.426,0.953-0.953,0.953S20.957,61.731,20.957,61.205z M21.91,63.109c0.606-0.808,1.212-0.815,1.673-0.459
	c0.204,0.506,0.391,0.895,0.471,1.173c0.238,0.833,1.31,1.905,2.62,2.381s-1.316,1.16-3.812,0.952
	c-1.429-0.119-0.357-1.309-1.429-1.667c-0.959-0.319-1.168-0.99-0.79-2.362C20.976,63.629,21.3,63.921,21.91,63.109z M29.805,12.397
	c0-0.244,0.198-0.442,0.442-0.442s0.442,0.198,0.442,0.442s-0.198,0.442-0.442,0.442S29.805,12.641,29.805,12.397z M35.726,66.205
	c1.31-0.476,2.858-1.548,3.097-2.381c0.036-0.127,0.096-0.291,0.168-0.481c0.018,0.09,0.041,0.172,0.07,0.243
	c0.477-1.032,1.478-1.125,1.906-0.238c0.563,1.165,1.078-0.441,1.614-0.69c0.016,0.071,0.032,0.143,0.054,0.214
	c0.477,1.547,0.302,2.28-0.715,2.619c-1.072,0.357-0.953,1.548-2.382,1.667C37.042,67.365,34.416,66.681,35.726,66.205z
	 M40.967,60.729c0.526,0,0.953,0.426,0.953,0.953c0,0.526-0.426,0.952-0.953,0.952s-0.953-0.426-0.953-0.952
	C40.014,61.155,40.44,60.729,40.967,60.729z M41.205,59.538c-1.018-0.268-1.24,0.582-1.326,0.799
	c0.14-0.803,0.211-1.709,0.135-2.704c-0.559-7.265,1.43-9.047,1.906-10c0.071-0.141,0.136-0.266,0.195-0.382
	c-0.143,1.416,0.205,3.313,1.234,3.239c1.111-0.079,1.508-1.587,2.382-1.905c0.077-0.028,0.153-0.062,0.229-0.099
	c-0.009,0.111-0.009,0.223,0.01,0.337c0.784,4.7-1.906,7.143-2.382,9.047c-0.332,1.325-0.892,2.476-1.043,3.576
	C41.781,61.46,41.977,59.741,41.205,59.538z M45.493,46.919c0,0.789-0.64,1.429-1.429,1.429c-0.789,0-1.429-0.64-1.429-1.429
	s0.64-1.428,1.429-1.428C44.853,45.491,45.493,46.13,45.493,46.919z M45.255,43.824c-1.627-0.542-2.431,1.2-2.828,1.378
	c-0.009-0.061-0.019-0.122-0.031-0.188c-0.853-4.774,2.025-10.476,2.382-11.428c-0.238-3.333,1.509-5,1.667-5.714
	c0.235-0.017,0.445,0.037,0.638,0.141c-1.271,2.281-1.264,5.155,0.314,6.049c1.553,0.879,2.7,0.555,3.573-0.477
	c0,0.864-0.458,2.104-0.559,3.174c-0.152,0.294-0.286,0.652-0.394,1.112c-1.939,8.235-2.978,7.5-3.335,8.571
	C45.572,46.761,46.838,44.352,45.255,43.824z M50.257,30.729c0,0.789-0.64,1.429-1.429,1.429c-0.79,0-1.43-0.64-1.43-1.429
	s0.64-1.428,1.43-1.428C49.617,29.301,50.257,29.94,50.257,30.729z M47.637,24.063c0.556,0.397,1.906,0.318,2.382-0.476
	c0.639-1.065,1.627-2.158,2.342-2.353c0.013-0.01,0.026-0.024,0.04-0.028c0.381-0.095,0.953-0.095,1.191,0.238
	c0.013,0.018,0.026,0.05,0.04,0.091c0.379,0.316,0.754,0.855,1.151,1.576c0.519,0.942,1.334,0.766,1.948,0.474
	c0.43-0.021,0.372,2.236-0.042,3.097c-0.165,0.344-1.489,0.298-2.144,2.143c-0.085,0.24-0.167,0.466-0.248,0.68
	c0.213-0.126,0.459-0.204,0.725-0.204c0.79,0,1.429,0.639,1.429,1.428s-0.64,1.429-1.429,1.429c-0.704,0-1.285-0.509-1.404-1.179
	c-0.241,0.388-0.507,0.662-0.832,0.817c-0.049,0.063-0.097,0.107-0.146,0.124c-0.429,0.143-0.953,0.143-1.191-0.238
	c-0.022-0.035-0.036-0.114-0.042-0.226c-0.366-0.639-0.291-1.712-1.625-3.107c-1.376-1.438-1.985-1.587-2.858-1.667
	C46.604,26.444,46.676,23.377,47.637,24.063z M52.124,32.961c0.015-0.028,0.028-0.058,0.039-0.089
	c0.002-0.006,0.004-0.011,0.007-0.017c1.03,0.149,0.612,1.683,2.613,1.683c1.55,0,2.144-2.738,2.144-4.524
	c0-1.346,0.058-1.426,0.229-1.428c0.005,0.286,0.009,0.599,0.009,0.952c0,0.261-0.029,0.507-0.08,0.742
	c0.051,0.048,0.08,0.117,0.08,0.21c0,1.428,0.209,2.356,0.238,3.333c0.33,1.65,1.561,5.679,0.346,10.659
	c-1.997-0.815-2.462,1.838-3.919,1.722c-1.355-0.108-1.526-1.397-1.815-2.167c-0.57-3.102-0.418-6.128-0.757-8.25
	c0.024-0.146,0.047-0.294,0.07-0.442C51.644,34.551,51.771,33.756,52.124,32.961z M55.021,49.776
	c0.862,1.166,1.809,1.252,2.218,1.215c-0.018,1.287-0.015,3.139-0.074,5.927c-0.027,1.293-0.042,2.298-0.031,3.095
	c-0.798-0.075-0.706,1.429-2.352,1.429c-0.833,0-1.148-0.828-1.187-1.52c-0.001-0.041-0.002-0.081-0.004-0.123
	c0-0.008,0-0.017,0-0.024c0,0,0,0-0.001,0.001c-0.054-1.155-0.249-2.501-0.714-4.048c-0.851-2.836-0.925-4.668-0.343-6.338
	C53.142,48.716,53.754,48.063,55.021,49.776z M54.545,62.633c0-0.526,0.427-0.952,0.953-0.952s0.953,0.426,0.953,0.952
	s-0.426,0.952-0.953,0.952S54.545,63.159,54.545,62.633z M56.212,48.824c-0.789,0-1.429-0.64-1.429-1.429
	c0-0.789,0.64-1.428,1.429-1.428c0.79,0,1.43,0.64,1.43,1.428C57.642,48.185,57.002,48.824,56.212,48.824z M53.383,63.158
	c0.521,0.975,2.545,1.364,3.306,0.427c0.376-0.462,0.653-0.727,0.874-0.782c0.225,0.399,0.555,0.663,1.032,1.021
	c1.429,1.071,2.978,1.31,4.05,1.905c1.072,0.595-0.918,1.285-4.765,0.476c-2.263-0.476-3.335,0.357-4.288-0.238
	c-0.953-0.595-0.477-1.071-0.238-2.619C53.363,63.287,53.373,63.222,53.383,63.158z"/>
</svg>
