<?xml version="1.0" encoding="iso-8859-1"?>
<!-- Generator: Adobe Illustrator 16.0.0, SVG Export Plug-In . SVG Version: 6.00 Build 0)  -->
<!DOCTYPE svg PUBLIC "-//W3C//DTD SVG 1.1//EN" "http://www.w3.org/Graphics/SVG/1.1/DTD/svg11.dtd">
<svg version="1.1" id="Layer_1" xmlns="http://www.w3.org/2000/svg" xmlns:xlink="http://www.w3.org/1999/xlink" x="0px" y="0px"
	 width="72px" height="38.4px" viewBox="0 0 72 38.4" style="enable-background:new 0 0 72 38.4;" xml:space="preserve">
<path style="fill-rule:evenodd;clip-rule:evenodd;fill:#FFFFFF;" d="M71.48,19.2l-2.737,0.503c0.308,0.686,1.083,1.36,0.978,2.021
	c-0.134,0.845-1.066,1.668-1.693,2.462c0.025,0.003,0.053,0.003,0.072,0.01l1.56,1.052c0.255,0.107,0.919,0.784,0.813,1.042
	s-1.078-0.409-1.594-0.253h-1.664c-0.184,0.709-0.34,1.39-0.774,2.036c-0.395,0.586-1.092,1.143-1.71,1.669l0.769,1.555
	c0.196,0.198,0.835,1.238,0.64,1.436s-1.073-0.472-1.68-1.173c-0.371-0.429-0.717-0.697-0.932-0.841
	c-0.598,0.264-1.237,0.146-1.915,0.599c-0.563,0.377-1.153,1.229-1.765,1.841l0.749,3.077c0.11,0.268-0.016,0.576-0.282,0.687
	c-0.265,0.111-0.709-0.804-0.796-1.681c-0.086-0.877-1.04-1.052-1.04-1.052c-0.007-0.017-0.013-0.036-0.019-0.056
	c-0.657,0.533-1.334,1.362-2.029,1.519c-0.761,0.172-1.543-0.217-2.342-0.473c-0.011,0.021-0.018,0.04-0.031,0.063
	c-0.607,1.052-0.954,0.614-0.78,1.841c0.173,1.228,0.027,1.315-0.26,1.315c-0.287,0-0.52-0.236-0.52-0.526v-2.887
	c-1.042,0.021-2.059,0.076-3.04-0.155c-0.497-0.118-0.984-0.341-1.462-0.578c-0.237,0.183-0.933,0.748-1.219,1.253
	c-0.347,0.614-0.791,1.529-1.056,1.418c-0.266-0.111-1.062-0.073-0.021-1.213c0.606-0.664,0.97-1.574,1.082-2.044
	c-0.03-0.013-0.06-0.028-0.09-0.042c-0.175,0.241-0.264,0.377-0.063-0.029c-0.94-0.428-1.833-0.942-2.663-1.542
	c-0.573-0.413-1.115-0.866-1.626-1.352c-0.322,0.141-0.767,0.45-1.022,1.122c-0.434,1.14-1.224,1.108-1.419,0.91
	c-0.196-0.198-0.173-0.716,0.52-1.242s0.64-2.035,0.64-2.035c0.021-0.021,0.047-0.035,0.075-0.043
	c-0.583-0.693-1.112-1.435-1.571-2.223c-0.177-0.304-0.339-0.617-0.496-0.933c-0.136-0.11-0.285-0.247-0.45-0.417
	c-0.748-0.77-1.495-1.13-2.243-1.081c-0.576,0-0.169,0-0.745,0c-0.748-0.049-1.495,0.311-2.243,1.081
	c-0.165,0.17-0.314,0.307-0.45,0.417c-0.156,0.316-0.319,0.629-0.496,0.933c-0.459,0.789-0.988,1.53-1.571,2.223
	c0.028,0.008,0.054,0.021,0.075,0.043c0,0-0.054,1.509,0.64,2.035s0.716,1.044,0.52,1.242c-0.195,0.198-0.986,0.229-1.419-0.91
	c-0.256-0.672-0.7-0.981-1.022-1.122c-0.512,0.486-1.054,0.938-1.626,1.352c-0.83,0.6-1.723,1.114-2.663,1.542
	c0.201,0.406,0.112,0.271-0.063,0.029c-0.03,0.014-0.06,0.029-0.09,0.042c0.112,0.47,0.476,1.38,1.082,2.044
	c1.041,1.14,0.244,1.103-0.021,1.213c-0.265,0.111-0.709-0.804-1.056-1.418c-0.286-0.505-0.982-1.07-1.219-1.253
	c-0.478,0.236-0.965,0.46-1.462,0.578c-0.981,0.231-1.998,0.176-3.04,0.155v2.887c0,0.291-0.233,0.526-0.52,0.526
	c-0.288,0-0.434-0.088-0.26-1.315c0.173-1.227-0.173-0.789-0.78-1.841c-0.013-0.022-0.02-0.042-0.031-0.063
	c-0.798,0.255-1.581,0.645-2.342,0.473c-0.695-0.157-1.373-0.985-2.029-1.519c-0.005,0.021-0.012,0.04-0.019,0.056
	c0,0-0.954,0.175-1.04,1.052c-0.086,0.876-0.531,1.792-0.796,1.681c-0.266-0.111-0.392-0.419-0.282-0.687l0.749-3.077
	c-0.612-0.612-1.202-1.463-1.765-1.841c-0.677-0.453-1.317-0.335-1.915-0.599c-0.214,0.144-0.561,0.412-0.932,0.841
	c-0.607,0.701-1.484,1.371-1.68,1.173s0.444-1.238,0.64-1.436l0.769-1.555c-0.619-0.526-1.315-1.083-1.71-1.669
	c-0.435-0.646-0.591-1.327-0.774-2.036H3.121c-0.516-0.156-1.488,0.511-1.594,0.253s0.558-0.935,0.813-1.042l1.56-1.052
	c0.018-0.007,0.047-0.007,0.072-0.01c-0.627-0.794-1.559-1.617-1.693-2.462c-0.105-0.661,0.67-1.335,0.978-2.021L0.52,19.2
	C0.233,19.2,0,18.965,0,18.674s1.533-0.263,1.82-0.263l1.726-0.25c0.296-0.937,0.913-1.7,1.194-2.714
	c0.151-0.543-0.121-1.379-0.131-2.042c-0.024-0.006-0.048-0.012-0.072-0.022l-2.685-1.131c-0.247-0.104-0.365-0.393-0.262-0.644
	s1.022,0.125,1.27,0.229l2.46,0.249c0.541-0.449,1.237-0.794,1.619-1.351c0.394-0.574,0.526-1.322,0.763-1.99L6.501,6.313
	C6.298,6.107,5.607,5.556,5.81,5.351c0.203-0.205,0.532-0.205,0.735,0l2.052,2.076c0.503-0.454,1.034-0.878,1.592-1.264
	c0.644-0.445,1.323-0.841,2.031-1.186V3.419c-0.11-0.269-0.801-1.833-0.536-1.944c0.265-0.111,0.946,0.886,1.056,1.155l0.727,1.819
	c0.878-0.281,1.793-0.346,2.738-0.518c0.594-0.108,1.2-0.295,1.816-0.411l0.96-1.943c0-0.291-0.288-1.578,0-1.578
	c0.287,0,0.52,0.236,0.52,0.526l0.52,2.893c0,0.033-0.012,0.07-0.03,0.107c0.622,0.118,1.234,0.305,1.834,0.417
	c0.907,0.168,1.785,0.243,2.629,0.499l0.507-2.339c0.125-0.042,1.054-0.697,1.316-0.629c0.278,0.072-0.686,1.149-0.796,1.417
	L26,4.983c0.732,0.219,1.432,0.397,2.093,0.878c0.449,0.327,0.879,1.004,1.291,1.514l1.301-1.588
	c0.203-0.206,1.268-0.641,1.471-0.436c0.203,0.206-0.834,0.494-1.211,1.751l-0.26,1.578c-0.015,0.015-0.032,0.023-0.051,0.028
	c1.018,1.155,1.87,2.464,2.519,3.886c0.075,0.069,0.152,0.145,0.233,0.229c0.717,0.738,1.435,1.1,2.152,1.084
	c0.256,0,0.671,0,0.927,0c0.717,0.016,1.435-0.346,2.152-1.084c0.081-0.083,0.158-0.158,0.231-0.227
	c0.649-1.423,1.503-2.731,2.521-3.887c-0.019-0.005-0.037-0.013-0.051-0.028l-0.26-1.578c-0.377-1.257-1.414-1.545-1.211-1.751
	c0.203-0.205,1.268,0.23,1.471,0.436l1.301,1.588c0.411-0.51,0.842-1.187,1.291-1.514c0.661-0.481,1.36-0.66,2.093-0.878l0.517-2.09
	c-0.11-0.268-1.074-1.345-0.796-1.417c0.262-0.068,1.19,0.586,1.316,0.629l0.507,2.339c0.844-0.256,1.723-0.331,2.629-0.499
	c0.6-0.112,1.212-0.299,1.834-0.417c-0.018-0.038-0.03-0.074-0.03-0.107l0.52-2.893C52.498,0.236,52.73,0,53.018,0
	c0.288,0,0,1.288,0,1.578l0.96,1.943c0.616,0.116,1.222,0.303,1.816,0.411c0.945,0.171,1.86,0.237,2.738,0.518l0.727-1.819
	c0.11-0.269,0.791-1.266,1.056-1.155c0.266,0.111-0.426,1.675-0.536,1.944v1.557c0.708,0.345,1.388,0.741,2.031,1.186
	c0.559,0.386,1.089,0.81,1.592,1.264l2.052-2.076c0.203-0.205,0.532-0.205,0.735,0c0.203,0.206-0.488,0.756-0.691,0.962
	l-1.202,2.431c0.237,0.668,0.369,1.416,0.763,1.99c0.382,0.556,1.079,0.902,1.619,1.351l2.46-0.249
	c0.247-0.104,1.167-0.48,1.27-0.229s-0.015,0.54-0.262,0.644l-2.685,1.131c-0.024,0.01-0.048,0.016-0.072,0.022
	c-0.01,0.663-0.282,1.499-0.131,2.042c0.282,1.014,0.898,1.778,1.194,2.714l1.726,0.25c0.287,0,1.82-0.027,1.82,0.263
	S71.767,19.2,71.48,19.2z M20.282,4.734c-1.704,0-2.11,0.65-4.45,0.913c-2.34,0.263-2.467,1.435-4.034,2.695
	c-1.877,1.509-2.856,3.065-4.503,4.467C5.648,14.213,5.98,17.076,5.98,19.2c0,1.036,0.848,1.666,0.313,3.02
	c-0.693,1.753,1.696,3.09,2.422,5.489c0.528,1.743,2.391,2.21,3.916,3.189c1.185,0.76,2.228,2.29,3.615,2.813
	c1.203,0.454,2.729-0.044,4.036-0.044c3.406,0,6.531-1.206,8.987-3.216c0.048-0.082,0.167-0.17,0.306-0.259
	c1.221-1.058,2.262-2.322,3.076-3.736c-0.042,0.024-0.085,0.049-0.124,0.064c-0.53,0.821-1.131,1.354-1.764,1.354
	c-2.08,0-3.918,2.195-4.366,3.02c-0.954,1.753-3.114,1.458-4.815,1.458c-1.73,0-4.577-1.692-6.138-1.956
	c-1.56-0.263-3.971-2.158-4.061-3.251c-0.174-2.104-1.494-3.287-2.182-3.916c-1.82-1.666-0.621-2.623-0.621-4.028
	c0-1.055-0.982-2.62-0.462-3.584s2-4.556,3.252-4.556c1.084,0,3.375-2.14,3.982-3.28c0.606-1.14,4.443-1.73,6.229-1.73
	c1.678,0,3.001,0.686,4.755,0.908c2.133,0.27,3.081,3.886,4.555,3.623c0.509-0.091,1.108,0.566,1.673,1.584
	c0.096,0.044,0.203,0.111,0.323,0.205C30.477,7.825,25.737,4.734,20.282,4.734z M25.223,27.485c0-0.508-0.407-0.92-0.91-0.92
	c-0.503,0-0.91,0.412-0.91,0.92c0,0.509,0.407,0.921,0.91,0.921C24.815,28.406,25.223,27.994,25.223,27.485z M22.103,30.115
	c0-0.363-0.291-0.658-0.65-0.658c-0.359,0-0.65,0.294-0.65,0.658s0.291,0.658,0.65,0.658C21.812,30.773,22.103,30.479,22.103,30.115
	z M17.119,13.1c0.147-0.489-0.334-0.824-0.783-0.2c-0.369,0.511-0.94,0.901-0.76,2.924c0.181,2.023,0.453,2.201,0.897,2.909
	c0.413,0.659,1.192,0.503,0.861-0.351c-0.166-0.427-0.724-0.959-0.875-2.645C16.31,14.051,16.954,13.645,17.119,13.1z M18.332,11.31
	c0.646,0,1.17-0.53,1.17-1.184c0-0.653-0.524-1.183-1.17-1.183c-0.646,0-1.17,0.53-1.17,1.183
	C17.162,10.78,17.686,11.31,18.332,11.31z M17.292,26.828c-0.646,0-1.17,0.53-1.17,1.184s0.524,1.184,1.17,1.184
	c0.646,0,1.17-0.53,1.17-1.184S17.938,26.828,17.292,26.828z M11.413,17.423c0.774-2.02,1.784-2.1,2.293-2.625
	c0.456-0.472,0.063-1.144-0.834-0.699c-0.736,0.365-1.649,0.469-2.578,2.893c-0.929,2.424-0.7,2.791-0.564,3.868
	c0.126,1.002,1.158,1.291,1.241,0.115C11.013,20.386,10.638,19.443,11.413,17.423z M13.73,16.681c-0.555,0.609-1.37,1.04-1.37,3.64
	s0.345,2.858,0.856,3.813c0.475,0.888,1.541,0.78,1.198-0.347c-0.171-0.564-0.857-1.307-0.857-3.474c0-2.166,0.914-2.609,1.2-3.286
	C15.014,16.421,14.407,15.938,13.73,16.681z M21.842,8.285c0,0.508,0.408,0.92,0.91,0.92c0.503,0,0.91-0.412,0.91-0.92
	s-0.407-0.92-0.91-0.92C22.25,7.365,21.842,7.777,21.842,8.285z M24.346,9.367c0.045,0.919,1.98,0.182,3.726,1.657
	c1.765,1.492,2.362,3.042,2.726,2.497s-0.336-1.563-1.972-3.062C27.048,8.832,24.301,8.447,24.346,9.367z M36.115,16.517
	c-0.046,0.001-0.077,0.002-0.115,0.003c-0.038-0.001-0.068-0.002-0.115-0.003c-1.549-0.032-3.021-0.423-4.114-0.814
	c-1.23-0.439-1.919-0.848-2.085-0.732c-0.379-0.332-0.822-0.666-1.343-1.03c-2.253-1.578-2.431-1.315-3.38-1.315
	c-1.751,0-2.429,2.189-3.729,2.365c-1.3,0.175-2.772,2.35-2.772,4.21c0,1.524,0.843,3.345,1.114,4.306
	c0.521,1.841,3.304,2.269,5.387,2.269c2.03,0,3.842-0.941,5.035-2.416c0.341-0.163,0.93-0.491,1.773-0.792
	c1.158-0.414,2.624-0.872,4.229-0.967c1.605,0.095,3.071,0.553,4.229,0.967c0.844,0.301,1.433,0.629,1.773,0.792
	c1.192,1.475,3.004,2.416,5.035,2.416c2.083,0,4.867-0.428,5.387-2.269c0.271-0.961,1.114-2.782,1.114-4.306
	c0-1.86-1.471-4.035-2.771-4.21s-1.978-2.365-3.729-2.365c-0.95,0-1.127-0.263-3.38,1.315c-0.521,0.364-0.964,0.698-1.343,1.03
	c-0.166-0.115-0.855,0.293-2.085,0.732C39.135,16.093,37.664,16.484,36.115,16.517z M46.777,27.485c0,0.509,0.407,0.921,0.91,0.921
	c0.503,0,0.91-0.412,0.91-0.921c0-0.508-0.407-0.92-0.91-0.92C47.185,26.564,46.777,26.977,46.777,27.485z M49.897,30.115
	c0,0.363,0.291,0.658,0.65,0.658c0.359,0,0.65-0.294,0.65-0.658s-0.291-0.658-0.65-0.658C50.188,29.458,49.897,29.752,49.897,30.115
	z M55.54,15.737c-0.15,1.686-0.709,2.217-0.875,2.645c-0.331,0.854,0.448,1.01,0.861,0.351c0.444-0.708,0.716-0.886,0.897-2.909
	c0.18-2.022-0.391-2.413-0.76-2.924c-0.448-0.624-0.93-0.289-0.783,0.2C55.046,13.645,55.69,14.051,55.54,15.737z M54.708,26.828
	c-0.646,0-1.17,0.53-1.17,1.184s0.524,1.184,1.17,1.184c0.646,0,1.17-0.53,1.17-1.184S55.354,26.828,54.708,26.828z M53.668,11.31
	c0.646,0,1.17-0.53,1.17-1.184c0-0.653-0.524-1.183-1.17-1.183c-0.646,0-1.17,0.53-1.17,1.183
	C52.498,10.78,53.021,11.31,53.668,11.31z M50.157,8.285c0-0.508-0.407-0.92-0.91-0.92c-0.502,0-0.91,0.412-0.91,0.92
	s0.407,0.92,0.91,0.92C49.75,9.206,50.157,8.793,50.157,8.285z M47.654,9.367c0.045-0.919-2.702-0.535-4.479,1.093
	c-1.636,1.499-2.336,2.517-1.972,3.062s0.96-1.005,2.726-2.497C45.673,9.549,47.609,10.286,47.654,9.367z M64.705,12.81
	c-1.647-1.402-2.626-2.958-4.503-4.467c-1.567-1.26-1.693-2.432-4.034-2.695c-2.34-0.263-2.747-0.913-4.45-0.913
	c-5.455,0-10.195,3.09-12.606,7.634c0.12-0.093,0.227-0.16,0.323-0.205c0.565-1.018,1.164-1.675,1.673-1.584
	c1.474,0.263,2.422-3.353,4.555-3.623c1.754-0.222,3.077-0.908,4.755-0.908c1.787,0,5.623,0.59,6.229,1.73
	c0.607,1.14,2.898,3.28,3.982,3.28c1.252,0,2.732,3.592,3.252,4.556s-0.462,2.529-0.462,3.584c0,1.405,1.199,2.362-0.621,4.028
	c-0.688,0.629-2.008,1.812-2.182,3.916c-0.09,1.093-2.501,2.988-4.061,3.251c-1.561,0.263-4.407,1.956-6.138,1.956
	c-1.701,0-3.861,0.296-4.815-1.458c-0.448-0.825-2.286-3.02-4.366-3.02c-0.633,0-1.233-0.533-1.764-1.354
	c-0.041-0.017-0.085-0.042-0.13-0.068c0.812,1.415,1.856,2.677,3.077,3.736c0.141,0.09,0.263,0.18,0.312,0.263
	c2.456,2.01,5.581,3.216,8.987,3.216c1.307,0,2.833,0.498,4.036,0.044c1.387-0.523,2.43-2.052,3.615-2.813
	c1.525-0.979,3.388-1.446,3.916-3.189c0.727-2.399,3.116-3.735,2.422-5.489c-0.536-1.354,0.313-1.984,0.313-3.02
	C66.02,17.076,66.352,14.213,64.705,12.81z M57.585,23.787c-0.342,1.126,0.723,1.235,1.198,0.347
	c0.511-0.955,0.856-1.213,0.856-3.813s-0.814-3.03-1.37-3.64c-0.677-0.743-1.284-0.26-1.027,0.347c0.286,0.676,1.2,1.12,1.2,3.286
	C58.442,22.479,57.756,23.223,57.585,23.787z M61.029,20.975c0.083,1.176,1.115,0.888,1.241-0.115
	c0.135-1.077,0.365-1.444-0.564-3.868c-0.929-2.424-1.842-2.528-2.578-2.893c-0.896-0.445-1.29,0.227-0.834,0.699
	c0.509,0.525,1.519,0.605,2.293,2.625C61.362,19.443,60.987,20.386,61.029,20.975z M28.083,18.949
	c-0.499,0.222-0.668,0.439-0.103,1.043c0.161,0.172-0.287,0.325-0.238,0.579c0.061,0.314-0.247,0.794-0.428,1.014
	c-0.555,0.674-1.369,1.493-1.788,0.716c-0.222-0.412-0.403,0.137-0.996,0.372c-0.702,0.278-0.643-1.026-1.273-0.774
	c-0.526,0.21-0.9-0.21-1.07-0.657c-0.156-0.413-0.384-0.718,0.063-1.374c0.239-0.351-0.561-0.562-0.238-0.809
	c0.13-0.1,0.288-0.743,0.339-0.902c0.163-0.509,0.536-0.32,0.651-0.849c0.169-0.777,0.827-0.528,1.392-0.526
	c0.279,0.001,0.577-0.02,0.816-0.181c0.26-0.175,0.402,0.285,0.665,0.114c0.741-0.482,1.297-0.481,1.323,0.485
	c0.01,0.374-0.188,0.555,0.158,0.421c0.245-0.094,0.592,0.147,0.679,0.417C28.288,18.827,28.56,18.737,28.083,18.949z
	 M44.645,17.622c0.346,0.133,0.148-0.048,0.158-0.421c0.026-0.966,0.582-0.967,1.323-0.485c0.262,0.17,0.405-0.29,0.665-0.114
	c0.239,0.162,0.537,0.182,0.816,0.181c0.565-0.002,1.222-0.25,1.392,0.526c0.116,0.529,0.488,0.34,0.651,0.849
	c0.051,0.159,0.209,0.802,0.339,0.902c0.323,0.247-0.477,0.458-0.238,0.809c0.447,0.655,0.219,0.96,0.063,1.374
	c-0.17,0.447-0.544,0.867-1.07,0.657c-0.631-0.251-0.571,1.052-1.273,0.774c-0.593-0.235-0.773-0.783-0.996-0.372
	c-0.419,0.777-1.233-0.042-1.788-0.716c-0.181-0.22-0.489-0.7-0.428-1.014c0.049-0.254-0.399-0.407-0.238-0.579
	c0.565-0.604,0.396-0.821-0.103-1.043c-0.477-0.212-0.205-0.123,0.049-0.91C44.053,17.769,44.4,17.527,44.645,17.622z"/>
</svg>
