<?xml version="1.0" encoding="iso-8859-1"?>
<!-- Generator: Adobe Illustrator 16.0.0, SVG Export Plug-In . SVG Version: 6.00 Build 0)  -->
<!DOCTYPE svg PUBLIC "-//W3C//DTD SVG 1.1//EN" "http://www.w3.org/Graphics/SVG/1.1/DTD/svg11.dtd">
<svg version="1.1" id="Layer_1" xmlns="http://www.w3.org/2000/svg" xmlns:xlink="http://www.w3.org/1999/xlink" x="0px" y="0px"
	 width="69.6px" height="38.64px" viewBox="0 0 69.6 38.64" style="enable-background:new 0 0 69.6 38.64;" xml:space="preserve">
<path style="fill-rule:evenodd;clip-rule:evenodd;fill:#FFFFFF;" d="M68.542,22.231c-0.091,0-0.177-0.015-0.261-0.036
	c-0.423,2.31-1.347,4.444-2.653,6.289c0.074,0.044,0.145,0.094,0.209,0.158c0.413,0.413,0.413,1.083,0,1.497l-2.62,2.62
	c-0.414,0.413-1.084,0.413-1.497,0c-0.081-0.081-0.141-0.173-0.19-0.269c-1.708,1.152-3.65,1.983-5.742,2.4
	c0.03,0.099,0.051,0.201,0.051,0.309c0,0.584-0.474,1.059-1.059,1.059h-3.705c-0.584,0-1.059-0.474-1.059-1.059
	c0-0.075,0.008-0.148,0.023-0.218c-2.283-0.38-4.4-1.248-6.243-2.492c-0.049,0.096-0.109,0.188-0.19,0.27
	c-0.414,0.413-1.084,0.413-1.497,0l-2.62-2.62c-0.413-0.414-0.413-1.084,0-1.497c0.064-0.064,0.137-0.115,0.211-0.16
	c-0.509-0.719-0.96-1.48-1.346-2.281h1.481c2.456,4.568,7.277,7.675,12.826,7.675c8.039,0,14.555-6.517,14.555-14.556
	S60.702,4.764,52.663,4.764c-5.655,0-10.551,3.228-12.96,7.94H38.23c0.412-0.897,0.905-1.749,1.47-2.546
	c-0.075-0.044-0.146-0.095-0.21-0.159c-0.413-0.413-0.413-1.083,0-1.497l2.62-2.62c0.413-0.414,1.083-0.414,1.497,0
	c0.081,0.081,0.141,0.173,0.19,0.27c1.842-1.244,3.96-2.111,6.243-2.492c-0.015-0.07-0.023-0.144-0.023-0.218
	c0-0.584,0.474-1.059,1.059-1.059h3.705c0.584,0,1.059,0.474,1.059,1.059c0,0.108-0.021,0.211-0.051,0.309
	c2.092,0.417,4.035,1.249,5.742,2.4c0.049-0.096,0.109-0.188,0.19-0.269c0.413-0.414,1.083-0.414,1.497,0l2.62,2.62
	c0.413,0.414,0.413,1.084,0,1.497c-0.064,0.063-0.135,0.114-0.209,0.158c1.306,1.844,2.23,3.979,2.653,6.289
	c0.083-0.021,0.17-0.036,0.261-0.036c0.584,0,1.059,0.474,1.059,1.059v3.705C69.6,21.757,69.126,22.231,68.542,22.231z
	 M40.225,14.022c0.396,0.002,0.793,0.003,1.182,0.004c1.989-4.222,6.28-7.146,11.256-7.146c6.869,0,12.438,5.569,12.438,12.439
	s-5.569,12.439-12.438,12.439c-4.805,0-8.97-2.726-11.042-6.714c-0.467-0.001-0.935-0.008-1.396-0.017v-0.15h-3.176v0.058
	c-0.367-0.012-0.644-0.021-0.791-0.021c-0.761-0.049-1.521,0.313-2.282,1.087c-0.168,0.171-0.32,0.309-0.458,0.419
	c-0.159,0.319-0.325,0.633-0.505,0.939c-0.467,0.793-1.005,1.54-1.599,2.237c0.029,0.008,0.055,0.021,0.077,0.043
	c0,0-0.055,1.518,0.65,2.047c0.706,0.529,0.729,1.051,0.529,1.25c-0.199,0.199-1.003,0.231-1.444-0.916
	c-0.261-0.677-0.713-0.987-1.041-1.129c-0.521,0.489-1.072,0.945-1.655,1.36c-0.845,0.603-1.754,1.121-2.71,1.551
	c0.205,0.411,0.115,0.273-0.064,0.03c-0.031,0.014-0.061,0.029-0.092,0.042c0.114,0.473,0.484,1.388,1.102,2.057
	c1.059,1.147,0.248,1.109-0.022,1.221s-0.722-0.809-1.075-1.427c-0.291-0.509-1-1.077-1.24-1.261
	c-0.486,0.238-0.982,0.463-1.488,0.582c-0.998,0.233-2.033,0.177-3.094,0.157v2.905c0,0.292-0.237,0.529-0.529,0.529
	c-0.292,0-0.441-0.088-0.264-1.323c0.176-1.235-0.177-0.794-0.794-1.853c-0.013-0.022-0.021-0.042-0.032-0.063
	c-0.813,0.257-1.608,0.649-2.383,0.476c-0.708-0.158-1.397-0.992-2.065-1.528c-0.005,0.021-0.012,0.04-0.019,0.057
	c0,0-0.97,0.176-1.059,1.059s-0.54,1.803-0.81,1.691s-0.398-0.421-0.287-0.691l0.762-3.096c-0.623-0.615-1.223-1.472-1.796-1.852
	c-0.689-0.456-1.34-0.337-1.948-0.603c-0.218,0.146-0.571,0.415-0.949,0.846c-0.617,0.706-1.51,1.379-1.709,1.18
	c-0.199-0.199,0.452-1.246,0.651-1.445l0.782-1.565c-0.63-0.529-1.339-1.09-1.741-1.679c-0.442-0.65-0.601-1.335-0.788-2.049H3.176
	c-0.525-0.157-1.514,0.515-1.622,0.255c-0.107-0.26,0.568-0.941,0.828-1.049l1.588-1.059c0.019-0.007,0.048-0.007,0.073-0.01
	c-0.638-0.8-1.587-1.627-1.724-2.478c-0.107-0.665,0.682-1.344,0.996-2.034L0.529,19.32C0.237,19.32,0,19.083,0,18.791
	s1.56-0.265,1.853-0.265l1.757-0.251c0.301-0.942,0.929-1.711,1.215-2.731c0.154-0.547-0.123-1.387-0.133-2.055
	c-0.025-0.006-0.05-0.012-0.074-0.022l-2.732-1.139c-0.251-0.105-0.371-0.395-0.267-0.648s1.041,0.125,1.292,0.23l2.503,0.25
	c0.55-0.452,1.259-0.8,1.648-1.359c0.401-0.578,0.536-1.33,0.776-2.003L6.616,6.352C6.409,6.145,5.706,5.59,5.913,5.384
	c0.207-0.207,0.542-0.207,0.749,0L8.75,7.473C9.262,7.015,9.802,6.589,10.371,6.2c0.655-0.448,1.347-0.846,2.067-1.193V3.44
	c-0.112-0.27-0.815-1.844-0.545-1.956s0.963,0.892,1.075,1.162l0.74,1.83c0.893-0.282,1.825-0.348,2.786-0.521
	c0.605-0.108,1.222-0.296,1.848-0.413l0.977-1.955c0-0.292-0.292-1.588,0-1.588c0.292,0,0.529,0.237,0.529,0.529l0.53,2.911
	c0,0.034-0.013,0.07-0.031,0.108c0.633,0.119,1.257,0.307,1.868,0.419c0.922,0.17,1.816,0.244,2.675,0.502l0.516-2.354
	c0.128-0.043,1.072-0.702,1.339-0.633c0.283,0.073-0.698,1.157-0.81,1.427l0.525,2.103c0.746,0.22,1.458,0.399,2.13,0.884
	c0.457,0.329,0.895,1.01,1.313,1.522l1.324-1.598c0.207-0.207,1.29-0.645,1.497-0.438c0.207,0.207-0.85,0.497-1.232,1.762
	l-0.265,1.588c-0.015,0.015-0.033,0.023-0.052,0.028c1.036,1.164,1.905,2.479,2.565,3.912c0.075,0.069,0.153,0.144,0.236,0.228
	c0.73,0.743,1.46,1.107,2.19,1.091c0.078,0,0.405,0.003,0.883,0.007v0.026h3.176V14.022z M45.783,11.115
	c-0.585,0-1.059,0.474-1.059,1.059c0,0.585,0.474,1.059,1.059,1.059c0.584,0,1.059-0.474,1.059-1.059
	C46.841,11.589,46.367,11.115,45.783,11.115z M48.958,8.998c-0.584,0-1.059,0.474-1.059,1.059c0,0.585,0.474,1.059,1.059,1.059
	c0.585,0,1.059-0.474,1.059-1.059C50.017,9.472,49.543,8.998,48.958,8.998z M52.928,7.939c-0.584,0-1.059,0.474-1.059,1.059
	c0,0.585,0.474,1.059,1.059,1.059s1.059-0.474,1.059-1.059C53.986,8.414,53.512,7.939,52.928,7.939z M58.302,28.748
	c3.271-1.869,5.476-5.391,5.476-9.428c0-3.967-2.128-7.437-5.306-9.329c-1.093-0.564-1.479,0.597-0.445,1.277
	c2.663,1.69,4.43,4.665,4.43,8.052c0,3.448-1.831,6.468-4.574,8.142C57.145,28.077,57.424,29.036,58.302,28.748z M52.928,30.436
	c0.584,0,1.059-0.474,1.059-1.059c0-0.585-0.474-1.059-1.059-1.059s-1.059,0.474-1.059,1.059
	C51.869,29.961,52.343,30.436,52.928,30.436z M48.958,29.377c0.585,0,1.059-0.474,1.059-1.059c0-0.585-0.474-1.059-1.059-1.059
	c-0.584,0-1.059,0.474-1.059,1.059C47.899,28.903,48.374,29.377,48.958,29.377z M45.783,27.26c0.584,0,1.059-0.474,1.059-1.059
	c0-0.584-0.474-1.059-1.059-1.059c-0.585,0-1.059,0.474-1.059,1.059C44.724,26.786,45.198,27.26,45.783,27.26z M20.642,4.764
	c-1.734,0-2.147,0.654-4.529,0.919s-2.511,1.444-4.105,2.712C10.097,9.913,9.1,11.479,7.424,12.89
	c-1.676,1.412-1.337,4.292-1.337,6.43c0,1.042,0.863,1.676,0.317,3.039c-0.706,1.764,1.726,3.109,2.465,5.523
	c0.537,1.754,2.433,2.224,3.985,3.209c1.206,0.765,2.268,2.304,3.679,2.83c1.225,0.457,2.777-0.045,4.107-0.045
	c3.466,0,6.647-1.213,9.146-3.236c0.05-0.083,0.173-0.174,0.317-0.264c1.243-1.065,2.305-2.335,3.132-3.76
	c-0.046,0.026-0.091,0.052-0.132,0.069c-0.54,0.826-1.151,1.362-1.795,1.362c-2.117,0-3.988,2.209-4.444,3.039
	c-0.97,1.764-3.169,1.466-4.9,1.466c-1.761,0-4.658-1.703-6.246-1.968s-4.042-2.171-4.133-3.271c-0.177-2.117-1.52-3.307-2.22-3.94
	c-1.853-1.676-0.632-2.64-0.632-4.053c0-1.062-1-2.636-0.47-3.607c0.529-0.97,2.035-4.584,3.31-4.584
	c1.104,0,3.435-2.154,4.053-3.301c0.617-1.146,4.521-1.741,6.34-1.741c1.708,0,3.055,0.69,4.84,0.913
	c2.17,0.271,3.136,3.91,4.635,3.646c0.519-0.092,1.127,0.569,1.703,1.594c0.098,0.044,0.207,0.112,0.329,0.206
	C31.017,7.874,26.193,4.764,20.642,4.764z M25.67,27.657c0-0.512-0.415-0.927-0.926-0.927c-0.511,0-0.926,0.415-0.926,0.927
	c0,0.511,0.415,0.926,0.926,0.926C25.255,28.583,25.67,28.168,25.67,27.657z M22.494,30.303c0-0.366-0.296-0.662-0.662-0.662
	c-0.365,0-0.662,0.296-0.662,0.662c0,0.365,0.296,0.662,0.662,0.662C22.198,30.965,22.494,30.668,22.494,30.303z M17.422,13.181
	c0.15-0.492-0.34-0.829-0.797-0.202c-0.375,0.515-0.956,0.907-0.772,2.942c0.184,2.036,0.461,2.214,0.913,2.927
	c0.42,0.664,1.214,0.506,0.876-0.353c-0.168-0.43-0.737-0.965-0.89-2.662C16.599,14.139,17.254,13.73,17.422,13.181z M18.657,11.38
	c0.658,0,1.19-0.533,1.19-1.191c0-0.658-0.533-1.191-1.19-1.191s-1.191,0.533-1.191,1.191C17.466,10.847,18,11.38,18.657,11.38z
	 M17.599,26.995c-0.658,0-1.191,0.533-1.191,1.191s0.533,1.191,1.191,1.191s1.19-0.533,1.19-1.191S18.256,26.995,17.599,26.995z
	 M11.615,17.531c0.788-2.033,1.816-2.112,2.333-2.642c0.464-0.475,0.064-1.15-0.849-0.703c-0.749,0.367-1.678,0.472-2.624,2.911
	s-0.712,2.808-0.574,3.892c0.128,1.009,1.179,1.299,1.264,0.116C11.208,20.513,10.827,19.564,11.615,17.531z M13.974,16.785
	c-0.565,0.613-1.394,1.046-1.394,3.662c0,2.616,0.351,2.876,0.871,3.837c0.484,0.894,1.568,0.785,1.22-0.349
	c-0.174-0.568-0.873-1.315-0.873-3.495c0-2.18,0.93-2.626,1.221-3.307C15.28,16.523,14.663,16.038,13.974,16.785z M22.229,8.336
	c0,0.512,0.415,0.926,0.926,0.926c0.512,0,0.926-0.415,0.926-0.926S23.667,7.41,23.156,7.41C22.645,7.41,22.229,7.825,22.229,8.336z
	 M24.777,9.425c0.046,0.925,2.016,0.183,3.792,1.667c1.796,1.501,2.403,3.061,2.774,2.513c0.37-0.548-0.343-1.573-2.007-3.081
	C27.528,8.887,24.732,8.5,24.777,9.425z M36.521,16.62c-1.577-0.033-3.074-0.426-4.188-0.82c-1.251-0.442-1.954-0.853-2.122-0.737
	c-0.386-0.333-0.837-0.669-1.366-1.036c-2.293-1.588-2.474-1.323-3.44-1.323c-1.782,0-2.472,2.203-3.795,2.379
	c-1.323,0.177-2.821,2.365-2.821,4.237c0,1.534,0.857,3.366,1.134,4.333c0.529,1.853,3.362,2.283,5.482,2.283
	c2.066,0,3.911-0.947,5.124-2.431c0.347-0.164,0.946-0.494,1.805-0.797c1.182-0.418,2.68-0.881,4.32-0.975
	c1.315-0.075,8.063,0.159,9.92,0.179c1.008,2.366,3.354,4.024,6.088,4.024c3.654,0,6.616-2.962,6.616-6.616
	s-2.962-6.616-6.616-6.616c-2.577,0-4.809,1.475-5.901,3.626C45.312,16.333,38.01,16.65,36.521,16.62z M28.581,19.067
	c-0.507,0.224-0.68,0.442-0.104,1.05c0.164,0.173-0.292,0.327-0.242,0.583c0.062,0.316-0.251,0.799-0.436,1.021
	c-0.564,0.679-1.393,1.502-1.82,0.721c-0.226-0.415-0.41,0.137-1.013,0.374c-0.715,0.28-0.654-1.032-1.296-0.779
	c-0.536,0.211-0.916-0.211-1.088-0.662c-0.159-0.416-0.392-0.723,0.063-1.382c0.243-0.352-0.571-0.565-0.243-0.813
	c0.132-0.1,0.293-0.748,0.345-0.908c0.166-0.512,0.545-0.322,0.663-0.854c0.172-0.782,0.841-0.532,1.416-0.53
	c0.284,0.001,0.587-0.02,0.831-0.182c0.264-0.176,0.409,0.286,0.676,0.115c0.754-0.485,1.32-0.484,1.346,0.488
	c0.01,0.376-0.191,0.559,0.161,0.424c0.249-0.095,0.602,0.148,0.69,0.42C28.789,18.944,29.066,18.854,28.581,19.067z M52.663,15.879
	c1.9,0,3.44,1.54,3.44,3.44s-1.541,3.44-3.44,3.44s-3.44-1.54-3.44-3.44S50.763,15.879,52.663,15.879z"/>
</svg>
