<?xml version="1.0" encoding="iso-8859-1"?>
<!-- Generator: Adobe Illustrator 16.0.0, SVG Export Plug-In . SVG Version: 6.00 Build 0)  -->
<!DOCTYPE svg PUBLIC "-//W3C//DTD SVG 1.1//EN" "http://www.w3.org/Graphics/SVG/1.1/DTD/svg11.dtd">
<svg version="1.1" id="Layer_1" xmlns="http://www.w3.org/2000/svg" xmlns:xlink="http://www.w3.org/1999/xlink" x="0px" y="0px"
	 width="69.6px" height="33.845px" viewBox="0 0 69.6 33.845" style="enable-background:new 0 0 69.6 33.845;" xml:space="preserve"
	>
<path style="fill-rule:evenodd;clip-rule:evenodd;fill:#FFFFFF;" d="M68.545,19.831c-0.09,0-0.176-0.015-0.26-0.036
	c-0.421,2.308-1.342,4.44-2.644,6.283c0.074,0.044,0.145,0.094,0.208,0.158c0.412,0.413,0.412,1.083,0,1.496l-2.611,2.617
	c-0.412,0.413-1.08,0.413-1.492,0c-0.081-0.08-0.14-0.172-0.189-0.269c-1.702,1.151-3.637,1.981-5.722,2.398
	c0.03,0.098,0.051,0.201,0.051,0.309c0,0.584-0.472,1.058-1.055,1.058H51.14c-0.583,0-1.055-0.473-1.055-1.058
	c0-0.075,0.008-0.147,0.023-0.218c-2.275-0.379-4.386-1.245-6.223-2.487c-0.049,0.096-0.108,0.188-0.188,0.267
	c-0.412,0.413-1.08,0.413-1.492,0l-2.611-2.617c-0.412-0.413-0.412-1.083,0-1.496c0.063-0.063,0.133-0.113,0.207-0.157
	c-0.508-0.719-0.959-1.481-1.343-2.281h1.481c2.447,4.564,7.253,7.668,12.783,7.668c8.011,0,14.504-6.511,14.504-14.543
	S60.733,2.379,52.722,2.379c-5.635,0-10.517,3.225-12.917,7.933h-1.465c0.411-0.896,0.902-1.748,1.465-2.544
	c-0.074-0.044-0.145-0.095-0.209-0.158c-0.412-0.413-0.412-1.083,0-1.496l2.611-2.617c0.412-0.413,1.08-0.413,1.492,0
	c0.08,0.08,0.14,0.172,0.189,0.269c1.836-1.242,3.947-2.109,6.222-2.489c-0.015-0.07-0.023-0.144-0.023-0.218
	C50.085,0.473,50.558,0,51.14,0h3.692c0.583,0,1.055,0.473,1.055,1.058c0,0.108-0.021,0.21-0.051,0.309
	c2.085,0.417,4.021,1.248,5.722,2.398c0.049-0.096,0.108-0.188,0.189-0.269c0.412-0.413,1.08-0.413,1.492,0l2.611,2.617
	c0.412,0.413,0.412,1.083,0,1.496c-0.063,0.063-0.135,0.114-0.208,0.158c1.302,1.843,2.223,3.975,2.644,6.283
	c0.083-0.021,0.169-0.036,0.26-0.036c0.583,0,1.055,0.474,1.055,1.058v3.702C69.6,19.357,69.127,19.831,68.545,19.831z
	 M41.505,11.634c1.981-4.219,6.258-7.14,11.217-7.14c6.845,0,12.395,5.564,12.395,12.428S59.567,29.35,52.722,29.35
	c-4.787,0-8.938-2.723-11.002-6.708c-1.673,0-5.831,0-9.284,0v-0.167h-3.165v0.167c-0.554,0-1.034,0-1.392,0
	c-2.064,3.984-6.215,6.708-11.002,6.708c-6.845,0-12.395-5.564-12.395-12.428S10.032,4.495,16.877,4.495
	c4.958,0,9.235,2.921,11.217,7.14c0.324,0,0.726,0,1.177,0c0.344,0,0.715,0,1.117,0h1.408c0.21,0,0.424,0,0.64,0
	c1.747,0,3.672,0,5.368,0h1.408C40.14,11.634,40.935,11.634,41.505,11.634z M45.866,8.726c-0.583,0-1.055,0.474-1.055,1.058
	s0.472,1.058,1.055,1.058s1.055-0.474,1.055-1.058S46.448,8.726,45.866,8.726z M49.03,6.61c-0.583,0-1.055,0.474-1.055,1.058
	s0.472,1.058,1.055,1.058s1.055-0.474,1.055-1.058S49.613,6.61,49.03,6.61z M52.986,5.553c-0.583,0-1.055,0.473-1.055,1.058
	c0,0.584,0.472,1.058,1.055,1.058c0.582,0,1.055-0.474,1.055-1.058C54.041,6.026,53.568,5.553,52.986,5.553z M58.342,26.342
	c3.259-1.867,5.457-5.386,5.457-9.419c0-3.963-2.122-7.43-5.288-9.321c-1.089-0.563-1.473,0.596-0.443,1.276
	c2.653,1.688,4.415,4.66,4.415,8.044c0,3.445-1.825,6.462-4.558,8.134C57.188,25.672,57.466,26.629,58.342,26.342z M52.986,28.028
	c0.582,0,1.055-0.474,1.055-1.058c0-0.584-0.473-1.058-1.055-1.058c-0.583,0-1.055,0.473-1.055,1.058
	C51.931,27.554,52.403,28.028,52.986,28.028z M49.03,26.97c0.583,0,1.055-0.474,1.055-1.058c0-0.584-0.472-1.058-1.055-1.058
	s-1.055,0.473-1.055,1.058C47.976,26.497,48.448,26.97,49.03,26.97z M45.866,24.855c0.583,0,1.055-0.474,1.055-1.058
	c0-0.584-0.473-1.058-1.055-1.058s-1.055,0.474-1.055,1.058C44.811,24.381,45.283,24.855,45.866,24.855z M23.734,24.855
	c0.583,0,1.055-0.474,1.055-1.058c0-0.584-0.472-1.058-1.055-1.058c-0.583,0-1.055,0.474-1.055,1.058
	C22.679,24.381,23.151,24.855,23.734,24.855z M20.569,26.97c0.583,0,1.055-0.474,1.055-1.058c0-0.584-0.472-1.058-1.055-1.058
	s-1.055,0.473-1.055,1.058C19.515,26.497,19.987,26.97,20.569,26.97z M16.613,28.028c0.583,0,1.055-0.474,1.055-1.058
	c0-0.584-0.472-1.058-1.055-1.058c-0.583,0-1.055,0.473-1.055,1.058C15.559,27.554,16.031,28.028,16.613,28.028z M11.089,7.602
	c-3.167,1.891-5.288,5.357-5.288,9.321c0,4.034,2.197,7.553,5.457,9.419c0.875,0.288,1.153-0.67,0.418-1.286
	c-2.733-1.671-4.558-4.689-4.558-8.134c0-3.384,1.761-6.356,4.415-8.044C12.562,8.198,12.178,7.038,11.089,7.602z M16.613,5.553
	c-0.583,0-1.055,0.473-1.055,1.058c0,0.584,0.472,1.058,1.055,1.058c0.583,0,1.055-0.474,1.055-1.058
	C17.668,6.026,17.196,5.553,16.613,5.553z M20.569,6.61c-0.583,0-1.055,0.474-1.055,1.058s0.472,1.058,1.055,1.058
	s1.055-0.474,1.055-1.058S21.152,6.61,20.569,6.61z M23.734,8.726c-0.583,0-1.055,0.474-1.055,1.058s0.472,1.058,1.055,1.058
	c0.583,0,1.055-0.474,1.055-1.058S24.316,8.726,23.734,8.726z M22.758,13.935c-1.088-2.149-3.312-3.623-5.88-3.623
	c-3.641,0-6.593,2.959-6.593,6.61s2.952,6.61,6.593,6.61c2.724,0,5.061-1.656,6.066-4.019c2.571,0,21.141,0,23.712,0
	c1.005,2.363,3.343,4.019,6.066,4.019c3.641,0,6.593-2.959,6.593-6.61s-2.952-6.61-6.593-6.61c-2.568,0-4.792,1.474-5.88,3.623
	C45.243,13.935,24.356,13.935,22.758,13.935z M16.877,20.36c-1.894,0-3.428-1.539-3.428-3.438s1.535-3.438,3.428-3.438
	c1.893,0,3.428,1.539,3.428,3.438S18.771,20.36,16.877,20.36z M52.722,13.485c1.894,0,3.428,1.539,3.428,3.438
	s-1.535,3.438-3.428,3.438c-1.893,0-3.428-1.539-3.428-3.438S50.829,13.485,52.722,13.485z M29.792,10.312
	c-2.4-4.708-7.28-7.933-12.915-7.933c-8.011,0-14.504,6.511-14.504,14.543s6.494,14.543,14.504,14.543
	c5.529,0,10.333-3.104,12.78-7.668h1.478c-0.384,0.799-0.834,1.561-1.341,2.279c0.074,0.044,0.146,0.095,0.21,0.159
	c0.412,0.413,0.412,1.083,0,1.496l-2.611,2.617c-0.412,0.413-1.08,0.413-1.492,0c-0.081-0.081-0.14-0.173-0.189-0.269
	c-1.836,1.243-3.946,2.11-6.221,2.489c0.015,0.071,0.023,0.144,0.023,0.218c0,0.584-0.473,1.058-1.055,1.058h-3.692
	c-0.583,0-1.055-0.473-1.055-1.058c0-0.108,0.021-0.21,0.051-0.309c-2.085-0.417-4.021-1.248-5.722-2.398
	c-0.049,0.096-0.108,0.188-0.189,0.269c-0.412,0.413-1.08,0.413-1.492,0L3.75,27.731c-0.412-0.413-0.412-1.083,0-1.496
	c0.063-0.063,0.135-0.114,0.208-0.158c-1.302-1.843-2.223-3.975-2.644-6.283c-0.083,0.021-0.169,0.036-0.26,0.036
	C0.472,19.831,0,19.357,0,18.773v-3.702c0-0.584,0.472-1.058,1.055-1.058c0.09,0,0.176,0.015,0.26,0.036
	c0.421-2.308,1.342-4.44,2.644-6.283C3.885,7.723,3.813,7.673,3.75,7.609c-0.412-0.413-0.412-1.083,0-1.496l2.611-2.617
	c0.412-0.413,1.08-0.413,1.492,0c0.081,0.08,0.14,0.172,0.189,0.269c1.702-1.151,3.637-1.981,5.722-2.398
	c-0.03-0.098-0.051-0.201-0.051-0.309C13.713,0.473,14.185,0,14.768,0h3.692c0.583,0,1.055,0.473,1.055,1.058
	c0,0.075-0.009,0.148-0.023,0.218c2.275,0.38,4.385,1.247,6.221,2.489c0.049-0.096,0.109-0.188,0.189-0.269
	c0.412-0.413,1.08-0.413,1.492,0l2.611,2.617c0.412,0.413,0.412,1.083,0,1.496c-0.064,0.064-0.136,0.115-0.21,0.159
	c0.563,0.797,1.054,1.648,1.464,2.544H29.792z"/>
</svg>
