<?xml version="1.0" encoding="iso-8859-1"?>
<!-- Generator: Adobe Illustrator 16.0.0, SVG Export Plug-In . SVG Version: 6.00 Build 0)  -->
<!DOCTYPE svg PUBLIC "-//W3C//DTD SVG 1.1//EN" "http://www.w3.org/Graphics/SVG/1.1/DTD/svg11.dtd">
<svg version="1.1" id="Layer_1" xmlns="http://www.w3.org/2000/svg" xmlns:xlink="http://www.w3.org/1999/xlink" x="0px" y="0px"
	 width="67.2px" height="42.237px" viewBox="0 0 67.2 42.237" style="enable-background:new 0 0 67.2 42.237;" xml:space="preserve"
	>
<path style="fill-rule:evenodd;clip-rule:evenodd;fill:#FFFFFF;" d="M49.054,42.237l-7.326-1.143l16.118-19.976L41.728,1.143
	L49.054,0L67.2,21.119L49.054,42.237z M42.926,8.042l1.283,1.66l-0.015,0.016l8.895,11.401l-2.19,2.808l-11.977-0.245
	c0.304,3.853-2.877,10.216-5.574,11.516c0,1.835,0,4.568,0,4.589l-2.14-0.334v-5.467c3.142-2.6,5.367-7.234,5.448-12.867h12.599
	L36.835,4.74l-9.903,1.317v3.193v0.861v0.032c3.251,1.209,5.752,5.121,5.943,10.06l-2.497,0.019
	c-0.211-4.015-2.527-7.096-5.364-7.423v-1.932V9.759V8.911V8.875V7.452V6.214V5.415V4.604V3.751l1.918-0.299V3.451l1.539-0.24v0
	l9.491-1.481l4.942,6.334L42.926,8.042z M24.597,17.715v-1.81c1.843,0.199,3.32,2.292,3.32,4.921c0,2.629-1.477,4.73-3.32,4.938
	v-2.093v-0.301v-0.847c-0.816-0.075-1.439-0.546-1.439-1.689s0.624-1.618,1.439-1.697v-0.839V17.715z M22.322,20.841
	c0,1.215,0.615,2.242,1.45,2.515v2.374c-1.759-0.35-3.086-2.428-3.086-4.884c0-2.456,1.328-4.541,3.086-4.9v2.374
	C22.937,18.596,22.322,19.626,22.322,20.841z M18.612,20.313l-1.936,0.015c0.15-4.229,2.089-7.982,4.887-9.652v-0.042V9.809V6.772
	l-7.674,1.021l-6.95,13.326h7.07c0.055,4.386,1.515,8.576,3.942,11.433v4.833l-1.628-0.254c0-0.009,0-2.359,0-3.937
	c-1.904-1.555-3.962-7.033-3.773-10.052l-6.372-0.13l-0.969-1.892l7.947-15.517l10.208-1.593V4.85v0.796v0.788v1.221v1.403V9.09
	v0.838v1.092v1.903C20.745,13.63,18.79,16.694,18.612,20.313z M10.867,36.278L7.034,35.68L0,21.119L7.034,6.557l3.833-0.598
	l-7.6,15.16L10.867,36.278z M11.245,25.11c0.271,2.875,1.921,7.125,3.5,8.931c0,1.556,0,2.843,0,2.843l-1.698-0.265L7.086,24.94
	L11.245,25.11z M13.466,30.815c-0.231-0.022-0.419-0.325-0.419-0.676c0-0.351,0.188-0.62,0.419-0.6
	c0.233,0.02,0.423,0.323,0.423,0.676c0,0.179-0.049,0.336-0.127,0.444c0.517,1.248,1.63,2.962,2.029,3.254c0,0.608,0,3.133,0,3.133
	l-0.351-0.055c0,0,0-2.017,0-3.123c-0.613-0.466-1.517-2.054-1.959-3.055C13.476,30.814,13.471,30.816,13.466,30.815z
	 M14.572,21.119v-0.774l-6.743,0.052L14.059,8.54l6.917-0.867v2.503c-2.902,2-4.845,6.128-4.845,10.68
	c0,0.088,0.003,0.175,0.004,0.262h0.187h0.344h1.936c0.091,3.734,2.078,6.924,4.761,7.634v1.623v1.122v0.25v0.839v0.875v1.783v0.787
	v2.198v0.001l-4.858-0.758V37.47v-4.31v-0.9v-0.151l-0.15-0.016c-2.373-2.703-3.812-6.734-3.868-10.975H14.572z M22.157,37.208
	c0.22,0.033,0.399-0.231,0.399-0.59s-0.179-0.674-0.399-0.704c-0.219-0.03-0.396,0.235-0.396,0.591S21.938,37.176,22.157,37.208z
	 M22.157,35.359c0.22,0.029,0.399-0.239,0.399-0.597c0-0.359-0.179-0.671-0.399-0.698c-0.219-0.026-0.396,0.242-0.396,0.598
	C21.76,35.019,21.938,35.331,22.157,35.359z M22.157,33.51c0.22,0.025,0.399-0.245,0.399-0.604s-0.179-0.668-0.399-0.69
	c-0.219-0.022-0.396,0.248-0.396,0.604C21.76,33.176,21.938,33.485,22.157,33.51z M22.157,31.568
	c0.22,0.021,0.399-0.252,0.399-0.611s-0.179-0.665-0.399-0.683c-0.219-0.019-0.396,0.255-0.396,0.611
	C21.76,31.241,21.938,31.547,22.157,31.568z M20.976,37.034c0.215,0.032,0.391-0.23,0.391-0.585s-0.175-0.667-0.391-0.696
	c-0.214-0.029-0.388,0.233-0.388,0.585C20.588,36.69,20.762,37.001,20.976,37.034z M20.976,35.204
	c0.215,0.028,0.391-0.236,0.391-0.591c0-0.354-0.175-0.664-0.391-0.689c-0.214-0.026-0.388,0.239-0.388,0.591
	C20.588,34.868,20.762,35.176,20.976,35.204z M20.976,33.375c0.215,0.024,0.391-0.243,0.391-0.598s-0.175-0.66-0.391-0.683
	c-0.214-0.022-0.388,0.246-0.388,0.599C20.588,33.045,20.762,33.351,20.976,33.375z M20.976,31.454
	c0.215,0.021,0.391-0.25,0.391-0.605s-0.175-0.657-0.391-0.676c-0.214-0.018-0.388,0.253-0.388,0.605S20.762,31.434,20.976,31.454z
	 M19.821,36.862c0.21,0.031,0.382-0.228,0.382-0.579s-0.172-0.659-0.382-0.688c-0.21-0.028-0.379,0.231-0.379,0.58
	S19.611,36.831,19.821,36.862z M19.821,35.053c0.21,0.027,0.382-0.234,0.382-0.585c0-0.352-0.172-0.656-0.382-0.682
	c-0.21-0.025-0.379,0.237-0.379,0.586S19.611,35.025,19.821,35.053z M19.821,33.243c0.21,0.024,0.382-0.241,0.382-0.592
	s-0.172-0.653-0.382-0.675c-0.21-0.021-0.379,0.244-0.379,0.592S19.611,33.219,19.821,33.243z M19.821,31.343
	c0.21,0.021,0.382-0.248,0.382-0.599s-0.172-0.65-0.382-0.668c-0.21-0.018-0.379,0.25-0.379,0.599
	C19.442,31.023,19.611,31.323,19.821,31.343z M15.615,10.17l-0.009,0.001c-0.041-0.293-0.217-0.497-0.428-0.473
	c-0.24,0.027-0.433,0.338-0.433,0.695c0,0.13,0.026,0.249,0.07,0.346l-4.526,8.404l-0.627,0.013l4.169-8.064
	c0.045,0.02,0.092,0.031,0.143,0.025c0.235-0.023,0.427-0.331,0.427-0.687s-0.192-0.623-0.427-0.596
	c-0.234,0.026-0.423,0.333-0.423,0.686c0,0.053,0.005,0.104,0.014,0.152L8.89,19.658l1.715-0.026l4.573-8.636
	c0.241-0.024,0.438-0.335,0.438-0.695c0-0.04-0.003-0.078-0.008-0.115L15.615,10.17z M17.859,10.728L17.859,10.728
	c0.254-0.025,0.46-0.345,0.46-0.715c0-0.041-0.003-0.08-0.008-0.119l0.008-0.015L18.31,9.88c-0.043-0.3-0.229-0.509-0.451-0.484
	c-0.253,0.028-0.457,0.348-0.457,0.714c0,0.134,0.028,0.255,0.075,0.354l-4.762,8.627l-0.659,0.014l4.361-8.235
	c0.245-0.029,0.442-0.341,0.442-0.703c0-0.04-0.003-0.079-0.008-0.117l0.008-0.015l-0.009,0.001
	c-0.042-0.296-0.223-0.502-0.439-0.478c-0.246,0.027-0.444,0.343-0.444,0.704c0,0.135,0.028,0.257,0.075,0.356l-4.798,9.002
	l1.802-0.028L17.859,10.728z M30.391,21.119h2.493h0.463h0.255c0.002-0.103,0.006-0.204,0.006-0.307
	c0-5.475-2.622-9.784-6.021-11.305V6.844l8.993-1.127l10.836,14.375l-11.598,0.089v0.937h0.125
	c-0.081,5.387-2.234,9.819-5.267,12.268l-0.166-0.017v0.152v0.996v4.827v0.001l-5.497-0.858v-0.001v-2.233v-0.799v-1.807v-0.89
	v-0.848v-0.255v-1.139v-1.647C27.922,28.518,30.283,25.279,30.391,21.119z M45.332,19.098L37.329,8.186
	c0.013-0.063,0.021-0.127,0.021-0.193c0-0.437-0.289-0.758-0.643-0.718c-0.352,0.04-0.636,0.422-0.636,0.854
	s0.284,0.754,0.636,0.719c0.076-0.008,0.148-0.034,0.216-0.071l6.96,9.678l-1.137,0.023l-7.45-10.085
	c0.011-0.06,0.019-0.121,0.019-0.184c0-0.429-0.279-0.746-0.622-0.708c-0.341,0.039-0.616,0.414-0.616,0.839
	c0,0.425,0.275,0.743,0.616,0.708c0.076-0.007,0.147-0.034,0.214-0.072l7.278,10.17L45.332,19.098z M38.131,19.209l2.948-0.045
	L33.57,8.579c0.012-0.061,0.02-0.123,0.02-0.187c0-0.424-0.271-0.736-0.604-0.699c-0.331,0.037-0.599,0.407-0.599,0.826
	c0,0.419,0.268,0.732,0.599,0.699c0.072-0.007,0.139-0.032,0.203-0.068l6.533,9.389l-1.065,0.022l-6.841-9.569
	c0.061-0.125,0.097-0.27,0.097-0.423c0-0.417-0.264-0.726-0.588-0.689c-0.282,0.032-0.517,0.315-0.57,0.663l-0.012,0.001l0.01,0.015
	c-0.006,0.044-0.01,0.089-0.01,0.135c0,0.413,0.26,0.723,0.582,0.69l0,0L38.131,19.209z M29.143,38.246
	c0.25,0.037,0.453-0.243,0.453-0.625c0-0.382-0.203-0.719-0.453-0.753c-0.248-0.034-0.449,0.246-0.449,0.625
	C28.694,37.872,28.895,38.208,29.143,38.246z M29.143,36.277c0.25,0.033,0.453-0.25,0.453-0.632s-0.203-0.716-0.453-0.746
	c-0.248-0.03-0.449,0.253-0.449,0.632C28.694,35.911,28.895,36.244,29.143,36.277z M29.143,34.308
	c0.25,0.028,0.453-0.258,0.453-0.64c0-0.382-0.203-0.712-0.453-0.738c-0.248-0.025-0.449,0.261-0.449,0.641
	C28.694,33.95,28.895,34.28,29.143,34.308z M29.143,32.241c0.25,0.024,0.453-0.266,0.453-0.648c0-0.382-0.203-0.708-0.453-0.729
	c-0.248-0.021-0.449,0.269-0.449,0.648C28.694,31.891,28.895,32.217,29.143,32.241z M27.807,38.047
	c0.244,0.036,0.442-0.24,0.442-0.618c0-0.378-0.199-0.711-0.442-0.744c-0.243-0.033-0.438,0.244-0.438,0.619
	C27.368,37.678,27.564,38.011,27.807,38.047z M27.807,36.101c0.244,0.032,0.442-0.248,0.442-0.625s-0.199-0.708-0.442-0.736
	c-0.243-0.029-0.438,0.251-0.438,0.626S27.564,36.069,27.807,36.101z M27.807,34.155c0.244,0.028,0.442-0.255,0.442-0.633
	c0-0.378-0.199-0.704-0.442-0.729c-0.243-0.025-0.438,0.259-0.438,0.633C27.368,33.802,27.564,34.127,27.807,34.155z M27.807,32.112
	c0.244,0.023,0.442-0.264,0.442-0.641s-0.199-0.7-0.442-0.721c-0.243-0.021-0.438,0.267-0.438,0.641
	C27.368,31.767,27.564,32.089,27.807,32.112z M26.501,30.64c-0.237-0.02-0.429,0.264-0.429,0.634c0,0.371,0.191,0.689,0.429,0.712
	c0.238,0.023,0.432-0.261,0.432-0.634C26.933,30.979,26.739,30.66,26.501,30.64z M26.501,32.66
	c-0.237-0.024-0.429,0.256-0.429,0.627c0,0.37,0.191,0.692,0.429,0.72c0.238,0.027,0.432-0.253,0.432-0.626
	C26.933,33.006,26.739,32.684,26.501,32.66z M26.501,34.583c-0.237-0.028-0.429,0.249-0.429,0.619c0,0.371,0.191,0.696,0.429,0.727
	c0.238,0.031,0.432-0.246,0.432-0.619C26.933,34.938,26.739,34.612,26.501,34.583z M26.501,36.507
	c-0.237-0.032-0.429,0.242-0.429,0.612c0,0.37,0.191,0.699,0.429,0.734c0.238,0.036,0.432-0.238,0.432-0.611
	C26.933,36.868,26.739,36.539,26.501,36.507z M36.835,32.3c0-0.435,0.288-0.763,0.644-0.733c0.359,0.03,0.651,0.411,0.651,0.851
	s-0.292,0.768-0.651,0.732c-0.014-0.001-0.027-0.006-0.041-0.009c-0.746,1.191-2.259,3.045-2.869,3.127c0,1.314,0,3.71,0,3.71
	l-0.492-0.077c0,0,0-2.978,0-3.695c0.219-0.154,2.095-1.947,2.938-3.343C36.905,32.711,36.835,32.513,36.835,32.3z M48.945,26.654
	l-10.814,13.88l-2.564-0.4c0,0,0-1.552,0-3.429c2.378-1.7,5.053-6.675,5.513-10.373L48.945,26.654z"/>
</svg>
