<?xml version="1.0" encoding="iso-8859-1"?>
<!-- Generator: Adobe Illustrator 16.0.0, SVG Export Plug-In . SVG Version: 6.00 Build 0)  -->
<!DOCTYPE svg PUBLIC "-//W3C//DTD SVG 1.1//EN" "http://www.w3.org/Graphics/SVG/1.1/DTD/svg11.dtd">
<svg version="1.1" id="Layer_1" xmlns="http://www.w3.org/2000/svg" xmlns:xlink="http://www.w3.org/1999/xlink" x="0px" y="0px"
	 width="67.204px" height="58.566px" viewBox="0 0 67.204 58.566" style="enable-background:new 0 0 67.204 58.566;"
	 xml:space="preserve">
<path style="fill-rule:evenodd;clip-rule:evenodd;fill:#FFFFFF;" d="M48.495,47.456c-0.024,0.018-0.049,0.037-0.076,0.045
	c-2.516,0.674-6.454,1.729-9.876,2.645l-0.368,0.098l-0.907,0.243c-3.519,0.942-7.139-1.156-8.086-4.687l-1.37-5.109l-0.627,1.959
	l-3.381,1.028l-2.202-1.86l0.992-2.728l3.452-0.808l1.491,1.385l-1.693-6.318c-0.422-1.576,0.78-2.328,1.6-1.577l0.727,2.712
	l0.001-0.004l2.977-0.561l1.722,1.766l-0.682,2.293l-2.883,0.741l0.377,1.406l2.851-0.799l1.685,1.646l-0.655,2.377l-2.753,0.968
	c0.86,3.024,3.963,4.817,6.98,4.009l1.103-0.295c3.045-0.815,4.846-3.971,4.021-7.047L34.162,8.329
	c-0.593-2.212,0.318-3.259,1.093-3.466c0.539-0.145,1.08-0.289,1.618-0.433c0.055-0.015,0.111-0.017,0.167-0.018
	c22.001-5.893,24.684,3.264,28.017,15.695C68.396,32.564,70.797,41.482,48.495,47.456z M58.616,20.883
	c-0.543-2.025-2.249-2.867-5.833-1.907c-1.161,0.311-7.047,2.405-8.573,2.296c-2.601-0.186-2.221-2.407,1.63-3.439
	c3.334-0.893,11.724-1.967,10.195-7.669c-0.945-3.524-3.524-5.021-9.488-3.424c-7.243,1.94-8.704,2.21-7.949,5.027
	c0.355,1.326-0.027-0.1,1.174,4.378c0.432,1.612,1.852,1.197,1.429-0.383C39.924,11,38.958,10.17,42.509,9.218
	c7.779-2.083,11.068-2.509,12.168,1.594c0.758,2.829-1.354,3.516-9.213,5.621c-3.896,1.043-4.965,2.617-4.546,4.182
	c0.642,2.395,2.435,2.388,4.619,1.803c8.771-2.349,10.787-3.556,11.455-1.066c0.436,1.625-6.497,2.741-13.085,4.505
	c-1.707,0.457-1.346,1.861,0.375,1.4c1.905-0.51,6.906-1.85,11.906-3.189C58.056,23.568,58.949,22.127,58.616,20.883z
	 M33.809,34.288l0.419-1.387l1.609-0.361l0.954,0.98l-0.351,1.312l-1.577,0.459L33.809,34.288z M39.086,40.63l-0.351,1.312
	l-1.577,0.459l-1.054-1.003l0.419-1.387l1.608-0.361L39.086,40.63z M33.043,38.47l0.659-2.276l2.529-0.592l1.5,1.608l-0.551,2.153
	l-2.479,0.753L33.043,38.47z M32.812,30.041l-0.907,0.243c-2.504,0.67-5.08-0.822-5.753-3.333L20.58,6.165
	c-0.673-2.511,0.811-5.091,3.315-5.761l0.907-0.243c2.504-0.67,5.08,0.822,5.752,3.333l5.573,20.787
	C36.799,26.791,35.315,29.371,32.812,30.041z M14.755,41.642l-2.624-2.082l1.265-2.958l4.175-0.787l2.299,2.023l-1.029,2.753
	L14.755,41.642z M5.229,48.986L2.123,46.86L3.7,43.462l4.991-1.168l2.683,2.08l-1.265,3.128L5.229,48.986z M3.187,39.086L0,36.724
	l1.64-3.23l5.142-0.738l2.75,2.28l-1.315,2.988L3.187,39.086z M11.039,51.522l2.618,1.883l-1.216,3.265l-4.737,1.896l-3.026-1.895
	l1.516-3.562L11.039,51.522z M19.722,44.239l2.246,1.857l-0.989,2.869l-3.971,1.396l-2.56-1.89l1.216-3.094L19.722,44.239z"/>
</svg>
