<?xml version="1.0" encoding="iso-8859-1"?>
<!-- Generator: Adobe Illustrator 16.0.0, SVG Export Plug-In . SVG Version: 6.00 Build 0)  -->
<!DOCTYPE svg PUBLIC "-//W3C//DTD SVG 1.1//EN" "http://www.w3.org/Graphics/SVG/1.1/DTD/svg11.dtd">
<svg version="1.1" id="Layer_1" xmlns="http://www.w3.org/2000/svg" xmlns:xlink="http://www.w3.org/1999/xlink" x="0px" y="0px"
	 width="67.198px" height="35.28px" viewBox="0 0 67.198 35.28" style="enable-background:new 0 0 67.198 35.28;"
	 xml:space="preserve">
<path style="fill-rule:evenodd;clip-rule:evenodd;fill:#FFFFFF;" d="M66.975,35.28h-1.682c-0.227,0-0.521-0.15-0.656-0.333
	l-0.967-1.313c-0.125-0.171-0.051-0.308,0.165-0.308h1.605c0.216,0,0.5,0.137,0.636,0.308l1.045,1.313
	C67.266,35.13,67.202,35.28,66.975,35.28z M65.006,32.773h-4.645c-0.213,0-0.474-0.133-0.581-0.295l-0.77-1.167
	c-0.1-0.152-0.016-0.274,0.188-0.274h4.442c0.204,0,0.467,0.122,0.587,0.274l0.928,1.167C65.287,32.641,65.219,32.773,65.006,32.773
	z M63.256,30.545h-1.495c-0.201,0-0.452-0.118-0.559-0.263l-0.768-1.042c-0.1-0.136-0.024-0.246,0.169-0.246h1.433
	c0.193,0,0.437,0.109,0.545,0.246l0.829,1.042C63.526,30.427,63.458,30.545,63.256,30.545z M61.691,28.553h-1.416
	c-0.19,0-0.423-0.106-0.52-0.236l-0.69-0.938c-0.09-0.123-0.015-0.221,0.169-0.221h1.36c0.184,0,0.411,0.099,0.508,0.221
	l0.746,0.938C61.952,28.447,61.881,28.553,61.691,28.553z M59.778,24.874H58.51V23.63v-0.533V1.269V1.244V0h1.268
	c0.7,0,1.268,0.557,1.268,1.244V23.63C61.046,24.317,60.478,24.874,59.778,24.874z M58.953,28.553h-1.416
	c-0.191,0-0.416-0.106-0.501-0.236l-0.618-0.938c-0.081-0.123,0.002-0.221,0.186-0.221h1.361c0.183,0,0.403,0.099,0.491,0.221
	l0.674,0.938C59.221,28.447,59.143,28.553,58.953,28.553z M10.583,0h46.152v24.874H10.583V0z M10.781,27.379l-0.618,0.938
	c-0.086,0.13-0.311,0.236-0.501,0.236H8.246c-0.19,0-0.269-0.106-0.175-0.236l0.674-0.938c0.088-0.123,0.308-0.221,0.491-0.221
	h1.361C10.779,27.158,10.862,27.257,10.781,27.379z M6.271,23.63V1.244C6.271,0.557,6.839,0,7.54,0h1.268v1.244v0.025v21.828v0.533
	v1.244H7.54C6.839,24.874,6.271,24.317,6.271,23.63z M6.604,27.158h1.36c0.183,0,0.259,0.099,0.169,0.221l-0.69,0.938
	c-0.096,0.13-0.329,0.236-0.519,0.236H5.507c-0.19,0-0.261-0.106-0.157-0.236l0.746-0.938C6.193,27.257,6.42,27.158,6.604,27.158z
	 M6.763,29.24l-0.768,1.042c-0.107,0.145-0.357,0.263-0.559,0.263H3.942c-0.202,0-0.271-0.118-0.155-0.263l0.829-1.042
	c0.108-0.136,0.352-0.246,0.545-0.246h1.433C6.788,28.994,6.863,29.104,6.763,29.24z M8.187,31.312l-0.77,1.167
	c-0.107,0.163-0.368,0.295-0.581,0.295H2.192c-0.213,0-0.281-0.133-0.151-0.295l0.928-1.167c0.121-0.152,0.383-0.274,0.587-0.274
	h4.443C8.203,31.038,8.288,31.16,8.187,31.312z M3.528,33.633l-0.967,1.313C2.426,35.13,2.132,35.28,1.905,35.28H0.223
	c-0.227,0-0.291-0.15-0.146-0.333l1.045-1.313c0.136-0.171,0.42-0.308,0.636-0.308h1.604C3.58,33.325,3.654,33.462,3.528,33.633z
	 M4.25,33.633c0.123-0.171,0.396-0.308,0.613-0.308h1.604c0.216,0,0.301,0.137,0.188,0.308l-0.867,1.313
	c-0.121,0.184-0.403,0.333-0.63,0.333H3.477c-0.227,0-0.303-0.15-0.171-0.333L4.25,33.633z M7.377,33.633
	c0.109-0.171,0.373-0.308,0.589-0.308h1.605c0.216,0,0.311,0.137,0.211,0.308l-0.766,1.313C8.91,35.13,8.639,35.28,8.412,35.28H6.73
	c-0.227,0-0.314-0.15-0.196-0.333L7.377,33.633z M10.504,33.633c0.097-0.171,0.35-0.308,0.566-0.308h1.604
	c0.216,0,0.322,0.137,0.235,0.308l-0.666,1.313c-0.093,0.184-0.353,0.333-0.579,0.333H9.983c-0.227,0-0.325-0.15-0.222-0.333
	L10.504,33.633z M13.632,33.633c0.083-0.171,0.326-0.308,0.542-0.308h1.605c0.216,0,0.333,0.137,0.259,0.308l-0.565,1.313
	c-0.079,0.184-0.327,0.333-0.553,0.333h-1.683c-0.227,0-0.337-0.15-0.247-0.333L13.632,33.633z M16.759,33.633
	c0.07-0.171,0.302-0.308,0.519-0.308h1.604c0.216,0,0.343,0.137,0.283,0.308l-0.464,1.313c-0.065,0.184-0.301,0.333-0.528,0.333
	h-1.682c-0.227,0-0.349-0.15-0.273-0.333L16.759,33.633z M17.5,32.773c-0.213,0-0.331-0.133-0.264-0.295l0.481-1.167
	c0.063-0.152,0.278-0.274,0.482-0.274h1.514c0.204,0,0.326,0.122,0.273,0.274l-0.413,1.167c-0.057,0.163-0.277,0.295-0.49,0.295
	H17.5z M19.887,33.633c0.057-0.171,0.279-0.308,0.495-0.308h1.604c0.216,0,0.354,0.137,0.306,0.308l-0.364,1.313
	c-0.051,0.184-0.276,0.333-0.502,0.333h-1.682c-0.227,0-0.36-0.15-0.298-0.333L19.887,33.633z M20.562,32.773
	c-0.213,0-0.341-0.133-0.287-0.295l0.392-1.167c0.051-0.152,0.258-0.274,0.461-0.274h1.514c0.204,0,0.335,0.122,0.293,0.274
	l-0.323,1.167c-0.045,0.163-0.255,0.295-0.468,0.295H20.562z M23.014,33.633c0.044-0.171,0.255-0.308,0.471-0.308h1.605
	c0.216,0,0.364,0.137,0.33,0.308l-0.263,1.313c-0.037,0.184-0.25,0.333-0.477,0.333h-1.682c-0.227,0-0.372-0.15-0.324-0.333
	L23.014,33.633z M23.623,32.773c-0.213,0-0.352-0.133-0.31-0.295l0.302-1.167c0.04-0.152,0.236-0.274,0.44-0.274h1.514
	c0.204,0,0.345,0.122,0.314,0.274l-0.233,1.167c-0.033,0.163-0.232,0.295-0.445,0.295H23.623z M27.656,27.158h1.36
	c0.184,0,0.32,0.099,0.305,0.221l-0.116,0.938c-0.016,0.13-0.184,0.236-0.375,0.236h-1.416c-0.191,0-0.326-0.106-0.302-0.236
	l0.171-0.938C27.306,27.257,27.473,27.158,27.656,27.158z M27.338,28.994h1.433c0.193,0,0.336,0.109,0.319,0.246l-0.129,1.042
	c-0.018,0.145-0.196,0.263-0.397,0.263H27.07c-0.201,0-0.343-0.118-0.316-0.263l0.19-1.042
	C26.969,29.104,27.145,28.994,27.338,28.994z M26.985,31.038h1.514c0.204,0,0.354,0.122,0.335,0.274l-0.145,1.167
	c-0.02,0.163-0.209,0.295-0.422,0.295h-1.583c-0.213,0-0.362-0.133-0.332-0.295l0.213-1.167
	C26.593,31.16,26.781,31.038,26.985,31.038z M25.024,27.158h1.36c0.183,0,0.312,0.099,0.288,0.221l-0.188,0.938
	c-0.026,0.13-0.202,0.236-0.393,0.236h-1.416c-0.191,0-0.318-0.106-0.284-0.236l0.243-0.938
	C24.667,27.257,24.841,27.158,25.024,27.158z M24.566,28.994H26c0.193,0,0.327,0.109,0.3,0.246l-0.209,1.042
	c-0.029,0.145-0.216,0.263-0.417,0.263h-1.495c-0.201,0-0.333-0.118-0.296-0.263l0.27-1.042
	C24.188,29.104,24.373,28.994,24.566,28.994z M21.986,27.379c0.042-0.123,0.223-0.221,0.406-0.221h1.361
	c0.183,0,0.304,0.099,0.271,0.221l-0.26,0.938c-0.036,0.13-0.22,0.236-0.411,0.236h-1.416c-0.19,0-0.31-0.106-0.266-0.236
	L21.986,27.379z M21.794,28.994h1.433c0.193,0,0.319,0.109,0.282,0.246l-0.289,1.042c-0.04,0.145-0.236,0.263-0.438,0.263h-1.495
	c-0.202,0-0.325-0.118-0.276-0.263l0.35-1.042C21.408,29.104,21.601,28.994,21.794,28.994z M19.338,27.379
	c0.051-0.123,0.24-0.221,0.423-0.221h1.36c0.183,0,0.297,0.099,0.254,0.221l-0.332,0.938c-0.046,0.13-0.238,0.236-0.429,0.236
	h-1.416c-0.19,0-0.301-0.106-0.248-0.236L19.338,27.379z M19.022,28.994h1.433c0.193,0,0.311,0.109,0.263,0.246l-0.369,1.042
	c-0.051,0.145-0.256,0.263-0.458,0.263h-1.495c-0.201,0-0.316-0.118-0.256-0.263l0.43-1.042
	C18.627,29.104,18.829,28.994,19.022,28.994z M16.689,27.379c0.06-0.123,0.257-0.221,0.44-0.221h1.361
	c0.183,0,0.289,0.099,0.236,0.221l-0.403,0.938c-0.056,0.13-0.256,0.236-0.447,0.236h-1.416c-0.191,0-0.293-0.106-0.229-0.236
	L16.689,27.379z M17.683,28.994c0.193,0,0.302,0.109,0.244,0.246l-0.448,1.042c-0.063,0.145-0.276,0.263-0.478,0.263h-1.495
	c-0.201,0-0.307-0.118-0.235-0.263l0.509-1.042c0.067-0.136,0.277-0.246,0.47-0.246H17.683z M14.041,27.379
	c0.069-0.123,0.274-0.221,0.457-0.221h1.36c0.184,0,0.282,0.099,0.22,0.221l-0.475,0.938c-0.066,0.13-0.274,0.236-0.465,0.236
	h-1.416c-0.191,0-0.285-0.106-0.212-0.236L14.041,27.379z M15.271,31.038h1.514c0.204,0,0.316,0.122,0.251,0.274l-0.502,1.167
	c-0.07,0.163-0.3,0.295-0.513,0.295h-1.583c-0.213,0-0.321-0.133-0.242-0.295l0.57-1.167C14.841,31.16,15.066,31.038,15.271,31.038z
	 M14.911,28.994c0.193,0,0.294,0.109,0.225,0.246l-0.528,1.042c-0.074,0.145-0.297,0.263-0.498,0.263h-1.495
	c-0.202,0-0.298-0.118-0.216-0.263l0.589-1.042c0.077-0.136,0.295-0.246,0.489-0.246H14.911z M11.393,27.379
	c0.079-0.123,0.291-0.221,0.474-0.221h1.361c0.183,0,0.274,0.099,0.203,0.221l-0.546,0.938c-0.076,0.13-0.292,0.236-0.483,0.236
	h-1.416c-0.191,0-0.277-0.106-0.194-0.236L11.393,27.379z M10.705,28.994h1.434c0.193,0,0.286,0.109,0.207,0.246l-0.608,1.042
	c-0.084,0.145-0.316,0.263-0.518,0.263H9.724c-0.201,0-0.289-0.118-0.195-0.263l0.669-1.042
	C10.286,29.104,10.512,28.994,10.705,28.994z M6.658,30.282l0.75-1.042c0.098-0.136,0.333-0.246,0.526-0.246h1.434
	c0.193,0,0.277,0.109,0.188,0.246l-0.688,1.042c-0.096,0.145-0.337,0.263-0.538,0.263H6.833C6.632,30.545,6.554,30.427,6.658,30.282
	z M11.817,31.312c0.086-0.152,0.32-0.274,0.524-0.274h1.514c0.204,0,0.307,0.122,0.23,0.274l-0.591,1.167
	c-0.083,0.163-0.323,0.295-0.536,0.295h-1.583c-0.213,0-0.311-0.133-0.219-0.295L11.817,31.312z M9.898,32.773H8.315
	c-0.213,0-0.301-0.133-0.196-0.295l0.749-1.167c0.098-0.152,0.341-0.274,0.545-0.274h1.514c0.204,0,0.298,0.122,0.209,0.274
	l-0.68,1.167C10.362,32.641,10.111,32.773,9.898,32.773z M30.287,27.158h1.361c0.183,0,0.327,0.099,0.321,0.221l-0.044,0.938
	c-0.006,0.13-0.166,0.236-0.357,0.236h-1.416c-0.191,0-0.334-0.106-0.32-0.236l0.1-0.938C29.945,27.257,30.104,27.158,30.287,27.158
	z M31.428,31.038c0.204,0,0.363,0.122,0.356,0.274l-0.055,1.167c-0.008,0.163-0.187,0.295-0.4,0.295h-1.583
	c-0.213,0-0.372-0.133-0.354-0.295l0.124-1.167c0.016-0.152,0.194-0.274,0.398-0.274H31.428z M30.11,28.994h1.433
	c0.193,0,0.345,0.109,0.338,0.246l-0.049,1.042c-0.007,0.145-0.176,0.263-0.377,0.263h-1.495c-0.202,0-0.352-0.118-0.337-0.263
	l0.111-1.042C29.749,29.104,29.917,28.994,30.11,28.994z M34.768,32.478c0.004,0.163-0.164,0.295-0.377,0.295h-1.583
	c-0.213,0-0.382-0.133-0.377-0.295l0.035-1.167c0.004-0.152,0.173-0.274,0.377-0.274h1.515c0.204,0,0.373,0.122,0.377,0.274
	L34.768,32.478z M34.307,28.553h-1.416c-0.19,0-0.342-0.106-0.338-0.236l0.028-0.938c0.003-0.123,0.155-0.221,0.338-0.221h1.36
	c0.184,0,0.335,0.099,0.338,0.221l0.028,0.938C34.649,28.447,34.498,28.553,34.307,28.553z M34.703,30.282
	c0.004,0.145-0.155,0.263-0.356,0.263h-1.495c-0.201,0-0.361-0.118-0.356-0.263l0.031-1.042c0.004-0.136,0.164-0.246,0.356-0.246
	h1.434c0.193,0,0.353,0.109,0.356,0.246L34.703,30.282z M37.807,32.478c0.018,0.163-0.141,0.295-0.354,0.295h-1.583
	c-0.213,0-0.392-0.133-0.4-0.295l-0.055-1.167c-0.007-0.152,0.153-0.274,0.356-0.274h1.514c0.204,0,0.382,0.122,0.398,0.274
	L37.807,32.478z M37.045,28.553h-1.416c-0.19,0-0.35-0.106-0.356-0.236l-0.044-0.938c-0.006-0.123,0.138-0.221,0.321-0.221h1.361
	c0.183,0,0.342,0.099,0.355,0.221l0.1,0.938C37.379,28.447,37.236,28.553,37.045,28.553z M37.574,30.282
	c0.015,0.145-0.136,0.263-0.337,0.263h-1.495c-0.201,0-0.37-0.118-0.377-0.263l-0.049-1.042c-0.006-0.136,0.145-0.246,0.338-0.246
	h1.433c0.193,0,0.361,0.109,0.375,0.246L37.574,30.282z M26.142,33.633c0.031-0.171,0.231-0.308,0.448-0.308h14.02
	c0.216,0,0.417,0.137,0.448,0.308l0.24,1.313c0.034,0.184-0.123,0.333-0.349,0.333H26.251c-0.227,0-0.383-0.15-0.35-0.333
	L26.142,33.633z M41.628,31.038h1.514c0.204,0,0.401,0.122,0.44,0.274l0.302,1.167c0.042,0.163-0.096,0.295-0.31,0.295h-1.583
	c-0.213,0-0.413-0.133-0.445-0.295l-0.233-1.167C41.283,31.16,41.424,31.038,41.628,31.038z M42.108,33.325h1.605
	c0.216,0,0.427,0.137,0.471,0.308l0.34,1.313c0.048,0.184-0.097,0.333-0.324,0.333h-1.682c-0.227,0-0.44-0.15-0.477-0.333
	l-0.263-1.313C41.744,33.462,41.892,33.325,42.108,33.325z M44.557,31.038h1.514c0.204,0,0.41,0.122,0.461,0.274l0.392,1.167
	c0.054,0.163-0.074,0.295-0.287,0.295h-1.583c-0.213,0-0.423-0.133-0.468-0.295l-0.323-1.167
	C44.221,31.16,44.353,31.038,44.557,31.038z M45.212,33.325h1.604c0.216,0,0.438,0.137,0.495,0.308l0.441,1.313
	c0.062,0.184-0.072,0.333-0.298,0.333h-1.682c-0.227,0-0.452-0.15-0.502-0.333l-0.364-1.313
	C44.858,33.462,44.996,33.325,45.212,33.325z M47.213,31.312c-0.054-0.152,0.068-0.274,0.272-0.274h1.514
	c0.204,0,0.42,0.122,0.482,0.274l0.481,1.167c0.067,0.163-0.051,0.295-0.264,0.295h-1.583c-0.213,0-0.433-0.133-0.49-0.295
	L47.213,31.312z M48.316,33.325h1.604c0.216,0,0.448,0.137,0.519,0.308l0.542,1.313c0.076,0.184-0.046,0.333-0.273,0.333h-1.682
	c-0.227,0-0.463-0.15-0.528-0.333l-0.464-1.313C47.973,33.462,48.1,33.325,48.316,33.325z M51.419,33.325h1.605
	c0.216,0,0.458,0.137,0.542,0.308l0.642,1.313c0.09,0.184-0.021,0.333-0.247,0.333h-1.683c-0.226,0-0.475-0.15-0.553-0.333
	l-0.565-1.313C51.087,33.462,51.203,33.325,51.419,33.325z M54.523,33.325h1.604c0.216,0,0.469,0.137,0.565,0.308l0.743,1.313
	c0.104,0.184,0.005,0.333-0.222,0.333h-1.682c-0.227,0-0.486-0.15-0.579-0.333l-0.666-1.313
	C54.202,33.462,54.307,33.325,54.523,33.325z M58.883,32.773H57.3c-0.213,0-0.463-0.133-0.558-0.295l-0.68-1.167
	c-0.089-0.152,0.005-0.274,0.209-0.274h1.514c0.204,0,0.448,0.122,0.545,0.274l0.749,1.167
	C59.184,32.641,59.096,32.773,58.883,32.773z M57.832,28.994h1.433c0.193,0,0.428,0.109,0.526,0.246l0.75,1.042
	c0.104,0.145,0.026,0.263-0.175,0.263H58.87c-0.201,0-0.442-0.118-0.538-0.263l-0.688-1.042
	C57.554,29.104,57.639,28.994,57.832,28.994z M57,29.24l0.669,1.042c0.093,0.145,0.006,0.263-0.195,0.263h-1.495
	c-0.202,0-0.434-0.118-0.518-0.263l-0.608-1.042c-0.079-0.136,0.014-0.246,0.207-0.246h1.433C56.686,28.994,56.913,29.104,57,29.24z
	 M53.971,27.158h1.361c0.183,0,0.395,0.099,0.474,0.221l0.602,0.938c0.083,0.13-0.003,0.236-0.194,0.236h-1.416
	c-0.191,0-0.407-0.106-0.483-0.236l-0.547-0.938C53.697,27.257,53.788,27.158,53.971,27.158z M53.342,31.038h1.514
	c0.204,0,0.438,0.122,0.524,0.274l0.66,1.167c0.092,0.163-0.006,0.295-0.219,0.295h-1.583c-0.213,0-0.453-0.133-0.536-0.295
	l-0.591-1.167C53.035,31.16,53.138,31.038,53.342,31.038z M54.209,29.24l0.59,1.042c0.082,0.145-0.014,0.263-0.216,0.263h-1.495
	c-0.201,0-0.424-0.118-0.498-0.263l-0.528-1.042c-0.069-0.136,0.032-0.246,0.225-0.246h1.433
	C53.914,28.994,54.132,29.104,54.209,29.24z M51.34,27.158h1.36c0.183,0,0.388,0.099,0.457,0.221l0.53,0.938
	c0.073,0.13-0.021,0.236-0.212,0.236H52.06c-0.191,0-0.399-0.106-0.465-0.236l-0.475-0.938
	C51.058,27.257,51.156,27.158,51.34,27.158z M50.414,31.038h1.514c0.204,0,0.429,0.122,0.503,0.274l0.57,1.167
	c0.08,0.163-0.028,0.295-0.242,0.295h-1.583c-0.213,0-0.443-0.133-0.513-0.295l-0.501-1.167
	C50.097,31.16,50.209,31.038,50.414,31.038z M51.418,29.24l0.51,1.042c0.071,0.145-0.034,0.263-0.235,0.263h-1.495
	c-0.201,0-0.415-0.118-0.478-0.263l-0.448-1.042c-0.059-0.136,0.051-0.246,0.244-0.246h1.434
	C51.142,28.994,51.352,29.104,51.418,29.24z M48.708,27.158h1.361c0.183,0,0.38,0.099,0.44,0.221l0.458,0.938
	c0.064,0.13-0.039,0.236-0.229,0.236h-1.416c-0.19,0-0.391-0.106-0.447-0.236l-0.403-0.938
	C48.419,27.257,48.525,27.158,48.708,27.158z M48.627,29.24l0.43,1.042c0.06,0.145-0.055,0.263-0.256,0.263h-1.495
	c-0.202,0-0.407-0.118-0.458-0.263L46.48,29.24c-0.048-0.136,0.07-0.246,0.263-0.246h1.433C48.37,28.994,48.571,29.104,48.627,29.24
	z M46.077,27.158h1.36c0.184,0,0.373,0.099,0.423,0.221l0.386,0.938c0.054,0.13-0.057,0.236-0.248,0.236h-1.416
	c-0.19,0-0.383-0.106-0.429-0.236l-0.332-0.938C45.78,27.257,45.893,27.158,46.077,27.158z M45.836,29.24l0.35,1.042
	c0.048,0.145-0.075,0.263-0.276,0.263h-1.495c-0.201,0-0.397-0.118-0.438-0.263l-0.289-1.042c-0.038-0.136,0.088-0.246,0.282-0.246
	h1.433C45.597,28.994,45.791,29.104,45.836,29.24z M43.445,27.158h1.361c0.183,0,0.365,0.099,0.406,0.221l0.314,0.938
	c0.044,0.13-0.075,0.236-0.266,0.236h-1.416c-0.191,0-0.375-0.106-0.411-0.236l-0.26-0.938
	C43.141,27.257,43.262,27.158,43.445,27.158z M43.045,29.24l0.27,1.042c0.038,0.145-0.095,0.263-0.296,0.263h-1.495
	c-0.201,0-0.388-0.118-0.417-0.263l-0.209-1.042c-0.027-0.136,0.107-0.246,0.3-0.246h1.434C42.825,28.994,43.01,29.104,43.045,29.24
	z M40.813,27.158h1.36c0.184,0,0.358,0.099,0.389,0.221l0.243,0.938c0.034,0.13-0.093,0.236-0.284,0.236h-1.416
	c-0.191,0-0.367-0.106-0.393-0.236l-0.188-0.938C40.501,27.257,40.63,27.158,40.813,27.158z M40.633,31.312l0.213,1.167
	c0.03,0.163-0.119,0.295-0.332,0.295h-1.583c-0.213,0-0.402-0.133-0.422-0.295l-0.145-1.167c-0.019-0.152,0.131-0.274,0.335-0.274
	h1.514C40.417,31.038,40.605,31.16,40.633,31.312z M38.368,28.553c-0.191,0-0.359-0.106-0.375-0.236l-0.116-0.938
	c-0.015-0.123,0.121-0.221,0.305-0.221h1.36c0.183,0,0.35,0.099,0.372,0.221l0.171,0.938c0.024,0.13-0.111,0.236-0.302,0.236H38.368
	z M40.254,29.24l0.19,1.042c0.026,0.145-0.115,0.263-0.316,0.263h-1.495c-0.202,0-0.379-0.118-0.397-0.263l-0.129-1.042
	c-0.017-0.136,0.126-0.246,0.319-0.246h1.433C40.053,28.994,40.229,29.104,40.254,29.24z M57.627,33.325h1.605
	c0.216,0,0.479,0.137,0.589,0.308l0.844,1.313c0.118,0.184,0.03,0.333-0.196,0.333h-1.682c-0.227,0-0.498-0.15-0.604-0.333
	l-0.766-1.313C57.316,33.462,57.411,33.325,57.627,33.325z M60.731,33.325h1.604c0.216,0,0.49,0.137,0.613,0.308l0.944,1.313
	c0.132,0.184,0.056,0.333-0.171,0.333H62.04c-0.227,0-0.509-0.15-0.63-0.333l-0.867-1.313C60.43,33.462,60.515,33.325,60.731,33.325
	z"/>
</svg>
