<?xml version="1.0" encoding="iso-8859-1"?>
<!-- Generator: Adobe Illustrator 16.0.0, SVG Export Plug-In . SVG Version: 6.00 Build 0)  -->
<!DOCTYPE svg PUBLIC "-//W3C//DTD SVG 1.1//EN" "http://www.w3.org/Graphics/SVG/1.1/DTD/svg11.dtd">
<svg version="1.1" id="Layer_1" xmlns="http://www.w3.org/2000/svg" xmlns:xlink="http://www.w3.org/1999/xlink" x="0px" y="0px"
	 width="67.197px" height="66.961px" viewBox="0 0 67.197 66.961" style="enable-background:new 0 0 67.197 66.961;"
	 xml:space="preserve">
<path style="fill-rule:evenodd;clip-rule:evenodd;fill:#FFFFFF;" d="M66.092,18.825l-6.232-3.058l-5.655,4.161l-1.493-2.02
	l6.749-4.965l0.066-0.135l7.67,3.763L66.092,18.825z M47.463,52.011c-10.337,7.605-24.899,5.407-32.526-4.91
	s-5.429-24.845,4.908-32.45c10.337-7.604,24.899-5.406,32.526,4.91C59.998,29.878,57.8,44.406,47.463,52.011z M49.176,21.895
	c-6.347-8.595-18.47-10.425-27.076-4.087c-8.606,6.338-10.438,18.444-4.09,27.04c6.347,8.595,18.47,10.425,27.076,4.087
	C53.692,42.596,55.523,30.49,49.176,21.895z M43.743,47.116c-7.6,5.596-18.305,3.98-23.911-3.609
	c-0.463-0.627-0.873-1.277-1.238-1.942l0.338-0.249l-0.203-0.274l-0.301,0.222c-0.437-0.833-0.794-1.692-1.082-2.566l0.832,0.125
	l0.051-0.337l-0.999-0.15c-1.615-5.31-0.537-11.144,2.935-15.535l0.165,0.025l0.029-0.187l-0.056-0.009
	c0.113-0.138,0.228-0.275,0.345-0.411c-0.29,0.572-0.261,1.279,0.146,1.83c0.576,0.779,1.675,0.945,2.455,0.371
	c0.78-0.574,0.946-1.67,0.37-2.449c-0.55-0.745-1.578-0.921-2.349-0.433c0.659-0.682,1.383-1.32,2.173-1.902
	c7.6-5.596,18.305-3.979,23.911,3.609C52.959,30.832,51.343,41.52,43.743,47.116z M22.463,20.521l-0.096,0.637l0.188,0.028
	l0.096-0.637L22.463,20.521z M48.402,34.681l0.028-0.188l-0.638-0.096l-0.028,0.188L48.402,34.681z M47.353,36.291l0.153-0.112
	l-0.383-0.519l-0.153,0.113L47.353,36.291z M45.638,36.717l0.096-0.637l-0.188-0.028l-0.097,0.637L45.638,36.717z M43.967,35.793
	l0.519-0.382l-0.113-0.152l-0.519,0.382L43.967,35.793z M39.497,48.637l0.42-0.309l-1.053-1.425l-0.42,0.309L39.497,48.637z
	 M34.78,49.808l0.265-1.752l-0.516-0.078l-0.265,1.752L34.78,49.808z M38.489,46.791c2.146-1.578,2.602-4.594,1.019-6.735
	c-1.583-2.141-4.605-2.597-6.75-1.019c-2.146,1.579-2.602,4.594-1.019,6.735C33.321,47.913,36.343,48.369,38.489,46.791z
	 M39.578,39.713l0.31,0.419l1.428-1.051l-0.31-0.419L39.578,39.713z M40.863,26.77l-0.632-0.855l-0.252,0.186l0.632,0.855
	L40.863,26.77z M37.94,26.607l-0.31-0.047l-0.159,1.051l0.31,0.047L37.94,26.607z M35.025,26.135l0.857-0.63l-0.186-0.251
	l-0.857,0.63L35.025,26.135z M34.358,27.539l0.214,0.29l0.987-0.726l-0.214-0.29L34.358,27.539z M35.138,30.106l-0.054,0.356
	l1.212,0.183l0.054-0.355L35.138,30.106z M36.33,36.074l-0.265,1.752l0.516,0.078l0.265-1.752L36.33,36.074z M34.593,33.492
	l-0.728-0.985l-0.29,0.213l0.728,0.985L34.593,33.492z M32.76,38.646l-1.053-1.425l-0.42,0.309l1.054,1.425L32.76,38.646z
	 M31.227,33.303L30.87,33.25l-0.183,1.21l0.356,0.054L31.227,33.303z M30.187,47.269l1.428-1.05l-0.31-0.419l-1.428,1.05
	L30.187,47.269z M30.462,42.409l0.078-0.515l-1.755-0.265l-0.078,0.515L30.462,42.409z M27.87,32.76l0.987-0.726l-0.214-0.29
	l-0.986,0.726L27.87,32.76z M24.091,42.898l0.275-0.202l-0.689-0.933l-0.275,0.202L24.091,42.898z M21.004,43.665l0.173-1.146
	l-0.338-0.051l-0.173,1.147L21.004,43.665z M18.992,35.426l-0.275,0.202l0.689,0.933l0.275-0.203L18.992,35.426z M20.636,24.057
	l-0.519,0.382l0.113,0.152l0.519-0.382L20.636,24.057z M21.809,24.849l-0.096,0.637l0.188,0.028l0.096-0.637L21.809,24.849z
	 M22.018,34.675l-0.173,1.147l0.337,0.051l0.174-1.147L22.018,34.675z M23.385,24.458l-0.153,0.112l0.383,0.518l0.152-0.112
	L23.385,24.458z M19.679,36.615c-1.404,1.033-1.703,3.007-0.667,4.408s3.014,1.7,4.418,0.667s1.703-3.007,0.667-4.408
	S21.083,35.582,19.679,36.615z M24.164,21.462l-0.519,0.382l0.113,0.152l0.519-0.382L24.164,21.462z M24.055,23.195l-0.028,0.188
	l0.638,0.096l0.028-0.187L24.055,23.195z M25.079,36.37l-0.935,0.688l0.203,0.274l0.935-0.688L25.079,36.37z M24.883,39.489
	l-0.051,0.337L25.98,40l0.051-0.337L24.883,39.489z M26.902,28.863l-0.054,0.355l1.212,0.183l0.054-0.355L26.902,28.863z
	 M28.92,25.818l-0.29,0.213l0.728,0.984l0.29-0.213L28.92,25.818z M32.114,25.025l-0.183,1.21l0.356,0.054l0.183-1.21L32.114,25.025
	z M29.646,27.072c-1.482,1.09-1.797,3.173-0.704,4.653c1.093,1.479,3.182,1.794,4.664,0.704s1.797-3.174,0.704-4.653
	C33.216,26.297,31.128,25.981,29.646,27.072z M34.185,22.751l-0.047,0.309l1.053,0.159l0.047-0.309L34.185,22.751z M35.937,20.106
	l-0.252,0.186l0.632,0.855l0.252-0.186L35.937,20.106z M38.711,19.417l-0.159,1.051l0.31,0.047l0.159-1.051L38.711,19.417z
	 M36.567,21.195c-1.287,0.947-1.561,2.756-0.611,4.041s2.763,1.559,4.05,0.611s1.561-2.756,0.611-4.041S37.854,20.249,36.567,21.195
	z M41.517,20.971l-0.857,0.63l0.186,0.251l0.857-0.63L41.517,20.971z M41.337,23.831l-0.046,0.309l1.053,0.159l0.046-0.309
	L41.337,23.831z M40.707,43.429l-0.078,0.515l1.754,0.265l0.078-0.515L40.707,43.429z M43.458,33.743L43.43,33.93l0.638,0.097
	l0.028-0.188L43.458,33.743z M44.52,32.14l-0.152,0.112l0.383,0.519l0.153-0.112L44.52,32.14z M46.201,31.723l-0.097,0.637
	l0.188,0.028l0.096-0.637L46.201,31.723z M44.902,32.8c-0.78,0.574-0.946,1.67-0.371,2.449s1.675,0.944,2.455,0.371
	c0.78-0.574,0.946-1.67,0.371-2.449C46.781,32.392,45.682,32.226,44.902,32.8z M47.901,32.664l-0.519,0.382l0.112,0.152l0.52-0.382
	L47.901,32.664z M38.018,25.154c-0.893-0.135-1.507-0.966-1.372-1.858c0.135-0.891,0.968-1.504,1.86-1.37s1.507,0.966,1.372,1.858
	C39.743,24.675,38.91,25.289,38.018,25.154z M21.19,41.407c-1.236-0.187-2.086-1.338-1.9-2.572c0.187-1.234,1.34-2.083,2.576-1.897
	s2.086,1.338,1.9,2.572C23.579,40.745,22.426,41.594,21.19,41.407z M36.05,39.841c1.716,0.259,2.898,1.859,2.639,3.573
	c-0.259,1.714-1.861,2.894-3.578,2.635c-1.717-0.259-2.898-1.859-2.639-3.573C32.732,40.761,34.333,39.582,36.05,39.841z
	 M35.784,8.817L34.574,0l3.204,4.039l4.255-2.913L38.27,9.192L35.784,8.817z M17.836,14.259l-4.393-5.943l-7.371-1.23L6.485,4.61
	l8.199,1.369l0.101-0.074l0.077,0.104l0.053,0.009l-0.008,0.051l4.955,6.703L17.836,14.259z M9.167,28.419L8.792,30.9L0,31.856
	l4.025-3.072l-2.899-4.37L9.167,28.419z M4.018,59.845l2.01-7.469l-0.059-0.08l0.1-0.073l0.084-0.314l0.251,0.067l6.444-4.74
	l1.493,2.02l-6.074,4.468l-1.375,5.11l5.684,3.264l-1.25,2.177l-7.001-4.02l-0.389-0.104l0.028-0.104L3.917,60.02L4.018,59.845z
	 M30.871,58.106l1.458,8.855l-3.291-4.306l-4.169,3.18l3.515-8.104L30.871,58.106z M47.246,54.042l2.023-1.489l4.042,5.467
	l7.041,2.521l-0.846,2.364l-6.659-2.384l-0.526,0.387l-0.048-0.065l-5.189,3.817l-1.493-2.02l5.188-3.817L47.246,54.042z
	 M57.774,38.293l0.375-2.48l8.867-1.453l-4.56,3.244l3.435,4.198L57.774,38.293z"/>
</svg>
