<?xml version="1.0" encoding="iso-8859-1"?>
<!-- Generator: Adobe Illustrator 16.0.0, SVG Export Plug-In . SVG Version: 6.00 Build 0)  -->
<!DOCTYPE svg PUBLIC "-//W3C//DTD SVG 1.1//EN" "http://www.w3.org/Graphics/SVG/1.1/DTD/svg11.dtd">
<svg version="1.1" id="Layer_1" xmlns="http://www.w3.org/2000/svg" xmlns:xlink="http://www.w3.org/1999/xlink" x="0px" y="0px"
	 width="67.2px" height="63.12px" viewBox="0 0 67.2 63.12" style="enable-background:new 0 0 67.2 63.12;" xml:space="preserve">
<path style="fill-rule:evenodd;clip-rule:evenodd;fill:#FFFFFF;" d="M61.744,63.12c-3.014,0-5.457-2.439-5.457-5.448V5.448
	C56.287,2.439,58.73,0,61.744,0S67.2,2.439,67.2,5.448v52.225C67.2,60.681,64.757,63.12,61.744,63.12z M47.672,63.12
	c-3.014,0-5.457-2.439-5.457-5.448V38.155c0-1.89,0.964-3.553,2.428-4.53c-0.046-0.019-0.096-0.037-0.13-0.057
	c0.095,0,0.182-0.015,0.27-0.028c0.285-0.178,0.586-0.331,0.903-0.455c0.356-0.368,0.55-0.911,0.55-1.525s-0.194-1.157-0.55-1.525
	c-0.317-0.124-0.619-0.277-0.903-0.455c-0.088-0.013-0.174-0.028-0.27-0.028c0.041-0.013,0.096-0.026,0.157-0.041
	c-1.478-0.975-2.454-2.646-2.454-4.546V5.448C42.215,2.439,44.658,0,47.672,0s5.457,2.439,5.457,5.448v19.517
	c0,1.894-0.969,3.561-2.439,4.537c0.047,0.017,0.099,0.031,0.142,0.05c-0.095,0-0.182,0.015-0.27,0.028
	c-0.285,0.178-0.586,0.331-0.903,0.455c-0.356,0.368-0.55,0.911-0.55,1.525s0.194,1.157,0.55,1.525
	c0.317,0.124,0.619,0.277,0.903,0.455c0.088,0.013,0.174,0.028,0.27,0.028c-0.037,0.02-0.088,0.037-0.133,0.055
	c1.465,0.977,2.431,2.642,2.431,4.532v19.517C53.128,60.681,50.686,63.12,47.672,63.12z M33.6,63.12
	c-3.014,0-5.457-2.439-5.457-5.448v-15.5c0-3.008,2.443-5.447,5.457-5.447s5.457,2.439,5.457,5.447v15.5
	C39.057,60.681,36.614,63.12,33.6,63.12z M33.6,26.396c-3.014,0-5.457-2.439-5.457-5.447v-15.5C28.144,2.439,30.586,0,33.6,0
	s5.457,2.439,5.457,5.448v15.5C39.057,23.957,36.614,26.396,33.6,26.396z M19.528,63.12c-3.014,0-5.457-1.865-5.457-4.874v-2.302
	c0-2.353,1.494-4.006,3.585-4.615c0.285-0.362,0.435-0.858,0.435-1.406c0-0.548-0.15-1.044-0.435-1.407
	c-2.092-0.609-3.585-2.263-3.585-4.615v-2.303c0-3.009,2.443-4.874,5.457-4.874s5.457,1.865,5.457,4.874v2.303
	c0,2.352-1.494,4.005-3.585,4.615c-0.285,0.362-0.435,0.858-0.435,1.407c0,0.548,0.15,1.044,0.435,1.406
	c2.092,0.609,3.585,2.263,3.585,4.615v2.302C24.985,61.255,22.542,63.12,19.528,63.12z M19.528,26.396
	c-3.014,0-5.457-1.865-5.457-4.874v-2.303c0-2.352,1.494-4.005,3.585-4.615c0.285-0.362,0.435-0.858,0.435-1.407
	c0-0.548-0.15-1.044-0.435-1.406c-2.092-0.609-3.585-2.263-3.585-4.615V4.874C14.072,1.865,16.515,0,19.528,0
	s5.457,1.865,5.457,4.874v2.302c0,2.353-1.494,4.006-3.585,4.615c-0.285,0.362-0.435,0.858-0.435,1.406
	c0,0.548,0.15,1.044,0.435,1.407c2.092,0.609,3.585,2.263,3.585,4.615v2.303C24.985,24.531,22.542,26.396,19.528,26.396z
	 M5.457,63.12C2.443,63.12,0,60.68,0,57.669s2.443-5.451,5.457-5.451s5.457,2.44,5.457,5.451S8.47,63.12,5.457,63.12z M5.457,45.714
	C2.443,45.714,0,43.273,0,40.263c0-3.011,2.443-5.452,5.457-5.452s5.457,2.441,5.457,5.452C10.913,43.273,8.47,45.714,5.457,45.714z
	 M5.457,28.309C2.443,28.309,0,25.868,0,22.857c0-3.01,2.443-5.451,5.457-5.451s5.457,2.441,5.457,5.451
	C10.913,25.868,8.47,28.309,5.457,28.309z M5.457,10.902C2.443,10.902,0,8.462,0,5.451S2.443,0,5.457,0s5.457,2.44,5.457,5.451
	S8.47,10.902,5.457,10.902z"/>
</svg>
