<?xml version="1.0" encoding="iso-8859-1"?>
<!-- Generator: Adobe Illustrator 16.0.0, SVG Export Plug-In . SVG Version: 6.00 Build 0)  -->
<!DOCTYPE svg PUBLIC "-//W3C//DTD SVG 1.1//EN" "http://www.w3.org/Graphics/SVG/1.1/DTD/svg11.dtd">
<svg version="1.1" id="Layer_1" xmlns="http://www.w3.org/2000/svg" xmlns:xlink="http://www.w3.org/1999/xlink" x="0px" y="0px"
	 width="72px" height="72px" viewBox="0 0 72 72" style="enable-background:new 0 0 72 72;" xml:space="preserve">
<path style="fill-rule:evenodd;clip-rule:evenodd;fill:#FFFFFF;" d="M63.508,20.571c-6.671,0-12.08-5.408-12.08-12.08
	c0-3.311,1.333-6.31,3.49-8.492h3.458c-0.23,0.139-0.457,0.285-0.674,0.442c0.205,0.024,0.405,0.112,0.563,0.27
	c0.374,0.374,0.374,0.979,0,1.353l-1.354,1.353c-0.374,0.374-0.979,0.374-1.353,0c-0.142-0.142-0.229-0.318-0.264-0.502
	c-0.798,1.174-1.35,2.529-1.585,3.99c0.163-0.128,0.366-0.208,0.589-0.208c0.529,0,0.957,0.428,0.957,0.957v1.914
	c0,0.529-0.428,0.957-0.957,0.957c-0.198,0-0.382-0.06-0.534-0.163c0.258,1.352,0.784,2.609,1.53,3.706
	c0.034-0.184,0.122-0.36,0.264-0.502c0.374-0.374,0.979-0.374,1.353,0l1.354,1.353c0.374,0.374,0.374,0.979,0,1.353
	c-0.158,0.158-0.357,0.245-0.563,0.27c1.15,0.832,2.488,1.417,3.935,1.693c-0.103-0.152-0.163-0.336-0.163-0.534
	c0-0.529,0.428-0.957,0.957-0.957h1.914c0.528,0,0.957,0.428,0.957,0.957c0,0.223-0.08,0.426-0.208,0.589
	c1.461-0.235,2.816-0.787,3.99-1.585c-0.184-0.034-0.36-0.121-0.502-0.263c-0.374-0.374-0.374-0.979,0-1.353l1.353-1.354
	c0.374-0.374,0.979-0.374,1.353,0c0.158,0.158,0.245,0.357,0.27,0.563c0.157-0.218,0.303-0.444,0.442-0.674v3.458
	C69.818,19.238,66.819,20.571,63.508,20.571z M71.761,7.654c0-0.241,0.092-0.458,0.239-0.626v3.167
	c-0.147-0.168-0.239-0.386-0.239-0.627V7.654z M71.289,3.249c-0.374,0.374-0.979,0.374-1.353,0l-1.353-1.354
	c-0.374-0.374-0.374-0.979,0-1.353C68.725,0.4,68.9,0.313,69.084,0.278C68.942,0.182,68.797,0.089,68.65,0H72v3.36
	c-0.14-0.23-0.285-0.457-0.442-0.674C71.534,2.891,71.446,3.091,71.289,3.249z M63.508,13.634c-2.84,0-5.143-2.302-5.143-5.143
	s2.303-5.143,5.143-5.143s5.143,2.303,5.143,5.143S66.349,13.634,63.508,13.634z M63.508,4.306c-2.312,0-4.186,1.874-4.186,4.186
	s1.874,4.186,4.186,4.186s4.186-1.874,4.186-4.186S65.82,4.306,63.508,4.306z M63.508,11.243c-1.519,0-2.751-1.232-2.751-2.751
	c0-1.52,1.232-2.751,2.751-2.751s2.751,1.231,2.751,2.751C66.259,10.011,65.027,11.243,63.508,11.243z M62.432,0.239
	c-0.241,0-0.459-0.092-0.627-0.239h3.167c-0.168,0.147-0.386,0.239-0.626,0.239H62.432z M49.854,43.776l-3.061-3.061
	c1.618-2.447,2.765-5.231,3.313-8.225c-0.342,0.321-0.802,0.52-1.309,0.52c-1.057,0-1.914-0.856-1.914-1.914v-5.501
	c0-1.057,0.857-1.914,1.914-1.914c0.481,0,0.919,0.179,1.255,0.471c-0.598-3.037-1.815-5.853-3.512-8.311
	c-0.015,0.469-0.197,0.934-0.555,1.292c-0.748,0.747-1.959,0.747-2.707,0l-3.89-3.891c-0.747-0.747-0.747-1.959,0-2.706
	c0.341-0.341,0.78-0.519,1.227-0.548c-2.401-1.614-5.135-2.77-8.076-3.348c0.292,0.336,0.47,0.773,0.47,1.254
	c0,1.057-0.856,1.914-1.914,1.914h-5.501c-1.057,0-1.914-0.856-1.914-1.914c0-0.506,0.198-0.966,0.52-1.308
	c-3.051,0.558-5.885,1.736-8.365,3.402c0.447,0.029,0.885,0.207,1.227,0.548c0.748,0.747,0.748,1.959,0,2.706l-3.89,3.891
	c-0.748,0.747-1.959,0.747-2.707,0c-0.357-0.358-0.539-0.823-0.554-1.292c-1.698,2.458-2.915,5.274-3.512,8.311
	c0.336-0.292,0.774-0.471,1.255-0.471c1.057,0,1.914,0.856,1.914,1.914v5.501c0,1.057-0.856,1.914-1.914,1.914
	c-0.505,0-0.964-0.197-1.306-0.518c0.584,3.186,1.845,6.135,3.63,8.692c0.009-0.478,0.193-0.952,0.557-1.316
	c0.747-0.747,1.959-0.747,2.706,0l3.891,3.89c0.747,0.748,0.747,1.959,0,2.707c-0.333,0.333-0.758,0.508-1.192,0.545
	c2.455,1.63,5.252,2.785,8.26,3.336c-0.321-0.343-0.52-0.802-0.52-1.309c0-1.057,0.856-1.914,1.914-1.914h5.501
	c1.057,0,1.914,0.856,1.914,1.914c0,0.48-0.178,0.918-0.471,1.254c3.123-0.616,6.01-1.885,8.517-3.658l3.051,3.051
	c-4.458,3.348-9.997,5.333-16,5.333c-14.73,0-26.671-11.941-26.671-26.671S13.376,1.674,28.106,1.674s26.671,11.941,26.671,26.671
	C54.777,34.098,52.95,39.419,49.854,43.776z M20.571,63.508c0,3.311-1.333,6.31-3.49,8.492h-3.447
	c0.147-0.089,0.292-0.182,0.434-0.278c-0.184-0.034-0.36-0.122-0.502-0.264c-0.374-0.374-0.374-0.979,0-1.353l1.353-1.354
	c0.374-0.374,0.979-0.374,1.353,0c0.158,0.158,0.245,0.357,0.27,0.563c0.832-1.15,1.417-2.488,1.693-3.935
	c-0.152,0.103-0.336,0.163-0.534,0.163c-0.529,0-0.957-0.428-0.957-0.957v-1.914c0-0.528,0.428-0.957,0.957-0.957
	c0.224,0,0.428,0.081,0.591,0.21c-0.25-1.559-0.864-2.995-1.75-4.222c-0.024,0.205-0.112,0.405-0.27,0.563
	c-0.374,0.374-0.979,0.374-1.353,0l-1.353-1.354c-0.374-0.374-0.374-0.979,0-1.353c0.142-0.142,0.318-0.229,0.502-0.264
	c-1.174-0.798-2.529-1.35-3.99-1.585c0.128,0.163,0.208,0.366,0.208,0.589c0,0.529-0.428,0.957-0.957,0.957H7.416
	c-0.529,0-0.957-0.428-0.957-0.957c0-0.198,0.06-0.381,0.163-0.534c-1.447,0.277-2.785,0.862-3.935,1.693
	c0.205,0.024,0.405,0.112,0.563,0.27c0.374,0.374,0.374,0.979,0,1.353l-1.354,1.353c-0.374,0.374-0.979,0.374-1.353,0
	c-0.142-0.142-0.229-0.318-0.264-0.502C0.182,58.074,0.089,58.219,0,58.366v-3.447c2.182-2.157,5.181-3.49,8.492-3.49
	C15.163,51.429,20.571,56.837,20.571,63.508z M7.416,71.761h1.914c0.241,0,0.458,0.092,0.626,0.239H6.789
	C6.957,71.853,7.174,71.761,7.416,71.761z M8.492,58.365c2.84,0,5.143,2.303,5.143,5.143s-2.302,5.143-5.143,5.143
	s-5.143-2.303-5.143-5.143S5.651,58.365,8.492,58.365z M8.492,67.694c2.312,0,4.186-1.874,4.186-4.186s-1.874-4.186-4.186-4.186
	s-4.186,1.874-4.186,4.186S6.18,67.694,8.492,67.694z M8.492,60.757c1.519,0,2.751,1.232,2.751,2.751s-1.232,2.751-2.751,2.751
	c-1.52,0-2.751-1.232-2.751-2.751S6.972,60.757,8.492,60.757z M0.542,68.583c0.374-0.374,0.979-0.374,1.353,0l1.354,1.353
	c0.374,0.374,0.374,0.979,0,1.353c-0.158,0.158-0.357,0.245-0.563,0.27C2.904,71.715,3.13,71.861,3.36,72H0v-3.35
	c0.089,0.147,0.182,0.292,0.278,0.435C0.313,68.9,0.4,68.725,0.542,68.583z M0.239,64.584c0,0.241-0.092,0.459-0.239,0.627v-3.167
	c0.147,0.168,0.239,0.386,0.239,0.626V64.584z M50.659,54.496c0.374,0.374,0.374,0.979,0,1.353s-0.979,0.374-1.353,0
	s-0.374-0.979,0-1.353S50.285,54.123,50.659,54.496z M52.147,56.526l6.224,6.224c0.224,0.224,0.224,0.587,0,0.812
	s-0.587,0.224-0.812,0l-6.224-6.224c-0.224-0.224-0.224-0.587,0-0.812C51.559,56.301,51.923,56.301,52.147,56.526z M57.559,51.114
	l6.224,6.224c0.224,0.224,0.224,0.588,0,0.812s-0.588,0.224-0.812,0l-6.224-6.224c-0.224-0.225-0.224-0.588,0-0.812
	S57.334,50.89,57.559,51.114z M54.65,58.082l3.653-3.653l0.676,0.676l-3.653,3.653L54.65,58.082z M61.686,57.811l-3.653,3.653
	l-0.676-0.676l3.653-3.653L61.686,57.811z M56.003,59.435l3.653-3.653l0.677,0.676l-3.653,3.653L56.003,59.435z M41.458,38.802
	l10.959,10.959c0.673,0.672,0.673,1.763,0,2.436c-0.672,0.672-1.763,0.672-2.435,0L39.023,41.237c-0.672-0.673-0.672-1.763,0-2.436
	C39.696,38.129,40.786,38.129,41.458,38.802z M38.347,33.796c1.195,1.195,1.195,3.134,0,4.329c-1.196,1.196-3.134,1.196-4.33,0
	c-0.893-0.893-1.119-2.201-0.677-3.304l-2.818-1.489l-1.818,5.894l-1.817-5.894l-5.453,2.882l2.882-5.453l-5.894-1.818l5.894-1.817
	l-2.882-5.454l5.453,2.883l1.817-5.894l1.818,5.894l5.453-2.883l-2.882,5.454l5.894,1.817l-5.894,1.818l1.399,2.646
	C35.68,32.619,37.299,32.748,38.347,33.796z M34.693,37.584c0.859,0.859,2.253,0.859,3.112,0c0.86-0.859,0.86-2.252,0-3.112
	c-0.859-0.859-2.252-0.859-3.112,0C33.834,35.332,33.834,36.725,34.693,37.584z M54.718,50.438c-0.374-0.374-0.374-0.979,0-1.353
	s0.979-0.374,1.353,0c0.374,0.374,0.374,0.979,0,1.353C55.697,50.811,55.091,50.811,54.718,50.438z M53.974,57.405l-1.353-1.353
	c-0.747-0.748-0.747-1.959,0-2.706l0.947-0.947c0.748-0.747,1.959-0.747,2.706,0l1.353,1.353L53.974,57.405z M70.75,66.876
	c0.747,0.747,0.747,1.958,0,2.706l-0.947,0.947c-0.747,0.748-1.958,0.748-2.706,0l-8.388-8.388l3.653-3.653L70.75,66.876z
	 M67.03,69.379c0.709,0.71,1.861,0.71,2.57,0c0.71-0.71,0.71-1.861,0-2.571c-0.709-0.709-1.861-0.709-2.57,0
	C66.32,67.518,66.32,68.669,67.03,69.379z M68.924,67.35c0.374,0.374,0.374,0.979,0,1.353c-0.374,0.374-0.979,0.374-1.353,0
	c-0.374-0.374-0.374-0.979,0-1.353C67.944,66.976,68.55,66.976,68.924,67.35z"/>
</svg>
