<?xml version="1.0" encoding="iso-8859-1"?>
<!-- Generator: Adobe Illustrator 16.0.0, SVG Export Plug-In . SVG Version: 6.00 Build 0)  -->
<!DOCTYPE svg PUBLIC "-//W3C//DTD SVG 1.1//EN" "http://www.w3.org/Graphics/SVG/1.1/DTD/svg11.dtd">
<svg version="1.1" id="Layer_1" xmlns="http://www.w3.org/2000/svg" xmlns:xlink="http://www.w3.org/1999/xlink" x="0px" y="0px"
	 width="67.205px" height="60.719px" viewBox="0 0 67.205 60.719" style="enable-background:new 0 0 67.205 60.719;"
	 xml:space="preserve">
<path style="fill-rule:evenodd;clip-rule:evenodd;fill:#FFFFFF;" d="M67.205,29.964l-11.001,9.892v-5.12H10.846v-9.544h45.358v-5.12
	L67.205,29.964z M38.502,1.627c-0.016-1.339,0.671-1.976,1.513-1.434l12.606,8.57c0.504,0.325,0.906,1.392,0.906,2.389v11.981
	H38.456L38.502,1.627z M13.914,11.153c0-0.997,0.401-2.064,0.906-2.389l12.606-8.57c0.842-0.542,1.528,0.095,1.513,1.434
	l0.046,21.507H13.914V11.153z M4.008,25.192h5.038v9.544H4.008V25.192z M27.557,53.836l-12.766-2.947
	c-0.488-0.112-0.877-0.962-0.877-1.901v-11.96h15.101l0.032,14.909C29.032,53.174,28.356,54.021,27.557,53.836z M13.628,53.203
	l14.732,3.831c0.735,0.191,0.906,0.478,0.316,0.644l-9.45,2.672c-1.69,0.478-4.031,0.499-4.951,0.016L0.562,53.171
	c-0.202-0.106,0.73-0.183,2.005-0.174l9.24,0.062C12.54,53.064,13.339,53.128,13.628,53.203z M0,25.192h2.208v9.544H0V25.192z
	 M53.527,37.028v11.96c0,0.938-0.389,1.789-0.877,1.901l-12.766,2.947c-0.8,0.185-1.476-0.662-1.49-1.898l0.032-14.909H53.527z
	 M39.081,57.034l14.732-3.831c0.29-0.075,1.089-0.139,1.821-0.144l9.24-0.062c1.275-0.008,2.208,0.068,2.005,0.174l-13.713,7.195
	c-0.92,0.483-3.262,0.462-4.951-0.016l-9.45-2.672C38.175,57.512,38.345,57.225,39.081,57.034z"/>
</svg>
