<?xml version="1.0" encoding="iso-8859-1"?>
<!-- Generator: Adobe Illustrator 16.0.0, SVG Export Plug-In . SVG Version: 6.00 Build 0)  -->
<!DOCTYPE svg PUBLIC "-//W3C//DTD SVG 1.1//EN" "http://www.w3.org/Graphics/SVG/1.1/DTD/svg11.dtd">
<svg version="1.1" id="Layer_1" xmlns="http://www.w3.org/2000/svg" xmlns:xlink="http://www.w3.org/1999/xlink" x="0px" y="0px"
	 width="67.198px" height="44.879px" viewBox="0 0 67.198 44.879" style="enable-background:new 0 0 67.198 44.879;"
	 xml:space="preserve">
<path style="fill-rule:evenodd;clip-rule:evenodd;fill:#FFFFFF;" d="M51.985,22.555v-0.923h15.213v0.923H51.985z M50.313,15.351
	l14.055-5.828l0.353,0.853l-14.055,5.828L50.313,15.351z M46.049,10.769L56.807,0l0.652,0.652L46.701,11.421L46.049,10.769z
	 M44.847,35.703h-9.252L22.241,22.325L35.595,8.945h9.252L31.494,22.325L44.847,35.703z M0.147,21.17
	c-0.315-0.943-0.027-1.72-0.027-2.769c0-5.225,5.614-8.076,10.834-8.076h20.285L20.175,21.17H0.147z M20.175,23.478l11.064,10.845
	H10.955c-5.22,0-10.834-2.851-10.834-8.076c0-1.049-0.288-1.826,0.027-2.769H20.175z M44.116,32.199l-9.855-9.874l9.855-9.875
	c3.456,1.934,5.794,5.63,5.794,9.875C49.91,26.569,47.572,30.266,44.116,32.199z M47.49,26.824c1.337,0,1.959-2.015,1.959-4.5
	c0-2.485-0.623-4.5-1.959-4.5s-1.729,2.014-1.729,4.5C45.761,24.809,46.153,26.824,47.49,26.824z M57.459,44.227l-0.652,0.653
	L46.049,34.11l0.652-0.652L57.459,44.227z M50.666,28.675l14.055,5.828l-0.353,0.853l-14.055-5.828L50.666,28.675z"/>
</svg>
