<?xml version="1.0" encoding="iso-8859-1"?>
<!-- Generator: Adobe Illustrator 16.0.0, SVG Export Plug-In . SVG Version: 6.00 Build 0)  -->
<!DOCTYPE svg PUBLIC "-//W3C//DTD SVG 1.1//EN" "http://www.w3.org/Graphics/SVG/1.1/DTD/svg11.dtd">
<svg version="1.1" id="Layer_1" xmlns="http://www.w3.org/2000/svg" xmlns:xlink="http://www.w3.org/1999/xlink" x="0px" y="0px"
	 width="60.96px" height="67.2px" viewBox="0 0 60.96 67.2" style="enable-background:new 0 0 60.96 67.2;" xml:space="preserve">
<path style="fill-rule:evenodd;clip-rule:evenodd;fill:#FFFFFF;" d="M32.588,67.13C46.09,66.033,57.573,52.039,57.573,33.6
	S46.09,1.167,32.588,0.069C47.499-1.114,60.96,13.636,60.96,33.6C60.96,53.564,47.499,68.314,32.588,67.13z M53.405,33.6
	c0,21.075-15.001,36.343-30.872,33.186C8.679,64.03,0,48.981,0,33.6C0,18.219,8.679,3.169,22.533,0.414
	C38.404-2.743,53.405,12.525,53.405,33.6z M22.533,9.163C12.17,10.681,5.328,21.833,5.328,33.6s6.843,22.919,17.206,24.437
	c11.186,1.638,21.675-9.272,21.675-24.437S33.719,7.524,22.533,9.163z M22.533,54.417C13.678,53.312,7.649,43.827,7.649,33.6
	c0-10.228,6.029-19.712,14.884-20.817c9.324-1.163,18.116,7.971,18.116,20.817C40.649,46.446,31.857,55.58,22.533,54.417z
	 M35.005,21.927l-23.322,1.518v3.385l23.322-1.012V21.927z M35.005,28.412l-23.322,0.675v3.385l23.322-0.168V28.412z M35.005,34.897
	l-23.322-0.168v3.385l23.322,0.675V34.897z M35.005,41.382L11.683,40.37v3.385l23.322,1.519V41.382z"/>
</svg>
