<?xml version="1.0" encoding="iso-8859-1"?>
<!-- Generator: Adobe Illustrator 16.0.0, SVG Export Plug-In . SVG Version: 6.00 Build 0)  -->
<!DOCTYPE svg PUBLIC "-//W3C//DTD SVG 1.1//EN" "http://www.w3.org/Graphics/SVG/1.1/DTD/svg11.dtd">
<svg version="1.1" id="Layer_1" xmlns="http://www.w3.org/2000/svg" xmlns:xlink="http://www.w3.org/1999/xlink" x="0px" y="0px"
	 width="67.195px" height="57.12px" viewBox="0 0 67.195 57.12" style="enable-background:new 0 0 67.195 57.12;"
	 xml:space="preserve">
<path style="fill-rule:evenodd;clip-rule:evenodd;fill:#FFFFFF;" d="M2.194,48.18h62.825l2.176,3.477H0L2.194,48.18z M2.194,42.716
	h62.825l2.176,3.477H0L2.194,42.716z M0,40.729l6.113-9.686H0l7.237-11.467h52.781l7.177,11.467h-6.063l6.063,9.686H0z
	 M9.935,27.125H6.333c-1.421,0-2.949,0.621-3.426,1.409L2.819,28.68c-0.495,0.817,0.315,1.5,1.824,1.5h3.825
	c1.509,0,3.024-0.683,3.375-1.5l0.063-0.146C12.242,27.747,11.356,27.125,9.935,27.125z M9.935,36.811H6.333
	c-1.421,0-2.949,0.621-3.426,1.409l-0.088,0.146c-0.495,0.818,0.315,1.5,1.824,1.5h3.825c1.509,0,3.024-0.682,3.375-1.5l0.063-0.146
	C12.242,37.432,11.356,36.811,9.935,36.811z M53.779,27.057l-1.767-4.361c-0.251-0.619-1.473-1.108-2.735-1.108H17.966
	c-1.262,0-2.486,0.489-2.74,1.108l-1.789,4.361c-0.315,0.766,0.606,1.405,2.065,1.405h36.204
	C53.166,28.462,54.09,27.823,53.779,27.057z M53.779,36.743l-1.767-4.361c-0.251-0.619-1.473-1.108-2.735-1.108H17.966
	c-1.262,0-2.486,0.489-2.74,1.108l-1.789,4.361c-0.315,0.766,0.606,1.405,2.065,1.405h36.204
	C53.166,38.148,54.09,37.509,53.779,36.743z M62.557,30.18c1.509,0,2.323-0.683,1.832-1.5l-0.087-0.146
	c-0.473-0.788-1.998-1.409-3.418-1.409h-3.603c-1.421,0-2.31,0.621-1.977,1.409l0.062,0.146c0.346,0.817,1.858,1.5,3.367,1.5H62.557
	z M64.302,38.22c-0.473-0.788-1.998-1.409-3.418-1.409h-3.603c-1.421,0-2.31,0.621-1.977,1.409l0.062,0.146
	c0.346,0.818,1.858,1.5,3.367,1.5h3.824c1.509,0,2.323-0.682,1.832-1.5L64.302,38.22z M37.145,35.87H51.28l0.389,1.078H37.22
	L37.145,35.87z M37.011,33.97h13.583l0.359,0.995H37.081L37.011,33.97z M36.888,32.212h13.072l0.333,0.92h-13.34L36.888,32.212z
	 M16.705,33.133l0.342-0.92h13.072l-0.074,0.92H16.705z M29.897,34.964H16.024l0.37-0.995h13.583L29.897,34.964z M29.737,36.948
	h-14.45l0.4-1.078h14.136L29.737,36.948z M37.145,26.185H51.28l0.389,1.078H37.22L37.145,26.185z M37.011,24.284h13.583l0.359,0.995
	H37.081L37.011,24.284z M36.888,22.527h13.072l0.333,0.92h-13.34L36.888,22.527z M16.705,23.447l0.342-0.92h13.072l-0.074,0.92
	H16.705z M29.897,25.279H16.024l0.37-0.995h13.583L29.897,25.279z M29.737,27.263h-14.45l0.4-1.078h14.136L29.737,27.263z
	 M58.646,17.384l0.422,0.675H8.195l0.425-0.675H58.646z M59.653,18.995H7.604l0.24-0.379h51.572L59.653,18.995z M7.237,2.192h52.781
	l7.177,11.467H0L7.237,2.192z M55.304,11.15l0.062,0.145c0.346,0.818,1.858,1.5,3.367,1.5h3.824c1.509,0,2.323-0.683,1.832-1.5
	l-0.087-0.145c-0.473-0.788-1.998-1.409-3.418-1.409h-3.603C55.86,9.741,54.971,10.362,55.304,11.15z M15.502,11.078h36.204
	c1.459,0,2.384-0.639,2.073-1.405l-1.767-4.361c-0.251-0.619-1.473-1.108-2.735-1.108H17.966c-1.262,0-2.486,0.489-2.74,1.108
	l-1.789,4.361C13.122,10.439,14.043,11.078,15.502,11.078z M4.643,12.796h3.825c1.509,0,3.024-0.683,3.375-1.5l0.063-0.145
	c0.337-0.788-0.548-1.409-1.969-1.409H6.333c-1.421,0-2.949,0.621-3.426,1.409l-0.088,0.145C2.324,12.113,3.134,12.796,4.643,12.796
	z M29.824,8.8l-0.086,1.078h-14.45l0.4-1.078H29.824z M16.394,6.9h13.583l-0.08,0.995H16.024L16.394,6.9z M17.046,5.143h13.072
	l-0.074,0.92h-13.34L17.046,5.143z M50.292,6.063h-13.34l-0.064-0.92h13.072L50.292,6.063z M50.953,7.895H37.081L37.011,6.9h13.583
	L50.953,7.895z M51.669,9.878H37.22L37.145,8.8H51.28L51.669,9.878z M7.604,1.61l0.24-0.379h51.572l0.237,0.379H7.604z M8.621,0
	h50.025l0.422,0.674H8.195L8.621,0z M65.019,53.643l2.176,3.477H0l2.194-3.477H65.019z"/>
</svg>
