<?xml version="1.0" encoding="iso-8859-1"?>
<!-- Generator: Adobe Illustrator 16.0.0, SVG Export Plug-In . SVG Version: 6.00 Build 0)  -->
<!DOCTYPE svg PUBLIC "-//W3C//DTD SVG 1.1//EN" "http://www.w3.org/Graphics/SVG/1.1/DTD/svg11.dtd">
<svg version="1.1" id="Layer_1" xmlns="http://www.w3.org/2000/svg" xmlns:xlink="http://www.w3.org/1999/xlink" x="0px" y="0px"
	 width="67.2px" height="39.84px" viewBox="0 0 67.2 39.84" style="enable-background:new 0 0 67.2 39.84;" xml:space="preserve">
<path style="fill-rule:evenodd;clip-rule:evenodd;fill:#FFFFFF;" d="M64.585,39.84H2.615C1.171,39.84,0,38.667,0,37.219V2.621
	C0,1.173,1.171,0,2.615,0H63.54h1.046H67.2v2.621v1.048v33.549C67.2,38.667,66.029,39.84,64.585,39.84z M5.099,36.695
	c0.794,0,1.438-0.646,1.438-1.442c0-0.796-0.644-1.441-1.438-1.441c-0.794,0-1.438,0.646-1.438,1.441
	C3.661,36.049,4.305,36.695,5.099,36.695z M5.099,31.19c0.794,0,1.438-0.646,1.438-1.441c0-0.796-0.644-1.442-1.438-1.442
	c-0.794,0-1.438,0.646-1.438,1.442C3.661,30.545,4.305,31.19,5.099,31.19z M21.964,6.028V5.242V2.621H19.35h-0.785H5.229
	c-1.444,0-2.615,1.173-2.615,2.621v17.299c0,1.076,0.647,2,1.572,2.403c0.072-4.533,2.379-5.643,4.18-6.073
	c1.831-0.437,1.831-0.874,1.831-1.573c0-0.699,0.073-0.618,0-1.048c-0.054-0.32-0.092-0.548-0.129-0.749
	c-0.688-0.961-1.13-2.362-1.178-3.838c-0.015-0.455-0.116-0.902-0.108-1.647c0.015-1.426,1.502-3.463,3.376-3.463
	c0.044,0,0.087,0.006,0.131,0.008c0.044-0.002,0.087-0.008,0.131-0.008c1.875,0,3.362,2.037,3.376,3.463
	c0.007,0.745-0.093,1.192-0.108,1.647c-0.048,1.477-0.49,2.877-1.178,3.838c-0.038,0.2-0.075,0.428-0.129,0.749
	c-0.073,0.431,0,0.35,0,1.048c0,0.699,0,1.136,1.831,1.573c1.801,0.43,4.108,1.54,4.18,6.073c0.925-0.404,1.572-1.328,1.572-2.403
	V6.028z M64.063,7.863v-3.19V2.621h-2.045h-2.662H27.147c-1.129,0-2.045,0.918-2.045,2.052V23.11c0,1.133,0.916,2.052,2.045,2.052
	h20.965c3.268,0,3.399,1.769,3.399,3.407H11.897c-0.65,0-1.177,0.528-1.177,1.18s0.527,1.179,1.177,1.179h39.614
	c0,2.097-1.242,3.146-3.399,3.146H11.897c-0.65,0-1.177,0.528-1.177,1.179s0.527,1.18,1.177,1.18h37.915
	c0.02,0,0.038-0.005,0.057-0.006c5.344-0.123,4.519-5.394,4.519-7.595c0-2.228,0.915-3.669,3.399-3.669h4.23
	c1.13,0,2.045-0.919,2.045-2.052V7.863z M60.103,22.803H29.061c-0.887,0-1.605-0.727-1.605-1.623V6.603
	c0-0.896,0.719-1.623,1.605-1.623h28.726h1.568h2.354v2.883v1.048v12.269C61.709,22.077,60.99,22.803,60.103,22.803z"/>
</svg>
