<?xml version="1.0" encoding="iso-8859-1"?>
<!-- Generator: Adobe Illustrator 16.0.0, SVG Export Plug-In . SVG Version: 6.00 Build 0)  -->
<!DOCTYPE svg PUBLIC "-//W3C//DTD SVG 1.1//EN" "http://www.w3.org/Graphics/SVG/1.1/DTD/svg11.dtd">
<svg version="1.1" id="Layer_1" xmlns="http://www.w3.org/2000/svg" xmlns:xlink="http://www.w3.org/1999/xlink" x="0px" y="0px"
	 width="67.194px" height="51.601px" viewBox="0 0 67.194 51.601" style="enable-background:new 0 0 67.194 51.601;"
	 xml:space="preserve">
<path style="fill-rule:evenodd;clip-rule:evenodd;fill:#FFFFFF;" d="M62.042,23.057h1.433l3.716,4.819v23.725H45.825V23.057h5.146
	c0-1.08,0-7.36,0-8.459c0-1.203-0.809-2.004-3.033-2.004c-2.225,0-10.418,0-12.036,0c-2.325,0-2.325-3.007,0-3.007
	c1.618,0,13.654,0,16.485,0c1.314,0,2.225,0,2.225-0.601c0-0.902-0.708,0-1.618-0.602c-0.402-0.266-1.092-1.755-1.092-3.423
	c0-1.46-0.195-3.039,0.889-3.995c1.82-1.604,4.456-1.171,5.46,1.002c1.112,2.406-0.405,3.708-0.405,6.816
	c0,1.103,1.618,0.802,3.034,0.802c1.415,0,4.247,4.647,5.864,6.816C68.434,18.669,65.04,19.872,62.042,23.057z M55.69,25.359
	c-4.174,0-7.559,3.375-7.559,7.538s3.384,7.538,7.559,7.538s7.559-3.375,7.559-7.538S59.864,25.359,55.69,25.359z M52.409,38.133
	l0.004-10.409l9.024,5.208L52.409,38.133z M31.293,12.593c-1.618,0-9.812,0-12.036,0c-2.224,0-3.033,0.802-3.033,2.004
	c0,1.099,0,7.38,0,8.459h5.146v28.543H0.004V27.876l3.716-4.819h1.433c-2.998-3.186-6.392-4.388-4.702-6.655
	c1.617-2.168,4.449-6.816,5.864-6.816s3.033,0.301,3.033-0.802c0-3.107-1.517-4.41-0.404-6.816c1.005-2.173,3.64-2.606,5.46-1.002
	c1.084,0.956,0.89,2.535,0.89,3.995c0,1.668-0.689,3.157-1.092,3.423c-0.91,0.602-1.618-0.301-1.618,0.602
	c0,0.601,0.91,0.601,2.224,0.601c2.831,0,14.867,0,16.485,0C33.619,9.586,33.619,12.593,31.293,12.593z M11.728,25.583
	c-4.174,0-7.559,3.375-7.559,7.538s3.384,7.538,7.559,7.538s7.558-3.375,7.558-7.538S15.902,25.583,11.728,25.583z M14.781,27.948
	l0.004,10.409l-9.028-5.201L14.781,27.948z"/>
</svg>
