<?xml version="1.0" encoding="iso-8859-1"?>
<!-- Generator: Adobe Illustrator 16.0.0, SVG Export Plug-In . SVG Version: 6.00 Build 0)  -->
<!DOCTYPE svg PUBLIC "-//W3C//DTD SVG 1.1//EN" "http://www.w3.org/Graphics/SVG/1.1/DTD/svg11.dtd">
<svg version="1.1" id="Layer_1" xmlns="http://www.w3.org/2000/svg" xmlns:xlink="http://www.w3.org/1999/xlink" x="0px" y="0px"
	 width="67.148px" height="63.286px" viewBox="0 0 67.148 63.286" style="enable-background:new 0 0 67.148 63.286;"
	 xml:space="preserve">
<path style="fill-rule:evenodd;clip-rule:evenodd;fill:#FFFFFF;" d="M66.667,15.727c1.864,8.359-1.772,17.301-9.569,21.803
	c-7.351,4.243-16.269,3.309-22.552-1.666c4.589,3.04,10.537,3.687,15.787,1.366c-0.003-0.023-0.008-0.045-0.01-0.067
	c0.538-0.238,1.069-0.506,1.59-0.807c0.268-0.154,0.527-0.316,0.783-0.483c0.008,0.02,0.017,0.039,0.024,0.059
	c5.626-3.681,8.314-10.304,7.209-16.651c-0.006-0.035-0.011-0.071-0.017-0.106c-0.026-0.142-0.056-0.284-0.085-0.425
	c-0.03-0.147-0.059-0.293-0.093-0.44c0-0.001-0.001-0.003-0.001-0.005c-0.362-1.552-0.953-3.078-1.792-4.53l-0.02,0.012
	C53.652,6.455,44.617,3.624,37.03,6.948c-0.731-0.94-1.546-1.825-2.441-2.645c0.742-0.583,1.529-1.125,2.37-1.61
	C46.579-2.86,58.89,0.45,64.455,10.088C65.498,11.895,66.23,13.794,66.667,15.727z M39.978,23.262
	c0.388-5.427-1.917-10.851-6.397-14.286c-0.008,0.006-0.016,0.013-0.024,0.02c-0.569-0.437-1.17-0.842-1.808-1.21
	c-0.145-0.083-0.292-0.16-0.439-0.239c0.006-0.007,0.011-0.015,0.017-0.022C27.005,5.203,22.08,5.008,17.78,6.603
	c-0.034,0.013-0.068,0.024-0.102,0.037c-0.182,0.069-0.362,0.142-0.541,0.217c-0.075,0.031-0.15,0.061-0.224,0.093
	c-0.132,0.058-0.263,0.119-0.394,0.18c-0.119,0.055-0.238,0.11-0.355,0.168c-0.079,0.039-0.156,0.081-0.233,0.121
	c-0.167,0.086-0.333,0.172-0.497,0.264c-0.02,0.011-0.039,0.023-0.059,0.034c-2.495,1.407-4.66,3.477-6.197,6.139l0.016,0.009
	c-4.27,7.423-2.145,16.766,4.657,21.651c-0.421,1.098-0.76,2.237-0.999,3.414c-0.953-0.368-1.89-0.808-2.801-1.334
	C0.43,32.042-2.857,19.726,2.708,10.088c2.081-3.604,5.105-6.323,8.58-8.024c5.811-2.834,12.875-2.826,18.887,0.645
	C37.584,6.986,41.233,15.275,39.978,23.262z M14.82,23.332c-2.584-1.492-3.468-4.801-1.973-7.39s4.802-3.479,7.387-1.987
	c2.584,1.492,3.468,4.801,1.973,7.39S17.405,24.824,14.82,23.332z M30.394,8.802c0.212,0.109,0.423,0.223,0.632,0.343
	c0.467,0.27,0.912,0.562,1.338,0.873c-3.548,3.318-5.403,8.006-5.208,12.748c-0.022,0.007-0.044,0.015-0.065,0.022
	C26.434,17.873,27.626,12.88,30.394,8.802z M18.953,40.25c-0.023-0.341-0.04-0.685-0.04-1.032c0-0.412,0.021-0.819,0.055-1.223
	c4.634,1.321,9.577,0.521,13.534-2.053c0.013,0.011,0.026,0.022,0.039,0.034C28.674,39.012,23.823,40.523,18.953,40.25z
	 M33.917,51.579c-2.99,0-5.414-2.419-5.414-5.403s2.424-5.403,5.414-5.403s5.415,2.419,5.415,5.403S36.907,51.579,33.917,51.579z
	 M50.039,35.6c-1.121-4.917-4.437-8.998-8.871-11.161c0.001-0.009,0.003-0.018,0.005-0.027c4.78,1.843,8.673,5.452,10.889,10.024
	c-0.313,0.213-0.631,0.42-0.965,0.612C50.75,35.25,50.396,35.43,50.039,35.6z M52.342,23.332c-2.584,1.492-5.892,0.603-7.387-1.987
	s-0.612-5.898,1.973-7.39c2.584-1.492,5.892-0.603,7.387,1.987S54.927,21.84,52.342,23.332z M13.799,42.037
	c0.013-0.232,0.029-0.463,0.05-0.693c0.007-0.072,0.014-0.144,0.021-0.215c0.025-0.246,0.054-0.492,0.088-0.735
	c0.006-0.048,0.013-0.095,0.02-0.143c0.043-0.292,0.091-0.583,0.146-0.871c0.205-1.07,0.492-2.11,0.86-3.112
	c0.116-0.316,0.241-0.627,0.373-0.936c0.028-0.067,0.058-0.135,0.088-0.202c0.117-0.268,0.239-0.532,0.368-0.793
	c0.019-0.04,0.038-0.08,0.057-0.12c0.148-0.296,0.304-0.587,0.465-0.875c0.032-0.057,0.065-0.113,0.098-0.169
	c0.139-0.241,0.283-0.479,0.432-0.715c0.035-0.055,0.069-0.111,0.104-0.166c0.178-0.275,0.361-0.546,0.552-0.812
	c0.028-0.039,0.057-0.077,0.085-0.116c0.167-0.229,0.339-0.455,0.515-0.676c0.047-0.06,0.095-0.12,0.143-0.179
	c0.206-0.254,0.417-0.504,0.635-0.748c0.007-0.008,0.015-0.015,0.022-0.023c0.209-0.233,0.426-0.46,0.647-0.683
	c0.057-0.058,0.114-0.115,0.171-0.171c0.21-0.208,0.425-0.412,0.644-0.61c0.023-0.021,0.044-0.042,0.067-0.063
	c0.241-0.216,0.488-0.424,0.739-0.628c0.062-0.05,0.125-0.1,0.187-0.149c0.211-0.167,0.425-0.331,0.642-0.49
	c0.052-0.038,0.103-0.077,0.155-0.114c0.261-0.187,0.527-0.368,0.797-0.542c0.06-0.039,0.122-0.076,0.182-0.114
	c0.224-0.141,0.45-0.278,0.68-0.411c0.069-0.041,0.139-0.082,0.209-0.121c0.281-0.158,0.565-0.311,0.854-0.455
	c0.045-0.023,0.092-0.044,0.138-0.066c0.251-0.123,0.505-0.241,0.761-0.354c0.081-0.035,0.161-0.071,0.241-0.105
	c0.301-0.128,0.605-0.251,0.914-0.365c-0.299,0.139-0.593,0.289-0.882,0.445c-0.032,0.017-0.063,0.033-0.095,0.05
	c-0.274,0.15-0.543,0.309-0.808,0.474c-0.042,0.026-0.084,0.052-0.126,0.079c-0.258,0.165-0.512,0.336-0.76,0.514
	c-0.041,0.03-0.083,0.06-0.124,0.09c-0.249,0.182-0.493,0.37-0.731,0.565c-0.032,0.026-0.064,0.054-0.096,0.081
	c-0.246,0.204-0.486,0.414-0.719,0.632c-0.013,0.012-0.024,0.023-0.037,0.035c-0.24,0.225-0.472,0.457-0.698,0.696
	c-0.009,0.009-0.018,0.018-0.026,0.026c-0.222,0.236-0.437,0.48-0.645,0.729c-0.022,0.027-0.045,0.053-0.067,0.081
	c-0.201,0.243-0.394,0.492-0.58,0.747c-0.024,0.034-0.049,0.067-0.074,0.101c-0.184,0.256-0.361,0.517-0.531,0.783
	c-0.02,0.031-0.04,0.063-0.059,0.094c-0.172,0.274-0.338,0.553-0.494,0.837c-0.009,0.018-0.019,0.035-0.028,0.053
	c-0.326,0.6-0.617,1.222-0.868,1.864c-0.004,0.012-0.01,0.024-0.014,0.036c-0.121,0.312-0.232,0.628-0.334,0.949
	c-0.009,0.028-0.019,0.056-0.027,0.085c-0.099,0.315-0.188,0.634-0.268,0.957c-0.008,0.032-0.016,0.064-0.023,0.096
	c-0.079,0.326-0.148,0.654-0.207,0.987c-0.004,0.024-0.008,0.049-0.012,0.074c-0.06,0.344-0.11,0.692-0.147,1.043l0,0
	c-0.062,0.583-0.095,1.174-0.095,1.774c0,0.281,0.007,0.56,0.021,0.837l0,0c0.007,0.139,0.021,0.276,0.031,0.415
	c0.01,0.137,0.018,0.275,0.031,0.412c0.014,0.138,0.034,0.275,0.051,0.413c0.017,0.134,0.031,0.269,0.051,0.401
	c0.021,0.137,0.047,0.271,0.071,0.407c0.023,0.131,0.044,0.264,0.07,0.394c0.027,0.135,0.06,0.267,0.09,0.4
	c0.03,0.129,0.057,0.259,0.09,0.387c0.033,0.132,0.072,0.262,0.108,0.393c0.036,0.127,0.069,0.254,0.108,0.38
	c0.04,0.129,0.084,0.256,0.126,0.384c0.042,0.125,0.082,0.25,0.126,0.373c0.045,0.126,0.095,0.25,0.144,0.375
	c0.047,0.122,0.094,0.245,0.145,0.365c0.051,0.123,0.106,0.244,0.16,0.366c0.053,0.119,0.106,0.239,0.162,0.357
	c0.057,0.12,0.117,0.237,0.176,0.355c0.059,0.117,0.118,0.233,0.179,0.349c0.062,0.116,0.127,0.23,0.192,0.345
	c0.064,0.114,0.128,0.228,0.195,0.339c0.067,0.112,0.137,0.223,0.207,0.333c0.069,0.111,0.14,0.221,0.212,0.33
	c0.072,0.108,0.146,0.215,0.221,0.322c0.075,0.107,0.15,0.214,0.228,0.32c0.077,0.104,0.156,0.208,0.235,0.31
	c0.08,0.104,0.161,0.207,0.243,0.309c0.082,0.101,0.165,0.199,0.248,0.298c0.085,0.1,0.171,0.2,0.258,0.298
	c0.086,0.096,0.173,0.19,0.261,0.285c0.09,0.097,0.181,0.192,0.273,0.286c0.089,0.092,0.18,0.182,0.272,0.271
	c0.095,0.093,0.191,0.184,0.288,0.274c0.093,0.087,0.188,0.173,0.283,0.258c0.1,0.088,0.2,0.175,0.302,0.261
	c0.097,0.082,0.195,0.163,0.294,0.243c0.104,0.084,0.209,0.166,0.315,0.248c0.101,0.077,0.202,0.154,0.304,0.229
	c0.109,0.08,0.219,0.157,0.329,0.233c0.104,0.072,0.208,0.144,0.313,0.214c0.113,0.075,0.228,0.147,0.342,0.219
	c0.107,0.067,0.214,0.134,0.322,0.198c0.117,0.07,0.236,0.137,0.355,0.204c0.11,0.062,0.219,0.124,0.33,0.183
	c0.122,0.064,0.245,0.126,0.368,0.188c0.112,0.057,0.224,0.113,0.337,0.167c0.125,0.06,0.253,0.116,0.38,0.172
	c0.114,0.05,0.228,0.102,0.344,0.149c0.129,0.054,0.261,0.104,0.393,0.155c0.116,0.045,0.231,0.09,0.349,0.133
	c0.134,0.048,0.271,0.092,0.406,0.137c0.118,0.039,0.234,0.079,0.353,0.115c0.139,0.042,0.28,0.081,0.42,0.119
	c0.118,0.033,0.235,0.067,0.354,0.097c0.145,0.037,0.291,0.068,0.437,0.101c0.117,0.026,0.234,0.055,0.353,0.079
	c0.151,0.031,0.304,0.055,0.457,0.082c0.115,0.02,0.229,0.042,0.346,0.06c0.162,0.024,0.325,0.042,0.488,0.062
	c0.109,0.013,0.218,0.029,0.328,0.041c0.182,0.018,0.366,0.029,0.55,0.042c0.093,0.006,0.184,0.016,0.277,0.021
	c0.278,0.014,0.557,0.021,0.838,0.021c8.449,0,15.412-6.323,16.413-14.484c1.193-0.184,2.381-0.465,3.55-0.856
	c0.122,0.894,0.19,1.805,0.19,2.733c0,11.108-9.023,20.113-20.153,20.113s-20.153-9.005-20.153-20.113
	c0-0.304,0.008-0.606,0.022-0.907C13.789,42.19,13.795,42.114,13.799,42.037z"/>
</svg>
