<?xml version="1.0" encoding="iso-8859-1"?>
<!-- Generator: Adobe Illustrator 16.0.0, SVG Export Plug-In . SVG Version: 6.00 Build 0)  -->
<!DOCTYPE svg PUBLIC "-//W3C//DTD SVG 1.1//EN" "http://www.w3.org/Graphics/SVG/1.1/DTD/svg11.dtd">
<svg version="1.1" id="Layer_1" xmlns="http://www.w3.org/2000/svg" xmlns:xlink="http://www.w3.org/1999/xlink" x="0px" y="0px"
	 width="67.201px" height="34.32px" viewBox="0 0 67.201 34.32" style="enable-background:new 0 0 67.201 34.32;"
	 xml:space="preserve">
<path style="fill-rule:evenodd;clip-rule:evenodd;fill:#FFFFFF;" d="M27.788,28.235l-0.063,0.021l-2.868-6.426l0.175-0.072
	l17.002-7.012l-4.196-9.399L38.08,5.22l0.102,0.229L66.14,15.655L27.906,28.196L27.788,28.235z M31.152,12.403l-0.207,0.1
	l-0.117-0.261l-3.854-8.633l-1.359,0.824l3.91,8.76l-0.199,0.097l-5.948,2.887l-0.107-0.24l-3.542-7.934L0,19.966l0.578-1.768
	L29.518,0l0.727,1.627l3.995,8.949l0.121,0.271l-0.44,0.214L31.152,12.403z M19.266,10.391l0.057-0.033l2.857,6.4l-0.169,0.082
	l-11.74,5.698l3.001,6.722l-0.13,0.049l-0.073-0.163L0.571,21.245L19.16,10.453L19.266,10.391z M17.192,24.99l0.146-0.06
	l0.097,0.218l3.204,7.178l1.08-0.332l-3.344-7.491l0.15-0.062l5.124-2.113l0.104,0.235l3.458,7.746l39.99-12.277l-3.072,3.188
	L18.838,34.32l-0.566-1.268l-3.113-6.974l-0.094-0.211l0.277-0.114L17.192,24.99z"/>
</svg>
