<?xml version="1.0" encoding="iso-8859-1"?>
<!-- Generator: Adobe Illustrator 16.0.0, SVG Export Plug-In . SVG Version: 6.00 Build 0)  -->
<!DOCTYPE svg PUBLIC "-//W3C//DTD SVG 1.1//EN" "http://www.w3.org/Graphics/SVG/1.1/DTD/svg11.dtd">
<svg version="1.1" id="Layer_1" xmlns="http://www.w3.org/2000/svg" xmlns:xlink="http://www.w3.org/1999/xlink" x="0px" y="0px"
	 width="67.197px" height="66.718px" viewBox="0 0 67.197 66.718" style="enable-background:new 0 0 67.197 66.718;"
	 xml:space="preserve">
<path style="fill-rule:evenodd;clip-rule:evenodd;fill:#FFFFFF;" d="M63.275,22.471L48.25,37.489l-3.46,2.144l1.957-3.646
	l-3.46,2.144l1.908-3.695l-3.41,2.193l1.811-3.508l0.191,0.001l-0.125-0.13l0.03-0.058l9.429-9.325
	c2.839,0.157,5.731-0.847,7.9-3.015c4.045-4.043,4.045-10.599,0-14.643s-10.604-4.043-14.65,0c-2.169,2.168-3.173,5.058-3.017,7.896
	l-9.33,9.424l-3.46,2.144l1.85-3.659l-3.59,1.92l2.145-3.458l-3.647,1.957l2.145-3.458L44.493,3.698l0.004,0.005
	c5.2-4.997,13.466-4.938,18.59,0.183C72.224,13.018,63.275,22.471,63.275,22.471z M33.88,33.077l0.188-9.761l1.784,1.783
	L45.937,15.02c-0.58-2.574,0.123-5.379,2.124-7.379c3.107-3.105,8.163-3.105,11.27,0s3.107,8.158,0,11.264
	c-2.001,2-4.808,2.702-7.383,2.123L41.863,31.106l1.799,1.886l-0.067,0.129L33.88,33.077z M58.88,18.454
	c2.858-2.857,2.858-7.505,0-10.362s-7.509-2.857-10.368,0c-1.738,1.737-2.412,4.135-2.037,6.391l4.404-4.401
	c1.66-1.659,4.351-1.659,6.011,0c1.66,1.659,1.66,4.348,0,6.007l-4.404,4.401C54.742,20.865,57.142,20.19,58.88,18.454z
	 M50.785,11.864l4.322,4.317l0.654-4.975L50.785,11.864z M50.313,20.782l1.725-1.724l-0.031-4.097l-4.1-0.031l-1.725,1.724
	l4.099,0.032L50.313,20.782z M47.12,23.973l1.725-1.724l-0.032-4.097l-4.099-0.031l-1.725,1.724l4.099,0.031L47.12,23.973z
	 M44.115,26.977l1.725-1.724l-0.031-4.098l-4.099-0.031l-1.725,1.724l4.099,0.032L44.115,26.977z M42.647,28.444l-0.032-4.097
	l-4.099-0.031l-1.725,1.724l4.099,0.032l0.053,4.209L42.647,28.444z M23.602,33.597l-0.191-0.001l0.125,0.13l-0.03,0.058
	l-9.429,9.325c-2.839-0.157-5.731,0.847-7.9,3.015c-4.045,4.043-4.045,10.599,0,14.643s10.604,4.043,14.65,0
	c2.169-2.168,3.173-5.058,3.017-7.896l9.33-9.424l3.46-2.144l-1.85,3.659l3.59-1.92L36.229,46.5l3.647-1.957l-2.145,3.458
	L22.705,63.02L22.7,63.015c-5.2,4.997-13.466,4.938-18.59-0.183C-5.026,53.7,3.922,44.247,3.922,44.247l15.025-15.019l3.46-2.144
	l-1.957,3.646l3.46-2.144l-1.908,3.695l3.41-2.193L23.602,33.597z M33.317,33.641l-0.188,9.761l-1.784-1.783L21.26,51.698
	c0.58,2.574-0.123,5.379-2.124,7.379c-3.107,3.105-8.163,3.105-11.27,0s-3.107-8.158,0-11.264c2.001-2,4.808-2.702,7.383-2.123
	l10.084-10.079l-1.799-1.886l0.067-0.129L33.317,33.641z M8.317,48.264c-2.858,2.857-2.858,7.505,0,10.362s7.509,2.857,10.368,0
	c1.738-1.737,2.412-4.135,2.037-6.391l-4.404,4.401c-1.66,1.659-4.351,1.659-6.011,0c-1.66-1.659-1.66-4.348,0-6.007l4.404-4.401
	C12.455,45.853,10.055,46.527,8.317,48.264z M16.413,54.854l-4.322-4.317l-0.654,4.975L16.413,54.854z M16.884,45.936l-1.725,1.724
	l0.031,4.097l4.1,0.031l1.725-1.724l-4.099-0.032L16.884,45.936z M20.077,42.745l-1.725,1.724l0.032,4.097l4.099,0.031l1.725-1.724
	l-4.099-0.031L20.077,42.745z M23.083,39.741l-1.725,1.724l0.031,4.097l4.099,0.031l1.725-1.724l-4.099-0.032L23.083,39.741z
	 M24.55,38.274l0.032,4.097l4.099,0.031l1.725-1.724l-4.099-0.032l-0.053-4.209L24.55,38.274z"/>
</svg>
