<?xml version="1.0" encoding="iso-8859-1"?>
<!-- Generator: Adobe Illustrator 16.0.0, SVG Export Plug-In . SVG Version: 6.00 Build 0)  -->
<!DOCTYPE svg PUBLIC "-//W3C//DTD SVG 1.1//EN" "http://www.w3.org/Graphics/SVG/1.1/DTD/svg11.dtd">
<svg version="1.1" id="Layer_1" xmlns="http://www.w3.org/2000/svg" xmlns:xlink="http://www.w3.org/1999/xlink" x="0px" y="0px"
	 width="67.202px" height="67.202px" viewBox="0 0 67.202 67.202" style="enable-background:new 0 0 67.202 67.202;"
	 xml:space="preserve">
<path style="fill-rule:evenodd;clip-rule:evenodd;fill:#FFFFFF;" d="M37.073,30.366c0,0,1.567-7.837,7.167-10.748
	c5.599-2.911,19.708-16.121,19.708-16.121S50.734,17.603,47.822,23.201C44.911,28.798,37.073,30.366,37.073,30.366z M37.475,16.168
	c-0.996,1.617-2.353,2.615-3.848,2.618c-1.495,0.002-2.848-0.991-3.838-2.604c1.148,5.477,2.706,9.553,2.957,13.976
	c-0.846-8.382-6.781-13.023-4.081-30.14c-0.263,4.315-0.098,7.952,0.287,11.125c0.697,3.158,2.527,5.407,4.68,5.403
	c2.152-0.004,3.99-2.26,4.699-5.42C38.726,7.952,38.904,4.314,38.656,0c2.64,17.107-3.312,21.769-4.188,30.154
	C34.734,25.73,36.307,21.649,37.475,16.168z M19.394,23.222C16.493,17.629,3.305,3.546,3.305,3.546S17.39,16.732,22.984,19.633
	s7.147,10.735,7.147,10.735S22.296,28.814,19.394,23.222z M11.143,28.947c-3.173-0.385-6.811-0.55-11.125-0.287
	c17.117-2.703,21.757,3.238,30.14,4.085c-4.423-0.251-8.499-1.811-13.976-2.959c1.613,0.991,2.607,2.345,2.604,3.841
	c-0.003,1.497-1.001,2.854-2.618,3.851c5.481-1.168,9.563-2.742,13.986-3.009C21.769,35.346,17.107,41.303,0,38.661
	c4.314,0.249,7.952,0.07,11.126-0.326c3.16-0.709,5.416-2.549,5.42-4.703S14.301,29.645,11.143,28.947z M30.129,37.308
	c0,0-1.567,7.837-7.167,10.748C17.364,50.966,3.255,64.176,3.255,64.176S16.468,50.07,19.38,44.473
	C22.291,38.875,30.129,37.308,30.129,37.308z M29.728,51.034c0.996-1.617,2.353-2.615,3.848-2.618
	c1.495-0.002,2.848,0.991,3.838,2.604c-1.148-5.477-2.706-9.553-2.957-13.976c0.846,8.382,6.781,13.023,4.081,30.14
	c0.263-4.315,0.098-7.952-0.287-11.125c-0.697-3.158-2.527-5.407-4.68-5.403c-2.152,0.004-3.99,2.26-4.699,5.42
	c-0.396,3.175-0.574,6.813-0.326,11.126c-2.64-17.107,3.312-21.769,4.188-30.154C32.468,41.472,30.895,45.553,29.728,51.034z
	 M47.71,44.361c2.911,5.598,16.125,19.704,16.125,19.704s-14.109-13.21-19.708-16.121c-5.599-2.911-7.167-10.748-7.167-10.748
	S44.799,38.763,47.71,44.361z M36.851,34.273c-0.268,1.305-1.303,2.328-2.612,2.583l0.567-1.962L36.851,34.273z M36.871,33.055
	l-2.065-0.517l-0.68-2.209C35.53,30.552,36.638,31.654,36.871,33.055z M32.994,36.862c-1.309-0.243-2.346-1.25-2.631-2.543
	l2.086,0.576L32.994,36.862z M33.1,30.325l-0.651,2.213l-2.149,0.729C30.45,31.758,31.613,30.55,33.1,30.325z M56.059,38.255
	c3.173,0.385,6.811,0.55,11.125,0.287c-17.117,2.703-21.757-3.238-30.14-4.085c4.423,0.251,8.499,1.811,13.976,2.959
	c-1.613-0.991-2.607-2.345-2.604-3.841c0.003-1.497,1.001-2.854,2.618-3.851c-5.481,1.168-9.563,2.742-13.986,3.009
	c8.385-0.877,13.047-6.834,30.154-4.191c-4.314-0.249-7.952-0.07-11.126,0.326c-3.16,0.709-5.416,2.549-5.42,4.703
	S52.901,37.557,56.059,38.255z"/>
</svg>
