<?xml version="1.0" encoding="iso-8859-1"?>
<!-- Generator: Adobe Illustrator 16.0.0, SVG Export Plug-In . SVG Version: 6.00 Build 0)  -->
<!DOCTYPE svg PUBLIC "-//W3C//DTD SVG 1.1//EN" "http://www.w3.org/Graphics/SVG/1.1/DTD/svg11.dtd">
<svg version="1.1" id="Layer_1" xmlns="http://www.w3.org/2000/svg" xmlns:xlink="http://www.w3.org/1999/xlink" x="0px" y="0px"
	 width="67.2px" height="61.2px" viewBox="0 0 67.2 61.2" style="enable-background:new 0 0 67.2 61.2;" xml:space="preserve">
<path style="fill-rule:evenodd;clip-rule:evenodd;fill:#FFFFFF;" d="M60.165,61.2H52.97c-1.456,0-2.636-1.181-2.636-2.638v-1.846
	h1.582c1.455,0,2.635-1.181,2.635-2.638v-1.847h1.054c1.455,0,2.635-1.181,2.635-2.638V48.01h8.882c0.027,0,0.052-0.006,0.078-0.009
	v6.164C67.2,58.051,64.05,61.2,60.165,61.2z M65.092,46.164c-1.164,0-1.845,0-1.845,0v-4.221c0,0,0.681,0,1.845,0
	c1.165,0,2.108,0.945,2.108,2.11S66.256,46.164,65.092,46.164z M58.503,37.458V30.6v-6.858c0-1.457,1.18-2.638,2.635-2.638H67.2
	c0,1.55,0,9.497,0,9.497s0,7.947,0,9.497h-6.062C59.684,40.097,58.503,38.916,58.503,37.458z M65.092,19.257
	c-1.164,0-1.845,0-1.845,0v-4.221c0,0,0.681,0,1.845,0c1.165,0,2.108,0.945,2.108,2.11S66.256,19.257,65.092,19.257z M58.24,13.19
	v-1.583c0-1.457-1.18-2.638-2.635-2.638h-1.054V7.123c0-1.457-1.18-2.638-2.635-2.638h-1.582V2.638C50.334,1.181,51.514,0,52.97,0
	h7.195C64.05,0,67.2,3.149,67.2,7.035v6.164c-0.026-0.002-0.051-0.009-0.078-0.009H58.24z M19.238,0h28.461v4.484H19.238V0z
	 M12.386,7.123v1.847h-0.791c-1.455,0-2.635,1.181-2.635,2.638v1.583H0V7.035C0,3.149,3.15,0,7.035,0h6.932
	c1.455,0,2.635,1.181,2.635,2.638v1.846h-1.581C13.566,4.484,12.386,5.666,12.386,7.123z M2.108,15.036c1.164,0,1.845,0,1.845,0
	v4.221c0,0-0.681,0-1.845,0C0.944,19.257,0,18.312,0,17.146S0.944,15.036,2.108,15.036z M8.697,23.742V30.6v6.858
	c0,1.457-1.18,2.638-2.635,2.638H0c0-1.55,0-9.497,0-9.497s0-7.947,0-9.497h6.062C7.517,21.104,8.697,22.285,8.697,23.742z
	 M2.108,41.943c1.164,0,1.845,0,1.845,0v4.221c0,0-0.681,0-1.845,0C0.944,46.164,0,45.219,0,44.054S0.944,41.943,2.108,41.943z
	 M8.96,49.593c0,1.457,1.18,2.638,2.635,2.638h0.791v1.847c0,1.457,1.18,2.638,2.635,2.638h1.581v1.846
	c0,1.457-1.18,2.638-2.635,2.638H7.035C3.15,61.2,0,58.051,0,54.166V48.01h8.96V49.593z M53.727,50.648h-1.548H14.758h-1.285
	c-1.183,0-2.141-0.969-2.141-2.165V45.9h5.567h33.139h5.831v2.584C55.868,49.679,54.91,50.648,53.727,50.648z M16.899,15.3h-5.567
	v-2.584c0-1.195,0.958-2.165,2.141-2.165h1.285h37.421h1.548c1.183,0,2.141,0.969,2.141,2.165V15.3h-5.831H16.899z M55.896,39.668
	c0.004,0.027,0.008,0.055,0.013,0.082c0.02,0.118,0.045,0.234,0.081,0.346c0.336,1.07,1.334,1.847,2.514,1.847h-3.953H12.649H8.697
	c1.18,0,2.178-0.776,2.514-1.847c0.035-0.112,0.061-0.229,0.081-0.346c0.004-0.027,0.009-0.055,0.013-0.082
	c0.016-0.119,0.028-0.24,0.028-0.363v-8.692h-0.001c0-0.004,0.001-0.009,0.001-0.013s-0.001-0.009-0.001-0.013h0.001v-8.692
	c0-0.124-0.012-0.244-0.028-0.363c-0.004-0.027-0.008-0.055-0.013-0.082c-0.02-0.118-0.045-0.234-0.081-0.346
	c-0.336-1.07-1.334-1.847-2.514-1.847h3.953h41.901h3.953c-1.18,0-2.178,0.776-2.514,1.847c-0.035,0.112-0.061,0.229-0.081,0.346
	c-0.004,0.027-0.009,0.055-0.013,0.082c-0.016,0.119-0.028,0.24-0.028,0.363v8.669h0.002c0,0.012-0.002,0.024-0.002,0.036
	s0.002,0.024,0.002,0.036h-0.002v8.669C55.868,39.429,55.88,39.549,55.896,39.668z M33.468,24.533c-3.348,0-6.061,2.717-6.061,6.067
	s2.713,6.067,6.061,6.067s6.061-2.717,6.061-6.067S36.816,24.533,33.468,24.533z M47.699,61.2H19.238v-4.484h28.461V61.2z"/>
</svg>
