<?xml version="1.0" encoding="iso-8859-1"?>
<!-- Generator: Adobe Illustrator 16.0.0, SVG Export Plug-In . SVG Version: 6.00 Build 0)  -->
<!DOCTYPE svg PUBLIC "-//W3C//DTD SVG 1.1//EN" "http://www.w3.org/Graphics/SVG/1.1/DTD/svg11.dtd">
<svg version="1.1" id="Layer_1" xmlns="http://www.w3.org/2000/svg" xmlns:xlink="http://www.w3.org/1999/xlink" x="0px" y="0px"
	 width="72px" height="48px" viewBox="0 0 72 48" style="enable-background:new 0 0 72 48;" xml:space="preserve">
<path style="fill-rule:evenodd;clip-rule:evenodd;fill:#FFFFFF;" d="M0,48c0,0,0-36.466,0-39.593C26.349,8.407,20.978,0,35.458,0
	c0.298,0,0.407,0,0.444,0c-0.001,0,0.005,0,0.019,0c0.044,0,0.189,0,0.621,0C51.022,0,45.651,8.407,72,8.407C72,11.534,72,48,72,48
	H0z M62.526,14.644c0-2.288-4.06-3.661-7.579-4.339C51.429,9.627,49.09,7.492,43.308,4.61c-1.62-0.808-4.601-1.221-5.414-1.356
	c-0.812-0.136-2.977-0.136-3.789,0c-0.813,0.135-3.794,0.548-5.414,1.356c-5.782,2.881-8.121,5.017-11.639,5.695
	c-3.519,0.678-7.579,1.712-7.579,4.339c0,0.164,0,0.423,0,0.813c0,2.627,4.06,3.661,7.579,4.339
	c3.519,0.678,5.857,2.813,11.639,5.695c1.62,0.807,4.601,1.22,5.414,1.356c0.812,0.135,2.977,0.135,3.789,0
	c0.813-0.136,3.794-0.549,5.414-1.356c5.782-2.882,8.121-5.017,11.639-5.695c3.519-0.678,7.579-2.051,7.579-4.339
	C62.526,15.294,62.526,15.035,62.526,14.644z M42.898,22.78c-4.661,1.042-9.144,1.042-13.805,0
	c-3.113-2.441-6.902-5.017-15.158-6.78c-0.093-0.254-0.093-1.644,0-1.898c8.256-1.763,12.045-4.339,15.158-6.78
	c4.661-1.042,9.144-1.042,13.805,0c3.113,2.441,6.902,5.017,15.158,6.78c0.093,0.254,0.093,1.644,0,1.898
	C49.8,17.763,46.011,20.339,42.898,22.78z M41.884,11.509l-4.729,1.452l-1.267-4.791L34.778,13l-4.774-1.296l3.62,3.377
	l-3.508,3.494l4.729-1.452l1.267,4.791l1.109-4.83l4.774,1.296l-3.62-3.377L41.884,11.509z"/>
</svg>
