<?xml version="1.0" encoding="iso-8859-1"?>
<!-- Generator: Adobe Illustrator 16.0.0, SVG Export Plug-In . SVG Version: 6.00 Build 0)  -->
<!DOCTYPE svg PUBLIC "-//W3C//DTD SVG 1.1//EN" "http://www.w3.org/Graphics/SVG/1.1/DTD/svg11.dtd">
<svg version="1.1" id="Layer_1" xmlns="http://www.w3.org/2000/svg" xmlns:xlink="http://www.w3.org/1999/xlink" x="0px" y="0px"
	 width="67.198px" height="59.998px" viewBox="0 0 67.198 59.998" style="enable-background:new 0 0 67.198 59.998;"
	 xml:space="preserve">
<path style="fill-rule:evenodd;clip-rule:evenodd;fill:#FFFFFF;" d="M63.996,4.444c-1.478,1.481-8.127,7.407-8.127,7.407
	l0.739,0.741c0,0,2.96-2.757,7.142-6.42c-1.56,3.457-4.294,6.152-6.157,8.395c1.103,2.608,2.07,10.406-2.955,14.815
	c-4.063,3.564-8.673,2.932-10.59,2.222c1.47-1.474,2.956-2.469,2.956-2.469s1.693,0.561,4.925-1.481
	c4.955-3.13,3.612-10.782,2.216-13.333c-1.396-2.551-5.91-6.584-11.575-4.938c-5.664,1.646-5.664,7.901-5.664,7.901
	s-1.801,1.152-2.709,1.976c-0.98-3.822,0.903-8.807,5.172-11.605s10.548-2.027,13.544,0.494c4.433-4.115,8.127-4.938,8.127-4.938
	l-6.649,6.173l0.739,0.741c0,0,4.843-4.362,6.896-6.42S67.198,0,67.198,0S65.474,2.963,63.996,4.444z M44.541,15.556
	c0,0,3.771-3.04,4.433-3.704c0.708,0.119,1.118,0.386,1.724,0.741c-0.575,0.576-2.195,1.984-3.448,3.21
	C46.511,15.638,44.541,15.556,44.541,15.556z M53.407,18.271c-1.139,1.348-2.216,2.222-2.216,2.222s-0.493-1.409-0.739-2.222
	c0.774-0.776,2.709-2.469,2.709-2.469S53.789,17.283,53.407,18.271z M49.713,17.531c0,0-0.939-1.178-1.478-1.234
	c0.718-0.72,3.201-2.963,3.201-2.963s0.657,0.329,1.231,1.481C50.888,16.476,49.713,17.531,49.713,17.531z M48.481,19.753
	c-1.108,0.864-20.687,15.803-24.38,18.766c-3.694,2.963-6.103,5.749-4.433,8.395c2.956-2.716,25.188-21.79,29.552-25.185
	c0.246,1.234-0.546,2.878-1.231,3.457c-2.331,1.97-26.196,25.694-29.552,28.889c-2.34-1.481-2.956-3.21-3.202-6.42
	s2.093-7.037,0.985-8.148c-1.108-1.111-3.886,0.485-8.865,3.209c4.248-3.349,26.474-20.494,30.783-23.704
	C42.448,15.803,47.188,18.079,48.481,19.753z M39.343,23.675c1.021-0.126,1.805-0.602,1.752-1.064
	c-0.053-0.461-0.924-0.733-1.945-0.607s-1.805,0.602-1.752,1.063C37.451,23.529,38.322,23.801,39.343,23.675z M31.491,29.865
	c-0.064-0.524-1.109-0.833-2.334-0.69c-1.225,0.143-2.166,0.684-2.102,1.208s1.109,0.833,2.334,0.689
	C30.613,30.929,31.555,30.389,31.491,29.865z M32.719,26.434c0.057,0.527,0.986,0.838,2.075,0.694s1.925-0.688,1.869-1.216
	c-0.057-0.527-0.986-0.838-2.075-0.694S32.662,25.906,32.719,26.434z M44.048,20c-3.052-3.508-5.864-0.154-10.589,3.951
	C35.139,23.696,39.736,18.846,44.048,20z M12.773,46.914c-0.862,3.704,0.646,7.386,4.187,8.395
	c-7.573,6.536-13.47,5.208-15.761,2.222c-2.446-3.186-0.739-7.407,1.478-9.876c3.933-2.863,7.637-4.439,10.097-5.679
	C13.881,42.346,13.635,43.21,12.773,46.914z"/>
</svg>
