<?xml version="1.0" encoding="iso-8859-1"?>
<!-- Generator: Adobe Illustrator 16.0.0, SVG Export Plug-In . SVG Version: 6.00 Build 0)  -->
<!DOCTYPE svg PUBLIC "-//W3C//DTD SVG 1.1//EN" "http://www.w3.org/Graphics/SVG/1.1/DTD/svg11.dtd">
<svg version="1.1" id="Layer_1" xmlns="http://www.w3.org/2000/svg" xmlns:xlink="http://www.w3.org/1999/xlink" x="0px" y="0px"
	 width="67.193px" height="62.155px" viewBox="0 0 67.193 62.155" style="enable-background:new 0 0 67.193 62.155;"
	 xml:space="preserve">
<path style="fill-rule:evenodd;clip-rule:evenodd;fill:#FFFFFF;" d="M36.194,62.155c-0.523,0-1.042-0.014-1.559-0.04
	c16.396-0.814,29.44-14.398,29.44-31.038S51.032,0.854,34.636,0.04C35.152,0.014,35.671,0,36.194,0
	c17.12,0,30.999,13.914,30.999,31.078S53.314,62.155,36.194,62.155z M56.35,29.303c0,0.383-0.01,0.763-0.029,1.141
	C55.729,18.446,45.838,8.9,33.723,8.9c-12.115,0-22.005,9.545-22.598,21.543c-0.019-0.378-0.029-0.758-0.029-1.141
	c0-12.528,10.13-22.684,22.627-22.684S56.35,16.775,56.35,29.303z M3.117,31.078c0,16.64,13.044,30.224,29.44,31.038
	c-0.517,0.025-1.036,0.04-1.559,0.04C13.879,62.155,0,48.241,0,31.078S13.879,0,30.999,0c0.522,0,1.042,0.014,1.559,0.04
	C16.162,0.854,3.117,14.438,3.117,31.078z M17.792,30.96c0-8.68,7.023-15.716,15.688-15.716s15.688,7.036,15.688,15.716
	s-7.024,15.716-15.688,15.716S17.792,39.64,17.792,30.96z M48.348,30.96c0-8.226-6.656-14.895-14.868-14.895
	c-8.211,0-14.868,6.669-14.868,14.895s6.657,14.895,14.868,14.895C41.691,45.855,48.348,39.187,48.348,30.96z M56.321,31.965
	c0.019,0.378,0.029,0.758,0.029,1.141c0,12.528-10.13,22.684-22.627,22.684S11.096,45.633,11.096,33.105
	c0-0.383,0.01-0.763,0.029-1.141c0.593,11.998,10.483,21.543,22.598,21.543C45.838,53.508,55.729,43.963,56.321,31.965z"/>
</svg>
