<?xml version="1.0" encoding="iso-8859-1"?>
<!-- Generator: Adobe Illustrator 16.0.0, SVG Export Plug-In . SVG Version: 6.00 Build 0)  -->
<!DOCTYPE svg PUBLIC "-//W3C//DTD SVG 1.1//EN" "http://www.w3.org/Graphics/SVG/1.1/DTD/svg11.dtd">
<svg version="1.1" id="Layer_1" xmlns="http://www.w3.org/2000/svg" xmlns:xlink="http://www.w3.org/1999/xlink" x="0px" y="0px"
	 width="72px" height="39.357px" viewBox="0 0 72 39.357" style="enable-background:new 0 0 72 39.357;" xml:space="preserve">
<path style="fill-rule:evenodd;clip-rule:evenodd;fill:#FFFFFF;" d="M72,33.868v5.485c-6.914,0-16.333,0-16.333,0
	s-1.649-2.527-3.807-3.538c-2.157-1.011-5.845-3.331-7.105-5.56c-1.38-2.44-4.061-3.159-4.568-4.549
	c0.37-1.49,0.771-3.871,4.06-6.823c5.228-4.693,8.797-6.891,10.262-8.405c0.225-0.479,0.507-1.32,0.922-2.153l-0.971-0.967
	c-0.011-0.011-0.018-0.023-0.028-0.034L37.077,24.608l13.512,13.455c0.297,0.296,0.297,0.776,0,1.072s-0.779,0.296-1.077,0L36,25.68
	L22.488,39.135c-0.297,0.296-0.779,0.296-1.077,0s-0.297-0.776,0-1.072l13.512-13.455L17.567,7.325
	c-0.01,0.011-0.017,0.023-0.028,0.034l-0.971,0.967c0.415,0.833,0.697,1.673,0.922,2.153c1.465,1.515,5.035,3.712,10.262,8.405
	c3.289,2.952,3.69,5.333,4.06,6.823c-0.507,1.39-3.188,2.109-4.568,4.549c-1.261,2.229-4.949,4.549-7.105,5.56
	c-2.157,1.011-3.807,3.538-3.807,3.538s-9.419,0-16.333,0v-5.485c1.2-0.566,2.085-1.152,2.121-1.844
	c0.118-2.275,0.876-5.894-0.307-6.445c-1.131-0.526-3.212-6.327,0.307-9.223c3.408-2.803,9.167-0.974,10.151,2.274
	c0.393,1.297,0.41,2.084,0.254,2.78c-0.173,0.767,0.132,1.364,0.253,1.516c1,1.252,1.565,1.996,1.523,2.274
	c-0.042,0.279-0.673,0.652-1.015,0.505c0.098,1.235-0.18,1.769-0.254,2.78c-0.087,1.188-0.592,1.18-1.269,1.264
	c-0.677,0.084-1.269,0.168-1.015,0.505c0.254,0.337,1.385-0.184,1.777-0.505c1.867-1.532,6.017-0.948,6.344-1.516
	c0.679-1.178,2.453-2.78,3.807-3.285s2.7-0.826,2.153-0.976c-0.547-0.149-1.343-0.68-3.577-3.674
	c-2.234-2.994-4.403-5.229-5.016-5.709c-0.613-0.48-1.358-1.192-1.888-1.689c-0.411-0.385-1.261-0.374-1.924-0.45l-1.285,1.28
	c-0.314,0.313-0.81,0.327-1.107,0.031c-0.297-0.296-0.283-0.79,0.031-1.103l0.975-0.971c-0.284-0.347-0.491-0.765-0.517-1.123
	c-0.048-0.678-0.297-0.628-0.544-1.438c-0.248-0.81,0.517-1.304,0.7-1.684c0.183-0.379,0.813-0.246,1.146-0.741
	c0.333-0.495,1.178-0.146,1.195-0.493c0.017-0.347,0.708-0.397,1.245-0.246c0.591,0.167,1.075,0.555,1.477,1.043l0.722-0.719
	c0.011-0.011,0.023-0.018,0.034-0.028l-1.438-1.433c-0.297-0.296-0.297-0.776,0-1.072c0.297-0.296,0.78-0.296,1.077,0L36,23.536
	L55.866,3.754c0.297-0.296,0.779-0.296,1.077,0c0.297,0.296,0.297,0.776,0,1.072l-1.439,1.433c0.011,0.01,0.023,0.017,0.034,0.028
	l0.722,0.719c0.402-0.488,0.886-0.876,1.477-1.043c0.537-0.152,1.228-0.102,1.245,0.246c0.017,0.347,0.863-0.002,1.195,0.493
	c0.333,0.495,0.963,0.362,1.146,0.741c0.184,0.379,0.948,0.874,0.7,1.684c-0.247,0.81-0.496,0.761-0.544,1.438
	c-0.026,0.358-0.233,0.776-0.517,1.123l0.975,0.971c0.314,0.313,0.328,0.807,0.031,1.103c-0.297,0.296-0.793,0.282-1.108-0.031
	l-1.285-1.28c-0.663,0.076-1.513,0.065-1.924,0.45c-0.53,0.497-1.275,1.208-1.888,1.689c-0.613,0.48-2.782,2.715-5.016,5.709
	c-2.234,2.995-3.029,3.525-3.577,3.674c-0.547,0.15,0.8,0.47,2.153,0.976s3.127,2.107,3.807,3.285
	c0.328,0.568,4.478-0.016,6.344,1.516c0.392,0.321,1.523,0.843,1.777,0.505c0.253-0.337-0.338-0.421-1.015-0.505
	c-0.677-0.084-1.182-0.075-1.269-1.264c-0.074-1.011-0.352-1.544-0.254-2.78c-0.342,0.146-0.973-0.226-1.015-0.505
	c-0.042-0.279,0.523-1.022,1.523-2.274c0.122-0.152,0.426-0.75,0.253-1.516c-0.156-0.695-0.139-1.482,0.254-2.78
	c0.984-3.248,6.744-5.077,10.151-2.274c3.52,2.896,1.439,8.696,0.308,9.223c-1.183,0.551-0.425,4.17-0.308,6.445
	C69.915,32.715,70.8,33.302,72,33.868z M54.789,3.039c-1.495,1.489-9.238,9.199-13.279,13.223
	c2.691-3.633,7.578-10.048,10.049-12.866c4.215-4.807,6.819-3.574,8.434-1.966c0.026,0.026-1.081,1.076-1.615,1.608
	C57.78,2.443,56.284,1.55,54.789,3.039z M13.622,3.039c-0.534-0.533-1.641-1.583-1.615-1.608c1.615-1.608,4.219-2.841,8.434,1.966
	c2.471,2.818,7.357,9.232,10.049,12.866C26.449,12.238,18.707,4.528,17.211,3.039C15.716,1.55,14.22,2.443,13.622,3.039z"/>
</svg>
