<?xml version="1.0" encoding="iso-8859-1"?>
<!-- Generator: Adobe Illustrator 16.0.0, SVG Export Plug-In . SVG Version: 6.00 Build 0)  -->
<!DOCTYPE svg PUBLIC "-//W3C//DTD SVG 1.1//EN" "http://www.w3.org/Graphics/SVG/1.1/DTD/svg11.dtd">
<svg version="1.1" id="Layer_1" xmlns="http://www.w3.org/2000/svg" xmlns:xlink="http://www.w3.org/1999/xlink" x="0px" y="0px"
	 width="67.205px" height="60.728px" viewBox="0 0 67.205 60.728" style="enable-background:new 0 0 67.205 60.728;"
	 xml:space="preserve">
<path style="fill-rule:evenodd;clip-rule:evenodd;fill:#FFFFFF;" d="M67.072,12.875c-1.36-0.382-1.843-0.165-2.459,1.109
	c-0.918,1.898-2.176,2.465-4.206,1.896c-1.323-0.372-2.144-0.002-2.743,1.236c-0.911,1.881-2.102,2.417-4.111,1.854
	c-0.061-0.017-0.119-0.032-0.177-0.046l-0.023,0.136c-0.592-0.166-1.017-0.219-1.36-0.121c-0.414,0.181-0.734,0.569-1.041,1.203
	l-0.035-0.021c-0.008,0.016-0.016,0.031-0.023,0.048c-0.919,1.898-2.177,2.465-4.206,1.896c-1.323-0.372-2.144-0.002-2.743,1.237
	c-0.911,1.88-2.102,2.417-4.112,1.853c-1.338-0.376-1.995-0.08-2.601,1.173l-0.669-0.417c0.736-1.522,1.712-2.009,3.403-1.534
	c1.594,0.448,2.501,0.177,3.309-1.492c0.766-1.583,1.929-2.052,3.545-1.598c1.659,0.466,2.623,0.08,3.403-1.534
	c0.44-0.91,0.894-1.416,1.52-1.592c0.525-0.202,1.156-0.189,1.942,0.031c1.594,0.448,2.501,0.178,3.309-1.492
	c0.766-1.583,1.929-2.051,3.545-1.598c1.659,0.466,2.623,0.079,3.403-1.534c0.767-1.583,1.57-1.946,3.262-1.47L67.072,12.875z
	 M62.489,7.761c-0.699,0.315-1.464,0.283-2.107-0.019c0.365,0.058,0.749,0.016,1.111-0.147C62.48,7.15,62.92,5.988,62.476,5
	c-0.444-0.988-1.605-1.428-2.592-0.983c-0.362,0.163-0.648,0.423-0.846,0.735c0.2-0.683,0.684-1.277,1.382-1.592
	c1.269-0.572,2.761-0.006,3.333,1.265S63.758,7.189,62.489,7.761z M54.777,6.318c-0.362,0.163-0.648,0.424-0.846,0.735
	c0.2-0.682,0.684-1.277,1.382-1.592c1.269-0.572,2.761-0.006,3.333,1.265c0.572,1.271,0.006,2.765-1.263,3.336
	c-0.699,0.315-1.464,0.284-2.107-0.019c0.365,0.058,0.75,0.016,1.111-0.146c0.987-0.445,1.427-1.607,0.983-2.595
	C56.924,6.314,55.764,5.874,54.777,6.318z M49.67,8.62c-0.361,0.163-0.648,0.424-0.846,0.736c0.2-0.683,0.684-1.277,1.382-1.592
	c1.269-0.572,2.761-0.006,3.333,1.265c0.571,1.271,0.006,2.764-1.264,3.336c-0.698,0.315-1.464,0.283-2.106-0.02
	c0.364,0.058,0.749,0.017,1.111-0.146c0.987-0.445,1.427-1.607,0.982-2.595S50.657,8.175,49.67,8.62z M61.347,1.808l0.005,0.01
	L27.264,17.183c0.494-0.223,0.713-0.803,0.491-1.297c-0.222-0.495-0.802-0.714-1.296-0.492L60.547,0.028l0.004,0.01
	c0.461-0.133,0.961,0.088,1.164,0.539C61.918,1.028,61.752,1.55,61.347,1.808z M27.131,17.23c0.044-0.013,0.089-0.028,0.132-0.047
	l-0.127,0.058L27.131,17.23z M26.331,15.451l0.128-0.058c-0.043,0.02-0.084,0.043-0.123,0.068L26.331,15.451z M24.71,18.334
	c-0.494,0.223-1.074,0.002-1.296-0.492c-0.222-0.494-0.002-1.075,0.492-1.298c0.494-0.222,1.074-0.002,1.296,0.492
	S25.204,18.111,24.71,18.334z M0.557,35.985c4.469-2.014,2.156-9.888,7.646-12.362c2.043-0.921,11.235-5.064,11.235-5.064
	l3.729,0.779c0,0-9.064,4.086-13.533,6.1C5.164,27.452,6.174,33.453,0.557,35.985z M2.408,36.688
	c2.298-1.036,3.741-2.608,5.425-7.057c1.123-2.966,7.2-4.476,25.074-12.532c-0.255,0.115,3.729,0.779,3.729,0.779
	s-16.853,7.597-21.448,9.668c-4.852,2.187-2.08,8.008,2.644,5.879c4.724-2.129,15.32-6.906,15.32-6.906l-1.889,3.311
	c0,0-7.916,3.568-9.958,4.489c-2.042,0.92,0.818,4.55-9.14,9.039c-4.596,2.072-6.639,9.85-2.5,12.195
	c2.267,1.284,4.29-0.704,6.843-1.855c-1.263,3.336-3.886,7.747-8.553,6.93c-4.667-0.817-8.429-4.292-7.906-12.116
	C0.367,43.757-0.911,38.184,2.408,36.688z M12.726,41.875c4.852-2.187,5.764-4.597,6.281-6.521
	c-4.469,2.014-6.128,2.762-8.171,3.683C8.793,39.959,8.769,43.659,12.726,41.875z M36.629,16.497
	c-0.222-0.494-0.002-1.075,0.492-1.297c0.493-0.223,1.074-0.002,1.296,0.492s0.002,1.075-0.491,1.298
	C37.432,17.211,36.851,16.991,36.629,16.497z M39.457,13.224c-0.362,0.163-0.648,0.424-0.846,0.735
	c0.2-0.682,0.684-1.277,1.382-1.592c1.269-0.572,2.761-0.006,3.333,1.265c0.572,1.271,0.006,2.765-1.263,3.336
	c-0.699,0.315-1.464,0.284-2.107-0.019c0.365,0.058,0.75,0.016,1.111-0.147c0.987-0.445,1.427-1.606,0.983-2.595
	C41.604,13.22,40.444,12.779,39.457,13.224z M43.582,19.666c-3.064,1.381-26.811,12.085-26.811,12.085l-0.003-0.008
	c-0.04,0.024-0.081,0.046-0.125,0.065c-0.634,0.286-1.38,0.003-1.666-0.632c-0.286-0.636-0.003-1.382,0.631-1.668
	c0.043-0.02,0.087-0.036,0.131-0.05l-0.003-0.007l29.619-13.351C45.356,16.099,46.646,18.285,43.582,19.666z M44.563,10.922
	c-0.362,0.163-0.648,0.423-0.846,0.735c0.2-0.683,0.684-1.277,1.382-1.592c1.269-0.572,2.761-0.006,3.333,1.265
	s0.006,2.764-1.263,3.336c-0.699,0.315-1.464,0.283-2.107-0.019c0.364,0.058,0.749,0.016,1.111-0.147
	c0.987-0.445,1.427-1.607,0.982-2.595C46.711,10.918,45.55,10.478,44.563,10.922z M34.671,26.142
	c0.493-0.223,1.074-0.002,1.296,0.492s0.002,1.075-0.491,1.297c-0.494,0.223-1.074,0.002-1.296-0.492
	C33.958,26.945,34.178,26.364,34.671,26.142z"/>
</svg>
