<?xml version="1.0" encoding="iso-8859-1"?>
<!-- Generator: Adobe Illustrator 16.0.0, SVG Export Plug-In . SVG Version: 6.00 Build 0)  -->
<!DOCTYPE svg PUBLIC "-//W3C//DTD SVG 1.1//EN" "http://www.w3.org/Graphics/SVG/1.1/DTD/svg11.dtd">
<svg version="1.1" id="Layer_1" xmlns="http://www.w3.org/2000/svg" xmlns:xlink="http://www.w3.org/1999/xlink" x="0px" y="0px"
	 width="69.6px" height="69.598px" viewBox="0 0 69.6 69.598" style="enable-background:new 0 0 69.6 69.598;" xml:space="preserve"
	>
<path style="fill-rule:evenodd;clip-rule:evenodd;fill:#FFFFFF;" d="M65.463,30.481c0-0.046,0-0.092-0.001-0.143
	c-0.041-1.119,0.289-4.498-4.104-12.41c-0.868-1.563-2.331-1.553,2.267-4.69c1.638-1.117,3.182-2.208,3.35-3.402
	C71.009,16.882,70.308,25.308,65.463,30.481z M59.426,14.652c-2.481,1.683,3.614,4.112,5.106,16.734
	c-0.467,0.416-0.962,0.808-1.491,1.167c0.041-0.027-7.973,5.406-7.973,5.406l-0.003-0.004c-0.021,0.015-0.041,0.033-0.062,0.048
	c-1.965,1.333-5.237,0.269-8.733-2.465L0,69.114V38.997L33.724,17.05c-1.266-4.298-1.049-7.767,0.928-9.107
	c0.021-0.015,0.045-0.026,0.067-0.04l-0.002-0.004c0,0,7.92-5.37,7.973-5.406c0.468-0.318,0.95-0.603,1.442-0.859
	c5.148,1.223,5.084,4.173,6.407,3.276c0.798-0.541-1.993-3.553-4.699-3.98c-0.031-0.004-0.058-0.007-0.087-0.011
	c6.973-2.587,15.526,0.391,20.401,7.593c0.006,0.009,0.012,0.019,0.018,0.027C66.019,9.97,63.156,12.123,59.426,14.652z
	 M49.43,19.853c-4.99-7.371-11.182-11.89-13.832-10.093c-1.368,0.927-1.521,3.358-0.666,6.504l3.245-2.111l0.057,0.083
	c0.04-0.042,0.081-0.081,0.128-0.112c1.289-0.874,5.083,2.479,8.474,7.487c3.343,4.938,5.044,9.64,3.857,10.61l0.049,0.071
	l-3.311,2.402c2.583,1.935,4.875,2.679,6.234,1.757C56.317,34.654,54.419,27.223,49.43,19.853z M51.027,35.448
	c-0.147-0.217-0.09-0.512,0.127-0.659s0.512-0.09,0.659,0.126c0.146,0.217,0.09,0.512-0.127,0.659S51.174,35.665,51.027,35.448z
	 M36.462,11.055c-0.147-0.217-0.09-0.512,0.126-0.659c0.217-0.147,0.512-0.09,0.659,0.127c0.147,0.217,0.09,0.512-0.126,0.659
	S36.609,11.272,36.462,11.055z M37.011,14.082c0.147,0.217,0.09,0.512-0.127,0.659c-0.217,0.147-0.512,0.09-0.658-0.127
	c-0.147-0.217-0.09-0.512,0.126-0.659C36.569,13.808,36.864,13.865,37.011,14.082z M7.785,31.032l24.42-15.124l0.069,0.526
	L7.006,32.419L7.785,31.032z M31.008,14.14c-0.147-0.217-0.09-0.512,0.126-0.659c0.217-0.147,0.512-0.09,0.659,0.126
	s0.09,0.512-0.126,0.659S31.155,14.357,31.008,14.14z M29.545,11.979c-0.147-0.217-0.09-0.512,0.126-0.659s0.512-0.09,0.659,0.127
	c0.147,0.217,0.09,0.512-0.126,0.659C29.987,12.252,29.692,12.196,29.545,11.979z M24.257,17.284
	c-0.147-0.217,0.302-0.778,0.519-0.925s0.512-0.09,0.659,0.127c0.147,0.217,0.09,0.512-0.126,0.659
	C25.092,17.292,24.404,17.501,24.257,17.284z M19.495,22.519c-0.147-0.217,1.284-1.444,1.501-1.591s0.512-0.09,0.659,0.127
	c0.147,0.217,0.09,0.512-0.126,0.659S19.642,22.736,19.495,22.519z M19.007,18.837c-0.147-0.217,0.892-1.178,1.108-1.325
	s0.512-0.09,0.659,0.126c0.147,0.217,0.09,0.512-0.126,0.659C20.43,18.445,19.154,19.054,19.007,18.837z M6.892,25.904
	c-0.146-0.217,3.38-2.579,3.597-2.726s0.512-0.09,0.659,0.127c0.147,0.217,0.09,0.512-0.126,0.659S7.039,26.121,6.892,25.904z
	 M36.368,44.904l-5.687,4.715L3.63,69.598H2.191L36.368,44.904z M30.003,55.812c-0.147-0.217,2.588-2.901,2.805-3.048
	c0.217-0.147,0.512-0.09,0.659,0.126s0.09,0.512-0.126,0.659S30.15,56.029,30.003,55.812z M42.562,46.438
	c0.147,0.217,0.09,0.512-0.126,0.659s-2.539,1.751-2.685,1.534c-0.147-0.217,1.936-2.173,2.153-2.32S42.415,46.221,42.562,46.438z
	 M43.385,42.153c0.217-0.147,0.512-0.09,0.659,0.126c0.147,0.217,0.09,0.512-0.126,0.659c-0.217,0.147-1.494,0.756-1.641,0.539
	C42.129,43.261,43.168,42.3,43.385,42.153z M45.715,37.133c0.217-0.147,0.512-0.09,0.659,0.127c0.146,0.217,0.09,0.512-0.127,0.659
	s-0.904,0.356-1.051,0.139C45.049,37.842,45.499,37.28,45.715,37.133z M48.369,40.207c0.147,0.217,0.09,0.512-0.127,0.659
	s-0.512,0.09-0.659-0.126c-0.147-0.217-0.09-0.512,0.127-0.659C47.927,39.934,48.222,39.99,48.369,40.207z M50.864,39.662
	c0.147,0.217,0.09,0.512-0.126,0.659c-0.217,0.147-0.512,0.09-0.659-0.127c-0.147-0.217-0.09-0.512,0.126-0.659
	S50.717,39.445,50.864,39.662z"/>
</svg>
