<?xml version="1.0" encoding="iso-8859-1"?>
<!-- Generator: Adobe Illustrator 16.0.0, SVG Export Plug-In . SVG Version: 6.00 Build 0)  -->
<!DOCTYPE svg PUBLIC "-//W3C//DTD SVG 1.1//EN" "http://www.w3.org/Graphics/SVG/1.1/DTD/svg11.dtd">
<svg version="1.1" id="Layer_1" xmlns="http://www.w3.org/2000/svg" xmlns:xlink="http://www.w3.org/1999/xlink" x="0px" y="0px"
	 width="67.209px" height="32.399px" viewBox="0 0 67.209 32.399" style="enable-background:new 0 0 67.209 32.399;"
	 xml:space="preserve">
<path style="fill-rule:evenodd;clip-rule:evenodd;fill:#FFFFFF;" d="M67.056,8.907c-1.248,2.043-5.336,3.873-8.845,2.951
	c1.021-3.178-3.628-8.852-6.804-11.349C61.825-2.229,68.303,6.865,67.056,8.907z M50.911,20.094
	c-5.671,0.156-16.74-2.602-16.74-3.924c0-3.631-0.113-12.029,1.134-12.71c0.018-0.01,0.032-0.018,0.048-0.027
	c4.143-0.12,7.992-0.688,11.284-1.592c1.988,2.736,2.911,4.734,4.285,4.439c0.897-0.193-1.309-3.154-2.57-4.957
	c0.35-0.116,0.695-0.234,1.029-0.358h0.104c0,0,6.568,7.151,6.568,11.322C56.053,13.791,53.921,16.827,50.911,20.094z M49.624,21.45
	c-5.276,5.405-12.436,10.949-16.005,10.949c-3.584,0-10.722-5.54-15.947-10.955c2.059-0.038,8.615-0.337,13.552-2.55
	c0.668-0.3,1.535-0.641,2.387-0.692c0.85,0.053,1.712,0.39,2.376,0.692C41.502,21.409,48.064,21.453,49.624,21.45z M16.41,20.098
	c-2.947-3.241-5.027-6.264-5.027-7.812c0-4.32,6.277-11.322,6.277-11.322h0.395c0.275,0.102,0.558,0.201,0.844,0.297
	c-1.253,1.796-3.52,4.823-2.612,5.018c1.382,0.297,2.31-1.729,4.323-4.491c3.271,0.917,7.104,1.502,11.236,1.639
	c0.019,0.011,0.036,0.021,0.058,0.033c1.247,0.681,1.134,9.079,1.134,12.71C33.038,17.467,22.189,20.143,16.41,20.098z
	 M8.998,11.858C5.49,12.78,1.401,10.95,0.153,8.907c-1.248-2.042,5.23-11.136,15.648-8.398C12.626,3.006,7.978,8.68,8.998,11.858z"
	/>
</svg>
