<?xml version="1.0" encoding="iso-8859-1"?>
<!-- Generator: Adobe Illustrator 16.0.0, SVG Export Plug-In . SVG Version: 6.00 Build 0)  -->
<!DOCTYPE svg PUBLIC "-//W3C//DTD SVG 1.1//EN" "http://www.w3.org/Graphics/SVG/1.1/DTD/svg11.dtd">
<svg version="1.1" id="Layer_1" xmlns="http://www.w3.org/2000/svg" xmlns:xlink="http://www.w3.org/1999/xlink" x="0px" y="0px"
	 width="67.201px" height="55.921px" viewBox="0 0 67.201 55.921" style="enable-background:new 0 0 67.201 55.921;"
	 xml:space="preserve">
<path style="fill-rule:evenodd;clip-rule:evenodd;fill:#FFFFFF;" d="M33.771,55.921c-18.462,0-33.43-0.831-33.43-1.856
	s14.967-1.856,33.43-1.856c18.463,0,33.43,0.831,33.43,1.856S52.234,55.921,33.771,55.921z M64.725,29.682
	c-2.724,1.403-7.181,3.218-7.181,3.218c-0.79-3.068-1.792-5.867-6.438-5.693c-5.046,0.189-8.378,4.492-14.61,10.892
	c-3.583,3.679-5.695,6.188-9.41,6.188c-3.714,0-23.261,0.521-26.744,0.495c-1.073-2.31,0.304-7.485,5.2-10.396
	c0.679-0.285,7.728-0.072,12.877-0.248c4.952-0.168,9.492,0.578,12.876-2.476c3.384-3.053,14.527-14.027,16.343-15.594
	c1.816-1.568,5.696-3.631,10.896-2.476c-1.507-1.831-6.191-3.136-10.648,0.495c-0.923-0.304-0.66-0.99,0.248-2.723
	c0.908-1.732,1.073-2.063,0.248-4.703c-0.826-2.64-1.486-4.208-1.733-5.198s0.908-1.898,3.467-1.238
	c2.559,0.66,5.738,1.507,9.162,7.674c1.506,2.712,2.229,5.611,2.972,7.179c2.502,2,3.549,3.96,4.209,6.188
	c-4.494,1.614-7.594,2.806-8.667,3.218c-2.899-1.82-6.52-3.216-11.639-0.495c-4.452,2.367-6.653,5.314-10.896,9.654
	c-1.542,1.578-0.165,2.806,1.238,1.238s5.613-5.611,6.934-6.931s6.117-4.41,9.905-3.465c2.399,0.598,3.714,2.228,4.705,1.98
	c0.991-0.248,8.089-2.888,8.667-3.218C66.975,25.567,67.449,28.279,64.725,29.682z M45.41,12.354
	c-2.146,2.228-14.716,15.194-17.829,18.318c-0.653,0.655-2.229,1.402-6.438,1.485s-9.002,0.253-9.905,0
	c-0.331-0.742,0.578-1.32,1.485-1.98c0.908-0.66,1.733-1.155,2.477-1.733c0.743-0.578,0.99-0.495,3.467-0.495
	c2.476,0,4.952,0.083,6.934-1.485c1.981-1.568,13.619-13.367,15.353-15.348c1.733-1.98,0.884-3.206,0-6.188
	c-0.206-0.696,0.015-1.366,1.486-1.98c2.038-0.851,1.981-0.578,2.972,1.98C46.401,7.486,47.556,10.127,45.41,12.354z M21.638,25.969
	c-1.877,0.196-3.002,0.33-3.467,0.247c0-1.155,0.826-1.567,2.477-2.228s3.632-1.568,4.953-3.218
	c1.321-1.65,5.283-12.789,5.695-14.109s3.271-2.94,5.943-3.465c0.944-0.186,1.707,0.623,2.724,4.456
	c0.402,1.516,1.816,0.743-6.438,8.911C25.27,24.731,24.68,25.651,21.638,25.969z M52.839,34.138c0,1.094-0.887,1.98-1.981,1.98
	s-1.981-0.887-1.981-1.98s0.887-1.98,1.981-1.98S52.839,33.044,52.839,34.138z M47.391,32.652
	c-1.898,1.898-5.778,6.023-10.153,10.149c-4.375,4.125-7.294,5.42-9.41,5.446c-4.127,0.05-24.103,0.18-27.487,0.247
	c0.083-0.577,0.495-1.65,1.486-2.228c2.915,0.015,21.708,0,25.01-0.248s5.406-1.453,7.429-3.218
	c2.229-1.944,2.641-2.393,8.419-8.417c5.778-6.023,7.674-6.11,10.4-5.198c2.636,0.882,3.25,4.141,2.972,6.188
	c1.486-0.743,6.335-2.986,9.658-4.456c-0.248,1.402-1.48,2.797-2.972,3.465c-2.276,1.02-8.615,4.033-11.143,5.446
	c-0.166-0.825-0.248-1.65,1.485-3.218c1.733-1.568,1.156-3.878,0-4.951C51.931,30.59,49.29,30.755,47.391,32.652z"/>
</svg>
