<?xml version="1.0" encoding="iso-8859-1"?>
<!-- Generator: Adobe Illustrator 16.0.0, SVG Export Plug-In . SVG Version: 6.00 Build 0)  -->
<!DOCTYPE svg PUBLIC "-//W3C//DTD SVG 1.1//EN" "http://www.w3.org/Graphics/SVG/1.1/DTD/svg11.dtd">
<svg version="1.1" id="Layer_1" xmlns="http://www.w3.org/2000/svg" xmlns:xlink="http://www.w3.org/1999/xlink" x="0px" y="0px"
	 width="69.597px" height="65.76px" viewBox="0 0 69.597 65.76" style="enable-background:new 0 0 69.597 65.76;"
	 xml:space="preserve">
<path style="fill-rule:evenodd;clip-rule:evenodd;fill:#FFFFFF;" d="M58.583,23.168c-0.592,0.194-1.367,0.088-1.875,0
	c1.563-2.73,6.952-10.765,12.888-16.615c0,1.472,0,1.794,0,2.808C66.512,12.096,63.153,14.895,58.583,23.168z M49.445,20.594
	C51.398,17.941,64.442,2.106,66.082,0c1.64,0,3.515,0,3.515,0v4.212c0,0-9.709,10.877-14.293,18.722
	C54.01,22.895,50.753,21.467,49.445,20.594z M41.479,26.21c-2.734,2.184-6.17,1.604-8.67,0.702c4.53,5.07,10.466,0.078,12.653-1.872
	s2.914-3.223,3.515-2.809c1.069,0.738,3.334,1.726,5.39,2.34c-0.625,1.014-1.426,2.628-2.109,4.681
	c-0.596,1.79,0.938,1.794,1.406,0.234c0.469-1.561,0.937-2.809,1.64-3.979s0.728-0.917,2.343-0.702
	c-0.703,0.936-1.718,3.315-1.64,4.681c0.312,1.794,0.312,7.411-0.234,9.126c-0.547,1.716-1.796,5.539-1.875,7.255
	s0.292,6.669,0.937,9.361c-0.546-0.546-1.513-1.438-2.812-1.17c-1.8,0.372-2.856,2.691-3.281,4.915
	c-0.781-1.249-1.64-3.511-1.875-5.383s-2.021-9.288-7.029-9.595c-5.848-0.359-7.577,2.496-11.248,5.616
	c-3.671,3.121-9.949,6.27-13.356,7.489c1.093-1.014,1.875-2.808,1.875-3.979c0-1.17-0.576-1.833-2.109-2.106
	c1.796-1.248,7.552-5.319,11.247-8.191c-2.421,1.092-16.578,6.879-19.448,7.723c-0.078-0.546,0.078-0.78,1.171-1.638
	c1.094-0.858,1.796-1.561,1.875-2.574c0.078-1.014-0.493-1.585-2.343-2.106c3.046-1.248,11.487-5.251,15.934-7.957
	c-0.703,0.234-4.892,1.794-7.499,2.808c3.027-1.901,5.312-4.792,7.499-5.851c-0.156,0.468-0.781,0.702,0,0.936
	c0.781,0.234,3.124-0.702,3.983-2.34c0.859-1.638-0.02-1.916-0.703-1.638c1.328-1.249,2.954-2.326,4.687-4.212
	c-1.718-2.574-1.25-4.915,0.469-8.659C33.59,13.573,40.697,3.432,43.119,0c5.243,0,16.246,0,20.386,0
	C48.352,19.58,44.212,24.026,41.479,26.21z M30.465,32.529c-1.113-0.702-1.933,0.176-2.577,0.936
	c-0.645,0.761-1.875,1.346-1.875,2.106s-0.007,0.98,0.234,1.17c0.944,0.743,2.695,0.292,3.749-0.702
	C31.051,35.045,31.579,33.231,30.465,32.529z M31.872,37.443c-1.37,1.572-1.523,2.867-0.703,3.51
	c0.82,0.644,2.519,0.292,3.515-0.936c0.996-1.229,1.347-3.101,0.469-3.744C34.273,35.63,33.043,36.098,31.872,37.443z
	 M45.338,18.265c2.937-4.495,3.251-9.486,0.702-11.146c-2.549-1.661-6.996,0.637-9.933,5.132c-2.937,4.495-3.25,9.486-0.702,11.146
	S42.402,22.761,45.338,18.265z M38.687,14.267c2.298-3.514,5.777-5.311,7.772-4.012c0.211,1.229-0.29,4.101-1.934,7.063
	c-2.523,4.546-6.111,5.203-7.012,5.084C36.232,20.746,36.666,17.356,38.687,14.267z M7.971,45.634
	c0.996,1.696-1.23,2.574-1.875,3.51s-0.234,1.58,0.938,2.106c-2.186,1.009-5.975,0.937-6.795-1.17
	c-0.82-2.106,0.645-3.979,1.875-4.681C3.343,44.698,6.975,43.938,7.971,45.634z M6.542,46.287c-0.207-0.765-1.464-1.101-2.809-0.75
	s-2.267,1.254-2.061,2.019c0.207,0.765,1.464,1.101,2.809,0.75S6.749,47.052,6.542,46.287z M8.205,53.123
	c2.578-1.872,5.624-1.696,6.795-0.702c1.171,0.995,0.352,3.159-0.469,3.978c-0.82,0.819-1.23,1.463-0.703,2.575
	c-2.867,0.588-5.741-0.059-6.327-0.702C6.917,57.628,5.627,54.995,8.205,53.123z M8.669,55.019c0.235,0.827,1.569,1.166,2.981,0.756
	s2.367-1.411,2.132-2.238s-1.569-1.166-2.981-0.756S8.435,54.192,8.669,55.019z M50.148,58.037c0.235-1.17,1.055-2.398,2.812-2.34
	c1.757,0.058,3.046,1.345,3.749,3.978c0.703,2.633-0.022,6.096-3.28,6.084c-3.422-0.011-4.979-3.825-4.687-6.084
	C49.742,60.026,49.914,59.208,50.148,58.037z M51.812,60.329c0.246,1.597,1.327,2.756,2.414,2.588
	c1.087-0.167,1.769-1.597,1.523-3.193s-1.327-2.756-2.414-2.589C52.248,57.302,51.565,58.732,51.812,60.329z"/>
</svg>
