<?xml version="1.0" encoding="iso-8859-1"?>
<!-- Generator: Adobe Illustrator 16.0.0, SVG Export Plug-In . SVG Version: 6.00 Build 0)  -->
<!DOCTYPE svg PUBLIC "-//W3C//DTD SVG 1.1//EN" "http://www.w3.org/Graphics/SVG/1.1/DTD/svg11.dtd">
<svg version="1.1" id="Layer_1" xmlns="http://www.w3.org/2000/svg" xmlns:xlink="http://www.w3.org/1999/xlink" x="0px" y="0px"
	 width="50.64px" height="69.602px" viewBox="0 0 50.64 69.602" style="enable-background:new 0 0 50.64 69.602;"
	 xml:space="preserve">
<path style="fill-rule:evenodd;clip-rule:evenodd;fill:#FFFFFF;" d="M9.421,26.111c1.476,0.158,5.123,0.235,6.831,0.235
	c-0.773,0.97-1.178,1.881-1.178,1.881s-3.416,0-4.475-0.235C9.922,26.944,9.598,26.632,9.421,26.111z M12.719,34.809l-0.707-2.351
	h1.178L12.719,34.809z M11.07,29.402h3.062c0,0-0.647,1.528-0.707,1.881c-0.644,0.187-1.034,0.07-1.649,0
	C11.401,30.419,11.07,29.402,11.07,29.402z M31.326,40.921c-8.538,3.938-18.405,2.358-21.198,1.646c0,0,0.53,1.649,0.942,2.586
	c15.074,2.174,20.135-1.679,22.141-3.056c0.725-10.374,3.415-11.931,5.653-13.635c2.237-1.704,4.004-2.351,4.004-2.351
	s-0.173,0.867-0.235,1.881c-2.768,1.763-5.889,4.702-5.889,4.702s0.427,0.665,0.707,1.175c1.001-0.999,4.946-4.231,4.946-4.231
	s-0.235,0.881-0.235,1.88c-1.472,1-4.004,3.526-4.004,3.526s0.423,0.547,0.707,1.175c1.177-1.234,2.826-2.821,2.826-2.821
	l-0.235,1.881c0,0-1.232,1.41-2.355,2.586c-0.471,5.563-0.393,19.042,0.942,22.803c1.335,3.761,4.76,6.484,10.599,8.933
	c0,0-36.797,0-41.925,0c1.806-1.019,5.888-4.702,5.888-4.702s0.304,0.612,1.413,3.526c0.393-1.881,0.368-5.877,0-8.934
	c-2.905-0.548-3.611-2.116-5.182-6.582c-1.57-4.467-3.332-8.729-4.24-11.049c-1.183-0.436-1.914-0.661-3.297-1.41
	C0.157,29.324,0,23.055,0,23.055s1.462,0.666,2.826,0.94C1.021,16.237,5.255,0.496,20.491,0.016
	c16.563-0.521,19.707,11.911,20.492,19.042c-2.395,1.375-5.402,2.817-15.31,4.231c-10.8,1.542-16.767,0.033-20.256-0.705
	c0.177,1.998,0.048,2.523,0.707,2.821c1.515,0.684,2.355,1.176,3.298,3.526c0.942,2.351,2.138,6.263,3.297,10.109
	c0.354-2.175,1.767-6.406,3.297-10.109c1.531-3.703,6.89-2.527,15.31-3.996c8.42-1.47,11.542-4.702,11.542-4.702
	s0.015,2.315,0,4.467C32.677,30.026,32.184,32.862,31.326,40.921z M18.843,62.549c7.125,0.529,8.107-2.825,11.306-8.463
	c2.167-3.821,5.888-10.05,5.888-11.049c0-0.999-0.177-3.232-0.235-5.171c-0.541,2.075-0.534,4.323-1.178,5.407
	c-1.089,1.832-5.123,8.992-7.537,12.459c-2.414,3.468-5.197,3.971-8.244,3.997C18.843,59.728,18.795,61.241,18.843,62.549z"/>
</svg>
