<?xml version="1.0" encoding="iso-8859-1"?>
<!-- Generator: Adobe Illustrator 16.0.0, SVG Export Plug-In . SVG Version: 6.00 Build 0)  -->
<!DOCTYPE svg PUBLIC "-//W3C//DTD SVG 1.1//EN" "http://www.w3.org/Graphics/SVG/1.1/DTD/svg11.dtd">
<svg version="1.1" id="Layer_1" xmlns="http://www.w3.org/2000/svg" xmlns:xlink="http://www.w3.org/1999/xlink" x="0px" y="0px"
	 width="48.235px" height="67.204px" viewBox="0 0 48.235 67.204" style="enable-background:new 0 0 48.235 67.204;"
	 xml:space="preserve">
<path style="fill-rule:evenodd;clip-rule:evenodd;fill:#FFFFFF;" d="M47.207,27.967c-0.423-0.253-1.269-2.531-2.791-4.81
	s-3.008-3.138-3.806-6.329c2.622,0.591,3.214,0.759,4.313,1.519c1.1,0.759,2.874,6.679,3.298,9.113
	C48.343,28.157,47.63,28.22,47.207,27.967z M42.64,16.07c-0.846,0-1.607-0.084-3.298-2.278s-2.802-5.105-2.03-5.063
	c1.959,0.107,4.313,1.181,5.582,3.797S43.485,16.07,42.64,16.07z M40.61,7.463c-0.676,0.422-2.664-0.026-5.075-1.012
	c-0.169-1.097-0.988-3.653-3.044-5.822c-1.3-1.371,3.637-0.253,5.075,1.013C39.003,2.907,41.287,7.041,40.61,7.463z M32.998,5.691
	c-0.248,1.484-5.258,2.645-8.88,2.776c-3.622-0.131-8.633-1.292-8.88-2.776c-0.254-1.519,0.999-3.592,2.284-4.557
	c2.246,0.48,4.454,0.616,6.597,0.576c2.143,0.041,4.351-0.096,6.597-0.576C31.999,2.1,33.252,4.172,32.998,5.691z M15.745,0.628
	c-2.057,2.169-2.875,4.725-3.045,5.822c-2.41,0.986-4.398,1.435-5.074,1.012C6.949,7.041,9.232,2.907,10.67,1.641
	C12.108,0.375,17.045-0.743,15.745,0.628z M8.894,13.792c-1.691,2.194-2.453,2.278-3.298,2.278s-1.522-0.928-0.254-3.544
	s3.623-3.69,5.582-3.797C11.696,8.687,10.585,11.598,8.894,13.792z M3.819,23.158c-1.522,2.278-2.368,4.557-2.791,4.81
	s-1.136,0.19-1.015-0.506c0.425-2.434,2.199-8.354,3.298-9.113c1.1-0.76,1.691-0.928,4.313-1.519
	C6.827,20.02,5.342,20.879,3.819,23.158z M6.61,24.17c0,0-0.676,1.266-1.015,1.771c-0.338,0.506-2.538,0.506-2.538,0.506
	l1.522-2.025L6.61,24.17z M6.864,20.879c1.131-0.143,2.03,0,2.03,0s-0.677,1.266-1.269,2.025c-0.74,0.301-2.284,0-2.284,0
	S6.103,21.554,6.864,20.879z M12.446,8.729c0.455-0.359,0.951-0.369,1.522-0.506c-0.735,2.99-1.94,4.425-4.821,6.582
	C11.68,12.178,12.108,10.248,12.446,8.729z M15.491,26.448c1.099,1.772,3.552,4.81,5.582,5.569
	c-3.008,1.719-7.482,5.704-8.88,11.138c-0.809,3.144-1.607,4.05-2.03,2.532C9.74,44.168,10.903,30.588,15.491,26.448z
	 M15.491,54.546c-0.481,3.797-1.776,9.282-2.03,12.657c-1.364-1.577-5.328-7.214-1.776-16.96
	C13.461,52.437,14.476,53.872,15.491,54.546z M19.043,54.293c-0.497,4.873-2.405,5.875-4.06,11.645
	c0.254-2.363,1.781-10.021,2.284-12.404C17.584,52.031,19.212,51.931,19.043,54.293z M15.491,50.75
	c-1.628-0.29-1.972-2.046-1.776-4.81c1.776-0.49,4.086-0.095,5.328,1.013C18.821,48.524,18.084,51.211,15.491,50.75z M14.983,40.877
	c1.945,0.253,4.398,0.59,6.597,0.506c-0.719,1.709-1.015,2.278-1.015,2.278s-4.567-0.084-6.597-0.506
	C14.154,42.175,14.561,41.531,14.983,40.877z M17.013,37.08c0,0,3.299,0.337,5.836,0.253c0.291,0.422-0.338,1.688-0.761,2.531
	c-1.401-0.174-5.238-0.121-6.597-0.253C16.083,38.177,17.013,37.08,17.013,37.08z M19.297,27.208c0.084-0.506,2.791,0,4.821,0
	s4.736-0.506,4.821,0s-1.607,2.362-2.791,3.544c-0.55,0.548-1.273,0.874-2.03,0.909c-0.757-0.035-1.48-0.36-2.03-0.909
	C20.904,29.57,19.212,27.714,19.297,27.208z M31.222,37.08c0,0,0.93,1.097,1.522,2.531c-1.358,0.132-5.196,0.08-6.597,0.253
	c-0.423-0.844-1.052-2.109-0.761-2.531C27.923,37.417,31.222,37.08,31.222,37.08z M33.252,40.877
	c0.423,0.654,0.83,1.297,1.015,2.278c-2.03,0.422-6.597,0.506-6.597,0.506s-0.296-0.569-1.015-2.278
	C28.854,41.468,31.307,41.13,33.252,40.877z M30.968,53.534c0.503,2.383,2.03,10.041,2.284,12.404
	c-1.655-5.77-3.563-6.771-4.06-11.645C29.023,51.931,30.651,52.031,30.968,53.534z M36.55,50.243
	c3.552,9.746-0.412,15.384-1.776,16.96c-0.254-3.375-1.549-8.86-2.03-12.657C33.759,53.872,34.774,52.437,36.55,50.243z
	 M32.744,50.75c-2.593,0.462-3.33-2.226-3.552-3.797c1.242-1.107,3.552-1.503,5.328-1.013C34.716,48.704,34.373,50.459,32.744,50.75
	z M31.983,22.145c0.042,1.287-0.085,1.772-0.508,2.278c-1.649,0.306-2.664,0.533-4.313,0.506c0.592-0.928,0.592-1.181,0.761-2.025
	C29.213,22.393,31.391,22.398,31.983,22.145z M24.118,22.651c1.014,0.036,2.199-0.506,2.03,0.759
	c-0.169,1.266-0.386,2.025-2.03,2.025s-1.861-0.759-2.03-2.025C21.918,22.145,23.104,22.687,24.118,22.651z M24.118,10.828
	c1.062,0.009,2.1-0.094,3.045-0.327c0.898,2.368-0.085,6.244-1.269,10.125c-0.6,0.134-1.194,0.172-1.776,0.164
	c-0.582,0.008-1.176-0.03-1.776-0.164c-1.184-3.882-2.167-7.758-1.269-10.125C22.018,10.734,23.056,10.837,24.118,10.828z
	 M21.073,24.93c-1.649,0.026-2.664-0.201-4.313-0.506c-0.423-0.506-0.55-0.991-0.508-2.278c0.592,0.253,2.77,0.248,4.06,0.759
	C20.481,23.749,20.481,24.001,21.073,24.93z M17.521,19.614c-0.617-2.26-1.184-3.628-1.776-5.316s-0.93-4.472,0.254-4.81
	s1.063,0.227,2.791,0.506c-0.793,2.373-0.729,4.873,1.269,10.885C18.229,20.5,17.904,21.019,17.521,19.614z M32.237,9.488
	c1.184,0.337,0.846,3.122,0.254,4.81c-0.592,1.688-1.159,3.056-1.776,5.316c-0.383,1.405-0.708,0.886-2.537,1.266
	c1.998-6.012,2.062-8.512,1.269-10.885C31.174,9.715,31.053,9.151,32.237,9.488z M34.267,8.223c0.571,0.137,1.068,0.147,1.522,0.506
	c0.338,1.519,0.767,3.449,3.298,6.075C36.207,12.647,35.001,11.213,34.267,8.223z M36.043,43.155
	c-1.398-5.434-5.873-9.418-8.88-11.138c2.03-0.76,4.482-3.797,5.582-5.569c4.588,4.14,5.751,17.72,5.329,19.239
	C37.65,47.206,36.852,46.299,36.043,43.155z M41.371,20.879c0.761,0.675,1.522,2.025,1.522,2.025s-1.543,0.301-2.284,0
	c-0.592-0.759-1.269-2.025-1.269-2.025S40.24,20.737,41.371,20.879z M45.177,26.448c0,0-2.199,0-2.538-0.506
	c-0.338-0.506-1.015-1.771-1.015-1.771l2.03,0.253L45.177,26.448z"/>
</svg>
