<?xml version="1.0" encoding="iso-8859-1"?>
<!-- Generator: Adobe Illustrator 16.0.0, SVG Export Plug-In . SVG Version: 6.00 Build 0)  -->
<!DOCTYPE svg PUBLIC "-//W3C//DTD SVG 1.1//EN" "http://www.w3.org/Graphics/SVG/1.1/DTD/svg11.dtd">
<svg version="1.1" id="Layer_1" xmlns="http://www.w3.org/2000/svg" xmlns:xlink="http://www.w3.org/1999/xlink" x="0px" y="0px"
	 width="67.2px" height="66.486px" viewBox="0 0 67.2 66.486" style="enable-background:new 0 0 67.2 66.486;" xml:space="preserve"
	>
<path style="fill-rule:evenodd;clip-rule:evenodd;fill:#FFFFFF;" d="M57.254,11.969c-0.189,1.077-0.566,2.089-1.096,3.001
	c-0.001,0.003-0.003,0.005-0.004,0.008c-0.131,0.225-0.271,0.444-0.42,0.657c-0.003,0.004-0.006,0.009-0.01,0.013
	c-0.448,0.636-0.973,1.213-1.564,1.716c-0.011,0.009-0.021,0.019-0.032,0.028c-0.187,0.158-0.38,0.307-0.579,0.45
	c-0.021,0.015-0.043,0.03-0.064,0.046c-0.197,0.138-0.398,0.27-0.606,0.393c-0.021,0.013-0.043,0.025-0.065,0.038
	c-0.213,0.124-0.432,0.241-0.656,0.349c-0.005,0.002-0.012,0.005-0.017,0.008c-0.224,0.106-0.454,0.203-0.687,0.292
	c-0.017,0.006-0.034,0.014-0.051,0.02c-0.225,0.084-0.456,0.157-0.688,0.224c-0.036,0.01-0.072,0.021-0.108,0.031
	c-0.227,0.062-0.458,0.114-0.692,0.158c-0.041,0.008-0.082,0.015-0.122,0.022c-0.237,0.042-0.477,0.075-0.72,0.098
	c-0.032,0.003-0.065,0.005-0.098,0.008c-0.256,0.021-0.514,0.035-0.776,0.035c-0.152,0-0.304-0.004-0.455-0.011
	c-0.066-0.003-0.131-0.01-0.197-0.014c-0.083-0.006-0.165-0.011-0.247-0.019c-0.087-0.008-0.173-0.02-0.259-0.031
	c-0.058-0.007-0.116-0.013-0.174-0.022c-0.101-0.015-0.2-0.032-0.299-0.05c-0.041-0.007-0.082-0.014-0.123-0.021
	c-0.111-0.021-0.221-0.046-0.33-0.071c-0.027-0.006-0.054-0.012-0.081-0.019c-0.119-0.029-0.237-0.06-0.354-0.093
	c-0.016-0.004-0.031-0.009-0.046-0.013c-0.125-0.036-0.249-0.075-0.372-0.116c-0.007-0.002-0.013-0.004-0.02-0.007
	c-0.129-0.043-0.256-0.09-0.382-0.139l0,0c-7.479,3.384-13.519,4.591-14.615,2.639c-1.037-1.847,2.647-5.999,8.795-10.354l0,0
	c-0.013-0.14-0.023-0.28-0.03-0.422C39.004,10.654,39,10.51,39,10.365c0-5.079,4.118-9.196,9.198-9.196
	c0.232,0,0.461,0.012,0.688,0.028c0.045,0.003,0.091,0.006,0.137,0.01c0.219,0.02,0.437,0.046,0.652,0.081
	c0.039,0.006,0.077,0.014,0.115,0.021c0.205,0.036,0.407,0.077,0.606,0.126c0.022,0.006,0.045,0.01,0.067,0.016
	c0.212,0.054,0.42,0.116,0.626,0.185c0.042,0.014,0.083,0.028,0.125,0.042c0.204,0.071,0.405,0.147,0.603,0.231
	c0.022,0.01,0.044,0.02,0.066,0.03c0.187,0.082,0.37,0.17,0.55,0.264c0.029,0.015,0.058,0.029,0.086,0.044
	c0.188,0.1,0.372,0.207,0.552,0.32c0.034,0.021,0.067,0.043,0.101,0.065c0.183,0.118,0.363,0.24,0.538,0.371
	c6.87-2.942,12.284-3.904,13.316-2.067C68.117,2.878,63.984,7.373,57.254,11.969z M63.875,2.676
	c-0.043-0.077-0.099-0.146-0.161-0.211c-0.018-0.02-0.039-0.037-0.059-0.055c-0.05-0.046-0.104-0.088-0.164-0.128
	c-0.023-0.016-0.046-0.032-0.071-0.046c-0.171-0.1-0.376-0.177-0.615-0.232c-0.031-0.007-0.064-0.013-0.096-0.02
	c-0.096-0.019-0.197-0.035-0.303-0.047c-0.034-0.004-0.068-0.008-0.103-0.012c-0.284-0.026-0.599-0.03-0.944-0.012
	c-0.033,0.001-0.066,0.004-0.1,0.006c-0.148,0.01-0.303,0.023-0.462,0.041c-0.034,0.003-0.067,0.007-0.101,0.011
	c-0.39,0.046-0.808,0.115-1.253,0.207c-0.022,0.004-0.045,0.01-0.068,0.014c-0.207,0.043-0.419,0.091-0.638,0.144
	c-0.024,0.006-0.047,0.011-0.071,0.017c-0.486,0.119-0.997,0.26-1.531,0.424c-0.007,0.002-0.014,0.004-0.021,0.007
	c-0.261,0.08-0.528,0.166-0.8,0.256c-0.013,0.004-0.027,0.009-0.04,0.014c-0.565,0.189-1.151,0.4-1.755,0.632l0,0
	c-2.459,0.945-5.215,2.237-8.048,3.818c-3.815,2.129-7.109,4.415-9.474,6.471c-0.006,0.006-0.013,0.011-0.019,0.017
	c-0.647,0.564-1.223,1.11-1.721,1.631c-0.017,0.018-0.034,0.035-0.05,0.053c-0.324,0.342-0.614,0.672-0.867,0.989
	c-0.01,0.013-0.019,0.025-0.029,0.037c-0.11,0.139-0.212,0.275-0.308,0.409c-0.02,0.028-0.04,0.057-0.06,0.084
	c-0.097,0.138-0.187,0.273-0.267,0.405c-0.004,0.006-0.008,0.012-0.012,0.018c-0.083,0.139-0.157,0.272-0.222,0.404
	c-0.013,0.026-0.024,0.051-0.036,0.077c-0.048,0.102-0.09,0.201-0.127,0.298c-0.012,0.031-0.024,0.063-0.034,0.094
	c-0.038,0.11-0.068,0.217-0.089,0.319c-0.001,0.007-0.004,0.015-0.006,0.022c-0.021,0.108-0.03,0.212-0.032,0.312
	c0,0.027,0.002,0.053,0.002,0.08c0.002,0.074,0.011,0.145,0.024,0.213c0.005,0.026,0.01,0.053,0.017,0.078
	c0.024,0.087,0.054,0.172,0.098,0.25c0.823,1.458,4.997,0.787,10.376-1.416c-1.637-0.937-2.956-2.363-3.763-4.078
	c2.501-2.547,11.971-7.593,16.029-8.925c0.943,1.443,1.495,3.166,1.495,5.02c0,0.095-0.004,0.188-0.007,0.283
	C61.999,7.266,64.689,4.12,63.875,2.676z M23.302,30.842c-1.195-3.755-11.15-11.066-13.49-12.016
	c-0.364-0.777-0.649-1.5-0.879-2.179c-0.495,0.881-1.235,1.443-2.064,1.443c-0.764,0-1.451-0.478-1.942-1.242
	c-0.324,0.319-0.709,0.506-1.124,0.506c-0.619,0-1.173-0.415-1.555-1.069c-0.225,0.21-0.49,0.333-0.775,0.333
	C0.659,16.618,0,15.63,0,14.411c0-1.219,0.659-2.207,1.472-2.207c0.213,0,0.415,0.069,0.597,0.191
	c0.375-0.854,1.011-1.417,1.733-1.417c0.375,0,0.726,0.153,1.029,0.417c0.495-0.855,1.223-1.398,2.037-1.398
	c0.668,0,1.278,0.366,1.75,0.97c0.239-0.493,0.57-0.822,0.949-0.97c3.75-1.465,5.421,1.441,6.868,5.64
	c6.868,3.188,11.181,7.531,13.981,11.526C29.434,30.515,26.082,31.005,23.302,30.842z M1.909,12.837
	c-0.117-0.06-0.24-0.099-0.37-0.099c-0.627,0-1.136,0.749-1.136,1.673c0,0.924,0.509,1.673,1.136,1.673
	c0.186,0,0.359-0.072,0.514-0.188c-0.211-0.499-0.335-1.092-0.335-1.73C1.717,13.691,1.787,13.242,1.909,12.837z M2.287,14.166
	c0,0.423,0.073,0.819,0.2,1.165c0.118-0.264,0.188-0.58,0.188-0.92c0-0.421-0.109-0.801-0.283-1.095
	C2.325,13.581,2.287,13.867,2.287,14.166z M4.557,11.964c-0.202-0.137-0.424-0.214-0.66-0.214c-0.576,0-1.079,0.455-1.363,1.136
	c0.253,0.396,0.41,0.934,0.41,1.526c0,0.487-0.106,0.935-0.284,1.3c0.295,0.533,0.74,0.872,1.238,0.872
	c0.266,0,0.516-0.098,0.737-0.27c-0.293-0.647-0.464-1.428-0.464-2.269C4.17,13.282,4.313,12.572,4.557,11.964z M5.142,12.635
	c-0.148,0.422-0.234,0.9-0.234,1.409c0,0.565,0.105,1.093,0.287,1.548c0.195-0.4,0.312-0.892,0.312-1.425
	C5.506,13.585,5.37,13.051,5.142,12.635z M8.356,11.731c-0.366-0.469-0.843-0.754-1.366-0.754c-0.647,0-1.225,0.434-1.607,1.116
	c0.313,0.558,0.503,1.281,0.503,2.074c0,0.731-0.163,1.403-0.434,1.941c0.381,0.615,0.928,1.003,1.538,1.003
	c0.696,0,1.31-0.504,1.688-1.276C8.188,14.091,8.135,12.715,8.356,11.731z M12.019,30.351c0.348-0.249,0.715-0.394,1.091-0.46
	c0.116-0.021,0.233-0.028,0.35-0.033c0-0.002-0.001-0.004-0.001-0.005c0.263-0.012,0.529,0.01,0.796,0.067
	c0.002,0.003,0.003,0.007,0.005,0.011c0.952,0.205,1.909,0.807,2.747,1.569c0.001,0,0.002,0,0.003,0
	c0.255,0.232,0.499,0.479,0.729,0.733c0,0-0.001,0-0.001,0c0.416,0.459,0.783,0.942,1.081,1.408c0.006,0.01,0.012,0.019,0.019,0.029
	c0.095,0.15,0.184,0.298,0.263,0.442c0.18,0.326,0.317,0.633,0.407,0.909c0.021,0.808,0.023,1.417,0.115,0.726
	c-0.164,1.226-0.409,2.861-0.49,3.679c0.797,1.129,2.044,6.458-3.189,7.111c-3.853-2.616-6.214-4.087-3.188-10.79
	c-0.019-0.033-0.039-0.068-0.06-0.104c-0.007-0.011-0.014-0.022-0.021-0.033c-0.016-0.025-0.032-0.051-0.049-0.078
	c-0.007-0.012-0.016-0.024-0.024-0.037c-0.018-0.027-0.036-0.055-0.055-0.083c-0.007-0.01-0.014-0.02-0.02-0.029
	c-0.744-1.097-2.274-2.918-0.952-4.574C11.698,30.655,11.843,30.502,12.019,30.351z M19.383,31.275
	c-0.229,0.26-0.5,0.471-0.799,0.635c-0.181-0.268-0.362-0.504-0.544-0.704c0.351-0.188,0.654-0.462,0.871-0.82
	c-0.313-0.436-0.725-0.822-1.229-1.117c-1.12-0.654-2.404-0.696-3.429-0.236c-0.644-0.128-1.218-0.1-1.735,0.044
	c0.221-0.233,0.467-0.438,0.734-0.611c0.032-0.44,0.155-0.872,0.383-1.27c0.268-0.466,0.647-0.829,1.091-1.082
	c0.019-0.262,0.093-0.521,0.233-0.757c0.534-0.908,1.793-1.166,2.813-0.575c0.732,0.425,1.139,1.172,1.113,1.896
	c1.008,0.901,1.444,2.24,1.123,3.43c0.905,1.375,1.058,3.094,0.241,4.492c-0.179,0.306-0.397,0.575-0.641,0.814l0,0
	c-0.019-0.122-0.053-0.254-0.099-0.396c-0.014-0.531-0.035-1.147-0.094-1.538C19.668,32.771,19.647,31.994,19.383,31.275z
	 M16.01,27.668c0.122,0.071,0.249,0.12,0.377,0.16c0.137,0.02,0.274,0.042,0.412,0.074c0.56,0.033,1.096-0.205,1.375-0.68
	c0.022-0.038,0.035-0.079,0.053-0.119c-0.124-0.104-0.254-0.203-0.398-0.288c-0.856-0.507-1.845-0.528-2.613-0.142
	C15.331,27.068,15.604,27.433,16.01,27.668z M14.842,26.908c-0.23,0.177-0.43,0.396-0.582,0.661c-0.092,0.159-0.16,0.326-0.21,0.496
	c0.438-0.165,0.909-0.256,1.391-0.281C15.164,27.535,14.961,27.232,14.842,26.908z M17.502,25.132
	c-0.783-0.454-1.752-0.254-2.165,0.446c-0.06,0.101-0.1,0.208-0.13,0.316c0.941-0.342,2.072-0.256,3.065,0.333
	c0.018,0.011,0.035,0.023,0.053,0.034C18.239,25.817,17.954,25.394,17.502,25.132z M18.634,27.518
	c-0.2,0.329-0.495,0.572-0.841,0.716c0.165,0.075,0.328,0.157,0.489,0.25c0.356,0.208,0.673,0.453,0.959,0.722
	C19.245,28.612,19.029,28.013,18.634,27.518z M12.019,51.686c3.26-0.194,3.598-0.49,3.924-0.981c0.327-0.49-0.981-1.553-0.981-1.962
	s0.491-0.654,2.453,0.246c1.962,0.899,2.535,2.125,3.434,2.697s3.542,2.043,5.396,3.433c0.245,1.88-1.717,4.169-2.944,4.414
	c-1.757-0.868-3.275-2.672-5.151-3.923c-1.88,0.245-4.579-0.327-5.887-0.981S11.142,51.738,12.019,51.686z M27.227,55.855
	c0,0,0.736,0.572,2.208,1.717c1.472,1.144,2.208,0.981,3.188,1.471c0.981,0.49,1.467,1.18,2.453,1.962
	c1.617,1.282,4.088,3.188,4.415,5.15c-2.815-0.327-4.579-0.572-6.132-1.227c-1.553-0.654-2.156-0.444-3.679-1.471
	c-1.39-0.327-3.715-1.89-5.151-2.697C27.799,58.267,27.227,55.855,27.227,55.855z M44.151,46.782
	c-6.295,1.716-9.157,8.092-10.056,11.525c-1.313-0.776-2.274-1.507-4.661-3.188c0.245-6.13,4.538-9.375,8.585-11.28
	C39.164,44.574,42.066,45.938,44.151,46.782z M36.768,43.167c-0.181,0.203-0.605,0.12-0.946-0.185
	c-0.341-0.305-0.471-0.717-0.29-0.919c0.181-0.203,0.605-0.12,0.946,0.185C36.819,42.552,36.949,42.964,36.768,43.167z
	 M34.83,43.961c0,0.474-0.384,0.858-0.858,0.858s-0.858-0.384-0.858-0.858s0.384-0.858,0.858-0.858S34.83,43.487,34.83,43.961z
	 M31.887,46.414c0,0.474-0.384,0.858-0.858,0.858s-0.858-0.384-0.858-0.858s0.384-0.858,0.858-0.858S31.887,45.939,31.887,46.414z
	 M27.962,49.602c0-0.474,0.384-0.858,0.858-0.858s0.858,0.384,0.858,0.858s-0.384,0.858-0.858,0.858S27.962,50.076,27.962,49.602z
	 M27.84,53.893c-0.474,0-0.858-0.384-0.858-0.858c0-0.474,0.384-0.858,0.858-0.858s0.858,0.384,0.858,0.858
	C28.698,53.509,28.314,53.893,27.84,53.893z M24.283,32.313c3.188,0.572,5.698-1.471,6.868-3.433
	c0.573,1.226,1.145,2.616,2.208,5.395c1.063,2.779,2.024,5.978,2.698,7.112c-6.868,1.226-9.648,8.256-9.811,10.79
	c-2.617-1.507-6.674-3.546-8.831-4.66c4.415-1.716,3.444-5.318,2.698-7.111c0.981,0.654,2.984,1.716,5.642,2.452
	c0.327-0.654,1.39-1.39,1.227-2.698C26.818,38.853,25.658,35.828,24.283,32.313z M35.321,58.798
	c1.104-3.842,5.32-10.693,11.774-11.281c2.371,0.572,4.987,2.861,6.377,6.867c0.22,1.057-0.082,1.308-0.245,1.961
	c2.504,1.712,6.096,4.736,2.943,8.583c-3.152,3.846-8.503-0.49-10.302-1.716c-1.354-2.565,1.789-8.629,6.623-7.847
	c-0.593-1.379-3.792-2.759-7.113,1.961c-2.146,3.05-1.39,5.641-0.981,6.376c-1.181,1.001-2.208,1.472-2.698,1.717
	C40.967,63.37,39.537,61.076,35.321,58.798z M54.453,53.893c0.409-2.861-3.434-6.376-5.396-6.866C50.278,45.535,52,44.084,52,44.084
	s0.327-0.327,0.246-0.981c-0.082-0.654,0.327-1.063,2.208-1.471c1.88-0.409,2.862,0.981,3.188,1.962
	c0.327,0.98-0.409,3.106-0.981,5.149C56.088,50.787,55.429,53.086,54.453,53.893z M57.642,42.122
	c-1.145-2.452-4.006-1.635-5.151-0.735c0.015-1.19,0.491-2.289,0.981-3.434c0.491-1.144,0-1.471,0.736-2.452
	s2.279-1.993,3.434-0.981c1.218,1.066,0.286,2.754-0.491,3.924C57.315,38.853,57.764,40.763,57.642,42.122z"/>
</svg>
