<?xml version="1.0" encoding="iso-8859-1"?>
<!-- Generator: Adobe Illustrator 16.0.0, SVG Export Plug-In . SVG Version: 6.00 Build 0)  -->
<!DOCTYPE svg PUBLIC "-//W3C//DTD SVG 1.1//EN" "http://www.w3.org/Graphics/SVG/1.1/DTD/svg11.dtd">
<svg version="1.1" id="Layer_1" xmlns="http://www.w3.org/2000/svg" xmlns:xlink="http://www.w3.org/1999/xlink" x="0px" y="0px"
	 width="50.407px" height="67.199px" viewBox="0 0 50.407 67.199" style="enable-background:new 0 0 50.407 67.199;"
	 xml:space="preserve">
<path style="fill-rule:evenodd;clip-rule:evenodd;fill:#FFFFFF;" d="M48.205,18.318c-1.343,0.473-2.408-0.51-3.028-1.652
	c-0.554-1.02,0.032-2.732,1.652-3.304c1.704-0.601,2.933,0.919,3.303,1.927C50.648,16.695,49.427,17.888,48.205,18.318z
	 M41.874,21.071c-0.642,0.275-0.367,1.193,0.551,0.826c0.917-0.367,3.395-1.744,4.129-2.203c1.239-0.029,3.028-0.367,3.854-1.376
	c-0.769,1.25-1.376,2.203-1.927,3.028c-0.55,0.826-2.844,2.478-7.157,4.405s-6.484,2.672-7.708,1.376
	c-0.493-0.522,1.56-1.009,3.303-1.927c1.743-0.918,3.12-0.734,2.202-3.304c-0.917-2.57,0.292-3.178,4.679-5.506
	c0.367,1.193,1.193,2.386,1.927,2.753C43.457,20.251,42.517,20.796,41.874,21.071z M36.919,9.784c-1.927-0.367-2.202,1.285,0,1.927
	c2.202,0.643,4.955,1.927,4.955,1.927s-1.806,1.658-3.028,2.753c-1.376-0.275-4.353,0.499-5.78,1.376
	c1.56-4.864,0.367-8.075-0.551-10.186c4.932,0.052,11.561,4.129,11.561,4.129s-0.275,0.373-1.101,0.826
	C42.149,11.711,38.846,10.151,36.919,9.784z M30.864,6.48c0-0.643,0.207-1.75-0.275-2.753c-0.767-1.598-2.478-2.019-2.752-0.826
	c-0.275,1.193-0.063,2.592,0,4.68c-0.826-0.826-2.202-0.917-4.129-0.551c0.304-1.376,1.651-4.129,2.477-6.057
	c0.826-1.927,3.579-0.642,4.955,0.826c1.376,1.468,1.102,4.68,1.102,4.68S32.022,6.572,30.864,6.48z M18.752,7.582
	c0,0.413-0.069,0.688-0.55,0.826c-0.482,0.138-0.551-0.206-0.551-0.826s0-1.101,0.551-1.101C18.752,6.48,18.752,7.168,18.752,7.582z
	 M18.202,3.727c0.481,0.069,0.55,0.62,0.55,1.102c0,0.481-0.069,1.17-0.55,1.101c-0.482-0.069-0.551-0.551-0.551-1.101
	C17.651,4.278,17.72,3.659,18.202,3.727z M20.404,13.363c-0.077,5.465,4.404,4.956,4.404,4.956s0.12,1.09,0,2.203
	c-0.826,0.184-1.577,0.636-1.927,1.652c-2.569,0.458-5.419-1.084-6.881-2.478c2.478-4.864-0.551-10.186-0.551-10.186
	s2.11-0.023,4.404,0c0.092-7.066-0.829-6.89-1.101-6.883c-2.53,0.067-2.615,3.034-2.477,5.231c-0.643,0.184-0.539,0.178-1.927,0
	c0.183-7.525,3.825-7.353,6.331-6.883c0.092,3.396,0.367,5.231,2.202,6.883C21.883,8.717,20.451,10.007,20.404,13.363z
	 M15.174,16.942c-1.961,1.015-4.903,1.727-6.882,1.652c-0.184-1.376-0.711-2.22-1.927-3.028c2.569-2.203,4.588-2.386,6.056-3.579
	c1.468-1.193-0.458-2.202-1.651-1.927c-1.193,0.275-3.854,1.744-5.781,3.304c-1.927,1.56-2.236,1.342-2.477,0.826
	c2.752-3.579,7.134-5.472,9.909-6.057C15.266,9.876,15.449,13.546,15.174,16.942z M6.365,19.419
	c-0.092,1.927-1.743,2.478-3.028,2.478s-2.569-1.01-2.478-2.753c0.092-1.743,1.233-2.733,2.753-2.753
	C5.316,16.37,6.457,17.493,6.365,19.419z M7.742,19.695c1.193,0.643,2.144,1.1,2.202,3.304c0.046,1.732,0.184,2.019,1.376,1.927
	c1.193-0.092,2.019,0,2.478,0s-0.184,1.193-3.028,1.652c-2.844,0.458-11.377,0.826-10.735-5.781
	c0.545,1.216,1.926,2.832,3.854,2.753C5.287,23.492,7.523,22.195,7.742,19.695z M9.393,43.922c1.987,2.454,3.67,3.762,5.505,4.955
	c0.338,2.054,0.367,6.516,0.55,8.535c0.184,2.019,0.275,3.028,0.275,3.028s-0.212,1.64-0.826,2.753
	c-0.826-1.009-2.569-2.019-3.854-2.203c-1.285-0.183-2.478,0.551-2.478,0.551s0.367-1.285,0.826-2.202
	c0.459-0.918,1.193-0.826,2.753-0.826c1.56,0,2.127,1.474,3.028,1.376c-1.101-4.038-4.358-3.556-5.23-2.753
	c-0.367-0.734-3.028-5.965-4.129-8.259c-1.101-2.294-2.277-3.825-1.652-4.68C5.576,42.266,8.269,42.534,9.393,43.922z M5.815,46.675
	c0.605,1.266,3.138,6.662,4.129,8.534c0.561-0.543,1.675-0.602,2.202-0.275c-1.211-3.359-3.069-8.913-3.579-9.361
	C7.015,44.209,5.209,45.408,5.815,46.675z M9.393,62.367c1.193,0,3.487,0.55,4.955,1.652c-1.612,1.21-4.175,1.898-7.157,0.55
	C7.65,63.376,8.2,62.367,9.393,62.367z M17.101,57.687c0,0,1.651,4.221,1.651,4.956c0,0.734-0.55,0.826-0.55,0.826
	s-0.602-0.643-1.376-1.927c0-1.101-0.184-2.386-0.275-3.854C16.733,57.303,17.101,57.687,17.101,57.687z M11.871,32.634
	c1.009,0.092,1.376,0.459,1.927,0.826c-0.751,1.503-3.854,6.699-4.404,7.708C8.43,40.773,7.283,39.54,11.871,32.634z M14.348,44.472
	c0.183,0.809,0.275,2.478,0.275,2.478s-1.273-1.026-1.651-1.376C13.247,45.023,13.706,44.105,14.348,44.472z M12.696,44.472
	c-1.078-1.205-2.478-2.478-2.478-2.478l4.404-7.708l1.652,0.826l1.101,4.129l-2.753,4.405C13.814,43.142,12.696,43.83,12.696,44.472
	z M16.55,33.735c0,0-2.385-2.111-4.404-2.478c0.436-0.568,1.101-1.376,1.101-1.376s3.579,0.917,5.23,1.101
	C18.047,32.026,16.55,33.735,16.55,33.735z M12.421,24.1c0.459-1.009,0.643-1.56,1.376-1.652
	C14.193,23.526,13.298,24.679,12.421,24.1z M14.623,18.594c-0.184,1.382-0.55,2.478-0.55,2.478s-2.202,0.643-2.753,2.478
	c0.172-1.893-0.763-3.321-1.101-3.854C11.503,19.419,13.889,18.961,14.623,18.594z M16,22.173c2.225,0.837,2.386,1.101,3.303,1.376
	c0.591,1.434,0.367,2.753,0.55,3.579c-0.917,1.044-1.376,1.377-1.376,1.377s-2.294-0.551-3.854-0.826
	C16.791,25.167,15.403,22.17,16,22.173z M19.578,30.707c0.367-2.019,1.101-2.753,2.752-2.478c1.651,0.275,1.743,1.285,1.927,2.753
	s0.247,1.83,1.101,3.579c-0.275,2.386-1.927,10.92-2.202,12.113c-0.436,0.103-0.642,0.55-0.55-0.551s0.367-7.341,0.275-8.81
	c-0.091-1.468-0.55-2.203-1.376-2.203c-0.826,0-1.193,0.643-1.101,2.478s0.184,7.25,0.275,8.534
	c0.075,0.723-0.642,1.193-0.826,0.275c-0.184-0.918-1.468-9.819-1.927-12.113C18.213,33.334,19.211,32.726,19.578,30.707z
	 M22.055,33.185c1.731-0.012,1.38-3.048,0-3.028C20.511,30.178,20.352,33.197,22.055,33.185z M27.561,34.286l6.331,5.781
	c0,0-0.826,0.826-1.101,1.376c-1.227,0.104-2.294,0.367-2.752,1.652c-1.279-1.055-4.404-3.854-4.404-3.854l0.55-4.129L27.561,34.286
	z M33.066,43.646c-0.092,1.285-0.367,2.753-0.826,3.579C29.413,47.535,29.854,41.542,33.066,43.646z M34.442,39.517l-5.78-6.057
	l1.101-0.826l6.056,6.332L34.442,39.517z M28.662,29.881c0.207,1.015,0.275,1.927,0.275,1.927s-1.732,1.514-3.028,1.652
	c-0.458-1.376-0.734-1.652-0.55-2.202C25.542,30.707,28.02,31.35,28.662,29.881z M25.083,27.954c0.551-1.56,0.643-1.56,1.101-2.203
	c0.459-0.642,1.652-1.193,2.202-2.478c0.723-0.557,1.927-1.101,1.927-1.101s-2.019,2.386-2.202,3.303c-0.183,0.918,0,2.478,0,2.478
	s-1.376,0.551-2.477,0.826C25.335,28.481,24.963,28.717,25.083,27.954z M23.982,27.679c-0.562-1.25-2.414-1.279-3.028-0.275
	c0-1.468,0.275-2.845,1.652-2.753C23.982,24.742,23.982,25.843,23.982,27.679z M25.634,21.347c0.917,0,1.565,0.568,1.376,1.376
	c-0.255,1.087-0.734,1.744-1.652,1.927s-1.789-0.505-1.927-1.376C23.245,22.092,24.716,21.347,25.634,21.347z M31.414,8.683
	c0,0,2.14,3.822,0.551,9.085c-0.574,1.898-2.936,3.487-4.129,3.854c-0.568-0.792-0.826-1.376-1.652-1.376
	c-0.207-0.981,0-1.927,0-1.927s2.202-0.734,2.753-3.579c-1.474,2.466-5.271,3.887-6.882,0c-1.61-3.887,1.686-6.188,2.753-6.057
	c0.715,0.681,0.833,2.203,0.826,3.579c-0.012,2.116,1.56,2.111,1.651,0.275s0.275-3.12-1.376-4.13
	c1.285,0.063,3.349,0.906,3.579,5.231c0.459-2.753,0.367-3.579-0.275-4.68C30.961,8.591,31.414,8.683,31.414,8.683z M29.212,3.452
	c0.551-0.069,1.032,1.583,0.275,1.651C28.73,5.172,28.662,3.521,29.212,3.452z M29.646,7.866c-0.607-0.143-0.664-1.953-0.041-1.946
	C30.228,5.927,30.252,8.009,29.646,7.866z M37.47,24.375c-0.967,0.59-3.739-0.333-2.753-2.478
	C36.186,21.989,37.413,22.758,37.47,24.375z M33.341,19.144c0,0,2.202-1.101,4.129-1.651c0.367,0.654,0.55,1.376,0.55,1.376
	s-0.917,1.56-0.275,3.304c-1.353-1.411-2.294-1.376-3.303-1.102C33.846,20.469,33.341,19.144,33.341,19.144z M31.689,50.253
	c1.835-1.376,2.695-4.038,2.752-7.433c0.029-1.692,1.193-2.478,2.753-2.753c1.56-0.275,3.028,0.184,3.303,2.753
	c0.275,2.57,0.642,10.278,0.55,13.765c-1.583-0.178-3.12-0.458-3.854,1.376c-0.734,1.835-2.202,5.323-3.028,7.434
	c-1.004,0.149-1.927,0-1.927,0c0.178-2.776,0.55-6.057,0.55-6.057s1.285,2.569,1.651,3.304c0.459-0.763,0.551-1.377,0.551-1.377
	S30.904,50.873,31.689,50.253z M37.745,54.934c1.022-0.461,1.91-0.485,2.478,0c-0.055-2.313-0.506-11.577-0.826-12.114
	c-1.04-1.745-3.142,0.172-3.028,1.102C36.583,45.678,37.305,51.905,37.745,54.934z M42.149,58.237
	c0.866,1.727,1.239,2.581,1.651,3.579c-1.078-1.285-1.927-1.009-2.752-0.551c-0.826,0.459-2.11,2.478-2.478,4.956
	c-0.849-0.31-1.648-0.968-2.477-1.376C37.2,61.559,38.571,57.32,42.149,58.237z M43.801,62.917c1.56,0.184,2.386,2.294,3.303,4.13
	c-1.766,0.12-3.102,0.458-6.881-0.551C40.682,64.753,42.241,62.734,43.801,62.917z"/>
</svg>
