<?xml version="1.0" encoding="iso-8859-1"?>
<!-- Generator: Adobe Illustrator 16.0.0, SVG Export Plug-In . SVG Version: 6.00 Build 0)  -->
<!DOCTYPE svg PUBLIC "-//W3C//DTD SVG 1.1//EN" "http://www.w3.org/Graphics/SVG/1.1/DTD/svg11.dtd">
<svg version="1.1" id="Layer_1" xmlns="http://www.w3.org/2000/svg" xmlns:xlink="http://www.w3.org/1999/xlink" x="0px" y="0px"
	 width="67.2px" height="62.64px" viewBox="0 0 67.2 62.64" style="enable-background:new 0 0 67.2 62.64;" xml:space="preserve">
<path style="fill-rule:evenodd;clip-rule:evenodd;fill:#FFFFFF;" d="M64.677,50.434l2.523-2.521v1.525L64.677,50.434z M52.13,55.384
	L67.2,40.329v3.611l-9.095,9.086L52.13,55.384z M39.583,60.335l17.187-17.169l-5.932,1.954L36.552,59.39v-3.612l8.892-8.883
	l-5.932,1.954l-2.959,2.957v-1.982l-3.093,1.019V62.64L0,49.438V13.203L33.459,0v11.798l3.093,1.053v-2.578l6.576-6.569l2.591,1.022
	l-8.395,8.387l2.966,1.009l8.279-8.271l2.592,1.022l-8.174,8.167l2.966,1.009l8.059-8.051l2.591,1.023l-7.954,7.946l2.966,1.01
	l7.838-7.831l2.592,1.022l-7.733,7.726l2.966,1.009l7.618-7.61l2.304,0.909v0.401l-8.154,8.146v3.973l8.154-8.146v3.612
	l-8.154,8.146v3.973L67.2,25.16v3.612l-8.154,8.146v3.973l8.154-8.146v3.612L45.558,57.978L39.583,60.335z M36.552,1.109l3.725,1.47
	L36.552,6.3V1.109z"/>
</svg>
