<?xml version="1.0" encoding="iso-8859-1"?>
<!-- Generator: Adobe Illustrator 16.0.0, SVG Export Plug-In . SVG Version: 6.00 Build 0)  -->
<!DOCTYPE svg PUBLIC "-//W3C//DTD SVG 1.1//EN" "http://www.w3.org/Graphics/SVG/1.1/DTD/svg11.dtd">
<svg version="1.1" id="Layer_1" xmlns="http://www.w3.org/2000/svg" xmlns:xlink="http://www.w3.org/1999/xlink" x="0px" y="0px"
	 width="44.632px" height="67.203px" viewBox="0 0 44.632 67.203" style="enable-background:new 0 0 44.632 67.203;"
	 xml:space="preserve">
<path style="fill-rule:evenodd;clip-rule:evenodd;fill:#FFFFFF;" d="M43.321,32.992c-0.299,2.24-0.683,3.543,0,5.178
	s0.136,7.904-4.369,10.084c-4.105,0.826-5.188-0.272-5.735,0.545c-0.487,0.729-0.867,4.484-1.621,5.677
	c-0.053-0.806-0.29-0.927-0.653,0.042c-0.084-0.047-0.178-0.094-0.287-0.142c-0.184-0.852-0.524-1.149-0.847-0.305
	c-0.072-0.022-0.142-0.044-0.218-0.065c-0.17-0.87-0.527-1.305-1.005-0.251c-0.134-0.029-0.271-0.059-0.414-0.087
	c-0.216-1.115-0.512-1.246-0.885-0.162c-0.237-0.039-0.483-0.076-0.736-0.111c-0.208-0.557-0.401-0.601-0.699-0.09
	c-0.332-0.039-0.673-0.075-1.025-0.106c-0.428-0.799-0.929-0.792-1.47-0.1c-0.453-0.022-0.918-0.037-1.392-0.042
	c-0.373-0.524-0.783-0.518-1.162,0.005c-0.335,0.006-0.674,0.016-1.016,0.032c-0.246-0.344-0.59-0.338-1.063,0.064
	c-0.285,0.021-0.572,0.047-0.86,0.076c-0.206-0.204-0.456-0.229-0.894,0.102c-0.333,0.042-0.668,0.09-1.003,0.143
	c-0.44-0.482-1.058-0.462-1.594,0.227c-0.409-0.954-0.759-0.665-1.092,0.272c-0.516-1.289-0.873-1.108-1.061-0.168
	c-1.09-2.203-0.518-4.439-1.669-6.1c-0.811,1.508-5.871,0.409-8.465-2.726c-2.595-3.134-1.946-7.358-0.273-12.81
	C-0.099,24.951-2.966,9.825,8.094,3.829c11.06-5.996,23.349-4.498,29.493,1.362C43.731,11.051,46.461,18.138,43.321,32.992z
	 M5.909,22.089C5.261,27.668,4.51,30.266,5.09,32.992C6.319,29.584,6.362,27.685,5.909,22.089z M17.925,31.629
	c-0.683-2.181-2.569-1.457-6.827-2.726c-3.55,0.681-4.779,2.316-4.915,5.996c-0.125,3.355,2.592,6.707,9.18,2.104
	c-1.273,1.392-3.208,3.224-4.265,4.438c1.606-1.122,4.52-3.031,5.841-5.516c0.042,0.033,0.104-0.034,0.202-0.285
	c0.08-0.066,0.157-0.127,0.238-0.195C17.916,33.485,17.959,33.511,17.925,31.629z M19.29,46.346
	c-0.347,2.339,1.081,1.735,2.995,0.462c-0.118-4.639-0.815-6.194-1.854-5.141C19.878,43.291,19.466,45.159,19.29,46.346z
	 M25.844,46.619c-0.182-2.907-1.729-8.267-3.277-8.176c-0.734,0.043-1.428,1.274-1.993,2.818c0.512-0.634,1.297-1.455,1.72-1.455
	c0.819,0,1.28,0.091,2.458,2.18c-1.533-2.069-1.637,0.408-1.904,4.781C24.196,47.535,26.014,49.333,25.844,46.619z M33.764,28.631
	c-4.455,1.55-6.52,0.834-6.827,2.453c-0.327,1.72-0.64,3.064-0.222,4.021c-0.018,0.104-0.035,0.214-0.052,0.339
	c1.274,2.181,1.912,4.724,7.374,5.451c-3.829-1.459-5.28-2.739-5.945-4.472c0.908,0.687,1.714,1.341,5.387,2.013
	c4.165,0.761,4.927,0.551,5.747-1.902C40.044,34.082,37.313,29.448,33.764,28.631z M39.225,21.272
	c-0.683,4.088-1.519,7.938,1.092,11.72C40.155,29.814,39.43,26.263,39.225,21.272z M17.037,35.725
	c-0.033,0.067-0.063,0.134-0.098,0.2c-0.018-0.013-0.032-0.043-0.044-0.083C16.942,35.803,16.989,35.764,17.037,35.725z
	 M12.463,54.795c-0.273-1.363,0.004-1.192,0.819,0c0.205-1.295,0.76-0.72,1.366,0.272c0.273-2.249,1.126-1.026,1.912,0.272
	c0.273-1.567,0.836-1.857,1.638-0.272c0.683-1.84,0.994-1.299,1.912,0.272c1.161-2.385,1.313-1.951,2.458,0
	c1.425-3.398,2.01-1.064,3.004-0.272c0.956-1.704,0.542-0.92,1.366,0.272c0.734-1.917,1.05-1.052,1.638,0
	c0.341-1.499,0.713-1.269,1.092-0.272c0.342-1.09,0.649-0.643,1.093,0c0.478-0.886,0.41-0.409,0.819,0.272
	c0.41,0.681-0.521,1.491-1.092,0.545c0.137,0.818-0.883,1.478-1.092,0c-0.239,1.384-0.819,1.669-1.092-0.272
	c0.137,1.09-0.913,2.083-1.365,0.272c-0.056,1.533-1.566,1.865-1.912-0.272c0,1.363-1.477,2.019-2.731,0.272
	c-0.136,1.363-1.297,1.516-2.185,0.273c-0.136,1.226-1.399,1.286-2.185,0c0,1.362-1.199,1.188-1.365,0
	c-0.303,1.379-1.506,0.954-1.639-0.273c-0.273,1.09-1.195,1.039-1.639-0.272C13.419,56.158,12.736,56.158,12.463,54.795z
	 M13.019,57.688c0.116-0.745,0.843-0.498,1.083,0.378c0.307-0.926,1.092-0.727,1.366,0.545c0.256-1.067,0.819-0.636,1.092,0.545
	c0.341-1.414,1.001-0.727,1.092,0.273c0.358-1.346,1.274-1.817,1.638,0.272c0.245-2.294,1.366-2.453,1.639,0
	c-0.188-1.857,1.274-2.998,1.638,0.272c0.427-3.191,1.729-2.726,1.639,0c0.586-2.101,1.274-3.089,1.639,0
	c0.683-1.987,1.183-2.18,1.365-0.545c0.518-1.533,0.91-1.999,1.092-0.818c0.398-1.141,0.546-1.363,0.819-0.545
	c0.444-0.988,0.728-1.09,0.819-0.272c0.091,0.817-0.364,1.908-0.546,1.362c-0.321,0.673-0.956,1.181-1.092,0.273
	c-0.324,1.13-0.956,1.999-1.092,1.09c-0.461,0.764-1.183,1.227-1.365,0.273c-0.697,0.894-1.366,1.181-1.639,0
	c-0.239,0.724-1.502,0.863-1.639-0.273c-0.122,1.09-1.411,1.045-1.638-0.272c-0.421,0.931-1.32,1.181-1.639,0
	c-0.33,0.704-1.411,0.682-1.638-0.272c-0.236,0.372-0.911,0.454-1.092-0.272c-0.324,0.25-0.865,0.227-1.092-0.545
	c-0.123,0.102-0.353,0.161-0.592,0.14c0.19,0.136,0.385,0.272,0.592,0.405c4.915,3.18,9.552,3.061,12.562,1.09
	c3.009-1.971,5.371-6.723,6.554-10.357c1.212-0.063,2.282-0.704,4.096-1.908c-0.546,0.908-1.365,3.634-1.092,6.541
	c0.273,2.907-5.006,7.359-8.192,10.084c-3.186,2.726-9.467,2.453-12.562,0.818S6.546,56.703,6.456,55.613
	c-0.091-1.09,0.182-4.1-1.092-7.904c0.637,0.727,1.081,1.039,3.55,1.908C10.004,51.866,10.4,54.927,13.019,57.688z M14.149,58.74
	c-0.016-0.043-0.037-0.08-0.048-0.129c-0.011,0.021-0.023,0.04-0.036,0.059C14.094,58.693,14.121,58.716,14.149,58.74z"/>
</svg>
