<?xml version="1.0" encoding="iso-8859-1"?>
<!-- Generator: Adobe Illustrator 16.0.0, SVG Export Plug-In . SVG Version: 6.00 Build 0)  -->
<!DOCTYPE svg PUBLIC "-//W3C//DTD SVG 1.1//EN" "http://www.w3.org/Graphics/SVG/1.1/DTD/svg11.dtd">
<svg version="1.1" id="Layer_1" xmlns="http://www.w3.org/2000/svg" xmlns:xlink="http://www.w3.org/1999/xlink" x="0px" y="0px"
	 width="67.2px" height="20.64px" viewBox="0 0 67.2 20.64" style="enable-background:new 0 0 67.2 20.64;" xml:space="preserve">
<path style="fill-rule:evenodd;clip-rule:evenodd;fill:#FFFFFF;" d="M66.26,9.546h-3.968c-0.404,0-0.731-0.329-0.731-0.735
	c0-0.406,0.327-0.735,0.731-0.735h3.968c0.404,0,0.731,0.329,0.731,0.735C66.991,9.217,66.664,9.546,66.26,9.546z M65.811,6.476
	c-0.876,0.878-2.118,1.057-3.237,0.709c-0.796,0.321-2.417,1.427-3.083,1.506c-0.666,0.078-1.833,0.13-2.846,0.13
	c-0.494,0-7.653,0-11.331,0c1.521,0.78,3.313,1.242,5.666,1.242c6.591,0,11.827,0,15.704,0V12.9c0,4.274-3.471,7.74-7.754,7.74
	H7.754C3.472,20.64,0,17.175,0,12.9v-2.838c0-4.275,3.472-7.74,7.754-7.74c0,0,23.712,0,30.302,0
	c0.348,0.347,0.68,0.689,1.004,1.027c2.113-0.378,4.484-0.66,6.323-0.655c1.648,0.004,2.72-0.758,4.005-0.723
	c1.563,0.042,4.095,0.93,6.003,1.995c0.824,0.46,1.395,1.186,2.172,1.479c0.391,0.148,0.6,0.174,0.931,0.194
	c-0.461-0.396-0.786-0.771-0.998-1.184c-0.402-0.784,0.506-1.079,0.506-1.079l0.246-0.527l0.389,0.053c0,0-0.309-0.527,0.084-0.729
	c0.613,0.267-0.233-0.903,0.993-0.762c0.309,0.036,0.705-0.063,0.902-0.037c0.225-0.398,0.366-0.6,0.724-0.906
	c2.279-1.085,3.9-0.152,5.149,1.416C67.738,3.454,67.232,5.049,65.811,6.476z"/>
</svg>
