<?xml version="1.0" encoding="iso-8859-1"?>
<!-- Generator: Adobe Illustrator 16.0.0, SVG Export Plug-In . SVG Version: 6.00 Build 0)  -->
<!DOCTYPE svg PUBLIC "-//W3C//DTD SVG 1.1//EN" "http://www.w3.org/Graphics/SVG/1.1/DTD/svg11.dtd">
<svg version="1.1" id="Layer_1" xmlns="http://www.w3.org/2000/svg" xmlns:xlink="http://www.w3.org/1999/xlink" x="0px" y="0px"
	 width="67.196px" height="67.204px" viewBox="0 0 67.196 67.204" style="enable-background:new 0 0 67.196 67.204;"
	 xml:space="preserve">
<path style="fill-rule:evenodd;clip-rule:evenodd;fill:#FFFFFF;" d="M66.938,32.18c-1.386,2.983-3.309,4.804-6.991,2.806
	c-2.391-1.297-1.483-3.334-2.961-3.469c0.672,1.076,1.209,0.672,1.344,4.842c0.101,3.118-0.134,7.397,0,9.415
	s0.269,2.421,0.538,3.228c0.269,0.807-0.134,5.918-0.269,10.222c-0.004,0.154-0.013,0.298-0.023,0.436
	c0.007,0.035,0.018,0.066,0.023,0.103c0.269,1.793,0.358,1.973,0.269,3.497c-0.09,1.524,0.358,2.51-0.269,3.228
	c-0.627,0.717-1.523,0.896-1.881,0.538c-0.358-0.358-0.358-2.69-0.538-2.421c0.269,1.435-0.089,0.538-0.538-0.269
	c-0.448-0.807-0.358-1.524,0-2.421s0.627-1.166,0.538-2.421c-0.006-0.083,0-0.161,0.013-0.235c-0.017-0.188-0.022-0.379-0.013-0.572
	c0.134-2.555-0.94-7.397-1.344-10.76s-1.075-6.859-1.881-10.222c-0.314-1.311-1.138-1.748-2.432-2.04
	c-0.093,2.06-0.453,4.366-0.525,5.806c-0.089,1.793-0.448,3.138-0.269,4.304s-0.986,2.959-2.15,5.111
	c-0.927,1.713-2.817,4.162-4.047,5.724c-0.409,1.103-0.481,1.346-1.108,2.354c-0.698,1.121-0.785,2.046-1.534,2.342
	c-0.749,0.296-1.468,0.079-1.577-0.335c-0.109-0.413,0.859-2.181,0.619-2.048c-0.402,1.194-0.288,0.373-0.275-0.417
	c0.013-0.789,0.375-1.297,1.006-1.836c0.63-0.539,0.935-0.636,1.392-1.624c0.098-0.21,0.254-0.341,0.432-0.408
	c0.077-0.174,0.162-0.349,0.255-0.524c1.254-2.332,2.15-6.097,3.225-8.07c1.036-1.9,0.492-7.709,0.531-11.179
	c-1.54-0.399-3.333-1.049-5.369-2.271c-1.344-0.807-7.929-3.766-9.138-1.883c-1.08,1.682-8.063,8.205-11.826,11.029
	c-3.763,2.825-5.107,1.883-4.838,3.228c0.019,0.097,0.021,0.226,0.01,0.377c0.63,2.711,1.013,4.531,1.602,5.003
	c0.672,0.538,2.15,1.345,1.882,2.69c-0.269,1.345-1.613,1.883-2.957,4.035s-2.957,4.573-3.494,4.035
	c-0.538-0.538,0.269-3.362,1.075-5.111c0.806-1.749,0.134-2.69,0-3.228c-0.028-0.113-0.158-0.446-0.357-0.924
	c-0.864,1.884-1.88,3.791-2.868,5.228c-1.478,2.152-1.075,3.631-1.075,4.573s0.292,1.799-4.032,3.766
	c-1.479,0.672-4.032,1.479-4.838,0.807c-0.806-0.673,0.236-1.253,2.15-2.69c2.688-2.017,2.793-1.939,3.494-4.842
	c1.318-5.455,2.822-12.239,3.226-14.256c-0.672-1.883-0.941-2.825-2.688-5.918c-1.747-3.094-3.091-6.59-0.538-8.07
	c1.458-0.845,8.746-6.821,14.245-8.339c3.897-1.076,4.435-1.883,5.644-2.421c1.209-0.538,9.542-2.017,13.708-0.807
	s12.218,2.968,14.514,5.649c0.806,0.941,1.075,1.21,1.612,1.345c0.538,0.135,0.538,0.673,1.075,0.807s1.471-1.259,2.117-1.691
	c0.6-0.401,1.498-1.018,3.473,0.595C65.783,26.552,67.974,29.95,66.938,32.18z M11.563,34.745c0.672,1.076,0.94,2.152,1.344,3.228
	c1.478-1.345,4.166-4.708,5.913-5.649C15.192,33.13,12.504,34.341,11.563,34.745z M39.982,10.061c-0.026,0.2-0.061,0.397-0.105,0.59
	l2.65,0.947l-2.782-0.449c-0.061,0.192-0.129,0.38-0.206,0.564l2.437,1.399l-2.661-0.935c-0.092,0.177-0.193,0.349-0.301,0.517
	l2.157,1.813l-2.456-1.391c-0.121,0.158-0.249,0.31-0.384,0.456l1.804,2.17l-2.169-1.804c-0.146,0.135-0.297,0.263-0.456,0.384
	l1.391,2.456L37.09,14.62c-0.167,0.107-0.339,0.208-0.516,0.301l0.934,2.661l-1.398-2.438c-0.184,0.078-0.372,0.146-0.564,0.207
	l0.449,2.782l-0.947-2.651c-0.194,0.044-0.391,0.079-0.591,0.105l-0.049,2.825l-0.463-2.779c-0.114,0.006-0.227,0.017-0.342,0.017
	c-0.088,0-0.173-0.01-0.26-0.013l-0.545,2.775l0.033-2.813c-0.202-0.024-0.402-0.057-0.598-0.099l-1.022,2.632l0.527-2.759
	c-0.196-0.059-0.387-0.128-0.574-0.205l-1.466,2.413l1.003-2.627c-0.183-0.092-0.36-0.193-0.532-0.302l-1.867,2.124l1.448-2.413
	c-0.165-0.123-0.322-0.253-0.474-0.391l-2.208,1.769l1.846-2.123c-0.142-0.15-0.275-0.307-0.402-0.47l-2.479,1.359l2.184-1.768
	c-0.114-0.173-0.22-0.353-0.317-0.537l-2.672,0.91l2.455-1.363c-0.083-0.191-0.155-0.387-0.219-0.588l-2.786,0.437l2.657-0.92
	c-0.047-0.203-0.084-0.409-0.112-0.618l-2.825-0.047l2.78-0.451c-0.006-0.118-0.018-0.235-0.018-0.355
	c0-0.093,0.01-0.184,0.014-0.275l-2.776-0.53l2.813,0.032c0.025-0.212,0.061-0.42,0.106-0.625l-2.639-0.994l2.762,0.512
	c0.063-0.204,0.134-0.404,0.215-0.6l-2.427-1.426l2.64,0.978c0.097-0.189,0.202-0.374,0.317-0.552l-2.151-1.822l2.438,1.416
	c0.128-0.169,0.265-0.332,0.409-0.488l-1.811-2.162l2.162,1.811c0.156-0.144,0.318-0.28,0.488-0.409l-1.416-2.438l1.821,2.151
	c0.178-0.115,0.362-0.22,0.552-0.317l-0.978-2.64l1.426,2.427c0.195-0.082,0.395-0.153,0.6-0.215L31.211,0.28l0.994,2.639
	c0.205-0.045,0.414-0.08,0.625-0.105L32.797,0l0.53,2.776c0.092-0.004,0.183-0.014,0.275-0.014c0.12,0,0.237,0.012,0.355,0.018
	L34.408,0l0.048,2.825c0.209,0.028,0.416,0.065,0.618,0.112l0.92-2.658l-0.437,2.787c0.2,0.063,0.396,0.137,0.588,0.219l1.362-2.455
	l-0.91,2.673c0.185,0.097,0.364,0.203,0.537,0.316l1.768-2.184l-1.359,2.479c0.163,0.127,0.32,0.261,0.47,0.402l2.123-1.846
	L38.368,4.88c0.138,0.152,0.269,0.31,0.391,0.474l2.413-1.449l-2.124,1.867c0.108,0.172,0.209,0.349,0.302,0.532l2.627-1.004
	l-2.413,1.466c0.077,0.188,0.146,0.379,0.205,0.575l2.759-0.527l-2.631,1.021c0.042,0.196,0.075,0.396,0.099,0.598l2.813-0.033
	l-2.775,0.545c0.003,0.087,0.013,0.172,0.013,0.26c0,0.115-0.012,0.228-0.018,0.341l2.779,0.464L39.982,10.061z M33.603,3.223
	c-3.304,0-5.983,2.679-5.983,5.983s2.679,5.983,5.983,5.983s5.983-2.679,5.983-5.983S36.907,3.223,33.603,3.223z M33.603,14.039
	c-2.669,0-4.833-2.164-4.833-4.833s2.164-4.833,4.833-4.833s4.833,2.164,4.833,4.833S36.271,14.039,33.603,14.039z M33.603,5.754
	c-1.906,0-3.452,1.546-3.452,3.452c0,1.907,1.545,3.452,3.452,3.452s3.452-1.545,3.452-3.452C37.054,7.3,35.509,5.754,33.603,5.754z
	 M33.603,11.047c-1.017,0-1.841-0.825-1.841-1.841s0.824-1.841,1.841-1.841s1.841,0.825,1.841,1.841S34.619,11.047,33.603,11.047z"
	/>
</svg>
