<?xml version="1.0" encoding="iso-8859-1"?>
<!-- Generator: Adobe Illustrator 16.0.0, SVG Export Plug-In . SVG Version: 6.00 Build 0)  -->
<!DOCTYPE svg PUBLIC "-//W3C//DTD SVG 1.1//EN" "http://www.w3.org/Graphics/SVG/1.1/DTD/svg11.dtd">
<svg version="1.1" id="Layer_1" xmlns="http://www.w3.org/2000/svg" xmlns:xlink="http://www.w3.org/1999/xlink" x="0px" y="0px"
	 width="67.201px" height="55.92px" viewBox="0 0 67.201 55.92" style="enable-background:new 0 0 67.201 55.92;"
	 xml:space="preserve">
<path style="fill-rule:evenodd;clip-rule:evenodd;fill:#FFFFFF;" d="M43.789,55.877c-3.719-0.478-3.47-8.393-3.47-16.787
	c0-6.375,4.165-6.924,4.165-15.347c0-8.418-2.78-8.467-4.165-11.272c-0.818-1.657,0.478-4.061,3.239-7.434
	c3.037-3.71,13.176-10.374,20.36,2.638C75.371,28.419,53.984,57.188,43.789,55.877z M42.039,18.396
	c0.694,1.948,0.288,3.944-0.882,4.953c-0.073,5.594-3.427,12.174-7.557,12.174s-7.483-6.58-7.557-12.174
	c-1.169-1.009-1.576-3.005-0.882-4.953c0.532-1.496,1.585-2.604,2.744-3.058c0.495-1.914,0.614-4.127,0.732-5.2
	c0.148-1.344,1.777-0.747,1.777,0.299c0,1.008,0.139,4.093,0.813,4.982c0.11-0.029,0.224-0.052,0.336-0.076l1.138-6.925
	c0-0.936,0.47-1.695,1.05-1.695c0.58,0,1.05,0.759,1.05,1.695l0.912,6.941c0.087,0.02,0.175,0.037,0.261,0.06
	c0.673-0.89,0.813-3.974,0.813-4.982c0-1.045,1.629-1.643,1.777-0.299c0.118,1.073,0.237,3.287,0.732,5.2
	C40.454,15.792,41.507,16.899,42.039,18.396z M22.718,23.744c0,8.423,4.165,8.971,4.165,15.347c0,8.394,0.249,16.309-3.47,16.787
	C13.217,57.188-8.169,28.419,3.283,7.676c7.184-13.012,17.323-6.348,20.36-2.638c2.761,3.373,4.058,5.777,3.239,7.434
	C25.498,15.277,22.718,15.326,22.718,23.744z"/>
</svg>
