<?xml version="1.0" encoding="iso-8859-1"?>
<!-- Generator: Adobe Illustrator 16.0.0, SVG Export Plug-In . SVG Version: 6.00 Build 0)  -->
<!DOCTYPE svg PUBLIC "-//W3C//DTD SVG 1.1//EN" "http://www.w3.org/Graphics/SVG/1.1/DTD/svg11.dtd">
<svg version="1.1" id="Layer_1" xmlns="http://www.w3.org/2000/svg" xmlns:xlink="http://www.w3.org/1999/xlink" x="0px" y="0px"
	 width="52.077px" height="67.198px" viewBox="0 0 52.077 67.198" style="enable-background:new 0 0 52.077 67.198;"
	 xml:space="preserve">
<path style="fill-rule:evenodd;clip-rule:evenodd;fill:#FFFFFF;" d="M49.373,52.701c-3.155,8.408-12.407,14.497-23.333,14.497
	S5.862,61.109,2.707,52.701C1.455,50.15,0,50.168,0,47.539c0-2.722,1.027-2.724,2.06-5.441c0.382-1.565,0.974-3.065,1.743-4.48
	c0.014-0.09,0.034-0.178,0.064-0.264C5.156,33.801,8.74,28.573,16.243,24.8c5.21-2.62,13.237-6.992,5.672-15.87
	c-2.051-2.407,0.516-4.382,2.063-4.5c-1.418,1.303-2.578,2.843-0.258,4.5c2.32,1.658,6.218,9.135,1.547,13.027
	c-0.402,0.335-0.815,0.667-1.231,0.999c-0.069,0.055-0.138,0.11-0.208,0.165c-0.276,0.218-0.553,0.437-0.831,0.655
	c-5.042,3.958-10.246,8.036-7.785,15.947c2.904,9.338,10.184,6.514,11.602,5.922c-2.965,0.237-10.442-0.592-9.54-9.001
	c0.848-7.897,6.698-11.093,11.892-10.962c10.393,1.127,18.751,7.795,20.854,16.416c1.033,2.717-1.034,3.753,1.287,5.441
	C53.43,49.084,50.625,50.15,49.373,52.701z M24.493,5.98c1.289-2.325,4.383-7.233,10.313-5.683
	c-2.579,2.066-2.321,2.841-4.899,4.133S23.204,8.305,24.493,5.98z M20.11,7.271c-2.321,1.292-3.868-1.55-6.188-1.55
	c2.32-2.066,4.125-2.066,6.446,0C19.079,7.271,20.11,7.271,20.11,7.271z"/>
</svg>
