<?xml version="1.0" encoding="iso-8859-1"?>
<!-- Generator: Adobe Illustrator 16.0.0, SVG Export Plug-In . SVG Version: 6.00 Build 0)  -->
<!DOCTYPE svg PUBLIC "-//W3C//DTD SVG 1.1//EN" "http://www.w3.org/Graphics/SVG/1.1/DTD/svg11.dtd">
<svg version="1.1" id="Layer_1" xmlns="http://www.w3.org/2000/svg" xmlns:xlink="http://www.w3.org/1999/xlink" x="0px" y="0px"
	 width="67.2px" height="24.241px" viewBox="0 0 67.2 24.241" style="enable-background:new 0 0 67.2 24.241;" xml:space="preserve"
	>
<path style="fill-rule:evenodd;clip-rule:evenodd;fill:#FFFFFF;" d="M67.2,22.665c0,0.469-1.521,0.848-3.396,0.848
	s-3.396-0.379-3.396-0.848c0-0.042,0.016-0.082,0.039-0.121h-0.039V0H67.2v22.543h-0.039C67.184,22.583,67.2,22.623,67.2,22.665z
	 M65.745,14.544c0-0.401-0.326-0.727-0.728-0.727s-0.728,0.326-0.728,0.727c0,0.402,0.326,0.728,0.728,0.728
	S65.745,14.946,65.745,14.544z M62.591,17.21c-0.402,0-0.728,0.326-0.728,0.727c0,0.402,0.326,0.728,0.728,0.728
	s0.728-0.326,0.728-0.728C63.318,17.536,62.993,17.21,62.591,17.21z M63.318,10.423c0-0.402-0.326-0.727-0.728-0.727
	s-0.728,0.325-0.728,0.727c0,0.401,0.326,0.727,0.728,0.727S63.318,10.825,63.318,10.423z M66.472,0.97h-5.337v5.333
	c1.456,0.969,3.881,1.212,5.337,0V0.97z M51.876,5.527c-1.602,0.199-1.402,0.398-1.402,1.794c-0.259-0.129-0.268,0.075-0.403,0.182
	c3.558,0.596,3.21,3.776,1.542,6.111h-9.702c-0.081-0.122-0.158-0.244-0.229-0.37c0.851-0.273,1.467-1.065,1.467-2.001
	c0-1.143-0.917-2.07-2.059-2.101c0.019-0.084,0.04-0.169,0.063-0.253c0.175-0.264,0.292-0.568,0.333-0.897
	c0.225-0.481,0.519-0.94,0.886-1.36c2.051-2.347,6.345-3.97,7.322,0.464c0.237-2.986,2.956-5.257,6.591-3.163
	C53.479,4.332,53.479,5.328,51.876,5.527z M41.461,11.227c0,1.059-0.866,1.918-1.934,1.918c-0.029,0-0.057-0.003-0.085-0.004
	c0.062,0.274,0.085,0.43,0.085,0.43l-25.777-0.213c0,0,0.008-0.077,0.031-0.214c-0.011,0-0.021,0.001-0.031,0.001
	c-1.068,0-1.934-0.859-1.934-1.918s0.866-1.918,1.934-1.918c0.023,0,0.045,0.003,0.068,0.003c-0.309-0.339-0.498-0.788-0.498-1.282
	c0-1.059,0.866-1.918,1.933-1.918c0.364,0,0.704,0.102,0.995,0.276c-0.086-0.218-0.135-0.454-0.135-0.702
	c0-1.059,0.866-1.918,1.933-1.918c0.498,0,0.95,0.188,1.292,0.494c-0.001-0.022-0.003-0.045-0.003-0.068
	c0-1.059,0.865-1.918,1.933-1.918c0.612,0,1.156,0.283,1.51,0.723c0.068-0.999,0.903-1.788,1.927-1.788
	c1.068,0,1.933,0.859,1.933,1.918c0,0.073-0.005,0.145-0.013,0.216c0.009,0,0.017,0,0.026,0c-0.008-0.071-0.013-0.143-0.013-0.216
	c0-1.059,0.866-1.918,1.934-1.918c1.023,0,1.859,0.79,1.927,1.788c0.354-0.44,0.898-0.723,1.51-0.723
	c1.068,0,1.933,0.859,1.933,1.918c0,0.023-0.002,0.045-0.003,0.068c0.343-0.306,0.795-0.494,1.292-0.494
	c1.067,0,1.933,0.859,1.933,1.918c0,0.248-0.049,0.484-0.135,0.702c0.291-0.174,0.63-0.276,0.995-0.276
	c1.067,0,1.933,0.859,1.933,1.918c0,0.494-0.189,0.942-0.499,1.282c0.023,0,0.046-0.003,0.069-0.003
	C40.596,9.309,41.461,10.168,41.461,11.227z M9.814,13.415H3.605c-0.553,0-1.001-0.446-1.001-0.997c0-0.55,0.448-0.997,1.001-0.997
	h6.209c0.553,0,1.001,0.446,1.001,0.997C10.816,12.969,10.368,13.415,9.814,13.415z M9.814,10.225H3.605
	c-0.553,0-1.001-0.446-1.001-0.997c0-0.55,0.448-0.997,1.001-0.997h6.209c0.553,0,1.001,0.446,1.001,0.997
	C10.816,9.779,10.368,10.225,9.814,10.225z M9.814,7.036H3.605c-0.553,0-1.001-0.446-1.001-0.997c0-0.55,0.448-0.997,1.001-0.997
	h6.209c0.553,0,1.001,0.446,1.001,0.997C10.816,6.59,10.368,7.036,9.814,7.036z M48.071,22.072c-10.215,2.791-30.044,2.99-40.059,0
	C6.81,17.288,0,15.096,0,15.096h56.083C56.083,15.096,49.273,17.288,48.071,22.072z"/>
</svg>
