<?xml version="1.0" encoding="iso-8859-1"?>
<!-- Generator: Adobe Illustrator 16.0.0, SVG Export Plug-In . SVG Version: 6.00 Build 0)  -->
<!DOCTYPE svg PUBLIC "-//W3C//DTD SVG 1.1//EN" "http://www.w3.org/Graphics/SVG/1.1/DTD/svg11.dtd">
<svg version="1.1" id="Layer_1" xmlns="http://www.w3.org/2000/svg" xmlns:xlink="http://www.w3.org/1999/xlink" x="0px" y="0px"
	 width="67.2px" height="67.2px" viewBox="0 0 67.2 67.2" style="enable-background:new 0 0 67.2 67.2;" xml:space="preserve">
<path style="fill-rule:evenodd;clip-rule:evenodd;fill:#FFFFFF;" d="M33.6,67.2C15.043,67.2,0,52.157,0,33.6S15.043,0,33.6,0
	s33.6,15.043,33.6,33.6S52.157,67.2,33.6,67.2z M62.457,22.073C58.758,9.632,47.242,0.557,33.6,0.557S8.442,9.632,4.743,22.073
	c-0.265,2.341,0.559,0.911,0.348,3.127c-0.244,2.567-1.425,1.507-1.518,4.689c0.013-0.044,0.024-0.089,0.039-0.133
	c-0.41,2.561,2.051,3.011,2.758,1.321c0.708-1.69-0.701-2.28-0.701-2.28s2.483,0.792,1.274,3.679
	c-1.278,3.052-3.172,3.226-2.336,5.976c0.095,0.312,0.059,0.345-0.048,0.168c0.009,0.032,0.018,0.065,0.026,0.097
	c-0.001-0.009-0.002-0.017-0.003-0.026C5.6,42.891,9.673,42,9.673,38.946c0-3.055-2.545-3.055-2.545-3.055s4.327-0.382,4.327,4.836
	c0,5.237-2.522,6.842-0.159,10.152c1.563,1.722,3.32,3.264,5.24,4.587c3.328,1.999,6.564,1.945,8.506,1.475
	c-0.032-0.01-0.065-0.02-0.098-0.03c0.107-0.005,0.215-0.015,0.323-0.027c0.652-0.173,1.234-0.39,1.714-0.63
	c0.17-0.085,0.362-0.153,0.568-0.208c2.592-1.571,4.794-5.032,4.794-8.375c0-11.682,0-9.802,0-13.538c0-0.359-3.58,2.776-3.58,2.776
	v-4.582l-3.309,3.563L25.2,30.8l-3.563,4.582v-5.6l-2.469,3.086c5.021-10.258,11.395-21.922,14.421-21.922
	c3.022,0,9.389,11.634,14.412,21.883l-2.438-3.047v5.6L42,30.8l-0.254,5.091l-3.309-3.563v4.327c0,0-3.58-2.881-3.58-2.521
	c0,3.735,0,1.855,0,13.538c0,3.344,2.202,6.804,4.794,8.375c0.206,0.055,0.397,0.123,0.568,0.208c0.48,0.24,1.063,0.458,1.714,0.63
	c0.108,0.013,0.216,0.022,0.323,0.027c-0.032,0.01-0.065,0.02-0.098,0.03c1.941,0.47,5.178,0.523,8.506-1.475
	c1.92-1.324,3.678-2.866,5.24-4.587c2.363-3.31-0.159-4.915-0.159-10.152c0-5.218,4.327-4.836,4.327-4.836s-2.545,0-2.545,3.055
	c0,3.054,4.073,3.945,5.091-0.255c0,0.009-0.002,0.017-0.003,0.026c0.009-0.032,0.018-0.065,0.026-0.097
	c-0.106,0.177-0.143,0.144-0.048-0.168c0.835-2.75-1.059-2.924-2.336-5.976c-1.209-2.888,1.274-3.679,1.274-3.679
	s-1.409,0.59-0.701,2.28c0.708,1.69,3.168,1.24,2.758-1.321c0.014,0.044,0.025,0.089,0.039,0.133
	c-0.093-3.182-1.274-2.122-1.518-4.689C61.898,22.984,62.722,24.414,62.457,22.073z M46.254,54.997
	c-8.078,1.473-10.703-3.739-9.624-18.085c-0.087,0.104,3.313,2.802,3.313,2.802l-0.51-4.331l3.823,3.821l-0.255-5.095l4.078,5.095
	L46.826,33.6l4.078,5.35l-0.295-0.688c2.637,5.614,2.646,5.716,3.608,8.075C55.699,49.967,50.421,54.237,46.254,54.997z
	 M20.364,33.6l-0.254,5.6l4.073-5.091L23.927,39.2l3.818-3.818l-0.509,4.327c0,0,3.397-2.696,3.309-2.8
	c1.078,14.335-1.543,19.544-9.61,18.072c-4.161-0.759-9.433-5.026-7.953-8.653c0.961-2.357,0.97-2.459,3.604-8.07l-0.295,0.688
	L20.364,33.6z"/>
</svg>
