<?xml version="1.0" encoding="iso-8859-1"?>
<!-- Generator: Adobe Illustrator 16.0.0, SVG Export Plug-In . SVG Version: 6.00 Build 0)  -->
<!DOCTYPE svg PUBLIC "-//W3C//DTD SVG 1.1//EN" "http://www.w3.org/Graphics/SVG/1.1/DTD/svg11.dtd">
<svg version="1.1" id="Layer_1" xmlns="http://www.w3.org/2000/svg" xmlns:xlink="http://www.w3.org/1999/xlink" x="0px" y="0px"
	 width="67.192px" height="67.192px" viewBox="0 0 67.192 67.192" style="enable-background:new 0 0 67.192 67.192;"
	 xml:space="preserve">
<path style="fill-rule:evenodd;clip-rule:evenodd;fill:#FFFFFF;" d="M57.352,57.352c-13.12,13.12-34.392,13.12-47.512,0
	S-3.28,22.96,9.84,9.84s34.392-13.12,47.512,0S70.472,44.232,57.352,57.352z M63.482,31.62c-0.007-0.104-0.012-0.209-0.02-0.313
	l-0.005,0.005c-0.002-0.03-0.005-0.061-0.008-0.091l0.007,0.007c-0.541-6.858-3.432-13.566-8.678-18.813
	c-5.246-5.246-11.954-8.137-18.813-8.678l0.007,0.007c-0.03-0.003-0.061-0.006-0.092-0.009l0.005-0.005
	c-0.104-0.008-0.209-0.013-0.313-0.02c-0.086-0.006-0.171-0.012-0.256-0.016c-8.229-0.471-16.615,2.434-22.901,8.721
	S3.223,27.087,3.694,35.316c0.004,0.084,0.01,0.169,0.016,0.256c0.007,0.104,0.012,0.209,0.02,0.313l0.005-0.005
	c0.003,0.031,0.006,0.062,0.009,0.092l-0.007-0.007c0.541,6.858,3.433,13.566,8.678,18.813c5.246,5.246,11.954,8.138,18.813,8.678
	l-0.007-0.007c0.03,0.003,0.061,0.006,0.091,0.008l-0.005,0.005c0.104,0.008,0.209,0.013,0.313,0.02
	c0.086,0.006,0.171,0.012,0.256,0.016c8.229,0.471,16.614-2.434,22.901-8.721c6.287-6.287,9.191-14.673,8.721-22.901
	C63.494,31.792,63.488,31.707,63.482,31.62z M52.031,52.031c-5.125,5.125-11.853,7.667-18.569,7.633l-0.01,0.01
	c-1.25-0.049-3.149-0.18-4.478-0.391l-0.04-0.04c-5.045-0.912-9.875-3.313-13.774-7.212s-6.3-8.729-7.212-13.774l-0.04-0.04
	c-0.211-1.329-0.342-3.228-0.391-4.478l0.01-0.01c-0.034-6.717,2.508-13.444,7.633-18.569c5.125-5.125,11.853-7.667,18.569-7.633
	l0.01-0.01c1.25,0.049,3.149,0.18,4.478,0.391l0.04,0.04c5.045,0.912,9.875,3.313,13.774,7.212s6.3,8.729,7.212,13.774l0.04,0.04
	c0.211,1.329,0.342,3.228,0.391,4.478l-0.01,0.01C59.698,40.179,57.156,46.906,52.031,52.031z M13.673,44.548
	c1.782,1.782,4.671,1.782,6.454,0c1.782-1.782,1.782-4.672,0-6.454c-1.783-1.782-4.672-1.782-6.454,0S11.891,42.766,13.673,44.548z
	 M38.567,12.344c-1-1-2.347-1.438-3.652-1.316c-0.097-0.014-0.204-0.022-0.322-0.025c-2.938-0.065-5.874,0.69-6.997,1.017
	l0.057-0.057c-3.634,0.994-7.067,2.914-9.921,5.769c-2.76,2.759-4.643,6.06-5.663,9.559c-0.023-0.002-0.046-0.006-0.068-0.007
	c-1.127,4.399-0.917,8.162-0.325,11.002c0.011-1.153,0.455-2.302,1.334-3.182c1.782-1.782,4.671-1.782,6.454,0
	c0.381,0.382,0.676,0.816,0.895,1.277c-0.098-0.338-0.193-0.681-0.277-1.017l0.017,0.017c-0.534-4.056,0.748-8.304,3.864-11.42
	c2.831-2.831,6.596-4.143,10.302-3.959c1.496,0.362,3.138-0.035,4.305-1.203C40.35,17.016,40.35,14.126,38.567,12.344z
	 M53.519,22.644c-1.782-1.782-4.672-1.782-6.454,0c-1.782,1.782-1.782,4.672,0,6.454c1.782,1.782,4.671,1.782,6.454,0
	S55.301,24.426,53.519,22.644z M55.518,28.907c-0.011,1.153-0.455,2.302-1.334,3.182c-1.782,1.782-4.672,1.782-6.454,0
	c-0.381-0.381-0.676-0.816-0.895-1.277c0.098,0.338,0.193,0.681,0.277,1.017l-0.017-0.017c0.534,4.056-0.748,8.304-3.864,11.42
	c-2.831,2.831-6.596,4.142-10.302,3.959c-1.495-0.362-3.137,0.035-4.305,1.203c-1.782,1.782-1.782,4.672,0,6.454
	c1,1,2.347,1.438,3.652,1.316c0.097,0.014,0.204,0.022,0.322,0.025c2.938,0.065,5.874-0.69,6.997-1.017l-0.057,0.057
	c3.634-0.994,7.067-2.914,9.921-5.769c2.76-2.759,4.643-6.06,5.663-9.559c0.023,0.002,0.046,0.006,0.068,0.007
	C56.319,35.51,56.11,31.747,55.518,28.907z M31.947,54.268c-1.556,0-2.817-1.262-2.817-2.818s1.261-2.818,2.817-2.818
	c1.557,0,2.818,1.262,2.818,2.818S33.504,54.268,31.947,54.268z M35.241,18.558c-1.556,0-2.818-1.262-2.818-2.817
	c0-1.556,1.262-2.817,2.818-2.817c1.556,0,2.817,1.261,2.817,2.817C38.058,17.296,36.796,18.558,35.241,18.558z"/>
</svg>
