<?xml version="1.0" encoding="iso-8859-1"?>
<!-- Generator: Adobe Illustrator 16.0.0, SVG Export Plug-In . SVG Version: 6.00 Build 0)  -->
<!DOCTYPE svg PUBLIC "-//W3C//DTD SVG 1.1//EN" "http://www.w3.org/Graphics/SVG/1.1/DTD/svg11.dtd">
<svg version="1.1" id="Layer_1" xmlns="http://www.w3.org/2000/svg" xmlns:xlink="http://www.w3.org/1999/xlink" x="0px" y="0px"
	 width="67.194px" height="58.077px" viewBox="0 0 67.194 58.077" style="enable-background:new 0 0 67.194 58.077;"
	 xml:space="preserve">
<path style="fill-rule:evenodd;clip-rule:evenodd;fill:#FFFFFF;" d="M65.199,31.263c0.1,0.15,0.171,0.323,0.205,0.513
	c0.128,0.725-0.341,1.414-1.048,1.538c-0.355,0.063-0.703-0.03-0.978-0.229c-0.022-0.696-0.067-1.386-0.136-2.069
	c0.018-0.016,0.034-0.034,0.052-0.049c-0.021-0.013-0.042-0.028-0.063-0.042c-0.14-1.337-0.369-2.648-0.68-3.927
	c0.011-0.014,0.021-0.029,0.032-0.043c-0.016-0.005-0.031-0.014-0.047-0.021c-0.168-0.687-0.361-1.364-0.576-2.032
	c0.19-0.262,0.473-0.455,0.813-0.515c0.707-0.124,1.385,0.363,1.513,1.088c0.034,0.19,0.025,0.377-0.017,0.552
	c1.361-0.159,2.632,0.794,2.88,2.193C67.4,29.621,66.532,30.949,65.199,31.263z M62.231,20.605c0.145,0.107,0.272,0.245,0.369,0.412
	c0.37,0.638,0.165,1.444-0.457,1.802c-0.277,0.159-0.589,0.197-0.884,0.14c-1.062-2.646-2.491-5.105-4.226-7.313
	c0.1-0.276,0.286-0.52,0.558-0.676c0.622-0.357,1.426-0.13,1.796,0.507c0.097,0.167,0.153,0.345,0.174,0.524
	c1.224-0.612,2.747-0.15,3.46,1.081C63.735,18.313,63.376,19.856,62.231,20.605z M56.586,13.654
	c-0.223,0.265-0.533,0.413-0.857,0.445c-0.474-0.525-0.966-1.034-1.476-1.524c0.002-0.013,0.002-0.026,0.004-0.039
	c-0.013,0.002-0.027,0.002-0.04,0.004c-0.97-0.931-2.003-1.795-3.092-2.589c0-0.011-0.002-0.022-0.002-0.033
	c-0.01,0.003-0.021,0.005-0.031,0.009c-0.575-0.418-1.166-0.816-1.771-1.193c-0.021-0.319,0.071-0.644,0.291-0.904
	c0.462-0.548,1.295-0.608,1.862-0.135c0.148,0.124,0.263,0.272,0.344,0.434c0.939-0.992,2.529-1.076,3.623-0.163
	s1.287,2.486,0.468,3.58c0.173,0.051,0.34,0.138,0.488,0.262C56.963,12.278,57.048,13.106,56.586,13.654z M50.922,16.928
	l0.247,0.078h-0.303l0.961,3.843l0,0c-1.345-0.144-1.908-0.331-1.441-0.72c1.586-1.327,0.336-3.075-0.24-3.843
	s-2.69-1.057-4.083-0.72c-1.394,0.336-1.565,0.039-1.441-0.721c0.171-1.048,0.539-1.807-0.961-2.882
	c-0.676-0.485-1.428-0.627-2.144-0.594L40.824,10.6l6.627-1.483l0.448,5.159l0.662-1.146l1.473-0.393L50.922,16.928z M47.544,7.708
	c-0.62-0.329-1.251-0.637-1.896-0.923c-0.004-0.017-0.01-0.034-0.013-0.051c-0.017,0.009-0.034,0.016-0.05,0.024
	c-1.217-0.536-2.477-0.995-3.772-1.367c-0.007-0.017-0.016-0.033-0.023-0.051c-0.014,0.012-0.029,0.021-0.043,0.031
	C41.074,5.18,40.391,5.013,39.7,4.869c-0.14-0.299-0.168-0.646-0.047-0.977c0.246-0.672,1.008-1.013,1.703-0.761
	c0.182,0.066,0.34,0.167,0.472,0.29c0.542-1.252,2.007-1.872,3.348-1.386c1.342,0.486,2.063,1.898,1.67,3.205
	c0.181-0.01,0.367,0.014,0.549,0.08c0.695,0.251,1.059,1,0.813,1.672C48.088,7.321,47.843,7.569,47.544,7.708z M35.641,4.31
	c-0.009-0.015-0.021-0.028-0.029-0.044c-0.012,0.014-0.026,0.026-0.039,0.04c-0.662-0.043-1.329-0.068-2.002-0.068
	c-0.673,0-1.34,0.025-2.002,0.068c-0.012-0.013-0.026-0.025-0.038-0.04c-0.009,0.016-0.02,0.029-0.029,0.044
	c-0.706,0.048-1.405,0.122-2.097,0.219c-0.23-0.233-0.374-0.548-0.374-0.896c0-0.716,0.598-1.297,1.335-1.297
	c0.193,0,0.376,0.041,0.542,0.112C30.987,1.083,32.147,0,33.571,0s2.584,1.083,2.663,2.447c0.166-0.071,0.349-0.112,0.542-0.112
	c0.738,0,1.335,0.581,1.335,1.297c0,0.348-0.143,0.663-0.374,0.896C37.046,4.432,36.347,4.358,35.641,4.31z M35.909,9.949V8.626
	l1.079-1.076l2.865,3.186l-0.037,0.024l0.749,0.749c-0.972,0.246-1.747,0.728-1.95,0.933c-0.541,0.542-0.578,0.983-0.721,0.24
	C37.5,10.633,36.039,9.594,34.051,9.8c-1.291,0.134-2.013,1.15-2.477,1.843l-3.545-1.418l4.912-4.519L35.909,9.949z M23.722,14.363
	c-0.148,1.085-0.625,0.48-1.201,0c-0.577-0.48-1.826-0.672-3.363,0.24c-0.47,0.279-0.803,0.697-1.035,1.157l-1.291,0.199
	l1.885-6.019l4.692,2.191l-0.662-1.146l0.396-1.471l4.18,1.36l0.014-0.014l0.359,0.144c-0.497,0.004-1.09,0.084-1.813,0.236
	C24.457,11.54,23.872,13.269,23.722,14.363z M19.52,7.749c-0.262-0.145-0.476-0.374-0.585-0.673
	c-0.245-0.673,0.118-1.423,0.812-1.675c0.181-0.066,0.367-0.09,0.547-0.08c-0.393-1.309,0.327-2.723,1.666-3.21
	c1.338-0.487,2.798,0.134,3.339,1.389c0.131-0.124,0.29-0.225,0.471-0.291c0.693-0.252,1.454,0.089,1.699,0.762
	c0.109,0.301,0.092,0.616-0.017,0.896C24.641,5.453,21.978,6.434,19.52,7.749z M11.342,14.178c-0.289-0.05-0.562-0.19-0.763-0.43
	c-0.46-0.549-0.376-1.378,0.189-1.852c0.148-0.124,0.314-0.21,0.487-0.262c-0.816-1.095-0.624-2.67,0.467-3.585
	c1.091-0.916,2.676-0.832,3.613,0.163c0.081-0.161,0.195-0.31,0.343-0.434c0.565-0.474,1.396-0.414,1.857,0.135
	c0.199,0.237,0.29,0.526,0.291,0.816C15.412,10.232,13.229,12.07,11.342,14.178z M5.037,22.929c-0.62-0.358-0.824-1.166-0.456-1.805
	c0.097-0.167,0.223-0.305,0.368-0.413c-1.142-0.75-1.5-2.296-0.788-3.529s2.23-1.696,3.451-1.083
	c0.021-0.179,0.077-0.358,0.173-0.525c0.369-0.639,1.171-0.866,1.791-0.508c0.242,0.14,0.418,0.349,0.524,0.588
	c-1.76,2.241-3.205,4.74-4.271,7.431C5.563,23.119,5.286,23.073,5.037,22.929z M4.407,24.5c0.31,0.055,0.569,0.222,0.757,0.45
	c-0.63,1.965-1.062,4.018-1.272,6.137c-0.001,0-0.002,0.002-0.003,0.002c0.001,0.001,0.002,0.002,0.003,0.003
	c-0.07,0.709-0.115,1.426-0.135,2.148c-0.266,0.177-0.592,0.259-0.927,0.2c-0.706-0.125-1.174-0.814-1.045-1.54
	c0.033-0.19,0.105-0.363,0.205-0.514c-1.33-0.314-2.195-1.645-1.948-3.047s1.516-2.356,2.873-2.197
	c-0.042-0.176-0.05-0.363-0.017-0.553C3.026,24.864,3.702,24.376,4.407,24.5z M7.978,31.727l-1.076-1.079l3.409-3.066l-0.006-0.026
	l2.833-2.656c0.005,0.01,0.01,0.021,0.014,0.032c0.529,1.153-0.573,0.877-1.441,1.441c-1.572,1.02-2.162,2.546-1.682,4.083
	s2.114,1.777,2.642,2.882c0.005,0.011,0.012,0.024,0.017,0.036c-0.008,0.228-0.017,0.455-0.017,0.685
	c0,2.497,0.439,4.89,1.243,7.109h-2.9l-5.958-6.474l4.244-2.967H7.978z M16.532,16.915l1.257-0.229
	c-0.184,0.769-0.16,1.489-0.072,1.76c0.208,0.642-0.066,1.583-0.961,1.201c-1.107-0.472-2.121-0.251-2.889,0.33l-1.145-0.661
	l-0.392-1.472l4.189-0.888L16.532,16.915z M10.05,26.415l-1.341-5.989l5.158-0.448c-0.387,0.293-0.713,0.676-0.955,1.11
	c-0.539,0.97-0.433,1.994-0.124,2.931L10.05,26.415z M29.727,11.961c-0.049-0.073-0.1-0.141-0.153-0.206l1.455,0.582
	C30.659,12.691,30.326,12.859,29.727,11.961z M10.817,28.923c0.34-1.881,1.322-1.962,2.031-1.837
	c-1.363,0.613-1.35,2.12-0.417,2.365c0.748,0.197,1.655-0.058,2.459-1.794c0.507-2.234-2.461-3.657-1.097-6.02
	c0.956-1.656,1.913-1.392,2.537-1.032c-1.491,0.11-1.993,1.53-1.201,2.08c0.73,0.507,1.865,0.524,3.561-1.558
	c0.629-1.82-1.129-3.922,0.781-5.524c1.464-1.229,2.273-0.654,2.737-0.102c-1.438-0.407-2.396,0.756-1.84,1.543
	c0.446,0.632,1.307,1.02,3.041,0.205c1.824-1.386,0.465-4.383,3.029-5.316c1.796-0.654,2.36,0.164,2.607,0.841
	c-1.213-0.874-2.511-0.109-2.257,0.821c0.175,0.642,0.697,1.22,2.053,1.259c0.055-0.008,0.11-0.013,0.167-0.013
	c3.147,0,2.482-4.083,5.525-4.083c1.912,0,2.162,0.961,2.162,1.682c-0.841-1.236-2.322-0.961-2.402,0
	c-0.065,0.785,0.359,1.653,2.301,2.138c2.261,0.075,3.151-3.054,5.701-2.126c1.796,0.654,1.703,1.642,1.457,2.319
	c-0.367-1.449-1.854-1.697-2.257-0.821c-0.352,0.762-0.213,1.803,1.776,3.018c2.021,0.612,3.874-1.808,5.887-0.119
	c1.465,1.229,1.039,2.125,0.576,2.678c0.15-1.487-1.161-2.229-1.84-1.544c-0.578,0.583-0.803,1.578,0.548,3.326
	c1.69,1.203,4.224-0.387,5.526,1.868c0.956,1.655,0.249,2.353-0.375,2.713c0.65-1.346-0.329-2.491-1.201-2.08
	c-0.693,0.327-1.221,1.097-0.742,2.91c0.888,2.4,4.342,1.385,4.836,4.189c0.332,1.882-0.571,2.295-1.281,2.42
	c1.071-1.042,0.543-2.453-0.417-2.365s-1.639,0.888-1.999,3.812c-0.075,0.605-0.109,1.618-0.69,2.085
	c0.137-0.915,0.21-1.852,0.21-2.806c0-10.347-8.389-18.734-18.737-18.734s-18.737,8.388-18.737,18.734
	c0,0.923,0.07,1.829,0.199,2.716c-0.602-0.966-0.813-1.539-0.919-2.236C13.593,31.14,10.275,31.918,10.817,28.923z M33.571,17.486
	c9.154,0,16.575,7.42,16.575,16.573c0,8.749-6.781,15.909-15.374,16.525c0-3.029-0.041-3.489,2.402-4.516
	c0.081-0.034,0.127-0.066,0.157-0.097c5.061-1.596,8.731-6.325,8.731-11.913c0-6.898-5.593-12.49-12.491-12.49
	c-6.899,0-12.491,5.592-12.491,12.49c0,5.587,3.67,10.317,8.731,11.913c0.03,0.031,0.076,0.063,0.157,0.097
	c2.442,1.027,2.402,1.486,2.402,4.516c-8.593-0.616-15.374-7.776-15.374-16.525C16.996,24.906,24.417,17.486,33.571,17.486z
	 M24.793,50.61c-0.488,0.167-1.008,0.261-1.552,0.261c-2.653,0-4.804-2.151-4.804-4.804c0-0.292,0.03-0.577,0.08-0.855
	C20.176,47.447,22.32,49.296,24.793,50.61z M32.37,36.701c0,1.054,0,2.391,0,3.242c-2.588-0.525-4.566-2.715-4.78-5.403
	c0.342,0,1.031,0,2.137,0C31.409,34.539,32.37,35.019,32.37,36.701z M39.552,34.539c-0.213,2.688-2.192,4.878-4.78,5.403
	c0-0.851,0-2.188,0-3.242c0-1.682,0.96-2.162,2.642-2.162C38.521,34.539,39.209,34.539,39.552,34.539z M33.571,28.054
	c2.644,0,4.884,1.71,5.686,4.083H27.885C28.687,29.764,30.927,28.054,33.571,28.054z M33.811,52.793
	c1.459,0,2.642,1.183,2.642,2.642s-1.183,2.642-2.642,2.642c-1.459,0-2.643-1.183-2.643-2.642S32.352,52.793,33.811,52.793z
	 M48.624,45.213c0.05,0.278,0.08,0.563,0.08,0.855c0,2.653-2.151,4.804-4.804,4.804c-0.544,0-1.064-0.095-1.552-0.261
	C44.821,49.296,46.966,47.447,48.624,45.213z M58.365,23.551l-1.402,4.307l0.262,0.285l-0.354-0.088l-0.309,1.005
	c-0.271-0.338-0.577-0.608-0.892-0.765c-1.02-0.508-1.922-1.009-1.682-1.441c0.24-0.433,1.538-0.528,1.441-2.402
	c-0.076-1.477-1.435-2.772-2.667-3.326l-0.886-3.898l6.062,1.897l-2.191,4.691l1.146-0.662L58.365,23.551z M56.872,33.338
	c0.75-0.879,0.735-2.075,0.353-3.1l0.489-1.565l4.37,4.75L57.84,36.39h1.323l1.076,1.079l-4.112,3.699h-2.9
	c0.677-1.87,1.091-3.864,1.207-5.938C55.08,34.848,55.862,34.521,56.872,33.338z"/>
</svg>
