<?xml version="1.0" encoding="iso-8859-1"?>
<!-- Generator: Adobe Illustrator 16.0.0, SVG Export Plug-In . SVG Version: 6.00 Build 0)  -->
<!DOCTYPE svg PUBLIC "-//W3C//DTD SVG 1.1//EN" "http://www.w3.org/Graphics/SVG/1.1/DTD/svg11.dtd">
<svg version="1.1" id="Layer_1" xmlns="http://www.w3.org/2000/svg" xmlns:xlink="http://www.w3.org/1999/xlink" x="0px" y="0px"
	 width="67.68px" height="69.6px" viewBox="0 0 67.68 69.6" style="enable-background:new 0 0 67.68 69.6;" xml:space="preserve">
<path style="fill-rule:evenodd;clip-rule:evenodd;fill:#FFFFFF;" d="M62.112,45.874c-3.075,0-5.568-2.489-5.568-5.56
	c0-3.07,2.493-5.56,5.568-5.56s5.568,2.489,5.568,5.56C67.68,43.385,65.187,45.874,62.112,45.874z M56.735,27.57
	c-3.075,0-5.568-2.489-5.568-5.56c0-3.07,2.493-5.56,5.568-5.56c3.075,0,5.568,2.489,5.568,5.56
	C62.303,25.081,59.81,27.57,56.735,27.57z M46.714,13.271c-2.05,0-3.712-1.66-3.712-3.707c0-2.047,1.662-3.707,3.712-3.707
	c2.05,0,3.712,1.659,3.712,3.707C50.426,11.611,48.764,13.271,46.714,13.271z M34.982,7.413c-2.05,0-3.712-1.66-3.712-3.707
	S32.932,0,34.982,0c2.05,0,3.712,1.66,3.712,3.707S37.032,7.413,34.982,7.413z M22.028,7.413c-2.05,0-3.712-1.66-3.712-3.707
	S19.978,0,22.028,0c2.05,0,3.712,1.66,3.712,3.707S24.078,7.413,22.028,7.413z M11.762,10.327c-1.367,0-2.475-1.106-2.475-2.471
	s1.108-2.471,2.475-2.471s2.475,1.106,2.475,2.471S13.129,10.327,11.762,10.327z M5.163,16.916c-1.367,0-2.475-1.106-2.475-2.471
	s1.108-2.471,2.475-2.471s2.475,1.106,2.475,2.471S6.53,16.916,5.163,16.916z M4.949,22.987c0,1.364-1.108,2.471-2.475,2.471
	S0,24.351,0,22.987c0-1.365,1.108-2.471,2.475-2.471S4.949,21.622,4.949,22.987z M19.583,29.82c0-0.135,0.109-0.244,0.245-0.244
	c0.135,0,0.244,0.109,0.244,0.244s-0.109,0.244-0.244,0.244C19.693,30.064,19.583,29.955,19.583,29.82z M19.583,30.796
	c-0.135,0-0.244-0.109-0.244-0.244s0.109-0.244,0.244-0.244c0.135,0,0.245,0.109,0.245,0.244S19.719,30.796,19.583,30.796z
	 M19.095,31.04c0,0.135-0.109,0.244-0.244,0.244c-0.135,0-0.245-0.109-0.245-0.244s0.109-0.244,0.245-0.244
	C18.985,30.796,19.095,30.905,19.095,31.04z M18.361,29.332c0-0.27,0.219-0.488,0.489-0.488c0.27,0,0.489,0.219,0.489,0.488
	s-0.219,0.488-0.489,0.488C18.581,29.82,18.361,29.602,18.361,29.332z M19.583,29.088c0.135,0,0.245,0.109,0.245,0.244
	s-0.109,0.244-0.245,0.244c-0.135,0-0.244-0.109-0.244-0.244S19.449,29.088,19.583,29.088z M18.117,30.918
	c0,0.202-0.164,0.366-0.367,0.366s-0.367-0.164-0.367-0.366s0.164-0.366,0.367-0.366S18.117,30.716,18.117,30.918z M17.384,26.647
	c0.27,0,0.489,0.218,0.489,0.488s-0.219,0.488-0.489,0.488s-0.489-0.219-0.489-0.488S17.114,26.647,17.384,26.647z M17.14,29.942
	c0,0.202-0.165,0.366-0.367,0.366c-0.203,0-0.367-0.164-0.367-0.366s0.164-0.366,0.367-0.366
	C16.975,29.576,17.14,29.74,17.14,29.942z M16.162,28.478c0-0.202,0.165-0.366,0.367-0.366c0.203,0,0.367,0.164,0.367,0.366
	s-0.164,0.366-0.367,0.366C16.326,28.844,16.162,28.68,16.162,28.478z M18.361,26.159c0-0.27,0.219-0.488,0.489-0.488
	c0.27,0,0.489,0.219,0.489,0.488s-0.219,0.488-0.489,0.488C18.581,26.647,18.361,26.429,18.361,26.159z M20.317,25.915
	c0-0.27,0.219-0.488,0.489-0.488s0.489,0.218,0.489,0.488s-0.219,0.488-0.489,0.488S20.317,26.185,20.317,25.915z M22.761,27.624
	c-0.405,0-0.733-0.328-0.733-0.732c0-0.404,0.328-0.732,0.733-0.732c0.405,0,0.733,0.328,0.733,0.732
	C23.494,27.296,23.166,27.624,22.761,27.624z M5.713,36.166c0-0.91,0.739-1.647,1.65-1.647s1.65,0.737,1.65,1.647
	c0,0.91-0.739,1.647-1.65,1.647S5.713,37.075,5.713,36.166z M10.846,39.338c0-0.91,0.739-1.647,1.65-1.647s1.65,0.738,1.65,1.647
	s-0.739,1.647-1.65,1.647S10.846,40.248,10.846,39.338z M16.528,39.582c0-0.606,0.493-1.098,1.1-1.098s1.1,0.492,1.1,1.098
	s-0.492,1.098-1.1,1.098S16.528,40.188,16.528,39.582z M20.684,37.874c0-0.606,0.492-1.098,1.1-1.098s1.1,0.492,1.1,1.098
	s-0.493,1.098-1.1,1.098S20.684,38.48,20.684,37.874z M25.938,31.528c0,0.404-0.329,0.732-0.733,0.732s-0.733-0.328-0.733-0.732
	s0.329-0.732,0.733-0.732S25.938,31.124,25.938,31.528z M25.572,34.701c0,0.607-0.493,1.099-1.1,1.099s-1.1-0.492-1.1-1.099
	c0-0.606,0.492-1.098,1.1-1.098S25.572,34.094,25.572,34.701z M24.472,28.112c0.405,0,0.733,0.328,0.733,0.732
	s-0.328,0.732-0.733,0.732c-0.405,0-0.733-0.328-0.733-0.732S24.067,28.112,24.472,28.112z M1.802,30.552
	c0-0.91,0.739-1.647,1.65-1.647s1.65,0.737,1.65,1.647c0,0.91-0.739,1.647-1.65,1.647S1.802,31.462,1.802,30.552z M47.691,33.237
	C45.269,13.078,22.54,7.232,13.718,13.957c-14.125,10.767-4.051,22.759,2.85,22.603c4.591-0.104,7.335-4.373,6.259-7.179
	c-1.075-2.807-2.897-2.247-4.102-1.667c-1.205,0.58-1.015,1.375-0.363,1.862c-0.57,0.082-1.303-1.139-0.244-1.952
	s3.377-1.978,4.888,1.22c1.42,3.006-0.48,6.691-4.888,8.054c-5.612,1.734-20.274-7.358-8.31-21.721
	c8.202-9.846,33.566-7.24,40.084,11.958c4.548,13.398,1.019,29.569-10.54,42.465H28.167C40.124,59.499,49.201,45.8,47.691,33.237z
	 M53.855,60.326c0-3.071,2.493-5.56,5.568-5.56s5.568,2.489,5.568,5.56s-2.493,5.56-5.568,5.56S53.855,63.397,53.855,60.326z"/>
</svg>
