<?xml version="1.0" encoding="iso-8859-1"?>
<!-- Generator: Adobe Illustrator 16.0.0, SVG Export Plug-In . SVG Version: 6.00 Build 0)  -->
<!DOCTYPE svg PUBLIC "-//W3C//DTD SVG 1.1//EN" "http://www.w3.org/Graphics/SVG/1.1/DTD/svg11.dtd">
<svg version="1.1" id="Layer_1" xmlns="http://www.w3.org/2000/svg" xmlns:xlink="http://www.w3.org/1999/xlink" x="0px" y="0px"
	 width="67.2px" height="67.2px" viewBox="0 0 67.2 67.2" style="enable-background:new 0 0 67.2 67.2;" xml:space="preserve">
<path style="fill-rule:evenodd;clip-rule:evenodd;fill:#FFFFFF;" d="M66.237,41.61c-0.039-0.065-0.08-0.129-0.129-0.191
	c-1.235-1.577-3.59-3.661-5.32-5.619c0.058-0.727,0.096-1.459,0.096-2.2c0-15.069-12.216-27.284-27.284-27.284
	C18.531,6.316,6.316,18.531,6.316,33.6c0,0.712,0.036,1.415,0.089,2.113c-1.52,2.198-3.926,4.66-5.315,6.401
	C0.379,39.396,0,36.542,0,33.6C0,15.043,15.043,0,33.6,0s33.6,15.043,33.6,33.6C67.2,36.361,66.865,39.043,66.237,41.61z
	 M33.6,8.337c8.883,0,16.69,4.589,21.195,11.522c-2.417-1.649-5.059-2.383-7.707-1.975c-3.625-3.114-8.334-5-13.488-5
	c-5.43,0-10.369,2.091-14.063,5.509c-2.733-0.355-5.389,0.683-7.882,2.697C16.006,13.474,24.201,8.337,33.6,8.337z M43.733,45.198
	c-0.402-0.056-0.645-0.182-0.779-0.329c3.234-2.688,5.299-6.735,5.299-11.27c0-5.07-2.578-9.535-6.492-12.165
	c0.198-0.173,0.402-0.341,0.61-0.502c4.011,2.782,6.639,7.417,6.639,12.667C49.011,38.229,46.964,42.374,43.733,45.198z
	 M45.26,18.35c-1.024,0.367-2.042,0.913-3.041,1.654c-0.197,0.146-0.391,0.295-0.582,0.446c-2.34-1.434-5.092-2.261-8.037-2.261
	c-3.241,0-6.247,1.003-8.729,2.712c-0.208-0.164-0.418-0.327-0.633-0.486c-0.972-0.722-1.94-1.245-2.901-1.587
	c3.326-2.765,7.6-4.428,12.263-4.428C37.987,14.4,42.027,15.874,45.26,18.35z M24.081,21.486c0.201,0.154,0.403,0.315,0.606,0.488
	c-3.488,2.678-5.74,6.888-5.74,11.625c0,4.131,1.714,7.858,4.465,10.521c-0.045,0.329-0.115,0.613-0.235,0.817
	c-3.063-2.816-4.988-6.85-4.988-11.338C18.189,28.683,20.495,24.308,24.081,21.486z M41.685,45.485
	c0.043,0.091,0.093,0.168,0.146,0.238c-2.346,1.596-5.179,2.53-8.23,2.53c-3.469,0-6.653-1.211-9.163-3.226
	c0.026,0.022,0.052,0.045,0.08,0.066c-0.155,0.119-0.285,0.244-0.373,0.379c0.031-0.225,0.052-0.431,0.069-0.628
	c-0.037-0.031-0.075-0.06-0.111-0.09c0.519-0.433,2.859,0.563,2.392-2.561c-0.148-0.99,0.127-2.278,0.023-2.912
	c0.865-0.527,1.437-0.921,2.018-1.499c-0.024-0.029-0.045-0.061-0.069-0.091c0.212-0.166,0.408-0.333,0.576-0.495
	c0.005,0.007,0.01,0.015,0.016,0.021c0.099-0.115,0.199-0.235,0.304-0.366c1.34-3.075,1.585-5.751,1.05-8.106
	c0.916-0.603,2.01-0.956,3.188-0.956c0.875,0,1.702,0.199,2.446,0.545c-0.536,2.355-0.291,5.031,1.05,8.105
	c0.322,0.442,0.567,0.785,0.79,1.074c-1.063,1.163-2.586,1.896-4.286,1.896c-1.84,0-3.478-0.858-4.542-2.193
	c-0.18,0.21-0.353,0.395-0.523,0.564c1.205,1.458,3.026,2.386,5.065,2.386c1.885,0,3.58-0.798,4.778-2.071
	c-0.044-0.046-0.087-0.098-0.131-0.147c0.048,0.049,0.095,0.092,0.144,0.132c-0.004,0.005-0.008,0.01-0.013,0.015
	c0.344,0.363,0.725,0.661,1.355,1.061c-0.247,0.452,0.393,1.749,0.23,2.623C39.065,46.609,43.452,43.429,41.685,45.485z
	 M36.76,28.73c0.075-0.243,0.164-0.488,0.259-0.733c1.888,1.153,3.149,3.229,3.149,5.603c0,1.446-0.476,2.776-1.269,3.86
	c-0.201-0.187-0.377-0.373-0.53-0.561c0.652-0.938,1.041-2.071,1.041-3.299C39.411,31.558,38.354,29.766,36.76,28.73z M33.6,18.947
	c2.704,0,5.235,0.736,7.41,2.013c-2.243,1.884-3.977,4.059-4.764,6.63c-0.81-0.357-1.704-0.559-2.646-0.559
	c-1.244,0-2.402,0.352-3.394,0.952c-0.785-2.55-2.502-4.71-4.723-6.583C27.807,19.852,30.598,18.947,33.6,18.947z M28.134,37.235
	c-0.694-1.041-1.102-2.29-1.102-3.635c0-2.075,0.966-3.919,2.469-5.122c0.078,0.264,0.146,0.537,0.203,0.819
	c-1.174,1.063-1.914,2.595-1.914,4.303c0,1.092,0.307,2.109,0.832,2.981C28.463,36.838,28.3,37.053,28.134,37.235z M45.682,48.519
	c-3.3,2.676-7.503,4.282-12.082,4.282c-4.994,0-9.541-1.908-12.956-5.032l1.37-0.696L21.8,45.824c0,0,1.539,0.832,2.227-0.152
	c2.629,2.088,5.954,3.338,9.573,3.338c3.337,0,6.423-1.064,8.946-2.866c0.699,0.114,1.483-0.308,1.483-0.308l-0.214,1.248
	l1.673,0.851C45.488,47.935,45.542,48.182,45.682,48.519z M16.918,49.669c1.445,0.681,2.347,0.045,2.859-0.643
	c3.667,3.287,8.51,5.289,13.822,5.289c4.889,0,9.379-1.698,12.923-4.531c0.68,0.636,1.763,0.99,3.44,0.102
	c0.979-0.519,1.995-1.433,2.954-2.517c0.371,0.567,0.578,1.102,0.75,1.571c-4.617,6.03-11.886,9.922-20.067,9.922
	c-9.007,0-16.907-4.717-21.38-11.812c0.148-0.238,0.313-0.477,0.512-0.712C14.06,47.783,15.564,49.031,16.918,49.669z
	 M49.231,55.957c-0.99,1.06-1.868,2.061-2.367,3.013c-1.154,2.202-0.939,3.991-0.688,5.795C42.291,66.334,38.047,67.2,33.6,67.2
	c-4.168,0-8.159-0.761-11.842-2.149c-0.254-1.048-0.651-2.139-1.292-3.361c-0.945-1.803-3.8-5.381-6.023-8.667
	c4.927,4.859,11.69,7.861,19.157,7.861C39.417,60.884,44.803,59.059,49.231,55.957z"/>
</svg>
