<?xml version="1.0" encoding="iso-8859-1"?>
<!-- Generator: Adobe Illustrator 16.0.0, SVG Export Plug-In . SVG Version: 6.00 Build 0)  -->
<!DOCTYPE svg PUBLIC "-//W3C//DTD SVG 1.1//EN" "http://www.w3.org/Graphics/SVG/1.1/DTD/svg11.dtd">
<svg version="1.1" id="Layer_1" xmlns="http://www.w3.org/2000/svg" xmlns:xlink="http://www.w3.org/1999/xlink" x="0px" y="0px"
	 width="67.2px" height="61.441px" viewBox="0 0 67.2 61.441" style="enable-background:new 0 0 67.2 61.441;" xml:space="preserve"
	>
<path style="fill-rule:evenodd;clip-rule:evenodd;fill:#FFFFFF;" d="M52.338,61.441c-3.053-0.556-6.674-1.426-8.824-2.471
	c8.803-3.435,15.383-11.304,16.986-20.862c0.044,0.001,0.086,0.007,0.131,0.007c2.511,0,4.547-2.034,4.547-4.543
	s-2.036-4.543-4.547-4.543c-0.044,0-0.086,0.005-0.13,0.006C58.586,17.617,49.57,8.607,38.141,6.694
	c0.001-0.044,0.006-0.087,0.006-0.131c0-2.509-2.036-4.543-4.547-4.543s-4.547,2.034-4.547,4.543c0,0.044,0.005,0.087,0.006,0.131
	C17.631,8.607,8.614,17.617,6.699,29.034c-2.455,0.066-4.425,2.07-4.425,4.538c0,2.468,1.971,4.472,4.425,4.537
	C8.3,47.654,14.865,55.514,23.65,58.957c-2.134,1.045-5.745,1.917-8.802,2.476C5.892,55.402,0,45.174,0,33.572
	C0,15.031,15.043,0,33.6,0s33.6,15.031,33.6,33.572C67.2,45.18,61.303,55.413,52.338,61.441z M8.682,37.715
	c1.583-0.711,2.687-2.297,2.687-4.143s-1.104-3.432-2.687-4.143c1.762-10.657,10.201-19.061,20.883-20.774
	c0.758,1.456,2.279,2.452,4.035,2.452s3.277-0.996,4.035-2.452c10.72,1.72,19.181,10.177,20.902,20.888
	c-1.457,0.757-2.452,2.276-2.452,4.03c0,1.754,0.997,3.274,2.454,4.031c-1.499,9.329-8.114,16.947-16.878,19.895
	c-0.773-1.19-0.977-2.729-0.937-4.484c7.931-2.902,13.592-10.512,13.592-19.442c0-11.431-9.275-20.698-20.716-20.698
	s-20.716,9.267-20.716,20.698c0,8.906,5.63,16.497,13.528,19.417c0.043,1.757-0.157,3.297-0.924,4.49
	C16.785,54.53,10.212,46.974,8.682,37.715z M49.011,33.572c0-8.504-6.899-15.397-15.411-15.397s-15.411,6.894-15.411,15.397
	c0,4.943,2.334,9.34,5.959,12.157c0.54,1.686,1.252,3.262,2.078,4.655c0.033,0.317,0.062,0.629,0.088,0.938
	c-6.99-2.867-11.915-9.733-11.915-17.75c0-10.595,8.596-19.184,19.2-19.184s19.2,8.589,19.2,19.184
	c0,8.042-4.956,14.925-11.98,17.776c0.027-0.317,0.057-0.638,0.09-0.964c0.815-1.376,1.521-2.929,2.058-4.59
	C46.641,42.98,49.011,38.554,49.011,33.572z M22.725,35.888c0.577,2.087,1.035,6.027,1.035,8.499
	c0.004,0.014,0.008,0.028,0.012,0.043c-2.962-2.679-4.824-6.551-4.824-10.857c0-8.085,6.561-14.64,14.653-14.64
	s14.653,6.555,14.653,14.64c0,4.346-1.897,8.248-4.907,10.929c0.01-0.039,0.021-0.076,0.032-0.115c0-2.472,0.458-6.412,1.035-8.499
	c2.136-7.724-4.916-14.508-10.883-14.508C27.562,21.38,20.588,28.164,22.725,35.888z M33.6,27.261c3.488,0,6.316,2.825,6.316,6.311
	s-2.828,6.311-6.316,6.311s-6.316-2.825-6.316-6.311S30.112,27.261,33.6,27.261z M33.6,38.62c2.791,0,5.053-2.26,5.053-5.048
	s-2.262-5.048-5.053-5.048s-5.053,2.26-5.053,5.048S30.81,38.62,33.6,38.62z M36.379,33.572c-0.8,0.42-1.244,1.515-2.779,1.515
	s-1.895-1.136-2.779-1.515c0.884-0.379,1.244-1.515,2.779-1.515S35.537,33.151,36.379,33.572z M32.842,33.572
	c0,0.418,0.339,0.757,0.758,0.757s0.758-0.339,0.758-0.757c0-0.418-0.339-0.757-0.758-0.757S32.842,33.153,32.842,33.572z"/>
</svg>
