<?xml version="1.0" encoding="iso-8859-1"?>
<!-- Generator: Adobe Illustrator 16.0.0, SVG Export Plug-In . SVG Version: 6.00 Build 0)  -->
<!DOCTYPE svg PUBLIC "-//W3C//DTD SVG 1.1//EN" "http://www.w3.org/Graphics/SVG/1.1/DTD/svg11.dtd">
<svg version="1.1" id="Layer_1" xmlns="http://www.w3.org/2000/svg" xmlns:xlink="http://www.w3.org/1999/xlink" x="0px" y="0px"
	 width="67.2px" height="61.203px" viewBox="0 0 67.2 61.203" style="enable-background:new 0 0 67.2 61.203;" xml:space="preserve"
	>
<path style="fill-rule:evenodd;clip-rule:evenodd;fill:#FFFFFF;" d="M67.066,36.286c-4.814-0.306-15.348-0.977-22.473-1.44
	c0.427-2.13,0.17-4.172-0.549-6c6.238-4.165,15.092-10.057,18.624-12.406C65.545,21.396,67.2,27.15,67.2,33.295
	C67.2,34.303,67.153,35.301,67.066,36.286z M35.869,21.415C36.715,13.746,37.849,3.596,38.251,0
	c7.237,1.002,13.735,4.314,18.733,9.163c-2.686,2.819-9.952,10.442-15.243,15.98C40.111,23.324,38.005,21.996,35.869,21.415z
	 M43.215,29.398c-3.332,2.226-5.741,3.842-5.855,3.938c-0.87-0.859-0.933-1.447-1.624-1.936c0.101-0.085,2.323-2.403,5.329-5.548
	C41.988,26.871,42.743,28.066,43.215,29.398z M32.337,30.768c0-0.139-0.381-3.648-0.894-8.301c0.707-0.188,1.411-0.291,2.085-0.291
	c0.717,0,1.467,0.115,2.221,0.327c-0.508,4.616-0.886,8.099-0.886,8.265C34.189,30.431,33.011,30.431,32.337,30.768z M29.841,33.336
	c-0.116-0.097-2.559-1.736-5.928-3.986c0.477-1.339,1.236-2.539,2.166-3.557c3.034,3.175,5.284,5.522,5.386,5.607
	C30.773,31.889,30.71,32.477,29.841,33.336z M25.404,25.087c-5.287-5.534-12.512-13.115-15.188-15.924
	C15.214,4.314,21.712,1.002,28.949,0c0.401,3.591,1.529,13.715,2.375,21.38C29.171,21.937,27.047,23.26,25.404,25.087z
	 M22.544,34.85c-7.124,0.464-17.61,1.132-22.41,1.437C0.047,35.301,0,34.303,0,33.295c0-6.145,1.655-11.899,4.532-16.855
	c3.52,2.341,12.325,8.2,18.56,12.363C22.369,30.643,22.112,32.702,22.544,34.85z M23.76,44.124c0.558,2.198,1.425,4.246,2.467,6.006
	c0.313,3.052,0.404,5.719-1.008,7.482c-1.226,1.531-6.293,2.835-10.37,3.581C9.083,57.307,4.59,51.676,2.119,45.059
	c4.804-1.413,14.567-4.282,21.223-6.226C23.596,40.65,23.76,42.648,23.76,44.124z M30.568,36.708
	c-0.582,0.246-0.905,0.884-2.021,0.884s-1.378-0.664-2.021-0.884c0.643-0.221,0.905-0.885,2.021-0.885S29.956,36.461,30.568,36.708z
	 M36.379,33.295c-0.8,0.421-1.244,1.517-2.779,1.517s-1.895-1.137-2.779-1.517c0.884-0.379,1.244-1.517,2.779-1.517
	S35.537,32.874,36.379,33.295z M32.842,33.295c0,0.419,0.339,0.758,0.758,0.758s0.758-0.339,0.758-0.758
	c0-0.418-0.339-0.758-0.758-0.758S32.842,32.876,32.842,33.295z M40.674,36.708c-0.582,0.246-0.905,0.884-2.021,0.884
	s-1.378-0.664-2.021-0.884c0.643-0.221,0.905-0.885,2.021-0.885S40.062,36.461,40.674,36.708z M43.377,44.124
	c0-1.481,0.165-3.487,0.42-5.309c6.657,1.944,16.465,4.827,21.284,6.244c-2.473,6.622-6.971,12.256-12.743,16.144
	c-4.085-0.745-9.188-2.053-10.419-3.59c-1.413-1.763-1.322-4.43-1.009-7.482C41.952,48.37,42.819,46.322,43.377,44.124z"/>
</svg>
