<?xml version="1.0" encoding="iso-8859-1"?>
<!-- Generator: Adobe Illustrator 16.0.0, SVG Export Plug-In . SVG Version: 6.00 Build 0)  -->
<!DOCTYPE svg PUBLIC "-//W3C//DTD SVG 1.1//EN" "http://www.w3.org/Graphics/SVG/1.1/DTD/svg11.dtd">
<svg version="1.1" id="Layer_1" xmlns="http://www.w3.org/2000/svg" xmlns:xlink="http://www.w3.org/1999/xlink" x="0px" y="0px"
	 width="67.2px" height="67.2px" viewBox="0 0 67.2 67.2" style="enable-background:new 0 0 67.2 67.2;" xml:space="preserve">
<path style="fill-rule:evenodd;clip-rule:evenodd;fill:#FFFFFF;" d="M56.475,22.721c3.446-3.479,3.446-9.118,0-12.596
	c-3.446-3.478-9.033-3.478-12.479,0c7.488-7.558,13.769-1.134,17.887-5.291C57.765,8.991,64.004,15.122,56.475,22.721z
	 M46.381,46.351c-3.249-2.859-7.523-1.616-12.644-2.843c0.951-0.013,1.9-0.163,2.817-0.448c-1.203-0.879-1.987-2.296-1.987-3.9
	c0-2.67,2.165-4.834,4.834-4.834c1.529,0,2.891,0.712,3.776,1.82c0.457-1.725,0.438-3.548-0.05-5.266
	c-0.887,1.071-2.227,1.754-3.726,1.754c-2.67,0-4.834-2.165-4.834-4.834c0-1.5,0.684-2.84,1.755-3.727
	c-0.85-0.242-1.725-0.37-2.601-0.38c-0.94,0.011-1.879,0.155-2.787,0.432c1.038,0.887,1.699,2.203,1.699,3.675
	c0,2.67-2.165,4.834-4.834,4.834c-1.401,0-2.66-0.6-3.542-1.552c-0.432,1.649-0.432,3.389,0,5.039
	c0.883-0.953,2.141-1.553,3.543-1.553c2.67,0,4.834,2.165,4.834,4.834c0,1.472-0.66,2.788-1.698,3.674
	c0.902,0.275,1.835,0.419,2.77,0.433c-1.856,0.445-3.601,0.565-5.226,0.674c-0.223,0.032-0.449,0.054-0.681,0.054
	c-0.02,0-0.038-0.003-0.057-0.003c-2.61,0.185-4.894,0.469-6.813,2.239c-0.005-0.005-0.011-0.01-0.016-0.015
	c1.621-1.761,1.963-3.86,2.125-6.24c-0.045-0.266-0.074-0.538-0.074-0.816c0-0.475,0.072-0.933,0.199-1.367
	c0.09-1.51,0.231-3.113,0.652-4.798c-0.253-1.237-0.38-2.423-0.471-3.555c-0.245-0.579-0.381-1.215-0.381-1.883
	c0-0.4,0.054-0.786,0.146-1.158c-0.217-2.183-0.65-4.107-2.162-5.734c0.005-0.004,0.011-0.008,0.016-0.012
	c1.712,1.584,3.783,1.95,6.142,2.125c0.227-0.033,0.457-0.056,0.693-0.056c0.443,0,0.871,0.065,1.279,0.177
	c1.46,0.086,3.013,0.201,4.644,0.549c1.514-0.323,2.959-0.445,4.328-0.53c0.43-0.125,0.882-0.196,1.352-0.196
	c0.262,0,0.517,0.027,0.768,0.067c2.361-0.167,4.438-0.498,6.163-2.007l0,0c0.011,0.009,0.022,0.019,0.033,0.028
	c-1.655,1.879-1.937,4.145-2.129,6.739c0,0.002,0,0.005,0,0.008c0,0.216-0.02,0.428-0.047,0.637
	c-0.105,1.499-0.215,3.103-0.563,4.801c1.323,5.29-0.123,9.775,2.781,13.09C46.399,46.335,46.389,46.342,46.381,46.351z
	 M23.448,40.852c0,1.735,1.407,3.142,3.142,3.142c1.736,0,3.143-1.407,3.143-3.142c0-1.736-1.407-3.143-3.143-3.143
	C24.854,37.709,23.448,39.116,23.448,40.852z M26.59,23.448c-1.735,0-3.142,1.407-3.142,3.142c0,1.736,1.407,3.143,3.142,3.143
	c1.736,0,3.143-1.407,3.143-3.143C29.732,24.854,28.326,23.448,26.59,23.448z M43.752,26.59c0-1.735-1.407-3.142-3.142-3.142
	c-1.736,0-3.143,1.407-3.143,3.142c0,1.736,1.407,3.143,3.143,3.143C42.346,29.732,43.752,28.326,43.752,26.59z M40.61,37.468
	c-1.736,0-3.143,1.407-3.143,3.143c0,1.735,1.407,3.142,3.143,3.142c1.735,0,3.142-1.407,3.142-3.142
	C43.752,38.875,42.346,37.468,40.61,37.468z M33.737,43.508c-0.005,0-0.011,0-0.016,0c-0.005,0-0.011,0-0.016,0
	c0.005-0.001,0.011-0.002,0.016-0.003C33.726,43.506,33.731,43.507,33.737,43.508z M44.72,17.163c0-2.67,2.164-4.834,4.834-4.834
	c2.67,0,4.834,2.165,4.834,4.834s-2.165,4.834-4.834,4.834c-0.54,0-1.055-0.096-1.54-0.259c0.109,0.011,0.219,0.018,0.331,0.018
	c1.736,0,3.143-1.407,3.143-3.143c0-1.735-1.407-3.142-3.143-3.142c-1.735,0-3.142,1.407-3.142,3.142
	c0,0.115,0.007,0.229,0.019,0.341c0.002,0.019,0.006,0.036,0.008,0.055c0.012,0.096,0.027,0.19,0.048,0.283
	c0.002,0.01,0.005,0.02,0.008,0.03c0.023,0.102,0.052,0.202,0.085,0.299c0,0.001,0.001,0.003,0.002,0.005
	c0.036,0.104,0.077,0.206,0.123,0.306c-3.184-2.774-7.34-4.461-11.896-4.461c-4.454,0-8.526,1.612-11.682,4.276
	c0.203-0.416,0.32-0.881,0.32-1.376c0-1.735-1.407-3.142-3.142-3.142c-1.736,0-3.143,1.407-3.143,3.142
	c0,1.736,1.407,3.143,3.143,3.143c0.434,0,0.848-0.088,1.225-0.248c-3.007,3.236-4.851,7.568-4.851,12.334
	c0,4.895,1.945,9.331,5.098,12.592c0.006,0.005,0.012,0.011,0.019,0.016c-0.497-0.329-1.092-0.521-1.732-0.521
	c-1.736,0-3.143,1.407-3.143,3.143c0,1.735,1.407,3.142,3.143,3.142c1.735,0,3.142-1.407,3.142-3.142c0-0.67-0.211-1.29-0.568-1.799
	c3.217,2.918,7.485,4.7,12.171,4.7c4.783,0,9.131-1.855,12.371-4.882c0-0.001,0.001-0.001,0.002-0.002
	c-0.333,0.499-0.528,1.098-0.528,1.742c0,1.736,1.407,3.143,3.142,3.143c1.736,0,3.143-1.407,3.143-3.143
	c0-1.735-1.407-3.142-3.143-3.142c-0.646,0-1.246,0.195-1.745,0.529c3.029-3.24,4.887-7.589,4.887-12.374
	c0-4.66-1.765-8.903-4.654-12.114c0.134,0.06,0.273,0.109,0.417,0.149c0.007,0.002,0.014,0.003,0.02,0.005
	c0.142,0.039,0.288,0.069,0.437,0.088l0,0c7.3,5.131,11.366,11.63,19.251,11.63c-7.629,0-11.546,6.468-18.368,11.7
	c0.312-0.063,0.634-0.097,0.964-0.097c2.67,0,4.834,2.164,4.834,4.834c0,2.67-2.165,4.834-4.834,4.834
	c-2.67,0-4.834-2.165-4.834-4.834c0-0.249,0.024-0.492,0.061-0.73c-5.034,6.845-11.18,10.482-11.18,18.134
	c0-7.623-6.274-11.327-11.456-18.113c0.061,0.308,0.094,0.625,0.094,0.951c0,2.67-2.164,4.834-4.834,4.834
	c-2.67,0-4.834-2.165-4.834-4.834s2.165-4.834,4.834-4.834c0.333,0,0.659,0.034,0.973,0.098C11.527,40.047,7.589,33.358,0,33.358
	c7.795,0,11.671-6.646,19.147-11.774c-0.402,0.108-0.823,0.171-1.26,0.171c-2.67,0-4.834-2.165-4.834-4.834s2.165-4.834,4.834-4.834
	c2.67,0,4.834,2.165,4.834,4.834c0,0.382-0.049,0.752-0.132,1.108C27.74,11.324,33.842,7.374,33.842,0
	c0,7.559,6.034,11.449,11.065,18.483C44.788,18.063,44.72,17.621,44.72,17.163z M10.725,9.883c-3.446,3.479-3.446,9.118,0,12.596
	c-7.529-7.6-1.29-13.73-5.408-17.887C9.436,8.75,15.717,2.326,23.205,9.883C19.758,6.405,14.171,6.405,10.725,9.883z M10.483,44.479
	c-3.446,3.479-3.446,9.118,0,12.596c3.446,3.478,9.033,3.478,12.479,0c-7.488,7.558-13.769,1.134-17.887,5.291
	C9.194,58.209,2.954,52.079,10.483,44.479z M56.717,56.833c3.446-3.479,3.446-9.118,0-12.596c7.529,7.6,1.29,13.73,5.408,17.887
	c-4.118-4.157-10.399,2.267-17.887-5.291C47.684,60.312,53.271,60.312,56.717,56.833z"/>
</svg>
