<?xml version="1.0" encoding="iso-8859-1"?>
<!-- Generator: Adobe Illustrator 16.0.0, SVG Export Plug-In . SVG Version: 6.00 Build 0)  -->
<!DOCTYPE svg PUBLIC "-//W3C//DTD SVG 1.1//EN" "http://www.w3.org/Graphics/SVG/1.1/DTD/svg11.dtd">
<svg version="1.1" id="Layer_1" xmlns="http://www.w3.org/2000/svg" xmlns:xlink="http://www.w3.org/1999/xlink" x="0px" y="0px"
	 width="54.48px" height="67.2px" viewBox="0 0 54.48 67.2" style="enable-background:new 0 0 54.48 67.2;" xml:space="preserve">
<path style="fill-rule:evenodd;clip-rule:evenodd;fill:#FFFFFF;" d="M27.24,67.2C15.236,67.2,0,47.238,0,30.021
	C0,12.803,10.012,0,27.24,0s27.24,12.803,27.24,30.021C54.48,47.238,39.244,67.2,27.24,67.2z M7.192,14.639
	c-0.876,0-1.586,0.708-1.586,1.582c0,0.874,0.71,1.582,1.586,1.582c0.875,0,1.585-0.708,1.585-1.582
	C8.778,15.347,8.068,14.639,7.192,14.639z M37.095,16.899c-0.453-0.603-1.208-1.281-2.265-2.712
	c-1.057-1.431-1.813-2.147-2.719-2.486c-0.848-0.317-2.492-0.226-3.171-0.452s-0.306-0.437-0.306-1.266
	c0.253-0.498,0.759-0.87,0.759-2.486s-0.253-3.48-2.279-3.48c-2.025,0-2.025,1.864-2.025,3.48s0.506,1.989,0.76,2.486
	c0,0.829,0.373,1.04-0.307,1.266s-2.296,0.219-3.171,0.452c-0.85,0.226-1.661,1.055-2.718,2.486
	c-1.058,1.432-1.813,2.109-2.266,2.712c-0.604,0.527-2.559,0.29-6.796,1.356c-0.726,0.183-1.661,0.151-2.718,0.904
	c-0.567,0.403-1.737,0.753-0.227,0.904c1.511,0.151,2.719-0.904,3.172-0.904c1.06,0,5.512,0.301,6.796,0
	c0.958-0.225,4.223-3.662,5.064-3.842c0.346-0.075,0.277,2.752,0.624,4.017c0.346,1.265,0.485,4.451,0,5.939
	c-0.485,1.489-1.158,2.005-1.158,9.322c0,2.675,0.979,6.143,0.979,6.927s-0.069,0.971-0.069,3.787s1.258,5.777,1.208,7.437
	c-0.05,1.66-0.251,4.505,0.302,5.217c0.554,0.711,1.75,0.008,1.799-0.667c0.049-0.674-0.064-1.584,0.087-2.616
	c0.151-1.032,0.302-1.588,0-2.62c-0.302-1.032-0.151-2.461,0-4.763s0.227-4.921,0.227-6.429c0-1.508,0.453-7.462,0.68-10.24
	c0.151,2.619,0.906,8.731,0.906,10.24c0,1.508,0.076,4.127,0.227,6.429c0.151,2.302,0.302,3.731,0,4.763
	c-0.302,1.032-0.151,1.587,0,2.62c0.151,1.032,0.038,1.942,0.087,2.616c0.049,0.674,1.02,1.378,1.573,0.667s0.352-3.557,0.302-5.217
	c-0.05-1.66,1.208-4.621,1.208-7.437s-0.069-3.003-0.069-3.787s0.979-4.252,0.979-6.927c0-7.317-0.673-7.833-1.158-9.322
	c-0.485-1.489-0.346-4.675,0-5.939c0.347-1.264,0.277-4.091,0.624-4.017c0.84,0.18,3.879,3.617,4.837,3.842
	c1.284,0.301,5.736,0,6.796,0c0.453,0,1.661,1.055,3.171,0.904c1.51-0.15,0.34-0.5-0.227-0.904
	c-1.057-0.753-1.993-0.722-2.718-0.904C39.654,17.189,37.699,17.426,37.095,16.899z M45.703,16.221c0,0.874,0.71,1.582,1.586,1.582
	c0.875,0,1.585-0.708,1.585-1.582c0-0.874-0.71-1.582-1.585-1.582C46.413,14.639,45.703,15.347,45.703,16.221z M46.754,10.663
	c2.687,4.316,4.112,9.746,4.112,15.804c0,14.961-13.214,32.308-23.625,32.308S3.615,41.429,3.615,26.467
	c0-6.059,1.425-11.488,4.112-15.804C4.25,15.421,2.389,21.699,2.389,28.802c0,15.761,13.9,34.034,24.852,34.034
	s24.852-18.273,24.852-34.034C52.092,21.699,50.231,15.421,46.754,10.663z"/>
</svg>
