<?xml version="1.0" encoding="iso-8859-1"?>
<!-- Generator: Adobe Illustrator 16.0.0, SVG Export Plug-In . SVG Version: 6.00 Build 0)  -->
<!DOCTYPE svg PUBLIC "-//W3C//DTD SVG 1.1//EN" "http://www.w3.org/Graphics/SVG/1.1/DTD/svg11.dtd">
<svg version="1.1" id="Layer_1" xmlns="http://www.w3.org/2000/svg" xmlns:xlink="http://www.w3.org/1999/xlink" x="0px" y="0px"
	 width="64.563px" height="67.195px" viewBox="0 0 64.563 67.195" style="enable-background:new 0 0 64.563 67.195;"
	 xml:space="preserve">
<path style="fill-rule:evenodd;clip-rule:evenodd;fill:#FFFFFF;" d="M63.022,33.627c-1.522,0.934-3.513,0.454-4.448-1.071
	c-0.935-1.525-0.459-3.519,1.063-4.453c1.522-0.934,3.513-0.454,4.448,1.071C65.02,30.7,64.543,32.693,63.022,33.627z
	 M62.893,27.093c0.082,0.133,0.04,0.307-0.093,0.388c-0.133,0.081-0.306,0.04-0.388-0.093s-0.04-0.307,0.093-0.388
	C62.638,26.918,62.811,26.96,62.893,27.093z M59.032,27.807c0.081,0.133,0.04,0.307-0.093,0.388
	c-0.132,0.082-0.306,0.04-0.388-0.093c-0.081-0.133-0.04-0.307,0.093-0.388C58.776,27.632,58.95,27.674,59.032,27.807z
	 M61.551,26.917c-1.522,0.934-3.513,0.454-4.448-1.071c-0.935-1.525-0.458-3.519,1.063-4.452c1.522-0.934,3.513-0.455,4.448,1.071
	C63.549,23.99,63.073,25.983,61.551,26.917z M60.168,20.49c-0.133,0.081-0.306,0.04-0.388-0.093s-0.04-0.307,0.093-0.388
	c0.133-0.081,0.307-0.04,0.388,0.093C60.343,20.234,60.301,20.408,60.168,20.49z M58.534,20.916
	c-1.691,1.038-3.903,0.505-4.942-1.189c-1.039-1.695-0.51-3.91,1.181-4.948c1.69-1.038,3.903-0.505,4.942,1.19
	S60.225,19.878,58.534,20.916z M56.041,13.754c-0.133,0.082-0.307,0.04-0.388-0.093c-0.082-0.133-0.04-0.307,0.093-0.388
	s0.306-0.04,0.388,0.093C56.215,13.5,56.174,13.673,56.041,13.754z M53.563,15.499c-1.879,1.153-4.337,0.561-5.492-1.322
	c-1.154-1.883-0.566-4.344,1.313-5.497c1.878-1.153,4.337-0.561,5.491,1.322C56.029,11.885,55.441,14.346,53.563,15.499z
	 M49.215,8.013c-0.133,0.081-0.306,0.04-0.388-0.093s-0.04-0.307,0.093-0.388c0.133-0.081,0.307-0.04,0.388,0.093
	C49.39,7.758,49.348,7.932,49.215,8.013z M46.308,11.204c-2.087,1.281-4.819,0.623-6.102-1.469s-0.629-4.827,1.458-6.107
	c2.087-1.281,4.819-0.624,6.102,1.469S48.395,9.923,46.308,11.204z M40.282,4.227c-0.133,0.082-0.306,0.04-0.388-0.093
	s-0.04-0.307,0.093-0.388s0.306-0.04,0.388,0.093S40.415,4.146,40.282,4.227z M37.121,9.146c-2.319,1.423-5.354,0.692-6.779-1.632
	s-0.7-5.363,1.62-6.787c2.319-1.423,5.354-0.692,6.779,1.632S39.44,7.723,37.121,9.146z M29.403,4.283
	c-0.133,0.082-0.306,0.04-0.388-0.093s-0.04-0.307,0.093-0.388c0.133-0.082,0.307-0.04,0.388,0.093
	C29.578,4.027,29.536,4.201,29.403,4.283z M28.75,5.911c-0.358,0.22-0.827,0.106-1.048-0.253s-0.109-0.83,0.25-1.049
	C28.311,4.388,28.78,4.501,29,4.861C29.221,5.221,29.109,5.691,28.75,5.911z M27.52,4.446c-0.133,0.082-0.307,0.04-0.388-0.093
	c-0.082-0.133-0.04-0.307,0.093-0.388c0.133-0.082,0.306-0.04,0.388,0.093S27.652,4.364,27.52,4.446z M26.911,6.146
	c-0.398,0.244-0.919,0.118-1.165-0.281c-0.245-0.4-0.121-0.922,0.277-1.167c0.398-0.244,0.919-0.118,1.165,0.282
	C27.433,5.379,27.309,5.902,26.911,6.146z M26.039,6.347c0.082,0.133,0.04,0.307-0.093,0.388c-0.133,0.082-0.306,0.04-0.388-0.093
	s-0.04-0.307,0.093-0.388S25.958,6.214,26.039,6.347z M25.395,4.756c-0.133,0.082-0.307,0.04-0.388-0.093
	c-0.082-0.133-0.04-0.307,0.093-0.388s0.306-0.04,0.388,0.093C25.569,4.501,25.528,4.675,25.395,4.756z M25.213,5.364
	c0.311,0.508,0.152,1.172-0.356,1.484c-0.456,0.28-1.036,0.178-1.375-0.213c-0.004,0.471-0.239,0.93-0.669,1.194
	c-0.664,0.407-1.532,0.199-1.939-0.465c-0.407-0.664-0.198-1.533,0.465-1.94c0.639-0.392,1.461-0.21,1.886,0.394
	c0.034-0.323,0.208-0.627,0.505-0.81C24.238,4.697,24.902,4.856,25.213,5.364z M23.271,5.067c-0.133,0.082-0.306,0.04-0.388-0.093
	c-0.082-0.133-0.04-0.307,0.093-0.388s0.307-0.04,0.388,0.093C23.445,4.812,23.403,4.985,23.271,5.067z M20.147,9.415
	c-0.776,0.477-1.792,0.233-2.268-0.543c-0.476-0.777-0.232-1.793,0.544-2.27c0.777-0.477,1.792-0.233,2.268,0.543
	C21.167,7.923,20.924,8.938,20.147,9.415z M20.333,6.208c-0.133,0.082-0.307,0.04-0.388-0.093c-0.082-0.133-0.04-0.307,0.093-0.388
	c0.133-0.082,0.306-0.04,0.388,0.093S20.465,6.126,20.333,6.208z M16.971,11.248c-0.863,0.529-1.991,0.259-2.52-0.604
	c-0.529-0.863-0.258-1.992,0.605-2.521s1.991-0.259,2.52,0.604C18.105,9.59,17.834,10.718,16.971,11.248z M17.301,7.737
	c-0.133,0.082-0.306,0.04-0.388-0.093s-0.04-0.307,0.093-0.388s0.306-0.04,0.388,0.093S17.434,7.656,17.301,7.737z M13.697,9.949
	c-0.133,0.082-0.307,0.04-0.388-0.093c-0.082-0.133-0.04-0.307,0.093-0.388s0.306-0.04,0.388,0.093S13.829,9.868,13.697,9.949z
	 M14.673,11.004c0.569,0.929,0.278,2.145-0.651,2.715c-0.93,0.57-2.145,0.279-2.714-0.65c-0.57-0.93-0.278-2.145,0.651-2.715
	C12.889,9.784,14.104,10.075,14.673,11.004z M10.387,12.642c-0.133,0.082-0.306,0.04-0.388-0.093s-0.04-0.307,0.093-0.388
	c0.133-0.082,0.307-0.04,0.388,0.093C10.561,12.387,10.52,12.561,10.387,12.642z M11.584,14.058c0.61,0.996,0.298,2.298-0.698,2.909
	c-0.996,0.611-2.298,0.299-2.908-0.696c-0.61-0.996-0.298-2.298,0.698-2.909S10.975,13.063,11.584,14.058z M7.279,16.204
	c-0.132,0.082-0.306,0.04-0.388-0.093c-0.081-0.133-0.04-0.307,0.093-0.388c0.132-0.082,0.306-0.04,0.388,0.093
	C7.453,15.949,7.412,16.123,7.279,16.204z M9.178,17.686c0.651,1.062,0.318,2.452-0.744,3.104c-1.063,0.651-2.451,0.319-3.102-0.743
	s-0.317-2.451,0.745-3.103S8.528,16.624,9.178,17.686z M4.854,20.34c-0.132,0.082-0.306,0.04-0.388-0.093
	c-0.081-0.133-0.04-0.307,0.093-0.388c0.132-0.082,0.306-0.04,0.388,0.093C5.028,20.085,4.986,20.259,4.854,20.34z M7.141,21.916
	c0.732,1.195,0.357,2.758-0.837,3.491c-1.195,0.733-2.757,0.359-3.489-0.836c-0.732-1.195-0.357-2.758,0.837-3.491
	C4.846,20.347,6.409,20.721,7.141,21.916z M2.723,24.957c0.082,0.133,0.04,0.307-0.093,0.388s-0.306,0.04-0.388-0.093
	c-0.082-0.133-0.04-0.307,0.093-0.388S2.642,24.824,2.723,24.957z M5.724,26.922c0.809,1.319,0.396,3.044-0.921,3.852
	c-1.317,0.809-3.041,0.394-3.849-0.925c-0.809-1.319-0.396-3.044,0.921-3.852C3.192,25.189,4.916,25.603,5.724,26.922z
	 M0.997,31.313c-0.082-0.133-0.04-0.306,0.093-0.388c0.133-0.082,0.307-0.04,0.388,0.093c0.082,0.133,0.04,0.307-0.093,0.388
	S1.078,31.445,0.997,31.313z M5.06,31.467c-0.082-0.133-0.04-0.306,0.093-0.388c0.133-0.082,0.307-0.04,0.388,0.093
	c0.082,0.133,0.04,0.307-0.093,0.388S5.141,31.6,5.06,31.467z M5.403,36.884c-0.082-0.133-0.04-0.307,0.093-0.388
	s0.307-0.04,0.388,0.093c0.082,0.133,0.04,0.307-0.093,0.388C5.658,37.058,5.484,37.017,5.403,36.884z M5.879,26.331
	c-0.081-0.133-0.04-0.307,0.093-0.388c0.133-0.082,0.307-0.04,0.388,0.093c0.081,0.133,0.04,0.306-0.093,0.388
	S5.961,26.463,5.879,26.331z M1.007,37.264c0.133-0.081,0.306-0.04,0.388,0.093c0.081,0.133,0.04,0.307-0.093,0.388
	c-0.132,0.082-0.306,0.04-0.388-0.093C0.833,37.52,0.874,37.346,1.007,37.264z M1.413,31.716c1.394-0.855,3.217-0.417,4.073,0.979
	c0.855,1.396,0.419,3.221-0.975,4.077c-0.192,0.118-0.394,0.209-0.599,0.279c1.146-0.008,2.267,0.562,2.909,1.61
	c0.976,1.593,0.477,3.676-1.116,4.653C4.112,44.292,2.03,43.793,1.054,42.2c-0.976-1.592-0.477-3.676,1.116-4.653
	c0.243-0.149,0.498-0.26,0.757-0.341c-0.982-0.013-1.938-0.512-2.489-1.413C-0.418,34.397,0.019,32.572,1.413,31.716z M3.01,44.31
	c0.133-0.082,0.306-0.04,0.388,0.093c0.082,0.133,0.04,0.307-0.093,0.388s-0.306,0.04-0.388-0.093
	C2.835,44.565,2.877,44.392,3.01,44.31z M6.816,42.967c-0.082-0.133-0.04-0.307,0.093-0.388s0.307-0.04,0.388,0.093
	c0.082,0.133,0.04,0.307-0.093,0.388C7.071,43.142,6.898,43.1,6.816,42.967z M7.382,21.768c-0.082-0.133-0.04-0.307,0.093-0.388
	c0.133-0.081,0.307-0.04,0.388,0.093c0.081,0.133,0.04,0.307-0.093,0.388C7.637,21.942,7.463,21.9,7.382,21.768z M4.626,43.984
	c1.659-1.018,3.828-0.499,4.845,1.161s0.496,3.829-1.163,4.847C6.649,51.01,4.48,50.49,3.463,48.831
	C2.447,47.172,2.967,45.001,4.626,43.984z M6.602,50.711c0.133-0.082,0.307-0.04,0.388,0.093c0.081,0.133,0.04,0.307-0.093,0.388
	c-0.132,0.082-0.306,0.04-0.388-0.093C6.428,50.966,6.47,50.793,6.602,50.711z M9.714,18.02c-0.082-0.133-0.04-0.307,0.093-0.388
	s0.306-0.04,0.388,0.093s0.04,0.307-0.093,0.388C9.969,18.194,9.796,18.152,9.714,18.02z M10.447,48.352
	c0.082,0.133,0.04,0.307-0.093,0.388c-0.133,0.081-0.307,0.04-0.388-0.093c-0.081-0.133-0.04-0.307,0.093-0.388
	C10.192,48.178,10.366,48.219,10.447,48.352z M12.194,14.512c-0.082-0.133-0.04-0.307,0.093-0.388s0.306-0.04,0.388,0.093
	s0.04,0.307-0.093,0.388C12.449,14.686,12.275,14.645,12.194,14.512z M8.672,49.776c1.858-1.14,4.288-0.558,5.427,1.3
	c1.139,1.858,0.556,4.289-1.303,5.429c-1.858,1.14-4.287,0.558-5.426-1.3C6.231,53.347,6.814,50.917,8.672,49.776z M12.226,57.19
	c0.133-0.082,0.307-0.04,0.388,0.093c0.082,0.133,0.04,0.307-0.093,0.388s-0.306,0.04-0.388-0.093S12.093,57.271,12.226,57.19z
	 M15.294,54.646c1.99-1.221,4.594-0.596,5.815,1.396c0.572,0.933,0.734,2,0.546,2.997c0.396-0.678,0.958-1.272,1.674-1.711
	c2.319-1.423,5.354-0.693,6.779,1.632c1.425,2.325,0.699,5.363-1.62,6.786s-5.354,0.693-6.779-1.632
	c-0.693-1.131-0.874-2.431-0.613-3.632c-0.336,0.544-0.798,1.022-1.38,1.379c-1.99,1.221-4.593,0.596-5.814-1.397
	S13.305,55.867,15.294,54.646z M20.105,61.954c0.133-0.081,0.307-0.04,0.388,0.093c0.081,0.133,0.04,0.307-0.093,0.388
	c-0.132,0.081-0.306,0.04-0.388-0.093C19.932,62.209,19.973,62.035,20.105,61.954z M30.667,64.079
	c0.133-0.082,0.307-0.04,0.388,0.093c0.082,0.133,0.04,0.307-0.093,0.388s-0.306,0.04-0.388-0.093S30.534,64.16,30.667,64.079z
	 M33.488,57.135c2.551-1.566,5.89-0.762,7.458,1.795c1.567,2.557,0.769,5.899-1.782,7.465c-2.551,1.565-5.89,0.762-7.458-1.796
	C30.139,62.042,30.937,58.7,33.488,57.135z M42.085,59.821c0.291-0.179,0.672-0.087,0.851,0.205s0.088,0.673-0.204,0.852
	c-0.291,0.179-0.672,0.087-0.851-0.205C41.703,60.381,41.794,60,42.085,59.821z M43.668,58.089c0.728-0.446,1.681-0.217,2.127,0.513
	c0.447,0.729,0.22,1.683-0.508,2.129s-1.68,0.217-2.127-0.512S42.941,58.536,43.668,58.089z M43.304,60.958
	c0.133-0.081,0.307-0.04,0.388,0.093c0.082,0.133,0.04,0.307-0.093,0.388c-0.133,0.081-0.306,0.04-0.388-0.093
	S43.171,61.04,43.304,60.958z M46.846,56.269c0.809-0.496,1.867-0.241,2.364,0.569c0.497,0.811,0.244,1.87-0.565,2.366
	c-0.809,0.496-1.867,0.242-2.364-0.569C45.785,57.824,46.038,56.765,46.846,56.269z M46.483,59.67
	c0.133-0.082,0.306-0.04,0.388,0.093s0.04,0.307-0.093,0.388s-0.307,0.04-0.388-0.093C46.309,59.925,46.35,59.751,46.483,59.67z
	 M48.761,55.293c0.082,0.133,0.04,0.307-0.093,0.388s-0.306,0.04-0.388-0.093s-0.04-0.307,0.093-0.388
	C48.506,55.119,48.679,55.16,48.761,55.293z M45.637,57.21c0.082,0.133,0.04,0.307-0.093,0.388c-0.133,0.081-0.306,0.04-0.388-0.093
	s-0.04-0.307,0.093-0.388C45.382,57.036,45.555,57.077,45.637,57.21z M42.753,58.979c0.082,0.133,0.04,0.307-0.093,0.388
	s-0.306,0.04-0.388-0.093s-0.04-0.307,0.093-0.388C42.498,58.805,42.672,58.847,42.753,58.979z M31.099,58.849
	c0.082,0.133,0.04,0.307-0.093,0.388s-0.306,0.04-0.388-0.093c-0.082-0.133-0.04-0.306,0.093-0.388S31.018,58.716,31.099,58.849z
	 M22.477,57.189c0.082,0.133,0.04,0.307-0.093,0.388s-0.307,0.04-0.388-0.093c-0.082-0.133-0.04-0.306,0.093-0.388
	S22.395,57.056,22.477,57.189z M15.574,53.481c0.082,0.133,0.04,0.306-0.093,0.388s-0.306,0.04-0.388-0.093s-0.04-0.306,0.093-0.388
	S15.493,53.348,15.574,53.481z M15.411,12.207c-0.082-0.133-0.04-0.306,0.093-0.388s0.307-0.04,0.388,0.093
	c0.082,0.133,0.04,0.307-0.093,0.388S15.493,12.34,15.411,12.207z M18.147,10.197c-0.082-0.133-0.04-0.307,0.093-0.388
	s0.306-0.04,0.388,0.093s0.04,0.307-0.093,0.388C18.402,10.371,18.229,10.33,18.147,10.197z M21.178,8.668
	c-0.081-0.133-0.04-0.307,0.093-0.388c0.132-0.082,0.306-0.04,0.388,0.093c0.082,0.133,0.04,0.306-0.093,0.388
	C21.434,8.842,21.26,8.8,21.178,8.668z M23.489,7.581c-0.082-0.133-0.04-0.307,0.093-0.388c0.133-0.082,0.306-0.04,0.388,0.093
	s0.04,0.307-0.093,0.388C23.744,7.756,23.57,7.714,23.489,7.581z M27.295,6.238c-0.081-0.133-0.04-0.307,0.093-0.388
	c0.132-0.081,0.306-0.04,0.388,0.093s0.04,0.307-0.093,0.388C27.55,6.413,27.376,6.371,27.295,6.238z M28.939,6.223
	c-0.082-0.133-0.04-0.307,0.093-0.388s0.306-0.04,0.388,0.093s0.04,0.307-0.093,0.388C29.194,6.397,29.021,6.355,28.939,6.223z
	 M38.632,8.549c-0.082-0.133-0.04-0.306,0.093-0.388c0.133-0.082,0.307-0.04,0.388,0.093c0.082,0.133,0.04,0.307-0.093,0.388
	S38.713,8.682,38.632,8.549z M46.495,11.668c-0.081-0.133-0.04-0.307,0.093-0.388c0.132-0.082,0.306-0.04,0.388,0.093
	s0.04,0.307-0.093,0.388C46.75,11.843,46.577,11.801,46.495,11.668z M49.831,32.929c0.458-0.007,0.908,0.216,1.165,0.636
	c0.388,0.632,0.19,1.458-0.44,1.846c-0.29,0.178-0.619,0.227-0.93,0.172c-0.751,4.902-3.566,9.452-8.118,12.245
	c-5.854,3.592-12.993,3.309-18.441-0.128c-0.242,0.271-0.524,0.513-0.85,0.712c-1.789,1.098-4.131,0.534-5.23-1.259
	c-0.975-1.59-0.643-3.611,0.692-4.815c-0.063-0.098-0.129-0.193-0.19-0.292c-5.048-8.236-2.478-19.001,5.74-24.043
	c8.217-5.042,18.971-2.454,24.019,5.783C49,26.643,49.832,29.806,49.831,32.929z M17.274,46.977
	c1.001,1.635,3.136,2.148,4.767,1.148c1.631-1.001,2.141-3.138,1.139-4.772c-1.002-1.635-3.136-2.148-4.767-1.148
	C16.782,43.206,16.272,45.342,17.274,46.977z M23.524,18.482c-7.953,4.88-10.439,15.297-5.555,23.268
	c0.051,0.083,0.105,0.161,0.157,0.242c0.037-0.024,0.072-0.052,0.11-0.076c1.789-1.098,4.131-0.534,5.229,1.259
	c0.795,1.297,0.719,2.879-0.059,4.072c5.268,3.301,12.155,3.565,17.806,0.098c4.445-2.728,7.181-7.186,7.877-11.979
	c-0.148-0.103-0.279-0.236-0.379-0.4c-0.388-0.632-0.19-1.459,0.44-1.846c0.036-0.022,0.075-0.036,0.113-0.054
	c0.026-3.067-0.776-6.179-2.498-8.988C41.883,16.108,31.476,13.603,23.524,18.482z M46.505,35.819
	c-1.522,0.934-3.513,0.454-4.448-1.071c-0.935-1.525-0.458-3.519,1.063-4.453c1.522-0.934,3.513-0.455,4.448,1.071
	C48.502,32.892,48.026,34.885,46.505,35.819z M44.587,29.058c0.082,0.133,0.04,0.307-0.093,0.388
	c-0.133,0.082-0.307,0.04-0.388-0.093c-0.082-0.133-0.04-0.307,0.093-0.388S44.505,28.925,44.587,29.058z M44.421,28.638
	c-0.387,0.238-0.894,0.116-1.132-0.273c-0.238-0.388-0.117-0.896,0.271-1.133c0.387-0.238,0.894-0.116,1.132,0.272
	C44.93,27.893,44.809,28.4,44.421,28.638z M43.389,26.954c-0.387,0.238-0.895,0.116-1.132-0.272s-0.117-0.896,0.271-1.133
	c0.388-0.238,0.895-0.116,1.132,0.272C43.898,26.208,43.777,26.716,43.389,26.954z M42.117,25.417
	c-0.388,0.238-0.895,0.116-1.132-0.272c-0.238-0.388-0.117-0.896,0.271-1.134c0.387-0.238,0.895-0.116,1.132,0.273
	C42.625,24.672,42.504,25.18,42.117,25.417z M40.68,24.153c-0.456,0.28-1.052,0.136-1.332-0.321
	c-0.28-0.457-0.137-1.054,0.318-1.333c0.456-0.28,1.052-0.136,1.333,0.321C41.279,23.276,41.136,23.873,40.68,24.153z
	 M38.629,22.964c-0.537,0.329-1.238,0.16-1.567-0.377c-0.33-0.537-0.162-1.24,0.375-1.569c0.536-0.329,1.238-0.16,1.567,0.377
	C39.333,21.933,39.166,22.635,38.629,22.964z M36.113,22.097c-0.631,0.387-1.457,0.188-1.844-0.444
	c-0.115-0.188-0.173-0.394-0.188-0.599c-0.104,0.253-0.283,0.478-0.534,0.632c-0.631,0.387-1.456,0.188-1.844-0.444
	c-0.388-0.632-0.19-1.458,0.44-1.846s1.457-0.188,1.844,0.444c0.116,0.188,0.173,0.394,0.189,0.6
	c0.104-0.253,0.283-0.478,0.534-0.632c0.631-0.387,1.456-0.188,1.844,0.444S36.744,21.71,36.113,22.097z M30.399,22.487
	c-0.841,0.516-1.942,0.251-2.458-0.592c-0.517-0.843-0.253-1.945,0.587-2.461c0.841-0.516,1.942-0.251,2.458,0.592
	C31.503,20.869,31.241,21.971,30.399,22.487z M26.787,24.687c-1.1,0.675-2.538,0.328-3.213-0.774s-0.332-2.542,0.768-3.217
	c1.1-0.675,2.539-0.328,3.214,0.773C28.23,22.572,27.887,24.012,26.787,24.687z M24.318,25.111c0.794,1.297,0.39,2.991-0.904,3.785
	c-1.293,0.794-2.986,0.386-3.781-0.91c-0.794-1.296-0.39-2.991,0.904-3.785C21.831,23.407,23.523,23.815,24.318,25.111z
	 M22.562,30.492c0.935,1.525,0.459,3.519-1.063,4.453c-1.522,0.934-3.513,0.455-4.448-1.071c-0.935-1.525-0.459-3.519,1.063-4.453
	C19.636,28.487,21.627,28.967,22.562,30.492z M20.437,36.595c-0.082-0.133-0.04-0.307,0.093-0.388
	c0.133-0.082,0.307-0.04,0.388,0.093c0.082,0.133,0.04,0.306-0.093,0.388S20.519,36.728,20.437,36.595z M20.603,37.015
	c0.387-0.237,0.894-0.116,1.132,0.273c0.238,0.388,0.117,0.896-0.271,1.133c-0.388,0.238-0.895,0.116-1.132-0.272
	C20.094,37.761,20.215,37.253,20.603,37.015z M21.635,38.699c0.387-0.238,0.895-0.116,1.132,0.272s0.117,0.896-0.271,1.134
	c-0.388,0.237-0.895,0.115-1.132-0.273C21.126,39.444,21.248,38.937,21.635,38.699z M22.907,40.235
	c0.387-0.238,0.894-0.116,1.132,0.272c0.238,0.389,0.117,0.896-0.271,1.134c-0.387,0.238-0.894,0.116-1.132-0.272
	C22.398,40.98,22.52,40.473,22.907,40.235z M24.344,41.5c0.456-0.28,1.052-0.136,1.332,0.321s0.137,1.054-0.318,1.333
	c-0.456,0.28-1.052,0.136-1.332-0.321C23.745,42.377,23.888,41.78,24.344,41.5z M26.395,42.688c0.536-0.329,1.238-0.16,1.567,0.377
	c0.33,0.537,0.162,1.24-0.375,1.569c-0.536,0.329-1.238,0.16-1.567-0.377C25.691,43.72,25.858,43.018,26.395,42.688z M28.911,43.556
	c0.631-0.387,1.456-0.188,1.844,0.444c0.115,0.188,0.173,0.394,0.188,0.599c0.104-0.253,0.283-0.478,0.534-0.632
	c0.631-0.387,1.457-0.188,1.844,0.444c0.388,0.632,0.19,1.458-0.44,1.846s-1.457,0.188-1.844-0.444
	c-0.115-0.188-0.173-0.394-0.188-0.6c-0.104,0.253-0.283,0.479-0.535,0.632c-0.63,0.387-1.456,0.188-1.844-0.444
	C28.083,44.77,28.28,43.943,28.911,43.556z M34.625,43.166c0.841-0.517,1.942-0.251,2.458,0.592
	c0.517,0.843,0.254,1.945-0.587,2.461s-1.942,0.251-2.458-0.592C33.521,44.784,33.784,43.682,34.625,43.166z M38.237,40.966
	c1.1-0.674,2.538-0.328,3.214,0.774c0.675,1.102,0.332,2.542-0.768,3.217c-1.1,0.675-2.539,0.329-3.214-0.773
	S37.137,41.641,38.237,40.966z M36.616,39.576c-3.645,2.236-8.415,1.088-10.654-2.565c-2.239-3.653-1.099-8.428,2.546-10.664
	c3.645-2.237,8.415-1.088,10.653,2.565S40.261,37.339,36.616,39.576z M38.442,29.353c-1.995-3.254-6.244-4.278-9.491-2.285
	c-3.248,1.993-4.263,6.247-2.268,9.501c1.995,3.254,6.244,4.278,9.491,2.285C39.421,36.862,40.437,32.608,38.442,29.353z
	 M35.731,38.133c-2.85,1.749-6.579,0.851-8.329-2.005c-1.75-2.856-0.859-6.589,1.99-8.338s6.579-0.851,8.329,2.005
	C39.472,32.651,38.581,36.384,35.731,38.133z M37.242,30.089c-1.587-2.59-4.97-3.404-7.554-1.819
	c-2.584,1.586-3.393,4.972-1.805,7.563c1.588,2.59,4.97,3.405,7.554,1.819S38.83,32.68,37.242,30.089z M35.142,37.17
	c-2.32,1.423-5.355,0.692-6.78-1.632c-1.425-2.325-0.699-5.363,1.62-6.787s5.354-0.692,6.779,1.632S37.461,35.748,35.142,37.17z
	 M40.707,40.542c-0.795-1.296-0.39-2.991,0.903-3.785c1.293-0.794,2.986-0.386,3.781,0.91s0.39,2.991-0.903,3.785
	S41.501,41.838,40.707,40.542z M22.747,43.618c0.855,1.395,0.419,3.218-0.972,4.072s-3.213,0.416-4.067-0.979
	c-0.855-1.395-0.42-3.218,0.972-4.072C20.071,41.785,21.892,42.223,22.747,43.618z M51.442,52.654
	c-0.081-0.133-0.04-0.306,0.093-0.388c0.132-0.082,0.306-0.04,0.388,0.093c0.081,0.133,0.04,0.307-0.093,0.388
	S51.524,52.787,51.442,52.654z M50.199,53.656c0.898-0.552,2.074-0.269,2.626,0.632c0.552,0.901,0.271,2.078-0.628,2.629
	c-0.898,0.551-2.074,0.268-2.626-0.633C49.019,55.385,49.3,54.208,50.199,53.656z M50.087,57.458
	c0.133-0.082,0.307-0.04,0.388,0.093c0.082,0.133,0.04,0.307-0.093,0.388s-0.306,0.04-0.388-0.093S49.955,57.54,50.087,57.458z
	 M53.638,54.618c0.133-0.082,0.306-0.04,0.388,0.093s0.04,0.307-0.093,0.388c-0.133,0.082-0.307,0.04-0.388-0.093
	C53.463,54.873,53.505,54.699,53.638,54.618z M52.491,16.595c-0.082-0.133-0.04-0.306,0.093-0.388
	c0.133-0.082,0.307-0.04,0.388,0.093c0.082,0.133,0.04,0.307-0.093,0.388S52.572,16.728,52.491,16.595z M54.31,49.24
	c-0.082-0.133-0.04-0.307,0.093-0.388c0.133-0.082,0.307-0.04,0.388,0.093c0.082,0.133,0.04,0.307-0.093,0.388
	S54.392,49.373,54.31,49.24z M52.64,53.078c-0.613-1.001-0.301-2.309,0.698-2.921c0.998-0.613,2.305-0.298,2.918,0.703
	c0.613,1,0.301,2.309-0.697,2.921S53.253,54.079,52.64,53.078z M57.079,50.52c0.133-0.082,0.306-0.04,0.388,0.093
	c0.082,0.133,0.04,0.307-0.093,0.388s-0.307,0.04-0.388-0.093C56.904,50.775,56.946,50.602,57.079,50.52z M56.269,22.22
	c-0.082-0.133-0.04-0.306,0.093-0.388s0.306-0.04,0.388,0.093s0.04,0.307-0.093,0.388S56.351,22.353,56.269,22.22z M57.069,44.568
	c0.081,0.133,0.04,0.307-0.093,0.388c-0.133,0.082-0.306,0.04-0.388-0.093s-0.04-0.307,0.093-0.388
	C56.813,44.394,56.987,44.436,57.069,44.568z M55.487,49.014c-0.682-1.112-0.334-2.565,0.775-3.246s2.561-0.331,3.243,0.781
	c0.681,1.112,0.334,2.565-0.775,3.246C57.621,50.476,56.169,50.126,55.487,49.014z M59.984,46.089
	c0.133-0.082,0.307-0.04,0.388,0.093c0.082,0.133,0.04,0.307-0.093,0.388c-0.133,0.082-0.306,0.04-0.388-0.093
	S59.852,46.17,59.984,46.089z M57.63,44.39c-0.757-1.236-0.372-2.851,0.861-3.607s2.846-0.368,3.603,0.868
	c0.757,1.235,0.372,2.85-0.861,3.606C60,46.013,58.387,45.625,57.63,44.39z M62.061,40.843c-0.082-0.133-0.04-0.307,0.093-0.388
	s0.306-0.04,0.388,0.093s0.04,0.306-0.093,0.388S62.142,40.976,62.061,40.843z M59.052,39.71c0.081,0.133,0.04,0.307-0.093,0.388
	c-0.132,0.082-0.306,0.04-0.388-0.093c-0.081-0.133-0.04-0.307,0.093-0.388C58.796,39.536,58.97,39.578,59.052,39.71z
	 M58.949,34.147c-0.082-0.133-0.04-0.307,0.093-0.388s0.307-0.04,0.388,0.093c0.082,0.133,0.04,0.306-0.093,0.388
	S59.03,34.28,58.949,34.147z M63.012,34.302c-0.082-0.133-0.04-0.307,0.093-0.388s0.307-0.04,0.388,0.093
	c0.082,0.133,0.04,0.307-0.093,0.388C63.267,34.476,63.093,34.435,63.012,34.302z M58.771,38.725
	c-0.841-1.373-0.413-3.167,0.957-4.007s3.162-0.409,4.003,0.964c0.841,1.373,0.413,3.167-0.957,4.007S59.612,40.097,58.771,38.725z"
	/>
</svg>
