<?xml version="1.0" encoding="iso-8859-1"?>
<!-- Generator: Adobe Illustrator 16.0.0, SVG Export Plug-In . SVG Version: 6.00 Build 0)  -->
<!DOCTYPE svg PUBLIC "-//W3C//DTD SVG 1.1//EN" "http://www.w3.org/Graphics/SVG/1.1/DTD/svg11.dtd">
<svg version="1.1" id="Layer_1" xmlns="http://www.w3.org/2000/svg" xmlns:xlink="http://www.w3.org/1999/xlink" x="0px" y="0px"
	 width="67.204px" height="67.203px" viewBox="0 0 67.204 67.203" style="enable-background:new 0 0 67.204 67.203;"
	 xml:space="preserve">
<path style="fill-rule:evenodd;clip-rule:evenodd;fill:#FFFFFF;" d="M63.542,48.871c-0.443,0.926-0.953,1.822-1.525,2.682
	c-2.207,3.496-5.101,6.64-8.648,9.22c-15.006,10.913-36.021,7.599-46.938-7.401c-0.311-0.427-0.608-0.859-0.896-1.295
	c-0.656-0.938-1.241-1.928-1.746-2.964C-3.78,34.609,0.203,16.365,13.835,6.452c5.432-3.951,11.651-6.035,17.894-6.377
	c1.147-0.096,2.305-0.098,3.461-0.011c9.82,0.471,19.348,5.224,25.582,13.79C68.463,24.421,69.09,37.971,63.542,48.871z
	 M44.619,4.299c-9.715-6.125-22.557-3.218-28.684,6.494c-0.122,0.192-0.239,0.385-0.353,0.58c-0.041,0.07-0.079,0.14-0.119,0.21
	c-0.072,0.125-0.144,0.25-0.212,0.376c-0.048,0.087-0.092,0.175-0.139,0.263c-0.057,0.109-0.116,0.218-0.171,0.328
	c-0.049,0.098-0.096,0.196-0.143,0.294c-0.049,0.101-0.099,0.201-0.146,0.302c-0.049,0.105-0.095,0.212-0.143,0.318
	c-0.042,0.094-0.084,0.188-0.125,0.283c-0.048,0.112-0.093,0.226-0.139,0.339c-0.036,0.089-0.073,0.177-0.107,0.266
	c-0.046,0.119-0.09,0.238-0.134,0.357c-0.031,0.084-0.063,0.167-0.092,0.251c-0.044,0.125-0.085,0.25-0.127,0.375
	c-0.026,0.079-0.053,0.158-0.078,0.237c-0.042,0.13-0.081,0.261-0.12,0.391c-0.022,0.075-0.045,0.149-0.066,0.224
	c-0.039,0.135-0.075,0.271-0.111,0.407c-0.019,0.07-0.037,0.14-0.055,0.21c-0.009,0.04-0.015,0.076-0.025,0.117
	c-1.277,5.195-0.479,10.672,2.132,15.259c0.006,0.011,0.013,0.022,0.019,0.034c0.172,0.3,0.351,0.597,0.538,0.89
	c0.024,0.038,0.042,0.071,0.066,0.108c1.587,2.447,3.716,4.597,6.346,6.254c0.188,0.118,0.378,0.227,0.567,0.338
	c0,0.016,0,0.03,0.001,0.046c6.995,3.94,14.604,3.625,21.246-0.095c-0.191,0.898-0.456,1.768-0.79,2.601
	c-0.004,0.011-0.01,0.022-0.014,0.034c-0.083,0.205-0.169,0.407-0.26,0.608c-0.047,0.104-0.1,0.206-0.149,0.31
	c-0.051,0.105-0.1,0.212-0.152,0.317c-0.066,0.131-0.138,0.259-0.208,0.387c-0.041,0.074-0.078,0.15-0.12,0.223
	c-0.107,0.189-0.218,0.376-0.333,0.56c-0.007,0.011-0.013,0.023-0.02,0.034c-1.678,2.693-4.139,4.833-7.049,6.128
	c-0.02,0.021-0.033,0.042-0.058,0.061c-2.156,0.947-4.557,1.429-7.069,1.321c-1.154-0.049-2.275-0.22-3.349-0.5
	c-0.058-0.021-0.111-0.043-0.164-0.065c-0.105-0.029-0.211-0.055-0.315-0.085c-0.073-0.021-0.145-0.045-0.217-0.067
	c-0.16-0.05-0.319-0.101-0.477-0.155c-0.081-0.028-0.162-0.057-0.242-0.086c-0.152-0.055-0.303-0.113-0.453-0.172
	c-0.075-0.03-0.15-0.059-0.225-0.09c-0.178-0.074-0.354-0.151-0.528-0.231c-0.042-0.02-0.084-0.037-0.126-0.057
	c-5.604-2.633-9.385-8.425-9.136-15c0.062-1.648,0.375-3.228,0.897-4.706c-1.265-2.721-1.961-5.677-2.042-8.674
	c-5.195,3.598-8.694,9.508-8.952,16.308c-0.434,11.473,8.519,21.125,19.996,21.56c0.319,0.012,0.637,0.014,0.953,0.012
	c0.074,0,0.147-0.001,0.22-0.002c0.312-0.005,0.622-0.016,0.929-0.035c0.037-0.002,0.073-0.006,0.109-0.009
	c0.282-0.019,0.562-0.044,0.84-0.074c0.068-0.007,0.136-0.014,0.203-0.022c0.302-0.036,0.601-0.077,0.899-0.125
	c0.054-0.009,0.108-0.019,0.162-0.028c0.264-0.045,0.526-0.096,0.787-0.151c0.058-0.012,0.115-0.023,0.173-0.036
	c0.292-0.064,0.582-0.135,0.869-0.212c0.063-0.017,0.124-0.034,0.186-0.051c0.259-0.072,0.517-0.147,0.771-0.229
	c0.041-0.013,0.083-0.025,0.124-0.039c0.282-0.092,0.562-0.191,0.838-0.294c0.065-0.024,0.129-0.049,0.193-0.074
	c0.268-0.103,0.533-0.21,0.795-0.324c0.014-0.006,0.029-0.012,0.043-0.018c0.273-0.119,0.542-0.246,0.809-0.376
	c0.063-0.031,0.125-0.062,0.187-0.092c0.063-0.032,0.127-0.062,0.19-0.094c0.204-0.105,0.405-0.213,0.604-0.324
	c0.006-0.003,0.012-0.007,0.019-0.011c0.254-0.142,0.504-0.291,0.751-0.442c0.065-0.04,0.13-0.081,0.195-0.121
	c0.237-0.149,0.473-0.303,0.704-0.461c0.014-0.01,0.029-0.019,0.043-0.029c0.243-0.168,0.481-0.342,0.716-0.52
	c0.061-0.046,0.12-0.092,0.18-0.138c0.209-0.162,0.417-0.327,0.62-0.497c0.026-0.022,0.054-0.043,0.08-0.065
	c0.225-0.189,0.444-0.384,0.66-0.583c0.055-0.05,0.109-0.102,0.163-0.152c0.186-0.174,0.369-0.352,0.548-0.533
	c0.033-0.034,0.067-0.066,0.1-0.1c0.205-0.209,0.404-0.423,0.6-0.641c0.048-0.053,0.095-0.108,0.143-0.162
	c0.165-0.187,0.326-0.376,0.484-0.569c0.036-0.043,0.072-0.086,0.107-0.13c0.184-0.228,0.362-0.46,0.536-0.695
	c0.041-0.056,0.081-0.112,0.121-0.168c0.145-0.2,0.286-0.402,0.423-0.608c0.035-0.052,0.071-0.104,0.106-0.157
	c0.161-0.245,0.317-0.494,0.467-0.747c0.033-0.055,0.065-0.111,0.098-0.167c0.125-0.213,0.247-0.43,0.364-0.648
	c0.033-0.06,0.065-0.12,0.097-0.181c0.137-0.261,0.27-0.525,0.396-0.793c0.025-0.053,0.048-0.107,0.073-0.16
	c0.105-0.229,0.207-0.459,0.304-0.692c0.028-0.067,0.056-0.134,0.083-0.201c0.112-0.276,0.219-0.556,0.319-0.838
	c0.017-0.048,0.033-0.096,0.049-0.144c0.085-0.245,0.165-0.492,0.241-0.742c0.022-0.073,0.044-0.145,0.066-0.218
	c0.085-0.291,0.166-0.583,0.238-0.878c0.009-0.039,0.017-0.078,0.026-0.116c0.063-0.264,0.121-0.53,0.174-0.798
	c0.015-0.078,0.031-0.155,0.045-0.233c0.057-0.303,0.109-0.608,0.152-0.916c0.003-0.024,0.006-0.048,0.009-0.071
	c0.039-0.288,0.071-0.578,0.099-0.869c0.007-0.081,0.015-0.162,0.021-0.243c0.026-0.315,0.048-0.631,0.06-0.95
	c0.007-0.196,0.007-0.391,0.007-0.586c0.07-0.039,0.14-0.076,0.209-0.116c-0.717-7.984-3.614-13.938-10.894-18.295
	C27.398,25.05,22.62,31.804,22.998,39.8c-3.873-3.458-5.73-8.539-5.202-13.534c-0.006-0.022-0.016-0.041-0.02-0.065
	c0.257-2.34,1.041-4.659,2.39-6.78c0.62-0.975,1.328-1.859,2.107-2.649c0.035-0.03,0.068-0.054,0.103-0.081
	c5.139-5.131,13.315-6.227,19.718-2.19c1.39,0.876,2.596,1.932,3.61,3.118c2.993,0.264,5.904,1.14,8.543,2.57
	C53.729,13.9,50.368,7.924,44.619,4.299z M23.008,40.027c0.087,3.047,0.848,6.122,2.353,9.006c0.391,0.749,0.827,1.457,1.293,2.135
	c0.438,0.058,0.88,0.102,1.33,0.121c1.372,0.059,2.707-0.074,3.984-0.365c-3.139-1.413-5.847-3.845-7.563-7.133
	C23.769,42.572,23.306,41.308,23.008,40.027z M33.255,21.192c-2.691-1.435-5.739-2.299-8.991-2.422
	c-0.812-0.031-1.612-0.007-2.402,0.056c-0.268,0.349-0.526,0.708-0.766,1.085c-0.73,1.147-1.278,2.357-1.665,3.596
	c2.769-1.986,6.191-3.107,9.86-2.968C30.667,20.59,31.995,20.816,33.255,21.192z M61.569,28.617
	c-0.08-0.131-0.167-0.255-0.249-0.383c-0.158-0.249-0.315-0.499-0.482-0.739c-0.105-0.15-0.218-0.292-0.326-0.438
	c-0.154-0.209-0.306-0.42-0.467-0.622c-0.122-0.153-0.251-0.297-0.376-0.445c-0.157-0.186-0.312-0.374-0.474-0.553
	c-0.135-0.149-0.277-0.291-0.417-0.435c-0.162-0.168-0.321-0.338-0.487-0.5c-0.147-0.143-0.301-0.278-0.452-0.416
	c-0.167-0.153-0.332-0.308-0.503-0.454c-0.158-0.135-0.32-0.262-0.481-0.392c-0.159-0.128-0.318-0.257-0.48-0.381
	c-0.049-0.037-0.098-0.072-0.147-0.108c-0.133-0.097-0.266-0.191-0.4-0.286c-0.095-0.067-0.189-0.136-0.284-0.204
	c-0.042-0.029-0.086-0.057-0.129-0.085c0,0,0,0.001,0,0.001c-0.013-0.009-0.026-0.018-0.04-0.027
	c-0.121-0.081-0.241-0.162-0.364-0.241c-0.167-0.106-0.335-0.208-0.504-0.31c-2.49-1.492-5.266-2.447-8.139-2.808
	c-0.166-0.021-0.332-0.043-0.498-0.06c-0.266-0.027-0.532-0.048-0.798-0.065c-0.16-0.01-0.32-0.015-0.48-0.021
	c-0.151-0.006-0.302-0.011-0.453-0.014c-0.159-0.003-0.319-0.004-0.479-0.003c-0.164,0.001-0.327,0.005-0.49,0.01
	c-3.042,0.089-6.112,0.846-8.991,2.348c-0.201,0.105-0.395,0.217-0.591,0.328c4.937-1.612,10.267-0.666,14.323,2.299
	c0.009,0.003,0.017,0.002,0.025,0.006c0.101,0.074,0.197,0.153,0.295,0.229c0.071,0.055,0.143,0.11,0.213,0.166
	c0.201,0.16,0.397,0.326,0.591,0.497c0.041,0.036,0.084,0.068,0.125,0.105c0,0.001,0,0.003,0.001,0.004
	c1.371,1.234,2.551,2.727,3.455,4.458c0.083,0.159,0.157,0.32,0.234,0.48c0-0.001,0.001-0.003,0.002-0.004
	c0.019,0.04,0.036,0.081,0.055,0.121c0.057,0.121,0.112,0.242,0.166,0.363c0.029,0.066,0.062,0.131,0.089,0.197
	c0.028,0.066,0.052,0.134,0.079,0.201c0.054,0.132,0.106,0.264,0.157,0.397c0.015,0.04,0.032,0.079,0.046,0.118
	c0,0.001-0.001,0.003-0.002,0.004c0.002,0.006,0.004,0.012,0.006,0.018c0.152,0.416,0.292,0.833,0.408,1.254
	c0.003,0.019,0.004,0.035,0.007,0.053c1.918,7.054-1.245,14.734-7.994,18.254c-1.436,0.749-2.934,1.255-4.447,1.538
	c-1.728,2.469-3.947,4.561-6.515,6.136c5.684,2.682,12.511,2.77,18.512-0.361c10.183-5.311,14.13-17.869,8.816-28.048
	C62.025,29.395,61.802,29.001,61.569,28.617z M47.064,36.436c-0.513,0.813-1.091,1.56-1.718,2.247
	c0.004,0.099,0.009,0.197,0.011,0.297c2.24-1.547,4.213-3.559,5.757-6.006c0.438-0.694,0.823-1.407,1.167-2.13
	c-0.168-0.406-0.35-0.809-0.557-1.206c-0.631-1.209-1.408-2.292-2.292-3.248C49.772,29.789,49.029,33.322,47.064,36.436z
	 M33.602,27.505c3.374,0,6.109,2.734,6.109,6.107c0,3.373-2.735,6.107-6.109,6.107s-6.109-2.734-6.109-6.107
	C27.493,30.24,30.228,27.505,33.602,27.505z M33.602,34.264c0.36,0,0.651-0.292,0.651-0.651c0-0.359-0.292-0.651-0.651-0.651
	s-0.651,0.292-0.651,0.651C32.95,33.972,33.242,34.264,33.602,34.264z"/>
</svg>
