<?xml version="1.0" encoding="iso-8859-1"?>
<!-- Generator: Adobe Illustrator 16.0.0, SVG Export Plug-In . SVG Version: 6.00 Build 0)  -->
<!DOCTYPE svg PUBLIC "-//W3C//DTD SVG 1.1//EN" "http://www.w3.org/Graphics/SVG/1.1/DTD/svg11.dtd">
<svg version="1.1" id="Layer_1" xmlns="http://www.w3.org/2000/svg" xmlns:xlink="http://www.w3.org/1999/xlink" x="0px" y="0px"
	 width="67.2px" height="35.76px" viewBox="0 0 67.2 35.76" style="enable-background:new 0 0 67.2 35.76;" xml:space="preserve">
<path style="fill-rule:evenodd;clip-rule:evenodd;fill:#FFFFFF;" d="M61.541,7.764c-0.398,0.397-4.543,0.522-4.225,0.561
	c-5.789-0.03-18.934-0.091-28.549-0.091c-2.122,0-4.716,0.824-4.716,3.059c0,0.036-0.006,0.068-0.016,0.096
	c0.01,0.202,0.016,0.406,0.016,0.61c0,6.627-5.384,11.999-12.025,11.999C5.384,23.997,0,18.625,0,11.998
	C0,5.572,5.063,0.326,11.427,0.015C11.54,0.006,11.659,0,11.79,0c7.074,0,51.874,0,53.76,0c1.556,0,2.159,0.989,0.942,2.493
	C65.336,3.921,63.495,5.814,61.541,7.764z M11.908,0.941c-6.121,0-11.083,4.951-11.083,11.057c0,6.107,4.962,11.058,11.083,11.058
	c6.12,0,11.082-4.951,11.082-11.058C22.99,5.892,18.028,0.941,11.908,0.941z M11.908,22.115c-5.6,0-10.139-4.529-10.139-10.117
	c0-5.587,4.54-10.116,10.139-10.116c5.599,0,10.139,4.529,10.139,10.116C22.046,17.585,17.507,22.115,11.908,22.115z M4.952,9.881
	c-1.042,0-1.886,0.843-1.886,1.882c0,1.039,0.844,1.882,1.886,1.882s1.886-0.843,1.886-1.882C6.838,10.724,5.994,9.881,4.952,9.881z
	 M12.025,9.881c-1.042,0-1.886,0.843-1.886,1.882c0,1.039,0.844,1.882,1.886,1.882c1.042,0,1.886-0.843,1.886-1.882
	C13.912,10.724,13.067,9.881,12.025,9.881z M19.099,13.645c1.042,0,1.886-0.843,1.886-1.882c0-1.04-0.845-1.882-1.886-1.882
	c-1.042,0-1.886,0.843-1.886,1.882C17.213,12.802,18.057,13.645,19.099,13.645z M60.244,8.342c-1.993,0-2.803-0.002-2.928-0.018
	C59.275,8.335,60.393,8.342,60.244,8.342z M5.659,27.996c0.398-0.397,4.543-0.522,4.225-0.561c5.789,0.03,18.934,0.091,28.549,0.091
	c2.122,0,4.716-0.824,4.716-3.059c0-0.036,0.006-0.068,0.016-0.096c-0.01-0.202-0.016-0.406-0.016-0.61
	c0-6.627,5.384-11.999,12.025-11.999c6.642,0,12.025,5.372,12.025,11.999c0,6.426-5.063,11.672-11.427,11.983
	c-0.113,0.009-0.232,0.015-0.363,0.015c-7.074,0-51.874,0-53.76,0c-1.556,0-2.159-0.989-0.942-2.493
	C1.864,31.838,3.706,29.945,5.659,27.996z M55.292,34.819c6.121,0,11.083-4.951,11.083-11.057c0-6.107-4.962-11.058-11.083-11.058
	c-6.12,0-11.082,4.951-11.082,11.058C44.21,29.868,49.172,34.819,55.292,34.819z M55.292,13.645c5.6,0,10.139,4.529,10.139,10.117
	c0,5.587-4.54,10.116-10.139,10.116s-10.139-4.529-10.139-10.116C45.154,18.174,49.693,13.645,55.292,13.645z M62.484,25.408
	c1.042,0,1.886-0.842,1.886-1.882s-0.845-1.882-1.886-1.882c-1.042,0-1.886,0.843-1.886,1.882S61.442,25.408,62.484,25.408z
	 M55.411,25.408c1.042,0,1.886-0.842,1.886-1.882s-0.844-1.882-1.886-1.882s-1.886,0.843-1.886,1.882S54.369,25.408,55.411,25.408z
	 M48.337,21.644c-1.042,0-1.886,0.843-1.886,1.882s0.845,1.882,1.886,1.882c1.042,0,1.886-0.842,1.886-1.882
	S49.379,21.644,48.337,21.644z M6.957,27.417c1.993,0,2.803,0.002,2.928,0.018C7.925,27.425,6.808,27.417,6.957,27.417z"/>
</svg>
