<?xml version="1.0" encoding="iso-8859-1"?>
<!-- Generator: Adobe Illustrator 16.0.0, SVG Export Plug-In . SVG Version: 6.00 Build 0)  -->
<!DOCTYPE svg PUBLIC "-//W3C//DTD SVG 1.1//EN" "http://www.w3.org/Graphics/SVG/1.1/DTD/svg11.dtd">
<svg version="1.1" id="Layer_1" xmlns="http://www.w3.org/2000/svg" xmlns:xlink="http://www.w3.org/1999/xlink" x="0px" y="0px"
	 width="65.279px" height="69.598px" viewBox="0 0 65.279 69.598" style="enable-background:new 0 0 65.279 69.598;"
	 xml:space="preserve">
<path style="fill-rule:evenodd;clip-rule:evenodd;fill:#FFFFFF;" d="M33.243,69.598c0-8.742-1.765-9.177,3.177-16.149
	c4.942-6.971,11.561-15.707,12.179-16.678c1.191,0.292,6.53,5.559,9.531,8.736c3,3.177,4.813,6.023,7.148,7.942
	c0,2.769,0,16.149,0,16.149S36.801,69.598,33.243,69.598z M29.537,50.802c-1.561,1.274-8.384,5.294-10.59,5.294
	s-3.707-1.059-4.236-2.118c-0.529-1.059-0.794-2.824-1.588-3.707c-0.794-0.882-1.677-1.147-2.383-1.324
	c-0.336-0.717-0.265-1.059,0.794-1.588c1.059-0.529,1.059-0.529,1.059-0.529s-1.588-0.088-2.383,0
	c-0.794,0.088-1.677-0.176-2.383-0.529c0.215-1.462,0.265-2.912,0.265-3.707c-0.838,0.127-2.647,1.059-3.441,0.794
	c-0.794-0.265-1.677-0.794-1.589-1.588c0.088-0.794,0.642-5.76,1.059-7.942c0.188-0.982,0.132-1.191-0.529-2.383
	c-0.662-1.191-1.191-0.662-1.589-1.588c-0.397-0.927-5.03-9.53,1.324-18.002C9.68,3.415,23.75-4.167,32.979,2.62
	c7.008,5.154,7.943,11.648,8.472,12.972c-3.265,1.169-13.31,4.71-17.739,6.354c-4.285,1.589-8.577,6.475-4.236,13.501
	c-1.189,2.042-4.501,7.147-5.295,8.736c-0.794,1.588,0.971,4.677,3.707,2.647c1.021-0.91,1.324-1.324,1.324-1.324
	s3.354-0.618,4.501-1.853s2.118-3.441,2.647-4.5c2.361-0.298,9.26-1.617,8.737-10.589c-0.182-3.125-0.088-4.147,2.647-5.294
	c2.736-1.147,4.501-1.854,4.501-1.854s-0.177,3,0.53,6.089c0.706,3.089,0.706,5.824,3.441,8.736
	c-1.654,2.592-13.502,18.796-13.502,18.796S30.154,51.507,29.537,50.802z M26.492,23.27c3.729,0,6.751,3.022,6.751,6.75
	c0,3.729-3.022,6.751-6.751,6.751c-3.729,0-6.751-3.022-6.751-6.751C19.741,26.292,22.763,23.27,26.492,23.27z M26.359,34.653
	c2.486,0,4.501-2.015,4.501-4.5c0-0.316-0.033-0.625-0.095-0.922l-1.76,0.967c-0.024,1.441-1.198,2.603-2.646,2.603
	c-1.462,0-2.647-1.186-2.647-2.647s1.186-2.647,2.647-2.647c0.493,0,0.953,0.137,1.348,0.372l1.765-0.97
	c-0.809-0.776-1.904-1.255-3.113-1.255c-2.486,0-4.501,2.015-4.501,4.5C21.858,32.638,23.874,34.653,26.359,34.653z M25.036,38.889
	c-1.853,2.89-2.294,4.236-4.766,4.765c1.147-1.859,3.442-5.294,3.442-5.294S24.418,38.8,25.036,38.889z M15.769,43.918
	c1.147-1.765,4.137-6.061,5.03-7.413c0.883,0.618,1.147,0.971,1.589,1.324c-1.688,2.405-4.236,6.266-5.03,7.413
	C16.563,46.389,14.622,45.684,15.769,43.918z M36.42,22.21c-1.747,0.833-2.515,2.274-2.647,3.441
	c-0.761-1.588-2.207-2.735-3.707-3.441c3.354-1.473,10.646-4.462,14.032-5.824C44.275,19.387,42.521,19.298,36.42,22.21z"/>
</svg>
