<?xml version="1.0" encoding="iso-8859-1"?>
<!-- Generator: Adobe Illustrator 16.0.0, SVG Export Plug-In . SVG Version: 6.00 Build 0)  -->
<!DOCTYPE svg PUBLIC "-//W3C//DTD SVG 1.1//EN" "http://www.w3.org/Graphics/SVG/1.1/DTD/svg11.dtd">
<svg version="1.1" id="Layer_1" xmlns="http://www.w3.org/2000/svg" xmlns:xlink="http://www.w3.org/1999/xlink" x="0px" y="0px"
	 width="67.209px" height="60.724px" viewBox="0 0 67.209 60.724" style="enable-background:new 0 0 67.209 60.724;"
	 xml:space="preserve">
<path style="fill-rule:evenodd;clip-rule:evenodd;fill:#FFFFFF;" d="M65.947,56.016c-2.599,4.502-8.354,6.044-12.855,3.445
	c-3.141-1.813-4.834-5.164-4.693-8.553c-3.67,4-8.938,6.508-14.794,6.508s-11.124-2.509-14.794-6.508
	c0.142,3.389-1.552,6.74-4.693,8.553C9.617,62.06,3.861,60.518,1.262,56.016S0.206,45.757,4.707,43.158
	c3.135-1.811,6.879-1.609,9.741,0.2c-0.597-1.901-0.92-3.923-0.92-6.021c0-9.584,6.715-17.594,15.694-19.595
	c-2.989-1.577-5.028-4.714-5.028-8.329C24.194,4.214,28.407,0,33.604,0c5.198,0,9.411,4.214,9.411,9.413
	c0,3.615-2.039,6.752-5.028,8.329c8.979,2.001,15.694,10.011,15.694,19.595c0,2.098-0.323,4.121-0.92,6.021
	c2.862-1.809,6.605-2.01,9.741-0.2C67.003,45.757,68.545,51.514,65.947,56.016z M59.679,48.049
	c-1.315-0.759-2.896-0.632-4.059,0.192l-13.195-7.62c0.381-1.023,0.591-2.129,0.591-3.285c0-4.664-3.392-8.533-7.843-9.28V12.832
	c1.295-0.595,2.196-1.9,2.196-3.419c0-2.079-1.686-3.765-3.765-3.765S29.84,7.333,29.84,9.413c0,1.519,0.901,2.824,2.196,3.419
	v15.225c-4.451,0.747-7.842,4.616-7.842,9.28c0,1.156,0.209,2.262,0.59,3.285l-13.195,7.62c-1.163-0.824-2.744-0.952-4.059-0.192
	c-1.801,1.04-2.417,3.342-1.378,5.143s3.342,2.418,5.142,1.378c1.315-0.759,1.995-2.192,1.863-3.611l13.198-7.621
	c1.726,2.083,4.333,3.411,7.25,3.411s5.523-1.328,7.25-3.411l13.198,7.621c-0.132,1.419,0.548,2.852,1.863,3.611
	c1.8,1.04,4.103,0.423,5.142-1.378S61.479,49.088,59.679,48.049z M36.847,37.401l-1.568,2.717l0.017,0.01l-1.691,2.855l-1.691-2.855
	l0.017-0.01l-1.568-2.717l-0.048,0.028l-1.729-2.918h3.451v0.002h3.137V34.51h3.451l-1.729,2.918L36.847,37.401z"/>
</svg>
