<?xml version="1.0" encoding="iso-8859-1"?>
<!-- Generator: Adobe Illustrator 16.0.0, SVG Export Plug-In . SVG Version: 6.00 Build 0)  -->
<!DOCTYPE svg PUBLIC "-//W3C//DTD SVG 1.1//EN" "http://www.w3.org/Graphics/SVG/1.1/DTD/svg11.dtd">
<svg version="1.1" id="Layer_1" xmlns="http://www.w3.org/2000/svg" xmlns:xlink="http://www.w3.org/1999/xlink" x="0px" y="0px"
	 width="31.68px" height="67.2px" viewBox="0 0 31.68 67.2" style="enable-background:new 0 0 31.68 67.2;" xml:space="preserve">
<path style="fill-rule:evenodd;clip-rule:evenodd;fill:#FFFFFF;" d="M31.68,15.854c0,7.869-5.729,14.395-13.239,15.637v0.034
	c-0.947,0.216-1.655,1.062-1.655,2.075s0.708,1.859,1.655,2.075v0.034c7.51,1.242,13.239,7.769,13.239,15.637
	c0,8.755-7.092,15.854-15.84,15.854S0,60.102,0,51.347c0-7.869,5.729-14.395,13.239-15.637v-0.104
	c0.826-0.292,1.418-1.079,1.418-2.006s-0.593-1.713-1.418-2.006v-0.104C5.729,30.249,0,23.722,0,15.854C0,7.098,7.092,0,15.84,0
	S31.68,7.098,31.68,15.854z M11.809,62.468c1.258,0.458,2.615,0.71,4.031,0.71s2.773-0.251,4.031-0.71H11.809z M8.317,60.463
	c0.322,0.267,0.66,0.515,1.009,0.747h13.027c0.349-0.232,0.687-0.48,1.009-0.747H8.317z M6.165,58.14
	c0.261,0.372,0.543,0.727,0.844,1.065h17.662c0.301-0.338,0.583-0.693,0.844-1.065H6.165z M4.753,55.444
	c0.183,0.495,0.395,0.977,0.64,1.438h20.895c0.245-0.462,0.457-0.943,0.64-1.438H4.753z M4.068,52.368
	c0.054,0.621,0.15,1.229,0.296,1.818h22.951c0.146-0.589,0.242-1.198,0.296-1.818H4.068z M27.655,51.11
	c-0.014-0.702-0.092-1.388-0.223-2.055H4.248c-0.131,0.667-0.209,1.353-0.223,2.055H27.655z M4.566,47.797h22.547
	c-1.506-4.799-5.981-8.282-11.273-8.282S6.073,42.998,4.566,47.797z M5.393,10.318c-0.875,1.652-1.374,3.535-1.374,5.536
	c0,6.534,5.292,11.831,11.821,11.831s11.821-5.297,11.821-11.831c0-2-0.498-3.884-1.374-5.536H5.393z M7.009,7.995
	C6.708,8.333,6.426,8.688,6.165,9.06h19.351c-0.261-0.372-0.543-0.727-0.844-1.065H7.009z M9.326,5.99
	C8.977,6.222,8.639,6.47,8.317,6.737h15.046c-0.322-0.267-0.66-0.515-1.009-0.747H9.326z M19.871,4.732
	c-1.258-0.458-2.615-0.71-4.031-0.71s-2.773,0.251-4.031,0.71H19.871z"/>
</svg>
