<?xml version="1.0" encoding="iso-8859-1"?>
<!-- Generator: Adobe Illustrator 16.0.0, SVG Export Plug-In . SVG Version: 6.00 Build 0)  -->
<!DOCTYPE svg PUBLIC "-//W3C//DTD SVG 1.1//EN" "http://www.w3.org/Graphics/SVG/1.1/DTD/svg11.dtd">
<svg version="1.1" id="Layer_1" xmlns="http://www.w3.org/2000/svg" xmlns:xlink="http://www.w3.org/1999/xlink" x="0px" y="0px"
	 width="57.6px" height="67.197px" viewBox="0 0 57.6 67.197" style="enable-background:new 0 0 57.6 67.197;" xml:space="preserve"
	>
<path style="fill-rule:evenodd;clip-rule:evenodd;fill:#FFFFFF;" d="M45,17.313c0,6.686,0,43.112,0,46.541
	c-2.92,1.998-9.257,3.085-12.086,3.085c0.241-5.153,0.6-11.828,0.514-14.914c-0.085-3.085-0.771-6-1.028-7.457
	c-0.257-1.457,0.085-6.514,0.514-7.971c0.429-1.457,0.6,0.086,0.771,1.8s0.771,9.342,0.514,12.085c1.206-3.225,1.543-5.485,1.543-9
	s0.086-8.571-2.571-10.028c-2.657-1.457-3.086-1.028-3.086-2.057c0-1.028,0.514-1.371,0.514-3.6s-1.457-2.314-1.8-2.314
	S27,23.57,27,25.798s0.514,2.571,0.514,3.6c0,1.029-0.429,0.6-3.086,2.057c-2.657,1.458-2.571,6.514-2.571,10.028
	s0.337,5.775,1.543,9c-0.257-2.743,0.343-10.371,0.514-12.085s0.343-3.257,0.771-1.8c0.429,1.458,0.771,6.514,0.514,7.971
	c-0.257,1.457-0.943,4.372-1.028,7.457c-0.086,3.085,0.273,9.76,0.514,14.914c-2.829,0-9.166-1.087-12.086-3.085
	c0-3.429,0-39.855,0-46.541S0,12.513,0,7.542s13.8-6.857,19.8-7.457s7.457,2.057,7.457,5.4s0,9.723,0,12.6
	c0,2.876,0.499,3.343,1.543,3.343s1.543-0.466,1.543-3.343c0-2.877,0-9.257,0-12.6s1.457-6,7.457-5.4s19.8,2.486,19.8,7.457
	S45,10.627,45,17.313z M9.514,21.684c0,5.657,0,39.341,0,40.884c-2.419-1.704-4.628-2.829-4.628-4.886s0-40.683,0-45.255
	C6.557,13.456,9.514,16.027,9.514,21.684z M28.8,48.169c1.752,0,1.8,15.428,1.8,18.771c-0.686,0.171-1.457,0.257-1.8,0.257
	s-1.114-0.086-1.8-0.257C27,63.597,27.048,48.169,28.8,48.169z M52.714,12.427c0,4.572,0,43.198,0,45.255s-2.209,3.182-4.628,4.886
	c0-1.543,0-35.227,0-40.884C48.085,16.027,51.042,13.456,52.714,12.427z"/>
</svg>
