<?xml version="1.0" encoding="iso-8859-1"?>
<!-- Generator: Adobe Illustrator 16.0.0, SVG Export Plug-In . SVG Version: 6.00 Build 0)  -->
<!DOCTYPE svg PUBLIC "-//W3C//DTD SVG 1.1//EN" "http://www.w3.org/Graphics/SVG/1.1/DTD/svg11.dtd">
<svg version="1.1" id="Layer_1" xmlns="http://www.w3.org/2000/svg" xmlns:xlink="http://www.w3.org/1999/xlink" x="0px" y="0px"
	 width="67.2px" height="67.2px" viewBox="0 0 67.2 67.2" style="enable-background:new 0 0 67.2 67.2;" xml:space="preserve">
<path style="fill-rule:evenodd;clip-rule:evenodd;fill:#FFFFFF;" d="M62.604,49.074c-2.539,0-4.597-2.058-4.597-4.596
	c0-2.539,2.058-4.597,4.597-4.597c2.538,0,4.596,2.058,4.596,4.597C67.2,47.016,65.142,49.074,62.604,49.074z M35.138,40.33
	c0-0.867,0.703-1.57,1.569-1.57s1.569,0.703,1.569,1.57c0,0.867-0.703,1.569-1.569,1.569S35.138,41.197,35.138,40.33z
	 M40.295,43.693c1.486,0,2.69,1.205,2.69,2.691c0,1.486-1.205,2.69-2.69,2.69s-2.69-1.205-2.69-2.69
	C37.604,44.897,38.809,43.693,40.295,43.693z M50.272,54.007c-2.043,0-3.699-1.656-3.699-3.7c0-2.043,1.656-3.699,3.699-3.699
	c2.043,0,3.7,1.656,3.7,3.699C53.972,52.351,52.315,54.007,50.272,54.007z M32.062,26.87c0,0.867-0.703,1.57-1.569,1.57
	s-1.569-0.703-1.569-1.57c0-0.867,0.703-1.569,1.569-1.569S32.062,26.003,32.062,26.87z M26.905,23.507
	c-1.486,0-2.69-1.205-2.69-2.691c0-1.486,1.205-2.69,2.69-2.69s2.69,1.205,2.69,2.69C29.596,22.303,28.391,23.507,26.905,23.507z
	 M16.928,13.193c2.043,0,3.699,1.656,3.699,3.7c0,2.043-1.656,3.699-3.699,3.699c-2.043,0-3.7-1.656-3.7-3.699
	C13.229,14.85,14.885,13.193,16.928,13.193z M36.532,33.873c-0.074,0.787-0.463,1.481-1.037,1.96
	C21.133,53.834,50.003,68.091,63.613,58.939C42.364,77.409,18.425,47.935,33.344,36.518c0.006-0.006,0.012-0.014,0.018-0.021
	c-0.49-0.045-0.943-0.213-1.333-0.469c-0.001,0.002-0.001,0.004-0.003,0.006c-0.022-0.019-0.044-0.036-0.067-0.055
	c-0.119-0.083-0.232-0.175-0.337-0.276C13.501,20.862-0.935,49.938,8.261,63.613c-18.469-21.249,11.005-45.188,22.421-30.269
	c0.017,0.014,0.033,0.029,0.05,0.043c0.036-0.497,0.19-0.959,0.443-1.356c-0.003-0.001-0.007-0.002-0.01-0.004
	c0.018-0.021,0.033-0.042,0.051-0.063c0.094-0.14,0.202-0.269,0.318-0.39C46.287,13.476,17.25-0.926,3.587,8.261
	c21.249-18.469,45.188,11.005,30.269,22.421c-0.003,0.003-0.006,0.007-0.009,0.011c0.812,0.059,1.529,0.452,2.021,1.04
	C53.853,46.032,68.085,17.189,58.939,3.587C77.401,24.828,47.958,48.755,36.532,33.873z M50.307,20.627
	c-2.043,0-3.699-1.656-3.699-3.699c0-2.043,1.656-3.7,3.699-3.7c2.043,0,3.7,1.656,3.7,3.7
	C54.007,18.971,52.351,20.627,50.307,20.627z M46.384,24.215c1.486,0,2.69,1.205,2.69,2.69s-1.205,2.69-2.69,2.69
	c-1.486,0-2.691-1.205-2.691-2.69S44.897,24.215,46.384,24.215z M44.478,9.193c-2.539,0-4.597-2.058-4.597-4.597
	C39.881,2.058,41.939,0,44.478,0c2.538,0,4.596,2.058,4.596,4.596C49.074,7.135,47.016,9.193,44.478,9.193z M41.899,30.493
	c0,0.867-0.703,1.569-1.569,1.569c-0.867,0-1.57-0.703-1.57-1.569s0.703-1.569,1.57-1.569
	C41.197,28.923,41.899,29.626,41.899,30.493z M9.193,22.722c0,2.539-2.058,4.597-4.597,4.597C2.058,27.319,0,25.261,0,22.722
	c0-2.538,2.058-4.596,4.596-4.596C7.135,18.126,9.193,20.184,9.193,22.722z M16.893,46.573c2.043,0,3.699,1.656,3.699,3.699
	c0,2.043-1.656,3.7-3.699,3.7c-2.043,0-3.7-1.656-3.7-3.7C13.193,48.229,14.85,46.573,16.893,46.573z M20.816,42.985
	c-1.486,0-2.69-1.205-2.69-2.69s1.205-2.69,2.69-2.69c1.486,0,2.691,1.205,2.691,2.69S22.303,42.985,20.816,42.985z M22.722,58.007
	c2.539,0,4.597,2.058,4.597,4.597c0,2.538-2.058,4.596-4.597,4.596c-2.538,0-4.596-2.058-4.596-4.596
	C18.126,60.065,20.184,58.007,22.722,58.007z M25.301,36.708c0-0.867,0.703-1.569,1.569-1.569c0.867,0,1.57,0.703,1.57,1.569
	s-0.703,1.569-1.57,1.569C26.003,38.277,25.301,37.574,25.301,36.708z"/>
</svg>
