<?xml version="1.0" encoding="iso-8859-1"?>
<!-- Generator: Adobe Illustrator 16.0.0, SVG Export Plug-In . SVG Version: 6.00 Build 0)  -->
<!DOCTYPE svg PUBLIC "-//W3C//DTD SVG 1.1//EN" "http://www.w3.org/Graphics/SVG/1.1/DTD/svg11.dtd">
<svg version="1.1" id="Layer_1" xmlns="http://www.w3.org/2000/svg" xmlns:xlink="http://www.w3.org/1999/xlink" x="0px" y="0px"
	 width="40.559px" height="67.2px" viewBox="0 0 40.559 67.2" style="enable-background:new 0 0 40.559 67.2;" xml:space="preserve"
	>
<path style="fill-rule:evenodd;clip-rule:evenodd;fill:#FFFFFF;" d="M37.353,36.8c-1.77,0-3.205-1.433-3.205-3.2
	s1.435-3.2,3.205-3.2c1.771,0,3.206,1.433,3.206,3.2S39.124,36.8,37.353,36.8z M17.892,60.686c-7.333,0-13.279-12.127-13.279-27.086
	S10.559,6.514,17.892,6.514c7.334,0,13.279,12.127,13.279,27.086S25.226,60.686,17.892,60.686z M17.206,8.915
	c-6.322,0-11.448,11.001-11.448,24.571s5.125,24.571,11.448,24.571s11.447-11.001,11.447-24.571S23.528,8.915,17.206,8.915z
	 M18.694,51.2c-4.236,0-7.67-7.982-7.67-17.829c0-9.847,3.434-17.829,7.67-17.829c4.236,0,7.669,7.982,7.669,17.829
	C26.363,43.218,22.93,51.2,18.694,51.2z M17.892,4.571c-1.264,0-2.289-1.023-2.289-2.286C15.603,1.023,16.628,0,17.892,0
	c1.265,0,2.29,1.023,2.29,2.286C20.182,3.548,19.157,4.571,17.892,4.571z M1.751,35.349C0.784,35.349,0,34.566,0,33.6
	s0.784-1.749,1.751-1.749s1.751,0.783,1.751,1.749S2.719,35.349,1.751,35.349z M17.892,62.629c1.265,0,2.29,1.023,2.29,2.286
	c0,1.262-1.025,2.286-2.29,2.286c-1.264,0-2.289-1.023-2.289-2.286C15.603,63.652,16.628,62.629,17.892,62.629z"/>
</svg>
