<?xml version="1.0" encoding="iso-8859-1"?>
<!-- Generator: Adobe Illustrator 16.0.0, SVG Export Plug-In . SVG Version: 6.00 Build 0)  -->
<!DOCTYPE svg PUBLIC "-//W3C//DTD SVG 1.1//EN" "http://www.w3.org/Graphics/SVG/1.1/DTD/svg11.dtd">
<svg version="1.1" id="Layer_1" xmlns="http://www.w3.org/2000/svg" xmlns:xlink="http://www.w3.org/1999/xlink" x="0px" y="0px"
	 width="67.2px" height="67.2px" viewBox="0 0 67.2 67.2" style="enable-background:new 0 0 67.2 67.2;" xml:space="preserve">
<path style="fill-rule:evenodd;clip-rule:evenodd;fill:#FFFFFF;" d="M33.6,67.2C15.043,67.2,0,52.157,0,33.6S15.043,0,33.6,0
	s33.6,15.043,33.6,33.6S52.157,67.2,33.6,67.2z M44.167,50.994c0.329,0.474,0.921,0.648,1.441,0.474
	c5.741-3.866,9.518-10.425,9.518-17.867s-3.777-14.001-9.518-17.867c-0.521-0.174-1.113,0-1.441,0.474
	c-0.332,0.479-0.283,1.103,0.072,1.529c5.103,3.429,8.462,9.254,8.462,15.864s-3.359,12.435-8.462,15.864
	C43.883,49.891,43.835,50.515,44.167,50.994z M21.587,32.944c0.314-8.496,6.687-12.583,11.27-14.098
	C25.043,19.233,18.828,25.69,18.828,33.6s6.216,14.367,14.029,14.754c-4.583-1.515-10.956-5.602-11.27-14.098
	c-0.012-0.217-0.019-0.436-0.019-0.656S21.575,33.161,21.587,32.944z M25.159,33.6c0,4.481,3.493,8.146,7.904,8.423
	c-1.836-0.89-5.002-3.44-5.002-8.493c0-5.592,3.875-7.891,5.54-8.371C28.938,25.159,25.159,28.938,25.159,33.6z M39.78,45.709
	c0.374,0.502,1.024,0.67,1.583,0.46c4.207-2.604,7.01-7.258,7.01-12.569s-2.804-9.965-7.01-12.569
	c-0.559-0.21-1.209-0.042-1.583,0.46c-0.452,0.608-0.325,1.467,0.283,1.919c-0.022,0-0.043,0-0.066,0
	c3.384,2.129,5.635,5.896,5.635,10.189c0,4.294-2.251,8.06-5.635,10.189c0.022,0,0.044,0,0.066,0
	C39.455,44.242,39.328,45.101,39.78,45.709z M36.125,28.732c1.759,0.914,2.962,2.749,2.962,4.868s-1.203,3.954-2.962,4.868
	c0.033-0.005,0.065-0.006,0.099-0.019c-0.702,0.416-0.934,1.322-0.519,2.023c0.357,0.604,1.077,0.857,1.718,0.653
	c2.74-1.395,4.618-4.24,4.618-7.525c0-3.286-1.878-6.13-4.618-7.525c-0.641-0.204-1.36,0.049-1.718,0.653
	c-0.416,0.702-0.184,1.608,0.519,2.023C36.19,28.738,36.158,28.737,36.125,28.732z M33.6,55.126
	c-8.653,0-19.205-7.879-19.205-21.526c0.035,0,0.069,0.004,0.104,0.012c0-0.004,0-0.008,0-0.012s0-0.008,0-0.012
	c-0.035,0.008-0.07,0.012-0.104,0.012c0-13.647,10.552-21.526,19.205-21.526c-11.889,0-21.526,9.637-21.526,21.526
	S21.711,55.126,33.6,55.126z M5.321,33.6c0,15.222,12.029,27.63,27.099,28.25C20.236,61.236,7.431,51.181,7.431,33.6
	c0,0,0.001,0,0.001,0l0,0l0,0c0,0-0.001,0-0.001,0c0-17.581,12.805-27.636,24.988-28.25C17.35,5.97,5.321,18.378,5.321,33.6z
	 M49.923,10.515c-0.459-0.246-1.039-0.125-1.351,0.309c-0.341,0.473-0.234,1.132,0.239,1.473c-0.033-0.018-0.063-0.033-0.096-0.051
	C55.4,16.987,59.768,24.781,59.768,33.6S55.4,50.213,48.715,54.954c0.033-0.018,0.063-0.033,0.096-0.051
	c-0.473,0.341-0.58,1-0.239,1.473c0.313,0.434,0.892,0.555,1.351,0.309c7.231-5.123,11.956-13.549,11.956-23.085
	S57.154,15.637,49.923,10.515z"/>
</svg>
