<?xml version="1.0" encoding="iso-8859-1"?>
<!-- Generator: Adobe Illustrator 16.0.0, SVG Export Plug-In . SVG Version: 6.00 Build 0)  -->
<!DOCTYPE svg PUBLIC "-//W3C//DTD SVG 1.1//EN" "http://www.w3.org/Graphics/SVG/1.1/DTD/svg11.dtd">
<svg version="1.1" id="Layer_1" xmlns="http://www.w3.org/2000/svg" xmlns:xlink="http://www.w3.org/1999/xlink" x="0px" y="0px"
	 width="67.2px" height="33.84px" viewBox="0 0 67.2 33.84" style="enable-background:new 0 0 67.2 33.84;" xml:space="preserve">
<path style="fill-rule:evenodd;clip-rule:evenodd;fill:#FFFFFF;" d="M41.425,16.92c0,1.907-1.545,3.453-3.452,3.453
	c-1.906,0-3.452-1.546-3.452-3.453s1.546-3.453,3.452-3.453C39.879,13.467,41.425,15.013,41.425,16.92z M25.775,16.92
	c0-1.907,1.545-3.453,3.452-3.453c1.906,0,3.452,1.546,3.452,3.453s-1.546,3.453-3.452,3.453
	C27.321,20.373,25.775,18.827,25.775,16.92z M50.285,33.84c-4.907,0-9.321-2.093-12.409-5.433c0.033,0.007,0.064,0.016,0.097,0.023
	c-1.361-1.437-2.942-4.366-2.987-7.903c1.126,1.579,2.972,2.608,5.059,2.608c3.432,0,6.214-2.783,6.214-6.215
	s-2.782-6.215-6.214-6.215c-1.977,0-3.734,0.925-4.872,2.364c-1.729,2.637-1.02,4.239-1.732,7.447
	c-0.005,0.024-0.01,0.047-0.016,0.071c-0.019,0.083-0.034,0.162-0.055,0.247c-0.011,0.044-0.023,0.085-0.036,0.127
	c-1.812,7.392-8.471,12.879-16.419,12.879C7.573,33.84,0,26.265,0,16.92S7.573,0,16.915,0c4.908,0,9.324,2.093,12.413,5.434
	c-0.034-0.008-0.066-0.017-0.101-0.024c1.361,1.437,2.942,4.366,2.987,7.903c-1.126-1.579-2.972-2.608-5.059-2.608
	c-3.432,0-6.214,2.783-6.214,6.215s2.782,6.215,6.214,6.215c1.977,0,3.734-0.925,4.872-2.364c1.357-2.069,1.212-3.501,1.429-5.571
	c0.001-0.013,0.003-0.025,0.004-0.039c0.024-0.226,0.054-0.461,0.089-0.705c0.008-0.057,0.016-0.113,0.024-0.169
	c0.034-0.218,0.073-0.442,0.121-0.676C35.233,5.852,42.075,0,50.285,0C59.627,0,67.2,7.575,67.2,16.92S59.627,33.84,50.285,33.84z"
	/>
</svg>
