<?xml version="1.0" encoding="iso-8859-1"?>
<!-- Generator: Adobe Illustrator 16.0.0, SVG Export Plug-In . SVG Version: 6.00 Build 0)  -->
<!DOCTYPE svg PUBLIC "-//W3C//DTD SVG 1.1//EN" "http://www.w3.org/Graphics/SVG/1.1/DTD/svg11.dtd">
<svg version="1.1" id="Layer_1" xmlns="http://www.w3.org/2000/svg" xmlns:xlink="http://www.w3.org/1999/xlink" x="0px" y="0px"
	 width="67.2px" height="30.72px" viewBox="0 0 67.2 30.72" style="enable-background:new 0 0 67.2 30.72;" xml:space="preserve">
<path style="fill-rule:evenodd;clip-rule:evenodd;fill:#FFFFFF;" d="M60.114,21.55c0,1.899-1.535,3.439-3.428,3.439
	s-3.429-1.54-3.429-3.439c0-1.899,1.535-3.439,3.429-3.439S60.114,19.65,60.114,21.55z M51.892,30.72
	c-5.355,0-10.065-2.761-12.801-6.94c0.192,0.249,0.396,0.506,0.617,0.776c1.951,2.379,8.188,5.721,14.832,4.106
	c4.088-0.534,7.245-4.039,7.245-8.286c0-3.153-1.741-5.896-4.309-7.32c-6.154-4.038-14.828-0.073-19.762,3.451
	c-0.278,0.199-0.484,0.381-0.629,0.549c-3.351,2.425-7.81,6.286-10.685,8.882c-0.501,0.529-1.04,1.022-1.612,1.476
	c-0.034,0.032-0.071,0.066-0.103,0.096c-0.193,0.18-0.366,0.301-0.523,0.375c-2.5,1.783-5.554,2.834-8.854,2.834
	C6.854,30.72,0,23.843,0,15.36S6.854,0,15.308,0c5.355,0,10.065,2.761,12.801,6.94c-0.192-0.249-0.396-0.506-0.617-0.776
	c-1.951-2.379-8.188-5.721-14.832-4.106c-4.088,0.534-7.245,4.039-7.245,8.286c0,3.153,1.74,5.896,4.309,7.32
	c6.154,4.038,14.828,0.073,19.762-3.451c0.278-0.199,0.484-0.381,0.629-0.549c3.351-2.425,7.81-6.286,10.685-8.882
	c0.501-0.529,1.04-1.022,1.612-1.476c0.034-0.032,0.071-0.066,0.103-0.096c0.193-0.18,0.366-0.301,0.523-0.375
	C45.538,1.052,48.592,0,51.892,0C60.347,0,67.2,6.877,67.2,15.36S60.347,30.72,51.892,30.72z M7.086,9.17
	c0-1.899,1.535-3.439,3.428-3.439s3.429,1.54,3.429,3.439c0,1.899-1.535,3.439-3.429,3.439S7.086,11.069,7.086,9.17z"/>
</svg>
